<svg xmlns="http://www.w3.org/2000/svg" viewBox="0 0 1453.9 1258.55"><defs><style>.cls-1,.cls-2{fill:none;stroke:#000;stroke-miterlimit:10;}.cls-1{stroke-width:11px;}.cls-2{stroke-width:9px;}</style></defs><title>logoJBAsset 2</title><g id="Layer_2" data-name="Layer 2"><g id="Layer_1-2" data-name="Layer 1"><path d="M1446.25,19.55l-235.71,246q-15.57-20.1-32.77-38.84L1415.25,5.55Z"/><path d="M1210.54,265.53,803.75,690l-58.5,171.5h-33l-61-171L242,265.44q15.44-19.91,32.44-38.47L707.25,627.55l39.5.5,431-401.36Q1194.94,245.41,1210.54,265.53Z"/><path d="M35.25,5.55,274.47,227q-17,18.56-32.44,38.47L7.25,21.55Z"/><path class="cls-1" d="M274.47,227q-17,18.56-32.44,38.47A609.79,609.79,0,0,0,113.75,640.55c0,338.27,274.23,612.5,612.5,612.5s612.5-274.23,612.5-612.5a609.81,609.81,0,0,0-128.21-375q-15.57-20.1-32.77-38.84"/><polygon class="cls-2" points="1210.54 265.52 803.75 690.04 745.25 861.54 712.25 861.54 651.25 690.54 242.03 265.44 7.25 21.55 35.25 5.54 274.47 226.97 707.25 627.54 746.75 628.04 1177.77 226.69 1415.25 5.54 1446.25 19.55 1210.54 265.52"/></g></g></svg>