<?xml version="1.0" encoding="utf-8"?>
<!-- Generator: Adobe Illustrator 23.0.1, SVG Export Plug-In . SVG Version: 6.00 Build 0)  -->
<svg version="1.1" id="Layer_1" xmlns="http://www.w3.org/2000/svg" xmlns:xlink="http://www.w3.org/1999/xlink" x="0px" y="0px"
	 viewBox="0 0 1294.3 359.5" style="enable-background:new 0 0 1294.3 359.5;" xml:space="preserve">
<style type="text/css">
	.st0{fill-rule:evenodd;clip-rule:evenodd;fill:#040404;}
	.st1{fill-rule:evenodd;clip-rule:evenodd;fill:#FFFFFF;}
	.st2{fill-rule:evenodd;clip-rule:evenodd;fill:#4D4D4D;}
	.st3{fill-rule:evenodd;clip-rule:evenodd;fill:#333333;}
	.st4{fill-rule:evenodd;clip-rule:evenodd;fill:#246EB9;}
	.st5{fill-rule:evenodd;clip-rule:evenodd;fill:#F7F7F7;}
	.st6{fill-rule:evenodd;clip-rule:evenodd;fill:#EA4647;}
	.st7{fill-rule:evenodd;clip-rule:evenodd;fill:#999999;}
	.st8{fill-rule:evenodd;clip-rule:evenodd;fill:#AFAFAF;}
	.st9{fill-rule:evenodd;clip-rule:evenodd;fill:#919296;}
	.st10{fill-rule:evenodd;clip-rule:evenodd;fill:url(#SVGID_1_);}
	.st11{fill-rule:evenodd;clip-rule:evenodd;fill:#464142;}
	.st12{fill-rule:evenodd;clip-rule:evenodd;fill:url(#SVGID_2_);}
	.st13{fill-rule:evenodd;clip-rule:evenodd;fill:#1D1E21;}
	.st14{fill-rule:evenodd;clip-rule:evenodd;fill:#0D0F12;}
	.st15{fill-rule:evenodd;clip-rule:evenodd;fill:#1C1E20;}
	.st16{fill-rule:evenodd;clip-rule:evenodd;fill:#DCDDE0;}
	.st17{fill-rule:evenodd;clip-rule:evenodd;fill:#CECECE;}
	.st18{fill-rule:evenodd;clip-rule:evenodd;fill:url(#SVGID_3_);}
	.st19{fill-rule:evenodd;clip-rule:evenodd;fill:url(#SVGID_4_);}
</style>
<title>devices copy</title>
<desc>Created with Sketch.</desc>
<g id="Page-1">
	<g id="devices-copy">
		<path id="Path" class="st0" d="M784.8,7.2h426.6c14.7,0,26.7,12,26.7,26.7v289h-480v-289C758.2,19.1,770.1,7.2,784.8,7.2z"/>
		<path id="Rectangle" class="st1" d="M771.6,27.7H1227c1,0,1.8,0.8,1.8,1.8v271.8c0,1-0.8,1.8-1.8,1.8H771.6c-1,0-1.8-0.8-1.8-1.8
			V29.4C769.8,28.5,770.6,27.7,771.6,27.7z"/>
		<ellipse id="Oval" class="st2" cx="996.1" cy="16.9" rx="2.9" ry="2.9"/>
		<rect x="769.2" y="41.2" class="st3" width="458.9" height="18.6"/>
		<rect x="809.1" y="68.2" class="st4" width="373.5" height="96.5"/>
		<rect x="877.4" y="109.7" class="st5" width="237" height="19.7"/>
		<rect x="1063.8" y="109.7" class="st6" width="50.5" height="19.9"/>
		<rect x="937.9" y="175.5" class="st3" width="115.2" height="50.8"/>
		<rect x="1067.3" y="174.4" class="st3" width="115.2" height="50.8"/>
		<rect x="809.1" y="175.5" class="st3" width="115.2" height="50.8"/>
		<rect x="938.2" y="234.5" class="st7" width="115.2" height="3.4"/>
		<rect x="938.2" y="244.2" class="st7" width="115.2" height="3.4"/>
		<rect x="938.2" y="254" class="st7" width="115.2" height="3.4"/>
		<rect x="938.2" y="263.7" class="st7" width="115.2" height="3.4"/>
		<rect x="809.1" y="274.9" class="st4" width="373.5" height="27.9"/>
		<rect x="809.1" y="234.1" class="st7" width="115.2" height="3.4"/>
		<rect x="809.1" y="243.8" class="st7" width="115.2" height="3.4"/>
		<rect x="809.1" y="253.6" class="st7" width="115.2" height="3.4"/>
		<rect x="809.1" y="263.3" class="st7" width="115.2" height="3.4"/>
		<rect x="1067.3" y="234.5" class="st7" width="115.2" height="3.4"/>
		<rect x="1067.3" y="244.2" class="st7" width="115.2" height="3.4"/>
		<rect x="1067.3" y="254" class="st7" width="115.2" height="3.4"/>
		<rect x="1067.3" y="263.7" class="st7" width="115.2" height="3.4"/>
		<rect x="1069" y="48.6" class="st7" width="55.7" height="4.7"/>
		<rect x="999" y="48.6" class="st8" width="55.7" height="4.7"/>
		<rect x="862.1" y="48.6" class="st7" width="55.7" height="4.7"/>
		<rect x="929.1" y="48.6" class="st7" width="55.7" height="4.7"/>
		<path class="st9" d="M1290.2,338.4c0,4.8-19.1,11.8-22.6,11.8H727.8c-3.5,0-22.6-7-22.6-11.8H1290.2z"/>
		
			<linearGradient id="SVGID_1_" gradientUnits="userSpaceOnUse" x1="-804.621" y1="689.0322" x2="-803.8621" y2="689.0322" gradientTransform="matrix(784.87 0 0 -28.12 632221.5 19708.8887)">
			<stop  offset="0" style="stop-color:#606162"/>
			<stop  offset="0.12" style="stop-color:#B7BABB"/>
			<stop  offset="0.36" style="stop-color:#A2A5A6"/>
			<stop  offset="0.51" style="stop-color:#C9CCCD"/>
			<stop  offset="0.73" style="stop-color:#848687"/>
			<stop  offset="0.88" style="stop-color:#9C9FA0"/>
			<stop  offset="1" style="stop-color:#4C4D4E"/>
		</linearGradient>
		<path class="st10" d="M698.7,322.7h595.6v3.9c0,9.6-7.8,17.4-17.4,17.4H715.6c-4.5,0-8.8-1.8-12-5s-5-7.5-5-12L698.7,322.7
			L698.7,322.7z"/>
		<path class="st11" d="M1276,347.3c0,2.1-18.2,5.1-21.5,5.1h-514c-3.4,0-21.5-3.1-21.5-5.1H1276z"/>
		
			<linearGradient id="SVGID_2_" gradientUnits="userSpaceOnUse" x1="-796.4447" y1="643.2099" x2="-796.4447" y2="642.4511" gradientTransform="matrix(109.19 0 0 -11.36 87957.3516 7630.9761)">
			<stop  offset="0" style="stop-color:#9C9FA0"/>
			<stop  offset="0.24" style="stop-color:#A2A5A6"/>
			<stop  offset="1" style="stop-color:#4C4D4E"/>
		</linearGradient>
		<path class="st12" d="M1035,324.1c-0.1,4.7-3.9,8.5-8.5,8.6h-66.6c-4.8,0-7.8-4.3-7.8-8.6H1035z"/>
		<path class="st13" d="M911.3,350.9c1.6-1.3,6.2-1.2,7.3,0.1C916.3,351.6,913.7,351.5,911.3,350.9z"/>
		<path class="st13" d="M1072.8,351.2c1.6-1.3,6.2-1.2,7.3,0.1C1077.7,351.9,1075.1,351.9,1072.8,351.2z"/>
		<path class="st13" d="M740.2,350.6c1.6-1.3,6.2-1.2,7.3,0.1C745.2,351.4,742.6,351.3,740.2,350.6z"/>
		<path class="st13" d="M1241.3,351.1c1.6-1.3,6.2-1.2,7.3,0.1C1246.2,351.8,1243.7,351.8,1241.3,351.1z"/>
		<path class="st14" d="M1235.7,334.7c-0.4,0.2-0.8,0.3-1.2,0.3h-17.4c-0.4,0.1-0.9-0.1-1.2-0.4
			C1222.5,334.6,1229.1,334.6,1235.7,334.7z"/>
		<path class="st15" d="M1215.6,336c-0.7-1-1.4-1.8,0.3-2.5c4.4,0.4,8.8,0.1,13.3,0.2c2.2,0.2,4.4,0.1,6.6-0.2c1.8,0.9,1,1.7,0,2.5
			c-1.2,0.5-2.4,0.2-3.6,0.2c-4.8,0-9.6,0-14.5,0C1216.9,336.4,1216.2,336.7,1215.6,336z"/>
		<path class="st16" d="M1215.6,336l20.2,0.1c0,0.1,0,0.2,0,0.3c-6.7,0-13.3,0.1-20,0.1c-0.1,0-0.2-0.1-0.2-0.1
			S1215.6,336.2,1215.6,336z"/>
		<path class="st14" d="M1235.7,333.6c-0.4,0.2-0.8,0.3-1.2,0.3h-17.4c-0.4,0.1-0.9-0.1-1.2-0.4
			C1222.5,333.5,1229.1,333.4,1235.7,333.6z"/>
		<path class="st14" d="M1235.7,333.6c-0.4,0.2-0.8,0.3-1.2,0.3h-17.4c-0.4,0.1-0.9-0.1-1.2-0.4
			C1222.5,333.5,1229.1,333.4,1235.7,333.6z"/>
		<path class="st15" d="M1215.6,336c-0.7-1-1.4-1.8,0.3-2.5c4.4,0.4,8.8,0.1,13.3,0.2c2.2,0.2,4.4,0.1,6.6-0.2c1.8,0.9,1,1.7,0,2.5
			c-1.2,0.5-2.4,0.2-3.6,0.2c-4.8,0-9.6,0-14.5,0C1216.9,336.4,1216.2,336.7,1215.6,336z"/>
		<path class="st17" d="M1215.6,336l20.2,0.1c0,0.1,0,0.2,0,0.3c-6.7,0-13.3,0.1-20,0.1c-0.1,0-0.2-0.1-0.2-0.1
			S1215.6,336.2,1215.6,336z"/>
		<path class="st14" d="M1235.7,333.6c-0.4,0.2-0.8,0.3-1.2,0.3h-17.4c-0.4,0.1-0.9-0.1-1.2-0.4
			C1222.5,333.5,1229.1,333.4,1235.7,333.6z"/>
	</g>
</g>
<title>devices copy</title>
<desc>Created with Sketch.</desc>
<g id="Page-1_1_">
	<g id="devices-copy_1_">
		<path id="Path_1_" class="st0" d="M86.2,7.2h426.6c14.7,0,26.7,12,26.7,26.7v289h-480v-289C59.5,19.1,71.4,7.2,86.2,7.2z"/>
		<path id="Rectangle_1_" class="st1" d="M72.9,27.7h455.4c1,0,1.8,0.8,1.8,1.8v271.8c0,1-0.8,1.8-1.8,1.8H72.9
			c-1,0-1.8-0.8-1.8-1.8V29.4C71.1,28.5,71.9,27.7,72.9,27.7z"/>
		<ellipse id="Oval_1_" class="st2" cx="297.4" cy="16.9" rx="2.9" ry="2.9"/>
		<rect x="70.5" y="41.2" class="st3" width="458.9" height="18.6"/>
		<rect x="110.5" y="68.2" class="st3" width="373.5" height="96.5"/>
		<rect x="178.7" y="109.7" class="st5" width="237" height="19.7"/>
		<rect x="365.1" y="109.7" class="st6" width="50.5" height="19.9"/>
		<rect x="239.2" y="175.5" class="st4" width="115.2" height="50.8"/>
		<rect x="368.7" y="174.4" class="st4" width="115.2" height="50.8"/>
		<rect x="110.5" y="175.5" class="st4" width="115.2" height="50.8"/>
		<rect x="239.6" y="234.5" class="st7" width="115.2" height="3.4"/>
		<rect x="239.6" y="244.2" class="st7" width="115.2" height="3.4"/>
		<rect x="239.6" y="254" class="st7" width="115.2" height="3.4"/>
		<rect x="239.6" y="263.7" class="st7" width="115.2" height="3.4"/>
		<rect x="110.5" y="274.9" class="st6" width="373.5" height="27.9"/>
		<rect x="110.5" y="234.1" class="st7" width="115.2" height="3.4"/>
		<rect x="110.5" y="243.8" class="st7" width="115.2" height="3.4"/>
		<rect x="110.5" y="253.6" class="st7" width="115.2" height="3.4"/>
		<rect x="110.5" y="263.3" class="st7" width="115.2" height="3.4"/>
		<rect x="368.7" y="234.5" class="st7" width="115.2" height="3.4"/>
		<rect x="368.7" y="244.2" class="st7" width="115.2" height="3.4"/>
		<rect x="368.7" y="254" class="st7" width="115.2" height="3.4"/>
		<rect x="368.7" y="263.7" class="st7" width="115.2" height="3.4"/>
		<rect x="370.3" y="48.6" class="st7" width="55.7" height="4.7"/>
		<rect x="300.3" y="48.6" class="st8" width="55.7" height="4.7"/>
		<rect x="163.4" y="48.6" class="st7" width="55.7" height="4.7"/>
		<rect x="230.4" y="48.6" class="st7" width="55.7" height="4.7"/>
		<path class="st9" d="M591.6,338.4c0,4.8-19.1,11.8-22.6,11.8H29.2c-3.5,0-22.6-7-22.6-11.8H591.6z"/>
		
			<linearGradient id="SVGID_3_" gradientUnits="userSpaceOnUse" x1="-805.5111" y1="689.0322" x2="-804.7521" y2="689.0322" gradientTransform="matrix(784.87 0 0 -28.12 632221.5 19708.8887)">
			<stop  offset="0" style="stop-color:#606162"/>
			<stop  offset="0.12" style="stop-color:#B7BABB"/>
			<stop  offset="0.36" style="stop-color:#A2A5A6"/>
			<stop  offset="0.51" style="stop-color:#C9CCCD"/>
			<stop  offset="0.73" style="stop-color:#848687"/>
			<stop  offset="0.88" style="stop-color:#9C9FA0"/>
			<stop  offset="1" style="stop-color:#4C4D4E"/>
		</linearGradient>
		<path class="st18" d="M0.1,322.7h595.6v3.9c0,9.6-7.8,17.4-17.4,17.4H17c-4.5,0-8.8-1.8-12-5s-5-7.5-5-12L0.1,322.7L0.1,322.7z"/>
		<path class="st11" d="M577.3,347.3c0,2.1-18.2,5.1-21.5,5.1h-514c-3.4,0-21.5-3.1-21.5-5.1H577.3z"/>
		
			<linearGradient id="SVGID_4_" gradientUnits="userSpaceOnUse" x1="-802.8437" y1="643.2099" x2="-802.8437" y2="642.4511" gradientTransform="matrix(109.19 0 0 -11.36 87957.3516 7630.9761)">
			<stop  offset="0" style="stop-color:#9C9FA0"/>
			<stop  offset="0.24" style="stop-color:#A2A5A6"/>
			<stop  offset="1" style="stop-color:#4C4D4E"/>
		</linearGradient>
		<path class="st19" d="M336.3,324.1c-0.1,4.7-3.9,8.5-8.5,8.6h-66.6c-4.8,0-7.8-4.3-7.8-8.6H336.3z"/>
		<path class="st13" d="M212.6,350.9c1.6-1.3,6.2-1.2,7.3,0.1C217.6,351.6,215,351.5,212.6,350.9z"/>
		<path class="st13" d="M374.1,351.2c1.6-1.3,6.2-1.2,7.3,0.1C379,351.9,376.5,351.9,374.1,351.2z"/>
		<path class="st13" d="M41.6,350.6c1.6-1.3,6.2-1.2,7.3,0.1C46.5,351.4,44,351.3,41.6,350.6z"/>
		<path class="st13" d="M542.6,351.1c1.6-1.3,6.2-1.2,7.3,0.1C547.5,351.8,545,351.8,542.6,351.1z"/>
		<path class="st14" d="M537.1,334.7c-0.4,0.2-0.8,0.3-1.2,0.3h-17.4c-0.4,0.1-0.9-0.1-1.2-0.4C523.9,334.6,530.5,334.6,537.1,334.7
			z"/>
		<path class="st15" d="M516.9,336c-0.7-1-1.4-1.8,0.3-2.5c4.4,0.4,8.8,0.1,13.3,0.2c2.2,0.2,4.4,0.1,6.6-0.2c1.8,0.9,1,1.7,0,2.5
			c-1.2,0.5-2.4,0.2-3.6,0.2c-4.8,0-9.6,0-14.5,0C518.3,336.4,517.5,336.7,516.9,336z"/>
		<path class="st16" d="M516.9,336l20.2,0.1c0,0.1,0,0.2,0,0.3c-6.7,0-13.3,0.1-20,0.1c-0.1,0-0.2-0.1-0.2-0.1
			S516.9,336.2,516.9,336z"/>
		<path class="st14" d="M537.1,333.6c-0.4,0.2-0.8,0.3-1.2,0.3h-17.4c-0.4,0.1-0.9-0.1-1.2-0.4C523.9,333.5,530.5,333.4,537.1,333.6
			z"/>
		<path class="st14" d="M537.1,333.6c-0.4,0.2-0.8,0.3-1.2,0.3h-17.4c-0.4,0.1-0.9-0.1-1.2-0.4C523.9,333.5,530.5,333.4,537.1,333.6
			z"/>
		<path class="st15" d="M516.9,336c-0.7-1-1.4-1.8,0.3-2.5c4.4,0.4,8.8,0.1,13.3,0.2c2.2,0.2,4.4,0.1,6.6-0.2c1.8,0.9,1,1.7,0,2.5
			c-1.2,0.5-2.4,0.2-3.6,0.2c-4.8,0-9.6,0-14.5,0C518.3,336.4,517.5,336.7,516.9,336z"/>
		<path class="st17" d="M516.9,336l20.2,0.1c0,0.1,0,0.2,0,0.3c-6.7,0-13.3,0.1-20,0.1c-0.1,0-0.2-0.1-0.2-0.1
			S516.9,336.2,516.9,336z"/>
		<path class="st14" d="M537.1,333.6c-0.4,0.2-0.8,0.3-1.2,0.3h-17.4c-0.4,0.1-0.9-0.1-1.2-0.4C523.9,333.5,530.5,333.4,537.1,333.6
			z"/>
	</g>
</g>
</svg>
