<?xml version="1.0" encoding="utf-8"?>
<!-- Generator: Adobe Illustrator 23.0.1, SVG Export Plug-In . SVG Version: 6.00 Build 0)  -->
<svg version="1.1" id="Layer_1" xmlns="http://www.w3.org/2000/svg" xmlns:xlink="http://www.w3.org/1999/xlink" x="0px" y="0px"
	 viewBox="0 0 429.8 330.8" style="enable-background:new 0 0 429.8 330.8;" xml:space="preserve">
<style type="text/css">
	.st0{fill-rule:evenodd;clip-rule:evenodd;fill:#040404;}
	.st1{fill-rule:evenodd;clip-rule:evenodd;fill:#FFFFFF;}
	.st2{fill-rule:evenodd;clip-rule:evenodd;fill:#4D4D4D;}
	.st3{fill:#EA4647;stroke:#000000;stroke-width:0.4064;stroke-miterlimit:10;}
	.st4{fill:#333333;stroke:#000000;stroke-width:0.4064;stroke-miterlimit:10;}
	.st5{fill:#246EB9;stroke:#000000;stroke-width:0.4064;stroke-miterlimit:10;}
	.st6{fill:#009688;stroke:#000000;stroke-width:0.4064;stroke-miterlimit:10;}
	.st7{fill:#FFEB3B;stroke:#000000;stroke-width:0.4064;stroke-miterlimit:10;}
</style>
<title>devices copy</title>
<desc>Created with Sketch.</desc>
<g id="Page-1">
	<g id="devices-copy">
		<path class="st0" d="M423.4,36.8V294c0,17.6-14.3,31.9-31.9,31.9H38.4c-17.6,0-31.9-14.3-31.9-31.9V36.8
			c0-17.6,14.3-31.9,31.9-31.9h353C409.1,4.8,423.4,19.1,423.4,36.8z"/>
		<path class="st1" d="M402.2,25.2v280.4c0,1.2-1,2.2-2.2,2.2H26.3c-1.2,0-2.2-1-2.2-2.2V25.2c0-1.2,1-2.2,2.2-2.2H400
			C401.2,23,402.2,24,402.2,25.2z"/>
		<circle class="st2" cx="413" cy="165.4" r="2.4"/>
	</g>
</g>
<g>
	<rect x="62.9" y="290.9" class="st3" width="304" height="4.2"/>
	<rect x="345.5" y="35.7" class="st3" width="20.2" height="255.2"/>
	<polyline class="st4" points="322.9,290.9 302.7,290.9 302.7,76.5 322.9,76.5 322.9,290.9 	"/>
	<rect x="259.9" y="69.2" class="st5" width="20.2" height="221.9"/>
	<rect x="217.2" y="120.2" class="st6" width="20.2" height="170.7"/>
	<rect x="174.4" y="148" class="st7" width="20.2" height="142.9"/>
	<rect x="131.7" y="193.5" class="st3" width="20.2" height="97.4"/>
	<rect x="88.9" y="210.3" class="st3" width="20.2" height="80.6"/>
</g>
</svg>
