<?xml version="1.0" encoding="utf-8"?>
<!-- Generator: Adobe Illustrator 23.0.1, SVG Export Plug-In . SVG Version: 6.00 Build 0)  -->
<svg version="1.1" id="b976120c-196c-4962-876b-15d020b5ba45"
	 xmlns="http://www.w3.org/2000/svg" xmlns:xlink="http://www.w3.org/1999/xlink" x="0px" y="0px" viewBox="0 0 1920 1080"
	 style="enable-background:new 0 0 1920 1080;" xml:space="preserve">
<style type="text/css">
	.st0{fill-rule:evenodd;clip-rule:evenodd;fill:#040404;}
	.st1{fill-rule:evenodd;clip-rule:evenodd;fill:#FFFFFF;}
	.st2{fill:#4D4D4D;}
	.st3{fill:#333333;}
	.st4{fill:#F7F7F7;}
	.st5{fill:#EA4647;}
	.st6{fill:#246EB9;}
	.st7{fill:#999999;}
	.st8{fill:#AFAFAF;}
	.st9{fill-rule:evenodd;clip-rule:evenodd;fill:#919296;}
	.st10{fill-rule:evenodd;clip-rule:evenodd;fill:url(#SVGID_1_);}
	.st11{fill-rule:evenodd;clip-rule:evenodd;fill:#464142;}
	.st12{fill-rule:evenodd;clip-rule:evenodd;fill:url(#SVGID_2_);}
	.st13{fill-rule:evenodd;clip-rule:evenodd;fill:#1D1E21;}
	.st14{fill:#666666;}
	.st15{fill-rule:evenodd;clip-rule:evenodd;fill:#423F43;}
</style>
<title>bdevices</title>
<g id="a1346d95-522a-4fe2-95b9-c068ba6a0c2c">
	<g>
		<path id="f996e9d7-b481-4d85-8a4e-98ae00ffb191" class="st0" d="M1504.8,347.6h543.4c18.8,0,34,15.2,34,34v368.1h-611.4V381.6
			C1470.8,362.9,1486,347.7,1504.8,347.6L1504.8,347.6z"/>
		<path id="b2841a18-8149-43d1-aa9c-02984d559a41" class="st1" d="M1488,373.8h580c1.2,0,2.2,1,2.2,2.2v346.2c0,1.2-1,2.2-2.2,2.2
			h-580c-1.2,0-2.2-1-2.2-2.2V376C1485.7,374.8,1486.7,373.8,1488,373.8z"/>
		<circle id="e8577ae1-b3c2-47d5-b2cd-5d32f1ade78b" class="st2" cx="1773.9" cy="360" r="3.7"/>
		<rect x="1484.9" y="391" class="st3" width="584.6" height="23.8"/>
		<rect x="1535.8" y="425.4" class="st3" width="475.7" height="123"/>
		<rect x="1622.7" y="478.2" class="st4" width="301.9" height="25.1"/>
		<rect x="1860.2" y="478.2" class="st5" width="64.3" height="25.4"/>
		<rect x="1699.8" y="562.1" class="st6" width="146.7" height="64.7"/>
		<rect x="1864.7" y="560.6" class="st6" width="146.7" height="64.7"/>
		<rect x="1535.8" y="562.1" class="st6" width="146.7" height="64.7"/>
		<rect x="1700.2" y="637.2" class="st7" width="146.7" height="4.3"/>
		<rect x="1700.2" y="649.6" class="st7" width="146.7" height="4.3"/>
		<rect x="1700.2" y="662" class="st7" width="146.7" height="4.3"/>
		<rect x="1700.2" y="674.4" class="st7" width="146.7" height="4.3"/>
		<rect x="1535.8" y="688.7" class="st5" width="475.7" height="35.5"/>
		<rect x="1535.8" y="636.7" class="st7" width="146.7" height="4.3"/>
		<rect x="1535.8" y="649.1" class="st7" width="146.7" height="4.3"/>
		<rect x="1535.8" y="661.5" class="st7" width="146.7" height="4.3"/>
		<rect x="1535.8" y="673.9" class="st7" width="146.7" height="4.3"/>
		<rect x="1864.7" y="637.2" class="st7" width="146.7" height="4.3"/>
		<rect x="1864.7" y="649.6" class="st7" width="146.7" height="4.3"/>
		<rect x="1864.7" y="662" class="st7" width="146.7" height="4.3"/>
		<rect x="1864.7" y="674.4" class="st7" width="146.7" height="4.3"/>
		<rect x="1866.8" y="400.5" class="st7" width="71" height="5.9"/>
		<rect x="1777.6" y="400.5" class="st8" width="71" height="5.9"/>
		<rect x="1603.2" y="400.5" class="st7" width="71" height="5.9"/>
		<rect x="1688.5" y="400.5" class="st7" width="71" height="5.9"/>
		<path class="st9" d="M2148.6,769.5c0,6.1-24.3,15.1-28.8,15.1h-687.6c-4.5,0-28.8-8.9-28.8-15.1H2148.6z"/>
		
			<linearGradient id="SVGID_1_" gradientUnits="userSpaceOnUse" x1="-491.1304" y1="1046.8101" x2="-490.1648" y2="1046.8101" gradientTransform="matrix(784.87 0 0 -28.12 386870.1875 30199.3496)">
			<stop  offset="0" style="stop-color:#606162"/>
			<stop  offset="0.12" style="stop-color:#B7BABB"/>
			<stop  offset="0.36" style="stop-color:#A2A5A6"/>
			<stop  offset="0.51" style="stop-color:#C9CCCD"/>
			<stop  offset="0.73" style="stop-color:#848687"/>
			<stop  offset="0.88" style="stop-color:#9C9FA0"/>
			<stop  offset="1" style="stop-color:#4C4D4E"/>
		</linearGradient>
		<path class="st10" d="M1395.2,749.5h758.6v5c0,12.2-9.9,22.1-22.1,22.1h-715c-11.9-0.1-21.6-9.7-21.6-21.6v-5.5H1395.2z"/>
		<path class="st11" d="M2130.5,780.9c0,2.7-23.1,6.6-27.4,6.6h-654.7c-4.3,0-27.4-3.9-27.4-6.6H2130.5z"/>
		
			<linearGradient id="SVGID_2_" gradientUnits="userSpaceOnUse" x1="-479.1938" y1="997.5568" x2="-479.1938" y2="996.5912" gradientTransform="matrix(109.19 0 0 -11.36 54093.8789 12083.6602)">
			<stop  offset="0" style="stop-color:#9C9FA0"/>
			<stop  offset="0.24" style="stop-color:#A2A5A6"/>
			<stop  offset="1" style="stop-color:#4C4D4E"/>
		</linearGradient>
		<path class="st12" d="M1823.5,751.4c-0.1,6-4.9,10.8-10.9,11h-84.8c-6.1,0-9.9-5.5-9.9-11H1823.5z"/>
		<path class="st13" d="M1665.9,785.5c2.1-1.6,7.9-1.5,9.3,0.1C1672.2,786.4,1669,786.3,1665.9,785.5z"/>
		<path class="st13" d="M1448,785.1c2-1.6,7.9-1.5,9.3,0.1C1454.3,786.1,1451,786,1448,785.1z"/>
	</g>
	<g>
		<path class="st0" d="M1379.8,360.5h263.4c18,0,32.7,14.6,32.7,32.7v361.6c0,18-14.6,32.7-32.7,32.7h-263.4
			c-18,0-32.7-14.6-32.7-32.7V393.3c-0.1-18,14.4-32.7,32.4-32.8C1379.6,360.5,1379.7,360.5,1379.8,360.5z"/>
		<path class="st1" d="M1368,382.2h287.1c1.2,0,2.2,1,2.2,2.2v382.7c0,1.2-1,2.2-2.2,2.2H1368c-1.2,0-2.2-1-2.2-2.2V384.5
			C1365.7,383.2,1366.7,382.2,1368,382.2z"/>
		<circle class="st2" cx="1511.5" cy="371.2" r="2.5"/>
		<rect x="1365.7" y="412.2" class="st3" width="291.6" height="24.4"/>
		<rect x="1382" y="450.3" class="st3" width="258.6" height="116.3"/>
		<rect x="1414.8" y="500.2" class="st4" width="188.6" height="19.9"/>
		<rect x="1563.2" y="500.2" class="st5" width="40.1" height="20.1"/>
		<rect x="1474.4" y="577" class="st6" width="73.2" height="46.5"/>
		<rect x="1567.2" y="577.2" class="st6" width="73.2" height="46.5"/>
		<rect x="1382.2" y="577.2" class="st6" width="73.2" height="46.5"/>
		<rect x="1474.4" y="632.6" class="st7" width="73.2" height="4.3"/>
		<rect x="1474.4" y="642" class="st7" width="73.2" height="4.3"/>
		<rect x="1474.4" y="651.6" class="st7" width="73.2" height="4.3"/>
		<rect x="1474.4" y="661" class="st7" width="73.2" height="4.3"/>
		<rect x="1474.4" y="670.4" class="st7" width="73.2" height="4.3"/>
		<rect x="1567.2" y="632.5" class="st7" width="73.2" height="4.3"/>
		<rect x="1567.2" y="641.9" class="st7" width="73.2" height="4.3"/>
		<rect x="1567.2" y="651.3" class="st7" width="73.2" height="4.3"/>
		<rect x="1567.2" y="660.9" class="st7" width="73.2" height="4.3"/>
		<rect x="1567.2" y="670.3" class="st7" width="73.2" height="4.3"/>
		<rect x="1382.2" y="632.5" class="st7" width="73.2" height="4.3"/>
		<rect x="1382.2" y="641.9" class="st7" width="73.2" height="4.3"/>
		<rect x="1382.2" y="651.3" class="st7" width="73.2" height="4.3"/>
		<rect x="1382.2" y="660.9" class="st7" width="73.2" height="4.3"/>
		<rect x="1382.2" y="670.3" class="st7" width="73.2" height="4.3"/>
		<rect x="1382.5" y="684" class="st5" width="258.1" height="58.9"/>
		<rect x="1382.5" y="751" class="st7" width="258.1" height="4.2"/>
		<rect x="1382.5" y="760.4" class="st7" width="258.1" height="4.3"/>
		<rect x="1375.1" y="392.4" class="st14" width="13.8" height="1.5"/>
		<rect x="1375.1" y="396.9" class="st14" width="13.8" height="1.5"/>
		<rect x="1375.1" y="401.4" class="st14" width="13.8" height="1.5"/>
	</g>
	<g>
		<path class="st0" d="M1310.3,561.8h88.3c10.2,0,18.5,7.9,18.5,17.7v190.2c0,9.7-8.3,17.7-18.5,17.7h-88.3
			c-10.2,0-18.5-7.9-18.5-17.7V579.5C1291.8,569.6,1300.1,561.8,1310.3,561.8z"/>
		<ellipse class="st2" cx="1342.9" cy="572" rx="1" ry="1.3"/>
		<path class="st15" d="M1352.6,571.4h14c0.5,0,0.9,0.4,0.9,0.9l0,0l0,0c0,0.5-0.4,0.9-0.9,0.9l0,0h-14c-0.5,0-0.9-0.4-0.9-0.9l0,0
			C1351.7,571.8,1352.1,571.4,1352.6,571.4L1352.6,571.4z"/>
		<path class="st1" d="M1298.5,581.1h112.3c1.2,0,2.2,1,2.2,2.2V770c0,1.2-1,2.2-2.2,2.2h-112.3c-1.2,0-2.2-1-2.2-2.2V583.4
			C1296.3,582.1,1297.3,581.1,1298.5,581.1L1298.5,581.1z"/>
		<rect x="1296.3" y="595" class="st3" width="116.7" height="12"/>
		<rect x="1296.4" y="613.8" class="st3" width="116.7" height="57.2"/>
		<rect x="1308.6" y="635.2" class="st4" width="84.5" height="12.4"/>
		<rect x="1339.8" y="676.1" class="st6" width="29.3" height="22.8"/>
		<rect x="1377" y="676.2" class="st6" width="29.3" height="22.8"/>
		<rect x="1302.9" y="676.2" class="st6" width="29.3" height="22.8"/>
		<rect x="1339.8" y="703.5" class="st7" width="29.3" height="2.1"/>
		<rect x="1339.8" y="708.1" class="st7" width="29.3" height="2.1"/>
		<rect x="1339.8" y="712.7" class="st7" width="29.3" height="2.1"/>
		<rect x="1339.8" y="717.4" class="st7" width="29.3" height="2.1"/>
		<rect x="1339.8" y="722" class="st7" width="29.3" height="2.1"/>
		<rect x="1377" y="703.4" class="st7" width="29.3" height="2.1"/>
		<rect x="1377" y="708" class="st7" width="29.3" height="2.1"/>
		<rect x="1377" y="712.7" class="st7" width="29.3" height="2.1"/>
		<rect x="1377" y="717.3" class="st7" width="29.3" height="2.1"/>
		<rect x="1377" y="722" class="st7" width="29.3" height="2.1"/>
		<rect x="1302.9" y="703.4" class="st7" width="29.3" height="2.1"/>
		<rect x="1302.9" y="708" class="st7" width="29.3" height="2.1"/>
		<rect x="1302.9" y="712.7" class="st7" width="29.3" height="2.1"/>
		<rect x="1302.9" y="717.3" class="st7" width="29.3" height="2.1"/>
		<rect x="1302.9" y="722" class="st7" width="29.3" height="2.1"/>
		<rect x="1303" y="728.7" class="st5" width="103.3" height="29"/>
		<rect x="1303" y="761.6" class="st7" width="103.3" height="2.1"/>
		<rect x="1303" y="766.2" class="st7" width="103.3" height="2.1"/>
		<rect x="1300.1" y="585.3" class="st14" width="5.5" height="1"/>
		<rect x="1300.1" y="587.6" class="st14" width="5.5" height="1"/>
		<rect x="1300.1" y="589.7" class="st14" width="5.5" height="1"/>
		<rect x="1377" y="635.2" class="st5" width="16.3" height="12.6"/>
	</g>
</g>
</svg>
