<?xml version="1.0" encoding="utf-8"?>
<!-- Generator: Adobe Illustrator 23.0.1, SVG Export Plug-In . SVG Version: 6.00 Build 0)  -->
<svg version="1.1" id="Layer_1" xmlns="http://www.w3.org/2000/svg" xmlns:xlink="http://www.w3.org/1999/xlink" x="0px" y="0px"
	 viewBox="0 0 642 768" style="enable-background:new 0 0 642 768;" xml:space="preserve">
<style type="text/css">
	.st0{fill:#FDD3AE;}
	.st1{opacity:0.15;fill:#543213;}
	.st2{opacity:0.3;fill:#FFFFFF;}
	.st3{opacity:0.2;fill:#543213;}
	.st4{fill:#E6F7FF;}
	.st5{opacity:0.2;}
	.st6{opacity:0.12;}
	.st7{opacity:0.7;fill:#FFFFFF;}
	.st8{fill:#592804;}
	.st9{opacity:0.3;}
	.st10{opacity:0.15;fill:#FFFFFF;}
	.st11{fill:#EA4647;}
	.st12{fill:#333333;}
	.st13{fill:#296EB7;}
	.st14{fill:#A55F3C;}
</style>
<g id="_x33_">
	<g>
		<g id="skin">
			<g>
				<path class="st0" d="M380,258.7c0.2,0.6,7,19.5,7.1,20.1c3.6,13.2,9,23.8,24.1,28.1c11,3.2,16.1,13.7,16.9,24.9
					c5.5,34.9-2.7,88.6-3.7,102.4c-38.4,19.1-78,26.1-119.3,22.4c-42.7-3.8-84.5-11.7-122.4-33.5c-7.9-4.5-16.4-8.1-24.7-12.1
					c0-9.8,0-19.2,0-29.7c-1.9,1-3,1.6-4.1,2.2c-10,5.1-17.8,3.4-23.6-6c-11-17.9-10-36.2-1-54.7c4-8.2,18.4-12.5,24.8-3.1
					c5.4,7.8,35-26.8,37.1-42.3c0.6-4.1,1.8-6.9,4.6-10c23.8-26.1,54.1-43.7,90.2-44.5c17-0.4,35.4,1.6,51.1,8
					C341.5,232.6,375.1,247.1,380,258.7z"/>
				<path class="st1" d="M293,429.1c6.7,6.2,13.6,11.9,23.9,10.6c7.3-0.9,13.1-6,17.6-11.6c0.4-0.8,0.8-1.7,1.3-2.5
					c-1.1,0.4-2.1,0.7-3.2,1c-0.3,0.2-0.7,0.4-1.1,0.6C319,431.2,306,431.5,293,429.1z M429.4,385.2c-0.3-3.8-0.5-7.6-0.8-11.4
					c-20.9,6.8-43.1-4.6-65.1-5.8c-9.5-0.5-19.1,0.9-28.6,1.4c-13.7,0.7-27.3-0.4-41-0.5c-21.7-0.1-43.2,2.7-64.7,5.7
					c-7.5,1.1-13.7,0.4-21.1,0.1c-0.2,0-0.5,0-0.8,0c-1.4,1.1-0.8-37,7.5-47.9c5.1-6.6,6.1-7.9,15.1-11.9c0.1,0,10.4-2.9,10.4-2.9
					c-1.4,0.4-4.5-1.8-5.5-3c-3.4-4-2.4-11.5-2.2-16.3c0.1-1.7,0.2-3.5,0.3-5.2c8.1-17.2,25.3-29.9,44.2-32.2
					c0.6-0.1,1.4-0.2,1.8-0.6c1.3-1.3-0.8-3.6-0.3-5.4l-16.5-4.8c4.6-2.3,9.4-4.2,14.2-5.4c16.7-4.4,33.4-2.4,49.9,1.5
					c19,4.4,39.1,11.4,55.4,23c-0.9-2.6-1.6-4.6-1.7-4.8c-4.9-11.6-38.4-26.1-42.6-27.8c-15.8-6.4-34.2-8.3-51.1-8
					c-36.1,0.8-66.5,18.4-90.2,44.5c-2.8,3.1-4.1,5.9-4.6,10c-2.1,15.5-31.8,50.1-37.1,42.3c-6.5-9.4-20.9-5.2-24.8,3.1
					c-8.9,18.5-10,36.8,1,54.7c5.8,9.4,13.6,11.1,23.6,6c1.1-0.6,2.2-1.2,4.1-2.2v29.7c8.3,4,16.7,7.6,24.7,12.1
					c37.9,21.8,79.7,29.7,122.4,33.5c29.3,2.6,57.7-0.1,85.4-8.8c-23.8,4.1-48.1,5.1-72.2,2.7c-14.6,0.7-71.9-10.5-84.3-15.7
					c-13.9-5.8-21.9-8.6-27.3-23.8c-2.1-6-1.6-12.7-1.7-19.5c37.1,18.1,76.5,14.5,112.7-5.8c1.3-0.7,2.6-1.5,4.1-1.8
					c2.2-0.4,4.5,0.5,6.6,1.3c16,6.6,31.6,14.7,48.5,18.2c16.9,3.5,36.1,1.7,49.1-9.8c1.2-1.1,2.4-2.3,2.9-3.8
					C429.7,388.4,429.5,386.8,429.4,385.2z M251.4,284.8c-1.9,1.3-3,3.6-3.8,5.8c-2.2,6.3-2.8,13.1-1.7,19.7c4.7,0.2,9.3,0.4,14,0.6
					c0.3,0,0.5,0,0.7-0.2c0.2-0.2,0.2-0.5,0.2-0.8c0.1-6.9,1.2-14.3,0.8-21.1C261.4,283.6,255.7,281.8,251.4,284.8z M344.4,364.3
					c6.4-4.9,14.6-6.7,20.6-12.5c7.5-7.2,12.9-16.1,15.1-26.3c1.3-6,1.2-13.6-3.6-17.3c1.4,10.4-9.2,23.6-15.6,29
					c-4.7,3.8-10.3,8.6-19.9,11.3c-16.2,4.4-42.3,3.7-54.7,7.6C296.9,356.2,333,364.8,344.4,364.3z M342.7,280.6
					c-1.5,1.7-2.4,3.8-3,6c-1.8,6.2-1.9,13-0.2,19.2c3-1.3,5.8-2.8,8.6-4.4c1.1-0.7,2.2-1.4,3-2.4c2-2.7,1.2-6.7,3-9.6l-0.9-11
					C349.5,276.9,345.2,277.8,342.7,280.6z M358,252.3c-7.5-4.9-17.4-4.1-25.4-8.2l-5.6,5.9c-1.9,2.6-0.6,6.9,2.4,8.1
					c1.2,0.5,2.6,0.5,4,0.6c11.8,0.7,22.7,6.5,33.1,12.1C367.4,263.8,364,256.3,358,252.3z"/>
				<path class="st2" d="M304,410.7c1,5.8,7,9.8,12.8,10.3c5.9,0.5,12.4,0,17.6-2.7c4.5-2.3,8.4-7.2,9.7-12.1c0,0-16.5,4.2-19.4,4.8
					C322.8,411.2,304.2,411.9,304,410.7z M366.9,300.7c-7.3-2.9-16.1-1.8-22.5,2.9l-9.2,4.5c-8.2,1.2-10.1,1.7-18.4,2
					c-11.9,7.7-22.3,18.5-15.9,24c2.6-5.9,16.9-12.2,22.9-14.6c10.2-4.2,20.8-7.6,31.6-9.5c4.8-0.8,9.8-1.4,14.6-0.3
					c4.8,1.1,9.4,4,11.4,8.4C379.9,310.4,374.3,303.6,366.9,300.7z M246.8,310.7l-14.9,3.6c4.7-1,17.2,2.1,19.4,3.2
					c4,2.1,8.4,4.6,11.2,8.5c3.8,5.2,5.3,10.3,5.6,15.9c5.4-7,6.8-14.8,1.9-22.2C265.2,312.3,255.4,308.5,246.8,310.7z M384.6,265.8
					c0.4,1.2,0.8,2.4,1.2,3.6c0.8,0.7,1.5,1.4,2.3,2.1L384.6,265.8z M431.3,338.9c-0.6-6-1.4-12.1-3.7-17.7
					c-2.2-5.6-6-10.8-11.3-13.7c-4.8-2.6-10.7-3.3-14.9-6.9c-2.3-2-3.8-4.7-5.3-7.3c-4.1-7.6-7.6-15.6-10.4-23.9
					c-4.7-4.2-9.9-7.7-15.5-10.5c5.8,15.4,10.5,31.2,14,47.3c9-0.8,18.1,3.9,23.5,11.2c5.4,7.3,9.7,16.2,9.7,25.3
					c0,18-3.2,34.6-9.3,41.3c10.3,3.3,13.5-9.4,23.2-4.5C432.7,366,432.6,352.4,431.3,338.9z M380.9,450.6
					c14.7-3.8,29.2-9.3,43.5-16.4c0.4-6.4,2.5-21.5,3.9-39.4c-4.9,3.7-10.2,6.4-15.9,8.2C410.5,423,397.6,438.6,380.9,450.6z"/>
			</g>
			<g>
				<path class="st0" d="M609.9,354.6c-0.7-2.5-3.3-5.1-5.7-6.1c-1.1-0.5-4.8,2.5-5.6,4.6c-4.2,10.4-8.1,20.9-11.4,31.6
					c-3,9.7-6.5,19.7-2.3,29.2c-6.9-5.7-14.3-11.8-21.3-17.6c0.4-3,1.1-5.9,1-8.8c-0.2-10.7-5.1-19.6-11.4-27.9
					c-5-6.6-11.6-9.6-19.8-7.6c-8.3,2-11.8,8.8-14,16.2c-1.6,5.3,1.5,8.6,7.1,8.2c2-0.1,3.9-1.1,5.9-1.5c9.3-1.9,17.1,4.3,17.3,13.8
					c0.2,8.5-3.3,15.2-10.3,20c-1.8,1.3-3.9,2.1-5.2,2.8c5,4.5-14.7-6.3-14.7-15.5c0-3.3,0.3-6.7,0.4-9.6
					c-12.2-7.3-18.8-4.9-22.1,7.1c-3.8,14.2,2,32.3,14.6,39.7c12.3,7.2,25.5,12.7,38.6,18.5c4.4,2,9.4,1.5,13.7-1.6
					c4.7-3.4,9.5-6.6,14-10.3c17-14.1,25.7-33.2,31.4-54C612.9,375.5,612.8,365,609.9,354.6z M579.3,402.6c2.3-13.3,5-25,6-36.8
					c0.7-7.3-0.7-14.9-2.1-22.2c-0.6-2.8-4-7.3-5.9-7.1c-3,0.2-7.1,3-8.5,5.8c-2.2,4.4-3.7,9.7-3.6,14.6c0.3,12.9,1.6,25.7,2.5,38.9
					C571,397.7,574.2,399.6,579.3,402.6z"/>
				<path class="st1" d="M579.3,402.6c0.8-4.5,1.6-8.9,2.4-13.1c-0.1,0.1-0.1,0.2-0.2,0.3c-1.4,2-4.7,2.5-6,0
					c-4.8-9.4-5.4-22.1-5.3-32.4c0.1-5.6,0.3-14.5,4-20c-2.2,1.1-4.3,2.9-5.3,4.8c-2.2,4.4-3.7,9.7-3.6,14.6
					c0.3,12.9,1.6,25.7,2.5,38.9C571,397.7,574.2,399.6,579.3,402.6z M594.6,377c1.4-7.3,3.7-21.5,10.5-28c-0.3-0.2-0.6-0.3-0.9-0.4
					c-1.1-0.5-4.8,2.5-5.6,4.6c-4.2,10.4-8.1,20.9-11.4,31.6c-3,9.7-6.5,19.7-2.3,29.2c-6.9-5.7-14.3-11.8-21.3-17.6
					c0.4-3,1.1-5.9,1-8.8c-0.1-5.3-1.4-10.1-3.4-14.6c-0.7,1.5-2.3,2.4-4.1,1.9c-7.3-2-13-10.1-21-8.5c-5.2,1-10.3,5.4-15.6,2.1
					c-0.4-0.2-0.7-0.5-1-0.7c-0.1,0.2-0.1,0.4-0.2,0.6c-1.6,5.3,1.5,8.6,7.1,8.2c2-0.1,3.9-1.1,5.9-1.5c9.3-1.9,17.1,4.3,17.3,13.8
					c0.2,8.5-3.3,15.2-10.3,20c-1.8,1.3-3.9,2.1-5.2,2.8c3.2,2.9-3.8-0.5-9.2-5.8c1,2.6,2.1,5.1,3.5,7.4c0.7,0.5,1.5,0.9,2.3,1.3
					c5,2.5,12.8,5.4,14.9,11.1c1.8,4.8-1.6,9.4-6.5,10.1c-6.3,0.9-12.5-4.1-16.9-7.9c-10.2-8.7-19.8-23.2-18-37.3
					c0.3-2.6,1.6-5.9,3.7-8.2c-5,0.1-8.3,3.9-10.3,11.3c-3.8,14.2,2,32.3,14.6,39.7c12.3,7.2,25.5,12.7,38.6,18.5
					c2.8,1.2,5.8,1.5,8.6,0.8c-8.2-5.4,1.5-15.7,6.3-19.6c2.3-1.8,4.8-3.2,7.4-4.5c-3.3-1.9-6.4-4.2-8.9-6.1
					c-4.5-3.4-13.2-9.3-13.1-15.8c0.1-8.4,10.9-5.5,15.3-3.1c7,3.9,15,10.2,19.7,17.3c2.4-2.4,4-5.2,5.4-8.2
					c-0.6-3.8-0.4-7.8-0.2-11.6C591.9,393,593,384.9,594.6,377z"/>
				<path class="st2" d="M526.2,409.1c-2.4-3.1-2.7-7.3-3-11.3c-0.1-2.2-0.3-4.3-0.4-6.5c-0.1-1.6-0.2-3.2-0.8-4.7
					c-1.1-2.6-3.6-4.3-6.3-5.1s-5.5-0.8-8.3-0.8c2.1,0,3.9,1.7,4.8,3.7c0.8,2,0.9,4.2,0.9,6.3c0.3,8.7,1.6,18.4,8.4,23.7
					c6.4,5,15.7,5.6,22.8,9.1C539.5,417.4,530.9,415.2,526.2,409.1z M523.5,354.7c-3.4,3.6-5.4,8.5-5,13.4
					c3.7-5.1,8.1-10.5,14.4-11.6c3-0.5,6.1,0.1,9.1,0.8c6.9,1.5,14.4,3.4,18.2,9.3c-2.3-4.5-4.7-9-8.2-12.6
					C543.4,345.2,531.8,345.8,523.5,354.7z M612.8,352.8c-8.1-8.3-5.3,8.6-5.5,12.9c-0.9,19-6.5,37.8-16.2,54.2
					c-1.6,2.7-3.4,5.4-5.8,7.5c-3.1,2.6-7,4-10.4,6c-7.4,4.4-12.8,12.1-14.4,20.6c29-13.5,49.5-42.7,55-74.2
					C616.7,372.2,618.9,359,612.8,352.8z M580.8,393.6l4.7-23.7c1.3-6.4,2.5-13,2.1-19.5c-0.5-7.6-4.9-19.5-14.4-13
					C580.4,338.2,582.3,386.4,580.8,393.6z"/>
			</g>
			<g>
				<path class="st0" d="M116.8,660.1c-5.2,6.8-4.6,11.5-4.3,18.8c0.1,3.4,0.3,9.3-0.7,12.3c-0.8,2.5-5.4,5.1-7.8,6.2
					c-4.4-0.6-8.6-3.1-11.7-8.5c-12.1,3.6-39.7-32.1-21.6-57.5c18.4,13.7,40.9,18.3,64.1,13c3.7,2.6,12.3,25.4,4.8,34.7
					c-8.8,1.5-10.5,1.4-13.8-5C123,668.8,123.6,663.5,116.8,660.1z"/>
				<path class="st1" d="M139.8,677.3c-6-1.1-11.2-7.8-12.4-13.6c-0.6-2.9,0.2-5,0.2-5c1.6-1,8.6-3.1,10.9-5.5
					c0.1-0.1-0.1-2.8,0-2.9c-1.3-3-2.7-5.2-3.7-5.9c-23.2,5.2-45.7,0.7-64.1-13c-9.7,13.6-6.3,30.2,0.9,42
					c-2.4-6.5-1.5-14.9,0.5-21.4c0.2-0.5,5,0.7,4.9,1.2c-2,11.2-2.2,13.8-1.4,20.7c0.2,1.3-1.4,2.1-2.6,1.7
					c3.4,5.1,7.5,9.1,11.3,11.3c-3.4-8.4-3.4-16.1-1.2-25c0.2-0.6,1.2-5.7,1.8-5.7c1,0,4.1,1.6,6,2c0,0-0.4,1.5-1.1,4.3
					c-0.3,8.8,0.5,17.6,1.4,26.3c0.4,0,0.7-0.1,1-0.2c2.5,4.5,5.9,6.9,9.4,8c-7.7-9.3-7.8-25.3-3-35.6c0.6-1.3,1.2-0.4,3.1-0.1
					c4.4,0.7,8.9,1.1,13.3,1.3c0.5-0.7,1-1.5,1.6-2.3c6.9,3.4,6.3,8.7,9,14c3.3,6.4,5,6.5,13.8,5c0.4-0.5,0.8-1.1,1.1-1.7
					C140.4,677.4,140.1,677.4,139.8,677.3z"/>
				<path class="st3" d="M134.8,644.4c-23.2,5.2-45.7,0.7-64.1-13c-1.4,2-2.6,4.1-3.4,6.2c1.7,1.5,3.9,2.6,5.9,4.3
					c10.6,8.9,33.4,12.5,41.3,12.9c8.1,0.4,15.2-1.7,22.7-3.2c0.4-0.3,0.8-0.6,1.1-0.9c0.1-0.1,0.2-0.2,0.3-0.2
					C137.2,647.3,135.8,645.1,134.8,644.4z"/>
				<path class="st2" d="M139.1,675.5c1.7-0.1,2.2-2.3,2.2-3.9c-0.1-4.2-1.1-11.3-4.4-14C133.3,660.2,137.8,672,139.1,675.5z"/>
				<path class="st2" d="M107,674.2c-0.4,2.9,0.2,5.9,0.1,8.8c-0.3,5-2.9,9.5-5.4,13.8c2.8,1.1,6.2-0.5,8-3c1.8-2.5,2.3-5.6,2.7-8.6
					c0.4-4.2,2.1-15.9-1-18.9C108.9,668.1,107.4,671.3,107,674.2z"/>
			</g>
		</g>
		<path class="st4" d="M159.2,314.2c-6.7-3.4-11.5-9.2-14.8-15.9c-11.3-22.6-22.4-45.3-33.2-68.1c-1-2.2-0.3-6,0.9-8.4
			c13.3-28.6,32.7-51.9,60.1-68c2.3-1.4,4.5-2.9,7.6-5c-9.2,1.8-16.4,5.3-25.5,12.1c-15.8,11.9-28.5,26.5-38.4,43.5
			c-2.9,5-5.2,10.4-8.2,15.3c-3.7,6-4.8,11.6-0.2,17.8c3.7,5,2.5,10-0.8,15.1c-11.2,17.6-27.7,21.1-46.5,15.3
			c-18.5-5.7-31.2-25.8-26.5-43c2.8-10.4,6.6-20.9,11.7-30.3c5.2-9.6,7.9-18.8,4.5-29.2c-4.4-13.2-0.5-25.1,6.4-36
			c4.1-6.6,9-13,14.9-18.1c10-8.7,20.7-16.9,31.8-24.2c15.1-9.9,32-15.1,50-16.4c6.8-0.5,13.6-1.1,20.4-2c14.6-2,26.3-8.7,35.3-20.5
			c4.7-6.2,10-12.1,15.6-17.5c5.3-5.1,12.1-7.4,19.6-7.5c12.3-0.2,24.6,0.3,36.4,4.3c20.3,6.9,34.3,20.8,42.5,40.3
			c4.4,10.5,3.8,21.6-0.9,31.9c-3.1,6.7-7.4,12.9-12.3,21.3c2.7,6.1,6,14.3,10,22.1c15.4,30.1,31,60.1,46.5,90.1
			c1.5,2.9,2.7,6,5,11.2c-4.1-2.4-6.3-3.6-8.5-4.9c-38.5-24.1-79.5-26.8-120.6-9.8c-26,10.8-48.1,28.6-63.5,53.2
			C172,293.2,165.7,303.7,159.2,314.2z"/>
		<path class="st5" d="M150,180.7c24.4-29.4,62.5-42.8,98.7-55c-8.4,2.8-17.7,4.1-26.3,6.6c-10.5,3.1-20.9,6.3-31.4,9.4
			c-2.3,0.7-38.1,16.2-50.9,27.5c-16.2,14.3-27.8,32.9-37.6,51.9c-5.7,11-11.2,23.4-19.7,32.8c-6,7.8-13.9,14.1-23.4,16.2
			c0,1.6,1.7,2.7,3.3,3.3c19.1,7.3,43.1-2.7,51.4-21.4c8.1,15.9,16.2,31.7,24.3,47.6c2.5,4.9,5.1,9.9,8.8,13.9
			c4.3,4.6,10.2,8,12.7,13.8c0.3-5.2,2-10.2,4.9-14.5c-13-21.5-24.4-44-34-67.2c-2.4-5.8-4.7-11.8-4.7-18c0-8.1,3.8-15.6,7.8-22.6
			C138.7,196.4,143.9,188.2,150,180.7z"/>
		<path class="st6" d="M366.1,233.3c-0.9-1.7-1.8-3.4-2.6-5.1c-5.4-2.6-11-4.5-17-6.3c-20.4-6-41.4-10.3-62.8-9
			c-19.6,1.2-40,6-58.1,13.8c-8.5,3.7-16.7,8.2-23.9,14c-7,5.7-13.5,11.8-20.7,17.2c-3.5,2.6-9.5,0.7-11.4-3
			c-8.6-16.6-16.1-34.6-15.4-53.8c0.7-19.5,21.8-33,36.4-41c38.6-21,112.6-25.5,131.6-16.5c-2-4.5-10.9-18.9-12.5-22.5
			c1.4-2.4,13.8-17.6,15.1-19.8c-0.5-0.2-12,12.6-12.5,12.5c-8.8,4-18.9,5.2-29.5,5.1c-12.1-0.1-23.8,0.1-35.8,2.4
			c-11.7,2.2-23.2,5.4-34.6,8.5c-21.7,6-44.2,12.6-63.4,24.8c-15.5,9.9-28.3,23.3-39.3,37.9c-5.9,10.8-10.5,23.7-20.8,29.9
			c-14.7,8.9-28.6-4.4-29.6-19.1c-1.6-22.8,12.4-39.8,27.8-55.8c0.5-3.8,0.6-7.7,1.6-11.2c15.2-53.7,83.3-30.2,119.5-53.1
			c23.1-14.6,26.4-46.4,51-59.5c-5-0.3-10.1-0.4-15.2-0.3c-7.5,0.1-14.3,2.4-19.6,7.5c-5.6,5.4-10.9,11.3-15.6,17.5
			c-9,11.8-20.7,18.6-35.3,20.5c-6.8,0.9-13.6,1.5-20.4,2c-18.1,1.3-35,6.4-50,16.4c-11.1,7.3-21.7,15.5-31.8,24.2
			c-5.8,5.1-10.7,11.5-14.9,18.1c-6.9,11-10.8,22.8-6.4,36c3.5,10.4,0.7,19.6-4.5,29.2c-5.1,9.5-8.9,19.9-11.7,30.3
			c-4.7,17.3,7.9,37.3,26.5,43c18.9,5.8,35.3,2.3,46.5-15.3c3.3-5.2,4.5-10.2,0.8-15.1c-4.7-6.2-3.5-11.7,0.2-17.8
			c3-4.9,5.3-10.3,8.2-15.3c9.9-17,22.6-31.7,38.4-43.5c9.1-6.8,16.3-10.3,25.5-12.1c-3.1,2-5.3,3.6-7.6,5
			c-27.4,16.1-46.8,39.5-60.1,68c-1.1,2.5-1.9,6.2-0.9,8.4c10.8,22.8,21.9,45.5,33.2,68.1c3.4,6.7,8.1,12.5,14.8,15.9
			c6.5-10.6,12.8-21,19.3-31.3c15.5-24.5,37.5-42.4,63.5-53.2c41.1-17,82.1-14.3,120.6,9.8c2.1,1.3,4.3,2.5,8.5,4.9
			C368.8,239.3,367.6,236.2,366.1,233.3z"/>
		<path class="st7" d="M321.5,72.7c-2.7-13.1-11.3-24.9-23.1-31.4c-3.9-2.1-8.2-3.8-12.7-3.5c-4.4,0.3-8.9,2.8-10.5,6.9
			c-0.9,2.3-0.9,4.9-1.1,7.4c-1.1,12.9-9.3,24.5-19.7,32.3c-10.3,7.8-22.7,12.5-35,16.7c-13.6,4.6-27.5,8.8-41.7,11.2
			c-10.7,1.8-21.6,2.5-31.9,5.9c-10.3,3.4-20.1,10-24.2,20.1c-2.7,6.5-2.7,13.8-5,20.5c-3.6,10.3-12.2,17.9-19.6,26
			c-7.4,8.1-14.2,18.3-12.6,29.1c0.1,1,0.4,2.1,1.2,2.6c1.4,1,3.3-0.2,4.5-1.3c7.2-6.6,12.1-15.2,17.7-23.2
			c15.6-22.8,37.2-42,62.9-52c10.1-3.9,20.6-6.4,31.1-8.8c22.7-5.3,45.4-10.6,68.5-13.6c14.1-1.9,39.1,1.9,46.6-13.4
			C321.8,94.4,323.6,83.2,321.5,72.7z"/>
		<g>
			<path class="st8" d="M448,377.8c-12.1,6.7-28.4,13.9-40.1,15.1c-26.8,2.7-57.7-2.4-81.2-16c-5.5-3.2-3.5-6.8-8.4-2.6
				c-14.2,12.2-37.9,17.8-55.3,17.5c-21.2-0.3-38.2-5.5-58.6-11.3c-1.3-0.4-11.7-4.3-14.2-5.2c25.2-8.1,51.1-22.5,76.9-23.6
				c7.4-0.3,18.3-0.2,25.2,2.1c22.8,7.4,44.3,7.4,67.4,2c12.8-3,30.2,0.5,42.3,4.7C414.8,365,433.3,372.5,448,377.8z"/>
			<path class="st9" d="M446.6,377.3c-15.4-0.2-30.9-1.1-45.8-5.2c11,3.7,22.4,6.6,33.9,8.5c-17.9-0.5-36.1-1.1-53.4-5.8
				c9.7,4,19.8,7.2,30.1,9.5c-13.5-0.5-27.1-1.1-40.4-3.2c6.8,2.5,13.9,4.4,21.1,5.4c-12.8,1.2-25.9-0.5-38-4.9
				c-4.9-1.8-10.2-4.8-11-9.9c4.1,3.4,8.9,5.9,14.1,7c-3.1-2.1-6.4-4.6-7-8.3c-0.9-5.1,3.8-9.3,8.2-11.9c2.5-1.4,5-2.7,7.6-3.8
				c-2.2,0.2-4.4,0.5-6.4,0.9c-23.1,5.4-44.6,5.5-67.4-2c-2.2-0.7-4.9-1.2-7.7-1.6c-0.1,0-0.3,0-0.4,0c11.1,0.8,21.3,9.4,23.9,20.3
				c-9.6-5.1-19.9-8.8-30.5-11.2c7.6,2.9,14.8,6.7,21.5,11.2c-8.6-2.3-17.4-4.2-26.2-5.6c6.9,2.5,13.8,5,20.7,7.5
				c-11.7-1.3-23.4-2.2-35.1-2.9c11.6,3.3,23.4,5.7,35.4,7.1c-15,2.1-30.2,3-45.3,2.6c8.2,1.5,16.5,2.4,24.9,2.6
				c-21,1.7-37.2,1.1-57.5-4.3c-1.8-0.5,2.6-4,8.7-5.1c-7.5-1.1-15.1-2.2-22.6-3.3c-4,1.5-8,2.9-12,4.2c2.5,0.9,13,4.8,14.2,5.2
				c20.4,5.8,37.5,11,58.6,11.3c17.4,0.2,41.1-5.3,55.3-17.5c4.9-4.2,2.9-0.6,8.4,2.6c23.5,13.7,54.4,18.8,81.2,16
				c11.8-1.2,28-8.4,40.1-15.1C447.5,377.7,447.1,377.5,446.6,377.3z"/>
			<path class="st10" d="M267.2,377.2c-11.6-1.2-22.8-5.1-33.9-9c14.3-1.6,28.6-5.2,42.9-3.8c-10.6-2.5-21.5-1.5-32.4-1
				c12.4-2.9,25.1-5.8,37.8-4.6c7.5,0.7,20,4.1,23.3,10.8c-1.4-6.6-6.9-10-11-12.3c-4.2-2.4-9.1-2.9-13.9-3
				c-11.1-0.3-22.2,1.3-33,3.6c-5.4,1.2-10.7,2.6-16,4.1c-4.7,1.3-10.9,2.2-15.1,4.6C231.7,374.9,250,375.4,267.2,377.2z"/>
			<path class="st10" d="M409.2,363.4c-8.2-2.9-16.6-5.8-25.3-6.6c-8.7-0.9-17.8,0.3-25.2,5c-2.7,1.7-5.3,4.4-4.6,7.5
				c0.6,2.6,3.2,4.1,5.7,5c5.6,2.1,11.7,3,17.7,2.6c-7.3,0.2-14.7-2.5-20.1-7.5c10.1,0.6,20.3,1.2,30.4,1.8
				c-8.4-0.9-16.7-3.3-24.3-7.1c22.7-0.6,45.1,4.3,67.2,9.1c-11.3-5.1-22.6-10.1-33.8-15.2"/>
		</g>
		<g id="prestilka">
			<g>
				<path class="st4" d="M327.6,493.3c9.6,21.6-2.4,34-6.4,32.2c-8.1-3.8-14.3-9-17-16.8c-4.8-1.5-7-0.1-9.1,3.5
					c-6.6,11.5-13.6,22.6-20.4,33.8c-13.4-16.7-12.1-34.6,4.7-53.6c-1.9-0.3-3.5-0.6-5.1-0.8c-25.6-2.9-50.3-9.5-74-19.3
					c-15.6-6.5-30.2-14.5-39.2-29.9c-1.3-2.2-4.5-3.3-6.9-5c-40.6,42-60.2,93.3-75,147c8.2,13,41.4,20.9,61.7,18.3
					c2-33,5.9-65.8,16.3-97.6c-3.5,29.5-8.7,58.8-10.1,87.7c4.3,2.8,7.8,5.2,11.7,7.7c-4.6,10.2-8.8,19.4-13.2,29.1
					c36.7,23.8,165.6,36,215.1,29.3c9.1-55.4,5.4-111.8,8.8-168.7C355.2,491.1,341.6,492.2,327.6,493.3z M346.7,511.6
					c5.4-0.4,9.2,3,9.5,8.4c0.3,5-2.9,8.3-8.1,8.4c-5,0.1-8.5-2.9-8.9-7.8C338.9,515.2,341.6,511.9,346.7,511.6z M356.3,625.7
					c-0.2,5.5-4,9.4-8.8,9.3c-4.3-0.1-7.7-3.6-7.6-7.9c0-5.3,4.5-10.5,9.1-10.6C353.3,616.5,356.5,620.4,356.3,625.7z M348.7,581.8
					c-5.2,0.2-8.4-2.9-8.3-8c0.1-5.1,2.7-8.2,6.9-8.4c4.8-0.2,9.2,4,9.2,8.8C356.5,578.6,353.3,581.7,348.7,581.8z M372.9,490
					c-0.6,28.7-0.9,56.6-1.8,84.6c-0.9,28.2-1.3,56.5-6.7,85.5c17.9-1.2,35-3.1,52.3-9c2.1-58.4,4.2-115.8,6.3-173.2
					C406.1,482,389.7,486,372.9,490z"/>
				<path class="st7" d="M368.6,504.6c-4.7,0.9-9.3,1.7-14,2.3c2.6,1.9,4.5,4.7,5.4,7.8c0.2,0.7,0.4,1.3,0.6,2
					c0.3,0.8,0.6,1.5,0.8,2.3c0.7,2.2,0.7,4.5,0.2,6.7c0,0.2,0,0.3-0.1,0.5c-0.1,0.8-0.1,1.4-0.3,2.1c-0.2,0.8-1.1,2.7-1.5,3.5
					c-1.7,3.1-5.2,5.8-8.6,6.6c-0.5,0.1-3.4,0.5-3.9,0.5c-0.5,0-3.5-0.4-3.9-0.5c-0.2-0.1-0.8-0.3-1.5-0.6c-1,4.4-2.5,8.6-4.6,12.6
					c-1.6,3-6.4,4.6-9.3,2.4c-9.6-7.1-19.2-14.2-28.1-22.1c-1.4,2.1-2.8,4.1-4.3,6.1c-5.7,7.8-12.1,16.1-20.6,21
					c-2.4,1.4-6.1,1.1-8.2-1c-1.2-0.5-2.4-1.4-3.2-2.9c-8.5-14.9-17.9-34.4-11.9-51c-32.4-6.8-64.5-18.9-91.6-37.5
					c-1.4,3.6-3,7-4.2,9.5c-4.9,10.5-9.7,20.4-13.4,31.5c-8.7,26.3-12.9,53.6-16.2,81c5.2,1,10.4,2,15.6,2.9
					c2.2-28.9,6.4-57.5,15.4-85.3c-0.1,0.9-0.2,1.7-0.3,2.6c0.4-1.5,0.8-3,1.3-4.5c2.2-7.4,8.7,36.8,32,102.7
					c13,23.8,22,23.8,52.3,32.3c17.8,2.6,35.6,5,53.5,7.1c11.8,1.4,23.6,2.5,35.5,3.1c10.3,0.5,21,1.1,31.1-1.5
					c6-44.8,4.6-90.1,6.1-135.9C368.5,508.9,368.5,506.7,368.6,504.6z M361.6,630.6c-0.9,3.9-3.7,6.8-7,8.9c-0.6,0.4-1.2,0.7-1.8,1
					c-2.2,1.3-4.6,1.9-7.2,1.9c-2.6,0-5-0.7-7.2-1.9c-2.1-1.3-3.8-3-5.1-5.1c-0.7-1.1-1.1-2.3-1.5-3.5c-0.7-1.7-1-3.3-1.1-5.5
					c-0.1-3.1,0.9-6.3,2.6-8.9c1.3-2.1,3-3.8,5.1-5.1c1.1-0.5,2.3-1,3.4-1.4c1.9-0.6,3.8-0.7,5.7-0.3c1.9,0.1,3.7,0.6,5.3,1.7
					c0.1,0,0.2,0.1,0.3,0.2c1,0.7,1.9,1.5,2.9,2.2c0.1,0.1,0.2,0.2,0.3,0.3c0.1,0.1,0.1,0.1,0.1,0.2c0.2,0.3,0.5,0.6,0.7,0.9
					c0.3,0.2,0.5,0.4,0.8,0.6c0.7,1,1.5,1.9,2.2,2.9c0.7,1.1,1.2,2.2,1.4,3.4c0.2,1.3,0.4,2.5,0.5,3.8L361.6,630.6z M359.9,584.1
					c-1.3,1.4-2.8,2.4-4.6,2.9c-1.4,0.7-2.8,1.1-4.3,1.2c-0.8,0.4-1.6,0.7-2.3,0.9c-1.9,0.6-3.8,0.7-5.7,0.3
					c-1.9-0.1-3.7-0.6-5.3-1.7c-1.7-0.9-3-2.1-4-3.7c-1.3-1.4-2.1-3-2.5-4.8c-2.8-7.1,0-15.9,6.6-19.7c3.8-2.2,8.6-2.7,12.7-1.3
					c3.8,1.3,6.4,3.2,9.5,5.8c2.9,2.4,4,6.5,4.2,10.1C364.3,577.8,362.4,581.4,359.9,584.1z"/>
				<path class="st7" d="M416.4,643.1c0.2-0.1,0.4-0.2,0.7-0.3c1.9-52.2,3.8-103.7,5.6-155.1c-1.9,0.9-3.9,1.8-5.9,2.6
					c-4.7,2-9.6,3.8-14.4,5.4c-0.7,9.3-2.6,18.3-3.8,27.6c-1.7,12.8-2.2,25.8-3.5,38.7c-2.4,23.2-5.2,46.4-7.9,69.6
					c-0.5,5.2-1.2,10.3-1.9,15.5C395.6,647.3,407,648.1,416.4,643.1z"/>
				<path class="st6" d="M385.7,542.4c0.3-13.6,0-27.5,3.8-40.6c0.7-2.4,1.5-4.7,2.4-7c5.7-1.4,11.4-3.1,16.9-5.2
					c8.7-3.4,18.3-9.7,18.3-19.1c0-4.2-2.5-8.6-6.5-9.5c-2.4-0.5-4.8,0.1-7.1,0.8c-55.1,15.2-114.3,19.4-169.4,4
					c-18.3-5.1-35.9-12.3-53.5-19.5c-9.8-4-19.6-8-29.4-12l-12.8,1c0.4,2.2,0.9,4.3,1.6,6.4c-37.9,41.3-58.3,91.7-72.5,143.6
					c4.7,7.5,9.2,16.4,65.5,20.6c0-2.8,1.3-7.3,0-11.4c-0.4-1.2-25.4-0.7-25.1-4.3c0.1-1,0.4-4.9,0.5-5.8c0.5-7.6,1.5-15.1,2.5-22.6
					c2.1-15.5,4.7-31.1,9.2-46.1c6.4-21,13.2-43.3,27-60.7c3.7,5,8.3,9.4,13.3,13.1c10.9,8,23.8,12.9,36.6,17.3
					c18.4,6.3,37.2,11.7,56.6,12.9c-6.1,6.9-7.7,17-5.8,26.1c1.9,9.1,6.8,17.2,12.5,24.4c2.2-17.2,8.5-33.8,18.4-48
					c1.1,6.5,3.6,12.8,8,17.7c3.1,3.4,7,6,10.8,8.6l22.5,14.9c-0.3-10-1.2-19.9-2.8-29.7c-0.7-4.2-1.7-8.8-4.1-12.2
					c2.8,1.1,6.3,1.2,9.4,1c12.8-0.5,25.7-1.1,38.4-2.6c1,15.1-0.1,30.2-0.9,45.3c-0.6,10.2-1.1,20.3-1,30.5
					c0.1,5.9,0.3,11.7,0.3,17.6c-0.1,6.5-0.6,13-1.2,19.4c-1.3,13.7-2.7,27.4-4.4,41.1c-6.2,0.2-10.5,0.3-11.2,0.3
					c-25.7,0.8-46.3-0.6-67.1-3.2c-22.7-2.9-47.6-6.6-69.2-14.6c-13.9-5.2-20.8-7.4-29.4-19.7c-8.6-12.3-13.2-27.4-16.2-41.9
					c-5.7-27-12.5-47.2-10.7-74.7c-3.6,8.1-3.9,13.1-6.2,21.5c-3.3,25.7-5.1,47.3-6.3,72.6c4.3,2.8,7.8,5.2,11.7,7.7
					c-4.6,10.2-8.8,19.4-13.2,29.1c20.9,19,126,37.7,216.8,32.5c-0.1,0.6-0.2,1.2-0.2,1.8c3-1.7,6.9-1.6,9.8,0.3
					c0.1-0.9,0.3-1.8,0.4-2.8c16.6-1.3,32.5-3.4,47.3-6.6c0.3-2-0.3-2.5,0-4.5c-1.9,0.4-26.9,1.3-45.9,1.8c0.5-3.5,1-7,1.5-10.4
					C380.1,608.7,384.9,575.6,385.7,542.4z M345.6,564.1c-2-0.2-4,0.1-5.7,1.2c-1.6,1-2.8,2.6-3.7,4.2c-1.5,2.6-2.6,5.6-1.9,8.5
					c0.8,3.5,4.1,6,7.5,7.1c4.3,1.3,9.3,0.6,12.6-2.4C361.8,575.7,354.1,564.8,345.6,564.1z M351.7,512.7
					c-8.2-5.9-21.6-2.5-20.2,9.4c0.7,6.1,6.2,11.1,12.3,12.1c2.1,0.3,4.2,0.3,6.2-0.5C358.2,530.3,358.2,517.4,351.7,512.7z
					 M333.9,625.5c-1,4.9,1.4,10.2,5.6,12.9c2.6,1.7,6,2.3,8.9,1c5.9-2.7,9.6-14.4,5.1-19.5C347.5,612.8,335.6,617,333.9,625.5z"/>
				<path class="st5" d="M372.4,474.1c0,3-0.2,5.9-0.4,8.4c-0.3,4.3-0.6,8.7-1.2,13c0,1,0.1,2,0.1,3c0,0,0,0,0,0
					c1,15.1-0.1,30.2-0.9,45.3c-0.6,10.2-1.1,20.3-1,30.5c0.1,5.9,0.3,11.7,0.3,17.6c-0.1,6.5-0.6,13-1.2,19.4
					c-1.3,13.7-2.7,27.4-4.4,41.1c-0.3,0-0.5,0-0.8,0c-0.6,3.3-1.5,6.6-2.9,9.7c0.8,0,1.6-0.1,2.4-0.1c-0.1,0.6-0.2,1.2-0.2,1.8
					c1.8-1,4-1.4,6.1-1.1C378.2,600.3,382.6,536.3,372.4,474.1z M136.1,598.2c-8.8-0.9-17.5-2.9-26-5.6c-10.5-3.4-22-7.4-30.5-14.9
					c-0.7,2.5-1.4,5-2.1,7.5c4.7,7.5,9.2,16.4,65.5,20.6c0-1.9,0.6-4.7,0.6-7.5C141.1,598.4,138.6,598.4,136.1,598.2z"/>
				<path class="st5" d="M145.9,595.2c3.6,1.4,7,3.3,10,5.6c-5.2,11.2-9.5,22.8-12.7,34.8c9.1,4.3,18.9,7.2,28.9,8.4
					c-2.6-0.3-7.8-26.7-8.5-29.9c-2.4-10.5-4.4-21-5.7-31.7c-1.4-10.6-2.2-21.4-2.6-32.1c-0.3-10.1,1.1-20.7,0.4-30.7
					c-6.8,3.6-6.4,27-7.2,34.1C147,567.5,146.1,581.3,145.9,595.2z"/>
			</g>
			<g>
				<path class="st4" d="M513.6,505c-10.8,11.4-23,21.1-36.7,28.7c-9.2,5.1-19.3,4.6-28.7,0.6c-7.8-3.4-15-8-22.8-12.2
					c0.9-16.8,1.8-33.1,2.9-51.4c5.4,3.8,9,6.4,12.7,9.1c10,7.1,15.7,7.3,26.1,0.5c3.6-2.4,6.9-5.4,9.8-7.7
					C489.2,483.4,501.2,494,513.6,505z"/>
				<path class="st7" d="M487.4,504.9c-0.6-2.4-2.7-4.7-4.1-6.4c-3.8-4.6-8.2-8.5-12.3-12.7c-1.6-1.7-3.1-3.4-4.7-5.1
					c-9.9,6.3-15.5,5.9-25.3-1c-0.8-0.6-1.6-1.1-2.4-1.7c1.1,9.7,0.3,19.9-1.4,29.7c5.5,3.6,11.2,6.7,17.4,9c1.2-5.5,2-7.8,2.3-13.6
					c0.2-5.8-1.2-12.3,0.5-10.5c4.9,5.5,9.7,17.2,12,23.7C475.8,514.1,483.9,510.4,487.4,504.9z"/>
				<path class="st6" d="M476.9,472.5c-2.5,2-5.3,4.5-8.4,6.7c8.9,8.7,19.9,20.8,28.2,30.6c2.6,3.1-28,17.7-28.6,16.3
					c-2.1-5.4-3.2-17.9-9.4-27c-0.6,6.7,0.2,18.6-5.9,24.7c-1,1-20.4-12.3-20.3-13.2c1.3-11.2,4.2-23.1,3.5-34.5
					c-2.2-1.6-4.7-3.3-7.7-5.5c-1,18.3-1.9,34.5-2.9,51.4c7.8,4.2,15,8.9,22.8,12.2c9.4,4.1,19.5,4.6,28.7-0.6
					c13.7-7.6,26-17.3,36.7-28.7C501.2,494,489.2,483.4,476.9,472.5z"/>
				<path class="st5" d="M491.6,496.6c5,5.2,10,10.3,14.9,15.5c2.4-2.3,4.8-4.6,7.1-7.1c-12.5-11-24.4-21.6-36.8-32.5
					c-1.3,1-2.6,2.1-4,3.3C479.3,482.5,485.1,489.9,491.6,496.6z"/>
			</g>
			<g>
				<path class="st4" d="M536.6,506.3c-26.6-8.1-44.3-27.8-62.5-48.4c7.4-10.3,14.5-20.2,22.1-30.7c20.8,15.6,43.6,26.8,68.2,33.5
					C562,474,549.1,494.9,536.6,506.3z"/>
				<path class="st7" d="M515.2,478c1.8,1.1,4.2,3.4,6.3,4c4.3,1.3,5.4-2.7,7.2-5.9c3.2-5.7,6.5-11.3,9.8-16.9
					c-10-3.4-19.7-10.8-28.1-16.5c-4.9-3.4-9.7-6.8-14.2-10.7c-0.7-0.6-1.3-1.2-2-1.8c-5,6.9-9.8,13.6-14.7,20.4
					C490.3,461.5,502,470.1,515.2,478z"/>
				<path class="st6" d="M496.3,427.3c-0.3,0.4-0.5,0.7-0.8,1c1.7,2.3,4.4,4.3,6.1,5.8c3.5,3.1,7.3,6.1,11.1,8.8
					c10.9,7.7,23.8,11.2,35.8,16.8c1.1,0.5,1.6,2.1,1.3,3.2c-1.9,6.7-5.3,12.6-7.9,19c-1,2.5-1.6,5.8-4.1,7.3
					c-5.8,3.6-16.7-2-21.8-4.8c-14.3-7.7-27.2-18.8-38.8-30.9c-1,1.5-2.1,2.9-3.1,4.4c18.2,20.6,35.8,40.3,62.5,48.4
					c12.5-11.5,25.4-32.3,27.9-45.6C539.8,454.1,517.1,442.8,496.3,427.3z"/>
			</g>
			<g>
				<path class="st4" d="M79.1,572c-2.7,9.6-2.7,14.8,4.1,19.7c10.9,7.8,23,11.7,35.9,13.3c7.6,1,18.8,0.7,25-1.5
					c1.2-2.9-0.7-5.7,0.6-8.8c1.3,1.2,8.9,5.2,8.8,5.9c-0.3,2.3-3.1,10.7-4,12.8c-3.7,8.4-9.8,17.5-13.1,26.1c-2,5.2-4.7,6.1-9.6,7
					c-21.8,4-45.3-3.1-60.3-20.8c-2.2-2.6-3.1-5.9-3-9.2c0.1-11.2,2.4-25.2,3-36.4C64.8,568.6,73.1,570.4,79.1,572z"/>
				<path class="st7" d="M128.8,612.3c6-0.1,15.7-0.6,22.5-3.8c1-3,2.1-6.5,2.2-7.8c0.1-0.7-7.4-4.7-8.8-5.9
					c-1.3,3.1,0.6,5.8-0.6,8.8c-6.2,2.2-17.3,2.5-25,1.5c-8.6-1.1-16.9-3.2-24.7-6.8C89.2,609.9,122.3,612.3,128.8,612.3z"/>
				<path class="st6" d="M117.8,647.6c3.9-9.6,7.3-19.4,9.9-29.4c-1.4,0-2.8,0-4.1,0c-7.5-0.3-42-6.4-32.3-20c0.3-0.4,0.6-0.7,0.9-1
					c-3.1-1.6-6.1-3.4-9-5.5c-6.8-4.9-6.8-10.2-4.1-19.7c-6.1-1.6-14.3-3.4-12.7,8.1c-0.7,11.2-3,25.2-3,36.4c0,3.3,0.9,6.6,3,9.2
					C79.4,641.1,98.7,648.4,117.8,647.6z"/>
			</g>
		</g>
		<g>
			<path class="st8" d="M193.6,273.1c-2.5,23.6-6.8,60.2-13.2,85.1c-2.7-4.1-4-4.4-5-6.4c-3.3-6.7-8.9-14.1-11.8-21
				c-1-2.3-4.1-7.7-3.1-9.4c7.1-12,14-25.3,21.5-37C179.6,281.5,191.8,273.4,193.6,273.1z"/>
			<path class="st9" d="M178,349.3c-4.6-9.2-6.8-19.6-6.3-29.9c1,6.7,3,13.3,5.8,19.4c-2.9-10.8-2.9-22.4,0-33.3
				c-0.5,6.6,0.1,13.3,1.7,19.8c-0.5-11.7,1.5-23.5,5.7-34.4c0.1,4.8,0.2,9.7,0.3,14.5c0.8-7.8,2.4-15.5,4.7-23.1
				c0.2,2.5,0.6,5,1.2,7.5c1.4-9,2.4-15.6,2.5-16.8c-1.8,0.3-14,8.4-11.6,11.3c-7.6,11.7-14.5,25-21.5,37c-1,1.7,2.1,7.1,3.1,9.4
				c2.9,6.9,8.6,14.3,11.8,21c1,2,2.3,2.3,5,6.4c0-0.2,0.2-1.3,0.5-3.1C180.1,353.2,179,351.3,178,349.3z"/>
			<path class="st10" d="M188.3,306.5c-1.6,7.5-3.3,15-4.9,22.5c0.4-5.6,0.2-11.3-0.5-17c-1.4,10-2,20.1-1.8,30.2
				c-1.1-5.5-2.3-11-3.4-16.4c-0.2,7.1,0.4,14.3,1.8,21.3c-1.5-2.4-2.9-4.8-4.4-7.2c1.2,2,2.2,10.9,5.7,9.8
				c2.9-0.9,3.3-10.2,3.8-12.6C186.4,326.9,187.7,316.7,188.3,306.5z"/>
		</g>
		<path id="usta" class="st11" d="M272.1,394.7c21.7-3.6,54.1-3.2,76.7-7.5c1.2-0.2,9.9,0.8,12.7,2.3
			C339.1,408,296.9,406.8,272.1,394.7z"/>
		<path class="st9" d="M348.1,397.5c5-2.1,9.5-4.7,13.5-7.9c-2.8-1.4-11.5-2.5-12.7-2.3c-22.6,4.2-55,3.9-76.7,7.5
			c7.2,3.5,15.8,6.1,25,7.5C311.9,392.5,333.9,388.9,348.1,397.5z"/>
		<g>
			<g>
				<path class="st11" d="M155.4,414.8c10.1,5.2,19.9,9.8,29.4,15.1c27.5,15.6,57.7,22.3,88.6,26.6c12.5,1.7,25,3.6,37.5,4.2
					c26.7,1.3,53.2-0.5,79.2-7c7.5-1.9,14.7-5.3,22.1-7.9c4.8-1.7,9.5-3.5,14.4-5c3.8-1.2,7.5-1.5,9.8,2.8c2.2,4.2,1.1,8.1-2.1,11.2
					c-6.3,6.1-13.7,10.4-22.3,11.9c-24.5,4.4-48.8,9.4-73.8,10.9c-55.3,3.5-107.7-7.6-158.2-29.3c-10.5-4.5-19.5-11.1-26.1-20.8
					C151,423.4,150.6,419.5,155.4,414.8z"/>
				<path class="st2" d="M429.2,440.2c-0.9,0.1-1.8,0.4-2.7,0.6c-4.9,1.5-9.6,3.3-14.4,5c-7.4,2.7-14.5,6-22.1,7.9
					c-26,6.4-52.5,8.3-79.2,7c-12.6-0.6-25.1-2.5-37.5-4.2c-20.9-2.9-41.5-6.9-61.1-14c18.9,11.3,41.3,16.3,62.7,20.2
					c14.9,2.7,29.9,4.1,45,4.9c2.4,0.1,4.7,0.2,7.1,0.2c24.2-1.1,48-5,71.7-9.9c0.9-0.2,1.8-0.3,2.7-0.5c2.6-0.7,5.3-1.4,8-1.9
					c5.7-1.6,11.1-3.6,15.6-7.4C428.7,445,429.6,442.4,429.2,440.2z"/>
				<path class="st5" d="M404.9,462.2c-40.5,8.6-81.4,14.9-122.8,9.7c-17.9-2.2-35.4-6.4-52.7-11.1c-11.1-3.1-27.8-7.1-33.1-18.6
					c-1-2.1-0.7-4.4,0.4-6.1c-4-1.9-8-3.9-12-6.1c-9.4-5.3-19.3-9.9-29.4-15.1c-4.8,4.7-4.4,8.5-1.5,12.7
					c6.6,9.6,15.5,16.2,26.1,20.8c50.5,21.7,102.9,32.8,158.2,29.3c25-1.6,49.3-6.6,73.8-10.9c8.6-1.5,16-5.8,22.3-11.9
					c1.2-1.2,2.1-2.4,2.6-3.8C427.5,457.2,415.5,460,404.9,462.2z"/>
			</g>
			<g>
				<path class="st11" d="M171.6,453c5.4,3.9,10.3,8.2,16.1,11.2c27.5,14.1,59.5,21.7,90.1,25.3c6.9,0.8,4-1.2,8.3-8.9
					c-39.3-6.4-88.4-22.1-123.8-41.7C162,439.6,164.9,449.1,171.6,453z M372.7,475.9c-18.5,2.6-45.7,3.1-64.3,5
					c-0.3,0.7,7.4,8.6,7.2,9.3c2.5,1.2,5.1,0.3,7.6,0.4c9.5,0.3,31.4,0.5,40.7-1c20.4-3.4,30.1-7.2,50.4-11.6
					c5.4-1.2,11-7.5,14.3-12.3C410.4,468.9,390.8,473.3,372.7,475.9z"/>
				<path class="st9" d="M211,465.1c-6.9-3.2-13.6-7.1-19.2-12.1c-10.4-4.4-20.4-9.2-29.4-14.2c-0.4,0.8,2.5,10.2,9.3,14.2
					c5.4,3.9,10.3,8.2,16.1,11.2c27.5,14.1,59.5,21.7,90.1,25.3c4.9,0.6,4.8-0.3,5.9-3.5c-9.7-1-19.3-2.6-28.8-5.3
					C240.2,476.5,225,471.5,211,465.1z M370.6,483.7c-18.6,2.6-37.4,3.4-56.1,3.5c-0.3,0-0.7,0-1,0c1.3,1.5,2.2,2.7,2.1,3
					c2.5,1.2,5.1,0.3,7.6,0.4c9.5,0.3,31.4,0.5,40.7-1c20.4-3.4,30.1-7.2,50.4-11.6c5-1.1,10-6.4,13.3-11
					C409.8,476,390.3,480.9,370.6,483.7z"/>
			</g>
			<g>
				<path class="st11" d="M305.1,505.8c3.1-4.5,8-10.1,11.7-15.6c19,10.5,17.6,33.9,14.7,40.9C323.6,524.4,308,518.6,305.1,505.8z"
					/>
				<path class="st5" d="M331.8,521.4c-5.5-2.3-10.1-7.6-13.4-12.4c-1.4-2.1-2.9-4.6-3.2-7.2c-0.3-3.6,2.6-6.2,2.4-9.7
					c0-0.5,0.1-0.9,0.3-1.3c-0.3-0.2-0.7-0.4-1-0.6c-3.7,5.5-8.7,11.1-11.7,15.6c2.9,12.8,18.5,18.6,26.5,25.3
					c0.8-2,1.5-5.4,1.6-9.4C332.8,521.7,332.3,521.7,331.8,521.4z"/>
				<path class="st2" d="M331.5,517.5c-0.7-4.5-1.8-9-4-13c-1.5-2.9-3.7-6.1-6.4-7.9c-1.6-1.1-2.3-1.5-3.1,0.5
					c-0.9,2.2,0.8,2.5,2.3,3.8C325.6,505.2,329.5,511,331.5,517.5z"/>
			</g>
			<g>
				<path class="st11" d="M274.8,539.9c-10.1-18.5-4.2-38.1,12.2-44c8.9,6,9.4,7.4,4,16c-2.8,4.6-6.4,8.8-9.1,13.5
					C279.4,529.7,277.5,534.4,274.8,539.9z"/>
				<path class="st5" d="M278.2,529.2c-5.1-5.5-3.8-16.2-0.7-22.3c4.1-8,13.9-6.8,15.8,1.1c2.6-5.3,1-7.1-6.3-12
					c-16.4,5.9-22.3,25.5-12.2,44c1.8-3.6,3.2-6.9,4.7-10C279,529.8,278.6,529.6,278.2,529.2z"/>
				<path class="st2" d="M288.7,506.2c-0.2-0.1-0.5-0.1-0.7,0c-0.2,0.1-0.4,0.4-0.5,0.6c-1.2,2.5-2.4,5.1-3.7,7.6
					c-1,2.1-2,4.2-2.7,6.4c-0.7,2.4-1.1,4.8-2,7.1c2.6-5.6,5.9-10.8,10-15.4C291,510.5,293,507.2,288.7,506.2z"/>
			</g>
			<g>
				<path class="st11" d="M302.8,504.2c-5.3-2.2-16-6.8-20.6-15c2-2.4,6.9-12.3,15.3-10.3c13.4,2,16.8,7.4,17.5,11.3
					C315.7,494.2,309.9,499,302.8,504.2z"/>
				<path class="st5" d="M315,490.2c-0.4-2.2-1.7-5-5.2-7.3c2.7,4.6,2.7,12.6-2.8,14.2c-3.1,0.9-9.8-4.5-10.8-5.4
					c-2-1.6-4.4-3.6-5.3-6.2c-0.8-2.4-0.3-5.7,2.5-6.6c2.6-0.8,5.4,1.2,7,3c0.5,0.6,0.7,1.2,0.7,1.8c2.4,1.9,3.7,3.9,5.1,7.2
					c0.6-1.9,0.1-6.9-1-7.8c-1.5-1.2-2-2-0.7-2.8c-2-0.7-4.3-1.2-7.1-1.6c-8.5-2-14.7,5.6-15.3,10.3c4.7,8.2,15.3,12.8,20.6,15
					C309.9,499,315.7,494.2,315,490.2z"/>
				<path class="st2" d="M307.8,485.1c-0.2,0.1-0.3,0.2-0.4,0.3c-0.6,0.9-0.3,2.1-0.3,3.2s-0.5,2.5-1.6,2.5c-0.6,0-1.1-0.3-1.6-0.7
					c-1.7-1.4-3.3-3-4.7-4.7c-0.8-1-1.8-2.1-3.1-1.9c-0.2,0-0.4,0.1-0.5,0.2c-0.2,0.2-0.2,0.4-0.2,0.6c0,0.7,0.4,1.3,0.8,1.8
					c1.9,2.9,4.6,5.3,7.8,6.9c1,0.5,2.2,0.9,3.2,0.5c1.1-0.4,1.7-1.7,2.1-2.8c0.3-0.8,0.6-1.7,0.6-2.5
					C309.9,488,308.8,484.6,307.8,485.1z"/>
			</g>
		</g>
		<g>
			<path class="st8" d="M239.7,266.8c0.6-22.3,21.4-33.3,36.5-35.8c4.5,4.5,2.2,14.6,3.1,20.7C266.5,251.1,249.8,255.8,239.7,266.8z
				"/>
			<path class="st9" d="M277.9,251.7c0.3-3.4,0.8-8.7,0.1-12.9c-13.5,3-29.2,10.5-37.6,21.8c-0.4,2-0.7,4-0.8,6.2
				C249.5,256.1,265.3,251.4,277.9,251.7z"/>
			<path class="st8" d="M365,263.8c-13.5-7.1-24.8-7.6-36.6-11.4c-0.1-1.3-3.7-11.1-0.4-14.2C339.4,235.1,360.4,251.4,365,263.8z"/>
			<path class="st9" d="M326.8,244.7c0.4,3.4,1.6,6.9,1.7,7.7c11.8,3.8,23.1,4.3,36.6,11.4c-1-2.8-2.9-5.7-5.3-8.6
				C349.4,249.1,338.5,244.5,326.8,244.7z"/>
			<path class="st10" d="M276.3,238.2c-0.8-0.8-1.3-1.7-1.6-2.8c-0.2,0.9-0.4,1.8-0.7,2.8c-1-0.1-1.2-1.7-2.2-1.7
				c-0.4,0-0.7,0.3-1,0.5c-1,0.8-2.4,1-3.6,1.3c-6.9,1.5-13.4,5.2-18.2,10.4c4.1-4.4,8-8.3,13.5-11c2.7-1.3,5.5-2.4,8.4-3.1
				C275.2,233.6,275.7,233.7,276.3,238.2z"/>
			<path class="st10" d="M330.5,242c0.1,0.7,0.4,1.4,0.7,2c0-0.4,0.2-0.9,0.5-1.2c0.1-0.1,0.2-0.2,0.3-0.2c0.6-0.1,0.3,1.1,0.9,1.3
				c0.2-0.7,0.7-1.2,1.4-1.5c1.1-0.6,2.5-0.3,3.7,0c2.5,0.6,4.9,1.4,7.2,2.3c-2.2-1.7-4.9-2.6-7.5-3.6c-2.7-1-12.3-3.5-8.8,2.9
				C329.3,243.2,329.8,242.5,330.5,242z"/>
		</g>
		<path class="st7" d="M188.7,167.7c-4.4,2.4-9.1,5.6-9.9,10.5c-0.5,2.7,0.4,5.4,1.2,8c5.6,17.4,11.1,34.7,16.7,52.1
			c21.3-18.8,49.8-26.9,77.7-32c9.2-1.7,18.6-3.1,27.9-2.8c14.5,0.4,32.8,4.7,46.4,9.8c-7.3-13.4-11.2-26.1-19-39.2
			c-4.4-7.3-5.2-16.3-11.6-22.1c-16.7-15.2-63.3-6.8-82.6-2.2C219.3,153.6,203.5,159.6,188.7,167.7z"/>
	</g>
	<g>
		<path class="st12" d="M342.5,386.4c-9.1,0.5-26.2,1-34.7,1.7l-15.5,1.4c0.3-0.1,0.6-0.2,0.8-0.3c-2.4,0.5-4.8,0.8-7.2,0.7
			c-3.9,0.7-7.9,1.2-11.8,1.8c-4.7,0.8-11.2,0.7-15.9,1.5c3.3,0.9,8.4,3.2,11.5,4.6c20.8,9.8,42.4,13,64.7,7.2
			c7.5-1.9,14.3-6.1,21.5-9.2c2.6-1.1,8.2-4,10.8-4.2C360.5,387.6,350.3,387.5,342.5,386.4z M272.1,394.7
			c21.7-3.5,53.9-1.7,76.5-5.9c1.2-0.2,3.6,0.7,9.1,2.2C332.5,403.3,302.4,408.8,272.1,394.7z"/>
		<path class="st12" d="M348.1,528.3c5.2-0.2,8.4-3.5,8.1-8.4c-0.4-5.4-4.2-8.7-9.5-8.4c-5.1,0.3-7.8,3.7-7.5,9
			C339.6,525.4,343.1,528.5,348.1,528.3z M255,310.5c3.8,1,6.9,2.5,9.6,4.4c0.6-0.2,1.3-0.4,1.9-0.6c-0.1-0.1-0.3-0.3-0.4-0.4
			c2.8-8.4,3.2-13.5,2.7-19.8c-0.7-7.8-4.7-9.8-9.3-9.8c-4.7,0-7.7,2.4-8.3,8.9c-0.5,5-1.2,9.8,0.2,16.2c-0.3,0-0.6,0-1-0.1
			C251.9,309.7,253.5,310,255,310.5z M349,616.5c-4.7,0.1-9.1,5.2-9.1,10.6c0,4.3,3.4,7.8,7.6,7.9c4.9,0.1,8.6-3.8,8.8-9.3
			C356.5,620.4,353.3,616.5,349,616.5z M347.3,565.4c-4.2,0.2-6.8,3.4-6.9,8.4c-0.1,5.1,3.1,8.2,8.3,8c4.6-0.1,7.8-3.2,7.8-7.6
			C356.5,569.4,352.1,565.2,347.3,565.4z M342.4,303.2c1.3,1.9,2.6,0.6,5.5-0.1c2.8-0.6,5.6-1.1,8.5-1.2c0.7,0,1.3,0,2,0
			c0.7-1.4,1.4-2.8,2.2-4.1c0.2-2.4,0.6-5.8,0.6-8.2c0-7-3.3-12-8.2-12.5c-4.7-0.5-8.1,1.4-9.7,7.2c-1.2,4.2-1.4,10.3-0.1,18.1
			C343,302.7,342.7,303,342.4,303.2z M269.8,715.5c-7.5-2.9-15.5-4.5-23.7-6.7c2.1-14.1,4.1-27.6,6.1-41.7c0.1-1.8,0.2-3.7,0.2-5.5
			c-10.6,0.3-21-2.6-31.5-4.3c-0.3,0-0.5-0.1-0.8-0.1c-0.6-0.1-1.1-0.2-1.7-0.3c-3-0.4-6-0.7-9-1c-0.5,0-1,0-1.5,0
			c-0.2,0.7-0.3,1.4-0.5,2.1c-0.1,3-1.1,6.2-1.5,9.4c-2.2,20-4.6,40-6.9,60c-1.1,9.4-0.6,10.8,8.6,12.9c15.3,3.5,30.6,6.9,46.1,9
			c7.9,1,16.5,0.1,24.3-1.8c12.3-3,15.4-13.3,7-22.4C281.1,720.8,275.3,717.6,269.8,715.5z M395.4,724c-2.4-2.7-11.8-7.8-30.9-10.7
			c-3.9-0.6-9.7-1.1-14-2.1c1.5-12.7,3.3-27.5,4.7-39.9c-0.2-1.3-0.2-2.6-0.2-3.9c-4.7,0.3-9.5,0.2-14.2,0c-3.1,0-6.1,0-9.2-0.1
			c-6-0.1-12.3,0.5-18.6,0.5c0,0.2-0.1,0.5-0.1,0.7c0.1,0,0.1,0,0.2,0c-0.5,11.5-0.9,22.3-1.5,33.2c-0.6,10.6-1.7,21.1-2.4,31.6
			c-0.3,5.3,1.8,9.1,7.3,10.9c23.3,7.5,47.1,7.8,70.8,4C398.9,746.4,403.3,732.8,395.4,724z"/>
		<path class="st12" d="M433.4,370.2c0-0.2,0-0.5,0-0.7c-1.8-0.6-3.5-1.3-5.2-2.1c0,0.1,0,0.2,0,0.3c-20.9-5.7-39.6-16.1-63.1-13.8
			c0,0,0.1-0.1,0.1-0.1c-1.6,0.5-3.2,1-4.8,1.3c-9.9,3.7-21.9,3.8-32.1,2.3c-8.1,0.2-16.4-0.9-24.5-3.3c-25.7-7.5-50.8-3.1-75.4,5
			c-13.9,4.6-27.5,10-41.8,15.3c1.9,1.3,6.8,3.3,9,4.2c13,5.5,18.9,7.4,30.2,10.1c10.1,2.4,20.5,3.1,30.7,5c4.8,0,9.5,0.1,14.3-0.1
			c7.2-0.9,14.3-2.4,21.6-4c11.2-4.1,23.8-10.8,28.5-14.2c5,3.5,14.5,8.4,22.7,11.1c-0.2,0-0.3,0-0.5,0c2.1,0.6,4,1.5,6.1,2.2
			c0.4,0.1,4.8,1.4,8.5,2.4c0,0,0,0-0.1,0c1.9,0.4,7,1.9,7.4,2c20,3,39.7,2.5,60.6-2c2.1-0.8,4.3-1.2,6.5-1.7
			c0.1-1.2,0.3-1.8,0.3-1.8c4-1.6,13.2-7,18-9.7C444.2,374.9,439.1,372.6,433.4,370.2z M405,391.1c-26.8,2.7-54.9-3-78.4-16.6
			c-5.5-3.2-4.8-4.9-9.7-0.7c-14.1,12.2-39.2,16-56.6,15.7c-21.2-0.3-41.3-5.5-57.2-10.8c-1.3-0.4-7.1-2.6-9.6-3.5
			c25.2-8.1,51.6-20.3,77.5-21.4c7.4-0.3,21.9,1.1,28.8,3.3c22.8,7.4,36.9,6.5,60,1.1c12.8-3,27.4-1.2,39.4,3
			c12.9,4.5,30.2,11.3,44.9,16.6C432.1,384.5,416.7,389.9,405,391.1z M194.4,280.6c0.6-4.1,2.6-8.7,5.4-11.7
			c1.1-1.2,2.2-2.3,3.3-3.5c-0.3-0.1-0.6-0.1-0.9-0.2c-0.2,0-0.4-0.1-0.5-0.2c-12.4,5.4-20.5,20.3-27.8,31c-5.4,7.9-10.6,16-15,24.5
			c-0.6,1.1-1.2,2.3-1.9,3.5c4.2,6.6,7.9,13.5,11.7,20.2c1.3,2.4,1.4,2.8,4.3,7.7c1.5,2.5,7.6,10.2,7.6,10.2
			c2.1-2.5,3.9-8.1,4.6-11.6c1.5-7.7,3-15.4,3.9-23.2C191,311.8,192.3,296.1,194.4,280.6z M179.7,355.8c-2.7-4.1-5.3-8.2-6.3-10.3
			c-3.3-6.7-5.4-11.1-8.3-18c-1-2.3-2.2-5.8-1.2-7.5c7.1-12,11.9-21.1,19.5-32.8c0.3-0.5,6-9.5,7.8-9.8
			C188.8,301,186.2,330.8,179.7,355.8z M327.4,254.9c6.9,1.3,13.7,2,20.2,3.8c6.2,1.8,12.1,4.7,19.1,7.4c-0.5-8.7-4.9-13.3-9.5-17.8
			c-0.5-0.5-1.1-1.1-1.7-1.6c-1.9-1.5-3.8-2.9-5.9-4.1c-6-3.3-16-8.1-22.8-5.2c-3.7,1.5-1.4,10.8-0.5,16.4
			C326.3,254.3,327.2,254.7,327.4,254.9z M328.4,240.2c11.4-3.2,30.1,10.4,35.5,22.5c-8.2-6.5-27.5-10.2-33.2-10.7
			c-1-0.1-1.7-1.6-1.7-2.5C328.8,247.2,327.4,241.5,328.4,240.2z M280.2,253.4c0-6.4,0.1-11,0-15.7c-0.1-5.2-1.5-8.7-9.6-6.9
			c-12.3,2.7-19.7,8.3-26.7,18.1c-3.9,5.5-5.4,12.1-5.1,21.4C250.3,256.9,263.5,251.8,280.2,253.4z M275.4,233.5
			c4.5,4.5,1.2,10.7,2.1,16.9c-12.8-0.7-25.5,1.4-36.3,13.8C243.8,246.9,256.7,234.8,275.4,233.5z"/>
		<path class="st12" d="M143.8,436.7c2.1,1.5,4.1,3.3,5.9,5.2c1.4-1.6,2.9-3.1,4.4-4.7c2.4,1.7,5.6,2.8,6.9,5
			c9,15.4,23.6,23.4,39.2,29.9c23.7,9.8,48.4,16.4,74,19.3c1.6,0.2,3.2,0.5,5.1,0.8c-16.8,19-18.1,36.8-4.7,53.6
			c6.8-11.1,13.9-22.3,20.4-33.8c2.1-3.6,4.3-5,9.1-3.5c2.7,7.8,6.9,13.3,15,17c4.1,1.9,10.6,8.7,14.1,11.8
			c3.8-14.3,3.9-22.5-5.7-44.2c14-1.1,27.6-2.1,41.9-3.2c0,0,0,0.1,0,0.1c1.1-0.1,2.3-0.1,3.4-0.1c0,0,0,0,0,0
			c16.8-4,33.2-8,50.1-12.1c-0.1,2.2-0.2,4.3-0.2,6.5c1.7-1.1,3.4-2.3,4.9-3.5c0.2-3.4,0.4-6.7,0.6-10.2c2.2,1.6,4.1,2.9,5.8,4.2
			c1-1.2,1.9-2.5,2.6-3.9c-1.4-1.1-2.8-2.3-4.5-3.6c2.3-3.2,4.2-5.9,6-8.6c7.2-10.7,3.8-20.8-8.1-24.7c-0.6-0.2-1-0.2-1.8-0.1
			c0.3-3.2,0.7-7.6,1-10.8c-1.5,0.3-2.9,0.6-4.4,1c-0.2,3.4-0.5,6.8-0.7,10.1c-38.4,19.1-78,26.1-119.3,22.4
			c-42.7-3.8-84.5-11.7-122.4-33.5c-7.9-4.5-16.4-8.1-24.7-12.1l0,0c-5.7-1.9-8.5-1.3-9.3-0.4c-7.4,7.8-7.2,15.5-2.5,23.5
			C145.5,434.9,144.7,435.8,143.8,436.7z M187.4,462.1c-5.8-3-10.8-7.7-16.2-11.6c-3.2-3.5-5-4.6-4.6-5.4
			c35.4,19.6,80.3,29.1,119.6,35.5c-3.9,0.3-6.4,4.1-5.9,7.5C280.6,490.2,214.9,476.2,187.4,462.1z M291.1,511.9
			c-2.8,4.6-6.4,8.8-9.1,13.5c-2.6,4.3-4.5,9-7.1,14.5c-10.1-18.5-4.2-38.1,12.2-44C296,501.9,296.4,503.3,291.1,511.9z
			 M302.8,504.2c-5.4-5.1-11-7.5-16.7-12.8c-4.4-4.5-0.2-8.6,7.4-10.4c6.5,0,8.2,6.4,12.7,9.9c-0.4-2.6-4.6-6.4-1-7.5
			c4.6,0.2,6.8,2.9,7.5,6.9C313.5,494.2,309.9,499,302.8,504.2z M331.4,529.8c-8-6.7-21.8-10.6-24.7-23.4c5.1-4.6,8-8.1,10.2-15
			C329.7,499.7,334.8,513.5,331.4,529.8z M412,476.6c-20.2,4.3-31.4,9.4-60.9,12.2c-11.2,1.1-24.2,0.7-33.7,0.4l-2.4-2.6
			c0,0-0.8-1.4-2.1-2.8c18.6-1.9,36.8-2.9,55.3-5.5c18.1-2.5,39.5-6.8,57.6-10C422.5,473,417.4,475.4,412,476.6z M155.4,414.8
			c10.1,5.2,19.9,9.8,29.4,15.1c27.5,15.6,57.7,22.3,88.6,26.6c12.5,1.7,25,3.6,37.5,4.2c26.7,1.3,53.2-0.5,79.2-7
			c7.5-1.9,14.7-5.3,22.1-7.9c4.8-1.7,9.5-3.5,14.4-5c3.8-1.2,7.5-1.5,9.8,2.8c2.2,4.2,1.1,8.1-2.1,11.2
			c-6.3,6.1-13.7,10.4-22.3,11.9c-24.5,4.4-48.8,9.4-73.8,10.9c-55.3,3.5-108.6-8.6-159.1-30.3c-10.5-4.5-18.3-10.5-24.8-20.2
			C151.3,423,150.6,419.5,155.4,414.8z"/>
		<path class="st13" d="M570.3,461.5c-0.1-1.9-2.8-4.1-4.1-6.1c-0.6-0.1-0.3,0.1-0.9-0.1c-7.6,2.1-19.4-3.9-25.6-6.1
			c-13.8-4.9-29.5-11-38.2-23.5c-0.6-0.5-1.2-1-1.8-1.6c-2-1-4-2-6-2.9c0,0,0,0.1,0,0.1c-8.4,10.9-18.4,23.9-26.9,35
			c2.1,4.2,5.4,5.8,8.1,11.3c-2.4,1.8-5.2,3.7-7.9,5.9c-10,8.4-14.8,8.7-25.3,1.3c-3-2.1-5.8-4.6-9.5-7.5c0.1-0.1,0.1-0.1,0.2-0.2
			c-1,0.6-2,1.1-3,1.5c-0.2,0.1-0.4,0.1-0.5,0.2c0,0.7-0.4,1.2-0.6,1.9c5.2,3.7,9.1,6.5,12.7,9.1c10,7.1,15.7,7.3,26.1,0.5
			c3.6-2.4,6.9-5.4,9.8-7.7c12.3,10.9,24.3,21.5,36.8,32.5c-10.8,11.4-23,21.1-36.7,28.7c-9.2,5.1-19.3,4.6-28.7,0.6
			c-7.8-3.4-15-8-22.8-12.2c0.9-16.6,1.9-33.5,2.9-51.4c-0.9,2-1.7,5-5.3,7.3c-2.1,57.2-4.2,115-6.3,173.2
			c-17.3,5.8-34.4,7.7-52.3,9c5.4-29,5.8-57.3,6.7-85.5c0.9-27.9,1.4-56.2,1.9-84.8c-1.1,0.2-2.4,0.1-3.6,0.2
			c-3.3,56.7,0.3,113.5-8.8,168.7c-49.6,6.7-178.4-5.4-215.1-29.3c4.4-9.7,8.6-18.9,13.2-29.1c-3.8-2.5-7.4-4.9-11.7-7.7
			c1.4-28.9,6.6-58.2,10.1-87.7c-10.3,31.8-14.3,64.6-16.3,97.6c-20.3,2.6-53.6-5.3-61.7-18.3c14.7-53.5,34.8-105.1,75-147
			c-7-2.5-8.1-3.7-7.7-3.2c-18.3,18.7-29.5,39.4-41,61.9c-13.3,26-21.2,48-27.3,72.5c-12.9-1.1-13.3-1.1-14.3,10.8
			c-1.1,12.6-1.3,25.2-1.8,37.9c-0.1,2.4-0.5,5.3,0.7,7c3,4.6,5.4,6.4,5.9,7.7c1.2,1,2.3,2,3.3,3.1c0-0.1,0.1-0.1,0.1-0.2
			c18.4,13.7,38.8,18.7,62,13.5c0,0.3-0.1-0.3,0,0c3.2-1.2,5.2-2.9,7.6-4c0.7-3.1,1.5-4.8,2.8-7.3c9.1,7.3,42.5,14.7,63,20.5
			c4.8,1.3,38,4.9,45.4,5.6c20,1.8,39.3,3.6,60.3,5.5c10.1,1.2,33.9,1.4,42.4,0.2c11.7-1.6,17.3-1.4,28.5-2.6
			c16-1.7,27.4-5.7,38.3-10.6c1.1-41.6,2.2-83,3.3-125.6c6,2.9,10.6,5,15,7.4c15.7,8.1,30.9,7.7,45.4-2.5
			c11.7-8.2,23.1-16.6,35-25.2c14.2,6.1,18.2,5.6,27.6-7.9c7.2-10.3,13-21.5,19.3-32.5C569.3,466.8,570.5,464,570.3,461.5z
			 M135.8,639.5c-2.9,4.8-4.6,4.6-9.5,5c-21.6,1.5-40.5-1.2-55.5-18.9c-2.2-2.6-3.9-6.6-3.8-9.9c0.1-11.2,1-22.4,1.6-33.6
			c0.2-3.3-1.4-11.6,7.6-8.9c-0.9,3.2-2.2,10.1-1.4,12.5c1.5,4.7,5.2,7.1,9.7,10.3c10.9,7.8,23.6,10.5,36.4,12.1
			c7.6,1,17.3-0.6,25.1-0.6c0.1-5.9,0.1-5.9,0.5-10.2c1.3,1.2,6.5,4.5,6.4,5.2c-0.3,2.3-3.3,8.3-4.3,10.4
			C144.9,621.3,139.2,633.7,135.8,639.5z M536.6,506.3c-26.6-8.1-44.3-27.8-62.5-48.4c7.4-10.3,14.5-20.2,22.1-30.7
			c20.8,15.6,43.6,26.8,68.2,33.5C562,474,549.1,494.9,536.6,506.3z"/>
		<path id="hat" class="st13" d="M105.1,267.1c2.9-3.3,6.3-6.1,9.9-9.5c7.8,17,15.3,33.4,23.1,50.5c-0.1,0-0.1,0-0.2,0.1
			c1.2,2.1,2.3,4.2,3.3,6.4c4.8-0.8,9.8,0.5,13,5.1c1.6,2.3,3.1,4.6,4.5,7c2.3-3.5,4.8-6.8,7.3-10.2c6-10.4,10.7-18.8,17.5-29.4
			c0.2-0.4,3.4-5.3,5.7-8c2.9-4.5,7.2-8.5,11.6-11.5c23.6-25.4,52-40.5,87.6-41.3c16.8-0.4,33.1,1.3,48.7,7.5
			c8.9,2.3,17.4,7.4,24.9,12.9c5,3,9.3,6.5,13.1,10.8c1.1,1,2.3,2,3.4,3c0.8,0.7,1.6,1.4,2.4,2.1c0.3,0.3,0.6,0.6,0.8,0.9
			c2.5,2.4,4.8,4.8,7.1,7.4c-11.9-31.8-27.3-62.2-43.8-91.9c-8.6-15.5-16.7-31.4-25.4-46.8c-3.1-5.5-2.9-9.8,0.7-14.9
			c6.3-8.8,9.6-18.8,10.7-29.5c2.2-23.3-10-39.8-26.5-53.6c-17.6-14.7-38.8-17.3-60.8-16.7c-8.5,0.2-16.2,2.8-22.6,8.3
			c-4.6,4-9,8.4-13,13c-13.9,16.5-30.6,26.5-53.1,26.3c-14-0.2-27.6,3.5-40.6,9.4C94,83.9,76.1,97,60.8,113.3
			c-14.7,15.6-22.4,34.5-17.9,56.3c2,9.5-0.1,17.1-4.9,25.1c-4.5,7.5-8.7,15.6-11.2,23.9c-4,13.4-1.9,26.1,6.5,37.9
			c9.8,13.7,23.9,18.8,39.3,21.5C85.1,280.2,96.3,277.1,105.1,267.1z M33.8,225c2.8-10.4,6.6-20.9,11.7-30.3
			c5.2-9.6,7.9-18.8,4.5-29.2c-4.4-13.2-0.5-25.1,6.4-36c4.1-6.6,9-13,14.9-18.1c10-8.7,20.7-16.9,31.8-24.2
			c15.1-9.9,32-15.1,50-16.4c6.8-0.5,13.6-1.1,20.4-2c14.6-2,26.3-8.7,35.3-20.5c4.7-6.2,10-12.1,15.6-17.5
			c5.3-5.1,12.1-7.4,19.6-7.5c12.3-0.2,24.6,0.3,36.4,4.3c20.3,6.9,34.3,20.8,42.5,40.3c4.4,10.5,3.8,21.6-0.9,31.9
			c-3.1,6.7-7.4,12.9-12.3,21.3c2.7,6.1,6,14.3,10,22.1c15.4,30.1,31,60.1,46.5,90.1c1.5,2.9,2.7,6,5,11.2c-4.1-2.4-6.3-3.6-8.5-4.9
			c-38.5-24.1-79.5-26.8-120.6-9.8c-26,10.8-48.1,28.6-63.5,53.2c-6.5,10.3-12.8,20.8-19.3,31.3c-6.7-3.4-11.5-9.2-14.8-15.9
			c-11.3-22.6-22.4-45.3-33.2-68.1c-1-2.2-0.3-6,0.9-8.4c13.3-28.6,32.7-51.9,60.1-68c2.3-1.4,4.5-2.9,7.6-5
			c-9.2,1.8-16.4,5.3-25.5,12.1c-15.8,11.9-28.5,26.5-38.4,43.5c-2.9,5-5.2,10.4-8.2,15.3c-3.7,6-4.8,11.6-0.2,17.8
			c3.7,5,2.5,10-0.8,15.1c-11.2,17.6-27.7,21.1-46.5,15.3C41.7,262.4,29.1,242.3,33.8,225z"/>
		<path class="st14" d="M412.5,302.6c-12.3-4.1-16.7-12.2-20.6-23.5c-1.2-3.4-2.4-6.7-3.7-10c-3.8-3.8-7.9-7.4-12.3-10.7
			c4.5,5.2,8,11.3,10.6,18.5c0.2,0.6,0.5,1.3,0.6,2c3.6,13.2,9,23.8,24.1,28.1c11,3.2,16.1,13.7,16.9,24.9
			c0.8,11.5,0.2,23.1,0.2,35.8c1.7,0.6,4.1,1.8,5.1,2.5c0.2-4.1,0.6-8.6,0.6-12.5c0-7.8,0.5-15.8-0.5-23.5
			C431.8,320.4,426.7,307.4,412.5,302.6z M361,298.4c-6.3,0.9-12.4,2.6-18.4,4.6c-7,5.2-16.3,5.3-27.2,7.4c11.2,1.7,19.9-0.2,28.6-3
			c3.5-1.2,7.2-2.3,10.8-2.9c14.2-2.1,23.6,7.9,20.9,22.2c-2.7,14.3-12.7,22.9-25.4,27c-15.1,4.9-30.9,4.9-46.4,0.4
			c-7.6-2.2-15.2-3.4-22.6-3.7c0.5,0.1,1,0.3,1.6,0.4c5,1.4,11.4,3.5,16.8,6.4c0.1,0,0.2,0.1,0.3,0.1c21.3,6.9,35,6.6,55.5,2.1
			c0.4-0.1,0.8-0.3,1.2-0.4c1.9-0.9,3.7-1.9,5.6-2.9c1.2-0.7,2.4-1.4,3.6-2.1c-0.2,0-0.4,0-0.6,0c3.6-3.9,5.8-6.3,8-8.7
			c6.5-6.8,9.3-15.2,9-24.3C381.7,309.2,376.9,300.1,361,298.4z M158.1,381.3c-1.9,1-3,1.6-4.1,2.2c-10,5.1-17.8,3.4-23.6-6
			c-11-17.9-10-36.2-1-54.7c4-8.2,18.4-12.5,24.8-3.1c0.5,0.7,0.9,1.4,1.4,2.1c-3.2-8.4-8.4-14.5-17.5-13.7c0,0,0,0,0,0
			c-11,3.1-16.6,11.6-19.8,21.6c-4.1,12.6-4.1,25.5,0.1,38.3c4.9,14.8,11.8,24.2,28.4,26c2.4,0.3,6-0.9,6.2-2.1
			c-0.7,3.6,1.3,13.7-0.9,17.9c1.5,0,6.3,1.4,6,1.2V381.3z M427.6,390.4c-1,15.2-2.2,30.2-3.1,43.8c0.6-0.1,1.5-0.2,2.1-0.2
			c0.8-0.1,1,0,2.2-0.1c-0.1-0.1,0-0.7,0.1-1.8c1.1-12.8,2.3-25.1,3.1-38.1c0.2-3.9,0.6-6,0.7-6.6c-1,0.7-1.4,1-2.9,1.7
			C428.6,389.8,427.6,390.2,427.6,390.4z M142.3,659.1c-2.3-4.7-3.5-7.9-4.3-13c-2.7,1.6-2.1,1.1-5,2.4c0.3-0.1,0.6-0.1,0.9-0.2
			c1.6,8.9,10.5,23.6,5.7,28.5c-6.3,3.9-9.9-0.2-13.2-6.5c-2.8-5.3-3.7-7.5-8.8-13.6c-3.2,4.9-7.3,10.9-7,18.2
			c0.1,3.4,0.5,10.9-0.5,14c-0.8,2.5-4,5.4-6.3,5.5c-5.5,0-7.1-1.7-8.9-4.5c-2.4-3.8-2.8-6.4-3.6-19.7c-0.2-3.3-0.1-6.7-0.1-12.4
			c-3.8,6.7-3.8,16.7-2.6,27.9c-9.6,2.8-11.6-7.5-12.6-13.1c-0.9-5.4,1.7-14.4,1.7-19.9c-0.8-0.1-2,5.3-3.1,9.3
			c-1,4.1-1.1,3.5-2.1,7.8c-9.8-10.3-5.8-22.4-0.4-34.9c0.1,0.1-2.7-2.5-3.4-3.1c0.2,0.4,0.2,0.8,0.1,1.1
			c-6.6,15.4-8.8,29.5,0.3,39.5c4.3,4.8,5.7,7.9,8.2,14c1,2.5,5,5,7.9,5.3c4.3,0.5,6.7-0.9,6.7-0.9c2.4,7,12.3,9.2,16.8,6.4
			c5.1-3.2,7.4-7.7,7-13.8c-0.4-5.6-1-11.4,2.7-17.7c2.3,4.1,3.8,7.4,5.8,10.4c3.5,5.3,9.7,7.4,15.2,5.5c5.8-2,6.2-6.9,5.7-11.8
			C144.5,666.2,143.9,662.3,142.3,659.1z M615.9,355.8c-0.5-3.3-2-6.6-3.9-9.4c-4.6-6.7-11-6.6-15.9-0.1c-1.4,1.8-2.4,3.9-4.4,7.1
			c-1.1-4.4-1.9-7.6-2.9-10.7c-1.8-5.8-4.6-11.3-11.2-11.9c-6.5-0.7-10.7,3.9-13.5,9.3c-1.6,3-2.6,6.3-3.6,9.5
			c-0.7,2.2-0.8,4.5-1.5,8.8c-9-10.9-19-15.5-30.7-10c-11.2,5.3-14.9,16-15.8,27.8c-10.6-0.7-16.6,4.6-19.4,13.8
			c-1.1,3.5-1.9,7.4-1.7,11c0.3,6.5,1.6,14.2,4,21.7c3.3,4.6,5.5,6.5,9.9,10c4,3,8.2,6,12.6,8.7c7.3,4.2,14.8,7.9,22.5,11.1
			c17.9,6.4,26.2,2.8,26.1,2.7c25.2-15.9,41-37.7,48.2-65.9C617.6,378.2,617.7,367,615.9,355.8z M568.9,342.3
			c1.4-2.8,5.4-5.6,8.5-5.8c1.9-0.1,5.4,4.3,5.9,7.1c1.4,7.3,2.8,14.9,2.1,22.2c-1.1,11.8-3.8,23.5-6,36.8c-5.1-3-8.3-4.9-11.5-6.8
			c-0.9-13.2-2.2-26-2.5-38.9C565.2,352.1,566.7,346.7,568.9,342.3z M610.1,386c-5.7,20.8-14.4,39.8-31.4,54
			c-4.4,3.7-9.3,6.9-14,10.3c-4.3,3.1-9.2,3.5-13.7,1.6c-13-5.8-26.3-11.3-38.6-18.5c-12.6-7.4-18.4-25.5-14.6-39.7
			c3.3-12.1,9.9-14.4,22.1-7.1c-0.1,2.9-0.4,6.3-0.4,9.6c0,9.3,3.2,16.4,12.5,20.4c4.3,1.8,8.4,4.7,11.7,8
			c6.1,6.3,5.6,10.4-1.1,16.2c-1,0.9-2.1,1.7-4.8,4c13.8-3.5,17.5-11.1,10.8-19.7c-3.8-5-9.4-8.7-14.4-13.2c1.3-0.7,3.4-1.6,5.2-2.8
			c7-4.8,10.5-11.5,10.3-20c-0.3-9.5-8-15.7-17.3-13.8c-2,0.4-3.9,1.4-5.9,1.5c-5.6,0.4-8.6-3-7.1-8.2c2.2-7.3,5.7-14.1,14-16.2
			c8.1-2,14.8,1.1,19.8,7.6c6.3,8.3,11.2,17.2,11.4,27.9c0.1,2.9-0.7,5.8-1,8.8c7,5.8,14.5,11.9,21.3,17.6
			c-4.2-9.5-0.7-19.5,2.3-29.2c3.3-10.7,7.3-21.2,11.4-31.6c0.8-2.1,4.5-5.1,5.6-4.6c2.4,1,5,3.6,5.7,6.1
			C612.8,365,612.9,375.5,610.1,386z M525.3,383.2c2.6-0.8,4.6-1.3,6.5-2c3.9-1.4,7.4-0.9,10.1,2.5c2.7,3.3,3,6.8,1.3,10.5
			c-1.1,2.4-2.3,5-4.1,7c-2.5,2.8-5.7,5.4-9.8,3.4c-3.8-1.9-5-5.4-4.5-9.5c0.3-2.7,0.7-5.4,0.9-8.1C525.8,386,525.5,385,525.3,383.2
			z M266.2,314c-0.1,0-0.1-0.1-0.2-0.1c-1.1-0.8-2.2-1.5-3.3-2.1c-3.8-1.5-7.7-2.5-11.6-3.2c0.1,0.3,0.1,0.6,0.2,0.9
			c-4.4-0.3-15.8,0-24.6,7.1c13-5.4,25-3.9,27.9-3.2c5.9,1.3,12.3,3,15.3,11.4c1,2.6,2.3,4.8,3.6,9.8
			C272.9,320.6,270.7,317.9,266.2,314z M288,428c11.6,8.8,39.4,6.5,52.2-4.7C322.2,429.3,305.8,430.7,288,428z"/>
	</g>
</g>
</svg>
