<?xml version="1.0" encoding="utf-8"?>
<!-- Generator: Adobe Illustrator 23.0.1, SVG Export Plug-In . SVG Version: 6.00 Build 0)  -->
<svg version="1.1" id="Layer_1" xmlns="http://www.w3.org/2000/svg" xmlns:xlink="http://www.w3.org/1999/xlink" x="0px" y="0px"
	 viewBox="0 0 251.5 277.1" style="enable-background:new 0 0 251.5 277.1;" xml:space="preserve">
<style type="text/css">
	.st0{fill:#333333;}
	.st1{fill:#FFFFFF;}
</style>
<g>
	<path class="st0" d="M177.6,36.6c-6.7-19.7-32-11.6-47-14.3C118.1,20.1,107,11,94.6,7.8c-23.4-6.1-57.2,5.4-70.5,25.8
		c-13.5,20.8-14.8,50.5-9.3,74c2,8.6,6.8,16.4,8.9,25c3.9,16,5.5,36.6,4.6,53c-0.8,15.3-19.3,39.7-10.2,54
		c5.3,8.4,16.9,12.8,25.5,16.8c23.4,10.9,48.4,14.5,73.8,14.5c9.5,0,27.3-3,34.8-9.3c4-3.3,3-10.4,3.6-15c1.5-12.1,1.6-27.2,7.8-38
		c15.5-26.8,35.1-51.3,52.4-77c7.8-11.7,18.7-25,22-39c3.4-14.6,2.1-37.6-8.8-48.7c-12.9-13-33.2-12.6-49.3-7.8"/>
	<path class="st1" d="M121.2,25.2c-19.5,6.1-33,35.8-33,55c-0.2,6.2-2.4,17.5,4,21c-2.8-22.1,1.6-55.3,22.2-68.9
		c14.2-9.4,46.4-10.9,58.4,3c7.5,8.6,7.5,22.2,6.2,32.9c-2.1,17.5-17,29-23.8,44c12.5-3.5,26.9-31.4,27.5-44
		c0.7-12.7-5.4-25.8,10.5-30.1c31.7-8.5,42.9,20.5,41.6,45.6c-1.4,9.3-6.6,23.3-11.7,31.4c-11.4,18.2-22.7,37.9-36.9,54
		c-4.5,5.1-18,27.5-26.4,17.4c-2.9-3.5,0.9-8.3,2.7-11.4c6.3-10.6,13.5-20.2,19.7-31c-12.3,6-15,26.3-28,34c-6.8,4-20.3-2-21.7-10
		c-1.4-8.2,3.7-19.1,7.7-26c-9,6.6-6.7,19.2-14.4,25.3c-4,3.2-11.4,0.8-15.7-0.3c-4.7-1.2-11.9-1.7-15.3-5.5
		c-2.5-2.8-1.6-8-1.6-11.5c0-7.8-1-15.5-3-23c0,0,2.2,25.2-2.9,31.7c-4.8,6.1-24.6,4.2-26.1-2.7l-2-23c-2.6,7.2-0.3,15-3,22
		c-1.6,4.2-10.6,10.1-13.4,3.9c-2.6-5.7-1.1-15.6-1.7-21.8c-0.8-8.7-3.7-18.5-5.9-27c0,0,2.8,26.5,3,39c0.1,5.5-1.6,17.6-5.3,12
		c-4.2-10.8-2.9-17.3-5.6-28.4c-2-8.3-6.5-18.4-8.6-26.7c-5.6-21.6-3.3-47.4,7.9-67C41,13.9,79.8,3.9,105.2,15.9
		C110.5,18.4,117.9,20.1,121.2,25.2"/>
	<path class="st1" d="M153.2,252.2c-37.4-19.7-91.4-30-133-19c0.7-15.6,10.7-29.4,11.9-45c0.4-5.3-1.3-15,2.7-19.3
		c6.2-6.5,21.3-4.8,29.4-4.7c26.8,0.3,56.4,5.3,80,18.6c6,3.4,15.5,6.4,19.4,12.5c3.4,5.4-3.3,11.9-5,17
		C154.6,223.8,153.2,239.9,153.2,252.2"/>
	<path class="st1" d="M139.5,253.1c4.8,3.1,7.9,5.5,3.7,8.1c-24.7,11.7-53.9,5.8-79-3.2c-6.5-2.3-25.1-7-24.5-16.1
		c0.7-9.7,16.8-8.1,22.9-8.1C89.3,234.8,115.1,239.8,139.5,253.1L139.5,253.1z"/>
	<path class="st0" d="M55,66.9l0.8,1.3C56.9,53.4,66.4,33.7,82,29.9C66.6,23.5,49.9,54.6,55,66.9"/>
	<path class="st0" d="M201,55.9c3.3,8.1,6.5,15.5,4.9,24.5c-0.6,7.2-5.3,15.4-6.9,22.5C209.5,94.2,214.4,64.9,201,55.9"/>
</g>
</svg>
