<?xml version="1.0" encoding="utf-8"?>
<!-- Generator: Adobe Illustrator 23.0.1, SVG Export Plug-In . SVG Version: 6.00 Build 0)  -->
<svg version="1.1" id="Layer_1" xmlns="http://www.w3.org/2000/svg" xmlns:xlink="http://www.w3.org/1999/xlink" x="0px" y="0px"
	 viewBox="0 0 556 473" style="enable-background:new 0 0 556 473;" xml:space="preserve">
<style type="text/css">
	.st0{fill:#F2F2F2;stroke:#000000;stroke-width:0.25;stroke-miterlimit:10;}
	.st1{fill:#CCCCCC;stroke:#000000;stroke-width:0.25;stroke-miterlimit:10;}
	.st2{fill:#FFFFFF;stroke:#000000;stroke-width:0.25;stroke-miterlimit:10;}
	.st3{fill:#333333;stroke:#000000;stroke-width:0.25;stroke-miterlimit:10;}
	.st4{fill:#ECECEC;stroke:#000000;stroke-width:0.25;stroke-miterlimit:10;}
	.st5{fill:#246EBA;stroke:#000000;stroke-width:0.25;stroke-miterlimit:10;}
	.st6{fill:#43A047;stroke:#000000;stroke-width:0.25;stroke-miterlimit:10;}
	.st7{fill:#4CAF50;stroke:#000000;stroke-width:0.25;stroke-miterlimit:10;}
	.st8{fill:#FFD54F;stroke:#000000;stroke-width:0.25;stroke-miterlimit:10;}
	.st9{fill:#BA68C8;stroke:#000000;stroke-width:0.25;stroke-miterlimit:10;}
	.st10{fill:#eb4647;stroke:#000000;stroke-width:0.25;stroke-miterlimit:10;}
	.st11{fill:#66BB6A;stroke:#000000;stroke-width:0.25;stroke-miterlimit:10;}
	.st12{fill:#246EBA;stroke:#000000;stroke-width:0.25;stroke-miterlimit:10;}
	.st13{fill:#B3B3B3;stroke:#000000;stroke-width:0.25;stroke-miterlimit:10;}
	.st14{fill:#E6E6E6;stroke:#000000;stroke-width:0.25;stroke-miterlimit:10;}
	.st15{fill:#607D8B;stroke:#000000;stroke-width:0.25;stroke-miterlimit:10;}
	.st16{fill:#EA4647;stroke:#000000;stroke-width:0.25;stroke-miterlimit:10;}
	.st17{fill:#246EBA;stroke:#000000;stroke-width:0.25;stroke-miterlimit:10;}
	.st18{fill:#808080;stroke:#000000;stroke-width:0.25;stroke-miterlimit:10;}
	.st19{fill:#009688;stroke:#000000;stroke-width:0.25;stroke-miterlimit:10;}
	.st20{fill:#FFEB3B;stroke:#000000;stroke-width:0.25;stroke-miterlimit:10;}
</style>
<title>data</title>
<g>
	<g>
		<g id="Layer_1-2">
			<g>
				<path class="st0" d="M216.8,371.1l121.3,2.7l10,94.9H206.4L216.8,371.1z"/>
				<path class="st1" d="M216.8,371.1l-3.2,29.5h127.2l-2.8-26.8L216.8,371.1L216.8,371.1z"/>
				<path class="st2" d="M27.9,33.7h498.5c13.8,0,25,11.2,25,25v310.2c0,13.8-11.2,25-25,25H27.9c-13.8,0-25-11.2-25-25V58.7
					C3,44.9,14.1,33.7,27.9,33.7z"/>
				<path class="st3" d="M2.9,26.1v317.5h548.6V26.1H2.9z M15.8,42.5h520.4L466.4,304l-390-26.1L15.8,42.5z"/>
				<path class="st3" d="M31.3,2.9h491.8c15.7,0,28.4,12.7,28.4,28.4v94.4c0,15.7-12.7,28.4-28.4,28.4H31.3
					c-15.7,0-28.4-12.7-28.4-28.4V31.2C2.9,15.6,15.6,2.9,31.3,2.9z"/>
				<rect x="25.1" y="27" class="st4" width="504.2" height="290.5"/>
				<path class="st2" d="M169.6,454.4h215.1c2.3,0,4.2,1.9,4.2,4.2v6.1c0,2.3-1.9,4.2-4.2,4.2H169.6c-2.3,0-4.2-1.9-4.2-4.2v-6.1
					C165.5,456.2,167.3,454.4,169.6,454.4z"/>
				<circle class="st3" cx="277.2" cy="369.4" r="14.1"/>
				<rect x="25.1" y="27" class="st5" width="504.3" height="290.6"/>
				<rect x="25.1" y="27" class="st4" width="504.3" height="74.8"/>
				<rect x="25.1" y="307.9" class="st4" width="504.3" height="9.6"/>
				<rect x="25.1" y="27" class="st6" width="504.3" height="27.9"/>
				<rect x="25.1" y="27" class="st7" width="504.3" height="13.8"/>
				<rect x="27.5" y="29.4" class="st2" width="7" height="7.1"/>
				<rect x="28.5" y="37.6" class="st2" width="5.9" height="6"/>
				<rect x="35.7" y="33" class="st2" width="3.4" height="3.5"/>
				<rect x="35.7" y="37.6" class="st2" width="4.8" height="4.9"/>
				<path class="st2" d="M337.4,62.1h21.7c0.9,0,1.7,0.7,1.7,1.7v16.8c0,0.9-0.7,1.7-1.7,1.7h-21.7c-0.9,0-1.7-0.7-1.7-1.7V63.7
					C335.7,62.8,336.5,62.1,337.4,62.1z"/>
				<path class="st2" d="M369.5,62.1h21.7c0.9,0,1.7,0.7,1.7,1.7v16.8c0,0.9-0.7,1.7-1.7,1.7h-21.7c-0.9,0-1.7-0.7-1.7-1.7V63.7
					C367.8,62.8,368.6,62.1,369.5,62.1z"/>
				<path class="st2" d="M401.6,62.1h21.7c0.9,0,1.7,0.7,1.7,1.7v16.8c0,0.9-0.7,1.7-1.7,1.7h-21.7c-0.9,0-1.7-0.7-1.7-1.7V63.7
					C399.9,62.8,400.7,62.1,401.6,62.1z"/>
				<path class="st2" d="M433.7,62.1h21.7c0.9,0,1.7,0.7,1.7,1.7v16.8c0,0.9-0.7,1.7-1.7,1.7h-21.7c-0.9,0-1.7-0.7-1.7-1.7V63.7
					C432,62.8,432.8,62.1,433.7,62.1z"/>
				<path class="st2" d="M465.8,62.1h21.7c0.9,0,1.7,0.7,1.7,1.7v16.8c0,0.9-0.7,1.7-1.7,1.7h-21.7c-0.9,0-1.7-0.7-1.7-1.7V63.7
					C464.1,62.8,464.9,62.1,465.8,62.1z"/>
				<path class="st2" d="M94.7,63.2h90.8c0.9,0,1.7,0.7,1.7,1.7v4.9c0,0.9-0.7,1.7-1.7,1.7H94.7c-0.9,0-1.7-0.7-1.7-1.7v-4.9
					C93,64,93.8,63.2,94.7,63.2z"/>
				<path class="st2" d="M192,63.5h9.7c0.9,0,1.7,0.7,1.7,1.7v5.2c0,0.9-0.7,1.7-1.7,1.7H192c-0.9,0-1.7-0.7-1.7-1.7v-5.2
					C190.3,64.2,191.1,63.5,192,63.5z"/>
				<path class="st8" d="M33.3,61.8h14.1c0.9,0,1.7,0.7,1.7,1.7V78c0,0.9-0.7,1.7-1.7,1.7H33.3c-0.9,0-1.7-0.7-1.7-1.7V63.4
					C31.7,62.5,32.4,61.8,33.3,61.8z"/>
				<path class="st2" d="M41.4,67.8h8.7c0.9,0,1.7,0.7,1.7,1.7v11.4c0,0.9-0.7,1.7-1.7,1.7h-8.7c-0.9,0-1.7-0.7-1.7-1.7V69.4
					C39.7,68.5,40.4,67.8,41.4,67.8z"/>
				<path class="st9" d="M196.3,75.2h5.5c0.6,0,1.1,0.5,1.1,1.1v5.4c0,0.6-0.5,1.1-1.1,1.1h-5.5c-0.6,0-1.1-0.5-1.1-1.1v-5.4
					C195.2,75.7,195.7,75.2,196.3,75.2z"/>
				<path class="st10" d="M187.1,75.2h5.5c0.6,0,1.1,0.5,1.1,1.1v5.4c0,0.6-0.5,1.1-1.1,1.1h-5.5c-0.6,0-1.1-0.5-1.1-1.1v-5.4
					C185.9,75.7,186.4,75.2,187.1,75.2z"/>
				<path class="st11" d="M57.7,63.8h21.7c0.5,0,0.9,0.4,0.9,0.9v2.6c0,0.5-0.4,0.9-0.9,0.9H57.7c-0.5,0-0.9-0.4-0.9-0.9v-2.6
					C56.7,64.2,57.2,63.8,57.7,63.8z"/>
				<path class="st11" d="M77.2,70.3h2.1c0.5,0,0.9,0.4,0.9,0.9v2.6c0,0.5-0.4,0.9-0.9,0.9h-2.1c-0.5,0-0.9-0.4-0.9-0.9v-2.6
					C76.3,70.7,76.7,70.3,77.2,70.3z"/>
				<path class="st11" d="M57.7,76.9h21.7c0.5,0,0.9,0.4,0.9,0.9v2.6c0,0.5-0.4,0.9-0.9,0.9H57.7c-0.5,0-0.9-0.4-0.9-0.9v-2.6
					C56.7,77.3,57.2,76.9,57.7,76.9z"/>
				<path class="st11" d="M220.8,62.6h4.1c0.9,0,1.6,0.7,1.6,1.6v4.6c0,0.9-0.7,1.6-1.6,1.6h-4.1c-0.9,0-1.6-0.7-1.6-1.6v-4.6
					C219.2,63.3,220,62.6,220.8,62.6z"/>
				<path class="st11" d="M230.2,62.6h13.2c0.9,0,1.6,0.7,1.6,1.6v4.6c0,0.9-0.7,1.6-1.6,1.6h-13.2c-0.9,0-1.6-0.7-1.6-1.6v-4.6
					C228.6,63.3,229.3,62.6,230.2,62.6z"/>
				<path class="st11" d="M249.4,62.6h69.8c0.9,0,1.6,0.7,1.6,1.6v4.6c0,0.9-0.7,1.6-1.6,1.6h-69.8c-0.9,0-1.6-0.7-1.6-1.6v-4.6
					C247.8,63.3,248.5,62.6,249.4,62.6z"/>
				<path class="st11" d="M220.8,73.4h4.1c0.9,0,1.6,0.7,1.6,1.6v4.6c0,0.9-0.7,1.6-1.6,1.6h-4.1c-0.9,0-1.6-0.7-1.6-1.6V75
					C219.2,74.1,220,73.4,220.8,73.4z"/>
				<path class="st11" d="M230.2,73.4h13.2c0.9,0,1.6,0.7,1.6,1.6v4.6c0,0.9-0.7,1.6-1.6,1.6h-13.2c-0.9,0-1.6-0.7-1.6-1.6V75
					C228.6,74.1,229.3,73.4,230.2,73.4z"/>
				<path class="st11" d="M249.4,73.4h69.8c0.9,0,1.6,0.7,1.6,1.6v4.6c0,0.9-0.7,1.6-1.6,1.6h-69.8c-0.9,0-1.6-0.7-1.6-1.6V75
					C247.8,74.1,248.5,73.4,249.4,73.4z"/>
				<path class="st12" d="M99.1,76h22c0.7,0,1.2,0.6,1.2,1.2v3.5c0,0.7-0.6,1.2-1.2,1.2h-22c-0.7,0-1.2-0.6-1.2-1.2v-3.5
					C97.9,76.6,98.4,76,99.1,76z"/>
				<path class="st12" d="M127,76h22c0.7,0,1.2,0.6,1.2,1.2v3.5c0,0.7-0.6,1.2-1.2,1.2h-22c-0.7,0-1.2-0.6-1.2-1.2v-3.5
					C125.8,76.6,126.4,76,127,76z"/>
				<path class="st12" d="M155.8,76h22c0.7,0,1.2,0.6,1.2,1.2v3.5c0,0.7-0.6,1.2-1.2,1.2h-22c-0.7,0-1.2-0.6-1.2-1.2v-3.5
					C154.6,76.6,155.1,76,155.8,76z"/>
				<path class="st11" d="M503.9,61.8h18c0.5,0,1,0.4,1,1v2.7c0,0.5-0.4,1-1,1h-18c-0.5,0-1-0.4-1-1v-2.7
					C503,62.3,503.4,61.8,503.9,61.8z"/>
				<path class="st11" d="M503.8,69.3H522c0.5,0,0.8,0.4,0.8,0.8v2.4c0,0.5-0.4,0.8-0.8,0.8h-18.2c-0.5,0-0.8-0.4-0.8-0.8v-2.4
					C503,69.7,503.3,69.3,503.8,69.3z"/>
				<path class="st11" d="M503.8,76.1h18.3c0.4,0,0.8,0.4,0.8,0.8v2.2c0,0.4-0.4,0.8-0.8,0.8h-18.3c-0.4,0-0.8-0.4-0.8-0.8v-2.2
					C503,76.5,503.3,76.1,503.8,76.1z"/>
				<rect x="28.8" y="309.9" class="st13" width="33.9" height="6"/>
				<rect x="519.5" y="309.4" class="st13" width="6" height="6.4"/>
				<rect x="493.2" y="309.4" class="st13" width="6" height="6.4"/>
				<rect x="25.1" y="101.3" class="st1" width="504.3" height="216.2"/>
				<path class="st2" d="M30.7,88h73.2c0.8,0,1.5,0.7,1.5,1.5v7.2c0,0.8-0.7,1.5-1.5,1.5H30.7c-0.8,0-1.5-0.7-1.5-1.5v-7.2
					C29.2,88.7,29.9,88,30.7,88z"/>
				<path class="st2" d="M111.5,88h411.8c0.8,0,1.5,0.7,1.5,1.5v7.2c0,0.8-0.7,1.5-1.5,1.5H111.5c-0.8,0-1.5-0.7-1.5-1.5v-7.2
					C110,88.7,110.7,88,111.5,88z"/>
				<rect x="25.1" y="114.8" class="st2" width="504.3" height="202.7"/>
				<rect x="25.1" y="145.7" class="st14" width="504.3" height="2.6"/>
				<rect x="25.1" y="160.1" class="st14" width="504.3" height="2.6"/>
				<rect x="25.1" y="174.4" class="st14" width="504.3" height="2.6"/>
				<rect x="25.1" y="188.8" class="st14" width="504.3" height="2.6"/>
				<rect x="25.1" y="203.1" class="st14" width="504.3" height="2.6"/>
				<rect x="25.1" y="217.5" class="st14" width="504.3" height="2.6"/>
				<rect x="25.1" y="231.9" class="st14" width="504.3" height="2.6"/>
				<rect x="25.1" y="246.2" class="st14" width="504.3" height="2.6"/>
				<rect x="25.1" y="260.6" class="st14" width="504.3" height="2.6"/>
				<rect x="25.1" y="275" class="st14" width="504.3" height="2.6"/>
				<rect x="25.1" y="289.3" class="st14" width="504.3" height="2.6"/>
				<rect x="25.1" y="303.7" class="st14" width="504.3" height="2.6"/>
				<rect x="42.7" y="101.3" class="st14" width="2.6" height="216.2"/>
				<rect x="86.3" y="101.3" class="st14" width="2.6" height="216.2"/>
				<rect x="181.3" y="101.3" class="st14" width="2.6" height="216.2"/>
				<rect x="228.9" y="101.3" class="st14" width="2.6" height="216.2"/>
				<rect x="277.4" y="101.3" class="st14" width="2.6" height="216.2"/>
				<rect x="325.9" y="101.3" class="st14" width="2.6" height="216.2"/>
				<rect x="374.8" y="101.3" class="st14" width="2.6" height="216.2"/>
				<rect x="425.3" y="101.3" class="st14" width="2.6" height="216.2"/>
				<rect x="479.9" y="101.3" class="st14" width="2.6" height="216.2"/>
				<rect x="231.6" y="101.2" class="st15" width="46" height="13.9"/>
				<rect x="45.3" y="114.8" class="st7" width="484.1" height="22.5"/>
				<rect x="25.2" y="128.3" class="st14" width="18.6" height="2.5"/>
				<path class="st1" d="M42.7,114.8l-17.6,13.5h17.6V114.8z"/>
				<rect x="88.6" y="157.6" class="st2" width="140.3" height="88.9"/>
				<rect x="231.5" y="157.6" class="st2" width="45.9" height="88.9"/>
				<rect x="86.3" y="145.6" class="st16" width="193.4" height="17.1"/>
				<rect x="91.3" y="151.6" class="st17" width="67.9" height="6.9"/>
				<rect x="233.9" y="151.6" class="st17" width="29.3" height="6.9"/>
				<rect x="91.3" y="166.2" class="st18" width="117.6" height="6.9"/>
				<rect x="91.3" y="179" class="st18" width="90.5" height="6.9"/>
				<rect x="91.3" y="193.6" class="st18" width="36.7" height="6.9"/>
				<rect x="91.3" y="208.5" class="st18" width="67.9" height="6.9"/>
				<rect x="251.9" y="166.2" class="st18" width="21.8" height="6.9"/>
				<rect x="257.7" y="179" class="st18" width="16.1" height="6.9"/>
				<rect x="252.8" y="193.6" class="st18" width="21" height="6.9"/>
				<rect x="243.9" y="208.5" class="st18" width="29.9" height="6.9"/>
				<rect x="243.9" y="236.3" class="st18" width="29.9" height="6.9"/>
				<rect x="91.5" y="236.3" class="st18" width="29.9" height="6.9"/>
				<rect x="125.7" y="236.3" class="st18" width="2.9" height="6.9"/>
				<path class="st13" d="M31,132.8h4.2c0.8,0,1.5,0.7,1.5,1.5v8.1c0,0.8-0.7,1.5-1.5,1.5H31c-0.8,0-1.5-0.7-1.5-1.5v-8.1
					C29.5,133.5,30.2,132.8,31,132.8z"/>
				<path class="st13" d="M30.5,150.2h5.2c0.6,0,1,0.5,1,1.1v5.6c0,0.6-0.5,1.1-1,1.1h-5.2c-0.6,0-1-0.5-1-1.1v-5.6
					C29.5,150.7,30,150.2,30.5,150.2z"/>
				<path class="st13" d="M30.5,164.7h5.2c0.6,0,1,0.5,1,1.1v5.6c0,0.6-0.5,1.1-1,1.1h-5.2c-0.6,0-1-0.5-1-1.1v-5.6
					C29.5,165.2,30,164.7,30.5,164.7z"/>
				<path class="st13" d="M30.5,178.9h5.2c0.6,0,1,0.5,1,1.1v5.6c0,0.6-0.5,1.1-1,1.1h-5.2c-0.6,0-1-0.5-1-1.1V180
					C29.5,179.4,30,178.9,30.5,178.9z"/>
				<path class="st13" d="M30.5,193.6h5.2c0.6,0,1,0.5,1,1.1v5.6c0,0.6-0.5,1.1-1,1.1h-5.2c-0.6,0-1-0.5-1-1.1v-5.6
					C29.5,194.1,30,193.6,30.5,193.6z"/>
				<path class="st13" d="M30.5,207.8h5.2c0.6,0,1,0.5,1,1.1v5.6c0,0.6-0.5,1.1-1,1.1h-5.2c-0.6,0-1-0.5-1-1.1v-5.6
					C29.5,208.3,30,207.8,30.5,207.8z"/>
				<path class="st13" d="M30.5,222.3h5.2c0.6,0,1,0.5,1,1.1v5.6c0,0.6-0.5,1.1-1,1.1h-5.2c-0.6,0-1-0.5-1-1.1v-5.6
					C29.5,222.8,30,222.3,30.5,222.3z"/>
				<path class="st13" d="M30.5,236.7h5.2c0.6,0,1,0.5,1,1.1v5.6c0,0.6-0.5,1.1-1,1.1h-5.2c-0.6,0-1-0.5-1-1.1v-5.6
					C29.5,237.1,30,236.7,30.5,236.7z"/>
				<path class="st13" d="M30.5,250.8h5.2c0.6,0,1,0.5,1,1.1v5.6c0,0.6-0.5,1-1,1h-5.2c-0.6,0-1-0.5-1-1v-5.6
					C29.5,251.3,30,250.8,30.5,250.8z"/>
				<path class="st13" d="M30.5,265.4h5.2c0.6,0,1,0.5,1,1v5.6c0,0.6-0.5,1-1,1h-5.2c-0.6,0-1-0.5-1-1v-5.6
					C29.5,265.8,30,265.4,30.5,265.4z"/>
				<path class="st13" d="M30.5,279.5h5.2c0.6,0,1,0.5,1,1v5.6c0,0.6-0.5,1-1,1h-5.2c-0.6,0-1-0.5-1-1v-5.6
					C29.5,280,30,279.5,30.5,279.5z"/>
				<path class="st13" d="M30.5,294h5.2c0.6,0,1,0.5,1,1v5.6c0,0.6-0.5,1-1,1h-5.2c-0.6,0-1-0.5-1-1V295C29.5,294.5,30,294,30.5,294
					z"/>
				<path class="st13" d="M30.5,308.2h5.2c0.6,0,1,0.5,1,1v5.6c0,0.6-0.5,1-1,1h-5.2c-0.6,0-1-0.5-1-1v-5.6
					C29.5,308.7,30,308.2,30.5,308.2z"/>
				<path class="st2" d="M49.1,32.8h131.6c0.6,0,1.1,0.5,1.1,1v4.8c0,0.6-0.5,1-1.1,1H49.1c-0.6,0-1-0.5-1-1v-4.8
					C48.1,33.2,48.5,32.8,49.1,32.8z"/>
				<path class="st11" d="M57.7,70.3h2.7c0.5,0,0.9,0.4,0.9,0.9v2.6c0,0.5-0.4,0.9-0.9,0.9h-2.7c-0.5,0-0.9-0.4-0.9-0.9v-2.6
					C56.7,70.7,57.2,70.3,57.7,70.3z"/>
				<path class="st11" d="M63.7,70.3h9.9c0.5,0,0.9,0.4,0.9,0.9v2.6c0,0.5-0.4,0.9-0.9,0.9h-9.9c-0.5,0-0.9-0.4-0.9-0.9v-2.6
					C62.8,70.7,63.2,70.3,63.7,70.3z"/>
				<rect x="88.9" y="278" class="st2" width="139.8" height="25.6"/>
				<rect x="88.8" y="263.4" class="st16" width="140.1" height="11.6"/>
				<rect x="91.5" y="266.8" class="st17" width="50.5" height="5"/>
				<rect x="91.5" y="280.7" class="st18" width="50.5" height="5"/>
				<rect x="91.5" y="294.5" class="st18" width="44.7" height="5"/>
				<rect x="191.7" y="280.7" class="st18" width="34.1" height="5"/>
				<rect x="191.7" y="294.2" class="st18" width="34.1" height="5"/>
				<rect x="317.8" y="303.6" class="st16" width="187" height="2.6"/>
				<rect x="491.6" y="146.6" class="st16" width="12.4" height="157"/>
				<rect x="465.3" y="171.7" class="st3" width="12.4" height="131.9"/>
				<rect x="439" y="167.2" class="st17" width="12.4" height="136.5"/>
				<rect x="412.7" y="198.6" class="st19" width="12.4" height="105"/>
				<rect x="386.4" y="215.7" class="st20" width="12.4" height="87.9"/>
				<rect x="360.1" y="243.7" class="st16" width="12.4" height="59.9"/>
				<rect x="333.8" y="254" class="st16" width="12.4" height="49.6"/>
				<rect x="168.7" y="120" class="st2" width="238.4" height="6"/>
				<rect x="216.4" y="129.7" class="st2" width="136.2" height="4.5"/>
				<rect x="231.4" y="263.4" class="st16" width="45.9" height="11.6"/>
				<rect x="257.2" y="280.7" class="st18" width="17.2" height="5"/>
				<rect x="257.4" y="294.2" class="st18" width="17" height="5"/>
			</g>
		</g>
	</g>
</g>
</svg>
