<?xml version="1.0" encoding="utf-8"?>
<!-- Generator: Adobe Illustrator 23.0.1, SVG Export Plug-In . SVG Version: 6.00 Build 0)  -->
<svg version="1.1" id="Layer_1" xmlns="http://www.w3.org/2000/svg" xmlns:xlink="http://www.w3.org/1999/xlink" x="0px" y="0px"
	 viewBox="0 0 1424 460" style="enable-background:new 0 0 1424 460;" xml:space="preserve">
<style type="text/css">
	.st0{fill-rule:evenodd;clip-rule:evenodd;fill:#040404;}
	.st1{fill-rule:evenodd;clip-rule:evenodd;fill:#FFFFFF;}
	.st2{fill-rule:evenodd;clip-rule:evenodd;fill:#4D4D4D;}
	.st3{fill-rule:evenodd;clip-rule:evenodd;fill:#333333;}
	.st4{fill-rule:evenodd;clip-rule:evenodd;fill:#F7F7F7;}
	.st5{fill-rule:evenodd;clip-rule:evenodd;fill:#EA4647;}
	.st6{fill-rule:evenodd;clip-rule:evenodd;fill:#246EB9;}
	.st7{fill-rule:evenodd;clip-rule:evenodd;fill:#999999;}
	.st8{fill-rule:evenodd;clip-rule:evenodd;fill:#AFAFAF;}
	.st9{fill-rule:evenodd;clip-rule:evenodd;fill:#919296;}
	.st10{fill-rule:evenodd;clip-rule:evenodd;fill:url(#SVGID_1_);}
	.st11{fill-rule:evenodd;clip-rule:evenodd;fill:#464142;}
	.st12{fill-rule:evenodd;clip-rule:evenodd;fill:url(#SVGID_2_);}
	.st13{fill-rule:evenodd;clip-rule:evenodd;fill:#1D1E21;}
	.st14{fill-rule:evenodd;clip-rule:evenodd;fill:#0D0F12;}
	.st15{fill-rule:evenodd;clip-rule:evenodd;fill:#1C1E20;}
	.st16{fill-rule:evenodd;clip-rule:evenodd;fill:#DCDDE0;}
	.st17{fill-rule:evenodd;clip-rule:evenodd;fill:#CECECE;}
	.st18{fill-rule:evenodd;clip-rule:evenodd;fill:#423F43;}
	.st19{fill-rule:evenodd;clip-rule:evenodd;fill:#666666;}
</style>
<title>devices copy</title>
<desc>Created with Sketch.</desc>
<g id="Page-1">
	<g id="devices-copy">
		<path id="Path" class="st0" d="M551.4,15.5h530.7c18.3,0,33.2,14.9,33.2,33.2v359.5H518.2V48.7C518.2,30.4,533,15.5,551.4,15.5z"
			/>
		<path id="Rectangle" class="st1" d="M534.9,41h566.5c1.2,0,2.2,1,2.2,2.2v338.1c0,1.2-1,2.2-2.2,2.2H534.9c-1.2,0-2.2-1-2.2-2.2
			V43.2C532.7,42,533.7,41,534.9,41z"/>
		<ellipse id="Oval" class="st2" cx="814.2" cy="27.6" rx="3.6" ry="3.6"/>
		<rect x="531.9" y="57.8" class="st3" width="570.9" height="23.2"/>
		<rect x="581.6" y="91.4" class="st3" width="464.6" height="120.1"/>
		<rect x="666.5" y="143" class="st4" width="294.8" height="24.5"/>
		<rect x="898.4" y="143" class="st5" width="62.8" height="24.8"/>
		<rect x="741.8" y="224.9" class="st6" width="143.3" height="63.2"/>
		<rect x="902.8" y="223.5" class="st6" width="143.3" height="63.2"/>
		<rect x="581.6" y="224.9" class="st6" width="143.3" height="63.2"/>
		<rect x="742.2" y="298.3" class="st7" width="143.3" height="4.2"/>
		<rect x="742.2" y="310.4" class="st7" width="143.3" height="4.2"/>
		<rect x="742.2" y="322.5" class="st7" width="143.3" height="4.2"/>
		<rect x="742.2" y="334.6" class="st7" width="143.3" height="4.2"/>
		<rect x="581.6" y="348.6" class="st5" width="464.6" height="34.7"/>
		<rect x="581.6" y="297.8" class="st7" width="143.3" height="4.2"/>
		<rect x="581.6" y="309.9" class="st7" width="143.3" height="4.2"/>
		<rect x="581.6" y="322" class="st7" width="143.3" height="4.2"/>
		<rect x="581.6" y="334.1" class="st7" width="143.3" height="4.2"/>
		<rect x="902.8" y="298.3" class="st7" width="143.3" height="4.2"/>
		<rect x="902.8" y="310.4" class="st7" width="143.3" height="4.2"/>
		<rect x="902.8" y="322.5" class="st7" width="143.3" height="4.2"/>
		<rect x="902.8" y="334.6" class="st7" width="143.3" height="4.2"/>
		<rect x="904.9" y="67.1" class="st7" width="69.3" height="5.8"/>
		<rect x="817.8" y="67.1" class="st8" width="69.3" height="5.8"/>
		<rect x="647.5" y="67.1" class="st7" width="69.3" height="5.8"/>
		<rect x="730.8" y="67.1" class="st7" width="69.3" height="5.8"/>
		<path class="st9" d="M1180.1,427.5c0,6-23.7,14.7-28.1,14.7H480.5c-4.4,0-28.1-8.7-28.1-14.7H1180.1z"/>
		
			<linearGradient id="SVGID_1_" gradientUnits="userSpaceOnUse" x1="-493.3427" y1="22.0704" x2="-492.3986" y2="22.0704" gradientTransform="matrix(784.87 0 0 28.12 387654.0625 -199.3703)">
			<stop  offset="0" style="stop-color:#606162"/>
			<stop  offset="0.12" style="stop-color:#B7BABB"/>
			<stop  offset="0.36" style="stop-color:#A2A5A6"/>
			<stop  offset="0.51" style="stop-color:#C9CCCD"/>
			<stop  offset="0.73" style="stop-color:#848687"/>
			<stop  offset="0.88" style="stop-color:#9C9FA0"/>
			<stop  offset="1" style="stop-color:#4C4D4E"/>
		</linearGradient>
		<path class="st10" d="M444.3,408h740.9v4.9c0,11.9-9.7,21.6-21.6,21.6H465.3c-5.6,0-10.9-2.2-14.9-6.2s-6.2-9.3-6.2-14.9V408
			H444.3z"/>
		<path class="st11" d="M1162.4,438.6c0,2.6-22.6,6.4-26.8,6.4H496.2c-4.2,0-26.8-3.8-26.8-6.4H1162.4z"/>
		
			<linearGradient id="SVGID_2_" gradientUnits="userSpaceOnUse" x1="-488.9735" y1="53.4625" x2="-488.9735" y2="54.4064" gradientTransform="matrix(109.19 0 0 11.36 54202.0703 -197.5011)">
			<stop  offset="0" style="stop-color:#9C9FA0"/>
			<stop  offset="0.24" style="stop-color:#A2A5A6"/>
			<stop  offset="1" style="stop-color:#4C4D4E"/>
		</linearGradient>
		<path class="st12" d="M862.6,409.8c-0.1,5.8-4.8,10.6-10.6,10.7h-82.8c-6,0-9.7-5.4-9.7-10.7H862.6z"/>
		<path class="st13" d="M708.7,443.1c2-1.6,7.7-1.5,9.1,0.1C714.9,444,711.7,443.9,708.7,443.1z"/>
		<path class="st13" d="M909.6,443.5c2-1.6,7.7-1.5,9.1,0.1C915.7,444.4,912.5,444.4,909.6,443.5z"/>
		<path class="st13" d="M495.9,442.7c2-1.6,7.7-1.5,9.1,0.1C502.1,443.7,498.9,443.6,495.9,442.7z"/>
		<path class="st13" d="M1119.2,443.3c2-1.6,7.7-1.5,9.1,0.1C1125.3,444.2,1122.2,444.2,1119.2,443.3z"/>
		<path class="st14" d="M1112.3,423c-0.5,0.2-1,0.4-1.5,0.4h-21.7c-0.5,0.1-1.1-0.1-1.5-0.5C1095.9,422.8,1104.1,422.8,1112.3,423z"
			/>
		<path class="st15" d="M1087.2,424.6c-0.9-1.2-1.8-2.3,0.4-3.1c5.5,0.5,11,0.1,16.5,0.2c2.7,0.2,5.5,0.1,8.2-0.2
			c2.2,1.1,1.2,2.1,0,3.1c-1.5,0.6-3,0.3-4.5,0.3c-6,0-12,0-18,0C1088.9,425,1088,425.4,1087.2,424.6z"/>
		<path class="st16" d="M1087.2,424.6l25.1,0.1c0,0.1,0,0.3,0,0.4c-8.3,0-16.6,0.1-24.9,0.1c-0.1,0-0.2-0.1-0.2-0.1
			C1087.2,425,1087.2,424.8,1087.2,424.6z"/>
		<path class="st14" d="M1112.3,421.6c-0.5,0.2-1,0.4-1.5,0.4h-21.7c-0.5,0.1-1.1-0.1-1.5-0.5
			C1095.9,421.4,1104.1,421.3,1112.3,421.6z"/>
		<path class="st14" d="M1112.3,421.6c-0.5,0.2-1,0.4-1.5,0.4h-21.7c-0.5,0.1-1.1-0.1-1.5-0.5
			C1095.9,421.4,1104.1,421.3,1112.3,421.6z"/>
		<path class="st15" d="M1087.2,424.6c-0.9-1.2-1.8-2.3,0.4-3.1c5.5,0.5,11,0.1,16.5,0.2c2.7,0.2,5.5,0.1,8.2-0.2
			c2.2,1.1,1.2,2.1,0,3.1c-1.5,0.6-3,0.3-4.5,0.3c-6,0-12,0-18,0C1088.9,425,1088,425.4,1087.2,424.6z"/>
		<path class="st17" d="M1087.2,424.6l25.1,0.1c0,0.1,0,0.3,0,0.4c-8.3,0-16.6,0.1-24.9,0.1c-0.1,0-0.2-0.1-0.2-0.1
			C1087.2,425,1087.2,424.8,1087.2,424.6z"/>
		<path class="st14" d="M1112.3,421.6c-0.5,0.2-1,0.4-1.5,0.4h-21.7c-0.5,0.1-1.1-0.1-1.5-0.5
			C1095.9,421.4,1104.1,421.3,1112.3,421.6z"/>
		<path class="st0" d="M1311.8,211.4h86.3c10,0,18.1,7.7,18.1,17.3v185.8c0,9.5-8.1,17.3-18.1,17.3h-86.3c-10,0-18.1-7.7-18.1-17.3
			V228.7C1293.7,219.1,1301.8,211.4,1311.8,211.4z"/>
		<ellipse class="st2" cx="1343.6" cy="221.4" rx="1" ry="1.3"/>
		<path class="st18" d="M1353.1,220.8h13.7c0.5,0,0.9,0.4,0.9,0.9l0,0c0,0.5-0.4,0.9-0.9,0.9h-13.7c-0.5,0-0.9-0.4-0.9-0.9l0,0
			C1352.2,221.2,1352.6,220.8,1353.1,220.8z"/>
		<path class="st1" d="M1300.3,230.3h109.6c1.2,0,2.2,1,2.2,2.2v182.3c0,1.2-1,2.2-2.2,2.2h-109.6c-1.2,0-2.2-1-2.2-2.2V232.5
			C1298.1,231.3,1299.1,230.3,1300.3,230.3z"/>
		<rect x="1298.1" y="243.9" class="st3" width="114" height="11.7"/>
		<rect x="1298.2" y="262.2" class="st3" width="114" height="55.9"/>
		<rect x="1310.1" y="283.1" class="st4" width="82.5" height="12.1"/>
		<rect x="1340.6" y="323.1" class="st6" width="28.6" height="22.3"/>
		<rect x="1376.9" y="323.2" class="st6" width="28.6" height="22.3"/>
		<rect x="1304.6" y="323.2" class="st6" width="28.6" height="22.3"/>
		<rect x="1340.6" y="349.8" class="st7" width="28.6" height="2"/>
		<rect x="1340.6" y="354.3" class="st7" width="28.6" height="2"/>
		<rect x="1340.6" y="358.8" class="st7" width="28.6" height="2"/>
		<rect x="1340.6" y="363.4" class="st7" width="28.6" height="2"/>
		<rect x="1340.6" y="367.9" class="st7" width="28.6" height="2"/>
		<rect x="1376.9" y="349.7" class="st7" width="28.6" height="2"/>
		<rect x="1376.9" y="354.2" class="st7" width="28.6" height="2"/>
		<rect x="1376.9" y="358.8" class="st7" width="28.6" height="2"/>
		<rect x="1376.9" y="363.3" class="st7" width="28.6" height="2"/>
		<rect x="1376.9" y="367.9" class="st7" width="28.6" height="2"/>
		<rect x="1304.6" y="349.7" class="st7" width="28.6" height="2"/>
		<rect x="1304.6" y="354.2" class="st7" width="28.6" height="2"/>
		<rect x="1304.6" y="358.8" class="st7" width="28.6" height="2"/>
		<rect x="1304.6" y="363.3" class="st7" width="28.6" height="2"/>
		<rect x="1304.6" y="367.9" class="st7" width="28.6" height="2"/>
		<rect x="1304.7" y="374.4" class="st5" width="100.9" height="28.3"/>
		<rect x="1304.7" y="406.6" class="st7" width="100.9" height="2"/>
		<rect x="1304.7" y="411.1" class="st7" width="100.9" height="2.1"/>
		<rect x="1301.8" y="234.4" class="st19" width="5.4" height="1"/>
		<rect x="1301.8" y="236.6" class="st19" width="5.4" height="1"/>
		<rect x="1301.8" y="238.7" class="st19" width="5.4" height="1"/>
		<rect x="1376.9" y="283.1" class="st5" width="15.9" height="12.3"/>
		<path class="st0" d="M48.7,21.7h257.2c17.6,0,31.9,14.3,31.9,31.9v353.1c0,17.6-14.3,31.9-31.9,31.9H48.7
			c-17.6,0-31.9-14.3-31.9-31.9v-353C16.7,36,31,21.7,48.7,21.7z"/>
		<path class="st1" d="M37.1,42.9h280.4c1.2,0,2.2,1,2.2,2.2v373.7c0,1.2-1,2.2-2.2,2.2H37.1c-1.2,0-2.2-1-2.2-2.2V45.1
			C34.9,43.9,35.9,42.9,37.1,42.9z"/>
		<circle class="st2" cx="177.3" cy="32.1" r="2.4"/>
		<rect x="34.9" y="72.1" class="st3" width="284.8" height="23.8"/>
		<rect x="50.8" y="109.4" class="st3" width="252.6" height="113.6"/>
		<rect x="82.8" y="158.1" class="st4" width="184.2" height="19.4"/>
		<rect x="227.8" y="158.1" class="st5" width="39.2" height="19.6"/>
		<rect x="141.1" y="233.1" class="st6" width="71.5" height="45.4"/>
		<rect x="231.7" y="233.3" class="st6" width="71.5" height="45.4"/>
		<rect x="51" y="233.3" class="st6" width="71.5" height="45.4"/>
		<rect x="141.1" y="287.4" class="st7" width="71.5" height="4.2"/>
		<rect x="141.1" y="296.6" class="st7" width="71.5" height="4.2"/>
		<rect x="141.1" y="305.9" class="st7" width="71.5" height="4.2"/>
		<rect x="141.1" y="315.1" class="st7" width="71.5" height="4.2"/>
		<rect x="141.1" y="324.3" class="st7" width="71.5" height="4.2"/>
		<rect x="231.7" y="287.3" class="st7" width="71.5" height="4.2"/>
		<rect x="231.7" y="296.5" class="st7" width="71.5" height="4.2"/>
		<rect x="231.7" y="305.7" class="st7" width="71.5" height="4.2"/>
		<rect x="231.7" y="315" class="st7" width="71.5" height="4.2"/>
		<rect x="231.7" y="324.2" class="st7" width="71.5" height="4.2"/>
		<rect x="51" y="287.3" class="st7" width="71.5" height="4.2"/>
		<rect x="51" y="296.5" class="st7" width="71.5" height="4.2"/>
		<rect x="51" y="305.7" class="st7" width="71.5" height="4.2"/>
		<rect x="51" y="315" class="st7" width="71.5" height="4.2"/>
		<rect x="51" y="324.2" class="st7" width="71.5" height="4.2"/>
		<rect x="51.3" y="337.6" class="st5" width="252.1" height="57.5"/>
		<rect x="51.3" y="403" class="st7" width="252.1" height="4.1"/>
		<rect x="51.3" y="412.2" class="st7" width="252.1" height="4.2"/>
		<rect x="44.1" y="52.8" class="st19" width="13.5" height="1.5"/>
		<rect x="44.1" y="57.2" class="st19" width="13.5" height="1.5"/>
		<rect x="44.1" y="61.6" class="st19" width="13.5" height="1.5"/>
	</g>
</g>
</svg>
