<?xml version="1.0" encoding="utf-8"?>
<!-- Generator: Adobe Illustrator 24.0.0, SVG Export Plug-In . SVG Version: 6.00 Build 0)  -->
<svg version="1.1" id="Layer_1" xmlns="http://www.w3.org/2000/svg" xmlns:xlink="http://www.w3.org/1999/xlink" x="0px" y="0px"
	 viewBox="0 0 225.6 145.6" style="enable-background:new 0 0 225.6 145.6;" xml:space="preserve">
<style type="text/css">
	.st0{fill:#EA4647;}
	.st1{fill:#F3F3F3;}
</style>
<title>emailsL</title>
<g id="e9f6807b-b457-4681-94ea-1415cb4b3684">
	<g id="b437f4cb-6910-42d9-8196-e481725258f6">
		<g>
			<path class="st0" d="M10.4,0h204.7c5.8,0,10.4,4.7,10.4,10.4v124.8c0,5.8-4.7,10.4-10.4,10.4H10.4C4.7,145.6,0,141,0,135.2V10.4
				C0,4.7,4.7,0,10.4,0z"/>
			<g>
				<path class="st1" d="M16.8,10.5L116,67.5c3.1,2,4.4,5.9,2.9,9.3l0,0c-1.4,3.4-5,4.8-8.1,3L11.7,22.9c-3.1-2-4.4-5.9-2.9-9.3l0,0
					C10.2,10.1,13.8,8.8,16.8,10.5z"/>
				<path class="st1" d="M210.7,10.5l-99.2,56.9c-3.1,2-4.4,5.9-2.9,9.3l0,0c1.4,3.4,5,4.8,8.1,3l99.2-56.9c3.1-2,4.4-5.9,2.9-9.3
					l0,0C217.3,10.1,213.7,8.7,210.7,10.5z"/>
			</g>
		</g>
	</g>
</g>
</svg>
