<?xml version="1.0" encoding="utf-8"?>
<!-- Generator: Adobe Illustrator 23.0.1, SVG Export Plug-In . SVG Version: 6.00 Build 0)  -->
<svg version="1.1" id="Layer_1" xmlns="http://www.w3.org/2000/svg" xmlns:xlink="http://www.w3.org/1999/xlink" x="0px" y="0px"
	 viewBox="0 0 629 408.3" style="enable-background:new 0 0 629 408.3;" xml:space="preserve">
<style type="text/css">
	.st0{fill-rule:evenodd;clip-rule:evenodd;fill:#EA4647;}
	.st1{fill:#333333;}
</style>
<g transform="matrix(-.27132 .12748 .12748 .27132 167.68 -2.9636)">
	<path class="st0" d="M32,506.4c-7.9-9.6-38.8-29.8-48.6-37.1c-13.9-10.4-21.2-19.5-37.1-31.4c-10.1-7.6-19.5-29.3-22.9-42.9
		c-3.8-15-5.7-26.1-5.7-42.9v-48.6c0-18,4.1-28.2,11.4-42.9c6.9-13.7,17.1-24.2,31.4-31.4c15.9-7.9,32.3-11.4,48.6-11.4
		c18.8,0,25.7,8.6,42.9,8.6c9.5,0,20.9,10.5,28.6,14.3c13.2,6.6,15.2,13.4,28.6,0c12.2-12.2,27.7-13.4,42.9-17.1
		c14.6-3.6,22.7,8.4,28.6,14.3c8.8,8.8,8.7,23.3,11.4,37.1c2.7,13.5,2.9,29.6,2.9,42.9c0,18.2-1.6,20.7-5.7,37.1
		c-4,16.2-15.5,30.9-20,40c-5.2,10.4-11,29.7-14.3,42.9c-3.2,12.8-18.5,30.4-25.7,40c-12.5,16.7-34.8,35.8-45.7,48.6
		c-9.4,10.9-31.9-0.5-37.1-5.7c-1.3-1.3-3.8,0-5.7,0C35.1,520.7,34.9,511.2,32,506.4L32,506.4z"/>
	<path class="st0" d="M352,906.4c-6.9,0-46.2-52.4-54.3-68.6c-15.7-31.5-35.8-61.5-60-85.7c-21.2-21.2-31.5-44.3-48.6-65.7
		c-11.9-14.8-15.5-42.1-20-60c-4.7-18.7-5.7-34.4-5.7-54.3c0-18.7,4.3-31.4,8.6-48.6c4.4-17.5,15.3-30.6,22.9-45.7
		c7.8-15.5,16.1-26.8,25.7-42.9c12-20,29.3-32.1,45.7-48.6c22.1-22.1,51.6-32.9,80-40c26-6.5,50-10.3,77.1-17.1
		c29.4-7.3,42.7,2.6,54.3,25.7c8,16,12.5,24.4,17.1,42.9c3.9,15.6,2.9,32,2.9,48.6c0,17.8,2.4,27.7,8.6,40
		c8.7,17.3,32.6-4.4,40-14.3c22.4-29.8,46.1-48.8,80-65.7c18.7-9.4,44.4-5.7,65.7-5.7c8.9,0,32.1,17.6,42.9,25.7
		c15.2,11.4,27.2,17.6,31.4,34.3c4.3,17.3,5.7,34.2,5.7,54.3v77.1c0,18.5-3.9,44.9-11.4,60c-9.3,18.5-10,38.6-25.7,54.3
		c-16.4,16.4-30.2,45.2-42.9,62.9c-12.5,17.5-26.3,33.2-40,51.4c-28,37.3-63.6,75.1-97.1,108.6c-20.2,20.2-57.4,40.5-82.9,51.4
		c-7.5,3.2-15.2,5.7-22.9,8.6c-25.4,9.5-32.2,10.7-51.4-8.6c-12.6-12.6-22.3-33.6-31.4-45.7C358.9,925.1,362.8,919.9,352,906.4
		L352,906.4z"/>
	<path class="st0" d="M-62.3,1166.4c-15.3-20.4-50.5-52.4-65.7-82.9c-17.8-35.6-38.9-56.6-51.4-94.3c-8.6-25.8-20.8-49.6-25.7-74.3
		c-4.6-23.1-8.5-45.3-14.3-68.6c-5.3-21.2-6.7-55.1,2.9-74.3c11.5-22.9,36.3-42,51.4-57.1c15.7-15.7,63.9-20.3,85.7-25.7
		c21.2-5.3,42.7,4.5,54.3,20c12.2,16.3,19.1,41,22.9,60c3.6,17.8,3.9,27.9,11.4,42.9c16.9,33.8,5.7,22.8,40-11.4
		c5.3-5.3,11.4-9.5,17.1-14.3c14.1-11.8,29.1-14.6,45.7-22.9c17.6-8.8,48.7-2.9,68.6-2.9c24,0,29.3,10.1,37.1,25.7
		c12.4,24.9,18.8,49.4,25.7,77.1c6.3,25.1-3,54.8-8.6,77.1c-6.6,26.5-29.8,49.8-48.6,68.6c-20.9,20.9-37.4,41.9-62.9,57.1
		c-17.4,10.4-29.2,28.9-45.7,37.1c-16.9,8.5-27.2,23.9-45.7,28.6c-19.4,4.8-25.4,17.8-45.7,22.9
		C-32.9,1159.8-39.1,1171.1-62.3,1166.4L-62.3,1166.4z"/>
	<path class="st1" d="M393.9,376.2c-51.6,1.1-99.9,30.8-129.7,72.1c-27,38.2-46.2,83.7-45.6,131c0.4,47.8,15.8,94.3,37.9,136.3
		c31.3,56.7,77.2,103.3,123.6,147.9c9.4,8.8,18.8,17.6,28.4,26.2c1.4-1.3,5.1-3.7,1.8-5.3c-34.7-33.6-67.2-69.9-94.9-109.6
		c-34.9-51.7-62.1-110.3-68.4-172.9c-3.4-35.9,2.5-72.7,17.2-105.6c12.8-32,32.2-63.2,62-81.9c35.3-22.9,82.6-28.6,121-9.9
		c29.1,13.7,51.1,38.8,66.5,66.5c6.6,10.4,18.3,18.4,31,16.9c20.9-1.2,38.7-13.4,57.2-22c29-14.5,60.5-27.4,93.5-25.6
		c33.5,1.5,67.7,14,90.6,39.2c20.2,23.3,28.5,54.6,30,84.8c2.4,51.9-15,102.5-39.2,147.8c-21.1,39.8-49.1,75.8-82.4,106.2
		c-41.2,38.5-86.6,72.4-134.4,102.3c-36.1,22.9-73.6,43.6-112.3,61.8c-0.8,4.1,5.5,5.8,7.7,2.6c31.7-17.4,65-31.7,97.1-48.3
		c57.4-29.3,112.5-64.1,160-107.9c37.3-34.4,68.9-75.5,89.4-122c23.2-50.3,36.5-106.6,29.4-162c-4.8-34.2-19.3-68.9-47.1-90.7
		c-33.3-25.8-77.6-34.9-118.9-29.1c-26.8,4-51.6,15.5-75.3,28.1c-15.6,7.7-31.6,16.1-49.2,17.7c-11.5-2.4-16.4-14.3-21.8-23.4
		c-21.7-33.6-55.5-61.1-95.5-68.4C413.8,377,403.9,376,393.9,376.2L393.9,376.2z"/>
	<path class="st1" d="M157.2,222.3c-29.3,1-55.3,18.2-74.8,38.8c-6.4,4.3-14-0.9-17.8-6.3c-24.4-21.1-63.3-25.5-90.2-6.5
		c-25.6,17-38.3,49.3-34.8,79.4c2.1,37.1,21.6,71.4,47.6,97C-5.7,432,1.4,439.2,9,445.8c-18.1-22.7-33.2-47.9-43.5-75.1
		c-9.3-26.2-13-55.8-3.3-82.4c10.9-26.3,43.3-42.4,70.4-32.1c14.3,4.8,24.7,16.7,37.8,23.6c12.4,3.1,24.2-4.9,31.9-14
		c15.3-13.9,34-26.8,55.6-26.5c29.5-0.1,56,23.9,61.1,52.6c4.7,20.9-1.2,42.6-11.3,61c-20.7,44.3-53.3,81.6-88.1,115.4
		c-16.5,15.3-34.3,29.3-53.4,41.1c38.1-15.9,74.7-37.4,102.2-68.6c29.4-31.9,53.8-69.2,66.4-111c7.6-26.7,1.4-56.8-16.5-78.1
		C203.3,233.9,180.8,221.7,157.2,222.3L157.2,222.3z"/>
	<path class="st1" d="M-88.1,701.9c-44.4,2-85.9,34.8-97,78c-13.9,44.7-7.8,93.5,8.8,136.7c16.1,42.2,37.8,81.9,61.1,120.5
		c20.7,33.3,43.8,65.2,68.9,95.4c5.5,1.1,7-7.8,2.4-9.9c-40.1-56.4-73.5-117.7-99.9-181.6c-15.8-38.6-29.5-79.5-28-121.8
		c1-24.2,6.3-49.6,22.2-68.6c18.5-23.1,49.9-36.2,79.2-29.7c16.6,3.4,31.1,14.2,40.1,28.5c10.6,16,14.8,35,20.1,53.1
		c3.9,8.9,15.6,12.7,24,7.8c13.1-6.6,22.8-18.1,34.8-26.3c16.5-11.6,34.4-21.8,54-27c17.2-4.5,36.4-3.1,51.7,6.6
		c26.8,15.7,41.9,46.7,43.1,77.1c1.7,34.6-9.4,68.2-22.1,99.9c-14.7,35.7-34.7,69.5-61.1,97.8c-32,35.6-70.6,64.8-112.3,88.1
		c-6.7,4.1-14.2,7.7-20.4,12.3c0.3,4.5,7,5.4,8.9,1.6c49.7-29.5,101.5-57.9,141.7-100.3c37.2-38.9,63.2-87.8,77.8-139.4
		c8.6-32.6,10.9-68.5-3-100c-12-28-35.2-52.7-65.1-61c-27.5-7-56.5,1.7-80.3,15.9c-19.1,10.8-36.2,24.8-53.6,38.2
		c-6.4-1.6-3.9-9.7-6.3-14.3c-6.8-25.7-19.8-51.8-43.2-66.1C-55.5,705.1-71.8,701-88.1,701.9L-88.1,701.9z M6.6,795.7
		C6.8,795.9,6.1,795.4,6.6,795.7z"/>
</g>
<g transform="matrix(.27132 -.12748 .12748 .27132 301.52 72.313)">
	<path class="st0" d="M70.8,506.4c-7.9-9.6-38.8-29.8-48.6-37.1C8.4,458.9,1,449.8-14.9,437.9c-10.1-7.6-19.5-29.3-22.9-42.9
		c-3.8-15-5.7-26.1-5.7-42.9l0-48.6c0-18,4.1-28.2,11.4-42.9c6.9-13.7,17-24.2,31.4-31.4c15.9-7.9,32.3-11.4,48.6-11.4
		c18.8,0,25.7,8.6,42.9,8.6c9.5,0,20.9,10.5,28.6,14.3c13.2,6.6,15.2,13.4,28.6,0c12.2-12.2,27.7-13.4,42.9-17.1
		c14.6-3.6,22.7,8.4,28.6,14.3c8.8,8.8,8.7,23.3,11.4,37.1c2.7,13.5,2.9,29.6,2.9,42.9c0,18.2-1.6,20.7-5.7,37.1
		c-4,16.2-15.5,30.9-20,40c-5.2,10.4-11,29.7-14.3,42.9c-3.2,12.8-18.5,30.4-25.7,40c-12.5,16.7-34.8,35.8-45.7,48.6
		c-9.4,10.9-31.9-0.5-37.1-5.7c-1.3-1.3-3.8,0-5.7,0C73.8,520.7,73.7,511.2,70.8,506.4L70.8,506.4z"/>
	<path class="st0" d="M390.8,906.4c-6.9,0-46.2-52.4-54.3-68.6c-15.7-31.5-35.8-61.5-60-85.7c-21.2-21.2-31.5-44.3-48.6-65.7
		c-11.9-14.8-15.5-42.1-20-60c-4.7-18.7-5.7-34.4-5.7-54.3c0-18.7,4.3-31.4,8.6-48.6c4.4-17.5,15.3-30.6,22.9-45.7
		c7.8-15.5,16.1-26.8,25.7-42.9c12-20,29.3-32.1,45.7-48.6c22.1-22.1,51.6-32.9,80-40c26-6.5,50-10.3,77.1-17.1
		c29.4-7.3,42.7,2.6,54.3,25.7c8,16,12.5,24.4,17.1,42.9c3.9,15.6,2.9,32,2.9,48.6c0,17.8,2.4,27.7,8.6,40
		c8.7,17.3,32.6-4.4,40-14.3c22.4-29.8,46.1-48.8,80-65.7c18.7-9.4,44.4-5.7,65.7-5.7c8.9,0,32.1,17.6,42.9,25.7
		c15.2,11.4,27.2,17.6,31.4,34.3c4.3,17.3,5.7,34.2,5.7,54.3v77.1c0,18.5-3.9,44.9-11.4,60c-9.3,18.5-10,38.6-25.7,54.3
		c-16.4,16.4-30.2,45.2-42.9,62.9c-12.5,17.5-26.3,33.2-40,51.4c-28,37.3-63.6,75.1-97.1,108.6c-20.2,20.2-57.4,40.5-82.9,51.4
		c-7.5,3.2-15.2,5.7-22.9,8.6c-25.4,9.5-32.2,10.7-51.4-8.6c-12.6-12.6-22.3-33.6-31.4-45.7C397.7,925.1,401.6,919.9,390.8,906.4
		L390.8,906.4z"/>
	<path class="st0" d="M-23.5,1166.4c-15.3-20.4-50.5-52.4-65.7-82.9c-17.8-35.6-38.9-56.6-51.4-94.3c-8.6-25.8-20.8-49.6-25.7-74.3
		c-4.6-23.1-8.5-45.3-14.3-68.6c-5.3-21.2-6.7-55.1,2.9-74.3c11.5-22.9,36.3-42,51.4-57.1c15.7-15.7,63.9-20.3,85.7-25.7
		c21.2-5.3,42.7,4.5,54.3,20c12.2,16.3,19.1,41,22.9,60c3.6,17.8,3.9,27.9,11.4,42.9c16.9,33.8,5.7,22.8,40-11.4
		c5.3-5.3,11.4-9.5,17.1-14.3c14.1-11.8,29.1-14.6,45.7-22.9c17.6-8.8,48.7-2.9,68.6-2.9c24,0,29.3,10.1,37.1,25.7
		c12.4,24.9,18.8,49.4,25.7,77.1c6.3,25.1-3,54.8-8.6,77.1c-6.6,26.5-29.8,49.8-48.6,68.6c-20.9,20.9-37.4,41.9-62.9,57.1
		c-17.4,10.4-29.2,28.9-45.7,37.1c-16.9,8.5-27.2,23.9-45.7,28.6c-19.4,4.8-25.4,17.8-45.7,22.9C5.9,1159.8-0.3,1171.1-23.5,1166.4
		L-23.5,1166.4z"/>
	<path class="st1" d="M432.7,376.2c-51.6,1.1-99.9,30.8-129.7,72.1c-27,38.2-46.2,83.7-45.6,131c0.4,47.8,15.8,94.3,37.9,136.3
		c31.3,56.7,77.2,103.3,123.6,147.9c9.4,8.8,18.8,17.6,28.4,26.2c1.4-1.3,5.1-3.7,1.8-5.3c-34.7-33.6-67.2-69.9-94.9-109.6
		c-34.9-51.7-62.1-110.3-68.4-172.9c-3.4-35.9,2.5-72.7,17.2-105.6c12.8-32,32.2-63.2,62-81.9c35.3-22.9,82.6-28.6,121-9.9
		c29.1,13.7,51.1,38.8,66.5,66.5c6.6,10.4,18.3,18.4,31,16.9c20.9-1.2,38.7-13.4,57.2-22c29-14.5,60.5-27.4,93.5-25.6
		c33.5,1.5,67.7,14,90.6,39.2c20.2,23.3,28.5,54.6,30,84.8c2.4,51.9-15,102.5-39.2,147.8c-21.1,39.8-49.1,75.8-82.4,106.2
		c-41.2,38.5-86.6,72.4-134.4,102.3c-36.1,22.9-73.6,43.6-112.3,61.8c-0.8,4.1,5.5,5.8,7.7,2.6c31.7-17.4,65-31.7,97.1-48.3
		c57.4-29.3,112.5-64.1,160-107.9c37.3-34.4,68.9-75.5,89.4-122c23.2-50.3,36.5-106.6,29.4-162c-4.8-34.2-19.3-68.9-47.1-90.7
		c-33.3-25.8-77.6-34.9-118.9-29.1c-26.8,4-51.6,15.5-75.3,28.1c-15.6,7.7-31.6,16.1-49.2,17.7c-11.5-2.4-16.4-14.3-21.8-23.4
		c-21.7-33.6-55.5-61.1-95.5-68.4C452.6,377,442.7,376,432.7,376.2L432.7,376.2z"/>
	<path class="st1" d="M196,222.3c-29.3,1-55.3,18.2-74.8,38.8c-6.4,4.3-14-0.9-17.8-6.3c-24.4-21-63.4-25.4-90.2-6.4
		c-25.6,17-38.3,49.3-34.8,79.4c2.1,37.1,21.6,71.4,47.6,97c7.1,7.3,14.2,14.5,21.8,21.1C29.7,423.3,14.6,398,4.3,370.8
		C-5,344.6-8.7,315,1,288.4c10.9-26.3,43.3-42.4,70.4-32.1c14.3,4.8,24.7,16.7,37.8,23.6c12.4,3.1,24.2-4.9,31.9-14
		c15.3-13.9,34-26.8,55.6-26.5c29.5-0.1,56,23.9,61.1,52.6c4.7,20.9-1.2,42.6-11.3,61c-20.7,44.3-53.3,81.6-88.1,115.4
		c-16.5,15.3-34.3,29.3-53.4,41.1c38.1-15.9,74.7-37.4,102.2-68.6c29.4-31.9,53.8-69.2,66.4-111c7.6-26.7,1.4-56.8-16.5-78.1
		C242.1,233.9,219.6,221.7,196,222.3L196,222.3z"/>
	<path class="st1" d="M-49.3,701.9c-44.4,2-85.9,34.8-97,78c-13.9,44.7-7.8,93.5,8.8,136.7c16.1,42.2,37.8,81.9,61.1,120.5
		c20.7,33.3,43.8,65.2,68.9,95.4c5.5,1.1,7-7.8,2.4-9.9c-40.1-56.4-73.5-117.7-99.9-181.6c-15.8-38.6-29.5-79.5-28-121.8
		c1-24.2,6.3-49.6,22.2-68.6c18.5-23.1,49.9-36.2,79.2-29.7c16.6,3.4,31.1,14.2,40.1,28.5c10.6,16,14.8,35,20.1,53.1
		c3.9,8.9,15.6,12.7,24,7.8c13.1-6.6,22.8-18.1,34.8-26.3c16.5-11.6,34.4-21.8,54-27c17.2-4.5,36.4-3.1,51.7,6.6
		c26.8,15.7,41.9,46.7,43.1,77.1c1.7,34.6-9.4,68.2-22.1,99.9c-14.7,35.7-34.7,69.5-61.1,97.8c-32,35.6-70.6,64.8-112.3,88.1
		c-6.7,4.1-14.2,7.7-20.4,12.3c0.3,4.5,7,5.4,8.9,1.6c49.7-29.5,101.5-57.9,141.7-100.3c37.2-38.9,63.2-87.8,77.8-139.4
		c8.6-32.6,10.9-68.5-3-100c-12-28-35.2-52.7-65.1-61c-27.5-7-56.5,1.7-80.3,15.9c-19.1,10.8-36.2,24.8-53.6,38.2
		c-6.4-1.6-3.9-9.7-6.3-14.3c-6.8-25.7-19.8-51.8-43.2-66.1C-16.8,705.1-33.1,701-49.3,701.9L-49.3,701.9z M45.4,795.7
		C45.6,795.9,44.9,795.4,45.4,795.7z"/>
</g>
<g transform="matrix(-.12744 0 0 .12744 32.932 -91.096)">
	<path class="st0" d="M-2090.9,1749.6c-6.3,2.9-64.1-27.8-78.3-39c-27.6-21.8-58.6-40.4-90.8-52.1c-28.2-10.2-47.3-26.7-71.9-38.8
		c-17.1-8.4-31.9-31.5-43.6-45.8c-12.2-14.9-19.8-28.7-28.3-46.7c-7.9-16.9-9.5-30.2-12.9-47.6c-3.5-17.7,0.8-34.2,1.2-51.1
		c0.4-17.3,3.2-31,5-49.7c2.4-23.2,12.8-41.5,20.7-63.4c10.6-29.4,32.7-51.7,55.4-70.2c20.8-17,40.8-30.6,62.5-48.3
		c23.5-19.1,39.8-15.8,60.1,0.2c14.1,11.1,21.7,16.8,33.7,31.5c10.2,12.5,16.2,27.7,23.2,42.7c7.6,16.2,14,24.1,24.8,32.6
		c15.2,12,27.6-17.8,30.1-29.9c7.6-36.5,21-63.8,44.5-93.5c13-16.5,37.8-24.1,57-33.1c8-3.8,36.6,2.3,49.7,5
		c18.6,3.9,32.1,4.3,43,17.7c11.3,13.8,19.7,28.5,28.3,46.7l32.8,69.8c7.9,16.7,15.6,42.3,15.2,59.2c-0.5,20.7,7.4,39.1-0.2,60.1
		c-7.9,21.8-8.1,53.7-12.1,75.1c-3.9,21.2-9.7,41.2-14.3,63.6c-9.5,45.7-25.7,95-41.8,139.6c-9.7,26.8-34.7,61.1-53.1,81.8
		c-5.4,6.1-11.4,11.7-17,17.5c-19,19.4-24.6,23.3-50.2,14.1c-16.8-6.1-34.5-20.9-47.9-28
		C-2076.8,1763.6-2075.5,1757.2-2090.9,1749.6L-2090.9,1749.6z"/>
	<path class="st1" d="M-2278.4,1251.9c-46.3,23-77.3,70.3-86.7,120.4c-8.2,46-6.2,95.4,14.4,138c20.7,43.1,54.4,78.6,92.3,107.2
		c52.4,38,113.9,60.7,174.7,81.3c12.2,4,24.5,7.9,36.8,11.6c0.7-1.8,3-5.5-0.6-5.6c-45.7-15.7-90.6-34.7-132.5-58.8
		c-53.6-31.9-103.1-73.4-135.4-127.4c-18.4-31.1-28.7-66.8-29.3-102.9c-2-34.5,2.2-70.9,21.2-100.5c22.2-35.7,62.6-61,105.3-60.4
		c32.1,0,62.8,13.4,88.5,31.9c10.4,6.6,24.4,8.9,35.2,2.1c18.4-9.9,29.4-28.6,42.4-44.2c20.1-25.4,43.1-50.5,73.8-63
		c30.9-12.9,67.2-16.1,98.7-3.1c28.2,12.4,49,37.3,63.2,64c24.3,45.9,30,99.2,27.3,150.4c-2.2,45-12.2,89.5-29.4,131.2
		c-20.9,52.4-47.6,102.4-78.1,149.8c-23,36.1-48.1,70.8-75.4,103.7c1,4.1,7.4,2.9,8.1-0.9c21.3-29.2,45.3-56.3,67.4-85
		c39.5-50.9,74.6-105.9,98.9-165.7c19.2-47,30.3-97.6,29-148.5c-0.4-55.4-12.3-112-42.3-159.2c-18.9-28.9-46.8-54.1-81.2-62.1
		c-41.1-9.2-85.1,1.4-119.9,24.2c-22.5,15-40.1,36-56.2,57.4c-10.8,13.6-21.7,28.1-37,36.9c-11.5,2.7-20.9-6-29.7-11.9
		c-33.9-21.2-76.2-31.7-115.5-21.3C-2260.2,1244.2-2269.5,1247.5-2278.4,1251.9L-2278.4,1251.9z"/>
</g>
<g transform="matrix(.23698 0 0 .23698 895.5 44.077)">
	<path class="st0" d="M-2439.1,1501.9c-11.2-5.3-47.9-10.5-59.8-13c-17-3.5-27.5-8.6-47-12.7c-12.3-2.6-30.1-18.2-38.9-29.1
		c-9.8-12-16.3-21.2-23.4-36.4l-20.7-44c-7.6-16.3-8.3-27.3-7.9-43.6c0.4-15.4,5.1-29.2,15.1-41.8c11-13.9,24.4-24.1,39.1-31
		c17-8,26.9-3.2,42.4-10.5c8.6-4,23.4,0.6,31.9,0.8c14.7,0.4,19.4,5.7,25.9-12.2c5.9-16.2,19.4-23.9,31.5-33.7
		c11.6-9.5,24.1-2,31.9,0.8c11.7,4.2,17.7,17.4,26.1,28.8c8.2,11,15.2,25.6,20.8,37.6c7.7,16.5,7.3,19.4,10.6,36
		c3.2,16.3-0.8,34.6-1.1,44.7c-0.3,11.6,2.7,31.6,5.3,44.9c2.6,13-3.8,35.4-6.3,47.1c-4.2,20.4-16.3,47.2-20.7,63.4
		c-3.8,13.9-29.1,13.1-36,10.6c-1.8-0.6-3.4,1.6-5.2,2.4C-2430.3,1513.6-2434.5,1505-2439.1,1501.9L-2439.1,1501.9z"/>
	<path class="st1" d="M-2446.6,1191.5c-26.1,13.3-42.3,39.9-51.2,67c-3.9,6.6-13.1,5.1-18.8,1.9c-31-8.7-68.1,3.9-84.4,32.5
		c-15.9,26.2-13.7,60.9,2.3,86.6c17.7,32.7,49.9,55.4,84.3,67.6c9.5,3.6,19,7.1,28.7,9.9c-26-12.8-50.4-29.3-71.3-49.5
		c-19.6-19.7-35.5-45-38-73.2c-1.3-28.4,21.2-56.8,50.1-59c15-1.8,29.4,4.6,44.2,5.3c12.6-2.4,19.8-14.8,22.9-26.2
		c8-19.1,19.4-38.8,39-47.6c26.7-12.7,60.9-2.2,77.7,21.6c13.1,16.9,17,39.1,15.7,60.1c0.1,48.9-13.5,96.5-30.7,141.9
		c-8.4,20.9-18.6,41.1-30.9,59.9c27.7-30.6,51.7-65.6,63.3-105.6c13-41.3,19.2-85.5,12.9-128.7c-4.5-27.4-22.9-52-48.2-63.7
		C-2399.9,1182.4-2425.5,1180.9-2446.6,1191.5L-2446.6,1191.5z"/>
</g>
<g transform="matrix(-.17008 0 0 .17008 95.625 -278.68)">
	<path class="st0" d="M-2337,2149.3c-22.5-12-68-25.9-94.7-47c-31.3-24.7-59.3-34.7-86.6-63.5c-18.8-19.7-39.9-36.1-54.9-56.3
		c-14-19-26.9-37.4-42.1-56c-13.8-17-29.5-47-29-68.4c0.6-25.6,15-53.4,22.2-73.6c7.5-20.9,49.2-45.5,66.6-59.7
		c16.9-13.8,40.6-14,57.6-5c18,9.5,34.7,29,46.2,44.6c10.8,14.6,15.4,23.5,28.6,33.9c29.7,23.4,14.9,18.2,31.3-27.4
		c2.5-7,6.3-13.5,9.4-20.2c7.8-16.7,20.2-25.6,31.7-40.1c12.2-15.4,42.8-23.3,60.8-31.7c21.7-10.2,30.8-3.4,44.6,7.5
		c21.8,17.2,38,36.7,56.1,58.9c16.4,20.1,20.6,50.9,25,73.5c5.3,26.8-5.8,57.8-14.8,82.7c-10,27.8-16,53.8-32.6,78.4
		c-11.3,16.9-14.2,38.6-25.6,53.1c-11.7,14.9-14.4,33.2-29.2,45.3c-15.5,12.6-15.5,26.9-31.7,40.1
		C-2313.3,2130.8-2314.1,2143.6-2337,2149.3L-2337,2149.3z"/>
	<path class="st1" d="M-2558,1739.9c-39.4,20.7-62.9,68-54.6,111.8c6.4,46.4,32.7,87.9,66.1,119.9c32.5,31.3,69.1,58.1,106.5,83.1
		c32.9,21.4,67.3,40.4,102.9,57.1c5.5-1.3,3-10-2-10c-60.3-34-116.5-75.2-167.7-121.9c-30.7-28.2-60.5-59.4-77.1-98.3
		c-9.4-22.3-15.4-47.5-9.1-71.5c6.9-28.8,29.7-54,59-60.6c16.5-4,34.2-0.4,48.4,8.7c16.4,10,28.3,25.4,40.8,39.5
		c7.3,6.5,19.5,4.9,25-3.1c9-11.6,12.9-26.1,20.4-38.6c10-17.5,21.8-34.4,37.4-47.4c13.7-11.4,31.7-18.3,49.6-16
		c30.9,2.9,57.8,24.4,71.8,51.5c16.3,30.6,20.5,65.7,22.5,99.8c1.8,38.5-1.8,77.6-13.7,114.4c-13.9,45.8-36.3,88.7-64.2,127.5
		c-4.4,6.6-9.6,13-13.2,19.8c2.2,4,8.6,1.9,8.7-2.3c32.4-47.9,67.2-95.5,85.6-151c17.2-51,19.8-106.4,11.2-159.3
		c-6.1-33.1-19.3-66.6-45.2-89.3c-22.8-20.2-54.3-32.7-84.9-27.5c-27.9,5.4-50.4,25.6-65.9,48.5c-12.7,17.9-22.3,37.8-32.3,57.3
		c-6.5,1.2-7.7-7.1-11.8-10.2c-17.1-20.4-40-38.4-67.2-41.4C-2527.3,1728.9-2543.8,1732.1-2558,1739.9L-2558,1739.9z
		 M-2432.5,1784.4C-2432.2,1784.6-2433,1784.4-2432.5,1784.4z"/>
</g>
</svg>
