<?xml version="1.0" encoding="utf-8"?>
<!-- Generator: Adobe Illustrator 22.0.1, SVG Export Plug-In . SVG Version: 6.00 Build 0)  -->
<svg version="1.1" id="Layer_1" xmlns="http://www.w3.org/2000/svg" xmlns:xlink="http://www.w3.org/1999/xlink" x="0px" y="0px"
	 viewBox="0 0 99.8 100" style="enable-background:new 0 0 99.8 100;" xml:space="preserve">
<title>Asset 4L</title>
<g id="_x34_894fec1-f53d-46f8-b503-f2eb56d17196_2_">
	<g id="_x35_ffa8faf-5b36-4b66-b82e-af96b7f6417f_2_">
	</g>
</g>
<g>
	<path d="M13.8,43.4L12,45.9v8.4H6.1V26.9H12v11.8h0.1l7.7-11.8h5.9l-8.3,12.2l8.3,15.2h-6.1L13.8,43.4z"/>
	<path d="M34.2,26.9h5.9v27.4h-5.9V26.9z"/>
	<path d="M54.1,34.5H54v19.8h-5.3V26.9h7.5l6,16.4h0.1V26.9h5.3v27.4h-6.1L54.1,34.5z"/>
	<path d="M85.4,40.6h8.3v7c0,4.3-3,6.7-8.9,6.7S76,51.8,76,47.6V33.6c0-4.3,3-6.7,8.9-6.7s8.9,2.4,8.9,6.7v2.6h-5.6v-2.9
		c0-1.9-1.2-2.6-3.1-2.6c-1.9,0-3.1,0.7-3.1,2.6v14.5c0,1.9,1.2,2.6,3.1,2.6c1.9,0,3.1-0.7,3.1-2.6v-3.4h-2.7V40.6z"/>
</g>
<g id="_x35_ffa8faf-5b36-4b66-b82e-af96b7f6417f_3_">
	<g>
		<path d="M10.4,57.5c2.8,0,4.3,1.7,4.3,4.6v0.6h-2.7V62c0-1.3-0.5-1.8-1.4-1.8S9,60.7,9,62c0,1.3,0.6,2.3,2.5,4
			c2.4,2.1,3.2,3.6,3.2,5.7c0,2.9-1.5,4.6-4.3,4.6c-2.8,0-4.3-1.7-4.3-4.6v-1.1h2.7v1.3c0,1.3,0.6,1.8,1.5,1.8s1.5-0.5,1.5-1.8
			c0-1.3-0.6-2.3-2.5-4c-2.4-2.1-3.2-3.6-3.2-5.7C6.1,59.2,7.6,57.5,10.4,57.5z"/>
		<path d="M20,62.2c0-2.9,1.5-4.6,4.4-4.6c2.8,0,4.4,1.7,4.4,4.6v9.6c0,2.9-1.5,4.6-4.4,4.6c-2.8,0-4.4-1.7-4.4-4.6V62.2z
			 M22.9,71.9c0,1.3,0.6,1.8,1.5,1.8c0.9,0,1.5-0.5,1.5-1.8V62c0-1.3-0.6-1.8-1.5-1.8c-0.9,0-1.5,0.5-1.5,1.8V71.9z"/>
		<path d="M43,69.3v2.4c0,2.9-1.5,4.6-4.3,4.6c-2.8,0-4.3-1.7-4.3-4.6v-9.6c0-2.9,1.5-4.6,4.3-4.6c2.8,0,4.3,1.7,4.3,4.6V64h-2.7v-2
			c0-1.3-0.6-1.8-1.5-1.8s-1.5,0.5-1.5,1.8v9.9c0,1.3,0.6,1.8,1.5,1.8s1.5-0.5,1.5-1.8v-2.6H43z"/>
		<path d="M48.7,57.8h2.9v18.4h-2.9V57.8z"/>
		<path d="M60.5,65.5h4v2.6h-4v5.4h5v2.6h-7.9V57.8h7.9v2.6h-5V65.5z"/>
		<path d="M70.4,57.8h8.9v2.6h-3v15.8h-2.9V60.4h-3V57.8z"/>
		<path d="M87.2,70l-3.6-12.3h3l2.2,8.4h0.1l2.2-8.4h2.8L90.1,70v6.1h-2.9V70z"/>
	</g>
</g>
</svg>
