<?xml version="1.0" encoding="utf-8"?>
<!-- Generator: Adobe Illustrator 23.0.1, SVG Export Plug-In . SVG Version: 6.00 Build 0)  -->
<svg version="1.1" id="GraphicMama.com" xmlns="http://www.w3.org/2000/svg" xmlns:xlink="http://www.w3.org/1999/xlink" x="0px"
	 y="0px" viewBox="0 0 2772.7 2713.4" style="enable-background:new 0 0 2772.7 2713.4;" xml:space="preserve">
<style type="text/css">
	.st0{fill:#EA4647;}
	.st1{opacity:0.1;fill:#231F20;enable-background:new    ;}
	.st2{fill:#296EB7;stroke:#231F20;stroke-width:4.8622;stroke-linecap:round;stroke-linejoin:round;}
	.st3{opacity:0.2;fill:#231F20;enable-background:new    ;}
	.st4{opacity:5.000000e-02;fill:#231F20;enable-background:new    ;}
	.st5{fill:#FFFFFF;stroke:#231F20;stroke-width:4.8622;stroke-linecap:round;stroke-linejoin:round;}
	.st6{fill:#296EB7;}
	.st7{fill:#EA4647;stroke:#231F20;stroke-width:4.8622;stroke-linecap:round;stroke-linejoin:round;}
	.st8{fill:none;stroke:#231F20;stroke-width:4.8622;stroke-linecap:round;stroke-linejoin:round;}
	.st9{fill:#231F20;}
	.st10{opacity:0.15;fill:#231F20;enable-background:new    ;}
	.st11{fill-rule:evenodd;clip-rule:evenodd;fill:#040404;}
	.st12{fill-rule:evenodd;clip-rule:evenodd;fill:#FFFFFF;}
	.st13{fill-rule:evenodd;clip-rule:evenodd;fill:#4D4D4D;}
	.st14{fill-rule:evenodd;clip-rule:evenodd;fill:#919296;}
	.st15{fill-rule:evenodd;clip-rule:evenodd;fill:url(#SVGID_1_);}
	.st16{fill-rule:evenodd;clip-rule:evenodd;fill:#464142;}
	.st17{fill-rule:evenodd;clip-rule:evenodd;fill:url(#SVGID_2_);}
	.st18{fill-rule:evenodd;clip-rule:evenodd;fill:#1D1E21;}
	.st19{fill-rule:evenodd;clip-rule:evenodd;fill:#0D0F12;}
	.st20{fill-rule:evenodd;clip-rule:evenodd;fill:#1C1E20;}
	.st21{fill-rule:evenodd;clip-rule:evenodd;fill:#DCDDE0;}
	.st22{fill-rule:evenodd;clip-rule:evenodd;fill:#CECECE;}
	.st23{clip-path:url(#SVGID_4_);}
	.st24{clip-path:url(#SVGID_6_);fill:#E94647;}
</style>
<g id="Presentation_Illustration_4">
	
		<ellipse transform="matrix(0.7071 -0.7071 0.7071 0.7071 -501.4429 1358.0282)" class="st0" cx="1388.6" cy="1284.3" rx="961.6" ry="961.6"/>
	<path class="st1" d="M1391,2246.4c-531.1,0-961.6-430.5-961.6-961.6S859.9,323.1,1391,323.1V2246.4z"/>
	<g id="pants-4">
		<path class="st2" d="M1791.4,2346.6c0,0-96.6-549.4-102.7-597.1c-6.1-47.7,44.1-102.1,121.3-72.3l42.5-227l-251.7,113.5v98.2
			c0.6,38.2,4.8,76.3,12.5,113.7l43.4,221.6c-16.4,3.1-27.2,18.9-24.3,35.3c2.9,16.8,18.8,28.1,35.6,25.3c0.3,0,0.6,3.6,0.9,3.5
			l54.2,285.4h68.1H1791.4z"/>
		<path class="st3" d="M1790.6,2341.8c0,0-95.9-546.9-102.1-594.7c-6.2-47.8,44.1-100.9,121.3-71.1l0.9-251.9l-209.1,139.6v98.2
			c0.4,38.2,4.5,76.3,12.1,113.7l43.2,221.6c-16.4,3.2-27.2,18.9-24.3,35.3c2.8,16.8,18.8,28.1,35.6,25.3c0.3,0,0.6,1.2,0.9,1.1
			l54.2,282.9h67.3H1790.6z"/>
		<path class="st2" d="M1968.4,2022.7c58.8-113.6,44.9-285.9,46.8-458.6l-63.2-97.2l-142.2-12.2v221.5
			c78.4,31.9,127,115.1,119.6,207.2c-4,50.2-20.3,109.3-53.5,157.1c-99,142.5-323.6,182.3-323.6,182.3v64c0,0,235-37.3,368.7-193
			c4.9-5.9,10.6-11.9,15.1-18.1c0.8,0.5,2.1,1,3,1.4c15.3,7.6,33.8,1.3,41.5-14C1988,2048.7,1982.6,2030.8,1968.4,2022.7z"/>
	</g>
	<g id="board-4">
		<path class="st2" d="M357.4,1304h1060.5c9.2,0,16.7,7.5,16.7,16.7v1068.8c0,9.2-7.5,16.7-16.7,16.7H357.4
			c-9.2,0-16.7-7.5-16.7-16.7V1320.7C340.7,1311.5,348.2,1304,357.4,1304z"/>
		<path class="st4" d="M887.7,2406.2H357.5c-9.2,0-16.7-7.5-16.7-16.7V1320.8c0-9.2,7.5-16.7,16.7-16.7h530.2V2406.2L887.7,2406.2z"
			/>
		<rect x="365.8" y="1335.3" class="st5" width="1045.4" height="1050.2"/>
		<polygon class="st4" points="366.8,2380.7 366.8,1855.6 366.8,1330.5 887,1330.5 887,2380.7 		"/>
	</g>
	<g id="shoes-3">
		<path class="st2" d="M1757.5,2406.6h-106.1c-18.5,0-33.5-15-33.5-33.5l0,0c0-18.5,15-33.5,33.5-33.5l0,0h139.7l0,0v33.5
			c0,18.5-15,33.5-33.4,33.5C1757.6,2406.6,1757.5,2406.6,1757.5,2406.6z"/>
		<path class="st6" d="M1655.6,2402.9h97.6c17,0,32.7-12.7,32.7-28.3h-162.6C1623.4,2390.2,1638.6,2402.9,1655.6,2402.9z"/>
		<path class="st2" d="M1556.2,2222.2v139.6c0,18.5-15,33.5-33.5,33.5l0,0l0,0c-18.5,0-33.5-15-33.5-33.5l0,0v-106.1
			c0-18.5,15-33.5,33.5-33.5l0,0H1556.2L1556.2,2222.2z"/>
		<path class="st6" d="M1494.1,2358.1v-98.7c0-19,12.3-32,27.5-32v162.7C1507.8,2390.1,1494.1,2379.1,1494.1,2358.1z"/>
	</g>
	<g id="head-4">
		<rect x="1786.1" y="798.9" class="st5" width="47" height="121.6"/>
		<polygon class="st1" points="1809.6,920.4 1786.1,920.4 1786.1,859.6 1786.1,798.9 1809.6,798.9 		"/>
		<path class="st5" d="M1976.5,584.6v173.3c-0.1,38.8-31.5,70.2-70.3,70.1c0,0,0,0,0,0h-194.5c-38.7,0-70.1-31.4-70.2-70.1V584
			c-16.4,0-29.7-13.3-29.7-29.7s13.3-29.7,29.7-29.7l0,0V340.6c0.1-38.8,31.5-70.2,70.3-70.1c0,0,0,0,0,0h194.5
			c38.8-0.1,70.3,31.3,70.4,70.1c0,0,0,0,0,0v183.9c16.5,0,29.8,13.4,29.8,29.8s-13.4,29.8-29.8,29.8"/>
		<path class="st1" d="M1808.9,828h-97.2c-38.8,0-70.2-31.4-70.3-70.2l0,0V584c-7.8,0.1-15.3-3.1-20.8-8.7c-5.5-5.6-8.5-13.2-8.4-21
			c-0.1-7.8,2.9-15.4,8.4-21.1c5.4-5.6,12.9-8.8,20.8-8.7l0,0V340.6c0.1-38.8,31.5-70.2,70.3-70.1c0,0,0,0,0,0h97.2V828L1808.9,828z
			"/>
		<path class="st7" d="M1711,439.4l40.6-7.2c5.3-0.9,10.4,2.6,11.3,7.9l0.1,0.5c0.9,5.3-2.6,10.4-7.9,11.3l-40.6,7.2
			c-5.3,0.9-10.4-2.6-11.3-7.9l-0.1-0.5C1702.2,445.4,1705.7,440.4,1711,439.4z"/>
		<path class="st7" d="M1867.7,387.7l40.6,7.2c5.3,0.9,8.9,6,7.9,11.3l-0.1,0.5c-0.9,5.3-6,8.9-11.3,7.9l-40.6-7.2
			c-5.3-0.9-8.9-6-7.9-11.3l0.1-0.5C1857.4,390.3,1862.4,386.7,1867.7,387.7z"/>
		<polyline class="st8" points="1805,501.5 1805,644.9 1843.9,644.9 1843.9,698.4 1926.5,644.9 1926.5,632.7 		"/>
		<g id="hair-3">
			<path class="st7" d="M1975.1,506.2V340.6c0-38.9-29.7-65.3-68.1-65.3h-191.8c-38.4,0-74.7,26.4-74.7,68.1v165.3
				c14.6-1,23.4-15.3,23.4-29.2v-89.7c0-35,34.5-56.1,69.2-56.1h51.2c3.5,0,6.4,0,6.4,5.2c0,13.6,9,19.1,20.1,19.1h0.8
				c10.3,0.8,19.3-6.9,20.1-17.1c0.1-0.7,0.1-1.3,0.1-2c0-4.9,2.9-5.2,6.4-5.2h51.2c34.7,0,61.5,21.1,61.5,56.1v89.7
				C1950.4,493.6,1961.2,505.4,1975.1,506.2z"/>
			<path class="st3" d="M1810.8,270.5h-95.5c-38.4,0-74.7,28.8-74.7,70.5l0.4,166.7c14.2-1.6,24.7-13.9,23.9-28.2v-89.7
				c0-35,33.5-61,68.1-61h51.2c3.5,0,7.1,0,7.1,5.2c0,12.9,9.7,18.5,19.4,19V270.5L1810.8,270.5z"/>
		</g>
		<g id="eye-7">
			<path class="st5" d="M1747.7,475.9c14.8,0,26.7,12,26.7,26.7c0,14.8-12,26.7-26.7,26.7c-14.8,0-26.7-12-26.7-26.7
				C1720.9,487.9,1732.9,475.9,1747.7,475.9z"/>
			<path class="st1" d="M1747.7,529.4c-14.8,0-26.7-12-26.7-26.7c0-14.8,12-26.7,26.7-26.7V529.4z"/>
			<path class="st9" d="M1747.7,494.2c4.7,0,8.5,3.8,8.5,8.5s-3.8,8.5-8.5,8.5c-4.7,0-8.5-3.8-8.5-8.5S1743,494.2,1747.7,494.2z"/>
		</g>
		<g id="eye-8">
			<circle class="st5" cx="1871.7" cy="502.7" r="26.7"/>
			<path class="st1" d="M1871.7,529.4c-14.8,0-26.7-12-26.7-26.7c0-14.8,12-26.7,26.7-26.7V529.4z"/>
			<circle class="st9" cx="1871.7" cy="502.7" r="8.5"/>
		</g>
		<g id="beard-2">
			<path d="M1658.8,680.4c0.3-0.4,0.5-0.9,0.4-1.4c1.2,0.1,2.4-0.2,3.4-0.9c1.3,1.1-0.8,1.6-0.9,2.4
				C1660.7,679.3,1660.3,680.5,1658.8,680.4z"/>
			<path d="M1653.5,777.3c0.2-0.8,1.1-1.3,1.9-1c0.8,0.2,1.3,1.1,1,1.9c-0.4,0.1-0.8,0.3-1.1,0.6
				C1654.5,777.6,1654.6,777.3,1653.5,777.3z"/>
			<path d="M1659.8,753.8c0.8-0.6,1.8-0.6,2.6,0C1662.2,756,1660.7,754.1,1659.8,753.8z"/>
			<path d="M1661.5,766.8c0.3-0.6,1.5-0.4,1.2-1.7c1,0,0.9,0.8,1,1.5C1662.8,766.8,1662,767.6,1661.5,766.8z"/>
			<path d="M1678.1,744.4c0.7-0.3,1.5-0.5,2.2-0.6c0.5,0,0.4,1.1,0,1.1c-0.4,0,0.4,0.3,0.7,0.4
				C1680,746.3,1678.7,744.8,1678.1,744.4z"/>
			<path d="M1691.1,719v-1.1c1,0.8,1-0.8,2.2,0c-0.3,1.1,0.6,1.1,0,1.8C1692.3,719,1692.4,718.2,1691.1,719z"/>
			<path d="M1651.4,740.7c0.9-0.4,1.7-0.7,2.6-0.9c0,1-0.6,0.7,0,1.4c0.4,0,0.3-0.6,0.4-1.1c0.5,0.6,0.7,1.4,0.6,2.2
				c-0.7,0.2-1.5,0.2-2.2,0C1653.6,739.9,1652.5,741.9,1651.4,740.7z"/>
			<path d="M1661.5,691.1c0.7,0.1,1.5,0.1,2.2,0c-0.4,0.5-0.7,1.1-0.8,1.8h-1.1C1661.4,692.3,1661.3,691.7,1661.5,691.1z"/>
			<path d="M1891.9,819.4V818c1.3-0.2,2.7-0.2,4,0v1.8C1894.3,818.4,1893.5,821.1,1891.9,819.4z"/>
			<path d="M1692.4,744.2c0.9,1,2.5-0.6,2.5,1.2C1694.2,744.3,1692.3,746.2,1692.4,744.2z"/>
			<path d="M1668.4,694.7c-0.6,1-1.4,0.3-2.2,0c-0.1-0.5,0.2-0.9,0.6-1.1c0.2,0,0.4,0,0.5,0C1666.4,694.7,1667.9,693.6,1668.4,694.7
				z"/>
			<path d="M1650.7,669.5c0.4-2.4,2.9-1.1,3.7-0.9C1654.3,669.7,1651.5,668.4,1650.7,669.5z"/>
			<path d="M1687.3,807.9c0.8-1.4,3.6,1.3,3.7-0.5c0.3,0,0.3,0,0.3,0.4c0,0.4,0,0.3,0.3,0.4c-1.2,0.7-2.7,0.9-4.1,0.5
				C1687.8,808.3,1687.7,808,1687.3,807.9C1687.4,807.9,1687.4,807.9,1687.3,807.9z"/>
			<path d="M1655.4,763.4c0-1.1,2.7,0.6,2.2-1c0.2,0.3,0.4,0.5,0.7,0.7C1658.3,764.3,1655.9,763.9,1655.4,763.4z"/>
			<path d="M1660.9,734.1c-0.2-0.8,0.3-1.5,1.1-1.7c0.2,0,0.3,0,0.5,0c0,0.6-0.5,2.1,0.2,2.1C1662,735.8,1661.5,733.8,1660.9,734.1z
				"/>
			<path d="M1659.6,711.4c0-0.5,0.9,0,1.5-0.3v1.8c-0.4,0-0.3-0.7-0.3-1.1C1660.4,711.8,1659.9,711.7,1659.6,711.4z"/>
			<path d="M1656.3,788.4h2.2C1658,789.7,1656.4,790.4,1656.3,788.4z"/>
			<path d="M1950.7,750c1.7-1.4,3.8-2.1,6-1.8c-0.4,0.6-0.7,1.3-0.8,2.1C1954.2,749.8,1952.4,749.7,1950.7,750z"/>
			<path d="M1649.3,700.8v-1.1c1.1,0.2,2.2,0.2,3.3,0c-0.1,0.3,0,0.6,0.3,0.7c0,0,0,0,0.1,0c-1,0-2,0.5-2.6,1.3
				C1649.7,700.7,1651.2,700,1649.3,700.8z"/>
			<path d="M1692.5,681.8c0.9,0,3.5,1.9,3.3,0c1.6,0.8-1.3,1.8,0,2.1c-0.7,0.3-2.1,0.4-2.2-0.8c-0.4,0-0.3,0.6-0.4,1.1
				c-0.8-0.2-1.2-0.9-1.1-1.7C1692.2,682.3,1692.4,682,1692.5,681.8z"/>
			<path d="M1660.4,774.4c1.4-0.3,0.4,1.4,0.6,2.2C1660.1,776.4,1660.3,775.3,1660.4,774.4z"/>
			<path d="M1664.6,705.6c0-1.6,1.1,0,2.2,0C1666.4,706.6,1665.8,705.6,1664.6,705.6z"/>
			<path d="M1662.1,769.8c0.7-1,1.1,1.1,2.6,0.5C1664.3,771.6,1662.5,770.4,1662.1,769.8z"/>
			<path d="M1664.5,757.9v-1.1c1,0,2-0.2,3-0.6c0,0.6,0.2,0.7,0.7,0.7c-0.8,0.4-1.5,1-1.9,1.7
				C1665.2,758.8,1665.7,757.6,1664.5,757.9z"/>
			<path d="M1656.1,692.5c0.9,0,0,1.6,0,1.8c-1.8-0.6-3.5,0.4-4-1.7C1655,691.5,1654.9,693.6,1656.1,692.5z"/>
			<path d="M1671.5,686.7v-1.1c1,0.2,2,0.2,2.9,0c-0.5,0.8-1.4,1.3-2.3,1.3C1672.3,686.7,1671.8,686.8,1671.5,686.7z"/>
			<path d="M1949.7,699.5c0.9-0.7,2.1-0.7,3,0C1952.7,700.1,1950.3,699.5,1949.7,699.5z"/>
			<path d="M1669.8,763.4c0-0.6,0.5-1,1.1-1c0.3,0,0.6,0.2,0.8,0.4C1671.2,763.3,1670.5,763.6,1669.8,763.4z"/>
			<path d="M1669.9,775.9v-1.1c0.7,0,1.8,0.4,1.5-0.6c1,0.4,0.4,1.5,1.8,0.8C1672.4,776.1,1671.1,776.4,1669.9,775.9z"/>
			<path d="M1670.8,800.6c-0.6,0,0.3,2.2-1.6,1.7c0-0.6,0.3-0.7,0.8-0.7c-0.3-0.5-0.5-1.2-0.3-1.8c1.2,0.6,2.7,0.9,4,0.6
				c-0.3,0.3-0.4,0.7-0.4,1.1C1672.4,801.7,1671.4,801.4,1670.8,800.6z"/>
			<path d="M1672.6,787.5c0.8,0.4,1.2,1.3,1,2.2C1671.8,789.7,1671.6,788.1,1672.6,787.5z"/>
			<path d="M1679,706.7c-0.3-1.4-2.6-0.6-1.7-2.2c1.1,0.5,2.4,0.7,3.6,0.5c-0.3,0.3-0.4,0.7-0.4,1.1
				C1678.6,705.8,1679.5,705.6,1679,706.7z"/>
			<path d="M1676.5,719c0-0.5,0.6-0.9,0.8-1.4c0.7,0.1,1.5,0.1,2.2,0c0.9,0.4-0.4,1.6-1.2,1.4v-1.1
				C1677.4,718.1,1677.9,719.6,1676.5,719z"/>
			<path d="M1678,711c0.4-0.5,0.9-0.7,1.5-0.6c0,0.9,0,2.1-1.2,2.1C1678.3,711.8,1678.5,711.1,1678,711z"/>
			<path d="M1675.2,808.7c1.1-0.8,2.4-1.4,3.7-1.6c-0.5,1.1,1.2,0.3,0.7,1.5c-1,0-1.2-0.8-1.1,0.6c-0.4-0.5-1.8-0.3-2.2-0.8
				C1676,808.6,1675.6,808.7,1675.2,808.7z"/>
			<path d="M1678.6,756.4c0.2-1.3,2.1-0.4,3,0c-0.5,0.6-1.1,1.1-1.9,1.3C1679.5,757.2,1679.1,756.7,1678.6,756.4z"/>
			<path d="M1946.7,724.9c0.6,0,4-1.7,4.4-0.5c0.5-0.6,0.8-1.3,0.8-2.1c1.1,0.7-0.5,1.7,0,2.9C1950.2,724.2,1948.4,726,1946.7,724.9
				z"/>
			<path d="M1678.7,782.8c-0.4-1.7,2.7,0.4,2.3-1.3c1.1,0.6-0.5,1.4,0,2.5C1679.7,783.6,1681.4,782.2,1678.7,782.8z"/>
			<path d="M1679.5,795.7c0-1.1,1-1.2,1.9-1.3v1.4L1679.5,795.7z"/>
			<path d="M1683.3,738c0-1.7,2.3-0.8,3-1.7C1685.6,737.4,1684.5,738.1,1683.3,738z"/>
			<path d="M1682.7,763c0.9-0.5,2-0.5,3,0c-0.2,0.3-0.9,0.3-0.8,1C1683.8,763.9,1683.8,762.7,1682.7,763z"/>
			<path d="M1668.5,732.9c0.3-0.7,0.5-1.4,0.5-2.1c1.5-0.4,0.7,1.2,2.2,0.8c-0.3,1-1.3,1.7-2.4,1.4
				C1668.7,733,1668.6,733,1668.5,732.9z"/>
			<path d="M1685.4,723.8c-0.5-1.1,2.4-1,1.8,0H1685.4z"/>
			<path d="M1651.8,718.7c0-0.8,0.3-1.7,1.6-1.4c-0.9,0.7,0,1.4,0,2.5C1652.1,720.1,1652.9,718.6,1651.8,718.7z"/>
			<path d="M1686.2,737.1h1.8c0.3,1.2-1.2,0.5-1.9,0.6L1686.2,737.1L1686.2,737.1z"/>
			<path d="M1683.4,800.2c0-0.6,2.2-1.1,2.6,0C1685.8,801.6,1684.6,799.6,1683.4,800.2z"/>
			<path d="M1683.1,813.4c1.7-0.6,3.5-0.8,5.2-0.4c-0.3,0.4-0.5,0.9-0.4,1.4C1685.8,814,1685.4,813.7,1683.1,813.4z"/>
			<path d="M1688.1,787.1c1.4,1.9-2.3,1.5-2.7,2.7c-0.6,0-0.8-0.7-0.7-1.5C1686.5,787.8,1686.5,789.7,1688.1,787.1z"/>
			<path d="M1685.8,763.5v-1.1c0.8,0.3,1.7,0.3,2.6,0c0,0.6-0.5,0.7-0.4,1.4C1687.3,763.2,1687.4,763.4,1685.8,763.5z"/>
			<path d="M1686.3,801.1c0.3-0.9,2.3-2.1,2.2,0C1687.8,800.9,1687,800.9,1686.3,801.1z"/>
			<path d="M1692.1,730.6c0.6,0.1,1.2,0.2,1.8,0.4C1693.6,731.8,1691.8,732.1,1692.1,730.6z"/>
			<path d="M1689,819.8c0.6-0.5,1.2-1,1.9-1.3c0.5,0,0.2,0.9,0.3,1.5L1689,819.8z"/>
			<path d="M1690.7,794.8v-1.1c0.8-0.4,1.7-0.6,2.6-0.6c0,0.6,1.1,2.7,1.1,1.1c0.5,0,0.2,0.9,0.3,1.5c-1.1-0.3-1.1,0.6-2.2,0
				c-0.5-0.5-0.5-1.3,0-1.8C1691.4,793.9,1692,795.4,1690.7,794.8z"/>
			<path d="M1697.7,673c0.8,0.4,1.8,0.4,2.6,0c0,0.9,0.6,1.1,0,1.8C1699.3,674.3,1697.7,674.4,1697.7,673z"/>
			<path d="M1694.5,755c0.6,0,0.7,2.7-0.5,2.1C1692.9,756.6,1694.2,755.7,1694.5,755z"/>
			<path d="M1695.9,750.8c0-1.7,2.1,0.8,1.6-1.7c1.6-0.3,3.2-0.5,4.9-0.5c0,1.5-1.6,0.8-1.6,2c-0.7-0.1-1.3-0.4-1.8-0.8
				c-1,0.2,1.1,0.9,0,1.4C1697.9,751.2,1696.9,751.1,1695.9,750.8z"/>
			<path d="M1696.6,736.9c0.8-0.5,1.7-0.8,2.6-0.6c-0.4,0.5-0.4,0.8,0.3,1.1c-0.5,0.7-1.6-0.5-2.6,0c0.2-0.2,0.3-0.4,0.4-0.7h-0.7
				V736.9z"/>
			<path d="M1697.3,723.4c1.2-0.5,2.5-0.2,3.3,0.9C1699.4,724.3,1698.2,723.9,1697.3,723.4z"/>
			<path d="M1699.8,710.3v-1h1.8v1.8C1701.1,710.7,1700.4,710.7,1699.8,710.3z"/>
			<path d="M1699.5,736c1,0.3,2,0.7,2.9,1.2c0,0.8-1.8,0-2.6,0C1699.9,736.8,1699.5,736.7,1699.5,736z"/>
			<path d="M1697.9,775.6c0-0.7,0-1.5,1.2-1.4c-0.4,0.4-0.3,0.7,0.3,0.7C1699.3,775.6,1698.7,775.7,1697.9,775.6z"/>
			<path d="M1696.2,814.4c0.6-3.1,4.6,0,4.9-2.6c0.4-0.5,0.8,2.4,0,2.5C1699.5,814,1697.8,814,1696.2,814.4z"/>
			<path d="M1662.4,744.8c1.4-0.9,3.2-1.2,4.9-0.8c-0.5,1.4,1.1,1.5,0.7,0c0.8,0,0,1.8,0,2.5c-0.8-0.7-1.6-1.3-2.5-1.9
				c-0.5,0-0.3,0.9-0.4,1.4c-0.1,0.5-0.7-0.5-0.7-1.1c0-0.6-1.7,0.9-0.8,1C1663,747.1,1662.9,745,1662.4,744.8z"/>
			<path d="M1697.4,799.8c1.5-0.7,3.2-0.9,4.9-0.5v1.8c-0.4-0.3-0.9-0.5-1.5-0.4C1701.6,798.7,1698.4,800.5,1697.4,799.8z"/>
			<path d="M1699.1,788.5c0.6-0.2,2.4-2.5,2.2,0c0.4-0.4,0.7-0.9,0.8-1.4c1.1,0.6-0.4,1.6,0,2.5C1701,789.4,1700,789.1,1699.1,788.5
				z"/>
			<path d="M1706.1,667.4c0-2,2.8,0.7,2.2-1C1710.1,667.8,1707.6,668,1706.1,667.4z"/>
			<path d="M1705.3,693.1c0.6-0.7,0.9-1.5,0.9-2.4c1,0.2,2,0.5,2.9,0.9v1.8c-0.3-1.7-1.1-1.5-1.5,0.3
				C1707.2,692.1,1706.6,692.5,1705.3,693.1z"/>
			<path d="M1704.6,775.2c0-0.9,0.1-1.7,0.5-2.5C1705.6,772.8,1705.7,775.7,1704.6,775.2z"/>
			<path d="M1703.2,808c1.3-1.3,3.5-1.2,4.7,0.1c0,0,0.1,0.1,0.1,0.1c-1.4,0-2.4,0.4-4.4,0.5c0.1-0.3,0-0.6-0.3-0.7
				C1703.3,808,1703.3,808,1703.2,808z"/>
			<path d="M1707.9,718.2c0-1.3,0.4-2.1,1.6-2C1708.9,717.5,1709.9,718.3,1707.9,718.2z"/>
			<path d="M1710.9,673.4c0.5-1.1,1.9-0.3,2.6,0c-0.2,0.3-0.9,0.3-0.8,1C1712,674.4,1711.3,674,1710.9,673.4z"/>
			<path d="M1706.5,795.7c0.2-1.1,1.2-1.8,2.3-1.6c0.3,0,0.5,0.2,0.8,0.3c-0.1,0.2-0.3,0.3-0.5,0.2c-0.1,0-0.2-0.1-0.2-0.2
				C1708.4,795.3,1707.4,795.9,1706.5,795.7z"/>
			<path d="M1712.7,723.5c-0.7,1-2-0.2-2.6-0.5C1710.8,722,1712.2,723.3,1712.7,723.5z"/>
			<path d="M1711.7,709.3c1.3-1.5,3.2,0.8,3.7-0.5c0.4,0.7,0.6,1.4,0.6,2.2c-0.9-0.4-3.4,0.8-3.6-1.6L1711.7,709.3L1711.7,709.3z"/>
			<path d="M1711.7,722c0.8,0,1.1,1.1,1.1-0.3c0.6,0.2,1.1,0.8,1,1.5C1713.4,722.6,1711.7,723.8,1711.7,722z"/>
			<path d="M1712.9,698.5c0.3-0.3,0.6-0.9,0-1.1c1-1,2.3,0.6,3.3,0c-0.4,0.6-0.6,1.4-0.5,2.1C1713.9,698.8,1715,697.5,1712.9,698.5z
				"/>
			<path d="M1714.2,673.2c0.4-1,1.3,0.8,1.5-0.6c0.8,1.1-1.1,1.3,0,2.5C1714.4,675.2,1715.4,673.3,1714.2,673.2z"/>
			<path d="M1710.1,773.3c1,0,1.3,0,1.1,1.1c0.6-0.6,1.4-0.8,2.2-0.6c0-0.5-0.9-0.3-1.5-0.4c-1.4-0.8,1.8,0,1.5-0.6
				c0.7,0.7,1.6,1.2,2.5,1.6c-0.9,1.9-3.6,0-4.5,1.6C1710.6,775.3,1710.1,774.4,1710.1,773.3z"/>
			<path d="M1712.4,736.7c0-0.4,1.1-1.2,1.1-0.3c0.3-0.3,0.6-0.6,0.8-1c0.4,0.5,1.1,0.8,1.8,0.8v1.4
				C1715,736.9,1713.7,736.6,1712.4,736.7z"/>
			<path d="M1709.6,813.7c0.9-2.7,5.7,0,6-1.8c0.8,0,0,1.3,0.3,1.8C1713.1,812.8,1711.3,814.7,1709.6,813.7z"/>
			<path d="M1710.9,788.4c1.2-1.2,3.9,0,4.5-1.6c1.1,0.5-0.4,1.2,0,2.1C1713.9,788.6,1712.4,788.4,1710.9,788.4z"/>
			<path d="M1716.4,730.5c1.1-0.2-0.8-0.6-0.3-1.5c2.1,0.3,4.3,0.1,6.3-0.7c0.5,0,0.2,0.9,0.3,1.5c-0.7-0.6-2.1-1-1.1,0.3
				c-0.4,1.2-0.7-0.4-1.1-0.4c-1.2,1.4-3.1,2-4.9,1.6c0.3-0.3,0.4-0.7,0.4-1.1C1716.4,730,1716.4,730.2,1716.4,730.5z"/>
			<path d="M1721.4,741.8c-0.5,1.1,1.2,0.3,0.7,1.5c-0.3,0-0.3,0.4-0.4,0.7c-1.8-0.8-3.8-1.2-5.8-1c2.3-1.2,4.9-1.6,7.4-1
				c-0.1,0.4-0.2,0.7-0.4,1.1C1722.1,742.8,1722.1,741.9,1721.4,741.8z"/>
			<path d="M1719.4,715.2c0.8,1.5,2.5,0,3.3,0.9c-0.3,0.3-0.4,0.7-0.4,1.1c-0.3,0-0.2-0.4-0.3-0.7c-0.8,1.6-1.8-1.1-2.2,0.6
				C1719.2,717.6,1719,715.8,1719.4,715.2z"/>
			<path d="M1719,723.1c0-1,1.9-0.4,1.6-2c1.1,0,0.5,1.8,0.6,2.9C1720.4,724.2,1719.5,723.8,1719,723.1z"/>
			<path d="M1718.5,768.8c0-2.7,3,0,4.1-1.6c0.5,0,0.2,0.9,0.3,1.5c-1.9-1-2,0-2.3,1.3c-0.2-0.9-1.1-1.5-2-1.3
				C1718.6,768.7,1718.6,768.8,1718.5,768.8z"/>
			<path d="M1718.2,782.2c0-1.7,2.9-0.6,3.4-1.9c0.9,0-0.3,1.6,1.1,1.1C1722.3,783.3,1719.4,782.2,1718.2,782.2z"/>
			<path d="M1724.2,673c0-0.9,1.7,0.3,1.2-1c1,1.5,2.5-0.3,4.4,0c-0.5,1.3-1.2,1.4-2.6,0.9c-1.5-0.4,1.1,0.8,0,1.4
				c-0.9,0-1.7-0.4-2.1-1.2h-0.7L1724.2,673z"/>
			<path d="M1665.8,738.9c0.5-1.3,3.1-0.4,3.4-1.9c0.6,0,0.9,0.6,1.1,0c0.8,0.6,1.3,1.6,1.4,2.6c-0.8-0.8-1.8-1.2-2.9-1.2
				c-0.8,0,0.5,1-0.4,1.4C1667.4,738.1,1667,739.5,1665.8,738.9z"/>
			<path d="M1725.1,697.7c0.8-1,3.9,0.3,5.2-0.8v2.1c-1.7-1-1.7,0-3.7,0c0-0.9-1.7-0.6-0.7-1.5h-0.7L1725.1,697.7z"/>
			<path d="M1723.1,736.5c0.9-0.9,2.1-1.4,3.4-1.3C1725.9,736.4,1724.4,737,1723.1,736.5z"/>
			<path d="M1726.3,695.9c0-1.1,1.8,1,2.2,0C1729.6,696.7,1726.6,697,1726.3,695.9z"/>
			<path d="M1722.9,775.8c0.3-0.8,1.1-1.2,1.9-1c-0.1,0.7-0.8,1.2-1.5,1.1C1723.2,775.9,1723.1,775.8,1722.9,775.8z"/>
			<path d="M1723.1,800.5c0.4-0.7,1.1-1.2,1.9-1.3c0.5,0.3,0.7,0.9,0.7,1.5L1723.1,800.5z"/>
			<path d="M1723.8,787.1c2.1-0.4,4,1.1,4.9-0.8c0.8,0,0,1.7,0,2.5C1727.9,786.2,1724.3,790.8,1723.8,787.1z"/>
			<path d="M1727.2,721.7c0-0.8,1.3,0,1.8-0.2C1729.1,723.1,1727.7,722.3,1727.2,721.7z"/>
			<path d="M1725.5,775.9c-1.1-0.8,0.3-1.8,0.8-2.1c0.5-0.2,0,1.3,0.3,1.8C1726.9,776.2,1725.6,775.5,1725.5,775.9z"/>
			<path d="M1726.2,762.7c0.3-0.7,0.7-1.4,1.2-2.1c0.7,0.4,1.5,0.4,2.2,0c-0.1,0.6-0.2,1.2-0.4,1.8c-0.3-0.4-1.4,0-1.1-1.1
				c-0.2,0.2-0.5,0.3-0.7,0.3c0.1,0.3,0.3,0.6,0.7,0.7C1728.1,763.2,1726.7,762.7,1726.2,762.7z"/>
			<path d="M1729.3,730.8c0-0.3,0-0.3,0.4-0.3c0-1.6,4.2-2.2,4.5-2.3c0.3-0.1,2.3,0.7,2.1,2.2c-1.4-0.3-3.8,0.4-4-0.9
				c-1,0.4-1.2,0.7-0.8,1.8C1730.8,730.9,1730.1,730.7,1729.3,730.8z"/>
			<path d="M1732.6,667c0.9-0.9,2.1-1.4,3.4-1.3c-0.1,0.6-0.4,1.2-0.8,1.8C1734.5,666.8,1733.5,666.6,1732.6,667z"/>
			<path d="M1732.4,679.1V678c1.1,0.3,2.2,0.3,3.3,0c0.2,0.7,0.3,1.4,0.2,2.1c-0.8-0.4-1.8-0.4-2.6,0
				C1732.5,680.1,1733.7,678.6,1732.4,679.1z"/>
			<path d="M1727.6,800.3c0.4-0.6,1-1.2,1.6-1.7c1,0,0.8,1.7,0.2,2.1C1728.8,800.4,1728.2,800.2,1727.6,800.3z"/>
			<path d="M1732.5,704.4c1.2-1.2,2.9-1.8,4.5-1.6c-0.1,0.6-0.4,1.2-0.8,1.8c-1,0-1.2-0.8-1.1,0.7
				C1734.4,704.7,1733.5,704.4,1732.5,704.4z"/>
			<path d="M1732.3,715.9c1.6-0.2,3.3-0.1,4.9,0.2v1.4c-0.3,0-0.2-0.4-0.3-0.7c-0.1-0.3-0.3,0.4-0.4,0.7c-0.5,0.1-0.9-0.1-1.1-0.6
				c0-0.2,0-0.3,0-0.5c-0.8,0.9-1.8,0-1.9,1C1732.8,717.2,1732.3,716.6,1732.3,715.9z"/>
			<path d="M1731.1,782.6c-0.5-0.8,1-1.3,0-1.4c1.4-0.8,3.1-0.8,4.4,0C1735.3,783.2,1732.5,781.5,1731.1,782.6z"/>
			<path d="M1729.6,820.1c0-1.2,0.8-0.5,0.7,0C1734,820,1730.9,821.1,1729.6,820.1z"/>
			<path d="M1730.6,819.4c1.1-0.7,2.2-1.4,3.4-1.9c-0.6,1.2,0,0.8,1.1,0.4c0.6,0.7-0.2,0.6,0,1.8c-0.7,0.1-1.5,0.1-2.2,0
				C1733.9,818.7,1731.9,819.9,1730.6,819.4z"/>
			<path d="M1731.9,794.8c0.4-0.5,0.5-1.1,0.4-1.7c1.2,0.5,2.4,0.6,3.6,0.5c-0.3,0.4-0.5,0.9-0.4,1.4
				C1734.4,795.1,1733.1,795,1731.9,794.8z"/>
			<path d="M1733.9,791.9c1.1-0.6,2.2-1,3.4-1.3v1.4c-1.5,0.7-3.3,0.7-4.9,0c0.5-0.6,1.2-1,1.9-1.3
				C1734.3,791.2,1734.1,791.6,1733.9,791.9z"/>
			<path d="M1735.3,736.1c0-1.8,3.3,1.2,3.4-0.9c1,0.4,0,1.5,0,2.1C1737.8,736.4,1736.5,735.9,1735.3,736.1z"/>
			<path d="M1739.7,672.7v-1.1c0.9,0.8,1.4-0.7,2.6,0C1742.1,673.4,1741.1,672.2,1739.7,672.7z"/>
			<path d="M1739,721.3c1.6,0.7,3.4,0.5,4.9-0.5c-0.2,1.3-0.7,0.9,0.7,0.7c-2.1,1.1-4.4,1.6-6.7,1.5
				C1739.1,721.7,1740.1,723.5,1739,721.3z"/>
			<path d="M1736.3,774c2.6,0.5,5.2,0.4,7.7-0.3c0.8,0,0,1.5,0.2,2.1c-2.3-1.3-3.7,0.5-6.7,0.7
				C1738.5,775.6,1735.7,775.7,1736.3,774z"/>
			<path d="M1735.4,805c0.4-0.5,0.9-0.9,1.5-1C1737.2,805.3,1736.1,805.8,1735.4,805z"/>
			<path d="M1742.2,673.2c0-0.9,1.3-0.6,2.2-0.6c0-0.6,0.5-1.8-0.7-1.5c1-1.2,1.5,0.9,1.4,1.8
				C1744.3,673.5,1743.2,673.6,1742.2,673.2z"/>
			<path d="M1737.4,788c0-0.9,1.2,0,1.1,0.4c0.3-0.5,0.6-1.1,0.8-1.8c1.7,0.5,3.4,0.6,5.2,0.2v1.4c-1.6-0.6-3.5-0.3-4.9,0.8
				C1738.8,788.8,1738.1,788.5,1737.4,788z"/>
			<path d="M1740.2,747.4c1.4-0.3,2.4,1.5,1.4,2.2C1740.8,749.1,1740.3,748.3,1740.2,747.4z"/>
			<path d="M1744.5,665.8c1-0.2,2-0.2,2.9,0c-0.1,0.3,0,0.6,0.3,0.7c0,0,0,0,0.1,0c-1,0.1-2,0.1-3,0
				C1744.8,666.4,1744.9,665.9,1744.5,665.8z"/>
			<path d="M1739,799.1c1.7,0,3.4,0.1,5.2,0.2c-0.6,2-4.4,0.6-5.6,1.8C1737.6,800.3,1739.3,800.2,1739,799.1z"/>
			<path d="M1741,762.1c0.6-1.1,1.5,0,0.8-1.7c1.1-0.5,2.4,0.1,2.9,1.2c0,0,0,0,0,0c-0.8,0.7-1.9,1.1-3,0.9
				C1741.7,762.1,1741.3,762.2,1741,762.1z"/>
			<path d="M1738.7,812.7c0.7,0.7,1.6,1,2.5,0.8c0-0.7-0.5-0.7-1.1-0.8c-0.6,0,3.2,0,3.4-0.9c1,0.6-0.3,1.9-0.5,2.5
				C1742.1,813.4,1738.5,814.7,1738.7,812.7z"/>
			<path d="M1746.1,690.9c0.6-0.7,1.2-1.2,1.9-1.7c0.6,0.4,1.5,0.4,0.7,1.1c1.1,0,2.1,0,1.9-1.3c0.8,0.9,1,2.1,0.6,3.3
				C1750.9,690.4,1747.8,692,1746.1,690.9z"/>
			<path d="M1747.7,666.3v-1.1c1.1,0.1,2.3-0.1,3.4-0.5c0.2,0.9,0,1.7-0.5,2.5C1749,667.3,1749,666.2,1747.7,666.3z"/>
			<path d="M1746.6,703.8c0.2-0.9,1-1.6,2-1.4c0.1,0,0.2,0,0.3,0.1c0.1,0.6-0.1,1.3-0.4,1.7C1747.8,704.1,1747.2,704,1746.6,703.8z"
				/>
			<path d="M1749.3,728.7c-0.5,0,0,0.5,0,1.1c-0.5,0-1-0.1-1.5-0.4c1.4-0.9,0-0.7-1.1-0.4c0-1.2,1.2-2.2-0.6-2.2
				c0.8-0.5,1.8-0.5,2.6,0c-0.1,0.4-0.2,0.7-0.4,1.1c0.5,0.2,1,0,1.1-0.5c0.1-0.2,0.1-0.3,0-0.5c0.4,0.9,0.9,2.1,1.8,0.8
				c0.8,0,0,1.9,0,2.1C1751.2,730,1749.3,729.7,1749.3,728.7z"/>
			<path d="M1746.5,754.9c0-1.9,2.4,1.5,1.9-1c1.4,0.9,0.9-0.6,1.9-1c1-0.4,0,2.5,1.1,1.1c1.2,1.2-0.9,2-1.3,2.8
				C1748.7,756.7,1747.4,756,1746.5,754.9z"/>
			<path d="M1749.6,701.4c0,0,1.4,1,1.5,0c1.2,0.7,0.7,3.6-1.3,3.2C1750.1,703.3,1749,702.9,1749.6,701.4z"/>
			<path d="M1746.3,780.9c1-2.3,3.5-1.1,5.5-0.4C1750.8,782.5,1748.2,781.5,1746.3,780.9z"/>
			<path d="M1750,715.4v-1.3c0.6-0.3,1.2-0.4,1.8-0.2C1752.1,715.4,1751.2,715.6,1750,715.4z"/>
			<path d="M1751.7,696.9c0.9,0.2,1.7,0.5,2.5,0.8c-0.5,0.5-1.2,0.8-1.9,1C1751.9,698.2,1751.7,697.6,1751.7,696.9z"/>
			<path d="M1752.7,684.9v-1.1c1.6-0.6,3.2-0.7,4.9-0.5C1757.3,685.6,1753.6,683.9,1752.7,684.9z"/>
			<path d="M1749.7,807.9c-1-0.6-2.4,0.5-2.1-1.6C1749,805.9,1750.5,806.5,1749.7,807.9z"/>
			<path d="M1754.5,671.3c0.6-1,1.4,0,3-0.6v-1.1c0.3,1,0.3,2.2,0,3.2c-0.9-0.7-2.1-0.7-3,0C1754.6,672.6,1755.3,671.3,1754.5,671.3
				z"/>
			<path d="M1753,721.6c1.1-0.5,2.4-0.3,3.3,0.5c0.5-0.3,0.8-0.8,0.8-1.4c0.8,0.3,0,2.2,0,2.5c-2.4,0-2-2-3.7,0
				C1752.4,722.5,1753.9,722,1753,721.6z"/>
			<path d="M1751.7,761.2h5.2c0,1.5-0.7,1.8-1.9,1.7v-1.4c-0.8,0.3-1.1,1.4-1.9,1.7C1752.2,762.8,1751.7,762,1751.7,761.2z"/>
			<path d="M1755.6,735.3c-0.3,1.6,0.7-0.2,0.7,0.8c0,1-2.6,0-3.4,0.5c0.4-0.5,0.7-1.1,0.8-1.7c1.3,0.1,2.6-0.2,3.7-0.9
				c1.1,0.7-0.3,1.9,0,2.9C1756.8,736.3,1756.9,735.2,1755.6,735.3z"/>
			<path d="M1754.5,727.8c0.7,0.3,1.4,0.6,2.2,0.8c-1,0-0.5,1.9-1.9,1.7C1754.4,729.5,1754.3,728.6,1754.5,727.8z"/>
			<path d="M1752.5,788.8v-1.4c1.8,1.1,2.4-1.9,4.1-0.9C1756.6,788.7,1754.2,788.4,1752.5,788.8z"/>
			<path d="M1756.2,730c0.7-0.6,1.6-1,2.5-1.3c-0.3,1-1.4,1.6-2.4,1.4C1756.3,730.1,1756.3,730,1756.2,730z"/>
			<path d="M1759.7,705.2c-1.2,0-0.3-2.2-2.1-1.9c0-0.5,0.1-1,0.4-1.4C1758.5,703,1760.8,703.8,1759.7,705.2z"/>
			<path d="M1754.4,779.9c0.3,0.2,0.3,0.8,1.1,0.8c0,0.7,0,1.5-1.2,1.4C1754.5,780.9,1753.6,780.6,1754.4,779.9z"/>
			<path d="M1758.8,743c-1.2,0.8-2.3-0.7-2.5-1.9c1.1-0.2,2.2,0.5,2.4,1.7C1758.8,742.8,1758.8,742.9,1758.8,743z"/>
			<path d="M1758.8,691.6c0.3-1.3,2.2-0.5,2.6,0C1760.4,692.9,1759.8,691.7,1758.8,691.6z"/>
			<path d="M1752.6,814.1c-0.5-1.2,1.5-1.4,0.4-1.7c1.3-0.1,2.7-0.1,4,0C1756,813.7,1754.3,814.4,1752.6,814.1z"/>
			<path d="M1759.6,678.4c1.3-1.2,3,0,3.4-1.6c0.4,0,0.6,3.1,1.1,1.1C1765.4,680.1,1760.4,679.3,1759.6,678.4z"/>
			<path d="M1759.5,702.6c1.8-1.2,4.2,0.8,4.5-0.8c0.4,0.3,0.8,0.7,1.1,1.1c-0.9,1.9-3.4,0-4.9,1.2
				C1760.2,703.4,1759.2,703.6,1759.5,702.6z"/>
			<path d="M1755.6,800.3v-1.1h2.2C1757.7,800.8,1756.7,800.9,1755.6,800.3z"/>
			<path d="M1759.3,729.4c1.3-3.5,3.6-0.5,5.3-2.6C1764.1,730.3,1761.3,729.9,1759.3,729.4z"/>
			<path d="M1762.6,664.2c0.6,0,1.2-0.1,1.8-0.2c0,0.3,0,0.3-0.4,0.3c-0.4,0,0.6,0.3,1.1,0.4c0.1,0.7-0.4,1.4-1.2,1.5
				c-0.7,0.1-1.4-0.4-1.5-1.2C1762.4,664.8,1762.5,664.5,1762.6,664.2z"/>
			<path d="M1757.4,794.3c1.1,0,3.5-2.5,3.7,0c-0.6,0-1.8-0.5-1.5,0.6C1758.8,794.9,1758,794.7,1757.4,794.3z"/>
			<path d="M1761.6,741.3c0.8-1.2,1.4-0.3,2.6,0c0,1-1.4,0.2-1.5,1C1762.3,741.9,1762.3,741.3,1761.6,741.3z"/>
			<path d="M1764.6,697.9c1.8-1.2,3.9-2,6-2.2c0,0.7,1,0.7,0.6,1.8C1769.8,696.2,1766.3,698.4,1764.6,697.9z"/>
			<path d="M1766,684.9c-0.5-0.7,1.9-1.4,3-1.7C1768.9,684.9,1766.8,684.6,1766,684.9z"/>
			<path d="M1764.8,722.9c0-0.5,0.6-0.9,0.8-1.4c1.8,0.3,1.6,0.6,1.9-0.6h2.2c0.2,1.2-0.6,1.1-0.8,1.7
				C1767.5,722.1,1766,722.2,1764.8,722.9z"/>
			<path d="M1763.1,768.6c0-1,1.7-0.3,1.6-1.7c1.1,1,0,1.6,0,2.9C1763.6,769.6,1764.3,768.3,1763.1,768.6z"/>
			<path d="M1765.7,761.9c0-0.5,0.1-1,0.4-1.4c1.1,0.8,3.5-0.6,4.9,0.6c-0.5,0.5-0.8,1.1-0.8,1.7
				C1768.7,762.2,1767.2,761.9,1765.7,761.9z"/>
			<path d="M1765.7,774.8c0.6-0.6,1.4-1.1,2.3-1.3C1768.8,774.3,1766.6,775.5,1765.7,774.8z"/>
			<path d="M1767.6,746.6c0.8,0.8,1.9,1,2.9,0.5c0.5,0,0.2,0.9,0.3,1.5c0,0.5-0.3,0-0.3-0.4c0-0.4-0.3,0.6-0.4,1.1
				c-0.1,0.4-1.3-1.5-1.8-0.4c-0.7-0.3-1.1-1.1-0.8-1.8C1767.4,746.9,1767.5,746.8,1767.6,746.6z"/>
			<path d="M1764.1,814v-1.1c2.5,0.6,5.9-2,8.1,0c-0.9,0.6-3.9,0.6-5.6,1.5C1765.7,813.3,1765.7,813.5,1764.1,814z"/>
			<path d="M1767.3,801.3c-1.4-1.4,2.9-3.8,3-1.3h-1.8c0,0.4,0.8,0.4,0.7,1.1C1769,801.9,1767.8,800.2,1767.3,801.3z"/>
			<path d="M1768.5,774.6c0-0.6,0.5-0.7,0.4-1.4c0.9,0.6,1.9,1,2.9,1.2c0,0.3,0,0.3-0.4,0.3v0.7
				C1770.4,775.2,1769.4,774.9,1768.5,774.6z"/>
			<path d="M1774.4,678.8c0.3-0.6,0.7-1.2,1.2-1.7c0.7,0.7,0.7,0,1.8,0C1777.2,678.6,1775.4,678.3,1774.4,678.8z"/>
			<path d="M1769.1,787.4c0.6-1.4,1.7,0,2.6-0.6C1772,789,1770.1,787.8,1769.1,787.4z"/>
			<path d="M1773.4,715.5c1.5-1.1,3.4-1.4,5.2-0.8C1777.9,716.4,1775.1,715.4,1773.4,715.5z"/>
			<path d="M1768.9,806.5c0-0.6,0.7-0.8,1.5-0.6c0,0.6-0.7,0.9,0,1.1C1769.9,808.3,1769.4,806.5,1768.9,806.5z"/>
			<path d="M1773,755.2c0-0.9,1.3-0.6,2.2-0.6c0,0.5-1.2,0.2-0.8,1.4C1773.4,756.1,1773.7,755.2,1773,755.2z"/>
			<path d="M1775.7,703.1c0-0.6,0.7-0.9,0-1.1c1.3-0.6,1.8,0.9,3-0.6c0.8,0,0,1.3,0.3,1.8C1777.9,702.8,1776.8,702.8,1775.7,703.1z"
				/>
			<path d="M1772.7,781.9c0-1.2,0.8-0.5,1.1-0.3c0.3,0.2,0.3-0.4,0.4-0.7c0.6-0.1,1.3,0.1,1.8,0.4
				C1775.1,782.3,1773.8,782.5,1772.7,781.9z"/>
			<path d="M1778.5,684c-0.4,0-0.3-0.7-0.3-1.1c0.5-0.1,1.1-0.3,1.5-0.6C1780.9,683.1,1778.2,683.1,1778.5,684z"/>
			<path d="M1771.5,820.5c1.3-1.1,2.8-1.9,4.5-2.3c0,0.7,1,0.5,0.7,1.5C1775.4,819.6,1773.4,820.3,1771.5,820.5z"/>
			<path d="M1772.8,795.2v-1.1c1.5-1.2,5.1,0,6.7-1.1c-0.2,0.7-0.4,1.4-0.8,2.1C1776.7,794.8,1774.7,794.8,1772.8,795.2z"/>
			<path d="M1773.7,805.6c0.9-1,4.4,1.4,5.2-0.4c0.4,0.7,0.6,1.4,0.6,2.2c-2.2,0.4-2.4-1.6-3.7,0
				C1775,806.9,1774.3,806.3,1773.7,805.6z"/>
			<path d="M1779.1,721.5c0.5,0.6,1.3,1.6,0.6,2.2C1779.1,724.3,1779.1,722.5,1779.1,721.5z"/>
			<path d="M1779.5,735.9c1.5-1.8,3.7-2.7,6-2.5v2.1C1783.7,736.3,1781.5,736.4,1779.5,735.9z"/>
			<path d="M1783.5,695.3c1.3-0.2,1.8,1,2.2,0c0.5,0.6,0.6,1.4,0.2,2.1c-0.6,0-1.8-1.1-2.2,0
				C1782.5,696.7,1783.6,696.4,1783.5,695.3z"/>
			<path d="M1779.7,775.1c0-1.1,2,0,1.6-1.7c1.6,0.4,3.3,0.4,4.9,0v1.8C1783.5,773.7,1781.7,776.1,1779.7,775.1z"/>
			<path d="M1779.5,786.6c0.7,0.4,1.4,0.7,2.1,1.2c-0.8,0.3-0.4,1.8-1.6,1.7c0-0.5,0-1,0.4-1.1
				C1779.9,788,1779.5,787.3,1779.5,786.6z"/>
			<path d="M1781.1,761.6c1.3-0.6,2.7-1.2,4.1-1.6c0.8,0,0,1.3,0.3,1.8c0.3,0.5-0.2-0.4-0.3-0.7
				C1784,761.9,1782.5,762.1,1781.1,761.6z"/>
			<path d="M1786.7,811.9c-0.3,0.7-0.5,1.4-0.5,2.1c-2.1,0.2-4.2-0.1-6.2-0.7C1781.9,812.1,1784.3,811.5,1786.7,811.9z"/>
			<path d="M1783.1,755.6c0.1-0.4,0.2-0.8,0.4-1.1c1.2-0.2,0.7,1,1.4,1.1C1784.4,757,1783.7,755.9,1783.1,755.6z"/>
			<path d="M1787.9,690.2c1.6-1,3.4-1.4,5.2-1.2C1792.8,691,1789.4,691,1787.9,690.2z"/>
			<path d="M1787.9,715.5c0.5-0.8,1.4-1.1,2.2-1c-0.2,0.8-1.1,1.3-1.9,1.1C1788.2,715.6,1788,715.6,1787.9,715.5z"/>
			<path d="M1789,781c-0.2,0.3-0.9,0.3-0.8,1h-2.2c0.5-0.3,0.9-0.8,1.2-1.4C1787.8,780.7,1788.4,780.8,1789,781z"/>
			<path d="M1787.1,767.3c0.8,0.2,1.7,0.2,2.6,0c0.1,0.5,0.4,1,0.7,1.5c1.1,0-0.4-0.9,0-1.8c0.6,0,1.8,0.4,1.5-0.6
				c1.5,0.4,0.9,1.9,0.6,3.3c-0.8,0,0-1.6-1-1.5c-0.3,0.5-0.6,1.1-0.8,1.8c-1.1-0.4-2.2-0.6-3.3-0.5
				C1787.1,768.7,1787.1,768,1787.1,767.3z"/>
			<path d="M1788.5,754.5c0-2.3,3.5-1.3,4.2-3c0.5,1.4,0.5,2.9,0,4.3c-1,0.3-2,0.5-3,0.6C1790.8,755.1,1789.8,754.8,1788.5,754.5z"
				/>
			<path d="M1788.7,780.6c0.8-1.6,2.2-0.3,3.1-2c1,0-0.4,1.9,0.6,1.8c0,0.9-1.5,0-1.2,1.4C1790.3,781.6,1789.4,781.2,1788.7,780.6z"
				/>
			<path d="M1791.3,736.1V735c0.6,0.1,1.2,0.2,1.8,0.4c-0.2,0.6-0.8,1-1.4,0.8C1791.5,736.2,1791.4,736.2,1791.3,736.1z"/>
			<path d="M1794.7,684.1c0.9-2.4,4.9-1.9,6.7-1.5C1800.1,684.9,1798,683.1,1794.7,684.1z"/>
			<path d="M1795.6,695.6c1.9-0.7,4-0.8,5.9-0.4C1800.8,697.3,1797.3,696.2,1795.6,695.6z"/>
			<path d="M1794,747.7c1.9-1.8,4.6-2.5,7.1-1.8c0.3,0.8,0.3,1.7,0,2.5c-0.5,0-0.2-0.9-0.3-1.5c-0.3,1.1-3,0-2.7,1.7
				C1797.7,747.1,1795.3,748.7,1794,747.7z"/>
			<path d="M1794.8,761.6c0.1-0.4,0.2-0.7,0.4-1.1c1.9,0.4,3.9-0.2,5.3-1.5c0.4,0.3,0.8,0.7,1.1,1.1c0,1.2-2.6,0-1.9,2
				c-1.1-0.3-3.5,0.6-2.9-1.2c-0.4,0-0.3,0.6-0.4,1C1796.2,762.4,1795.5,761.6,1794.8,761.6z"/>
			<path d="M1793.5,799.8c0.4-0.8,1.8-0.5,2.3-1.3c0.9,0,0,1.6,0,1.8c-0.4-0.1-0.7-0.2-1.1-0.4c0,0.7,0.5,0.7,1.1,0.8
				C1794.8,801.6,1794.1,800,1793.5,799.8z"/>
			<path d="M1798.3,708.9c0-1.4,2.8-0.7,2.2,0.5C1799.7,709.5,1798.9,709.3,1798.3,708.9z"/>
			<path d="M1794.3,813.4c0.7-0.6,0-0.9,0-1.8c1.6-0.6,1.8,1.9,1.8-0.2c1.7,0.2,3.4,0.3,5.2,0.2c-0.4,0.5-0.5,1.1-0.4,1.8
				C1798.3,814.7,1796.9,812.2,1794.3,813.4z"/>
			<path d="M1797.3,791.9c-0.9,0.9,1.3,1.1,0.6,2.9c-0.3-0.2-0.7-0.4-1.1-0.4C1797.1,793.7,1795.6,791.9,1797.3,791.9z"/>
			<path d="M1803.1,664.5c0.1-0.6,0.2-1.2,0.4-1.7c1.2,0.6,1.8,1.1,2.6,0c0.8,0,1.7,0.3,1.4,1.5c-1.3-1.2-1.4-0.3-1.9,1
				C1804.8,665.2,1803.9,664.9,1803.1,664.5z"/>
			<path d="M1801.8,754.5c0.3-1.2,1.5-1.4,3.7-1.2c0,0.8-1.8,0-1.6,1.4c0.7,0.3,1.4,0.4,2.2,0.5c-0.3,0.8-1.1,1.2-1.9,1
				c1.1-1.4-3.1-0.6-4.4-0.9c-0.4-1.2,1.2,0,0.8-1.4C1801.2,753.9,1801.5,754.1,1801.8,754.5z"/>
			<path d="M1797.7,807.9v-2.1c0.8,0.2,1.4,1,1.4,1.8C1798.4,807.5,1798.3,808,1797.7,807.9z"/>
			<path d="M1801.9,730.2v-1.8c2.2-0.7,3.4-0.5,5.2-1.2c0.8,0.6,0.5,0.9,0.3,1.8C1805.5,729,1803.6,729.4,1801.9,730.2z"/>
			<path d="M1798.1,819.7c0.2-0.3,0.9-0.3,0.8-1c0.3,0.3,0.7,0.5,1.1,0.8c-0.4,0.6-1.1,0.7-1.7,0.4
				C1798.2,819.8,1798.1,819.7,1798.1,819.7z"/>
			<path d="M1803.6,740.3c0.7,0.8,2.4-0.8,2.5,0.8c0.5-0.5,1.2-0.8,1.9-1c0.9,1-0.7,1.5-0.9,2.4
				C1806.5,741.4,1803.5,742.2,1803.6,740.3z"/>
			<path d="M1801.9,781.3v-1.1c1.2,0.1,2.4-0.3,3.4-0.9c-0.5,0.6-0.9,1.3-1.2,2.1C1803.7,782.2,1803,780.8,1801.9,781.3z"/>
			<path d="M1801.3,806.5c0.2-0.5,0.3-0.9,0.4-1.4C1803.4,805.1,1802.9,807.2,1801.3,806.5z"/>
			<path d="M1802.5,791.9c1,0.7,2.4,0.7,3.4,0c0.5,0.8,1.9,0.8,1.8,2.2c-1.5-1.1-3.6-0.9-4.7,0.6c-0.1,0.1-0.1,0.1-0.2,0.2
				C1801.6,794.3,1802.2,792.9,1802.5,791.9z"/>
			<path d="M1805.9,752.6c1.8-0.2,2,2.1,1.3,2.9C1806.7,754.6,1806.2,753.6,1805.9,752.6z"/>
			<path d="M1805.2,781.5c0.6-0.6,0.4-2.1,1.9-1.7c-0.1,0.3,0,0.6,0.3,0.7c0,0,0,0,0.1,0C1807,781.3,1806.1,781.7,1805.2,781.5z"/>
			<path d="M1811.3,669.6c1.1-1,2.7-1.1,4.1-0.5c-0.5,0.7-0.9,1.4-1.2,2.1C1813,671.2,1811.9,670.6,1811.3,669.6z"/>
			<path d="M1804.6,806.5c0.1-0.6,0.4-1.2,0.8-1.7c1.2,0.6,1.1,0,1.9-0.6c0.3,0.9,0.3,1.9,0,2.9
				C1806.5,806.6,1805.6,806.4,1804.6,806.5z"/>
			<path d="M1805.7,800.1c2.9-1.5,6.1-2.4,9.3-2.7c0.4,0.5,0.6,1.1,0.6,1.8c-1.6,2.7-5.2-0.7-6.7,1.8
				C1808,800.3,1806.8,800,1805.7,800.1z"/>
			<path d="M1813.1,706.5c-0.9,0-1.8-0.1-2.6-0.5c0.7-0.7,1.6-1.1,2.6-0.9L1813.1,706.5z"/>
			<path d="M1815.4,705.2c0.3,1.3,0.1,2.7-0.6,3.9c-1.6-0.4-3.1-0.3-4-0.6C1811.8,706.8,1813.5,705.7,1815.4,705.2z"/>
			<path d="M1813,700.4c0.4,1.3,0.4,2.7,0,3.9C1810.8,703.3,1812.9,702.3,1813,700.4z"/>
			<path d="M1814.9,772.5c0.8,0,0,1.9,0,2.1c-1.8-0.7-3.8-0.7-5.5,0C1808.6,771.8,1813.2,773.9,1814.9,772.5z"/>
			<path d="M1810.7,760.3c1.4-2.1,2.6-0.5,4.9-1.6c-0.1,1-0.2,1.9-0.5,2.8C1813.6,761,1812.2,760.6,1810.7,760.3z"/>
			<path d="M1816.8,664.2c0.7-0.9,5.3-2.6,5.5,0C1819.3,664.2,1819,664.2,1816.8,664.2z"/>
			<path d="M1810.3,810.7c1.2,0.7,1.6,0,2.2-0.6c0.8,0,1.6,0.3,2.2,0.8v1.8c-1.6,0.1-3.1,0.5-4.5,1.2
				C1808.9,813.2,1809.9,811.7,1810.3,810.7z"/>
			<path d="M1811.3,806.1V805c0.5-0.5,2.2-0.5,2.2,0.5C1813.4,806.5,1811.9,806.5,1811.3,806.1z"/>
			<path d="M1816.7,714.6c-0.4-1.5,3.8,0,5.5-0.4c-0.2,0.5-0.3,0.9-0.4,1.4C1820.1,715.5,1817.5,714.4,1816.7,714.6z"/>
			<path d="M1814.7,754.4c2.1-1.6,4.8-2.1,7.3-1.4c-0.6,0.6-1,1.3-1.2,2.1C1818.7,755.1,1816.7,754.9,1814.7,754.4z"/>
			<path d="M1820.9,676.5c-1.3,0-2.1,0-1.7-1.5c0.8-0.2,1.6,0.3,1.7,1.1C1820.9,676.3,1820.9,676.4,1820.9,676.5z"/>
			<path d="M1814.7,768.4c-0.3-1.1,0.9-0.6,1.5-0.6c0.6,0,0,1,0.3,1.1C1815,770,1816.4,768,1814.7,768.4z"/>
			<path d="M1818.6,700v-1.1c1,0.3,2,0.3,2.9,0c0.3,1.9-0.9,0-0.8,1.4C1819.6,700.7,1819.7,699.8,1818.6,700z"/>
			<path d="M1817.6,734.6c0-0.5,0.6-0.9,0.8-1.4c0.6,0.2,1.1,0.8,1,1.5L1817.6,734.6z"/>
			<path d="M1821,675.2c0.7,0,0.8-0.4,1.5-0.3c0.5,0.8,0.3,1.9-0.5,2.5C1821.4,676.8,1821.1,676,1821,675.2z"/>
			<path d="M1818.8,745.4c0.3,0.9,0.3,1.9,0,2.9C1818.1,747.4,1818.1,746.2,1818.8,745.4z"/>
			<path d="M1817.7,766.7c1.5,1.2,2.1,0,4.4,0c0,3-3.5-0.3-4.1,1.6C1816.8,768.1,1817.8,767.8,1817.7,766.7z"/>
			<path d="M1818.7,740.7c0.9-1.5,2.6-0.3,3.4-0.5C1823.3,742.3,1819.7,741.3,1818.7,740.7z"/>
			<path d="M1816.3,794.2c1.7-1.4,3.9-1.9,6-1.5C1823,794.1,1817.5,793.9,1816.3,794.2z"/>
			<path d="M1819.7,728.3c0-0.3,0.5-0.2,0.7-0.3c0.2-0.1-0.8-0.4-0.7-1.1h1.8c-0.2,0.6-0.4,1.1-0.4,1.8
				C1820.8,728.3,1820.2,728.2,1819.7,728.3z"/>
			<path d="M1816.4,807c0.3-0.8,0.7-1.5,1.2-2.1c1.8,0,4-0.7,4,1.7C1819.8,806.4,1818.1,806.5,1816.4,807z"/>
			<path d="M1816.1,818.8c1.2-1.4,4.5-0.4,5.6-1.8c0,0.4,0.7,0.3,1.1,0.4v2.5C1820.5,820,1817.1,821.1,1816.1,818.8z"/>
			<path d="M1818.1,780.3c1.3-0.6,2.7-0.8,4.1-0.5c0,0.6,0.4,0.8,0.3,1.5C1821,781.5,1819.4,781.2,1818.1,780.3z"/>
			<path d="M1824.2,669.9c1.9,0.4,1.4-1.5,1.9-1.7c0.5-0.2,1.8,1.6,1.8-0.2c1,0.5,1.6,1.5,1.7,2.6
				C1827.9,670.9,1825.9,670.7,1824.2,669.9z"/>
			<path d="M1819.6,765.4c-0.3-1.1,0.6-0.8,0.8-1.4c1,0,0.8,1.7,0.2,2.1C1820.2,766.6,1820.4,765.3,1819.6,765.4z"/>
			<path d="M1821.5,735.9c0.6-0.9,1-1.8,1.3-2.8c0.6,0.5,0.9,1.4,0.6,2.2C1822.9,735.6,1822.2,735.8,1821.5,735.9z"/>
			<path d="M1824.7,682.8c0.7-2.7,4.9,0,4.9-1.9c0.6,0.4,0.8,1.1,0.6,1.8C1828.5,681.9,1827.3,683.5,1824.7,682.8z"/>
			<path d="M1820.1,778.6c0.2-0.3,0.5-0.6,0-0.7c0.5-1,1.6,0.4,2.2,0.5C1822,779.6,1820.9,778.8,1820.1,778.6z"/>
			<path d="M1823.9,733.9c1.7,0,3.3-0.4,4.9-1.2c0.9,0.5,1.3,1.6,1,2.5C1826.8,733.6,1824.2,737.5,1823.9,733.9z"/>
			<path d="M1822.8,761.3c0.7-0.9,2-1.1,3-0.5v1.1C1824.8,761.9,1823.7,761.7,1822.8,761.3z"/>
			<path d="M1825,719c1.7,0.3,3.3,0.8,4.9,1.3v1.4c-2.2,0.4-2.4-0.6-4.4,0C1825.1,720.8,1824.9,719.9,1825,719z"/>
			<path d="M1823.2,774.5c0.5-2.9,4.9-0.6,5.6-1.5c-0.1,0.3,0,0.6,0.3,0.7c0,0,0,0,0.1,0C1827.2,774.1,1825.2,774.4,1823.2,774.5z"
				/>
			<path d="M1824.6,812.8c-0.2,0.5-0.5,1-0.8,1.4c-0.6-0.5-1.4-0.8-2.2-0.8c0-1.1,1-0.6,0.8-1.8c0.5,1.1,0.9,0,1.8,0.8
				c0.9,0.8,0-1.3,0.4-1.8c1.3,0.3,2.7,0.3,4.1,0c2-0.3,0.4,2.5,1,2.5C1828,813.6,1826.2,813.5,1824.6,812.8z"/>
			<path d="M1830.1,676c1-0.9,3.4,0,3.8-2.3c1.5,0.4,2.5,1.8,2.4,3.4c-1.6,0.6-3.3,0.6-4.9,0C1832.5,675.2,1831.1,677,1830.1,676z"
				/>
			<path d="M1826.8,771.5c1.3-1.5,2.2,0,3.7-0.5C1829.5,772.8,1828.7,770.9,1826.8,771.5z"/>
			<path d="M1827.7,760.1c0.8-0.6,1.1-1.2,2.2-0.6c0.1,0.6-0.1,1.3-0.4,1.8C1828.7,761.2,1828,760.8,1827.7,760.1z"/>
			<path d="M1827.5,785.1c0.2-0.3,0.9-0.3,0.8-1c0.3,0.3,0.7,0.4,1.1,0.4v2.1h-1.5C1827.8,786,1828,785.2,1827.5,785.1z"/>
			<path d="M1829.5,752.3c0.4,0.1,0.7,0.2,1.1,0.4v0.7c-0.6,0-0.7,0-0.8,0.7C1828.6,753.7,1829.7,753.5,1829.5,752.3z"/>
			<path d="M1831.1,714.9c0.8-1.4,2.6-1.8,3.9-1c0,0,0.1,0.1,0.1,0.1c-0.3,0.7-0.7,1.4-1.2,2.1C1833,715.8,1832,715.4,1831.1,714.9z
				"/>
			<path d="M1835.7,726.2c0,0.7-0.2,1.5-0.5,2.1c-1.1-0.6-2.4-0.8-3.6-0.5c0-0.7,0-1.1-0.7-1.1
				C1832.5,726.5,1834.1,726.3,1835.7,726.2z"/>
			<path d="M1830.6,739.6c1.7-0.3,3.4-0.3,5.2,0c0.1,0.8-0.2,1.6-0.8,2.1c-1.5-1.8-2.6,0.6-4,0
				C1830.4,741,1830.3,740.3,1830.6,739.6z"/>
			<path d="M1833.2,688.6c0.5-1,1.6-1.5,2.6-1.3C1835.4,689,1834.3,688.3,1833.2,688.6z"/>
			<path d="M1831.3,768.1c0.3-1.1,1.4-1.8,2.5-1.5c0.2,0,0.4,0.1,0.5,0.2c0,0.6-0.5,0.7-0.4,1.4L1831.3,768.1z"/>
			<path d="M1830.7,793.9c0.4-2.2,3.5-1.5,5.3-2.2c-0.3,0.7-0.5,1.4-0.5,2.1C1833.5,793.4,1832.6,794.2,1830.7,793.9z"/>
			<path d="M1830.1,819.5c0.3-2.3,5.3-1.9,6.7-0.7C1835,820.6,1832.2,820.9,1830.1,819.5z"/>
			<path d="M1834.3,780.4c0-1.1,1.2-0.7,1.9-1c0,0.6-0.5,0.7-0.4,1.4C1835.8,781.6,1835.1,780.4,1834.3,780.4z"/>
			<path d="M1839.8,681.4c1.2-0.5,2.5-0.5,3.7,0C1842.4,682,1841,682,1839.8,681.4z"/>
			<path d="M1844.2,731.7c0.2,0.8,0.2,1.7,0,2.5c-2.2,0.3-4.4,0.4-6.7,0.4c0-1.1,0.7-1,0.5-2.1
				C1839,734.3,1842.2,732.5,1844.2,731.7z"/>
			<path d="M1836.6,787.7c-0.4,0-0.3-0.7-0.3-1.1c3.2,0,5.3-2,7.4,0C1842.4,789.4,1838.4,786.8,1836.6,787.7z"/>
			<path d="M1839.6,720.7c0.3-1.9,2.8-1.6,4.5-1.9c0.3,2-1.9,1.1-2,2.8C1841.4,721.1,1840.5,720.8,1839.6,720.7z"/>
			<path d="M1838,774.2c1.7-1.5,4.9-1.1,6.4-2.9v2.5C1842.5,773.3,1840.1,774.8,1838,774.2z"/>
			<path d="M1839.1,759.6c2.1,1.7,2.3-0.6,5.2,0c-0.4,0.4-0.4,1.3-0.8,1.7c-1.5,0.4-4.2-1.1-4.1,0
				C1838.2,761,1839.2,760.7,1839.1,759.6z"/>
			<path d="M1842.6,727c0.2-0.3,0.9-0.3,0.8-1c0.5,0.2,1,0.3,1.5,0.4c-0.5,0.3-0.9,0.6-1.2,1C1843.4,727.1,1843,727,1842.6,727z"/>
			<path d="M1843.8,741.3c0.9-1,2.9-2.5,4.1-0.9C1846.6,741.2,1845.2,741.6,1843.8,741.3z"/>
			<path d="M1844.8,727.8c0-0.3,0-0.3,0.4-0.3c0.5-0.7,0.8-1.6,0.9-2.4c0.8,0,1.4,0,1.5-0.6c0.6,1,2.1,1.3,2.8,2.3
				C1848.6,727.3,1846.7,727.7,1844.8,727.8z"/>
			<path d="M1844.6,767.6c0.4-1.6,3.2-0.6,3.5-2.3c1.7,1.2,1.4-0.7,2.6-0.9c-1.3,1.2,0.8,1.3,0.6,2.5c-1.2,2.1-4,0-6,1.5
				C1845.2,768,1844.9,767.7,1844.6,767.6z"/>
			<path d="M1843.3,807c0-0.3,0.5-0.6,0-0.7c2.1-0.6,5.5-2.5,7.8-0.7C1848.7,806.9,1846,807.4,1843.3,807z"/>
			<path d="M1848.2,740.1V739c1.2-0.1,2.4,0.4,3.3,1.2C1850.7,742,1849.8,739.7,1848.2,740.1z"/>
			<path d="M1844.5,819.6c0.8-2.1,3.9-1.6,5.9-0.8C1848.8,820.3,1846.4,820.6,1844.5,819.6z"/>
			<path d="M1846.3,791.9c1,0,2.2,0,2.2,0.8c0.6-0.4,1.2-1,1.6-1.7c0.8,0.5-0.5,1.9-0.9,2.5c-1-0.1-2-0.1-3,0
				C1845.6,792.8,1846.3,792.9,1846.3,791.9z"/>
			<path d="M1852.1,707.4c0.3-0.3,0.4-0.7,0.4-1.1c0.4-0.1,0.9,0.2,1,0.6c0.1,0.3-0.1,0.6-0.3,0.8
				C1852.9,707.5,1852.5,707.4,1852.1,707.4z"/>
			<path d="M1855.3,746.2c-0.2,0.5-0.5,1-0.8,1.4c-2.8,0.3-1.1-1.1-3.6-0.9c1.4-1.8,4.4,0,5.6-2.2c0,0.4,1.6,1.5,1.8,0.8
				c0.2,0.3,0.4,0.5,0.7,0.7c-0.6,0.7-1.4,1.2-2.3,1.3C1856.6,746.6,1855.3,746.9,1855.3,746.2z"/>
			<path d="M1847.9,810.4c0.7,0.7,2.5,1.7,1.7,2.6C1848,813.1,1847.7,812,1847.9,810.4z"/>
			<path d="M1851.9,733.6c0.3-0.8,1.1-1.3,2-1c0.3,0.1,0.5,0.2,0.7,0.4C1853.8,733.6,1852.8,733.9,1851.9,733.6z"/>
			<path d="M1853.6,706.4c1.6-1.2,3.7-1.1,5.2,0.2c0,0.9-1.5,0-1.2,1.4C1856.1,708.2,1854.6,707.6,1853.6,706.4z"/>
			<path d="M1855,701.5c0-0.6,0.5-0.7,0.4-1.4c1,0,0.7,0.7,1.4,0.8C1856.4,701.5,1855.7,701.7,1855,701.5z"/>
			<path d="M1852,773.9v-1.1c2.4,0,6.2-1.5,6.6,0.3C1856,773,1854.7,775,1852,773.9z"/>
			<path d="M1855.3,731.9c1.2-0.4,3.1-0.4,3.3,0.9c-0.6,1.3-2.1,1.8-3.4,1.3C1854.4,733.2,1855.4,733,1855.3,731.9z"/>
			<path d="M1852.2,799.6c0.5-2.3,3.6-1.9,6-2.2c0.3,0.7,0.6,1.5,1,2.2c0,0.8-2,0-1.9,1C1856,798.7,1853.5,801.6,1852.2,799.6z"/>
			<path d="M1852.9,786.4c1.8-1.9,4.7-2,6.7-0.4C1857.4,787.1,1855,787.2,1852.9,786.4z"/>
			<path d="M1851.9,811.8c2-2,5.1-2.3,7.4-0.7c-1.4,2-4,2.9-6.4,2.2C1853.3,812.1,1852.4,812.1,1851.9,811.8z"/>
			<path d="M1855.4,779c0.3-0.4,0.5-0.9,0.4-1.4c1.2,1,2.5,1.8,3.9,2.3C1858.5,781.5,1857.3,779.1,1855.4,779z"/>
			<path d="M1860.9,700.8c0.2-0.7,0.6-0.7,1.1-0.3c0.9-0.9,2.4-1,3.3-0.1c0,0,0,0,0.1,0.1C1864.4,701.8,1863,700.7,1860.9,700.8z"/>
			<path d="M1859.7,753.6c1.1-1.9,5.6-2.5,5.9,0.3C1863.7,754.4,1861.6,754.3,1859.7,753.6z"/>
			<path d="M1861.5,726.1c0-1.6,2.2-0.8,3,0C1864.2,726.9,1861.7,727.5,1861.5,726.1z"/>
			<path d="M1860.1,766.4c1.3-1.3,3.2-1.7,4.9-1.2C1865,768,1862,766.5,1860.1,766.4z"/>
			<path d="M1861.5,739.7c0.9-1.3,2.7-1.7,4.1-0.9C1864.9,740.6,1863.5,739.3,1861.5,739.7z"/>
			<path d="M1862.8,714.1c0.6-1.1,1.8-1.6,3-1.3C1865.7,714.1,1863.8,713.6,1862.8,714.1z"/>
			<path d="M1860.1,780.3c0.6-1.5,2.2-2.4,3.8-1.9c-0.1,1.4-1.3,2.4-2.6,2.3C1860.9,780.7,1860.5,780.6,1860.1,780.3z"/>
			<path d="M1867.3,719.3c1.4-1.4,3.4-2,5.3-1.5c-0.5,1.7-2.3,2.7-4.1,2.2C1868.1,719.8,1867.7,719.6,1867.3,719.3z"/>
			<path d="M1867.9,758.3c0,0.6,1.7-0.3,2.2-0.6c0.5,0.8,0.7,0.7,1.8,0.4c-0.4,1.4,1,1.1,0.6,2.5c-2.3-0.7-4.8-0.5-7,0.3
				c0.9-0.9,1.6-1.9,2-3.1C1868.2,757.9,1868.3,758.3,1867.9,758.3z"/>
			<path d="M1867.4,733.2c-1.2-1.2,1.7-1.2,1.3-2.8c1.2,0.1,2.5,0.1,3.7,0c0.2,1.1,0.2,2.2,0,3.3
				C1870.6,735.2,1868.3,732.6,1867.4,733.2z"/>
			<path d="M1867.1,745c1.8-0.8,3.8-0.8,5.5,0v1.4c-1.7-0.2-3.5-0.1-5.2,0.4C1867.1,746.3,1867,745.6,1867.1,745z"/>
			<path d="M1865.7,811c-1,0.7,0.9,1.4,0,2.1C1863.4,813.7,1863.6,810.2,1865.7,811z"/>
			<path d="M1869.5,706.5c0.7-1.2,2.1-1.7,3.4-1.3C1872.8,707,1870.6,707.2,1869.5,706.5z"/>
			<path d="M1865.7,810.3c2.5,0.2,4.9,0.2,7.4,0v1.8C1869.3,812.6,1865.3,813.8,1865.7,810.3z"/>
			<path d="M1866.2,799.6c0.4-1.9,3.3-2.9,7.1-2.1C1872.7,801.1,1869,800.5,1866.2,799.6z"/>
			<path d="M1869,773v-1.1c0.3,0.8,2.4-0.3,1.5-0.6c0.9-1.2,1,1.2,1.8,1.2C1871.3,773,1870.1,773.2,1869,773z"/>
			<path d="M1870.6,751.3c-1.1-0.4,0.5-0.9,0-1.8c0.6-0.1,1.3,0.1,1.8,0.4C1871.7,750.2,1871,750.6,1870.6,751.3z"/>
			<path d="M1876,687.2c0-0.7,1-0.4,0.8-1.4c0.3,0.3,0.7,0.4,1.1,0.4C1877.9,687.3,1877,687.2,1876,687.2z"/>
			<path d="M1871.6,779.9c1.8-2.9,4.2-1.6,7.8-1.7c-0.3,0.4-0.5,0.9-0.4,1.4c-1.8,0-2.8-1.1-3,0.9
				C1874.6,779.8,1873.1,779.6,1871.6,779.9z"/>
			<path d="M1873,767.1V766c2,0.9,2.8-1.7,5.2,0C1876.8,767.4,1874.8,767.8,1873,767.1z"/>
			<path d="M1874.4,740c1.4-2.9,4.3-0.9,6.7-1.8c0,0.8,0.6,1.5,0,2.1c-0.9,0-1.9,0-1.8-1.2C1877.9,740.3,1876.1,740.6,1874.4,740z"
				/>
			<path d="M1876.1,713.3v-1.1c0.5-0.7,2.6,0.2,2.6-0.9c0.8,0.6,1.1,1.7,0.6,2.5C1878.3,713.8,1877.2,713.6,1876.1,713.3z"/>
			<path d="M1876.9,699c0.7,0.3,1.4,0.6,2.2,0.8c-0.3,0.2-0.6,0.4-0.8,0.7C1877.8,700,1876.8,700.1,1876.9,699z"/>
			<path d="M1873.2,806.1c1.5-2.3,4.5-2.9,6.7-1.5C1878.1,806.5,1875.5,805.2,1873.2,806.1z"/>
			<path d="M1872.9,818.9c2.3-1.5,5.1-2,7.8-1.4c-0.1,0.6-0.4,1.2-0.8,1.7C1877.5,819.5,1875.2,819.3,1872.9,818.9z"/>
			<path d="M1879.1,706.7c0.7-0.7,1.8-0.7,2.6,0C1881.4,707.3,1879.8,706.5,1879.1,706.7z"/>
			<path d="M1876.2,811.4c1-2.1,2.3,1.9,3.7,0c1.4,1-1.6,0.5-1.2,1.7C1878,812.4,1877.2,811.8,1876.2,811.4z"/>
			<path d="M1878.6,766.3c0.2-0.3,0.9-0.3,0.8-1c0.6,0.2,1.3,0.2,1.8,0C1880.7,766.3,1879.6,766.7,1878.6,766.3z"/>
			<path d="M1882.3,694c0-0.5,1.3-1.3,0.4-1.4c0.7-0.4,1.5-0.6,2.2-0.6C1884.6,693.2,1883.5,694,1882.3,694z"/>
			<path d="M1882.4,705.8c1.7,0,4-1.9,5.2-0.4C1886,706.3,1884.1,706.5,1882.4,705.8z"/>
			<path d="M1882.9,731.5c1,0,6.7-2.1,5.4,2.4c-1.8-1-4-0.9-5.5,0.4C1882.4,733.5,1882.5,732.4,1882.9,731.5z"/>
			<path d="M1884,718.7v-1.1c1.7-1,5.6-0.6,3.9,2C1886.6,719.2,1885.3,718.9,1884,718.7z"/>
			<path d="M1881.9,772.2c1.9-1.2,4.2-1.5,6.3-0.7c0,1.1-1.1,0.6-0.8,1.8C1886,771.3,1883.2,774,1881.9,772.2z"/>
			<path d="M1880.6,812.1c1.7-1.9,4.4-2.5,6.7-1.5c-0.2,0.6-0.4,1.1-0.4,1.8C1884.7,811,1882.4,814.2,1880.6,812.1z"/>
			<path d="M1885.2,745.6c0.2-0.6,0.4-1.2,0.8-1.8c0.6,0.6,1.2,1.2,1.8,1.9L1885.2,745.6z"/>
			<path d="M1889.5,675.2c0.9-1.9,3.2-2.7,5.1-1.8c0.2,0.1,0.3,0.2,0.5,0.3C1893.6,675.1,1891.5,675.6,1889.5,675.2z"/>
			<path d="M1889.7,687.2c1.2-1.2,3-1.5,4.5-0.8C1892.8,687.2,1891.2,687.5,1889.7,687.2z"/>
			<path d="M1890,699.5c0-0.5,1.9-0.6,0.8-1c0.9-0.7,3.5,0,3.3,1.2C1892.8,700.1,1891.3,700,1890,699.5z"/>
			<path d="M1888.3,740.4c0.4-0.9,0.8-1.9,1.3-2.8c1.4,1.8,3.8,0.4,5.5,1C1894.2,741.5,1891.1,739.6,1888.3,740.4z"/>
			<path d="M1890,726.9c-1.6-0.4,1.4-0.9,0-1.1c1.1-0.5,2.3-0.5,3.3,0C1892.1,726.7,1891,725.7,1890,726.9z"/>
			<path d="M1886.8,792.5c0-0.3,0-0.3,0.4-0.3v-0.7c1.8,2.6,4.9-2.3,6.6,0.3C1891.5,792.5,1889.1,792.8,1886.8,792.5z"/>
			<path d="M1889.2,753.7c0.6-2.6,5.3-0.8,4.9-4.4c0.8,1,1.2,2.3,0.9,3.6c-0.6-0.2-1.2-0.5-1.8-0.8c-0.4,0-1.5,1.6,0,1.4
				C1892.4,754.9,1890.4,753,1889.2,753.7z"/>
			<path d="M1891.7,712c0-1.2,0.8-0.5,1.1-0.3c0.5-0.6,1.4-0.7,2-0.3c0.1,0.1,0.2,0.2,0.3,0.3c-0.2,0.3-0.9,0.3-0.8,1
				C1893.4,712.4,1892.6,712.2,1891.7,712z"/>
			<path d="M1890.3,766.6c0-2.9,2.6-2,4.5-1.6C1894,766.6,1892,767.3,1890.3,766.6z"/>
			<path d="M1895.7,719.3c0.9-1.6,6.6-3.9,5.9,0.3C1899.8,718.7,1897.4,721,1895.7,719.3z"/>
			<path d="M1894.4,759.3c1-1.9,3-0.4,4.1-1.9c0.9,0.5,1.9,0.8,2.9,0.9c-0.2,0.9-4.4,2.1-3.4,0.9
				C1897,759.8,1895.5,759.9,1894.4,759.3z"/>
			<path d="M1898.2,706.2v-1.8c0.9,0.2,1.7,0.4,2.5,0.8C1900,705.8,1899.1,706.1,1898.2,706.2z"/>
			<path d="M1899.8,679.5c0.3-0.4,0.5-0.9,0.4-1.4h1.8v1.8C1900.6,680.1,1900.7,679.3,1899.8,679.5z"/>
			<path d="M1897,745.8c-1.4-1,2.3-1.1,1.5,0.4c-0.3,0-0.6-0.5-0.7,0c-0.1,0.5-0.2-0.4-0.3-0.7C1897.2,745.2,1897,745.6,1897,745.8z
				"/>
			<path d="M1894.9,810.4c3.3,1.1,2.6-1.3,6-1.5c0.8,0.9,1.2,2.1,0.9,3.3c-2.8,0.3-5.3,0-6.6,0
				C1894.9,811.7,1894.8,811,1894.9,810.4z"/>
			<path d="M1896.7,772.5c0-1.6,1.1-0.5,1.6-2c1.1,0.3,2.2,0.5,3.3,0.5C1900.2,772.2,1898.4,772.8,1896.7,772.5z"/>
			<path d="M1904,673.7c0.6-0.6,1.4-0.8,2.2-0.6C1906.5,674.4,1904.6,673.5,1904,673.7z"/>
			<path d="M1903.8,713c0.6-1.9,2.6-3.1,4.6-2.6c0,0.7,0.4,1.3,1,1.5C1907.7,712.8,1905.7,713.2,1903.8,713z"/>
			<path d="M1902.8,753.7c0-1.5,1.9-1.3,3-1.7C1905.4,753,1904.2,754.8,1902.8,753.7z"/>
			<path d="M1905,725.5c0.2-1.6,2.4-1.2,4.1-1.2C1908.5,726.3,1906.8,725.3,1905,725.5z"/>
			<path d="M1901.6,806.1c1.7-2,4.5-2.9,7.1-2.1C1907.7,807.3,1904.1,805.6,1901.6,806.1z"/>
			<path d="M1905.1,738c1.2,0.3,2.5,0.3,3.7,0c0,0.6,0.4,0.8,0.3,1.5C1907.7,739.7,1904.6,740.2,1905.1,738z"/>
			<path d="M1904.6,777.7c0.6,0.1,1.2,0.2,1.8,0.4c-0.1,1.2-1.1,2.1-2.3,2c0,0,0,0,0,0C1903.8,779.3,1904,778.3,1904.6,777.7z"/>
			<path d="M1903.4,791.9c0.3-0.6,0.7,0,1.1,0c0-0.9,2.7-1.3,4.1-0.5C1908.2,793.4,1905.2,792.3,1903.4,791.9z"/>
			<path d="M1905.7,777c-0.5-1.3,1.3,0,1.2-1c0.9,0,0,1.2,0,1.4C1906.5,777.1,1906.1,777,1905.7,777z"/>
			<path d="M1911.1,692.2c0.8-2.1,3.4-3.4,4.4-0.5C1914.3,692.8,1912.5,693,1911.1,692.2z"/>
			<path d="M1910.5,718c0.2-1.5,3.7-1.1,4.9-0.5c-0.1,0.6-0.4,1.2-0.8,1.8C1913.1,719.1,1911.8,718.6,1910.5,718z"/>
			<path d="M1911.2,705.1c0.8-2,2.6-1.8,4.5-1.2C1915.4,706.4,1912.4,705.2,1911.2,705.1z"/>
			<path d="M1905.8,817.7v-1.4c0.9,0.7,2.7-1,3.3,0.9c-0.5,1-1.7,1.4-2.7,0.9C1906.1,818,1905.9,817.9,1905.8,817.7z"/>
			<path d="M1911.8,758.4c0.2-0.3,0.9-0.3,0.8-1c1.4,0.2,2.8,0.5,2.9,1.9c-0.8,0.4-1.7,0.6-2.6,0.6
				C1912.7,759.2,1912.3,758.7,1911.8,758.4z"/>
			<path d="M1910.5,796.8c1.6-1.1,5.5-0.6,5.4,1.7c-1.7-0.4-3.5-0.4-5.2,0C1910.6,797.9,1910.5,797.4,1910.5,796.8z"/>
			<path d="M1911.6,811.4c-0.7-1.5,4.9-1.8,4.9,0.2C1914.7,813.2,1912.7,810.7,1911.6,811.4z"/>
			<path d="M1671.3,727.5v-1.4c1.4-0.5,3-0.5,4.4,0C1675,728,1672.3,726.5,1671.3,727.5z"/>
			<path d="M1922.1,671.4c0.6,0,0.8-0.4,1.5-0.3c0.7,0.9,0.5,0.8,0.2,2.1h-1.5C1922.1,672.7,1922,672,1922.1,671.4z"/>
			<path d="M1922.4,765.7c-1-0.1-2,0.1-3,0.5c-0.7,0.3-1.2-1.1-1.5,0c-0.9-2.4,7.6-2.8,4,0C1922,765.8,1922.2,765.7,1922.4,765.7z"
				/>
			<path d="M1917.3,780.1c0-1.1,0.6-2.2,1.6-2.8c1,0.2,1.9,0.6,2.9,0.9C1920.6,779.4,1919,780.1,1917.3,780.1z"/>
			<path d="M1917,805.8c0.5-0.6,0.8-1.3,0.8-2.1c1.4-0.8,4,1.1,4.5-1.2c1.5,0.7,0.7,2,0,3.2C1920.6,805.9,1918.8,805.9,1917,805.8z"
				/>
			<path d="M1920,790.9c-0.6,0.7-1.4,1-2.2,1C1918.2,791.2,1919.2,790.3,1920,790.9z"/>
			<path d="M1926.1,666.2c0.3-0.3,0.4-0.6,0.4-1c0.6,0,1.4,0,1.5,0.4c0.4,0,0.4-0.8,1.1-0.6C1928.9,666.3,1927.6,666.4,1926.1,666.2
				z"/>
			<path d="M1920,790.9c1.1-0.3,2.2-0.3,3.3,0c-0.3,0.4-0.5,0.9-0.4,1.4c-1-0.1-2-0.4-2.9-0.9C1920.2,791.4,1920.5,791,1920,790.9z"
				/>
			<path d="M1928.9,679.3c-1,0.3-1.8-1.3-1.8,0.2c-0.2-0.4-0.4-0.8-0.7-1.1c1-1,2.4-1.4,3.7-0.9
				C1929.6,678,1929.2,678.6,1928.9,679.3z"/>
			<path d="M1921.4,785.6c0.3-0.8,2.5-1.5,2.2,0C1922.9,785.4,1922.1,785.4,1921.4,785.6z"/>
			<path d="M1928.2,704.4c0-0.6,0.5-0.7,0.4-1.4h1.5c-0.2,0.3-0.5,0.6,0,0.7C1929.5,705,1929.3,704.1,1928.2,704.4z"/>
			<path d="M1925.6,797.3c1.7-0.9,3.7-1.3,5.6-1.1c0,3.2-3.5,2.1-5.3,2.6C1925,798.2,1926.4,797.5,1925.6,797.3z"/>
			<path d="M1933.6,685.9c0-1.1,1.3-0.4,0.8-1.8c0.3,0.2,0.7,0.4,1.1,0.4C1934.8,684.9,1934.9,686.3,1933.6,685.9z"/>
			<path d="M1928.9,785.4c0.3-0.4,0.5-0.9,0.4-1.4c0.3,0,0.2,0.4,0.3,0.7c0.5-0.5,1.3-0.5,1.8,0
				C1931.3,785.8,1929.8,785.3,1928.9,785.4z"/>
			<path d="M1934.6,672.4c0-0.9,1.5,0,1.2-1.4c1.9,0.5,3.5-0.4,3.6,1.3c-0.4-0.7-1.3,0-0.4,0.3
				C1937.6,673.4,1935.9,673.3,1934.6,672.4z"/>
			<path d="M1932.3,739.5c0-1.7,1.9-0.7,1.9-2c1.6,0,2,0.7,3.6,0.5C1936.2,739,1934.2,739.5,1932.3,739.5z"/>
			<path d="M1934.1,724.5c0-0.8,1.9,0,2.2,0S1934.4,724.8,1934.1,724.5z"/>
			<path d="M1933.1,752.7v-1.1c1.6-0.3,3.2-0.5,4.9-0.5C1936.9,752.7,1934.9,753.3,1933.1,752.7z"/>
			<path d="M1932.8,779.1c0.9,0.5,0.7,1.3-0.8,1c0.3-2.3,2.5-3.9,4.8-3.5c0.3,0,0.6,0.1,0.9,0.3c-1,0.8,0.9,0.6,0.2,2.1
				C1936.2,779.4,1934.5,779.4,1932.8,779.1z"/>
			<path d="M1936.6,697.5c1.2-1.6,2.2,0,3.4-0.5v1.4c-0.8,0-2.4-0.6-2.6,0C1937.2,698,1936.9,697.8,1936.6,697.5z"/>
			<path d="M1932.9,804.8c1.2-2.1,5.3-3.1,6.3,0c-0.3,0-0.2-0.4-0.3-0.7C1937,804.9,1934.9,805.1,1932.9,804.8z"/>
			<path d="M1936.9,749c0.3-0.3,0.4-0.7,0.4-1.1c0.8,0,1.7,0.3,1.4,1.5C1938.2,749.2,1937.6,749,1936.9,749z"/>
			<path d="M1940.7,690.6c0.9-1.3,5.2,0,4.5-1.9c1.1,0.6,1.8,1.7,1.7,3c-2,0.4-3.9,0.6-5.9,0.8
				C1940.6,691.9,1940.5,691.2,1940.7,690.6z"/>
			<path d="M1945.4,663c-1.4,0.8-1.7,0.8-1.2,2.4C1942,665.2,1943.5,662.3,1945.4,663z"/>
			<path d="M1941.1,731.7c0.7-1.1,2.1-1.6,3.4-1.3C1944.3,731.8,1942.4,731.4,1941.1,731.7z"/>
			<path d="M1943.5,703.9c-0.4,0-0.3-0.7-0.3-1.1c0-0.4,2.1-0.7,2.2,0C1945.5,703.5,1943.5,702.3,1943.5,703.9z"/>
			<path d="M1943.5,757.9c1-0.3-1.1-0.9,0-1.4h2.2c0.1,0.4,0.3,0.8,0.7,1.1c-0.2,0.3-0.9,0.3-0.8,1c-1.8,0.2-2.9-1.1-3.7,0
				c-0.8,0,0-1.6,0.5-1.7c0.6-0.1,1.1,0.4,1.1,0.9C1943.5,757.8,1943.5,757.8,1943.5,757.9z"/>
			<path d="M1945.3,744.4c0,1.1-1.6,1-2.6,0c0.6-0.7,3-1,2.9,0.5C1945.3,744.8,1945.3,744.6,1945.3,744.4z"/>
			<path d="M1941.1,796.8c1.4-0.6,2.9-0.8,4.4-0.5c0.5,2.6-2.3,1.5-4.1,1.6C1941.5,797.3,1941.5,796.8,1941.1,796.8z"/>
			<path d="M1946.7,738.4c1.8-2.2,5.1-2.7,7.4-1.1C1952.2,739.4,1949.1,739.8,1946.7,738.4z"/>
			<path d="M1950.4,709.6c1-0.7,3.5-1.4,4,0.9c-1.2-0.1-2.5-0.1-3.7,0C1951.1,710.2,1951.2,709.9,1950.4,709.6z"/>
			<path d="M1946.6,803.4c1.9-1.2,4.1-1.6,6.3-1.1c0.2,0.6,0.3,1.2,0.3,1.8C1951,804.1,1948.8,803.9,1946.6,803.4z"/>
			<path d="M1948.4,791.3c0-1.1,1.1-0.6,0.8-1.7c1.6,0.3,3.3,0.3,4.9,0c0.3,0.9,0.1,1.8-0.5,2.5
				C1951.9,791.6,1950.2,791.3,1948.4,791.3z"/>
			<path d="M1951.3,756.9c1.1,0.3,1.1-0.6,2.2,0c-1,0.9,0.6,0.3,0.3,1.5C1952.6,757.9,1951.2,757.9,1951.3,756.9z"/>
			<path d="M1956.2,689.8c1.4,0,2.8,0,4.1-0.5v1.8c-1,0.1-2,0.3-3,0.6C1956.7,691.2,1956.3,690.6,1956.2,689.8z"/>
			<path d="M1956.6,717.5c1.7-0.9,3.4-1.5,5.3-1.8c0.1,0.9-0.2,1.8-0.9,2.4C1959.2,717.5,1958.1,718.2,1956.6,717.5z"/>
			<path d="M1959.9,743.8c1.7-1.9,4.4-2.5,6.7-1.5C1965.2,744.4,1963,743.3,1959.9,743.8z"/>
			<path d="M1966.1,684c0-0.7,1-0.4,0.8-1.4c1.1,0,1.4,0.6,1.8,0c0.5-0.6,0,1.3,0.3,1.8C1968,684.5,1967,684.4,1966.1,684z"/>
			<path d="M1964.4,751.5c1-1.1,2.8-1.2,3.9-0.1c0,0,0.1,0.1,0.1,0.1C1967.1,753,1966.1,751.6,1964.4,751.5z"/>
			<path d="M1960.8,705.7c1.2-1.6,4.1-0.6,5.3-1.5c0,0.7,0,1.3,0.3,0.7C1966.9,706.8,1963,706.1,1960.8,705.7z"/>
			<path d="M1963.9,722.1c1.1-0.3,2.2-0.5,3.4-0.5c0,0.3-0.5,0.2-0.7,0.3c0.4,0.4,0.9,0.6,1.4,0.8
				C1966.6,723.6,1964.8,723.4,1963.9,722.1C1963.9,722.1,1963.9,722.1,1963.9,722.1z"/>
			<path d="M1964,734.8v-1.4c1.5-0.6,4.3-1.7,4.4,0.9C1966.9,734.6,1965.5,734.8,1964,734.8z"/>
			<path d="M1955.4,771.1c0.3-0.4,0.5-0.9,0.4-1.4c1.2-0.2,2.5-0.2,3.7,0c-0.4,0.7-0.7,1.4-0.8,2.1
				C1957.7,771.3,1956.6,771.1,1955.4,771.1z"/>
			<path d="M1648.1,766.8c0-1.5,1.6,0.4,1.4,1.1c-0.5,0-1,0-1.1,0.3C1646.9,767.6,1650,766.7,1648.1,766.8z"/>
			<path d="M1654.9,686.5c-0.5,0,0-0.3,0-0.7c-1.1,0.2-2.1,0.6-3,1.3c-1-0.8,1-1,0-2.1c1.3,0.4,2.7,0.6,4,0.6
				C1656.7,686.7,1654.8,685.6,1654.9,686.5z"/>
			<path d="M1691.7,693.9c-0.7,1.1,1.3,1.5,0.3,1.8c-1.3-1.5-1-0.4-3.3-0.5c0-1.7,2.3-0.8,3-1.7
				C1692.1,693.6,1691.9,693.9,1691.7,693.9z"/>
			<path d="M1681.9,694.7c0,0.4,0.8,0.4,0.7,1.1c-3.1-0.8-1.7,0.6-4.4,0C1678.8,694.7,1681.6,695.8,1681.9,694.7
				C1682.4,694.4,1682.2,694.7,1681.9,694.7z"/>
			<path d="M1666.4,683.8c0.7,0,0,1.6,1,1.5c0,0.4-0.4,0-0.4,0c-1.1-0.3-0.8,0.9-1.9,0.6c-0.3-0.5-0.8-0.8-1.4-0.8
				C1665.5,683.4,1665.9,685.5,1666.4,683.8z"/>
			<path d="M1653.6,725c0-0.3,0-0.3,0.4-0.3v-0.8c1.1,0.7,2.4,0.8,3.6,0.5v1.4c-1.3,0.3-2.6-1.7-1.8,0
				C1655.1,726.7,1655.2,723.8,1653.6,725z"/>
			<path d="M1696,687.7c0.3,0,0.2,0.4,0.3,0.7c0.6-0.3,1.2-0.6,1.9-0.6c-0.8-1.5,1.4,0.6,1.6-1.4c0.3,0.9,0.3,1.9,0,2.9
				c-0.5-0.3-0.9-0.9-1-1.5c-0.6,0-0.8,2,0.3,1.5c0,0.9-1.7-0.3-1.2,1c-0.3,0-0.2-0.4-0.3-0.7C1697.5,689.3,1695.8,689.1,1696,687.7
				z"/>
			<path d="M1649.1,706.6c-0.7-1,1.8,1,2.2,0c0.3-1-1.7,0-1.1-1.1c0.6-1.1,3.5,1.5,3.4-0.9c0.8,0,0,1.3,0.3,1.8
				C1651.3,706.7,1650.8,708.8,1649.1,706.6z"/>
			<path d="M1651.8,748.2c0-0.6-0.1-1.2-0.3-1.8c0.8,0,2.5,0.7,2.2-0.6c0.7,0,0.7,0.5,1.5,0.4v1.8c-1.1,0-1.3,0-0.8,0.7
				C1653.6,748.4,1652.7,748.2,1651.8,748.2z"/>
			<path d="M1651.8,673.5c1.1,0-0.4,2.4,0.6,2.5C1651.8,677,1650.9,674.2,1651.8,673.5z"/>
			<path d="M1654.2,730.5c-0.4,0.8-0.4,1.7,0,2.5h-1.8c2.7-1.4-2.2,0-1.7-2.6C1651.8,730,1653,730,1654.2,730.5z"/>
			<path d="M1656.7,710.9c1,0,1.8,0,1.4,1.2h1.1C1658.5,712.9,1656.7,711.9,1656.7,710.9z"/>
			<path d="M1657.9,701c-0.5,0,0-2.1,1.2-1.7c-0.2,0.2-0.3,0.4-0.4,0.7c0.7,0,0.7-1,1.9-0.6c-0.4-0.4-0.9-0.6-1.4-0.8
				c0.7-0.3,1.5-0.3,2.2,0c0,0.8-0.3,1.5-0.8,2.1C1660,700.3,1658,700,1657.9,701z"/>
			<path d="M1664.3,669.9c0.7-0.5,1.3-1.3,1.6-2.1c0.8-0.3,1.7,0.1,2.2,0.8C1667,669.4,1665.7,669.8,1664.3,669.9z"/>
			<path d="M1665.9,796c-0.5,0,0-0.4,0-1.1c-1.3,0.9-2.9,1.2-4.5,0.8c1.9-0.9,3.9-1.5,6-1.8c0.1,0.9,0.3,1.7,0.6,2.5
				C1667,796.2,1666.9,794.7,1665.9,796z"/>
			<path d="M1670.6,676.3c-1.6,0.4-2.7-1.2-2.1-1.6c0.6-0.3,0.4,0,1.1,0.4c1.3-0.5,0.3-1.2,0.9-2.5c1,0.4,2,0.4,3,0
				c0.9,0.8,1.3,2.1,0.9,3.3C1672.3,676.1,1670.9,673.7,1670.6,676.3z"/>
			<path d="M1663.3,782.2c1,1,0.8-1,1.2-1.4c0.3,1.1,2.1,0.6,2.6,0c0.4,0.3,0,1.9,1.4,1.2c0,0.5-0.1,1-0.4,1.4
				c-0.3,0-0.2-0.4-0.3-0.7c-1.5,0.9-3.2,1-4.9,0.5C1662.9,782.8,1663,782.4,1663.3,782.2C1663.7,782.2,1663.5,782.2,1663.3,782.2z"
				/>
			<path d="M1671.3,712c1.1-0.2-0.8-0.6-0.3-1.5c1,0.5,2.2,0.7,3.3,0.5c-0.4,0.8-1.1,1.4-1.9,1.7c0-0.6,0.5-0.7,0.4-1.4
				c0-0.7-0.7,0.5-0.8,1h-1.8C1670.1,711.9,1671.3,711.2,1671.3,712z"/>
			<path d="M1671.3,700.9c-0.3-0.9-0.1-1.8,0.5-2.5c0.8,0.7,2.4,0.6,2.1,2.2C1673,700.4,1672,700.5,1671.3,700.9z"/>
			<path d="M1670,751.3c-0.1-0.4-0.3-0.8-0.7-1.1c1.7-0.2,3.3-0.6,4.9-1.2c0.8,0,0,1.5,0.2,2.1c-1.1,0.4-1.8-1.1-2.2,0
				c-0.6-0.3,0-0.6,0-1.1C1671.6,750.6,1670.9,751,1670,751.3z"/>
			<path d="M1672,763.1c0.1-0.2,0.3-0.3,0.5-0.2c0.1,0,0.2,0.1,0.2,0.2c0.4-0.6,1.2-0.9,1.9-0.6
				C1674.5,763.6,1672.5,763.6,1672,763.1z"/>
			<path d="M1677.7,682.4c-1.3-1.8,2.4,0.4,1.2-1.7c0.3,0.4,1.4,0,1.1,1.1C1679.2,681.8,1678.4,682,1677.7,682.4z"/>
			<path d="M1681.4,709.7c-0.8,0,2.5-0.9,2.2,0.8c0.5-0.3,0.8-0.8,0.8-1.4c0.7,0.7,3.5,1.6,3.7,0c0.6,1,0.6,2.2,0,3.2
				c-1.2-1-2.9-1-4,0c-0.5-0.4-1.6-0.4-1.4-1.5c-0.6,0-0.9,0.6-0.8,1.4C1680.1,711.2,1683.2,710,1681.4,709.7z"/>
			<path d="M1683.2,675.2c0-0.3,0.4-0.2,0.7-0.3c0.1-0.3,0-0.6-0.3-0.7c0,0,0,0-0.1,0c1.3-1.2,3.2-1.5,4.9-0.8
				C1686.8,674.3,1685,675,1683.2,675.2z"/>
			<path d="M1684.4,686.3c-1.3,0,1.4-0.9,0-1.1c1.1,0.1,2.2,0.1,3.3,0c1.3,0.7-1.1,0.5-0.4,1.7
				C1685.8,687,1685.2,684.6,1684.4,686.3z"/>
			<path d="M1687.9,698.6c-1.3,1.7-1.9,1.1-4.1,0.9c0.6-0.4,1.2-0.7,1.9-1C1685.5,699.5,1686.9,699.2,1687.9,698.6z"/>
			<path d="M1684.2,783.5c-0.6-0.4-0.8-1.3-0.4-2c0-0.1,0.1-0.1,0.1-0.2c0.5,0,0.2,0.9,0.3,1.5c0,0.5,0.3,0,0.4-0.3
				C1685.8,782.6,1684,782.9,1684.2,783.5z"/>
			<path d="M1687.2,747.5c0.5,0.8,1,1.7,1.4,2.6c-0.7,0.4-1.4,0.6-2.2,0.6c0-0.7-0.6-0.9-0.7-0.4c-1.2-1.2,1.4-1.8,2.2-1
				C1687.7,748.6,1686.8,748.6,1687.2,747.5z"/>
			<path d="M1685,775.6c0.2-0.7,0.7-1.3,1.2-1.7c1.5,0.7-2,1.9,0.6,1.8C1687.8,776.5,1685.4,775.8,1685,775.6z"/>
			<path d="M1693.9,667.8C1691.7,669.8,1690,667.8,1693.9,667.8L1693.9,667.8z"/>
			<path d="M1690.5,755.9c-0.6,1.8,1.7,1.1,1.4,2.6c-0.8-0.2-1.4-0.8-1.7-1.5c-1.1-0.3-0.8,0.9-1.9,0.6c0-0.7-1-1.2-0.3-1.8
				C1688.9,756.4,1690,756.9,1690.5,755.9C1690.7,755.6,1690.7,755.9,1690.5,755.9z"/>
			<path d="M1692.6,705.7c-0.4,0,0-0.4,0-0.3c0-0.8-1.3,0-1.8-0.4c-0.7-1.3,2.5,0,1.2-1c0-0.8,1.3,0,1.8-0.2c-0.3,0.7,0.5,2,0.7,1.1
				c0.5,0,0,0.4,0,1.1C1694.2,704.9,1693.3,705,1692.6,705.7z"/>
			<path d="M1688.3,782.9c0.2-0.3,0.9-0.3,0.8-1c0.9,0,1.4,0.7,1.5-0.6c1.6,1.3,1.2,0,2.2-0.2c-0.2,0.7-0.2,1.4,0,2.1
				C1691.4,782.5,1689.8,782.4,1688.3,782.9z"/>
			<path d="M1690,770.9c0-3.7,2.6-1.6,4.2-3c0.5,0.3,0.7,0.9,0.7,1.5C1694,770.7,1690.3,768.9,1690,770.9z"/>
			<path d="M1698.5,698.8c1.1-0.2-0.8-0.6-0.3-1.5c0.7-0.2,1.5-0.2,2.2,0c-0.5-0.5-0.5-1.3,0-1.8c0.3,0.9,0.5,1.9,0.6,2.9
				c0.4,0,0.3-0.6,0.4-1.1c1,0.4,0,1.5,0,2.1h-1.8v-1.1c-0.8,0.5-1.8,0.5-2.6,0C1697.2,697.7,1698.2,698.2,1698.5,698.8z"/>
			<path d="M1697.5,763c0-1.5,1.8-0.6,1.6-2c1.8,0,3.3,0.3,3.2,1.9c-0.7,0.2-1.5,0.2-2.2,0c0-0.5,0.1-1,0.4-1.4
				c-0.3,0.2-0.7,0.3-1.1,0.3C1699.3,762.1,1698.8,764.3,1697.5,763z"/>
			<path d="M1697.2,774.5c0.9-0.4,2.1-0.5,1.9-2c1.7-0.4,1.7,1.5,1,2.2c1.4,0.6,0-1.6,1.5-1c1.5,0.6-1,1.9-1.3,3.2
				C1698.9,776.9,1697.5,775.9,1697.2,774.5z M1699.4,774.9c-0.7,0-0.8-0.3-0.3-0.7c-1,0-1,0.7-1.2,1.4
				C1698.7,775.7,1699.3,775.6,1699.4,774.9L1699.4,774.9z"/>
			<path d="M1707.2,680.1c-0.5,0,0-0.6,0.4-0.7c-0.4-1.1-1.3,0.3-2.2,0c-0.5,0.6-1.1,1.9-1.9,1c0.5-0.5,1.6-0.2,1.2-1.7
				c2.6-0.8,3.4,1.2,4.4,0.6c1,0.4-0.9,0.7-0.8,1.4C1708.3,681.3,1707.7,679.2,1707.2,680.1z"/>
			<path d="M1699.3,805.3c-0.9,1.1-1.9-0.6-1.4-1.8c0.5,0.1,0.8,0.6,0.7,1.1c0.2-0.2,0.5-0.3,0.7-0.3
				C1700.4,804.4,1697.8,804.8,1699.3,805.3z"/>
			<path d="M1703,705.5c0.7-1.2,0.5,1.1,1.8,0.4c-0.5-0.5-0.8-1.2-1-1.8c1.7-1.2,3.9-1.2,5.5,0c-0.1,0.6-0.2,1.2-0.4,1.7
				c-0.5-1.3-1.7-0.5-2.6,0c0-0.8-0.5-0.7-1.1-0.8c0.2-0.2,0.3-0.4,0.4-0.7c-1.6,0.4,0,1.9-1.2,2.4
				C1703.2,707.3,1703.7,705.6,1703,705.5z"/>
			<path d="M1703.4,718c0.5-2.2,1.9-1.3,4.1-1.2c-0.2,0.3-0.5,0.6,0,0.7c-0.8,0.9-3.4-1.5-2.6,0.6
				C1704.8,719,1704.3,717.5,1703.4,718z"/>
			<path d="M1703.6,744.1c0.3-1.1,0.8-2,1.6-2.8c1.4,0.9,3.5,0.3,3.9,2.7c-0.3-0.2-1-0.6-1.1,0c-0.1,0.6-0.2-0.9-0.3-1.5
				C1706.6,744.2,1704.5,742.7,1703.6,744.1z"/>
			<path d="M1705,730.9c0.1-0.5-0.2-1-0.7-1.1c0.3-0.5,4.6-1.7,4.4,0C1707.2,727.7,1707.4,731.9,1705,730.9z"/>
			<path d="M1706.1,767.1c0,0.8,1,0,0.8-0.7c0.7,0.9,2.9,0.4,2.5,2.3c-1.5-0.8-1.6,1.4-3,1.7c-0.6-0.2-1.2-0.4-1.8-0.4
				c0-2.7,2.7,0,3.1-2.3c-0.3,0-0.3,0.4-0.4,0.7c-1.2,0-0.6-1-1.8-0.8c0.3-0.2,0.6-0.4,0.8-0.7
				C1706.5,766.8,1706.3,767.1,1706.1,767.1z"/>
			<path d="M1706.1,794.6c-0.8,0.1-1.5-0.1-2.2-0.5c0.5-1.1,2.9,0,3.4-1.3C1708.7,793.9,1705.5,793.1,1706.1,794.6z"/>
			<path d="M1707.7,714.1c0-0.6,0.7-0.8,1.5-0.6c-0.1,0.5,0,1,0.3,1.5C1708.8,714.8,1708.2,714.5,1707.7,714.1z"/>
			<path d="M1711.4,684.9c1.2-0.3,2.5-0.3,3.7,0c-0.8,1.9-2.7,0.8-5.2,1.2C1710.1,686,1713.6,685.8,1711.4,684.9z"/>
			<path d="M1708.3,774.3c0.4-1.1,1.4,1.9,1.8,0.8c0.9,0-0.4,1-1.1,0.6C1708.9,775.2,1708.6,774.7,1708.3,774.3z"/>
			<path d="M1710.1,749.8c-1.2-0.5,2.3-2.4,2.2-0.6c1.1-0.9,2.7-1.3,4.1-0.9v2.1c-0.8-1.2-4-2-4.4,0.5c-1.1-0.6-0.5-1.3,0-2.1
				C1711.3,748.6,1710.4,749,1710.1,749.8z"/>
			<path d="M1713.6,763.2c-0.5,0,0-0.4,0-1.1c-1,0.7-2.2,0.9-3.4,0.5c0.4-0.5,0.7-1.1,0.8-1.8c1.9-0.3,3.9,1.2,4.1-0.5
				c0.3,0,0.5,1,0.7,0.4c0.2-0.6,0,1.3,0.3,1.8C1715.3,762.4,1714.4,762.7,1713.6,763.2z"/>
			<path d="M1711,799.5c0.9-0.4,1.9-0.6,3-0.6c-0.2,0.7,0.1,1.4,0.6,1.8C1713.3,800.6,1712.1,800.2,1711,799.5z"/>
			<path d="M1720.5,666c0.4,0.3,0.9,0.5,1.5,0.4c1.1,0-2.2,0.4-1.9,1.7c-0.5-0.5-2.1,0-1.7-1.5c1,0,0.7,0.7,1.4,0.8
				c0.7,0,0-0.6-0.3-0.7C1719.3,665.5,1720.7,667.7,1720.5,666z"/>
			<path d="M1717.1,768.7c-0.4,0-1,0.6-0.4,0.7c-1,1.1-0.8-0.8-1.1-0.8c1.2-0.6,2.7,0,3.2,1.2c0,0,0,0,0,0c-0.7,0.3-1.4-0.1-1.7-0.7
				C1717.1,768.9,1717.1,768.8,1717.1,768.7z"/>
			<path d="M1717.8,703.7c1.6-0.6,3.2-0.9,4.9-0.8c0.3,0.5,0.4,1.2,0.3,1.8C1722.1,705.4,1718.4,706.4,1717.8,703.7z"/>
			<path d="M1715.7,794.7c-1.1-0.5,0.8,0,0.7,0.4c0.8-0.5,1.5-1.2,1.9-2c0.9,0,1.4,0.7,1.5-0.6c1.2,0,1.7,1.8,2.6,0.5
				c1.1,0.5-0.7,1.2-0.5,2.1C1719.9,793,1717.5,796.8,1715.7,794.7z"/>
			<path d="M1717.7,755.9c0.8,0,2.7-0.3,1.9-2c0.8,0.5,1.9,1.2,2.6,0c0.9,0.3-0.8,2.1,0,3.2c-0.7,0.8-1.3-1.4-2.6-0.5v-1.4
				C1719.2,755.7,1719,757.6,1717.7,755.9z"/>
			<path d="M1720.2,806.5c-0.8,0.5-1.7,0.8-2.6,0.9c0.6-3,4.1,0.8,4.5-1.6c1.3,0.3,0,1.1,0,1.8h-2.2
				C1720.2,807.3,1720.3,806.9,1720.2,806.5z"/>
			<path d="M1725.4,685.5c0-0.5,0.6-0.9,0.8-1.4c0.3,0.7,1.1,1,1.8,0.8c-0.2-0.6-0.3-1.2-0.3-1.8c0.7,0,0.8,0.5,1.5,0.4
				c-0.3,0.3-0.4,0.7-0.4,1.1c1.1,0.4,0.7-0.8,0.8-1.4c0.6,0.5,0.9,1.4,0.6,2.2c-0.5-0.1-1,0.2-1.2,0.6
				C1728.6,684.1,1727.2,685.9,1725.4,685.5z"/>
			<path d="M1718.9,818.8c0.2-0.3,0.9-0.3,0.8-1c0.8,0,2.4,0.6,2.6,0c0.4,0.8,0.7,1.6,0.6,2.5c-0.9,0.1-1.7,0.1-2.6,0
				c0.4-0.4,0.4-1,0-1.5C1720,818.4,1719.3,818.4,1718.9,818.8L1718.9,818.8z"/>
			<path d="M1723.9,750.1c0.1-0.6,0.1-1.2,0-1.8c1.2-0.2,2.5-0.2,3.7,0v1.4c-1.2-0.6-1.1,0-1.9,0.6c-0.8,0.6,0-0.3-0.3-1.1
				C1724.8,749.2,1724.2,749.5,1723.9,750.1z"/>
			<path d="M1725.5,812.3c0.2-0.8,3.8,1.4,3.7,0c0.9,0,0,1.6,0,1.8c-1.6-0.4-3.2-0.4-4.9-0.2C1723.8,812.4,1727,813.5,1725.5,812.3z
				"/>
			<path d="M1728.3,750c0.9-1.3-0.9-1.8,0-2.9c0.8,0,0.5,0.7,1.1,0.8c0.6,0,0.3,0,0.4-0.3C1729.7,748.5,1729.1,749.4,1728.3,750z"/>
			<path d="M1729.6,742.6c2.2-0.5,4.3-1.1,6.4-1.8c0.3,0.8,0.3,1.7,0,2.5c-1.7-1.5-2.7,1.7-2.6-0.5c-1.1,0.4-2.2,0.7-3.4,0.9
				C1730.2,743.3,1730.2,742.7,1729.6,742.6z"/>
			<path d="M1736.5,691.5c-3,0-1.6,0.8-4-0.9c0.3-0.3,0.5-0.7,0.8-1c0.4,1.5,2,1.1,2.9,0c0.3,0.8-0.8,1.3,0.6,2.2
				C1736.6,692.4,1736.5,691.9,1736.5,691.5z"/>
			<path d="M1729.1,807.2c0.9-1.5,1.4,0.6,3,0v1.1h-1.5C1730.9,806.9,1729.6,807.3,1729.1,807.2z"/>
			<path d="M1734.2,722c0.6-0.2,1.3-0.5,1.9-0.6c0,1.1,2,0.2,1.4,1.8c-1-1-1.9,0-3,0c0.3-0.3,0.2-0.8-0.1-1.1
				C1734.3,722.1,1734.2,722.1,1734.2,722z"/>
			<path d="M1734,753.5c1.8-0.7,1.7,2.1,2.5,1.2c1.2,0.9-0.6,1.8-0.9,2.4c-1.1-0.4-2.4-0.2-3.4,0.5c-1.8,0-1.3-1.8-2.5-2.3
				c0.7-0.6,1.5-1.2,2.3-1.7c-0.4,0.6-0.6,1.4-0.5,2.1c1.4,0,0-1.3,0.8-1.8C1734.2,754,1734.5,755.3,1734,753.5z"/>
			<path d="M1732.7,807.7c-0.5-2.3,2.7,0.3,2.3-1.7c0.8,0.4,1.9,0.6,1.8,1.9c-0.3,0-0.2-0.4-0.3-0.7
				C1734.9,808.7,1733.4,806.5,1732.7,807.7z"/>
			<path d="M1739.6,709.8c-0.5-1.2,3.1-1.2,4.1-1.9c0.5,0.9,0.5,2,0,2.9C1742.6,709.8,1741.1,709.5,1739.6,709.8z"/>
			<path d="M1738,748.7c-0.5-1.1,2.7-1.6,2.6,0.5c-0.8-0.8-1.7,0.6-1.8-0.8C1738.4,748.2,1738.1,748.4,1738,748.7
				C1738,748.7,1738,748.7,1738,748.7z"/>
			<path d="M1739.3,734.8c1.8,0.2,3.7,0.2,5.5,0c-0.4,0.5-0.5,1.1-0.4,1.8C1742.9,735.8,1740.3,736.7,1739.3,734.8z"/>
			<path d="M1743.9,755.1c0.6,0.5,1.3,0.9,2.1,1.2c-1.2,0.2-2.4-0.1-3.3-0.9c-0.3,0.3-0.6,0.6-0.8,1c-0.5,0-0.6-1.5-0.7,0
				c-0.7-0.5-2.2-0.3-1.8-1.9c0.3,0.1,0.6-0.1,0.7-0.3c0.8,0.2,0.7,0.6,0.3,1.1h0.7c0.5,0,0.3-0.9,0.4-1.4c0.8-0.2,1.7-0.2,2.6,0
				c-0.3,1,0.7,0.7,1.1,1.1c-0.3,0.4-0.8,0.6-1.3,0.3C1744,755.2,1743.9,755.1,1743.9,755.1z"/>
			<path d="M1747.5,741.7c-0.8,0.7-0.7,0-1.5-0.4c-0.7-0.4,0,0.4,0,1.1c-3.6,0,2.3-3.1,1.8-0.2c0-1.8,3.4,0,3.4-1.9
				c0.6,0.9,0.6,2,0,2.9c-0.5,0.1-0.9-0.1-1.1-0.6c0-0.2,0-0.3,0-0.5c-0.6,0.5-1.1,1.1-1.6,1.7
				C1747.4,743.6,1747.8,742.3,1747.5,741.7z"/>
			<path d="M1748.2,679.6c0-0.5,0-1-0.3-1.1c0.4-0.4,1.9-1.7,2.6-0.6c0,0.9-1.6,0.4,0,1.4C1749.8,679.6,1749,679.7,1748.2,679.6z"/>
			<path d="M1744.2,794.7c0-0.4,0.4,0,0.4,0c1.8,0,3.4-3.3,4.9-1.2c0.4-0.4,0.8-0.9,1.2-1.4c0.3,0,0.5,1,0.7,0.4c0.8,0,0,1.7,0,2.5
				c-1.6-1.2-3.8-1.3-5.5-0.3C1748.4,795.2,1745.1,796,1744.2,794.7z"/>
			<path d="M1748.1,717.1c0-0.7,1.1-0.6,0.8-1.7c0.6,0.5,2.3,0,2.1,1.2C1750,716.6,1749,716.8,1748.1,717.1z"/>
			<path d="M1746.1,818.8c1.4,0,2.7-0.2,4.1-0.5c0,0.7,1.7,0,1,1.5c-0.5-0.2-1-0.4-1.4-0.8c-0.5,0,0,0.6,0.3,0.7
				c-1.5,0.7-3.2,0.9-4.9,0.5C1745.2,819.4,1747.4,819.5,1746.1,818.8z"/>
			<path d="M1753.9,709.5c0,1-1-0.9-0.8,0.7c-0.3-0.3-0.7-0.5-1.1-0.8c0.6-1,0.8-0.2,2.2-0.6C1755.7,708.5,1753,709.6,1753.9,709.5z
				"/>
			<path d="M1755,697.8c-0.8-0.6,1.1-1.6,1.2-2.4c0.6,0.4,0.8,1.1,0.6,1.8C1756.1,697,1755.4,697.2,1755,697.8z"/>
			<path d="M1753.6,775.2c-0.8,0,0.5-0.9,0-1.8c0.9,0.5,2,0.3,2.6-0.6c1.4-0.4,0,1.6,1.4,1.2c0,0.6-0.5,0.7-0.4,1.4
				c-1,0-1.6,0-1.4-1.1C1755.1,774.7,1754.3,775,1753.6,775.2z"/>
			<path d="M1758.2,741.9c0.5-0.8,1.6-1.1,2.4-0.6c0.5,0.3,0.9,0.9,0.9,1.5c-0.9,0-0.4-0.3-0.3-0.7
				C1760.3,742.8,1759,742.7,1758.2,741.9C1758.3,741.9,1758.2,741.9,1758.2,741.9z"/>
			<path d="M1755.7,756c1.4-0.7,2.9-0.9,4.4-0.5c1,0-0.5-0.6,0-1.4c0.7,0.1,1.5,0.1,2.2,0c0.2,1.2-0.6,1.1-0.8,1.8
				c0.8-0.5,2.1-1.7,3-0.9c-0.1,0.6-0.4,1.2-0.8,1.7c-2-0.6-4.1-0.3-5.9,0.8C1757.3,755.9,1756.7,756.6,1755.7,756z"/>
			<path d="M1761.2,690.6c0.9-0.8,1.9-1.3,3-1.7C1764.5,692.2,1762.4,689.8,1761.2,690.6z"/>
			<path d="M1761.8,714.9c0.6,0.7,1.7,0.8,2.5,0.2c0.6-0.5,0.8-1.2,0.5-1.9c1.5,0.4,0,1.7,0,3.2c-1.5,0.1-3-0.3-4.4-0.9
				c0.3-0.5,0.9-0.9,1.5-1C1762.8,714.8,1762.2,714.9,1761.8,714.9z"/>
			<path d="M1762,782.2c-0.9-0.5-1.9-0.8-2.9-0.9c0.5-0.8,0.9-1.6,1.2-2.4c1.2-0.2,2.5-0.2,3.7,0c-0.6,0.5-1.6,0.5-2.2,0
				c-0.5,1.4,0.9,2.9,1.4,1.5C1764.2,781,1762.2,781.4,1762,782.2z"/>
			<path d="M1767.9,668.8c0.9,0.6,0.9,1.6,1.5,0c0.9,0,0.3,1.6,1.8,1.2v1.4c-1.7,0.5-2.5,0-4.5,0.8c0-0.6-1.1-0.3-0.7-1.5
				c0.9,0,1.2-0.6,1.8,0C1767,670.1,1767.2,669.7,1767.9,668.8z"/>
			<path d="M1758.8,819.8c0.5-2.1,1,0,2.3-1.7c0.5,0.1,0.8,0.6,0.7,1.1c0.8-0.4,1.7-0.7,2.6-0.9c0.4,0.5,0.6,1.1,0.6,1.8
				c-1.2-0.4-3.5,1.2-3.6-0.5c-0.6-0.3-1.7,0.6-0.8,0.7C1760.1,821.1,1760.3,818.8,1758.8,819.8z"/>
			<path d="M1762.6,807.5c-0.4,0,0-0.4,0-0.3c-0.4-1.1-1.3,0.3-2.2,0c-0.6-0.4-0.9-1.1-0.6-1.8c2.1,1.6,1,0,3.6,0.9
				C1763.1,806.5,1762.8,806.9,1762.6,807.5z"/>
			<path d="M1766.2,709.3c1-2.3,3.8,1.2,4.9-1.6c1,0.4,0,1.5,0,2.1C1769.5,709.3,1767.8,709.1,1766.2,709.3z"/>
			<path d="M1763.3,793.2c0.5,0.5,1.1,0.8,1.8,0.8c-0.5,0.4-1.2,0.6-1.9,0.6c-0.6-0.6-0.3-2.3,0.8-2.1
				C1764.2,793.2,1763.6,793.2,1763.3,793.2z"/>
			<path d="M1766.7,734.8c1.6-0.6,3.2-0.9,4.9-1.2C1772.4,735.5,1767.1,736.4,1766.7,734.8z"/>
			<path d="M1765.5,787.1c0.2-0.8,1.7,0,0.7,0.4c0.8,0,0.7-0.5,0.8-1c0.3,0.7,1.8,0,0.8-0.3c0.3-1.1,0.8,0.4,1.5,0
				c-0.4,1.3,0,0.9-0.5,2.1C1767.5,788.4,1766.3,788,1765.5,787.1z"/>
			<path d="M1776.6,665c-0.7,0.9,0-1.1,0.7,0c-0.3-0.4-0.4-1-0.3-1.5c0.2,0.2,0.5,0.3,0.7,0.4c0.7,0,0.5-1,1.5-0.6
				c0,0.7-0.2,1.5-0.5,2.1C1778.2,664.5,1777.2,665.8,1776.6,665z"/>
			<path d="M1780,684.4c0-0.5,0.6-0.9,0.8-1.4c1.6,0,1.7-0.4,2.6,0.5c0.2-0.2,0.5-0.3,0.8-0.3c-0.2-0.7-1.1-0.3-0.3-1.1
				c0.4,1.5,2.2,0,2.9,0.9c-0.3,0.3-0.4,0.7-0.4,1.1C1784.3,682.5,1782.7,684.9,1780,684.4z"/>
			<path d="M1785.1,671.8c-1,0-2.1-0.3-2.9-0.9c1-0.6,0-0.7,1.2-1.4c1.4,1.7,3.8-1.2,3.2,2.3c-0.8,0,0-1.3-0.3-1.8
				C1785.6,670.5,1785.2,671.1,1785.1,671.8z"/>
			<path d="M1784.3,722.5c0.4-1.9-2.3-0.3-4,0c0.3-0.4,0.5-0.9,0.4-1.4c0.3,1.1,2,0.5,2.2-0.6c0.6,0.4,1.4,0.6,2.2,0.5
				C1785.4,721.9,1784.5,721.9,1784.3,722.5z"/>
			<path d="M1779.2,748.7c1.4,0.1,2.7-1,2.8-2.4c0-0.2,0-0.5,0-0.7c-0.4,0,0-0.4,0-0.3v-0.7c0.3,1.3,2.4,1.1,2.8,2.3
				c0.2,0,0.4-0.2,0.4-0.4c0-0.2-0.2-0.4-0.4-0.4c0.4-1,1.2,0.5,1.1,1.1C1783.9,748.5,1781.5,749,1779.2,748.7z"/>
			<path d="M1777.1,818.6c-0.7-1.2,1.4,1.4,1.5-0.3c0.8,0,0,1.3,0.3,1.8c-0.5-0.4-1.4-0.4-1.8-0.8
				C1776.7,818.9,1777.5,818.7,1777.1,818.6z"/>
			<path d="M1779.2,799.4c2,0.1,4.1-0.5,5.6-1.8c1.1,0.3,0.7,2.7,1.4,1.1c0.5,0,0.2,0.9,0.3,1.5c-0.8-0.2-1.5-0.5-2.2-0.8
				c-0.7,0.5-1.3,1.2-1.6,2C1783.1,800.4,1779.9,801.3,1779.2,799.4z"/>
			<path d="M1787.9,677.4c1.6-0.5,2.7-1.4,4.1-1.9c1.5,0.5,0.3,2.6-0.5,2.8c0-0.8-1.6-0.4-1.4-1.5
				C1789.6,677.4,1788.7,677.7,1787.9,677.4z"/>
			<path d="M1787.1,703.4c0.8-0.8,1.7-1.5,2.7-2c-0.1,0.6,0.2,1.1,0.7,1.5C1789.3,702.6,1788.1,702.8,1787.1,703.4z"/>
			<path d="M1792.8,739c1.3,0.6,0.3,2.9-0.6,3.9c-1.9-2.3-4.9,1.3-6.2-0.7c0.3-1.2,2.4-0.4,2.3-2c2.2,1,3.5-0.9,4.9,0.6
				C1792.8,740.3,1791.6,739.3,1792.8,739z"/>
			<path d="M1786.9,729.1c0-0.3,0.4-0.2,0.7-0.3c0.3,0,0-0.3,0-0.3c0.5-0.3,2.7-2,2.6-0.6c0.4-0.5,0.6-1.1,0.8-1.8
				c0.5,0.2,1,0.3,1.5,0.4c-0.3,0-0.9,1.9,0,2.1C1790.7,729.2,1788.8,729.4,1786.9,729.1z"/>
			<path d="M1791.7,671.4c-1.2,0.3-0.9-0.6-1.4-0.8c0.4-0.8,2.5,0,2.3-1.3c1.4,0.4,2.8,1.1,3.9,2c1.1-0.2-0.8-0.6-0.3-1.5
				c0.4-0.1,0.7-0.3,0.8-0.7c1.4,0.8,3,0.8,4.4,0c0.2,0.8,0.2,1.7,0,2.5c-1.2-0.4-2.4-0.7-3.6-0.9c-0.7,1.2-3.5,0-5.2,1.2
				c0.2-0.6,0.1-1.3-0.3-1.8C1791.7,670.4,1791.8,671,1791.7,671.4z"/>
			<path d="M1789.3,733.6c0,0.3,0.4,0.3,0.7,0.4v1.1c-0.3-0.1-0.6,0-0.7,0.3c-0.4-0.7-0.4-1.5,0-2.1
				C1789.7,733.2,1789.5,733.6,1789.3,733.6z"/>
			<path d="M1791.5,804.3c0.3-0.6,0.9,0,0.7,0.4c0.4,0,0.4-0.8,1.1-0.6c-0.5,0.8-0.5,1.7,0,2.5c-2.2,0.5-4.4,0.7-6.7,0.7
				c0.4-0.5,0.7-1.1,0.8-1.8c0.9,0.3,1.9,0.1,2.6-0.6c0.8,0.3,1.7,0.6,2.5,0.8C1792.7,805.1,1792.2,804.5,1791.5,804.3z"/>
			<path d="M1793.8,708.7c0.9-0.2,1.7-0.4,2.6-0.6C1797.1,708.5,1794.5,709.7,1793.8,708.7z"/>
			<path d="M1793.5,721.9c-0.3-1.3,1.8,0,1.2-1.7c0.8,0,0.7,0.5,0.7,1.1c1.3-0.3,0.7-0.6,1.2-1.4c1.4,0.5,3,0.5,4.4,0v2.1
				C1798.5,722.3,1796,722.2,1793.5,721.9z"/>
			<path d="M1791.9,774c0-0.5,1.1-1.1,0.7,0c2.4-1,4.9-1.6,7.4-1.7c-0.6,1.4,0.8,1.9,1.1,0.8c0.9,0,0,1.6,0,1.8
				c-1.1-0.2-1.2-1.8-2.2-0.5c-0.5-0.3-0.9-0.9-1-1.5c-0.8,0,0.4,0.9,0,1.8c-0.8-0.3-1.5-0.7-2.1-1.2
				C1796.8,774.8,1793.5,774.7,1791.9,774z"/>
			<path d="M1793.8,788c-0.8,0,0.5-0.9,0-1.8c0.9-0.2,1.8,0.4,1.6-1.7c1.4,1.8,4.9,0.8,6.6,1.8c0,0.6-0.5,0.7-0.4,1.4
				c-0.9-0.7-2.1-0.5-2.8,0.3c-0.1,0.1-0.1,0.2-0.2,0.2C1797,787.7,1795.3,787.7,1793.8,788z"/>
			<path d="M1795.9,797.8c0.3,0,4.4-0.3,4.1,0c0.4,0.2,0.7,0.5,1.1,0.8c-0.4,0.6-0.8,1.2-1.2,1.7
				C1799.7,798.3,1797,798.7,1795.9,797.8z"/>
			<path d="M1801.4,690.2c1.1-2.2,4.5-0.7,6-1.5C1807.1,690.3,1804.4,690.3,1801.4,690.2z"/>
			<path d="M1799.6,767.9c2.3-0.9,4.7-1.6,7.1-1.8c0,0.7,0.5,0.7,1.1,0.8c-0.2,0.9-0.6,1.8-1.2,2.4c-0.8-0.9-2.2-1-3.1-0.2
				c-0.1,0.1-0.2,0.1-0.2,0.2C1802.1,768.7,1800.9,768.2,1799.6,767.9z"/>
			<path d="M1802,677.7c1.2-1.5,2.8-2.7,4.6-3.4c-0.4,1.2,0.5,1.3,0.7,0.4c1.1,0.7,0.3,1.3,0,2.5c-1.7,1-2.5-0.7-2.6,0.9
				C1803.9,677.8,1803,677.7,1802,677.7z"/>
			<path d="M1802,742.7c-0.2-0.5-0.3-1-0.3-1.5c0.7,0.6,0.5,0,1.5,0c-1,0.8,0.7,0.8,1.4,1.2C1803.8,743.8,1802.5,742.2,1802,742.7z"
				/>
			<path d="M1802.2,702.7c0.7-0.8,1.5-1.4,2.3-2c-0.4-0.2-0.7-0.5-1.1-0.8c0-1.6,1.7-0.9,3-0.9c0.9,1.1,1.1,2.6,0.5,3.9
				c-1.2,0-1.1-0.8-1-1.8c-1.1,0-0.7,1.5-0.9,2.4C1804.1,703.6,1803.1,703.3,1802.2,702.7z"/>
			<path d="M1800.6,820.5c0.6-0.7,1-1.5,1.2-2.4c0.6,0,1.2-0.1,1.8-0.2c0.7,2,4.5-1.6,4.3,1.7c-2.2-0.5-4.5-0.1-6.3,1.1
				C1801.1,820.6,1800.8,819.9,1800.6,820.5z"/>
			<path d="M1808.4,683.1c0.8,0.9,1.4-0.4,2.2-0.6c0.8-0.2,0.2,0.4,0.3,0.7c0.1,0.3,0.3,0,0.4-0.3
				C1812.3,683.3,1808,685.2,1808.4,683.1z"/>
			<path d="M1808.1,695.9c0.2-0.3,0.9-0.3,0.8-1c1.3,0.2,2.6,0,3.7-0.5v1.1c1-0.2,1.9-0.6,2.6-1.3c0.4,0.8,0,1,0.6,2.2
				C1812,695.9,1810.6,696.2,1808.1,695.9z"/>
			<path d="M1808.7,734.8c-0.7,0.2-1.3,0.5-1.9,1c-0.6-2.1,3.6,0,3.8-2.3c1.7,0.5,3.5,0.5,5.2,0c0,0.9-0.1,1.7-0.5,2.5
				c-0.9,0-1.8-0.3-2.5-0.8c-1.4,0.6-2.9,1-4.5,1.2C1808.2,735.8,1808.4,735.3,1808.7,734.8z"/>
			<path d="M1806.3,787.6c-0.6-0.4-0.7-1.2-0.3-1.8c0.5,0.4,1.6,0.4,1.4,1.5c2,0,4.3-2.1,7-1.1v1.4c-1.1-0.3-1.1,0.5-2.2,0
				c-0.7-0.2-1.3-0.6-1.8-1.2c-0.8,0.7-1.9,1.2-3,1.3C1807.7,787.1,1806,786.3,1806.3,787.6z"/>
			<path d="M1808.5,746.6c0.5,1,1.4-0.7,1.6-1.4c0.9-0.4,1.3,1,1.5,0c0.5,0,0,0.3,0,0.7c0.9-0.4,1.7-0.7,2.6-0.9
				c1,0.5,1.5,1.5,1.4,2.6c-2.2-0.1-4.5,0.1-6.7,0.7c0-0.9,0.8-1.1-0.7-1.1v-0.7c0.3,0,0.3,0,0.4-0.3
				C1808.6,745.8,1808.7,746.6,1808.5,746.6z"/>
			<path d="M1809.7,722c-1.1-0.7,0.6-1.5,0.5-2.5c1.6,0.8,3.5,0.8,5.2,0c-0.1,0.8-0.3,1.7-0.5,2.5c-1.7,0.4-3.6-0.1-4.9-1.3
				C1809.5,721.3,1810.4,721.4,1809.7,722z"/>
			<path d="M1817.7,688.5c1.4,0,0,0.3,0.3,1.1h1.1c0-0.6-0.4-0.8-0.3-1.5c1.3-1.2,1.1,0.3,3,0c-0.3,1.6,0.7-0.2,0.7,0.7
				C1822.4,689.8,1817.1,691.2,1817.7,688.5z"/>
			<path d="M1824,694.7c0-0.3,0-0.3,0.4-0.3v-0.7c1.9,0.2,3.7,0.6,5.5,1C1828,695.3,1825.9,695.3,1824,694.7z"/>
			<path d="M1822.4,747.3c0-2.9,5.8,0,6.3-1.5c1,0,1.2,0.5,1,1.5C1828,746.5,1824.3,748.4,1822.4,747.3z"/>
			<path d="M1823.9,797.8c1.5-0.5,4.6,1.2,6.2,0.7v2.1c-2.3-0.4-4.7-0.3-7,0.3c1.1-1.8-1.9-0.4-2.9-1.2c-0.2-1.4,1-1.2,1.2-2.1
				c0.8,0.5,1.6,0.8,2.5,0.8c-0.1,0.3-0.4,0.6-0.8,0.7c0.4,0.5,0.9,0.8,1.4,1.2C1825.1,799.4,1824.7,798.3,1823.9,797.8z"/>
			<path d="M1830.3,701.7c0.6,0,0.7,0.3,0.7,0.7c0.7-0.7,1.3-1.5,1.6-2.4c2,0,2.7,1.6,3.4-0.5c0.3,1.2,0.3,2.4,0,3.6
				C1834.8,701.9,1831.3,704.2,1830.3,701.7z"/>
			<path d="M1829.7,807c1.8-1.7,4.3-2.3,6.7-1.8C1835.4,807.8,1830.7,806.1,1829.7,807z"/>
			<path d="M1831.4,780.7c-0.7-0.3,0.4-0.5,0.4,0c0,0.5,0.3-0.6,0.4-1.1h1.5c-0.4,0.9-1.3,1.5-2.3,1.7c0-0.3,0-0.3,0.4-0.3
				C1832.1,780.9,1831.7,780.7,1831.4,780.7z"/>
			<path d="M1837.7,708.1c0.9-0.3,1.7-0.9,2.3-1.7c1.5-0.3,3-0.1,4.4,0.6c-1.8,0.2-3.6,0.7-5.3,1.5
				C1838.8,707.9,1839.2,707.8,1837.7,708.1z"/>
			<path d="M1836.6,747.3c1.8-1.3,4.1-1.9,6.3-1.5c0.4,0,0.3-0.6,0.4-1.1c0.4,0.6,0.8,1.2,1,1.8
				C1841.9,747.7,1839.2,748,1836.6,747.3z"/>
			<path d="M1841.1,714.1c0-0.4,0.4,0,0.4,0c0.5-0.1,0.8-0.5,0.8-1c2,1.2,4.5,0.7,5.9-1.1c0.9,0.7,2.1,1.2,3.3,1.3
				c-1.1,1.3-3,1.5-4.4,0.5c0.6,1.8-3.7,0.5-5.2,1.2C1841.6,714.6,1841.4,714.3,1841.1,714.1z"/>
			<path d="M1839.9,794c-0.1-0.6,0.1-1.3,0.4-1.8c1,0.5,2.1,0.9,3.3,1.2C1842.4,793.4,1841.1,793.6,1839.9,794z"/>
			<path d="M1849.7,754.5c-2,0.5-8.1,1.6-6.9-2.5c2.7,2.3,5.7,0,8.1-0.3C1850.7,752.7,1850.3,753.6,1849.7,754.5z"/>
			<path d="M1835.3,811.9c-0.4,0,0-0.3,0-0.3s-0.4-0.3-0.7-0.4c-0.3-0.1,1.8,0,2.6,0c-0.7,0.7,0,0.7-0.4,1.4h0.7c0.5,0,0-0.4,0-1.1
				c2.2-0.3,4.4-0.3,6.6,0v1.4c-2.3,1.1-4.9,1.5-7.4,1.1C1836.6,813.1,1836.1,811,1835.3,811.9z"/>
			<path d="M1848.1,778c1.1,0.1,2.1-0.1,3.1-0.6c0.4,2.3-1.6,2.1-2.4,3.1c-0.7,0-0.4-1-1.4-0.8c-0.8,0.3-1.5,0.9-1.9,1.7
				c-1.4,0-1.6-0.7-2.9-0.5v-1.8C1844.4,780.2,1846.8,779.7,1848.1,778z"/>
			<path d="M1858.2,719c0.7,0.8,0.7,2,0,2.9c0-1.3-1.4,0.3-1.4-1.2c-1.8,1.2-4.2,1.1-5.9-0.3c0.1-0.6,0.4-1.2,0.8-1.8
				C1853.8,718.9,1856,719,1858.2,719z"/>
			<path d="M1857.5,760.2c-0.3,0-0.3,0.4-0.4,0.7c-1.9-0.4-3.9-0.4-5.9,0c0.6-0.5,0.9-1.3,0.8-2.1c2.2,0.5,3.3,0,5.5,0.6
				c-0.1,0.3,0,0.6,0.3,0.7c0,0,0,0,0.1,0C1857.8,760.7,1857.5,760.4,1857.5,760.2z"/>
			<path d="M1865.7,803.5v1.8c-2.1-0.9-4.9,3.4-7.4,0.7C1860.5,804.4,1863.1,803.5,1865.7,803.5z"/>
			<path d="M1867.5,695c-1,0,0.9-0.9-0.7-0.7c1.2-1.9,3.6-2.5,5.6-1.5C1871.5,695.2,1868.5,692.9,1867.5,695z"/>
			<path d="M1866.8,787.1c-1.2-1.1,2.1-0.6,0.8-2.1c0.7,0.6,4.4,0,3.4-1.3c0.3-0.5,1,0,1.8-0.2c0.1,1.3-0.4,2.5-1.3,3.5
				C1869.7,787.4,1867.3,785.8,1866.8,787.1z"/>
			<path d="M1875.5,753.7c-1-0.5,1-0.9,0.8-1.7c1.8-0.4,3.6-0.1,5.1,1C1879.5,753.4,1877.5,753.7,1875.5,753.7z"/>
			<path d="M1874.2,792.9c0.3-0.3,0.6-1,0-1.1c1.3-2,4.6-0.6,5.9-1.1c0.5,0,0.2,0.9,0.3,1.5c0,0.5-1.5-0.9-1.5,0.6
				c-0.9,0.1-1.8-0.1-2.6-0.5C1877.1,794.1,1875.9,792.9,1874.2,792.9z"/>
			<path d="M1884.1,680.5c0.4-1.9,2.1,0,3.4-0.9C1886.4,680.2,1885.2,680.5,1884.1,680.5z"/>
			<path d="M1881.6,799.4c1.3-2.4,4.3-3.3,6.8-2.1C1888,800.5,1883.4,799.5,1881.6,799.4z"/>
			<path d="M1889.8,805.8c0-0.5,0-1,0.4-1.1c0.4,0-0.4-0.3-0.7-0.4c1.2,0.1,2.4-0.5,3-1.7c0.6,1.2,2.6,0.4,2.5,1.6
				C1893.3,805,1891.6,805.5,1889.8,805.8z"/>
			<path d="M1896.7,692.6c0.3-1.7,5.5-2.3,5.5,0.6c-1.7,0-2.9,0.7-4.5,0.8C1897.8,693.4,1897.3,692.8,1896.7,692.6z"/>
			<path d="M1892.8,797.4c1.2-1.3,1.6,1.1,2.5,1.2c1.6-1.5,3.8-2.3,6-2.2c1.4,0.9,0,2.5-0.5,3.2C1898,800.3,1895,799.4,1892.8,797.4
				z"/>
			<path d="M1900.3,730.3c0,1.4,0.6,0,1.1,0.8c0.1,1.4-0.9,2.6-2.3,2.7c0,0,0,0,0,0c-1-0.4-1.5-1.5-1.4-2.6c1-0.3,1.8-0.7,2.6-1.3
				C1900.7,730,1900.5,730.3,1900.3,730.3z"/>
			<path d="M1905.2,699.5c-0.9,0,0.5-0.9,0.4-1.4c0.6,1,0.4,1.2,1.5,0.4c1.2,0.4-1,0-0.4,1.1C1905.8,700,1905.4,698.5,1905.2,699.5z
				"/>
			<path d="M1901.8,766.8c0.2-1.8,2.8,0.4,3.4-0.5c0.5-1-0.6-0.3-1.1-0.4c0.4-0.5,0.9-0.7,1.5-0.6c-0.2,0.8,0.7,0.5,0.7,1.1
				c0.8-0.4,0-2.3,1.9-1.7c-0.1,0.3,0,0.6,0.3,0.7c0,0,0,0,0.1,0c-0.7,0.6-1.5,1.2-2.3,1.7C1905.2,765.8,1903.5,767.3,1901.8,766.8z
				"/>
			<path d="M1914.7,665.5c-1,0.2-2,0.2-3,0c0.1-0.3,0-0.6-0.3-0.7c0,0,0,0-0.1,0c0.9-0.7,2.3-0.6,3.1,0.4
				C1914.6,665.2,1914.6,665.4,1914.7,665.5z"/>
			<path d="M1912.2,679.1c0.2-0.3,0.9-0.3,0.8-1c0.7,0.8,1.6,0,0.4-0.3c0.6-1.2,0.9,0.8,1.8,0.4c-0.2,0.3-0.6,1,0,1.1
				C1914.1,679.3,1913.2,679.3,1912.2,679.1z"/>
			<path d="M1911.6,732.3c0-1.5,1.5-1.5,4.5-1.6c0.2,0.6,0.3,1.2,0.3,1.8C1914.7,733.9,1913.1,732,1911.6,732.3z"/>
			<path d="M1911.3,745.5c-0.7,0.9,0-0.6,0-1.1c0.8,0.2,1.7,0.2,2.6,0c0-0.3-0.4-0.3-0.7-0.4c-0.3-1.1,1.8,0.9,2.9,0.9
				c-1.4,0.7-3,0.7-4.4,0C1911.4,745.1,1911.3,745.3,1911.3,745.5z"/>
			<path d="M1908.6,812.1c0-0.4,0.4,0,0.4,0c0-0.8,1.6-0.2,1.6-1.4c0.4,0.5,0.6,1.1,0.6,1.8C1909.9,813.2,1909.5,813.4,1908.6,812.1
				z"/>
			<path d="M1909.9,786.1c2.1-2,2.6-1.2,6-1.5C1914.1,785.8,1912,786.3,1909.9,786.1z"/>
			<path d="M1911.5,770.9c1.2-0.3,2.5-0.3,3.7,0c-0.9,1.6-2.9,2.1-4.5,1.2C1910,770.7,1912.8,771.5,1911.5,770.9z"/>
			<path d="M1918,673.7c0.6-0.6,1.6-1.9,2.6-0.9C1919.8,673.2,1918.9,673.5,1918,673.7z"/>
			<path d="M1920.4,684.2c1.1,0,2.2,0.2,3.3,0.5c-0.3,0.4-0.5,0.9-0.4,1.4c-1.2-0.9-2.9,1-4.4,0
				C1918.3,684.5,1921.2,684.7,1920.4,684.2z"/>
			<path d="M1916.4,753.3c2-1,4.2-1.9,6.4-2.5c-1.5-1.1,0.4,0,0.4-1.4c0.3,0.9,0.3,1.9,0,2.9
				C1921.1,753.1,1918.8,753.5,1916.4,753.3z"/>
			<path d="M1922.2,698.9h-2.6c0.5-1.6,2.3-0.8,2.6-0.9C1922.6,697.9,1922.1,698.3,1922.2,698.9z"/>
			<path d="M1919.2,739.8c-0.4,0,0-0.4,0-0.3c0,0-0.8-0.4-0.7-1.1c1.7,0.7,3.5,0.7,5.2,0c0,0.6,0.4,0.8,0.3,1.5
				C1922.4,739.4,1920.8,739.4,1919.2,739.8z"/>
			<path d="M1920.4,712c-1-0.8,2.2-1.6,3-0.5C1922.4,712.8,1921.6,711.2,1920.4,712z"/>
			<path d="M1921.6,817.1c-1,1.2-2.6,1.8-4.1,1.6c0.3-0.3,0.6-0.9,0-1.1c0.5-0.3,0.8-0.6,1.2-1c1.8,0.4,2.2,0,3.6,0.5
				c-0.1,0.2-0.3,0.3-0.5,0.2C1921.7,817.2,1921.6,817.2,1921.6,817.1z"/>
			<path d="M1925.9,691.6c-0.3-1,2.8-1.5,4.5-1.6c0,0.7,1,0.5,0.7,1.5C1929.5,692.5,1927.5,692.6,1925.9,691.6z"/>
			<path d="M1925.3,731.9c-1.1-0.6,1.6-1,1.8-0.2c-0.8-1.7,2.6-1.2,3.7-0.9v1.4c-0.8,0-1.5,0-2.2,0.2c-0.3-0.3-0.6-0.7-0.7-1.1
				c-0.5,0.3-0.8,0.8-0.8,1.4c-0.7-0.6-0.5,0-1.5,0v-1.1C1925.3,731.5,1925.3,731.7,1925.3,731.9z"/>
			<path d="M1927.5,717c-0.7-0.7,1,0.4,1.1-0.6c1,0.3,1.8,0.8,2.5,1.6c-1,0.7-2.2,0.9-3.4,0.5C1927.8,717.9,1928.1,717.1,1927.5,717
				z"/>
			<path d="M1928.3,744.2c0.8-0.3,1.7-0.3,2.6,0c-0.9,0.7-1.9,1-3,0.9C1927.7,744.8,1929.4,744.5,1928.3,744.2z"/>
			<path d="M1932.9,791.6c1.7-1.1,3.6-1.7,5.6-1.8c0.3,0.5,0.6,1.2,0.6,1.8C1937.1,791.1,1934.9,791.2,1932.9,791.6z"/>
			<path d="M1941,677.7c0-0.4,0.4,0,0.4,0c1.6-0.7,3.4-1,5.2-0.8c0,0.6,0.4,0.8,0.3,1.5c-1.9,0.6-4,0.8-5.9,0.4
				C1940.9,678.2,1941.6,677.9,1941,677.7z"/>
			<path d="M1942.9,718.5c-1.1,0-1,1.2-1.8,0.2c0.2-0.2,1.6-1.1,0-1.1c1.2-0.2,2.2-0.8,3-1.7c0.3,0.5-0.7,1.7,1.1,0.8
				c1.2,0.9-2.2,1-2.2,0.6C1942.9,717,1943.1,717.9,1942.9,718.5z"/>
			<path d="M1939.8,785.5c1.1-0.8,2.4-1.1,3.7-0.9C1942.4,785.3,1941.1,785.6,1939.8,785.5z"/>
			<path d="M1947.9,672.7c0.7-1.6,2.7,0,1.9-1.7c1-0.8,2.4-0.6,3.2,0.4c0.2,0.2,0.3,0.5,0.4,0.8
				C1952.2,673.1,1949.1,672,1947.9,672.7z"/>
			<path d="M1950.2,683.9c1.5-0.3,3-0.1,4.4,0.6c-0.3,0.2-0.6,0.4-0.8,0.7C1953.5,683.5,1950.4,686.4,1950.2,683.9z"/>
			<path d="M1952.7,665.1c-0.7-0.5,1.2-1.3,1.9-0.6s-0.7,1.3-1.6,1.4C1953.7,665.5,1953.3,664,1952.7,665.1z"/>
			<path d="M1950.4,765.4c-1.3,0-0.4-1.5-1.8-1.2c1.3-0.1,2.7-0.1,4,0C1952.6,765.8,1950.2,763,1950.4,765.4z"/>
			<path d="M1955.3,729.9c1.4-0.5,2.9-0.9,4.5-1.2c-0.6,1.3,1,0.7,0.6,1.8C1958.4,731,1955.9,731.6,1955.3,729.9z"/>
			<path d="M1958.1,677.2c1.4,0,0.9-2.1,2.7-1.7c-0.3,0.3-0.5,0.7-0.8,1c0.6-0.3,1.2-0.6,1.9-0.6
				C1961.1,677.1,1959.5,677.7,1958.1,677.2z"/>
			<path d="M1954.5,757.9c-1,0.6,0.7-1.2,0.8-1.7c1.9,1.4,2-0.6,5.2,0c0,0.6,0.2,0.7,0.7,0.7c0,1.4-1.3-0.5-1.2,1
				c-1.7,0.1-3.4,0-5.2-0.2C1954.6,757.3,1954.6,757.5,1954.5,757.9z"/>
			<path d="M1957.2,784.7c0.8-0.2,1.7-0.2,2.6,0C1959.1,785.4,1957.9,785.4,1957.2,784.7z"/>
			<path d="M1963,696.7c2.3,0.8,3.5-1.1,4.9,0C1966.7,697,1964.7,698.6,1963,696.7z"/>
			<path d="M1963.4,765.3c-0.7-1.2,1.7,0,1.6-1.4c1.1,0,2.2,0.2,3.3,0.5C1966.7,765.2,1965,765.5,1963.4,765.3z"/>
			<path d="M1960.2,777.3c0.5-0.9,2.6-1.2,3,0c0.8-0.6,1.7-1,2.7-1.3c0.9,0.6,1.2,1.9,0.6,2.9c-1.8-0.4-3.7-0.5-5.5-0.3
				c0.2-0.5-0.1-1.1-0.6-1.2C1960.3,777.3,1960.3,777.3,1960.2,777.3z"/>
			<path d="M1967.8,690.5c-0.7,0,0-1.4,0.8-1c-0.1,0.5,0.2,1,0.7,1.1c-0.3,0.2-0.6,0.4-0.8,0.7c-0.2,0-0.4-0.2-0.4-0.4
				c0-0.2,0.2-0.4,0.4-0.4c-0.1-0.2-0.3-0.3-0.5-0.2C1967.9,690.4,1967.9,690.5,1967.8,690.5z"/>
			<path d="M1823.5,709.3c0-0.4,0.4,0,0.4,0c0.3-0.3,0.6-0.6,0.8-1c1.4,0,2.7,0.2,4,0.6c0,2.1-3,1.6-4.5,2.3c0.2-0.5-0.1-1-0.6-1.1
				c-0.2-0.1-0.3-0.1-0.5,0C1823.3,709.7,1824.1,709.6,1823.5,709.3z"/>
			<path d="M1963.5,671.1c-1.2,0,1-1-0.3-1.1c1.3-0.5,2.7-0.8,4.1-0.9C1968.2,670.8,1965,671.4,1963.5,671.1z"/>
			<path d="M1664.7,769.2c1.2-0.3,2.5-0.1,3.6,0.5c-0.8,0.7-1.9,1-3,0.9c-0.6-0.7,0-0.4,0-1.4L1664.7,769.2L1664.7,769.2z"/>
			<path d="M1678.1,731.9c1.3-2.1,4-0.7,5.2-1.2c0,0.9-0.1,1.7-0.5,2.5C1681.1,733,1679.6,732.6,1678.1,731.9z"/>
			<path d="M1649.6,718.6c0.7-0.9,1.9-1.3,3-1.3v2.1C1651.5,719.9,1650.3,719.5,1649.6,718.6z"/>
			<path d="M1675.5,795.9c0-0.5,0.1-1,0.4-1.4c0.8,0.2,1.7,0.2,2.6,0c1.5,0.5-1.2,1.7,0,1.8C1677.5,796.5,1676.4,796.4,1675.5,795.9
				z"/>
			<path d="M1676.9,768c0.6,0,1.4,0.2,1.5-0.3c0.6,0.3,0,0.6,0,1.1c0.7,0.2,1.5-0.1,1.9-0.6c1.6,0-0.6,1.6,0.6,2.2
				c-1.7,0.5-3.4-0.4-4-2.1C1676.9,768.2,1676.9,768.1,1676.9,768z"/>
			<path d="M1650.5,758.9v-1c1.7-0.4,3.4-0.7,5.2-0.8c0.5,0.6,0.6,1.4,0.2,2.1C1653.4,757.9,1652.9,760.5,1650.5,758.9z"/>
			<path d="M1703.3,756.9c0.3-1.1,1.2-1.9,2.3-2c-0.2-0.2-0.3-0.5-0.3-0.7c-0.6,0-0.7,0-0.8,0.7c-1.9-0.9,0.5-1,1.2-1.4
				c0.6-0.4,0.7,0.6,0.3,1.1c1.4,0.6,0-1.6,1.5-1c0,0.3,0,0.3-0.4,0.3c0.3,1.1,2.4,0.6,2.1,2.2c-1-1.1-2.8,1.1-4,0
				c-0.4,0.2-0.7,0.4-1.1,0.6c0,0.4,0.6,0.3,1.1,0.4C1704.5,757.9,1703.9,757.5,1703.3,756.9z"/>
			<path d="M1701.2,818.6c0.6-1.1,0.9,1,1.8,0.8c0.9-1.7,4,0,5.6-1.5c0.7,1.2,0,2-1.3,2.8C1705.8,819.5,1702,821.7,1701.2,818.6z"/>
			<path d="M1703,783.4c0.2-0.7,0.2-1.4,0-2.1c1.7,0.1,3.5-0.1,5.2-0.4c-0.2,0.8-0.6,1.5-1.2,2.1
				C1705.7,782.4,1704.2,782.6,1703,783.4z"/>
			<path d="M1720.3,677.8c0.9,0,1.6,0.6,1.8,1.5c0.6-0.4,0.9-1.1,0.8-1.7c0.5,1.1,0.5,2.4,0,3.5c-0.5-0.4-1.2-0.5-1.8-0.4
				C1720.9,679.6,1720.6,678.7,1720.3,677.8z"/>
			<path d="M1730.7,768.7c1.7-1.3,4-1.6,5.9-0.8c-0.3,0.6-1.5,0.4-1.2,1.7C1733.4,768.3,1732.2,770.2,1730.7,768.7z"/>
			<path d="M1739.3,696.6c1.5,1.7,2.1,0,4.9,0c-0.9,0.9-1.9,1.6-3.1,2C1740,698.5,1739.3,698.1,1739.3,696.6z"/>
			<path d="M1745.1,768c0.3-0.4,0.5-0.9,0.4-1.4c2.8-0.4,4.4,1.5,5.5,0.3c0.7,0.6,0.8,1.8,0.2,2.5c-1-0.6-2.3-0.6-3.3,0
				c-0.6-0.4-0.9-1.1-0.6-1.8C1746.5,767.6,1745.8,767.8,1745.1,768z"/>
			<path d="M1761.3,767.6c0-0.3,0-0.3,0.4-0.3h0.7c0.5,2.3-2.7,0.6-2.3,2.7c-1.8-0.3,0.3-2-1.8-1.9
				C1759.2,767.6,1760.3,767.4,1761.3,767.6z"/>
			<path d="M1768.1,728.7c0.7-0.9,1.9-1.4,3-1.3c1.7,1.7,4.4,1.7,6.1-0.1c0.2-0.2,0.4-0.4,0.5-0.7c0.9,0.5,1.4,1.5,1.4,2.6
				c-1.7-0.5-3.4-0.2-4.9,0.8c-1,0-0.7-0.8-1.1-1.1C1771.5,729.4,1769.7,729.3,1768.1,728.7z"/>
			<path d="M1770.8,691.5c1.1-1.6,2.9,0,4.1-1.2c-0.3-0.4-0.4-1-0.3-1.5c0,0.6,3.5,0.7,3.4-0.5
				C1779.8,691.7,1774.1,692,1770.8,691.5z"/>
			<path d="M1772.2,743c1-2.8,5.7-2.2,7.5-2.1v1.8C1776.8,741.2,1774.8,743.1,1772.2,743z"/>
			<path d="M1773.8,768c1.5-2.2,2.7-0.9,5.2-1.2v2.5C1777.2,769.8,1775.3,769.3,1773.8,768z"/>
			<path d="M1785.1,707.2c-0.4,1.8,1.6,0,1.4,2.2c-0.9,0-2.8-1.5-3,0C1782.5,708.9,1783.7,707.3,1785.1,707.2z"/>
			<path d="M1787.4,819.8c0.2-0.6,0.4-1.1,0.4-1.8c1.5,0.6,3.1,0.4,4.4-0.5c0.8,0,0,1.7,0,2.5c-1.4-0.4-2.9-0.2-4.1,0.5
				C1787.9,820.4,1787.9,819.8,1787.4,819.8z"/>
			<path d="M1794.3,735.2c1.5-2.6,5.4,0,5.3-3.3c0.3,1,1.1,1.9,2.1,2.2c-0.4,0.5-0.5,1.1-0.4,1.8
				C1799.1,737.2,1796.2,736.9,1794.3,735.2z"/>
			<path d="M1803.1,714.9c-0.4-0.3,4.9-2.4,4,0.9C1805.8,715.3,1804.5,715,1803.1,714.9z"/>
			<path d="M1816.3,701.7c1.7-0.8,3.7-1.1,5.5-0.8c-0.9,1.8-2.9,2.7-4.9,2.2C1817.1,702.3,1817.1,701.8,1816.3,701.7z"/>
			<path d="M1830.9,753.8c1.1-1.3,2.4-2.3,3.8-3c0.5,1.1,0.5,2.5,0,3.6C1833.1,755.5,1832.9,754.3,1830.9,753.8z"/>
			<path d="M1836.6,801c0-0.3,0.4-0.2,0.7-0.3c0.3-0.1,0-1.3,0.4-1.7c2-0.7,4.2-1.1,6.3-1.1c0,1.8,0,3.9-2,3.5c0-0.7,1-0.4,0.8-1.4
				C1840.8,800.4,1838.7,800.8,1836.6,801z"/>
			<path d="M1857.3,792.7v-1.1c1.2-0.4,2.5-0.4,3.7,0c0.8,0-0.5-1,0.4-1.4c0.9,1.4,2.7,0,4,0.9
				C1864.4,794.5,1859.7,793.7,1857.3,792.7z"/>
			<path d="M1859.2,819.6c1.8-1.5,4.1-2.2,6.4-2.2c1,0.4-0.6,1.1,0,2.1C1863.5,819.4,1861.3,819.4,1859.2,819.6z"/>
			<path d="M1873.2,727.1c0.9-2.8,3.7-1.1,6.4-1.8C1878.5,727.4,1876.3,726.5,1873.2,727.1z"/>
			<path d="M1883.3,759.8c0.9-0.7-0.4-1.4,0.5-2.1c1.2-0.1,2.5,0.1,3.6,0.5C1887.2,759.9,1885.2,760,1883.3,759.8z"/>
			<path d="M1890,779.4c0.2-0.6,0.4-1.1,0.4-1.7c1.5-0.1,3-0.6,4.1-1.6c0.6,1.1,0.6,2.4,0,3.5C1893.1,779.5,1891.6,779.4,1890,779.4
				z"/>
			<path d="M1894.5,786.1c0.8-2.1,4.9,0.7,4.5-1.9c0.8,0.9,1-0.8,2.6,0c-0.3,0.6,0.6,1.6,0.7,0.7
				C1902.5,787.3,1897.1,786.2,1894.5,786.1z"/>
			<path d="M1909.9,666.5c-0.5,0-0.2-0.9-0.3-1.5c0-0.5,0.8-0.4,1.5-0.3v1.4C1910.5,666.1,1909.9,666,1909.9,666.5z"/>
			<path d="M1925.3,759.4c1.3-2.2,4.1-3,6.4-1.8c0,1-0.6,1.8-1.6,2C1928.6,759,1926.9,759,1925.3,759.4z"/>
			<path d="M1924.1,811.9c1.5-1.5,3.3-2.5,5.3-2.9c0,0.4,0.6,0.9,0.7,0.4c0.7,0.7,0.9,1.6,0.6,2.5
				C1928.5,812.1,1926.3,812.1,1924.1,811.9z"/>
			<path d="M1933.5,765.2c0-0.8,0.3-1.5,0.8-2.1c1.6,0.6,3.2,1,4.9,1.3c-0.3,0.4-0.5,0.9-0.4,1.4
				C1936.4,765.4,1935.7,765.7,1933.5,765.2z"/>
			<path d="M1937.3,811.9c1-1.3,2.5-2,4.1-1.9c0.9,1.4-1,1.8,0.2,2.1C1940.7,813.7,1938.7,811.9,1937.3,811.9z"/>
			<path d="M1943.1,778.2c1.7-1.6,4.3-1.9,6.3-0.7c0.4-0.8,0.9-1.4,1.6-2c0.8,0.5,1.6,1.1,2.1,1.9c-0.6,1.4-2.2,2-3.6,1.4
				c-0.3-0.1-0.7-0.4-0.9-0.6C1947.1,779.5,1944.7,779.5,1943.1,778.2z"/>
			<path d="M1933.4,711c0-1.3,1.9-0.7,1.9-2c1.6,0,2,0.8,2.6,0c0.6,0.2,1.2,0.4,1.8,0.4v1.4C1937.7,711.4,1935.5,711.5,1933.4,711z"
				/>
			<path d="M1663.5,720.1c1.7-1.3,4-1.6,5.9-0.8c-0.3,0.6-1.5,0.4-1.2,1.7C1666.4,719.7,1664.9,721.6,1663.5,720.1z"/>
		</g>
	</g>
	<path class="st5" d="M1513.5,1267.9c35,0,55.3,14.9,65.7,33.1c27.6,47.9-14.9,105.7-14.9,105.7c-5.9,10.2-18.9,13.8-29.2,8.1
		c-8.4-4.5-16.5-9.4-24.3-14.8c-5.4-4.4-6.8-12-3.3-18l0,0c3.9-6.8,12.6-9.1,19.4-5.2c0.5,0.3,1,0.6,1.4,0.9l11.4,8.6l0,0
		c13.1-20.3,7.3-47.4-13-60.5c-0.9-0.6-1.8-1.1-2.8-1.6l-23.8-13.1L1513.5,1267.9z"/>
	<path class="st5" d="M2064.3,1418c-27.3,3.8-49.2,18.2-49.2,40.7v114.2c0.8,10,9.4,17.6,19.4,17h32.6c8,0.6,15-5.5,15.6-13.5
		c0,0,0,0,0-0.1l0,0c-0.5-8-7.5-14.1-15.5-13.6c0,0,0,0-0.1,0h-10.8c-7.8,0.5-14.6-5.4-15.2-13.2v-23l0,0
		c25.9,0,46.9-14.9,46.9-46.1v-17.2L2064.3,1418z"/>
	<g id="body-3">
		<path class="st5" d="M2391.4,1148.1c-0.7,0-1.4,0-2,0c-16.8-146.9-173.6-269.8-371-269.8c0,0-243.1-3.3-416.6-0.8
			c-187.2,2.6-390.2,89-406.5,231.9c-0.9-0.1-1.8-0.1-2.7,0c-10.6,0-20.2,6.4-24.3,16.2c-6,13.8,0.4,29.9,14.3,35.8
			c3.4,1.4,7,2.2,10.6,2.2c0.8,0,1.5,0,2.3,0c20.4,116.3,202.7,146.9,311.6,153.4v-48.6c-101.8-6.7-258.7-34.4-263.1-133.5
			c-5.3-117.7,146.8-184.5,304.7-201.9c26.5-2.9,50.3,16.2,53.2,42.7c0.2,1.8,0.3,3.5,0.3,5.3v582.7h413.3V979.6
			c0.2-26.9,22.2-48.4,49-48.2c2.3,0,4.6,0.2,6.9,0.6c152,23.1,263.3,123.1,263.3,242.5c0,121.2-115.1,222.3-270.7,243.5
			c0,0,23.9,48.9,35.5,46.6c157.2-30.7,273.4-134.2,288.3-262.6c0.9,0,2.5,0,3.4,0c15.1,0,27.3-12.1,27.5-27.1
			c0-14.8-12.1-26.9-26.9-26.8C2391.5,1148.1,2391.5,1148.1,2391.4,1148.1z"/>
		<polygon class="st2" points="1833.2,876.1 1855.8,1312.2 1813.3,1396.1 1764.7,1312.2 1786,875.8 		"/>
		<path class="st5" d="M2090.3,1410.8l20.1,44.3c3.1,6.9,0.1,15.1-6.8,18.2l0,0c-6.9,3.1-15.1,0.1-18.2-6.8l-20.1-44.3
			c-3.1-6.9-0.1-15.1,6.8-18.2l0,0C2079,1400.8,2087.2,1403.9,2090.3,1410.8z"/>
		<path class="st10" d="M1810.8,1563.8V876.7c-68.4,0-143.7,0-209.1,0.8c-187.2,2.6-390.2,89-406.5,231.9c-0.9-0.1-1.8-0.1-2.7,0
			c-10.6,0-20.2,6.4-24.3,16.2c-6,13.8,0.4,29.9,14.3,35.8c3.4,1.4,7,2.2,10.6,2.2c0.8,0,1.5,0,2.3,0
			c20.4,116.3,202.7,146.9,311.6,153.4v-48.6c-101.8-6.7-258.7-34.4-263.1-133.5c-5.3-117.7,146.8-184.5,304.7-201.9
			c26.5-2.9,50.3,16.2,53.2,42.7c0.2,1.8,0.3,3.5,0.3,5.3v582.7h209.1H1810.8z"/>
		<path class="st5" d="M1516.5,1269.5l-5,48.4c-0.8,7.6-7.5,13.1-15.1,12.3l0,0c-7.6-0.8-13.1-7.5-12.3-15.1l5-48.4
			c0.8-7.6,7.5-13.1,15.1-12.3l0,0C1511.7,1255.2,1517.2,1262,1516.5,1269.5z"/>
		<path class="st1" d="M1516.5,1269.5l-5,48.4c-0.8,7.6-7.5,13.1-15.1,12.3l0,0c-7.6-0.8-13.1-7.5-12.3-15.1l5-48.4
			c0.8-7.6,7.5-13.1,15.1-12.3l0,0C1511.7,1255.2,1517.2,1262,1516.5,1269.5z"/>
	</g>
</g>
<g id="Page-1_1_">
	<g id="devices-copy_1_">
		<path id="Path_1_" class="st11" d="M492.6,873.2h530.7c18.3,0,33.2,14.9,33.2,33.2V1266H459.4V906.5
			C459.4,888.1,474.2,873.2,492.6,873.2z"/>
		<path id="Rectangle_1_" class="st12" d="M476.1,898.8h566.5c1.2,0,2.2,1,2.2,2.2v338.1c0,1.2-1,2.2-2.2,2.2H476.1
			c-1.2,0-2.2-1-2.2-2.2V901C473.9,899.8,474.9,898.8,476.1,898.8z"/>
		<ellipse id="Oval_1_" class="st13" cx="755.4" cy="885.4" rx="3.6" ry="3.6"/>
		<path class="st14" d="M1121.3,1285.2c0,6-23.7,14.7-28.1,14.7H421.7c-4.4,0-28.1-8.7-28.1-14.7H1121.3z"/>
		
			<linearGradient id="SVGID_1_" gradientUnits="userSpaceOnUse" x1="309.4125" y1="1055.3862" x2="310.3566" y2="1055.3862" gradientTransform="matrix(784.87 0 0 28.12 -242463.2031 -28398.4102)">
			<stop  offset="0" style="stop-color:#606162"/>
			<stop  offset="0.12" style="stop-color:#B7BABB"/>
			<stop  offset="0.36" style="stop-color:#A2A5A6"/>
			<stop  offset="0.51" style="stop-color:#C9CCCD"/>
			<stop  offset="0.73" style="stop-color:#848687"/>
			<stop  offset="0.88" style="stop-color:#9C9FA0"/>
			<stop  offset="1" style="stop-color:#4C4D4E"/>
		</linearGradient>
		<path class="st15" d="M385.5,1265.8h740.9v4.9c0,11.9-9.7,21.6-21.6,21.6H406.5c-5.6,0-10.9-2.2-14.9-6.2s-6.2-9.3-6.2-14.9v-5.4
			H385.5z"/>
		<path class="st16" d="M1103.6,1296.4c0,2.6-22.6,6.4-26.8,6.4H437.4c-4.2,0-26.8-3.8-26.8-6.4H1103.6z"/>
		
			<linearGradient id="SVGID_2_" gradientUnits="userSpaceOnUse" x1="306.9803" y1="1110.8455" x2="306.9803" y2="1111.7893" gradientTransform="matrix(109.19 0 0 11.36 -32766.9238 -11351.6211)">
			<stop  offset="0" style="stop-color:#9C9FA0"/>
			<stop  offset="0.24" style="stop-color:#A2A5A6"/>
			<stop  offset="1" style="stop-color:#4C4D4E"/>
		</linearGradient>
		<path class="st17" d="M803.8,1267.5c-0.1,5.8-4.8,10.6-10.6,10.7h-82.8c-6,0-9.7-5.4-9.7-10.7H803.8z"/>
		<path class="st18" d="M649.9,1300.9c2-1.6,7.7-1.5,9.1,0.1C656.1,1301.8,652.9,1301.6,649.9,1300.9z"/>
		<path class="st18" d="M850.8,1301.2c2-1.6,7.7-1.5,9.1,0.1C856.9,1302.1,853.7,1302.1,850.8,1301.2z"/>
		<path class="st18" d="M437.1,1300.5c2-1.6,7.7-1.5,9.1,0.1C443.3,1301.5,440.1,1301.4,437.1,1300.5z"/>
		<path class="st18" d="M1060.4,1301c2-1.6,7.7-1.5,9.1,0.1C1066.5,1302,1063.4,1302,1060.4,1301z"/>
		<path class="st19" d="M1053.5,1280.8c-0.5,0.2-1,0.4-1.5,0.4h-21.7c-0.5,0.1-1.1-0.1-1.5-0.5
			C1037.1,1280.5,1045.3,1280.5,1053.5,1280.8z"/>
		<path class="st20" d="M1028.4,1282.4c-0.9-1.2-1.8-2.3,0.4-3.1c5.5,0.5,11,0.1,16.5,0.2c2.7,0.2,5.5,0.1,8.2-0.2
			c2.2,1.1,1.2,2.1,0,3.1c-1.5,0.6-3,0.3-4.5,0.3c-6,0-12,0-18,0C1030.1,1282.8,1029.2,1283.1,1028.4,1282.4z"/>
		<path class="st21" d="M1028.4,1282.4l25.1,0.1c0,0.1,0,0.3,0,0.4c-8.3,0-16.6,0.1-24.9,0.1c-0.1,0-0.2-0.1-0.2-0.1
			C1028.4,1282.8,1028.4,1282.5,1028.4,1282.4z"/>
		<path class="st19" d="M1053.5,1279.4c-0.5,0.2-1,0.4-1.5,0.4h-21.7c-0.5,0.1-1.1-0.1-1.5-0.5
			C1037.1,1279.1,1045.3,1279,1053.5,1279.4z"/>
		<path class="st19" d="M1053.5,1279.4c-0.5,0.2-1,0.4-1.5,0.4h-21.7c-0.5,0.1-1.1-0.1-1.5-0.5
			C1037.1,1279.1,1045.3,1279,1053.5,1279.4z"/>
		<path class="st20" d="M1028.4,1282.4c-0.9-1.2-1.8-2.3,0.4-3.1c5.5,0.5,11,0.1,16.5,0.2c2.7,0.2,5.5,0.1,8.2-0.2
			c2.2,1.1,1.2,2.1,0,3.1c-1.5,0.6-3,0.3-4.5,0.3c-6,0-12,0-18,0C1030.1,1282.8,1029.2,1283.1,1028.4,1282.4z"/>
		<path class="st22" d="M1028.4,1282.4l25.1,0.1c0,0.1,0,0.3,0,0.4c-8.3,0-16.6,0.1-24.9,0.1c-0.1,0-0.2-0.1-0.2-0.1
			C1028.4,1282.8,1028.4,1282.5,1028.4,1282.4z"/>
		<path class="st19" d="M1053.5,1279.4c-0.5,0.2-1,0.4-1.5,0.4h-21.7c-0.5,0.1-1.1-0.1-1.5-0.5
			C1037.1,1279.1,1045.3,1279,1053.5,1279.4z"/>
	</g>
</g>
<g>
	<g id="Artwork_3_1_">
		<g>
			<g>
				<g>
					<defs>
						<rect id="SVGID_3_" x="706.5" y="1028.5" width="98.7" height="94.9"/>
					</defs>
					<clipPath id="SVGID_4_">
						<use xlink:href="#SVGID_3_"  style="overflow:visible;"/>
					</clipPath>
					<g class="st23">
						<g>
							<g>
								<defs>
									<rect id="SVGID_5_" x="706.5" y="1028.5" width="98.7" height="94.9"/>
								</defs>
								<clipPath id="SVGID_6_">
									<use xlink:href="#SVGID_5_"  style="overflow:visible;"/>
								</clipPath>
								<path class="st24" d="M758.1,1123.5c-20.2-10.8-32.6-25-43.3-40.2c-9.5-13.3-11.4-28.8-1.9-43.3
									c9.2-14.6,22.5-12.7,36.1-6.6c6.3,2.8,12.3,1.3,18.3-1.3c10.8-4.7,21.2-5.1,29.7,4.4c10.1,11.4,10.8,24.7,5.1,38
									C793.2,1095,775.2,1107.6,758.1,1123.5"/>
							</g>
						</g>
					</g>
				</g>
			</g>
		</g>
	</g>
</g>
</svg>
