<?xml version="1.0" encoding="utf-8"?>
<!-- Generator: Adobe Illustrator 23.0.1, SVG Export Plug-In . SVG Version: 6.00 Build 0)  -->
<svg version="1.1" id="Layer_1" xmlns="http://www.w3.org/2000/svg" xmlns:xlink="http://www.w3.org/1999/xlink" x="0px" y="0px"
	 viewBox="0 0 178.7 284.4" style="enable-background:new 0 0 178.7 284.4;" xml:space="preserve">
<style type="text/css">
	.st0{fill:#EA4647;}
	.st1{fill:#296EB7;}
</style>
<g>
	<g>
		<path class="st0" d="M131.6,189L131.6,189c0-4.8-4-8.8-8.8-8.8H64.4c-4.8,0-8.8,4-8.8,8.8l0,0c0,4.8,4,8.8,8.8,8.8
			c-4.8,0-8.8,4-8.8,8.8c0,4.8,4,8.8,8.8,8.8h4.9c-4.8,0-8.8,4-8.8,8.8c0,4.8,4,8.8,8.8,8.8h48.6c4.8,0,8.8-4,8.8-8.8
			c0-4.8-4-8.8-8.8-8.8h4.9c4.8,0,8.8-4,8.8-8.8c0-4.8-4-8.8-8.8-8.8C127.6,197.8,131.6,193.8,131.6,189z"/>
	</g>
	<path class="st1" d="M89.4,14.8c-44.1,0-80.1,35.9-80.1,80.1c0,24.5,10.9,47.2,30,62.5v10.2c0,8.2,4.3,15.5,10.8,19.6
		c-1.8,2.2-2.9,5.1-2.9,8.2c0,3.4,1.3,6.5,3.4,8.8c-2.1,2.3-3.4,5.4-3.4,8.8c0,4.8,2.6,9,6.5,11.3c-1,1.9-1.6,4-1.6,6.3
		c0,7.2,5.8,13,13,13c-0.5,1.4-0.8,3-0.8,4.6c0,17.7,13.7,21.5,25.2,21.5c16.7,0,25.2-7.2,25.2-21.5c0-1.6-0.3-3.1-0.8-4.6
		c7.2,0,13-5.8,13-13c0-2.3-0.6-4.4-1.6-6.3c3.9-2.3,6.5-6.5,6.5-11.3c0-3.4-1.3-6.5-3.4-8.8c2.1-2.3,3.4-5.4,3.4-8.8
		c0-3.1-1.1-6-2.9-8.2c6.5-4.1,10.8-11.4,10.8-19.6v-10.2c19.1-15.3,30-37.9,30-62.5C169.4,50.7,133.5,14.8,89.4,14.8z M123.1,212.9
		c0,2.5-2.1,4.6-4.6,4.6h-4.9H65.1h-4.9c-2.5,0-4.6-2.1-4.6-4.6s2.1-4.6,4.6-4.6h58.4C121.1,208.3,123.1,210.4,123.1,212.9z
		 M89.4,261.1c-16.7,0-16.7-8.8-16.7-13c0-2.5,2.1-4.6,4.6-4.6h24.4c2.5,0,4.6,2.1,4.6,4.6C106.1,252.9,106.1,261.1,89.4,261.1z
		 M113.7,235.1h-12.1H77.2H65.1c-2.5,0-4.6-2.1-4.6-4.6s2.1-4.6,4.6-4.6h48.6c2.5,0,4.6,2.1,4.6,4.6S116.2,235.1,113.7,235.1z
		 M118.6,190.8c2.5,0,4.6,2.1,4.6,4.6c0,2.5-2.1,4.6-4.6,4.6H60.2c-2.5,0-4.6-2.1-4.6-4.6c0-2.5,2.1-4.6,4.6-4.6h2.3h53.7H118.6z
		 M75,111.5c-4.8-1-8.5-2.6-8.6-4.8c-0.1-1.3,0.3-1.9,0.6-2.1c0.7-0.7,2.3-1.1,4.3-1.1c0.6,0,1.3,0,1.9,0.1c1,0.1,1.7,0.9,1.7,1.9
		V111.5z M98.7,182.3H80.1v-64.8c4.1,0.4,7.7,0.4,9.3,0.4c1.6,0,5.2,0,9.3-0.4V182.3z M132.6,151.9c-1,0.8-1.7,2-1.7,3.4v12.3
		c0,8.1-6.6,14.8-14.8,14.8h-12.5v-65.6c6.8-1.3,13.4-4,13.6-9.7c0.1-3.1-1.1-5-2.2-6.1c-2.1-2-5.6-2.8-10.2-2.4
		c-3.6,0.4-6.3,3.4-6.3,7v6.8c-3.1,0.4-6.3,0.5-9.2,0.5c0,0,0,0-0.1,0c0,0,0,0,0,0c-2.9,0-6.1-0.1-9.2-0.5v-6.8c0-3.6-2.7-6.6-6.3-7
		c-4.7-0.5-8.1,0.3-10.2,2.4c-1.1,1-2.4,2.9-2.2,6.1c0.3,5.7,6.8,8.4,13.6,9.7v65.6H62.5c-8.1,0-14.8-6.6-14.8-14.8v-12.3
		c0-1.3-0.6-2.6-1.7-3.4c-18-13.7-28.3-34.5-28.3-57c0-39.5,32.1-71.6,71.6-71.6c39.5,0,71.6,32.1,71.6,71.6
		C161,117.5,150.7,138.2,132.6,151.9z M103.7,111.5v-6c0-1,0.7-1.8,1.7-1.9c0.7-0.1,1.3-0.1,1.9-0.1c2,0,3.5,0.4,4.3,1.1
		c0.3,0.3,0.7,0.8,0.6,2.1C112.2,109,108.5,110.5,103.7,111.5z"/>
</g>
</svg>
