<svg xmlns="http://www.w3.org/2000/svg" viewBox="0 0 78.43 77.66">
  <defs>
    <style>
      .\32 b20944b-4ff1-42f6-88df-679adbc488e6 {
        fill: #ea4647;
      }

      .\33 7a3aeee-ecbd-4d33-a930-5d77727bfdf7 {
        fill: #333;
      }
    </style>
  </defs>
  <title>M Media Logo</title>
  <g id="b39de389-a7b8-4fea-bf2a-08118139ae3d" data-name="Layer 2">
    <g id="e5627d46-71ce-4e60-8295-4311cfc92d3f" data-name="Layer 2">
      <g>
        <g>
          <path class="2b20944b-4ff1-42f6-88df-679adbc488e6" d="M14.12,1.06l1.14,48.45,14.87-.35h0L29.52,23,29,1.08A3.25,3.25,0,0,0,27.38.74Z"/>
          <path class="2b20944b-4ff1-42f6-88df-679adbc488e6" d="M60,48.45a4.31,4.31,0,0,0,3-1.34h0A4.31,4.31,0,0,0,64.21,44L63.27,4.21a4.31,4.31,0,0,0-1.34-3h0A4.31,4.31,0,0,0,58.85,0l-9,.21a3.18,3.18,0,0,0-3,2.09L41.07,13.42c-.45.82-.65,1.16-1.18,1.17h-.61c-.54,0-.75-.32-1.24-1.12L31.72,2.66A3.88,3.88,0,0,0,30.2,1l.52,22,4.14,7.24a3.53,3.53,0,0,0,3.62,2.07l2.69-.06A3.53,3.53,0,0,0,44.69,30l3.8-7.43.62,26.11"/>
          <polygon class="2b20944b-4ff1-42f6-88df-679adbc488e6" points="64.31 48.35 64.31 48.35 64.31 48.35 64.31 48.35"/>
        </g>
        <g>
          <path class="37a3aeee-ecbd-4d33-a930-5d77727bfdf7" d="M11.62,76.85a.28.28,0,0,1,0,.17l-3.19,0q0-.39,0-.72a.69.69,0,0,0-.17-.51,1.92,1.92,0,0,0-.07.42l0-.59.1-.07h-.1v-.17c.12,0,.19-.06.21-.05l.28.09a2.93,2.93,0,0,1,.46-1.66q.46-.68.7-1.14A2.25,2.25,0,0,0,9,73.3a5.24,5.24,0,0,0-.56.89l-.12,0-.12,0-.07-4.51a1.76,1.76,0,0,1,.42.17A2,2,0,0,0,9,70a.55.55,0,0,1-.1.49c-.12.16-.08.29.1.38a2.91,2.91,0,0,0,.53-.63,4.39,4.39,0,0,0,.4-.8,3.17,3.17,0,0,0,.19-.87,2,2,0,0,0-.1-.84.24.24,0,0,0-.25.05.23.23,0,0,1-.25.05,2.41,2.41,0,0,0-.28-1.12,1.87,1.87,0,0,0-.07.7q0,.31.07.8a.64.64,0,0,0,.3,0l.21-.05a.39.39,0,0,1,.16,0s.08.08.11.19l-.37.18-.4.21v-.39q-.39,0-.49.25l.28.23a1.51,1.51,0,0,1,.28.33.6.6,0,0,1,.09.37.45.45,0,0,1-.26.33.26.26,0,0,0,0-.28.36.36,0,0,0-.25-.12,1.91,1.91,0,0,0-.35,0l-.33.05v-.67a.6.6,0,0,1,.56,0,.38.38,0,0,0-.17-.31.87.87,0,0,0-.38-.07l0-.25a.45.45,0,0,0,.25-.37.58.58,0,0,1,.21-.4.61.61,0,0,1-.25,0l-.21,0v-.39A3,3,0,0,0,8,66.11a1.43,1.43,0,0,0-.32-.54.88.88,0,0,0-.44-.25,2.32,2.32,0,0,0-.49-.05q-1.12,0-1.33,1.5a4.37,4.37,0,0,0-.51-.44c-.17-.13-.34-.26-.51-.4a.7.7,0,0,1,0,.45.26.26,0,0,1-.17.12L4,66.56a.41.41,0,0,0-.25.25h.77a1.18,1.18,0,0,1,0,.89q-.18.4-.87.26,0,.35.17.46a.42.42,0,0,1,.21.42c0,.26,0,.42-.17.49a1.28,1.28,0,0,1-.51.12l-.58.05a.46.46,0,0,0-.39.25l.3,0a.16.16,0,0,1,.19.12H2.49c0,.28.14.45.28.51a.9.9,0,0,0,.51,0,6.63,6.63,0,0,0,.67-.16,1.25,1.25,0,0,1,.72,0,.44.44,0,0,0,0-.4.55.55,0,0,1-.1-.37.72.72,0,0,1,.38-.12,2.67,2.67,0,0,1,.52,0l.14,7.42c0,.23-.06.35-.32.35l-2.94.07a.82.82,0,0,0,.17-.35.21.21,0,0,0-.25.09l-.14.26H.38L.28,77,.21,73.81a.32.32,0,0,0,.25-.19c0-.1,0-.17-.1-.19a.38.38,0,0,1-.14.17V72.27q.14.91.38,1a.52.52,0,0,0-.09-.42q-.12-.14.19-.21Q.63,73,.79,73a1.07,1.07,0,0,1,.3.16,1.79,1.79,0,0,1-.3-.86,7.36,7.36,0,0,1,.05-1.07.62.62,0,0,1-.23,0l-.16-.07c0,.12,0,.19-.09.23l-.19.12,0-1.5a.75.75,0,0,1,.28,0L.7,70c0-.12,0-.19.09-.23A.44.44,0,0,0,1,69.61a1.56,1.56,0,0,0-.4.1q-.16.07-.23-.25c.09,0,.14-.06.14-.12a.34.34,0,0,0-.05-.17A1.75,1.75,0,0,1,.33,69a.22.22,0,0,1,0-.23c0-.12.16-.16.33-.12s.27,0,.3-.16q-.46,0-.47-.19T.84,68c-.3,0-.48,0-.54-.19s-.12-.38-.19-.61V66.7H.35a1.07,1.07,0,0,0-.28-.84V64.25a.31.31,0,0,0,.14,0,.2.2,0,0,1,0-.25.44.44,0,0,0,.11-.19s0-.06-.14-.09a.78.78,0,0,1-.17.11L0,61.7l.07-.46.17-.17,4.41,0L5,62.47a6.16,6.16,0,0,1,1.63-1.4,4.46,4.46,0,0,1,2.12-.53,9.05,9.05,0,0,1,1.19.07,3.71,3.71,0,0,1,.94.25,1.57,1.57,0,0,0,.6.73,2,2,0,0,0-.07-.46,4.53,4.53,0,0,1,1.16,1.16l.14-.14c.07,0,0,.1-.09.16s-.17.12-.12.19a.91.91,0,0,0,.63-.14.19.19,0,0,0,0-.25.54.54,0,0,0-.21-.14,4.87,4.87,0,0,1,3.57-1.58,6.66,6.66,0,0,1,1.37.14,4.19,4.19,0,0,1,1.26.49v.21a.39.39,0,0,1,.46.23.84.84,0,0,0,.31.4.76.76,0,0,0-.14-.42,4.7,4.7,0,0,1,.7.8.88.88,0,0,1-.37-.09L19.69,62a1.56,1.56,0,0,0-.37-.09.34.34,0,0,0-.32.19,1.25,1.25,0,0,0,.72.23,1,1,0,0,1,.68.26.75.75,0,0,1,.17-.14,6,6,0,0,1,.74,3V66c-.09,0-.14.07-.14.21a.2.2,0,0,0,.14,0l0,.91a.73.73,0,0,0-.44.05l-.3.16-.3.12a.68.68,0,0,1-.44-.05.55.55,0,0,1,0,.25.78.78,0,0,1-.07.25c0,.07-.07.11-.11.12s-.06,0-.09-.12.13-.06.12-.17a.92.92,0,0,1,0-.32c-.12,0-.19-.05-.21,0a.25.25,0,0,0,0,.14.89.89,0,0,1,0,.17c0,.06-.05.09-.12.09s0-.16,0-.19a.26.26,0,0,0-.12-.07l-.14-.05s0-.09,0-.21q.49,0,.52-.25a.11.11,0,0,1-.09-.14,1.28,1.28,0,0,0,0-.21.37.37,0,0,0-.05-.19c0-.06-.12-.09-.26-.09a1.37,1.37,0,0,0-.26.61c0,.22-.06.44-.09.65a5.13,5.13,0,0,1-.11.61,1.13,1.13,0,0,1-.31.54A3,3,0,0,0,19.08,70,8.12,8.12,0,0,0,20,71a.57.57,0,0,1,.21-.37.58.58,0,0,1,.31-.09l.4,0a1,1,0,0,0,.47-.09l.11,6.37h-.25q-.11-.11-.11-.14a1.47,1.47,0,0,1,0-.4,2.51,2.51,0,0,0,0-.42.79.79,0,0,0-.09-.32.3.3,0,0,0-.28-.12,3.47,3.47,0,0,0,.07.72l.14.68-2.87.07a1.05,1.05,0,0,0,0-.31.55.55,0,0,1-.35-.16,1.15,1.15,0,0,0-.28-.23,1.07,1.07,0,0,0,0-.33.16.16,0,0,1,.12-.19q-.07.39.12.46a2.11,2.11,0,0,1,.37.17,8.68,8.68,0,0,1-.35-2.13.16.16,0,0,0,.23-.05.77.77,0,0,0,.12-.28.43.43,0,0,0,0-.25c0-.06-.06,0-.1.05s-.15.23-.25.19a.69.69,0,0,1-.28-.23,3.88,3.88,0,0,1-.28-.4L17,72.9a.37.37,0,0,1-.33,0,.61.61,0,0,0-.3-.09,1.27,1.27,0,0,0-.14.63c.3-.12.48-.12.54,0a2,2,0,0,0,.33.4c-.16,0-.27,0-.31,0a.19.19,0,0,0-.05.18.69.69,0,0,0,.1.24.47.47,0,0,0,.16.18q-.35-.07-.47.09a1.79,1.79,0,0,1-.3.3.56.56,0,0,0,0-.28v-.35a.24.24,0,0,1,.17.07.21.21,0,0,0,.21,0v-.49a1.32,1.32,0,0,1-.42-.07l-.1-6.83a2.94,2.94,0,0,0-.12-.95,1.43,1.43,0,0,0-.31-.54.88.88,0,0,0-.42-.25,2.09,2.09,0,0,0-.47-.05,1.09,1.09,0,0,0-1,.53,2.78,2.78,0,0,0-.31,1.43v1.12h-.63a.8.8,0,0,0,.28.33,1,1,0,0,0,.38.19l0,2c-.12.09-.12.19,0,.28v.56c-.19,0-.29.07-.32.21a.22.22,0,0,0,.16.07.37.37,0,0,1,.16,0L13.54,77l-1.79,0c0-.19,0-.32-.07-.38a1.43,1.43,0,0,0-.32-.18c0,.12,0,.19.07.23A.45.45,0,0,1,11.62,76.85ZM.14,68.1a.79.79,0,0,1,.07.35S.14,68.34.14,68.1Zm.21,2a1.29,1.29,0,0,0,0,.19.54.54,0,0,0,.07.21.28.28,0,0,0,.09.1s0,0,.07-.12A1.59,1.59,0,0,0,.35,70.1ZM.7,75.31a3.06,3.06,0,0,0-.09.52.39.39,0,0,0,.23.38A.83.83,0,0,1,.89,76,3.24,3.24,0,0,0,1,75.68a.39.39,0,0,0,0-.26C.93,75.35.84,75.31.7,75.31ZM1.37,77a.25.25,0,0,0-.07-.26.33.33,0,0,0-.21-.09.27.27,0,0,0-.19.09A.28.28,0,0,0,.84,77ZM.84,65.55q0,.46.53.39c0-.21,0-.33-.11-.37A1,1,0,0,0,.84,65.55Zm.25,6.23a.37.37,0,0,0-.12.35.28.28,0,0,0,.26.28.57.57,0,0,1,0-.4C1.27,71.83,1.23,71.75,1.08,71.78Zm.14-1c0,.14,0,.23.12.26a.34.34,0,0,0,.26,0,.75.75,0,0,0,.26-.17A.34.34,0,0,0,2,70.62a.49.49,0,0,0-.42,0A.57.57,0,0,1,1.23,70.76Zm.88-5.6A.77.77,0,0,1,2,65a1.39,1.39,0,0,0-.14-.23.29.29,0,0,0-.17-.11q-.11,0-.21.12.28,0,.28.38a.75.75,0,0,1-.14.53A.49.49,0,0,0,2.1,65.16ZM2,68.35A2.25,2.25,0,0,0,2.47,68a.42.42,0,0,0,0-.52,1,1,0,0,0-.51.35A.39.39,0,0,0,2,68.35Zm1.4-5a1.44,1.44,0,0,0-.53-.87,1,1,0,0,0,.19.51A5,5,0,0,0,3.4,63.38Zm.25-2.13q-.49-.07-.63.25a2.18,2.18,0,0,0,.42,0A.25.25,0,0,0,3.64,61.24ZM3,69.75h.25V70H3Zm.63,4.69c0-.09,0-.16,0-.21a.26.26,0,0,0-.19-.07.71.71,0,0,0-.23,0c-.07,0-.1.06-.1.1a.28.28,0,0,1,.26.05A.35.35,0,0,0,3.64,74.44ZM3.4,63.52c0,.16,0,.27.09.33a1.85,1.85,0,0,0,.26.16Q3.71,63.45,3.4,63.52Zm.49,2.17c0-.07.05-.13,0-.18a.32.32,0,0,0-.14-.1.23.23,0,0,0-.17,0,.14.14,0,0,0-.09.14q.17,0,.14.14Zm.25-.77a.21.21,0,0,1,.16.05.16.16,0,0,0,.12.05,2.36,2.36,0,0,1-.05-.28c0-.09-.09-.13-.23-.11Zm.63,3.43a.44.44,0,0,1,.28,0s.08.09.11.21.07.19.14.21a.54.54,0,0,1,.14-.28V69a1.32,1.32,0,0,0-.26.18.45.45,0,0,1-.4,0A.91.91,0,0,0,4.87,69s0-.06-.09-.07l-.19,0a.26.26,0,0,1-.17-.12c.19,0,.27-.11.26-.19A.19.19,0,0,1,4.76,68.35Zm0-1.4q.28-.14.39-.07a1.53,1.53,0,0,0,.28.14.2.2,0,0,0,0,.14c0-.09-.16-.12-.33-.09S4.78,67.07,4.76,66.95Zm.28.77c0-.14,0-.21.12-.23a.37.37,0,0,0,.23-.09V68l-.12.11-.12.1A.24.24,0,0,0,5.09,68C5,67.92,5,67.83,5,67.72Zm.38,6.2a.38.38,0,0,0-.28-.38A.35.35,0,0,0,5.42,73.91Zm2.91.38a.14.14,0,0,1,.21.07.74.74,0,0,1,0,.63.14.14,0,0,1-.21.07,1.09,1.09,0,0,0,0-.77Zm1.4-8.75a.85.85,0,0,0,0,.77,1.82,1.82,0,0,0,.52.59,2.83,2.83,0,0,0,.72.38,1.93,1.93,0,0,0,.63.14l-.38-.18a1.8,1.8,0,0,1-.26-.16l-.28-.21-.44-.33a2.62,2.62,0,0,0-.14-1.08,1.86,1.86,0,0,1-.14-.84,2,2,0,0,1-.12.26s0,0,0-.07a1.81,1.81,0,0,0-.05-.19.16.16,0,0,0-.18-.1.68.68,0,0,0-.14.56C9.47,65.35,9.57,65.5,9.73,65.55Zm0,10a.87.87,0,0,0,.14-.35q.07-.28-.14-.32a.87.87,0,0,0-.14.35C9.54,75.46,9.59,75.57,9.73,75.59Zm.25-12a.3.3,0,0,0,0,.26.6.6,0,0,0,.12.19.22.22,0,0,0,.16.07q.09,0,.12-.14c-.07,0-.12,0-.14-.14a.43.43,0,0,0-.09-.19A.21.21,0,0,0,10,63.62Zm.52,10.29h-.38q-.07.46.38.38Zm-.38.91a.59.59,0,0,0,.09.38q.12.25.16,0A.64.64,0,0,0,10.12,74.82Zm.63-3.43a.72.72,0,0,1,.14-.39q-.31.07-.33-.14a.24.24,0,0,0-.19-.25c-.16.19-.19.35-.07.49A.84.84,0,0,0,10.75,71.39Zm.63.38c.09.09.17.12.23.09a.15.15,0,0,0,.09-.12s0-.08-.09-.11S11.47,71.66,11.38,71.78Zm.91-4.34q-.07.49.25.52A.85.85,0,0,0,12.29,67.44Zm.11-4.31h.24a.25.25,0,0,1,.11-.17s.06-.09,0-.21h-.38Zm1,5.53s0-.06,0-.1Zm.1-6.54a.32.32,0,0,0,0,.35.44.44,0,0,0,.26.18.88.88,0,0,0,.35,0,.38.38,0,0,0,.26-.14q-.35,0-.46-.17A.42.42,0,0,0,13.54,62.12Zm.77-.87a.31.31,0,0,0-.26,0,.28.28,0,0,0-.11.17,2.24,2.24,0,0,1-.05.23.43.43,0,0,1-.11.19.45.45,0,0,0,.35-.26A2.07,2.07,0,0,1,14.32,61.24Zm-.53,3a.43.43,0,0,0,.32.09c.12,0,.19-.09.21-.23a1.08,1.08,0,0,1-.33,0A.16.16,0,0,0,13.79,64.29Zm.77-2.8c0,.07,0,.12-.14.14a.43.43,0,0,0-.19.09.21.21,0,0,0-.05.16c.09,0,.14.13.14.38.14-.12.26-.15.37-.1a1.59,1.59,0,0,1,.33.21,2.41,2.41,0,0,0,.33.23q.16.09.37-.09a1.58,1.58,0,0,1-.63-.54A1.24,1.24,0,0,0,14.56,61.49Zm.77,1.64a.24.24,0,0,0-.07-.25.69.69,0,0,0-.24-.16.79.79,0,0,0-.28-.05c-.09,0-.15,0-.17.07a.69.69,0,0,1,.37.23A.48.48,0,0,0,15.33,63.13Zm.25-1.89c-.35,0-.52.08-.51.1s.08,0,.21,0l.37,0C15.76,61.35,15.74,61.31,15.58,61.24ZM16.83,61c0,.14-.08.21-.16.21a.76.76,0,0,1-.26-.05.75.75,0,0,0-.26-.05c-.08,0-.15.09-.19.28a2.06,2.06,0,0,1,1,.49,2.32,2.32,0,0,0,.93.53c0-.23,0-.37-.14-.42a1.55,1.55,0,0,0-.49-.07,1.18,1.18,0,0,1-.1-.53A.35.35,0,0,0,16.83,61Zm-.63,4.83a.53.53,0,0,0,.33.59q.4.21.54,0a.36.36,0,0,1-.25-.14l-.14-.23a.79.79,0,0,0-.17-.21A.39.39,0,0,0,16.21,65.79Zm.14-4.2c-.12.12-.16.22-.14.32s.15.12.38.07A.43.43,0,0,0,16.34,61.59Zm.88,14.74a.19.19,0,0,0,.16.21c.1,0,.13.13.09.32v.07h-.94l-.28-.14,0-1.71a.76.76,0,0,1,.26.25,1.13,1.13,0,0,0,.26.28.71.71,0,0,1-.39-.14q-.1,1,.49,1.26A.34.34,0,0,1,17.22,76.33ZM16.45,62.5c.07,0,.13,0,.17,0a.46.46,0,0,0,.11-.16.24.24,0,0,0,0-.17q0-.09-.14-.05a.12.12,0,0,1-.14.14ZM17,64.39q.28.07.28-.19a.84.84,0,0,1,.11-.44.29.29,0,0,1-.19-.12.3.3,0,0,0-.19-.12.4.4,0,0,0-.05.24A.73.73,0,0,0,17,64a.82.82,0,0,1,.07.19A.31.31,0,0,1,17,64.39ZM17,66a.72.72,0,0,0,.56-.14,1,1,0,0,0,.3-.42,1,1,0,0,0,0-.51.75.75,0,0,0-.26-.44v1q-.39-.1-.49,0T17,66Zm.1,4.72q.21.07.32-.17c.07-.16.06-.23,0-.21a.2.2,0,0,1-.19.16C17.06,70.55,17,70.62,17.08,70.76Zm1.54,1.51a.16.16,0,0,1-.17-.12,1.69,1.69,0,0,1-.05-.28c0-.1,0-.2,0-.28a.27.27,0,0,0-.12-.19c-.14.07-.21.14-.21.21a.47.47,0,0,0,.05.21,1.36,1.36,0,0,1,.09.23.22.22,0,0,1-.07.23c-.12,0-.16-.06-.14-.18s0-.19-.1-.21a1.85,1.85,0,0,0-.09.47c0,.17-.15.23-.4.16V73c.26,0,.4,0,.42-.19a.73.73,0,0,1,.21-.44c.16-.09.29-.11.37,0S18.53,72.41,18.62,72.27Zm-1-9.38a.4.4,0,0,0-.09.44c.06.18.22.24.47.19Q17.92,63,17.61,62.89Zm0,7.87a1.11,1.11,0,0,1,0,.39c0,.14.06.17.25.1C17.9,70.95,17.82,70.79,17.61,70.76Zm.25-6.47a1,1,0,0,0,.16-.35q.09-.28-.16-.32a.23.23,0,0,1,0,.21.94.94,0,0,1-.09.19.6.6,0,0,0-.07.16S17.76,64.27,17.85,64.29Zm-.11,4.45c.16.49.37.78.63.88a2.39,2.39,0,0,0-.3-.65C17.93,68.72,17.82,68.64,17.75,68.73Zm.63,2.42c0-.3-.14-.48-.28-.53Q18,71.11,18.38,71.15Zm-.28-8.65c.07.16.13.23.18.21a.14.14,0,0,0,.07-.14.29.29,0,0,0-.05-.17S18.19,62.39,18.09,62.5Zm0,1h.28q0-.14.07-.18s.06-.09,0-.21h-.39Zm.77,8.26a.73.73,0,0,0-.11.38.84.84,0,0,0,.09.38.7.7,0,0,0,.25.28.56.56,0,0,0,.4.07.76.76,0,0,1-.37-.6A.65.65,0,0,0,18.87,71.78Zm.14-9a2.27,2.27,0,0,1,.05.59c0,.16,0,.32,0,.46s0,.29-.05.44a1.49,1.49,0,0,0,0,.54.23.23,0,0,0,.25-.05.3.3,0,0,1,.25-.09q.07-.28-.12-.33a.38.38,0,0,1-.26-.3A.76.76,0,0,1,19.5,64L20,64a1.6,1.6,0,0,0,.47-.07.53.53,0,0,0,.33-.28,1.23,1.23,0,0,0-.72-.07.8.8,0,0,0-.58.35,1,1,0,0,1-.14-.4q-.07-.33.14-.37a.65.65,0,0,1,.35.07c.07,0,.13,0,.18-.21a1.75,1.75,0,0,0-.54-.05.61.61,0,0,1-.37-.05C19.11,62.77,19.08,62.73,19,62.75ZM19.11,73a.26.26,0,0,0,0,.28.53.53,0,0,0,.23.16.53.53,0,0,0,.26,0,.19.19,0,0,0,.16-.09,1.05,1.05,0,0,1-.32-.19A1,1,0,0,0,19.11,73Zm.67-2c-.16,0-.27,0-.32.09s-.16.1-.35.05a.85.85,0,0,1,0,.3.15.15,0,0,0,.12.19c0-.14,0-.23,0-.26a.55.55,0,0,1,.21-.07.74.74,0,0,0,.23-.07C19.78,71.2,19.8,71.12,19.78,71Zm1.5-2.94c-.28-.14-.38-.29-.32-.44a1.19,1.19,0,0,1,.39-.44v.38h-.07v.25s.07,0,.07,0l0,.77a.83.83,0,0,0-.28.17.29.29,0,0,0-.07.28.45.45,0,0,0,.35,0v.17a1.88,1.88,0,0,0-.79.33,3.43,3.43,0,0,1-.72.4.45.45,0,0,1-.21-.26,2.17,2.17,0,0,1-.1-.4.84.84,0,0,1,0-.38.27.27,0,0,1,.19-.21,1.36,1.36,0,0,1,0,.51c0,.22,0,.34.14.37a5.2,5.2,0,0,1,.61-1A1.3,1.3,0,0,1,21.28,68.07Zm-1.5-1.37c.07.16.12.23.16.21a.16.16,0,0,0,.05-.14.29.29,0,0,0-.05-.18S19.84,66.59,19.78,66.7Zm.73-4q-.14.28-.09.4c0,.08.08.12.12.12s.08,0,.11-.14A.52.52,0,0,0,20.51,62.75Zm.42,7.46s.08,0,.1-.11a1.35,1.35,0,0,0,.05-.23.58.58,0,0,1,.07-.21c0-.06.11-.08.23-.05v.17s-.09.07-.21.07a.27.27,0,0,0,.05.26.28.28,0,0,1,.05.26c-.19,0-.3,0-.33-.05s-.13-.11-.3-.09a.14.14,0,0,1,.14-.11A.14.14,0,0,1,20.93,70.2Zm.1,1a.16.16,0,0,1,.14.05.27.27,0,0,0,.11.09,2.55,2.55,0,0,0,0-.32c0-.09-.09-.12-.23-.07Z"/>
          <path class="37a3aeee-ecbd-4d33-a930-5d77727bfdf7" d="M34.33,61.31a5.69,5.69,0,0,1,2.19,2.24,7.9,7.9,0,0,1,.82,4L37.27,70a.28.28,0,0,1-.1-.17,1,1,0,0,1-.56.4A.49.49,0,0,1,36,70a.66.66,0,0,0-.11.73l-.84-.14-.17-.17v.28l-5-.07c0-.21,0-.34-.21-.38,0,.09,0,.14-.11.14a.14.14,0,0,0-.14.11.56.56,0,0,1,.14.1H29a.33.33,0,0,0-.28-.07c-.09,0-.15.11-.17.25q.21.21.38.07a2.82,2.82,0,0,0,.12.61,2.74,2.74,0,0,0,.23.51v0a2.29,2.29,0,0,0,1.43,1.08,9.91,9.91,0,0,0,2.45.31,7.07,7.07,0,0,0,1.1,0,11.55,11.55,0,0,0,1.17-.16s0,0,0,.11a.89.89,0,0,0-.21.33.26.26,0,0,0,0,.3c.3,0,.46-.09.46-.26a.6.6,0,0,0-.17-.44l.16,0a.28.28,0,0,0,.12,0,.28.28,0,0,1,.21.07l0,.63h-.21q-.07.42.21.49l0,2.13a1.35,1.35,0,0,1,0,.32.45.45,0,0,1-.11.21,2,2,0,0,1-.45.07v0h-.25v.07l-.37.05-.37.05v0h-.25l0,0q-.63.07-1.22.09l-1,0a11.8,11.8,0,0,1-3.61-.59,1.72,1.72,0,0,0-.16-.59.6.6,0,0,0-.44-.32c0,.12-.06.16-.17.12a.14.14,0,0,0-.21.12q.42,0,.56.19a3.73,3.73,0,0,0,.28.4,4.57,4.57,0,0,1-1.79-1c0-.14-.11-.19-.17-.14a7.35,7.35,0,0,1-.68-.7A4.58,4.58,0,0,1,25,74c0-.23,0-.35-.14-.35q-.18-.38-.32-.79a7.68,7.68,0,0,1-.25-.89v-.07a9.91,9.91,0,0,1-.17-2.27,3.71,3.71,0,0,0,.19.61,3.85,3.85,0,0,0,.3.58,1.21,1.21,0,0,1,0,.35,1.57,1.57,0,0,0,0,.33.72.72,0,0,0,.09.28A.41.41,0,0,0,25,72a1,1,0,0,0,.07-.75,1.08,1.08,0,0,0-.39-.61,6.94,6.94,0,0,1-.23-1.1,2.25,2.25,0,0,0-.37-1V68a.29.29,0,0,0,.35.09.84.84,0,0,1,.38-.09l0-.25q-.11,0-.12-.05a.16.16,0,0,0-.09-.09.21.21,0,0,1-.26.14.28.28,0,0,0-.3.11l0-.49a7.84,7.84,0,0,1,.75-3.46,5.66,5.66,0,0,1,1.94-2.21c0,.12,0,.19.1.23a1.27,1.27,0,0,1,.25.12l0-.52h-.14l.37-.21a2.55,2.55,0,0,1,.4-.18v.18h.28V61.1h-.07a4.46,4.46,0,0,1,.95-.32c.33-.07.65-.13,1-.17a1.55,1.55,0,0,0-.14.52.94.94,0,0,0-.46,0c-.19,0-.28,0-.28-.14a.93.93,0,0,0,.37,0q.26,0,0-.14A.69.69,0,0,0,29,61c0,.14,0,.24,0,.3a1,1,0,0,0,.16.16l.16.14a.34.34,0,0,1,.07.24.64.64,0,0,1-.21-.12l-.23-.16a.69.69,0,0,0-.25-.09.24.24,0,0,0-.23.12,1.08,1.08,0,0,0,.23.42l.4.49a2.43,2.43,0,0,0,.3-.58c.08-.22.27-.32.58-.3a.64.64,0,0,1,.16-.59,3.12,3.12,0,0,1,.47-.42,3.43,3.43,0,0,1,.59,0,10.51,10.51,0,0,1,1.59.19,5.19,5.19,0,0,1,1.49.54q-.31,0-.28.26c0,.2.09.32.21.37s.14-.13.28-.11a.34.34,0,0,0-.07-.24A.34.34,0,0,1,34.33,61.31Zm-9.59,6.12.93.25a1.06,1.06,0,0,0,.82,0,.87.87,0,0,0-.82-.26Q25.09,67.44,24.74,67.44ZM25.65,72a1.71,1.71,0,0,0-.16.35,1.87,1.87,0,0,0-.11.51,1.11,1.11,0,0,0,.05.46c0,.13.16.19.35.19a.89.89,0,0,1,0-.42l.07-.33a1,1,0,0,0,0-.33A.94.94,0,0,0,25.65,72Zm.11,2,.86.31a.8.8,0,0,1,.51.67.67.67,0,0,0-.1-.56A1.32,1.32,0,0,0,26.6,74a1.16,1.16,0,0,0-.49-.16A.38.38,0,0,0,25.76,74Zm.56-9.35a.3.3,0,0,1-.12.19.29.29,0,0,0-.12.19.16.16,0,0,0,.19.07.36.36,0,0,0,.19-.12.23.23,0,0,0,.05-.19C26.5,64.71,26.44,64.66,26.32,64.64Zm.88,11.2a.94.94,0,0,0,0-.47c0-.13-.15-.18-.33-.16a2.24,2.24,0,0,0,.09.4A.36.36,0,0,0,27.19,75.84ZM27.12,74a.46.46,0,0,0,.18.47q.24.23.31,0c-.09,0-.15,0-.17-.07a1.41,1.41,0,0,1-.05-.21.62.62,0,0,0-.05-.17S27.24,74,27.12,74Zm.14-7.11a.24.24,0,0,0,.07.3.87.87,0,0,0,.3.17.52.52,0,0,0,.3,0c.09,0,.13-.09.1-.21A1.33,1.33,0,0,0,27.26,66.88Zm.88,0c.07,0,.1,0,.1.14h.25c0-.07.05-.13,0-.17a.33.33,0,0,0-.14-.1.19.19,0,0,0-.16,0A.14.14,0,0,0,28.14,66.91Zm.56,2.63c-.09,0-.13,0-.1-.07a1,1,0,0,1,.12-.17.5.5,0,0,0,.11-.17s0-.07-.12-.07-.06.14-.12.07a.25.25,0,0,0-.26-.07,1,1,0,0,0,.14.44Q28.59,69.75,28.7,69.54ZM28.77,72a2.94,2.94,0,0,1,.07.31,2.87,2.87,0,0,1-.07.32A.23.23,0,0,0,29,72.6a.3.3,0,0,1,.25-.09C29.24,72.19,29.07,72,28.77,72Zm4.09-5.11a4.17,4.17,0,0,0,.61.25.9.9,0,0,1,.51.38,1.75,1.75,0,0,0-.09-.61c-.06-.15.05-.25.33-.3a.81.81,0,0,1-.12-.33,2.48,2.48,0,0,1,0-.3,1.2,1.2,0,0,0,0-.28.88.88,0,0,0-.17-.31.34.34,0,0,1,.16,0c.06,0,.09,0,.09-.1a1.06,1.06,0,0,1-.38,0q-.21,0-.1.24c.09,0,.16,0,.19,0a.54.54,0,0,1,.05.25.65.65,0,0,1-.05.26c0,.08-.08.12-.12.12l-.59,0c.07.16.06.26,0,.3a1.2,1.2,0,0,0-.25.12c0-.14,0-.26-.05-.37s0-.21-.05-.33.1-.13,0-.25,0,0-.07,0A1.56,1.56,0,0,0,32,64.8a2.41,2.41,0,0,0-1-.26,2,2,0,0,0-1.45.56,3.41,3.41,0,0,0-.61,2.31l3.61.07a1.32,1.32,0,0,0,.31.14q0-.39.14-.49h-.14Zm-3.29,2.87c.07,0,.13,0,.17,0a.24.24,0,0,0,.07-.17.28.28,0,0,0-.05-.17s-.09,0-.16,0Zm.63-7.95-.21.28a3.41,3.41,0,0,0-.25.35.53.53,0,0,0-.09.33c0,.1.1.2.26.3a.82.82,0,0,1,.1-.35l.21-.4a1.49,1.49,0,0,0,.14-.33C30.4,61.92,30.34,61.86,30.2,61.84ZM30,75.42c.09.09.16.12.21.09a.15.15,0,0,0,.07-.12.11.11,0,0,0-.07-.1S30.05,75.3,30,75.42Zm.84-11.58c-.12-.09-.2-.13-.25-.1a.08.08,0,0,0-.05.1.21.21,0,0,0,.11.12C30.67,64,30.73,63.95,30.8,63.83Zm-.21,11.06a.43.43,0,0,0-.09.31c0,.12.09.19.23.21a1,1,0,0,1,0-.31A.19.19,0,0,0,30.59,74.89Zm.14-13.3a.54.54,0,0,1-.12.51q-.19.23.09.4a.32.32,0,0,1,.23-.3c.13,0,.19-.16.19-.37-.12,0-.2,0-.25-.05A1,1,0,0,0,30.73,61.59Zm-.14,7.49A1.32,1.32,0,0,1,31,69a.3.3,0,0,0,.26-.16,1,1,0,0,1-.47-.09C30.64,68.69,30.59,68.8,30.59,69.08Zm1-4.51a.49.49,0,0,0-.59-.46.23.23,0,0,0,.24.3C31.48,64.42,31.59,64.48,31.64,64.57Zm.07-3.08q0-.42-.14-.51c-.09-.06-.17-.06-.23,0a.25.25,0,0,0,0,.26C31.34,61.36,31.48,61.44,31.71,61.49Zm-.21.1c-.12.19-.15.31-.1.37a.15.15,0,0,0,.16.07c.06,0,.1-.06.12-.14S31.64,61.71,31.5,61.59Zm1.82,7.77c0,.19,0,.29.14.3a1.32,1.32,0,0,1,.35.09c-.07-.35-.2-.53-.38-.53Q33.42,69.4,33.32,69.36Zm.07-4.62a1.48,1.48,0,0,0-.07.37.37.37,0,0,0,.17.26c0-.16,0-.25.09-.26s.16-.09.16-.23-.13-.09-.1-.14Zm.31-3.12q0,.46,0,.91a.62.62,0,0,0,.24.63q0-.42.16-.44a.46.46,0,0,1,.37.16.64.64,0,0,0-.14-.68A4,4,0,0,0,33.7,61.63Zm.74,6.62c0-.12,0-.23-.05-.33s-.11-.14-.3-.12a.84.84,0,0,1-.14.21s0,.13,0,.25ZM34,70.13c-.09.12-.12.2-.09.25a.15.15,0,0,0,.12.07s.08,0,.1-.09S34.14,70.23,34,70.13Zm.7-2.59a.17.17,0,0,1-.12-.05l-.12-.09a.16.16,0,0,1-.05.14.12.12,0,0,0-.05.11.17.17,0,0,1,.12.05.44.44,0,0,0,.12.09.16.16,0,0,1,.05-.14A.12.12,0,0,0,34.72,67.54Zm-.32-2.13c.09,0,.16,0,.19,0a.28.28,0,0,0,.07-.16,1.28,1.28,0,0,0,0-.21.14.14,0,0,1,.07-.14H34.4Zm.14,11.09c-.09,0-.12.11-.09.19a.39.39,0,0,0,.17.19.4.4,0,0,0,.26.05c.09,0,.14-.09.14-.23-.19.07-.29.06-.3,0S34.66,76.53,34.54,76.5ZM35,67.4c0-.21-.05-.33-.23-.37s-.27,0-.3.23a1.39,1.39,0,0,1,.23.14C34.76,67.45,34.86,67.45,35,67.4Zm-.45-3.85q-.11.35,0,.46c.06.07.11,0,.16-.1s0-.43-.05-.46S34.57,63.46,34.54,63.55Zm1.26,5.11a.28.28,0,0,0-.09-.3.61.61,0,0,0-.3-.1,2.12,2.12,0,0,0-.39,0,1.09,1.09,0,0,1-.35,0,.66.66,0,0,1-.11.53,1,1,0,0,0,.35-.12l.26-.14a.49.49,0,0,1,.26,0A.76.76,0,0,1,35.8,68.66Zm-.17-3.78c0-.21,0-.31-.12-.31a.89.89,0,0,0-.25,0,.61.61,0,0,0-.21.1.15.15,0,0,0-.05.17Zm.8-1.29-.32-.14a1.38,1.38,0,0,1-.31-.17.36.36,0,0,1-.16-.25.41.41,0,0,1,.16-.32l-.38,0a.16.16,0,0,1-.05.14l-.09.07a.63.63,0,0,1,.25.25,2.21,2.21,0,0,0,.25.33.88.88,0,0,0,.3.23C36.17,63.74,36.29,63.7,36.43,63.59Zm-.77,6.83a.41.41,0,0,0,.09-.3c0-.1-.09-.18-.23-.23a.84.84,0,0,1,0,.3A.21.21,0,0,0,35.66,70.41Zm1.05-.63a1.14,1.14,0,0,1,.09-.47,1.76,1.76,0,0,1,.23-.37.39.39,0,0,0-.33.17,3.71,3.71,0,0,0-.21.33.45.45,0,0,1-.21.21q-.12.05-.33-.23-.07.49.17.44A5.46,5.46,0,0,1,36.71,69.78ZM36,68.17a.75.75,0,0,1,0,.23.15.15,0,0,0,.11.16c0-.12,0-.16.14-.14C36.26,68.21,36.17,68.13,36,68.17Zm.88-.21a.42.42,0,0,0-.28-.51.42.42,0,0,0-.56.12,2,2,0,0,1,.47.17Zm-.46-2c.07-.3,0-.43-.35-.38Q36.12,66,36.47,66Zm.28,4.38a.44.44,0,0,1,.11.19.8.8,0,0,1,0,.19h-.32a.53.53,0,0,1,.05-.19A.63.63,0,0,1,36.75,70.34Z"/>
          <path class="37a3aeee-ecbd-4d33-a930-5d77727bfdf7" d="M53.62,76.33a2.3,2.3,0,0,0-.35.59.1.1,0,0,0,0,.07l-4,0-.17-.14-.25-1.29a7.49,7.49,0,0,1-.56.51l-.56.44c-.14-.26-.27-.51-.4-.77a3.92,3.92,0,0,1-.3-.8.79.79,0,0,1-.35-.14l-.28-.19a1,1,0,0,0-.28-.12.52.52,0,0,0-.35.07.43.43,0,0,0,.3.47,1.6,1.6,0,0,0,.72,0,8.2,8.2,0,0,0,.3.88l.33.8a.14.14,0,0,0-.1,0l-.11.07-.09.05-.09.05a.38.38,0,0,1-.05-.26c0-.11,0-.2,0-.28a.58.58,0,0,0,0-.25.32.32,0,0,0-.21-.19c-.09.21-.19.27-.28.19a1.4,1.4,0,0,1-.28-.37A5,5,0,0,0,46,75.3q-.14-.19-.31,0a.89.89,0,0,0,.28.46,1.52,1.52,0,0,1,.32.4.75.75,0,0,1,0,.4.47.47,0,0,0-.3-.12l-.44,0a.59.59,0,0,1,0,.42c-.06.16,0,.23.12.21a1.65,1.65,0,0,1,.65-.23.64.64,0,0,1,.58.16,3.62,3.62,0,0,1-.87.26,6.49,6.49,0,0,1-1.12.09l-.61-.05a3.19,3.19,0,0,1-.58-.09A6.87,6.87,0,0,0,45,76.68l-.89,0a.48.48,0,0,0-.51.44,5.23,5.23,0,0,1-1.38-.54,3.66,3.66,0,0,1-1.14-1,2.36,2.36,0,0,0,.74-.7,5.1,5.1,0,0,0,.53-1.12,3.53,3.53,0,0,0,.12.58,3.89,3.89,0,0,0,.21.56,1.33,1.33,0,0,0,.35.46.84.84,0,0,0,.56.19,1.36,1.36,0,0,0,.72-.25,1.46,1.46,0,0,0,.56-.63.6.6,0,0,0-.54,0,.22.22,0,0,1-.33,0,.41.41,0,0,1,.09-.37.93.93,0,0,1,.28-.19l.3-.12a.37.37,0,0,0,.21-.23.53.53,0,0,0-.49.07c-.09.09-.27.12-.52.07-.07,0-.1.1-.09.16a.78.78,0,0,0,.07.19.5.5,0,0,1,.05.23.21.21,0,0,1-.14.19.57.57,0,0,0,0-.37.23.23,0,0,0-.17-.1.74.74,0,0,0-.23,0c-.07,0-.12,0-.14-.05a.38.38,0,0,1,.38-.25.32.32,0,0,0,0-.25.56.56,0,0,0-.23-.14.2.2,0,0,1-.14-.25.35.35,0,0,0,.37,0,1,1,0,0,0,.33-.31,1.62,1.62,0,0,0,.21-.46.54.54,0,0,0,0-.39,2.14,2.14,0,0,1-.58.05l-.44,0a1.78,1.78,0,0,0-.42,0,1.41,1.41,0,0,0-.49.21v-.87c-.09,0-.16,0-.19,0a.74.74,0,0,0-.12.21c0,.11-.11.16-.18.16a.21.21,0,0,0-.05-.16.46.46,0,0,1-.09-.12q.59-.49,1.16-1l1.12-1a1.3,1.3,0,0,0-.84.28,8.18,8.18,0,0,0-.7.63q-.35.35-.72.68a1.84,1.84,0,0,1-.89.44.93.93,0,0,0,0,.77,4,4,0,0,0,.63.75,1.51,1.51,0,0,1,.51.89.54.54,0,0,0-.49.21.86.86,0,0,1-.38.31c.12.3.07.53-.14.67a5.34,5.34,0,0,1-.32-.58q-.14-.3-.28-.68a.8.8,0,0,0,.44-.37c.13-.2.06-.34-.19-.44a.67.67,0,0,1-.07.35,1.22,1.22,0,0,1-.25.25,9.38,9.38,0,0,1-.42-1.84,14.45,14.45,0,0,1-.11-2.33V68.1a13.83,13.83,0,0,1,.32-2.77,1.41,1.41,0,0,1,.52.81q.14.52.25,1.12a.41.41,0,0,0,.35-.14,1,1,0,0,1,.28-.25.62.62,0,0,1-.25-.63q-.49.07-.52-.25a.76.76,0,0,0-.07-.63,7.7,7.7,0,0,0-.42-.67,2.27,2.27,0,0,0,.11-.33,2.05,2.05,0,0,1,.1-.33l.14.16.14.16a.37.37,0,0,0-.19.3.67.67,0,0,0,.07.37.93.93,0,0,0,.26.31.6.6,0,0,0,.38.14,1.09,1.09,0,0,0-.19-.32,2.12,2.12,0,0,1-.21-.28.66.66,0,0,1-.1-.26.32.32,0,0,1,.12-.26l.35.33a2.32,2.32,0,0,0,.42.3c.16-.33.16-.5,0-.53a1.09,1.09,0,0,0,0,.26q0,.12-.07,0a.23.23,0,0,1-.05-.19.15.15,0,0,0-.05-.16.56.56,0,0,1-.12-.12.35.35,0,0,1-.05-.21.65.65,0,0,0,.6.05,1.63,1.63,0,0,1,.52-.16.29.29,0,0,1-.17-.09.33.33,0,0,1,0-.17.89.89,0,0,0,0-.25c0-.08-.07-.12-.14-.12a.76.76,0,0,1-.25.26,1.72,1.72,0,0,1-.33.16l-.37.16a.83.83,0,0,0-.31.3L40.49,64a1.2,1.2,0,0,0-.1-.19,5.77,5.77,0,0,1,.73-1.37,5.39,5.39,0,0,1,.95-1,.29.29,0,0,0,.14.09.33.33,0,0,1,.14.09.48.48,0,0,0-.07-.32,4.89,4.89,0,0,1,2.94-.77,4.77,4.77,0,0,1,2.7.7q-.18-.07-.3.17c-.08.16-.07.23.05.21a.17.17,0,0,1,.17-.14c.09,0,.13-.07.11-.21l.42.33a4.43,4.43,0,0,1,.46.4v.28a.56.56,0,0,1,.3-.09.23.23,0,0,1,.14.09l.12.19a.32.32,0,0,0,.21.16c0-.28-.06-.46-.26-.52a1,1,0,0,1-.47-.32l0-1.5a.27.27,0,0,1,.12.19,2.55,2.55,0,0,0,.05.26c.19,0,.3,0,.35-.05s.14-.11.28-.09c0,.23.08.33.09.3a.5.5,0,0,0,0-.23.64.64,0,0,0-.19-.3c-.09-.08-.21,0-.35.12,0-.16,0-.26-.09-.3s-.1-.15-.05-.33a.4.4,0,0,0-.17,0v-.14l.26.14.3.14a.78.78,0,0,0,.53-.63c-.16,0-.27,0-.32.09s-.16.1-.35.05c.19-.12.23-.23.14-.35a.65.65,0,0,1-.14-.42,3.35,3.35,0,0,1,.26-1.1,1.51,1.51,0,0,0,.16-.86.24.24,0,0,0,.21.05.76.76,0,0,1,.28,0,2.11,2.11,0,0,1,0-.63c0-.09.08-.27.17-.53a.28.28,0,0,0-.28.14,2.25,2.25,0,0,0-.12.3,2.21,2.21,0,0,1-.12.3.25.25,0,0,1-.25.14c0-.14,0-.23.05-.28s.1-.16.05-.35a.57.57,0,0,1-.35-.05,2.14,2.14,0,0,0-.39-.12l0-1.29c0-.23.09-.36.28-.38h.21q-.11.35.05.31c.1,0,.15-.13.12-.31l2.52,0a.64.64,0,0,0-.18.18.7.7,0,0,0,.56-.18l1.08,0,.38.25L53.86,63a4.35,4.35,0,0,1-.59.1.41.41,0,0,0-.39.35.23.23,0,0,0,.23,0l.21-.11a.34.34,0,0,1,.18-.05c.06,0,.11,0,.16.14-.19,0-.24.09-.16.21a1.5,1.5,0,0,0,.37.35l0,.81a.24.24,0,0,0-.17-.07,3.45,3.45,0,0,0,.17.53v.56a2.74,2.74,0,0,1-.44.17,3,3,0,0,1-.51.11,2.41,2.41,0,0,1,.09.51.26.26,0,0,0,.3.26c.09,0,.14-.06.14-.12a.78.78,0,0,0,0-.21l-.07-.23a.64.64,0,0,1,0-.21.58.58,0,0,0,.3.05l.26-.05,0,.52a.52.52,0,0,0-.26-.05c-.06,0,0,.11.23.3h0v.91a.29.29,0,0,0-.28,0c0,.26,0,.37.14.35a.12.12,0,0,1,.14-.14l-.07,2.63a.83.83,0,0,0-.3-.33.79.79,0,0,1-.3-.37c.14,0,.22,0,.23-.09a.45.45,0,0,0-.05-.26,1.05,1.05,0,0,0-.19-.26.34.34,0,0,0-.23-.12c0-.16,0-.24.18-.23s.21,0,.21-.16-.14-.09-.14-.14a.17.17,0,0,1-.12-.05.47.47,0,0,0-.12-.09,2.28,2.28,0,0,1-.38.91,1.72,1.72,0,0,1-1-.25c0,.21,0,.34.14.4a1.05,1.05,0,0,0,.4.1l.44,0a.31.31,0,0,1,.28.11,1.21,1.21,0,0,1-.26.42.31.31,0,0,0,0,.46c.3-.26.54-.32.72-.17a2.69,2.69,0,0,1,.51.56v.7a.23.23,0,0,0-.07.17.39.39,0,0,0-.14-.17.23.23,0,0,0-.18,0,.61.61,0,0,1-.19,0c-.06,0-.1,0-.12-.11s0-.15.1-.25a.59.59,0,0,0,.16-.21s0-.1-.16-.17-.38.33-.38.77c-.09-.09-.17-.13-.23-.12a.3.3,0,0,0-.16.09.93.93,0,0,1-.19.14.33.33,0,0,1-.3,0,.85.85,0,0,1-.49.75.59.59,0,0,1-.77-.12.47.47,0,0,0-.26.28.71.71,0,0,0,0,.38,2.56,2.56,0,0,0,.16.44l.21.44c-.12.09-.15.17-.1.25a1.63,1.63,0,0,0,.51.59c.22.16.39.17.51,0a1.48,1.48,0,0,0,.19.38.68.68,0,0,1,.05.53,1.9,1.9,0,0,1,.42.1.73.73,0,0,0,.46,0,2.26,2.26,0,0,0-.23-.56,2,2,0,0,0-.38-.49,1.22,1.22,0,0,0-.46-.28.49.49,0,0,0-.44.07.69.69,0,0,0-.23-.37.48.48,0,0,1-.16-.4q.21,0,.52-.26a.69.69,0,0,1,.63-.23,1.08,1.08,0,0,1-.09-.58.37.37,0,0,1,.21-.23,2.07,2.07,0,0,1,.4-.12,1.33,1.33,0,0,0,.49-.23.75.75,0,0,1,.09.49,3,3,0,0,0-.09.53.49.49,0,0,0,.28-.19.71.71,0,0,0,.09-.26l0-.3a.57.57,0,0,1,.09-.26.65.65,0,0,0,.17.38ZM40.18,71.57h-.25v.28h.25ZM41.09,66c.26.19.46.23.6.12l.52-.37a.43.43,0,0,0-.25-.07l-.17,0s0-.08,0-.19a.48.48,0,0,1-.35-.11.94.94,0,0,0-.09.23.81.81,0,0,0,0,.16.17.17,0,0,1-.05.12A.73.73,0,0,1,41.09,66Zm.25,4.83a1.53,1.53,0,0,0,.49-.21c.14-.09.19-.28.14-.56h-.49a.45.45,0,0,1,0,.4A.55.55,0,0,0,41.33,70.83Zm.38-4.34q.07.52.39.63a.3.3,0,0,0,0-.4A.46.46,0,0,0,41.72,66.49Zm.39,2.7a.22.22,0,0,1,.05-.16.16.16,0,0,0,.05-.12.17.17,0,0,1-.12-.05A.17.17,0,0,0,42,68.8a.17.17,0,0,1-.05.12.48.48,0,0,0-.09.12.21.21,0,0,1,.16.05A.47.47,0,0,0,42.1,69.19Zm.25,4.3c.16-.16.17-.3,0-.4a1.47,1.47,0,0,0-.42-.23,1.33,1.33,0,0,1,.77-.28q-.21.21,0,.35a.43.43,0,0,1,.14.42A.68.68,0,0,1,42.35,73.49Zm-.14-11.06c.14,0,.21,0,.21,0a.35.35,0,0,0-.07-.18L42.19,62a.37.37,0,0,1-.09-.19c0,.19,0,.3.05.33S42.26,62.27,42.21,62.43Zm0,13.47a.36.36,0,0,0,.33,0,.33.33,0,0,0,.14-.16s0-.07-.1-.07S42.37,75.74,42.21,75.91Zm.38-12.46h-.24v.25h.24Zm-.1-.77q-.07.49.23.65a3.49,3.49,0,0,0,.65.26q-.11-.42-.12-.54c0-.08,0-.11,0-.09l-.05.12a.23.23,0,0,1-.17.12.1.1,0,0,1-.14-.07c0-.07,0-.15-.07-.25a.61.61,0,0,0-.09-.21S42.58,62.63,42.49,62.68Zm.35,9.17c0-.12.06-.14.12-.07s.11,0,.16-.07-.14-.1-.14-.23a.69.69,0,0,0,0-.26s-.09,0-.21,0c.09.16.1.29,0,.37S42.72,71.75,42.84,71.85Zm.67-3.43c0-.16,0-.26.05-.3s.1-.15.05-.33a.22.22,0,0,1-.19-.07l-.12-.14a.49.49,0,0,0-.16-.11.5.5,0,0,0-.3,0,1.71,1.71,0,0,0,.32.46A2.64,2.64,0,0,1,43.5,68.42ZM43,72.86a.2.2,0,0,0-.14-.28.46.46,0,0,1,.37-.05,2.15,2.15,0,0,0,.54.05.4.4,0,0,1-.14.21.28.28,0,0,1-.17,0l-.21,0A.56.56,0,0,0,43,72.86Zm5.84-1a.38.38,0,0,0,.05.32.52.52,0,0,0,.23.16,1.23,1.23,0,0,0,.31.07.61.61,0,0,1,.28.09A2.51,2.51,0,0,0,51,71.64a1.9,1.9,0,0,0,.49-1.33,1.45,1.45,0,0,1,.16.37q.05.19.37.16a1.14,1.14,0,0,0-.35-.54.48.48,0,0,1-.17-.47,4.2,4.2,0,0,0-.33.3.59.59,0,0,1-.54.09q.07-.35-.07-.47a1.12,1.12,0,0,0-.31-.19,1,1,0,0,0,.23.59,3.63,3.63,0,0,0,.38.37.81.81,0,0,1,.26.37.87.87,0,0,1-.11.59l-.35.05-.32,0a.19.19,0,0,0-.17.1.42.42,0,0,0,.07.3c-.14-.14-.26-.16-.37-.07a.64.64,0,0,1-.54.07,1.19,1.19,0,0,1-.33-.47,3.93,3.93,0,0,0-.3-.58c0-.12,0-.25,0-.38s0-.33,0-.56a.55.55,0,0,0,.14-.21c0-.07,0-.09-.14-.07v-.38a.74.74,0,0,0,.6-.25,2,2,0,0,0-.6-.21v-1a7.85,7.85,0,0,0-.05-1.38,2.14,2.14,0,0,0-.47-1.14.79.79,0,0,1,.37-.05.23.23,0,0,0,.26-.16,1.62,1.62,0,0,0-.51-.05l-.47,0a1.49,1.49,0,0,0-.84-.21h-.35c.07-.07,0-.15-.11-.24-.14.14-.15.23,0,.28a1.54,1.54,0,0,0-1,.67.1.1,0,0,1-.07,0,.1.1,0,0,0-.07,0h.07A3.5,3.5,0,0,0,45,66.76a10,10,0,0,0-.17,1.59v.11a.32.32,0,0,0-.25,0c0,.19.07.29.07.3a1.15,1.15,0,0,1-.17.19,1.45,1.45,0,0,1,.35.31q0,1.37,0,1.68-.49.21-1,.38a1.16,1.16,0,0,0-.7.67l.91-.37a3.39,3.39,0,0,0,.81-.47,2.49,2.49,0,0,0,.28,1c-.07.07-.09.13-.07.17a.51.51,0,0,0,.25.14,1.71,1.71,0,0,0,1.4.59,1.6,1.6,0,0,0,1.58-1,.31.31,0,0,0,.17-.19C48.57,71.82,48.66,71.8,48.82,71.85ZM44,64.36l-.3,0c-.08,0-.11.09-.09.23A.35.35,0,0,0,44,64.36Zm-.38,2.42q0,.39.38.35C44,66.84,43.91,66.73,43.61,66.77ZM44,73.35c.09.09.17.13.23.1a.12.12,0,0,0,.09-.12.13.13,0,0,0-.09-.12C44.16,73.19,44.09,73.24,44,73.35Zm.38-5.57a.65.65,0,0,0,.12.37c.06.06.1.07.14,0s0-.09,0-.17A.52.52,0,0,0,44.38,67.79Zm1,6a1.29,1.29,0,0,0-.32,0c-.09,0-.12.09-.07.21A.34.34,0,0,0,45.39,73.74Zm-.25.91a.54.54,0,0,0,.12.4c.11.15.19.13.26-.05-.12,0-.15-.09-.09-.21S45.4,74.62,45.15,74.65Zm.49-13.33a.3.3,0,0,1,.16,0l.12.07c0-.12,0-.21-.05-.3s-.09-.11-.23-.09Zm.28.63c0,.19,0,.3,0,.33a.1.1,0,0,0,.14,0,.19.19,0,0,0,.05-.17C46.13,62,46.06,62,45.92,61.94Zm.88.49a1.43,1.43,0,0,1,.09.44c0,.17.11.24.3.19a2.62,2.62,0,0,1-.07-.32,2.68,2.68,0,0,1,.07-.31Zm1.5-.11a.31.31,0,0,1-.35,0A1,1,0,0,1,47.7,62a1.72,1.72,0,0,0-.26-.33.54.54,0,0,0-.4-.16.67.67,0,0,0,.3.45.81.81,0,0,1,.33.42,1.86,1.86,0,0,0,.53,1.78.66.66,0,0,1,0-.21c0-.07.09-.08.21,0s0,.12-.14.21-.14.16-.14.19,0,.06.14.09.09-.13.12-.05a.43.43,0,0,0,.16.19.7.7,0,0,1-.09-.39,1.46,1.46,0,0,1,.07-.33,1,1,0,0,0,.05-.32.62.62,0,0,0-.17-.37c-.12.07-.16.13-.14.19a.68.68,0,0,0,.11.17.91.91,0,0,1,.1.16s0,.08-.07.1a1.88,1.88,0,0,0-.28-.17.46.46,0,0,1-.21-.21c.12-.12.15-.21.09-.28a.55.55,0,0,1-.09-.35C48.23,62.84,48.35,62.68,48.3,62.33Zm-.73,1.89a1.6,1.6,0,0,1,0,.23,1.62,1.62,0,0,0,0,.23.21.21,0,0,0,.05.16s.11,0,.23,0Q47.81,64.36,47.56,64.22Zm.38,10h-.28v.25h.28Zm1.12-.67a.38.38,0,0,0-.07-.4,2.3,2.3,0,0,0-.31-.23,3,3,0,0,0,.14.4A.43.43,0,0,0,49.07,73.6Zm0-8.12c0,.12.05.19,0,.21a.37.37,0,0,1-.14.05.28.28,0,0,0-.14.07s0,.1,0,.19l1.33.33a1.59,1.59,0,0,0,1.22-.09,2.45,2.45,0,0,0-.59-.14L50.15,66a3.16,3.16,0,0,1-.59-.16A1.09,1.09,0,0,1,49.07,65.48Zm-.17-6,.07-3.4c.19,0,.27.07.25.21a2.93,2.93,0,0,0-.07.88c0,.26,0,.51.05.75s0,.5,0,.75a2,2,0,0,1-.23.81ZM49.31,64a.41.41,0,0,0,0-.33.26.26,0,0,0-.16-.14c-.06,0-.09,0-.09.1S49.15,63.81,49.31,64Zm.52,1.26a.59.59,0,0,1-.23-.11.39.39,0,0,0-.3,0c0,.09,0,.16,0,.21a.4.4,0,0,0,.19.09.34.34,0,0,0,.21,0C49.8,65.32,49.84,65.28,49.84,65.23Zm-.52-9.77a.34.34,0,0,0,.25-.1.52.52,0,0,0,.14-.25.39.39,0,0,0,0-.28.23.23,0,0,0-.21-.14.44.44,0,0,1,0,.4A.56.56,0,0,0,49.31,55.47Zm1,18.41c0-.14,0-.22,0-.25a.91.91,0,0,0-.3,0c-.14,0-.21,0-.21-.09s0-.1.11-.12l.19-.07a.17.17,0,0,0,.11-.09s0-.08-.16-.12a.37.37,0,0,1-.26.23.39.39,0,0,1-.37-.09c-.07.19-.05.29.05.3a.21.21,0,0,1,.19.19.2.2,0,0,0-.11.25.56.56,0,0,0,.33-.09A.58.58,0,0,1,50.36,73.88Zm.35-9.42a2.19,2.19,0,0,0-.51-.28.43.43,0,0,0-.51,0,.58.58,0,0,0,.53.47C50.5,64.73,50.67,64.65,50.71,64.46Zm-.87,10.19c0,.19,0,.29,0,.31a.11.11,0,0,0,.14,0,.29.29,0,0,0,.05-.17C50,74.68,50,74.65,49.84,74.65Zm.53-16c0-.19,0-.3-.16-.33s-.21,0-.23.23A.73.73,0,0,1,50.36,58.62Zm.1,1.68a.88.88,0,0,0,.33-.42c.06-.16,0-.33-.19-.49,0,.12-.11.16-.25.14s-.23,0-.28.1,0,.34.07.47S50.28,60.3,50.47,60.3ZM50.71,64a.37.37,0,0,0-.12-.38.37.37,0,0,1-.12-.38h-.38a.73.73,0,0,0,.26.46A3.16,3.16,0,0,1,50.71,64Zm1.4,2.28a1.38,1.38,0,0,1-.53-.26l-.47-.35a1.1,1.1,0,0,0-.47-.19.83.83,0,0,0-.56.17.91.91,0,0,1,.6.05,4,4,0,0,1,.47.28,2.94,2.94,0,0,0,.46.26A.74.74,0,0,0,52.11,66.25Zm-1.65-9c0,.19,0,.3,0,.33a.11.11,0,0,0,.14,0,.17.17,0,0,0,.05-.17C50.68,57.29,50.61,57.24,50.47,57.22Zm.53,4.1a.48.48,0,0,1,0,.26.33.33,0,0,1-.1.14.61.61,0,0,0-.12.12.35.35,0,0,0-.05.21q.84-.21.91-.49a.53.53,0,0,1-.26-.21Q51.27,61.21,51,61.31Zm-.14,2.13c-.07.12-.08.21,0,.28a.42.42,0,0,0,.21.14.31.31,0,0,0,.25,0,.21.21,0,0,0,.09-.25c0-.12-.09-.16-.19-.14A.79.79,0,0,1,50.85,63.45Zm.52,1.29a1.71,1.71,0,0,1,.37.32,4.14,4.14,0,0,0,.4.38l.38.31a.42.42,0,0,0,.35.11,1,1,0,0,0-.28-.38,1.08,1.08,0,0,1-.28-.37.3.3,0,0,1,.07-.26.82.82,0,0,1-.58,0,1.71,1.71,0,0,1-.46-.26,2.47,2.47,0,0,0-.31-.23c-.08,0-.15,0-.19.1.14,0,.22,0,.25.05s0,.08-.05.12a1.2,1.2,0,0,0-.19.21c.09,0,.15,0,.17.09s.09.08.21.05.14-.06.07-.12S51.26,64.77,51.38,64.74Zm.25,7.49c-.12-.09-.15-.17-.1-.25a1,1,0,0,1,.19-.21,1.57,1.57,0,0,0,.23-.25.38.38,0,0,0,.07-.32c-.16,0-.27,0-.33.11a1.83,1.83,0,0,0-.14.26.61.61,0,0,1-.12.19s-.15,0-.31-.07a.52.52,0,0,1,0,.32,1.22,1.22,0,0,1-.09.25.43.43,0,0,0-.05.19c0,.06,0,.1.11.12,0-.16.05-.23.23-.21S51.6,72.35,51.62,72.23Zm-.38-11.45a.16.16,0,0,1-.05.14.26.26,0,0,0-.09.11c.09,0,.15,0,.17.09s.09.08.21.05A.43.43,0,0,0,51.24,60.79ZM51.1,73.25q0-.35.52-.28Q51.59,73.32,51.1,73.25Zm.14-14.63c-.12.14-.15.23-.09.26a.22.22,0,0,0,.19,0,.21.21,0,0,0,.14-.12C51.51,58.72,51.43,58.66,51.24,58.62Zm.14,1.4a.23.23,0,0,1,0-.19l.09-.23a.19.19,0,0,0,0-.16s-.11-.05-.25-.05a.58.58,0,0,1,0,.4C51.19,60,51.24,60,51.38,60Zm.49,1a1.06,1.06,0,0,0-.17-.51,3.16,3.16,0,0,0-.32-.37.37.37,0,0,0-.05.56A.8.8,0,0,0,51.87,61Zm1,7.25a1.37,1.37,0,0,0,0-.44.22.22,0,0,0-.24-.19.3.3,0,0,1,0,.25.34.34,0,0,1-.19.14.44.44,0,0,1-.25,0,.22.22,0,0,1-.16-.14.32.32,0,0,0,.26-.11,1.65,1.65,0,0,0,.16-.23,1,1,0,0,1,.16-.21.41.41,0,0,1,.3-.09,1.28,1.28,0,0,1-.09-.37.3.3,0,0,0-.16-.26,1.34,1.34,0,0,1-.23.63,4.6,4.6,0,0,1-.42.53l-.42.46a.63.63,0,0,0-.19.42,1.17,1.17,0,0,1,.74-.38c0,.3,0,.44.05.42l.09-.23a.92.92,0,0,1,.21-.33Q52.6,68,52.88,68.28Zm-1-8.65a1.06,1.06,0,0,1,0-.38q0-.21-.25-.1Q51.62,59.53,51.87,59.63ZM52,60h.25v-.25H52Zm0,16.52a.5.5,0,0,1,.23,0c.08,0,.13,0,.16-.12-.14,0-.23,0-.26-.07a.66.66,0,0,0-.12-.17ZM52.74,64c0-.23,0-.36-.19-.38s-.27.06-.3.25a.24.24,0,0,1,.25.05A.3.3,0,0,0,52.74,64Zm.77-4.83a1.15,1.15,0,0,0-.74.45,2.85,2.85,0,0,0-.38.81,2,2,0,0,0,.61-.59A5.44,5.44,0,0,1,53.51,59.14ZM53.58,77a.68.68,0,0,1-.17-.25l.11-.09.1-.09V77Z"/>
          <path class="37a3aeee-ecbd-4d33-a930-5d77727bfdf7" d="M62.09,76.89l-4.58-.07L57,76.54l0-1a1.68,1.68,0,0,0,.65-.68,1,1,0,0,0,.19-.82c0,.09-.1.12-.17.07s-.19,0-.35.07a.55.55,0,0,1,0,.56,1.53,1.53,0,0,1-.35.42V73a1.28,1.28,0,0,1,.38.11c.09,0,.16,0,.21-.21a1.43,1.43,0,0,1-.37,0,.27.27,0,0,0-.19,0v-.35l.14-.05.14-.05a1.55,1.55,0,0,1,.12-.63c.08-.19.17-.37.26-.54s.17-.34.25-.51a.6.6,0,0,0,0-.49A4,4,0,0,1,57,71.57l.1-7.77a.43.43,0,0,1,.32.11c0-.12,0-.2,0-.25a.32.32,0,0,1,.17-.09l.19-.05a.21.21,0,0,0,.12-.14c-.09,0-.16,0-.19,0a.6.6,0,0,1-.09-.17L57.61,63a.14.14,0,0,0-.14-.09.85.85,0,0,1-.32,0l0-1.22a.88.88,0,0,0,0-.77v-.07l5,.07a.19.19,0,0,1,.14.21l-.07,4.17a1.5,1.5,0,0,1-.07.25s.07,0,.07,0l0,4.13a2.91,2.91,0,0,1-.28.32l.16.07.12.1-.07,3.75-.26.05c-.08,0-.11.09-.09.23a.38.38,0,0,0,.35-.17ZM57.15,63.24q.28.14.18.38a.59.59,0,0,1-.18-.07Zm4.8-7.59a.75.75,0,0,1-.42-.58l-.14-.82h.8c.16,0,.25,0,.25.17l-.07,4a1.1,1.1,0,0,1-.28.46h-.84l-.17-.17v.17l-3,0a1.63,1.63,0,0,1,.21-.67,1.51,1.51,0,0,0-.49.67l-.45,0-.18-.07.07-3.46h0a.33.33,0,0,1,.09-.21c.06-.07,0-.13-.09-.17a.1.1,0,0,1,0,.07v-.7l.17-.07.59,0v.17a.18.18,0,0,0-.19-.12.43.43,0,0,0-.21.09.29.29,0,0,0-.1.19c0,.08,0,.15.16.19a.12.12,0,0,1,0-.14.45.45,0,0,1,.17-.1.27.27,0,0,1,.19,0,.14.14,0,0,1,.09.14.3.3,0,0,1-.26.16,1.32,1.32,0,0,0-.37.09.77.77,0,0,1-.07.35l-.1.23a.13.13,0,0,0,0,.16,1.2,1.2,0,0,0,.28.17,3.69,3.69,0,0,0,.3-.49,1.3,1.3,0,0,1,.33-.42.77.77,0,0,1,.19.19.21.21,0,0,1,0,.16.2.2,0,0,0,0,.14.38.38,0,0,0,.17.14.17.17,0,0,1,.16-.19c.1,0,.13-.11.09-.3a.42.42,0,0,1-.4-.24,2.38,2.38,0,0,1-.19-.56h.42a.5.5,0,0,0,.17.42,2.81,2.81,0,0,0,.25-.42h1a.44.44,0,0,1-.4.14c-.15,0-.27.07-.37.28.14,0,.2,0,.19,0l-.09.14a2.38,2.38,0,0,0-.14.25.39.39,0,0,0,0,.35.68.68,0,0,0,.46,0q.28-.09.31.12a6.66,6.66,0,0,1-.09.75,5.17,5.17,0,0,0-.05.89c.16-.12.27-.17.33-.16s.13.1.21.26a.46.46,0,0,0,.33.28A2.23,2.23,0,0,1,61,57a4.53,4.53,0,0,1,.09-.45,1.66,1.66,0,0,0,.05-.4,1.15,1.15,0,0,0-.1-.44.62.62,0,0,0,.47.23Q61.88,56,61.95,55.64Zm-4.62,15c.19,0,.29,0,.31-.17a.55.55,0,0,1,.21-.35c-.12,0-.16,0-.14-.1h-.25c0,.19,0,.3-.05.33S57.31,70.46,57.33,70.62Zm1-4.2-.42,1q-.21.51-.46,1c.09,0,.14.12.14.28s.16,0,.19-.05a1.27,1.27,0,0,0,.09-.17.31.31,0,0,1,.11-.14.33.33,0,0,1,.25,0c0-.12,0-.19-.05-.23L58,68l-.16-.09s0-.11,0-.23.29,0,.3.07.08,0,.19-.07a5.47,5.47,0,0,1,.11-.67A.88.88,0,0,0,58.34,66.42Zm-.25,7.25a.16.16,0,0,1,.05-.14.27.27,0,0,0,.09-.11c-.33-.16-.5-.16-.53,0s.14.11.14.25ZM58,57h-.24v.25H58Zm-.17,13c.12,0,.2,0,.25,0s.09.06.14,0c-.12,0-.16-.11-.12-.17a1.82,1.82,0,0,1,.14-.23.38.38,0,0,0,.09-.21c0-.06-.08-.11-.25-.16a.84.84,0,0,1-.19.33Q57.78,69.68,57.85,70Zm.39,2.66c-.16.14-.24.25-.23.31a.11.11,0,0,0,.12.11.21.21,0,0,0,.17-.11C58.35,72.9,58.33,72.79,58.24,72.65Zm2,1.89a.48.48,0,0,1,.09-.31l.3-.32a.8.8,0,0,0,.25-.38q-.28-.21-.21-.44a1.4,1.4,0,0,0,0-.68,2.6,2.6,0,0,1,.49-.32q.28-.14.25-.59a.57.57,0,0,1-.23-.1.26.26,0,0,0-.26,0,1.86,1.86,0,0,1,0,.26,1.43,1.43,0,0,1-.12.37.38.38,0,0,1-.19.21c-.07,0-.16,0-.28-.21a7,7,0,0,1-.63,1.08,1.91,1.91,0,0,1-1,.7c.12-.12.14-.19.07-.21s-.09-.13-.07-.31A.64.64,0,0,1,59,72.9a2.5,2.5,0,0,1-.1-.49c0-.19-.15-.27-.39-.25a3.55,3.55,0,0,1-.09,1q-.12.54-.3,1.1c.3,0,.41,0,.33.09a.86.86,0,0,0-.19.3.84.84,0,0,0,.61-.39l.4-.63a.16.16,0,0,0,.05.14.12.12,0,0,1,.05.1.08.08,0,0,0-.09.05s0,.06.09.09.18-.06.39,0,.34.13.38.11a.18.18,0,0,1,0,.17.22.22,0,0,0-.05.12S60.13,74.54,60.27,74.54Zm-2-18.9a.33.33,0,0,1,.09-.21q.09-.11-.09-.18a.9.9,0,0,1-.1.21C58.16,55.54,58.19,55.6,58.31,55.64Zm.32,20.05q.24.11.35-.23t-.1-.4a.77.77,0,0,0-.14.31A1.27,1.27,0,0,1,58.62,75.7ZM59,68.21a.33.33,0,0,1,0,.32,2.46,2.46,0,0,1-.17.25.23.23,0,0,0-.07.19c0,.06.1.1.26.12a.78.78,0,0,0,.11-.21,1.31,1.31,0,0,0,.09-.33.72.72,0,0,0,0-.28C59.12,68.18,59.07,68.16,59,68.21Zm0-5.6a.25.25,0,0,0,.11-.26.32.32,0,0,0-.21-.23,3,3,0,0,1,0,.3A.15.15,0,0,0,59,62.61Zm-.1.38a.31.31,0,0,0,.12.37q.19.16.26-.09c-.12,0-.19-.06-.21-.12A.34.34,0,0,0,58.87,63Zm0,9.28a1.21,1.21,0,0,0,.25-.25,2.51,2.51,0,0,0,.24-.37.76.76,0,0,0,.11-.37.32.32,0,0,0-.21-.28Q58.8,71.29,58.87,72.27Zm1-15.23a1.43,1.43,0,0,0-.54-.17.77.77,0,0,1-.47-.21.37.37,0,0,0,.12.26.69.69,0,0,0,.3.17,1.2,1.2,0,0,0,.35.05A.27.27,0,0,0,59.88,57Zm-.91.38q-.07.11,0,.18a.31.31,0,0,0,.16.09.3.3,0,0,0,.18,0c.06,0,.08-.07.05-.14a.18.18,0,0,1-.16-.07S59.09,57.41,59,57.43Zm1,.11a1,1,0,0,0-.39,0s-.05.05,0,.09a.25.25,0,0,0,.18.05A.29.29,0,0,0,60,57.53ZM59.88,70.1c.07,0,.13.05.17,0a.22.22,0,0,0,.09-.14.31.31,0,0,0,0-.17c0-.06-.07-.08-.14-.05s0,.13-.11.11Zm.63-13.82a2.26,2.26,0,0,0,0-.74.59.59,0,0,1,.23-.53c.14.09.25.13.32.11q-.25.81-.32,1A.32.32,0,0,1,60.51,56.27ZM61,68.35a.72.72,0,0,1-.33-.1c-.06,0-.11,0-.16.21C60.7,68.64,60.86,68.61,61,68.35ZM61,55a.35.35,0,0,1-.25-.31,2.59,2.59,0,0,0-.11-.46h.42a.88.88,0,0,1,.07.32.85.85,0,0,0,.07.31q-.11,0-.12.05A.16.16,0,0,1,61,55Zm.14,19c-.23,0-.35,0-.35,0s.05,0,.16.07a1.61,1.61,0,0,0,.35,0c.13,0,.2,0,.23-.14a.66.66,0,0,1-.19-.07S61.24,74,61.14,74.05Zm.14-.52a.11.11,0,0,1,.1-.12.17.17,0,0,0,.14-.12.7.7,0,0,1-.26-.26c-.06-.1-.18-.15-.37-.12q-.07.31.07.44A1.07,1.07,0,0,0,61.28,73.53Zm-.14-3.15a2.54,2.54,0,0,0,0-.31c0-.09-.09-.12-.23-.07v.25a.17.17,0,0,1,.12.05A.46.46,0,0,0,61.14,70.38Zm.14.49q0,.49.49.53a1.37,1.37,0,0,0,0-.44.22.22,0,0,0-.25-.19A.2.2,0,0,1,61.28,70.87Zm.63-4.17c-.26-.07-.39,0-.4.16a1.24,1.24,0,0,1-.12.47.65.65,0,0,1,.42,0c.16,0,.23,0,.21-.14q-.31.07-.25-.17A.81.81,0,0,1,61.91,66.7Z"/>
          <path class="37a3aeee-ecbd-4d33-a930-5d77727bfdf7" d="M66,73.56a.42.42,0,0,0-.26.07l-.17.16-.17.16a.38.38,0,0,1-.3,0,4.34,4.34,0,0,1-.1-.6c0-.21,0-.43-.07-.67a.58.58,0,0,0,.17-.09.13.13,0,0,1,.14,0,.24.24,0,0,1-.05-.21,2,2,0,0,0,0-.25.39.39,0,0,1-.28,0v-.31a2.68,2.68,0,0,1,0-.61l.07-.58a1.87,1.87,0,0,1,.37-.1c.13,0,.18-.12.16-.28a.4.4,0,0,1-.23.07.41.41,0,0,0-.23.07,2.19,2.19,0,0,1,.14-.49.42.42,0,0,0,.31.11l0-.38h-.17a3.52,3.52,0,0,1,1.21-1.45,6,6,0,0,1,1.77-.82.21.21,0,0,1,0,.14l-.35.11a.57.57,0,0,0,0,.4.56.56,0,0,0,.17.19l.23.12a.71.71,0,0,1,.23.16.37.37,0,0,0-.35.28,1.08,1.08,0,0,0,.26,0c.08,0,.12,0,.12.1a.8.8,0,0,1-.25.38.34.34,0,0,1,0-.16c0-.06,0-.09-.1-.09l-.14.37a1.16,1.16,0,0,0-.07.4.67.67,0,0,0,.38-.32q.11-.21.49,0a.3.3,0,0,0-.09-.25c-.06,0-.08-.13-.05-.25.12.09.2.12.26.07a.67.67,0,0,0,.16-.19.65.65,0,0,1,.19-.21c.08-.06.21-.05.4,0a1,1,0,0,0,.05-.42A.28.28,0,0,1,70,68a1,1,0,0,1,.05.89.52.52,0,0,1-.65.37,1.28,1.28,0,0,0,.37.21.54.54,0,0,1,.3.28.7.7,0,0,1-.26.38,3.61,3.61,0,0,1-.42.26l-.46.23a.67.67,0,0,0-.33.32.72.72,0,0,0-.09-.53,3.66,3.66,0,0,1-.23-.63,1.41,1.41,0,0,1-.16.3.38.38,0,0,1-.33.12,2.86,2.86,0,0,1-.05.59,2.18,2.18,0,0,0-.05.46,1.71,1.71,0,0,0,.05.42,1.16,1.16,0,0,0,.26.46.52.52,0,0,1-.35.07,1.29,1.29,0,0,1-.28-.1,1.25,1.25,0,0,0-.32-.11,1.07,1.07,0,0,0-.46,0c0,.28.09.56.12.84a.8.8,0,0,1-.23.7v-.67q-.28.11-.38,0c-.07-.08-.2-.1-.39-.05a.3.3,0,0,0,.14.25.47.47,0,0,1,.17.21A.54.54,0,0,1,66,73.56Zm11.83-7.74s0,.06.07,0a.25.25,0,0,1,0-.11,11.54,11.54,0,0,1,.1,1.61l0,.53q-.14.35,0,.45l.17,4.73a.67.67,0,0,0-.31.16.68.68,0,0,1-.28.16.45.45,0,0,1-.07-.31c0-.07-.08-.14-.31-.21a.28.28,0,0,1-.05.26.27.27,0,0,0-.05.26l.56.16a.71.71,0,0,0,.56-.05l.07,2.24a.92.92,0,0,1-.16-.32c-.06-.16-.12-.25-.19-.25a2.38,2.38,0,0,0,.07.61.43.43,0,0,0,.28.33l0,.53a.7.7,0,0,1-.21.38l-4.09.17c-.19,0-.27-.11-.25-.17l-.28-1.08a9,9,0,0,1-.75.73,4.2,4.2,0,0,1-.86.56.65.65,0,0,1,.12-.32,1.06,1.06,0,0,0,.16-.28q-.35,0-.42-.26a.75.75,0,0,0-.25-.37.57.57,0,0,1-.14.42.88.88,0,0,0-.21.35c.28-.12.43-.09.44.09a.76.76,0,0,0,.16.44l-.39.12-.42.12c0-.07,0-.1-.07-.1a1.42,1.42,0,0,0-.49-.19c-.12,0-.2-.11-.25-.3,0,.09-.09.14-.14.14a.17.17,0,0,1-.05.12.46.46,0,0,0-.09.12,1,1,0,0,1,.59.28,1.65,1.65,0,0,0-.38,0h-.42l0-.07c-.16,0-.22,0-.17.07a1.15,1.15,0,0,0-.28,0,.35.35,0,0,0,0-.25.75.75,0,0,1,0-.38,3.76,3.76,0,0,0-.68-.21A.92.92,0,0,1,68,76.4a2.27,2.27,0,0,1-.14.52c0,.09,0,.16.14.21-.12,0-.17.08-.17.25a2.09,2.09,0,0,1-.56-.25l.32-.3a2.38,2.38,0,0,0,.28-.3.19.19,0,0,1-.21-.16c0-.11-.12-.15-.28-.12,0,.14,0,.22-.09.25a.37.37,0,0,1-.23,0l-.3-.09a.37.37,0,0,0-.3,0,.29.29,0,0,0,.14.26q.14.09.14.16a3.66,3.66,0,0,1-1.23-1.51,3.35,3.35,0,0,0,.39.51,1.33,1.33,0,0,0,.45.33.31.31,0,0,1,.18-.21l.3-.14a1.15,1.15,0,0,0,.3-.19.77.77,0,0,0,.21-.4.6.6,0,0,1-.49.21,1.32,1.32,0,0,1-.59-.14,1.59,1.59,0,0,1-.47-.35.36.36,0,0,1-.12-.38.56.56,0,0,0,.26.33,1.55,1.55,0,0,0,.49.23.85.85,0,0,0,.49,0,.46.46,0,0,0,.3-.38,1,1,0,0,1-.72-.05.9.9,0,0,1-.58-.51,1.15,1.15,0,0,0,.54-.11,1.88,1.88,0,0,0,.37-.26l.35-.3a.94.94,0,0,1,.49-.17,1.3,1.3,0,0,1,.17.33c0,.13.16.17.35.12a.5.5,0,0,0,.11-.46,2.26,2.26,0,0,0-.19-.42,1.61,1.61,0,0,1-.18-.42.42.42,0,0,1,.19-.42c0,.28.06.43.25.46a.37.37,0,0,0,.05-.31.6.6,0,0,0-.16-.19.94.94,0,0,1-.19-.23.72.72,0,0,1-.09-.39c.12,0,.17.11.17.19s.06.05.18-.09.05-.16,0-.19a.16.16,0,0,0-.12-.05.31.31,0,0,1-.14,0s0-.08,0-.17.12-.14.09-.35,0-.34,0-.39a.76.76,0,0,0,.12.51.37.37,0,0,0,.44.19.35.35,0,0,1,.26-.38,4,4,0,0,1,.54-.11l.44-.07c.1,0,.1-.11,0-.25.14,0,.23,0,.26,0a.17.17,0,0,1,.05.12,1.71,1.71,0,0,0-.54.61,2.16,2.16,0,0,0-.19,1l-.17-.11a.38.38,0,0,0,.17.35v0q0,1.61,1.4,1.75a1.89,1.89,0,0,0-.26.16,1,1,0,0,0-.23.23,1.15,1.15,0,0,1,.51-.17.63.63,0,0,0,.44-.21h0a1.9,1.9,0,0,0,1.5-.65,1.81,1.81,0,0,0,.46-1.24v-.35a2.1,2.1,0,0,1,.39.25.85.85,0,0,0,.42.17c0-.14,0-.23.09-.28s.1-.15.05-.31a.85.85,0,0,1-.59.05.92.92,0,0,1-.39-.33V71a3.45,3.45,0,0,1,.7.53.5.5,0,0,0-.21-.47,1,1,0,0,0-.49-.23l0-.25a2.42,2.42,0,0,0-1.72-.46,3.31,3.31,0,0,0-.63.07V70q.46,0,.49-.31a6.46,6.46,0,0,1-.59-.26.83.83,0,0,1-.42-.4.17.17,0,0,0,.21-.11c.07.07.11.09.12.05a.39.39,0,0,0,0-.12.31.31,0,0,1,0-.14s.08-.06.17,0,0,.18,0,.19a.32.32,0,0,0,.17,0,1,1,0,0,1,.26,0,.41.41,0,0,1,.28.14,1.82,1.82,0,0,1-.09-.37.27.27,0,0,1,.16-.26q-.28-.14-.56-.25a2.33,2.33,0,0,1-.59-.35.55.55,0,0,1,.49-.16,3.54,3.54,0,0,0,.63,0c0-.09,0-.16.16-.19l.26-.09.51.14.47.14v-.59a2.68,2.68,0,0,0-.14-.91c.07,0,.12-.05.16-.16s0-.16-.23-.16v.1a2.11,2.11,0,0,0-.87-.8,4.62,4.62,0,0,0-1.82-.38.61.61,0,0,0-.3-.11,1.31,1.31,0,0,0-.28,0l-.33.07a2.26,2.26,0,0,1-.53,0,.14.14,0,0,0,0,.1l-.37,0-.4.05v-.07l-.24,0v.11l-.82.16-.75.16A.24.24,0,0,1,66,65l-.07-2.17a.52.52,0,0,1,.35-.25.25.25,0,0,1,.26.07.25.25,0,0,0,.26.07l0-.63-.42.23a4.21,4.21,0,0,1-.46.23v-.35a1.83,1.83,0,0,0,.28-.35,2,2,0,0,0,.18-.38q-.14-.07-.18,0a.38.38,0,0,0-.05.14.43.43,0,0,1-.05.14s-.08,0-.17,0l0-.35a.45.45,0,0,1,.23-.17l.26-.07a.68.68,0,0,1,.21,0l.25,0-.19.14a.41.41,0,0,0-.12.25q.39.07.53-.12L67.3,61l.28,0,.32-.05c0,.12-.11.17-.19.17s-.06.07.05.21c-.19,0-.3,0-.33.05s-.13.11-.3.09A.65.65,0,0,1,67,62a.56.56,0,0,0,.37-.1.79.79,0,0,0,.19-.25,2,2,0,0,1,.16-.26.58.58,0,0,1,.26-.19.55.55,0,0,1-.07-.35l1.14-.14.93-.1a14,14,0,0,1,4.66.56.53.53,0,0,0,.21.07l.31.14.32.14c-.16,0-.27.14-.32.35a.94.94,0,0,0,.56-.21l.42.28a.52.52,0,0,1-.35-.07c0,.14,0,.23-.09.28s-.09.16,0,.35c.19,0,.28-.08.28-.25a.25.25,0,0,1,.21-.28l.17.16a.9.9,0,0,1,.17.19.17.17,0,0,1-.16-.09c0-.06-.1-.08-.19-.05a1.19,1.19,0,0,1-.07.49q-.07.14.21.28a4.68,4.68,0,0,1-1.07,0,2.85,2.85,0,0,0-1.21.19,1.39,1.39,0,0,0-.12-.38.89.89,0,0,1-.05-.49l.38,0q-.17-.59-.33-.59c-.11,0-.2.13-.3.38-.14-.23-.15-.39,0-.47s.16-.26.14-.54a.59.59,0,0,0-.4-.05,2.29,2.29,0,0,0-.37.23,9.43,9.43,0,0,0,.51,1.22,3.87,3.87,0,0,1,.37,1.4c.09-.14.21-.13.35,0a1.07,1.07,0,0,0,.38.31,1.42,1.42,0,0,1,.88-.63,2.73,2.73,0,0,1,1-.07.48.48,0,0,1,.19-.35,3.43,3.43,0,0,1,.37-.21,2.75,2.75,0,0,0,.16.33l.19.33a.44.44,0,0,0-.35.3c0,.15,0,.26.21.33a1,1,0,0,0-.77.26,2.06,2.06,0,0,1-.59.44l0-.63a3.15,3.15,0,0,1,.56-.14q.38-.07.21-.18a1.6,1.6,0,0,0-.44.07s-.15,0-.33,0a1.94,1.94,0,0,1-.68.44,1,1,0,0,0-.58.51c.19.07.29.17.3.3a2.11,2.11,0,0,1,0,.37.59.59,0,0,0,0,.3c0,.08.16.12.37.12-.14.16-.17.29-.09.37a.55.55,0,0,1,.12.4l1.1.07q.61,0,.79-.28l-.37,0a5.22,5.22,0,0,0-.65,0c0-.3,0-.5-.19-.58l-.33-.16a.47.47,0,0,0,.12-.4.42.42,0,0,1,.09-.37c0,.19,0,.27.14.24a.92.92,0,0,1,.35,0,.73.73,0,0,1,.51-.58,1.1,1.1,0,0,1,.65,0,1.61,1.61,0,0,1-.1-1A5.22,5.22,0,0,1,77.84,65a.7.7,0,0,0-.44,0,.34.34,0,0,0-.23.28.48.48,0,0,1,.33.28A.49.49,0,0,0,77.87,65.83ZM66.39,68.94s0,.08-.1.09l-.3,0a1,1,0,0,0-.25.05c-.06,0-.05.06,0,.1l.6,0c.09,0,.15,0,.17-.09S66.51,69,66.39,68.94Zm1.26,2.87c0-.16,0-.25-.09-.26l-.17,0a.21.21,0,0,1-.16-.07s0-.17,0-.38a.73.73,0,0,0-.32.05l-.17.1a.39.39,0,0,1-.16.07.42.42,0,0,1-.26-.09c-.07.16-.08.28,0,.35a.11.11,0,0,1,0,.17c-.26-.12-.34-.27-.26-.47a3.37,3.37,0,0,0,.19-.68.42.42,0,0,0-.28.26,1.33,1.33,0,0,0-.07.46,4.77,4.77,0,0,0,0,.56,2.19,2.19,0,0,1,0,.54.23.23,0,0,1,.21,0l.19.09a.29.29,0,0,0,.14.05s.06,0,.09-.14a.26.26,0,0,0-.26-.09c-.13,0-.17-.08-.12-.26A2.5,2.5,0,0,1,67.65,71.81ZM66.08,64.5a.46.46,0,0,1,.26-.33,3.25,3.25,0,0,1,.47-.21,1.5,1.5,0,0,0,.38-.19c.09-.07.09-.17,0-.31a2.43,2.43,0,0,1-.17.26q-.14.19-.18,0a1.42,1.42,0,0,1-.3.14,1.63,1.63,0,0,0-.35.17.36.36,0,0,0-.17.21A.4.4,0,0,0,66.08,64.5Zm0-1a1.27,1.27,0,0,1,.05.23.18.18,0,0,0,.12.16.34.34,0,0,1,.11-.19.34.34,0,0,0,.1-.19Zm.42,7.35c0,.09,0,.16,0,.21a.24.24,0,0,0,.17.07.3.3,0,0,0,.19-.07c.06,0,.06-.12,0-.21ZM67.41,69c0-.09,0-.16,0-.21a.41.41,0,0,0-.23-.07.61.61,0,0,0-.25.05c-.08,0-.12.08-.12.12.16,0,.26,0,.3.07S67.22,69.12,67.41,69Zm.1-1c0,.19,0,.29-.14.3a.24.24,0,0,0-.25.19c.21,0,.45.09.72.12a.46.46,0,0,0,.54-.3,1.26,1.26,0,0,1-.49-.09A1.56,1.56,0,0,1,67.51,68Zm-.1,1.37a.3.3,0,0,0,.09.35c.11.09.17.07.19-.07a.14.14,0,0,1-.14-.12A.21.21,0,0,0,67.41,69.4Zm0,.77a.66.66,0,0,0,.52-.25C67.66,69.9,67.49,70,67.44,70.17Zm.77-7.38c-.07-.19-.05-.29.05-.32a.19.19,0,0,0,.16-.21.34.34,0,0,0-.26-.12.85.85,0,0,0-.35,0,.42.42,0,0,0-.23.16c0,.07,0,.14.11.21,0-.12.08-.15.24-.1,0,.12,0,.19.09.23Zm0,12.21a3.84,3.84,0,0,0,.58.09c.17,0,.31-.11.4-.37l-1,0a.41.41,0,0,1-.14.37.76.76,0,0,0-.25.26.92.92,0,0,0,.53-.12C68.4,75.18,68.36,75.09,68.18,75ZM68,76.15a.4.4,0,0,0,.07-.14,1.46,1.46,0,0,0,.05-.21.35.35,0,0,0,0-.19.14.14,0,0,0-.14-.09.82.82,0,0,0-.14.33Q67.79,76.12,68,76.15Zm.32-2.31a.5.5,0,0,1,0,.37c0,.15,0,.23.1.23s.11-.14.25-.14C68.75,74,68.63,73.82,68.35,73.84Zm.07-9.17c.09,0,.14-.1.14-.17a.87.87,0,0,0,0-.23.38.38,0,0,1,0-.23c0-.07.1-.12.25-.14a2,2,0,0,1-.16-.44.38.38,0,0,0-.26-.3.65.65,0,0,1,.12.42,2.2,2.2,0,0,1-.07.4,2.15,2.15,0,0,0-.07.37A.43.43,0,0,0,68.42,64.67Zm.17,2.94a.26.26,0,0,1,.25,0,.24.24,0,0,0,.17.07.17.17,0,0,1-.05.12.21.21,0,0,0-.05.16h-.28Zm.11,9.76a.54.54,0,0,1,.28.25l-.16,0-.16,0A.49.49,0,0,0,68.7,77.38Zm.07-9.13a.46.46,0,0,1,.16.17c0,.07.11.08.23,0,0,.19-.11.23-.25.12S68.73,68.36,68.77,68.24Zm2.13-1a.42.42,0,0,0-.26.07.41.41,0,0,1-.26.07.63.63,0,0,0-.28-.19.35.35,0,0,0-.23.05,1.61,1.61,0,0,0-.25.18.66.66,0,0,1-.26.14,1.92,1.92,0,0,1,.07-.46l.42,0,.38-.05a3.18,3.18,0,0,1,.59,0A.24.24,0,0,1,70.91,67.26Zm-1.5.7c.09,0,.16,0,.21,0a.26.26,0,0,1,0,.35s-.12,0-.21,0Zm.77,7.67a1.17,1.17,0,0,0-.23-.67.19.19,0,0,1,0-.16.91.91,0,0,1,.19-.3c-.19,0-.3,0-.33,0s-.12.08-.26,0a.92.92,0,0,0,.16.68A1.37,1.37,0,0,0,70.17,75.63Zm.07-6a.72.72,0,0,1,.38.14,1.61,1.61,0,0,0,0-.23.13.13,0,0,1,.09-.16,3.07,3.07,0,0,1,.1.4,1.89,1.89,0,0,0,.11.37.2.2,0,0,0-.14,0,.17.17,0,0,0-.14-.17c0,.12-.07.11-.21,0A.41.41,0,0,1,70.24,69.68Zm1.26.25c.09,0,.15,0,.17.07s.09.06.21,0a.43.43,0,0,0-.25-.38.21.21,0,0,1-.05.16A.48.48,0,0,0,71.5,69.92Zm.74,6.33a1.92,1.92,0,0,1,.09-.35.26.26,0,0,0-.09-.28c0,.09-.12.13-.28.11C72,76,72.1,76.21,72.24,76.26Zm.25-14.52a.44.44,0,0,0,.12.35,1.24,1.24,0,0,0,.26.17l-.07-.37C72.77,61.76,72.67,61.71,72.48,61.73Zm.21,2.69a.21.21,0,0,0-.11.18.38.38,0,0,0,.07.21.26.26,0,0,0,.16.12c.06,0,.11,0,.16-.16-.12,0-.17-.06-.16-.17S72.79,64.43,72.69,64.43Zm.59,5.92a1.21,1.21,0,0,0,.26.18.46.46,0,0,0,.17,0,.78.78,0,0,0,.21,0l.37-.07a1.43,1.43,0,0,1,.05-.44,1.93,1.93,0,0,0,.07-.26.53.53,0,0,0,0-.23,3.46,3.46,0,0,0-.14-.37c.19,0,.3,0,.33.07s.13.12.3.07c0-.16,0-.26-.07-.28a.24.24,0,0,0-.16,0,.24.24,0,0,1-.16,0s0-.13,0-.32l-.38,0A.52.52,0,0,0,74,69a2.72,2.72,0,0,0,.05.32,1,1,0,0,1,0,.31.46.46,0,0,1-.19.3c0-.12-.07-.16-.21-.14s-.23,0-.28-.11A.91.91,0,0,1,73.29,70.34Zm.8-1.89c-.19,0-.31,0-.37-.07a.54.54,0,0,0-.26-.21,1.69,1.69,0,0,1,.12.81.72.72,0,0,0,.05.49.2.2,0,0,1,.25-.14,1.62,1.62,0,0,1,0-.54Zm-.52-4.2a.39.39,0,0,1,0,.23l-.07.16a.52.52,0,0,0,.46-.24.31.31,0,0,1-.16-.11S73.69,64.23,73.57,64.25Zm.25,9.66a1.2,1.2,0,0,0,0,.42.26.26,0,0,0,.24.21l.3-.46c.08-.12,0-.22-.3-.31C74,73.87,74,73.91,73.81,73.91Zm.35-8.29c-.12-.09-.2-.12-.25-.09a.17.17,0,0,0-.07.14.1.1,0,0,0,.09.1C74,65.79,74.07,65.74,74.16,65.62ZM75.39,76.5a2.83,2.83,0,0,0,.7-.63.73.73,0,0,0,.17-.8.44.44,0,0,0-.35.12.47.47,0,0,1-.28.16,3.63,3.63,0,0,1,.12.51.33.33,0,0,1-.23.4c0-.09,0-.16,0-.19a.28.28,0,0,0-.16-.07l-.21,0a.14.14,0,0,1-.14-.07q-.07.42-.26.3a1.62,1.62,0,0,0-.47-.19c0,.12,0,.19,0,.21l-.12.07-.14.09s0,.1,0,.19a3.79,3.79,0,0,0,.73-.11A1.35,1.35,0,0,1,75.39,76.5ZM74.13,64.71h.25l0-.25h-.25Zm1.08,2.52a.64.64,0,0,0-.1-.46,1,1,0,0,0-.32-.32.7.7,0,0,0-.37-.1.27.27,0,0,0-.26.14.89.89,0,0,1,.63.28C74.93,66.94,75.07,67.09,75.21,67.23Zm-1,3.6a.88.88,0,0,0,.42.88,1,1,0,0,0,0-.58C74.61,70.93,74.45,70.83,74.2,70.83Zm.21,1.89c0,.12-.05.25-.09.39a1.45,1.45,0,0,0-.05.33.15.15,0,0,0,.09.16c.06,0,.16,0,.3-.1-.09,0-.14,0-.14-.12a2.55,2.55,0,0,1,0-.28,2.45,2.45,0,0,0,0-.26C74.55,72.76,74.5,72.72,74.41,72.72Zm-.07-9.13c0-.12-.05-.19,0-.21a.26.26,0,0,1,.14,0l.17,0c.06,0,.08-.05.05-.12q.38.07.21.26A.58.58,0,0,1,74.34,63.59Zm.14,11a.82.82,0,0,1,0,.47c0,.2,0,.3.14.3a4,4,0,0,1,.1-.46C74.77,74.77,74.69,74.66,74.48,74.61Zm.14-6.09a.73.73,0,0,0,.31-.21q.07-.11,0-.16s-.09,0-.16,0A.67.67,0,0,0,74.62,68.52Zm.31,1.64s.08,0,.11-.12a.67.67,0,0,0,0-.26.45.45,0,0,0-.09-.23c0-.06-.12-.06-.21,0a.56.56,0,0,1-.05.16.64.64,0,0,0-.05.25.41.41,0,0,0,.05.21C74.74,70.21,74.82,70.21,74.93,70.17ZM75.11,75a.15.15,0,0,1,0,.19.83.83,0,0,1-.14.14.41.41,0,0,0-.1.1s0,.06.1.09c.07-.16.15-.2.23-.11a.24.24,0,0,0,.3.07Q75.56,74.89,75.11,75Zm.17-9.94a.7.7,0,0,0,.1-.49q.35,0,.28.49ZM76.19,70a.72.72,0,0,1-.18.44l-.33.42a1.44,1.44,0,0,0-.23.37q-.07.18.14.32c0-.21.13-.29.39-.25a.67.67,0,0,1,.23-.67,2.18,2.18,0,0,0,.23-.23.64.64,0,0,0,.14-.3.18.18,0,0,1-.16-.07S76.31,70,76.19,70Zm-.74-6.58v-.25h.25v.25Zm1,5.32a1.19,1.19,0,0,0,.09-.54,1.39,1.39,0,0,0-.14-.54,1.15,1.15,0,0,0-.3-.39.28.28,0,0,0-.35,0,2,2,0,0,0,.26.61l.4.61c-.07,0-.11,0-.11.12A.16.16,0,0,0,76.44,68.73Zm-.14,3.92a.22.22,0,0,1-.31-.07q-.14-.17-.18.11l.28.12C76.23,72.87,76.3,72.82,76.3,72.65Zm-.21.91a.48.48,0,0,1,.37,0c.18,0,.25,0,.23-.14a.59.59,0,0,1-.38,0C76.14,73.41,76.06,73.45,76.09,73.56Zm.67,1.26a.85.85,0,0,1,.09-.23c0-.06,0-.11-.12-.16a.21.21,0,0,1-.05.21C76.61,74.72,76.64,74.78,76.75,74.82Zm.42-5.39-.25,0,0,.28.25,0Zm.32,4.2a.42.42,0,0,0-.19.14.83.83,0,0,0-.14.25.36.36,0,0,0,0,.24c0,.07.09.12.21.14,0-.16,0-.26.12-.3a.46.46,0,0,1,.25,0,.79.79,0,0,0,.25,0c.08,0,.13-.08.16-.19a.44.44,0,0,1-.4,0Zm.17-1.15c-.07,0-.1.1-.09.16a.16.16,0,0,0,.11.12.23.23,0,0,0,.17,0,.21.21,0,0,0,.12-.14.21.21,0,0,1-.16-.05A.4.4,0,0,0,77.66,72.48ZM78,71.6a.26.26,0,0,1,0-.25l.11-.26a.23.23,0,0,0,0-.19s-.11-.07-.25-.07a.82.82,0,0,1,0,.47C77.86,71.5,77.91,71.6,78,71.6Z"/>
        </g>
      </g>
    </g>
  </g>
</svg>