<?xml version="1.0" encoding="utf-8"?>
<!-- Generator: Adobe Illustrator 23.0.1, SVG Export Plug-In . SVG Version: 6.00 Build 0)  -->
<svg version="1.1" id="Layer_1" xmlns="http://www.w3.org/2000/svg" xmlns:xlink="http://www.w3.org/1999/xlink" x="0px" y="0px"
	 viewBox="0 0 1424 460" style="enable-background:new 0 0 1424 460;" xml:space="preserve">
<style type="text/css">
	.st0{fill-rule:evenodd;clip-rule:evenodd;fill:#040404;}
	.st1{fill-rule:evenodd;clip-rule:evenodd;fill:#FFFFFF;}
	.st2{fill-rule:evenodd;clip-rule:evenodd;fill:#4D4D4D;}
	.st3{fill-rule:evenodd;clip-rule:evenodd;fill:#919296;}
	.st4{fill-rule:evenodd;clip-rule:evenodd;fill:url(#SVGID_1_);}
	.st5{fill-rule:evenodd;clip-rule:evenodd;fill:#464142;}
	.st6{fill-rule:evenodd;clip-rule:evenodd;fill:url(#SVGID_2_);}
	.st7{fill-rule:evenodd;clip-rule:evenodd;fill:#1D1E21;}
	.st8{fill-rule:evenodd;clip-rule:evenodd;fill:#0D0F12;}
	.st9{fill-rule:evenodd;clip-rule:evenodd;fill:#1C1E20;}
	.st10{fill-rule:evenodd;clip-rule:evenodd;fill:#DCDDE0;}
	.st11{fill-rule:evenodd;clip-rule:evenodd;fill:#CECECE;}
	.st12{clip-path:url(#SVGID_4_);}
	.st13{clip-path:url(#SVGID_6_);fill:#E94647;}
	.st14{clip-path:url(#SVGID_6_);fill:#E6E7E8;}
	.st15{clip-path:url(#SVGID_8_);}
	.st16{clip-path:url(#SVGID_10_);fill:#BCBEC0;}
	.st17{clip-path:url(#SVGID_10_);fill:#FEBF10;}
	.st18{fill:#246EB9;}
	.st19{clip-path:url(#SVGID_12_);}
	.st20{clip-path:url(#SVGID_14_);fill:#E94647;}
	.st21{fill:none;}
</style>
<title>devices copy</title>
<desc>Created with Sketch.</desc>
<g id="Page-1_1_">
	<g id="devices-copy_1_">
		<path id="Path_1_" class="st0" d="M137.2,15.2h530.7c18.3,0,33.2,14.9,33.2,33.2V408H104V48.5C104,30.1,118.8,15.2,137.2,15.2z"/>
		<path id="Rectangle_1_" class="st1" d="M120.7,40.8h566.5c1.2,0,2.2,1,2.2,2.2v338.1c0,1.2-1,2.2-2.2,2.2H120.7
			c-1.2,0-2.2-1-2.2-2.2V43C118.5,41.8,119.5,40.8,120.7,40.8z"/>
		<ellipse id="Oval_1_" class="st2" cx="400" cy="27.4" rx="3.6" ry="3.6"/>
		<path class="st3" d="M765.9,427.2c0,6-23.7,14.7-28.1,14.7H66.3c-4.4,0-28.1-8.7-28.1-14.7H765.9z"/>
		
			<linearGradient id="SVGID_1_" gradientUnits="userSpaceOnUse" x1="-493.8704" y1="22.0615" x2="-492.9263" y2="22.0615" gradientTransform="matrix(784.87 0 0 28.12 387654.0625 -199.3703)">
			<stop  offset="0" style="stop-color:#606162"/>
			<stop  offset="0.12" style="stop-color:#B7BABB"/>
			<stop  offset="0.36" style="stop-color:#A2A5A6"/>
			<stop  offset="0.51" style="stop-color:#C9CCCD"/>
			<stop  offset="0.73" style="stop-color:#848687"/>
			<stop  offset="0.88" style="stop-color:#9C9FA0"/>
			<stop  offset="1" style="stop-color:#4C4D4E"/>
		</linearGradient>
		<path class="st4" d="M30.1,407.8H771v4.9c0,11.9-9.7,21.6-21.6,21.6H51.1c-5.6,0-10.9-2.2-14.9-6.2s-6.2-9.3-6.2-14.9v-5.4H30.1z"
			/>
		<path class="st5" d="M748.2,438.4c0,2.6-22.6,6.4-26.8,6.4H82c-4.2,0-26.8-3.8-26.8-6.4H748.2z"/>
		
			<linearGradient id="SVGID_2_" gradientUnits="userSpaceOnUse" x1="-492.7669" y1="53.4405" x2="-492.7669" y2="54.3844" gradientTransform="matrix(109.19 0 0 11.36 54202.0703 -197.5011)">
			<stop  offset="0" style="stop-color:#9C9FA0"/>
			<stop  offset="0.24" style="stop-color:#A2A5A6"/>
			<stop  offset="1" style="stop-color:#4C4D4E"/>
		</linearGradient>
		<path class="st6" d="M448.4,409.5c-0.1,5.8-4.8,10.6-10.6,10.7H355c-6,0-9.7-5.4-9.7-10.7H448.4z"/>
		<path class="st7" d="M294.5,442.9c2-1.6,7.7-1.5,9.1,0.1C300.7,443.8,297.5,443.6,294.5,442.9z"/>
		<path class="st7" d="M495.4,443.2c2-1.6,7.7-1.5,9.1,0.1C501.5,444.1,498.3,444.1,495.4,443.2z"/>
		<path class="st7" d="M81.7,442.5c2-1.6,7.7-1.5,9.1,0.1C87.9,443.5,84.7,443.4,81.7,442.5z"/>
		<path class="st7" d="M705,443c2-1.6,7.7-1.5,9.1,0.1C711.1,444,708,444,705,443z"/>
		<path class="st8" d="M698.1,422.8c-0.5,0.2-1,0.4-1.5,0.4h-21.7c-0.5,0.1-1.1-0.1-1.5-0.5C681.7,422.5,689.9,422.5,698.1,422.8z"
			/>
		<path class="st9" d="M673,424.4c-0.9-1.2-1.8-2.3,0.4-3.1c5.5,0.5,11,0.1,16.5,0.2c2.7,0.2,5.5,0.1,8.2-0.2c2.2,1.1,1.2,2.1,0,3.1
			c-1.5,0.6-3,0.3-4.5,0.3c-6,0-12,0-18,0C674.7,424.8,673.8,425.1,673,424.4z"/>
		<path class="st10" d="M673,424.4l25.1,0.1c0,0.1,0,0.3,0,0.4c-8.3,0-16.6,0.1-24.9,0.1c-0.1,0-0.2-0.1-0.2-0.1
			C673,424.8,673,424.5,673,424.4z"/>
		<path class="st8" d="M698.1,421.4c-0.5,0.2-1,0.4-1.5,0.4h-21.7c-0.5,0.1-1.1-0.1-1.5-0.5C681.7,421.1,689.9,421,698.1,421.4z"/>
		<path class="st8" d="M698.1,421.4c-0.5,0.2-1,0.4-1.5,0.4h-21.7c-0.5,0.1-1.1-0.1-1.5-0.5C681.7,421.1,689.9,421,698.1,421.4z"/>
		<path class="st9" d="M673,424.4c-0.9-1.2-1.8-2.3,0.4-3.1c5.5,0.5,11,0.1,16.5,0.2c2.7,0.2,5.5,0.1,8.2-0.2c2.2,1.1,1.2,2.1,0,3.1
			c-1.5,0.6-3,0.3-4.5,0.3c-6,0-12,0-18,0C674.7,424.8,673.8,425.1,673,424.4z"/>
		<path class="st11" d="M673,424.4l25.1,0.1c0,0.1,0,0.3,0,0.4c-8.3,0-16.6,0.1-24.9,0.1c-0.1,0-0.2-0.1-0.2-0.1
			C673,424.8,673,424.5,673,424.4z"/>
		<path class="st8" d="M698.1,421.4c-0.5,0.2-1,0.4-1.5,0.4h-21.7c-0.5,0.1-1.1-0.1-1.5-0.5C681.7,421.1,689.9,421,698.1,421.4z"/>
	</g>
</g>
<g id="Artwork_1_1_">
	<g>
		<defs>
			<rect id="SVGID_3_" x="328.5" y="139.6" width="143" height="142.6"/>
		</defs>
		<clipPath id="SVGID_4_">
			<use xlink:href="#SVGID_3_"  style="overflow:visible;"/>
		</clipPath>
		<g class="st12">
			<defs>
				<rect id="SVGID_5_" x="328.5" y="139.6" width="143" height="142.6"/>
			</defs>
			<clipPath id="SVGID_6_">
				<use xlink:href="#SVGID_5_"  style="overflow:visible;"/>
			</clipPath>
			<path class="st13" d="M348.9,219.6c4.1-6.3,7.9-7.5,13.8-3.5c4,2.7,7.5,6.3,11.3,9.4c3.4,3.5,6.8,7,10.3,10.5
				c-0.4,0.5-0.8,1-1.3,1.5c-4-0.3-5.5-3.9-8.1-6c-1.4-1.1-2.7-3.8-4.6-0.9c-1.3,2-0.2,3.7,1.6,5c6.9,5,12.6,11.4,20.3,15.4
				c6.4,14.3,20.1,19.9,33.1,13.5c1.6,0,3.3-0.4,3.9-1.8c4.3-8.9,10.9-15.5,20.1-19.2c1.5-2.5,2.1-5.5,4.5-7.5
				c2.5-7.5,2.4-15,0-22.5c-1.2-3.9-1.9-7.9-1.5-12c0.2-2.6-0.3-4.9-3-6c0.5-3-1.1-6.4,1.5-9.1c0,3.6,0.8,5.8,4.5,2.3
				c2.6-2.4,5.1-4.7,7.8-6.9c2.3-1.9,5.4-3.5,3.4-7.1c-1.9-3.5-4.9-3.9-8.2-1.8c0-0.9,0-1.8,0-2.7c9.7-1.3,12.5,0.2,13.3,7.3
				c-2.5,1.5-4.4,3.5-5.9,5.9c-8.4,4-11.9,11-10.1,20c0.9,4.9,2.1,9.7,2.5,14.7c0.8,9.6,1.5,20.2-5.9,27c-7,6.5-14,13.1-21.2,19.3
				c-10.6,9.1-22.8,7.4-35.9-2.7c-1.5-1.7-2.6-3.7-4.4-5C375.5,245.6,363,231.7,348.9,219.6"/>
			<path class="st13" d="M379.8,151.7c5-6.5,9-6.4,14.9,0.3c-0.5,5.2,2.8,9.2,5.4,12.9c6.7,9.5,13.8,18.7,21.5,27.5
				c5.5,6.3,10.8,14.4,21.6,10.7c-3.6,5.7-6.8,11.7-10.9,16.9c-3.5,4.4-9.6,6.1-14,3.1c-4.8-3.4,0.1-8,1.6-11.9
				c0.4-1,1.8-1.6,2.7-2.5c2.3-2,2.4-4.6,0.5-6.6c-3.7-3.9-6.6-8-8.1-13.2c-0.6-2.1-2.5-3.3-4.6-3.4c-2.6-0.1-3,2.1-3.3,4.1
				C397.7,177.2,387.4,165.4,379.8,151.7"/>
			<path class="st13" d="M354.6,159.5c5-6.7,10.4-7.3,16.5-0.6c11.2,12.4,21.8,25.3,32.7,38c1.7,3.2,3.1,6.8,7.8,6
				c-7.5,4.6-8.8-3.9-13-6.2c-2-1.1-3-4.7-6-3.5c-2.9,1.1-3.8,3.7-3.6,6.8c-3.9-4.1-8.1-8-11.6-12.5
				C370.1,178,360.3,170.4,354.6,159.5"/>
			<path class="st13" d="M345.8,186.4c3.4-8.2,9.8-9.5,16.7-2.8c8.4,8.1,16,16.9,24.2,25.3c2.9,2.9,5,6.9,9.5,7.9
				c-0.6,1.3-2.8,2.3-1,4.2c-3.5,0.2-4.9-2.8-7.2-4.6c-2.2-1.7-3.7-5.4-7.2-3.7c-4.4,2.1-0.7,5.6-0.8,8.5
				c-6.7-5.9-12.9-12.2-18.8-19C356.5,196.5,352,190.6,345.8,186.4"/>
			<path class="st13" d="M467,230.1c0.6,8.8,2,17.8-4,25.6c-2.9,0.9-5.4,2.5-7.5,4.8c-5,5.6-11.1,10-17.4,14
				c-7.8,4.9-16.2,7.7-25.1,2.2c6.7-0.5,14-0.7,19.1-5.3c13.3-11.9,31.9-19.7,33.5-41.2C466.2,230.1,466.6,230.1,467,230.1"/>
			<path class="st13" d="M443.2,203.1c-10.7,3.7-16-4.4-21.6-10.7c-7.7-8.7-14.8-17.9-21.5-27.5c-2.6-3.7-5.9-7.6-5.4-12.9
				c4.8,3.4,7.6,8.4,11,12.9c7.6,10.2,14.7,20.8,23.3,30.1c2.9,3.2,6,6.6,10.9,4.8c4.6-1.8,5.3-6.4,5.4-10.7
				c0.3-9.1,4.3-15.5,12.8-19c0,0.9,0,1.8,0,2.7c-4.9,3.1-7.9,7.3-7.5,13.5c-2.6,2.7-1,6-1.5,9.1c-1,1.5-1.9,3-2.9,4.6
				C445.2,201.1,444.2,202.1,443.2,203.1"/>
			<path class="st13" d="M413.1,276.6c8.9,5.5,17.2,2.7,25.1-2.2c6.3-4,12.4-8.3,17.4-14c2-2.3,4.5-3.9,7.5-4.8
				c-9,18.2-30.3,29.8-47.2,25.7c-5.3-1.3-9.8-3.9-13.8-7.3c-9.4-8.2-18.7-16.5-28.1-24.8c3.3-2.3,4.1,1.3,5.9,2.5
				c5.2,3.6,9.1,8.9,15,11.4C399.6,269.7,406.2,273.3,413.1,276.6"/>
			<path class="st13" d="M395.2,220.9c-1.8-1.9,0.4-2.9,1-4.2c-11.2-15-24.4-28.3-36.6-42.5c-3.7-4.3-6.8-8.7-5-14.8
				c5.7,10.9,15.5,18.5,22.9,28.1c3.4,4.5,7.7,8.3,11.6,12.5c3,3.8,6.4,7.4,9,11.4C400.6,215.3,401.4,219.4,395.2,220.9"/>
			<path class="st13" d="M345.8,186.4c6.1,4.2,10.7,10.1,15.4,15.7c5.8,6.8,12.1,13.1,18.8,19c3.4,5.1,10.7,7.4,10.8,14.9
				c-1.8,4.7-4.7,3.5-7.8,1.5c0.4-0.5,0.8-1,1.3-1.5c0.7,0.3,1.5,0.9,2.1,0.7c2.2-0.8,0.6-1.9-0.1-2.5c-3.5-3.4-7.1-6.8-10.7-10.1
				c-8.2-8.6-16.4-17.3-24.7-25.9C347.6,194.9,345,191.4,345.8,186.4"/>
			<path class="st13" d="M411.6,203c-4.7,0.7-6.1-2.9-7.8-6c1.1-3.1-0.9-5.1-2.6-7.3c-6.2-8.1-12.4-16.2-18.5-24.4
				c-2.9-4-5.9-8.2-2.9-13.6c7.6,13.7,17.9,25.5,27.2,37.9C408.2,194.2,415,196.8,411.6,203"/>
			<path class="st13" d="M395,263.3c-6-2.6-9.9-7.9-15-11.5c-1.7-1.2-2.6-4.8-5.8-2.5c-7-6.3-14.1-12.5-21-19
				c-2.9-2.7-5.2-6.1-4.2-10.6c14.1,12.1,26.6,26,41.8,37c1.8,1.3,2.9,3.3,4.4,5C395,262.2,395,262.7,395,263.3"/>
			<path class="st14" d="M416.4,139.6c0.9,0.7,2,1.6,3.2,2.5c9.2,7.4,15.1,17,19.2,27.9c0.5,1.3,2.8,3.1-0.3,4.1
				c-1.8,0.6-3.4,0-4.3-2c-1.7-3.9-3.2-7.8-5.3-11.5c-3.4-6.1-7.8-11.5-13.5-15.7c-1.3-0.9-2.5-1.8-1.5-3.6
				C414.4,140.5,414.6,139.4,416.4,139.6"/>
			<path class="st14" d="M359,261.7c-0.3,3.1-1.8,3.4-4.1,2.1c-11.4-6.1-19.4-15.4-25.7-26.4c-0.6-1-1.4-2.3,0.2-3.2
				c1.4-0.7,3-1.2,4,0.4c6.1,10.5,13.6,19.7,24.6,25.4C358.5,260.4,358.8,261.3,359,261.7"/>
			<path class="st14" d="M428,175.1c0,0-0.2,1-1.4,1.2c-0.9,0.1-2.4-0.1-2.7-0.6c-3.8-9-8.5-17.3-16.5-23.4
				c-0.7-0.6-0.6-1.8,0.2-2.7c0.9-0.9,1.8-0.5,2.6,0.1C419.1,155.7,424.3,164.3,428,175.1"/>
			<path class="st14" d="M364.2,252.4c-0.4,1.4-1.3,1.9-2.8,1.7c-5.2-0.7-20.6-16.5-21.4-22c-0.1-0.7-0.6-1.4,0.4-1.9
				c1.2-0.6,2.8-0.8,3.4,0.2c4.9,8.6,11.2,15.8,19.9,20.6C364,251.3,364,252,364.2,252.4"/>
			<path class="st13" d="M467,230.1c-0.4,0-0.9,0-1.3,0c-0.2-3.2-0.1-6.3-0.9-9.6c-3.3-12.4-4.1-24.8,0.8-37
				c1.5-2.4,3.4-4.4,5.9-5.9C462.2,194.4,464.8,212.2,467,230.1"/>
			<path class="st13" d="M411.6,203c3.4-6.1-3.3-8.8-4.6-13.3c0.3-2,0.7-4.2,3.3-4.1c2,0.1,3.9,1.3,4.6,3.4
				c1.5,5.2,4.4,9.3,8.1,13.2c1.9,2,1.8,4.5-0.5,6.6c-0.9,0.8-2.3,1.4-2.7,2.5c-1.4,3.9-6.4,8.5-1.6,11.9c4.4,3.1,10.5,1.3,14-3.1
				c4.2-5.2,7.3-11.2,10.9-16.9c1-1,2.1-2,3.1-3c2.2-0.3,4.1,0.5,5.9,1.5c-0.4,4.1,0.3,8.1,1.5,12c0,7.5,0,15,0,22.5
				c-2.4,2-3,5-4.5,7.5c-4,1.3-8.1,1.8-12.3,1.5c-3-0.2-6.5,1.1-5.4,4.3c2.6,7.4-3.3,10.6-6.3,15.2c-12.9,6.4-26.6,0.8-33-13.5
				c-0.8-3.7-2.7-7.3,0.7-10.9c1.7-1.8,0.6-3.6-2-4.1c0-7.5-7.4-9.8-10.8-14.9c0.2-2.9-3.6-6.3,0.8-8.5c3.6-1.7,5.1,1.9,7.2,3.7
				c2.2,1.8,3.6,4.8,7.2,4.6c6.2-1.6,5.4-5.6,2.9-9.5c-2.6-4.1-6-7.6-9-11.4c-0.3-3,0.7-5.7,3.6-6.8c3-1.2,3.9,2.4,6,3.5
				C402.8,199.1,404.1,207.6,411.6,203 M414.6,264.2c1.7-0.4,3.1-0.7,4.6-1c4-0.9,6.6-3.3,7.4-7.4c0.9-4.7-2.9-5.3-5.9-7.1
				c-7.1-4.3-13.3-9.7-16.5-17.6c-1.4-3.5-3.9-7.1-7.4-5.6c-4.2,1.8-3,6.2-0.7,9.6c2.6,3.8,5.2,7.5,0.1,11.5
				c-1.6,1.2-0.9,3.1-0.2,4.8C398.4,257.6,408.3,264.3,414.6,264.2 M452.1,225.9c-0.6-4.7-1-9.7-2.1-14.5c-0.4-1.8-0.2-5-3.4-5
				c-2.5,0-4.1,2-4.9,4.1c-1.8,4.9-3.1,10-4.8,14.9c-1.6,4.7-2.6,9.3,1.4,13.3c1.8,1.8,4.4,2.7,6.9,1.4c4.7-2.4,6.1-6.9,6.9-11.7
				C452.2,227.6,452.1,226.8,452.1,225.9"/>
			<path class="st13" d="M465.6,183.4c-4.9,12.2-4.1,24.7-0.8,37c0.8,3.2,0.7,6.4,0.9,9.6c-1.6,21.5-20.2,29.3-33.5,41.2
				c-5.1,4.6-12.4,4.8-19.1,5.3c-6.9-3.3-13.5-6.9-18.2-13.3c0-0.5,0.1-1.1,0.1-1.7c13,10.1,25.3,11.8,35.9,2.7
				c7.2-6.2,14.2-12.8,21.2-19.3c7.4-6.8,6.7-17.4,5.9-27c-0.4-4.9-1.6-9.8-2.5-14.7C453.8,194.4,457.3,187.4,465.6,183.4"/>
			<path class="st13" d="M450.6,186.4c-0.4-6.1,2.6-10.3,7.5-13.5c3.3-2.1,6.3-1.7,8.2,1.8c2,3.7-1.1,5.2-3.4,7.1
				c-2.7,2.2-5.3,4.5-7.8,6.9C451.4,192.2,450.7,190,450.6,186.4"/>
			<path class="st13" d="M390.8,236.1c2.6,0.5,3.6,2.3,2,4.1c-3.4,3.7-1.5,7.2-0.7,10.9c-7.6-4-13.4-10.4-20.3-15.4
				c-1.8-1.3-3-3-1.6-5c1.9-2.9,3.2-0.1,4.6,0.9c2.7,2.1,4.2,5.7,8.1,6C386.1,239.6,389,240.8,390.8,236.1"/>
			<path class="st13" d="M425.1,264.6c3-4.7,8.9-7.8,6.3-15.2c-1.1-3.1,2.4-4.4,5.4-4.3c4.2,0.2,8.3-0.3,12.3-1.5
				c-9.2,3.8-15.8,10.3-20.1,19.2C428.4,264.2,426.7,264.6,425.1,264.6"/>
			<path class="st13" d="M453.7,236.1c0-7.5,0-15,0-22.5C456.1,221.1,456.1,228.6,453.7,236.1"/>
			<path class="st13" d="M452.2,201.5c-1.8-1-3.8-1.8-5.9-1.5c1-1.5,1.9-3,2.9-4.6C451.9,196.6,452.3,198.9,452.2,201.5"/>
			<path class="st13" d="M414.6,264.2c-6.3,0.1-16.2-6.6-18.7-12.8c-0.7-1.7-1.3-3.6,0.2-4.8c5.1-4,2.5-7.7-0.1-11.5
				c-2.3-3.4-3.5-7.7,0.7-9.6c3.4-1.5,6,2,7.4,5.6c3.2,8,9.4,13.4,16.5,17.6c3,1.8,6.8,2.4,5.9,7.1c-0.8,4.1-3.3,6.5-7.4,7.4
				C417.7,263.4,416.3,263.8,414.6,264.2"/>
			<path class="st13" d="M452.1,225.9c0,1,0.1,1.7,0,2.5c-0.8,4.8-2.1,9.3-6.9,11.7c-2.5,1.3-5.1,0.3-6.9-1.4
				c-3.9-3.9-3-8.6-1.4-13.3c1.7-4.9,3-10,4.8-14.9c0.8-2.1,2.3-4.1,4.9-4.1c3.2,0,3,3.2,3.4,5C451.1,216.2,451.5,221.2,452.1,225.9
				"/>
		</g>
	</g>
</g>
<path class="st0" d="M1043.3,21.5h257.2c17.6,0,31.9,14.3,31.9,31.9v353.1c0,17.6-14.3,31.9-31.9,31.9h-257.2
	c-17.6,0-31.9-14.3-31.9-31.9v-353C1011.3,35.8,1025.6,21.5,1043.3,21.5z"/>
<path class="st1" d="M1031.7,42.8h280.4c1.2,0,2.2,1,2.2,2.2v373.7c0,1.2-1,2.2-2.2,2.2h-280.4c-1.2,0-2.2-1-2.2-2.2V44.9
	C1029.5,43.8,1030.5,42.8,1031.7,42.8z"/>
<circle class="st2" cx="1011.4" cy="14" r="2.4"/>
<g id="Artwork_2_1_">
	<g>
		<defs>
			<rect id="SVGID_7_" x="1100.4" y="157.6" width="143" height="142.6"/>
		</defs>
		<clipPath id="SVGID_8_">
			<use xlink:href="#SVGID_7_"  style="overflow:visible;"/>
		</clipPath>
		<g class="st15">
			<defs>
				<rect id="SVGID_9_" x="1100.4" y="157.6" width="143" height="142.6"/>
			</defs>
			<clipPath id="SVGID_10_">
				<use xlink:href="#SVGID_9_"  style="overflow:visible;"/>
			</clipPath>
			<path class="st16" d="M1188.3,157.6c0.9,0.7,2,1.6,3.2,2.5c9.2,7.4,15.1,17,19.2,27.9c0.5,1.3,2.8,3.1-0.3,4.1
				c-1.8,0.6-3.4,0-4.3-2c-1.7-3.9-3.2-7.8-5.3-11.5c-3.4-6.1-7.8-11.5-13.5-15.7c-1.3-0.9-2.5-1.8-1.5-3.6
				C1186.3,158.5,1186.5,157.4,1188.3,157.6"/>
			<path class="st16" d="M1130.9,279.7c-0.3,3.1-1.8,3.4-4.1,2.1c-11.4-6.1-19.4-15.4-25.7-26.4c-0.6-1-1.4-2.3,0.2-3.2
				c1.4-0.7,3-1.2,4,0.4c6.1,10.5,13.6,19.7,24.6,25.4C1130.4,278.4,1130.7,279.3,1130.9,279.7"/>
			<path class="st16" d="M1199.9,193.1c0,0-0.2,1-1.4,1.2c-0.9,0.1-2.4-0.1-2.7-0.6c-3.8-9-8.5-17.3-16.5-23.4
				c-0.7-0.6-0.6-1.8,0.2-2.7c0.9-0.9,1.8-0.5,2.6,0.1C1191,173.7,1196.2,182.3,1199.9,193.1"/>
			<path class="st16" d="M1136.1,270.4c-0.4,1.4-1.3,1.9-2.8,1.7c-5.2-0.7-20.6-16.5-21.4-22c-0.1-0.7-0.6-1.4,0.4-1.9
				c1.2-0.6,2.8-0.8,3.4,0.2c4.9,8.6,11.2,15.8,19.9,20.6C1135.9,269.3,1135.9,270,1136.1,270.4"/>
			<path class="st17" d="M1120.8,237.6c4.1-6.3,7.9-7.5,13.8-3.5c4,2.7,7.5,6.3,11.3,9.4c3.4,3.5,6.8,7,10.3,10.5
				c-0.4,0.5-0.8,1-1.3,1.5c-4-0.3-5.5-3.9-8.1-6c-1.4-1.1-2.7-3.8-4.6-0.9c-1.3,2-0.2,3.7,1.6,5c6.9,5,12.6,11.4,20.3,15.4
				c6.4,14.3,20.1,19.9,33.1,13.5c1.6,0,3.3-0.4,3.9-1.8c4.3-8.9,10.9-15.5,20.1-19.2c1.5-2.5,2.1-5.5,4.5-7.5
				c2.5-7.5,2.4-15,0-22.5c-1.2-3.9-1.9-7.9-1.5-12c0.2-2.6-0.3-4.9-3-6c0.5-3-1.1-6.4,1.5-9.1c0,3.6,0.8,5.8,4.5,2.3
				c2.6-2.4,5.1-4.7,7.8-6.9c2.3-1.9,5.4-3.5,3.4-7.1c-1.9-3.5-4.9-3.9-8.2-1.8c0-0.9,0-1.8,0-2.7c9.7-1.3,12.5,0.2,13.3,7.3
				c-2.5,1.5-4.3,3.5-5.9,5.9c-8.4,4-11.9,11-10.1,20c0.9,4.9,2.1,9.7,2.5,14.7c0.8,9.6,1.5,20.2-5.9,27c-7,6.5-14,13.1-21.2,19.3
				c-10.6,9.1-22.8,7.4-35.9-2.7c-1.5-1.7-2.6-3.7-4.4-5C1147.4,263.6,1134.9,249.7,1120.8,237.6"/>
			<path class="st17" d="M1151.7,169.7c5-6.5,9-6.4,14.9,0.3c-0.5,5.2,2.8,9.2,5.4,12.9c6.7,9.5,13.8,18.7,21.5,27.5
				c5.5,6.3,10.8,14.4,21.6,10.7c-3.6,5.7-6.8,11.7-10.9,16.9c-3.5,4.4-9.6,6.1-14,3.1c-4.8-3.4,0.1-8,1.6-11.9
				c0.4-1,1.8-1.6,2.7-2.5c2.3-2,2.4-4.6,0.5-6.6c-3.7-3.9-6.6-8-8.1-13.2c-0.6-2.1-2.5-3.3-4.6-3.4c-2.6-0.1-3,2.1-3.3,4.1
				C1169.6,195.2,1159.3,183.4,1151.7,169.7"/>
			<path class="st17" d="M1126.5,177.5c5-6.7,10.4-7.3,16.5-0.6c11.2,12.4,21.8,25.3,32.7,38c1.7,3.2,3.1,6.8,7.8,6
				c-7.5,4.6-8.8-3.9-13-6.2c-2-1.1-3-4.7-6-3.5c-2.9,1.1-3.8,3.7-3.6,6.8c-3.9-4.1-8.1-8-11.6-12.5
				C1142,196,1132.2,188.4,1126.5,177.5"/>
			<path class="st17" d="M1117.7,204.4c3.4-8.2,9.8-9.5,16.7-2.8c8.4,8.1,16,16.9,24.2,25.3c2.9,2.9,5,6.9,9.5,7.9
				c-0.6,1.3-2.8,2.3-1,4.2c-3.5,0.2-4.9-2.8-7.2-4.6c-2.2-1.7-3.7-5.4-7.2-3.7c-4.4,2.1-0.7,5.6-0.8,8.5
				c-6.7-5.9-12.9-12.2-18.8-19C1128.4,214.5,1123.9,208.6,1117.7,204.4"/>
			<path class="st17" d="M1238.9,248.1c0.6,8.8,2,17.8-4,25.6c-2.9,0.9-5.4,2.5-7.5,4.8c-5,5.6-11.1,10-17.4,14
				c-7.8,4.9-16.2,7.7-25.1,2.2c6.7-0.5,14-0.7,19.1-5.3c13.3-11.9,31.9-19.7,33.5-41.2C1238.1,248.1,1238.5,248.1,1238.9,248.1"/>
			<path class="st17" d="M1215.1,221.1c-10.7,3.7-16-4.4-21.6-10.7c-7.7-8.7-14.8-17.9-21.5-27.5c-2.6-3.7-5.9-7.6-5.4-12.9
				c4.8,3.4,7.6,8.4,11,12.9c7.6,10.2,14.7,20.8,23.3,30.1c2.9,3.2,6,6.6,10.9,4.8c4.6-1.8,5.3-6.4,5.4-10.7
				c0.3-9.1,4.3-15.5,12.8-19c0,0.9,0,1.8,0,2.7c-4.9,3.1-7.9,7.3-7.5,13.5c-2.6,2.7-1,6-1.5,9.1c-1,1.5-1.9,3-2.9,4.6
				C1217.1,219.1,1216.1,220.1,1215.1,221.1"/>
			<path class="st17" d="M1185,294.6c8.9,5.5,17.2,2.7,25.1-2.2c6.3-4,12.4-8.3,17.4-14c2-2.3,4.5-3.9,7.5-4.8
				c-9,18.2-30.3,29.8-47.2,25.7c-5.3-1.3-9.8-3.9-13.8-7.3c-9.4-8.2-18.7-16.5-28.1-24.8c3.3-2.3,4.1,1.3,5.9,2.5
				c5.2,3.6,9.1,8.9,15,11.4C1171.5,287.7,1178.1,291.3,1185,294.6"/>
			<path class="st17" d="M1167.1,238.9c-1.8-1.9,0.4-2.9,1-4.2c-11.2-15-24.4-28.3-36.6-42.5c-3.7-4.3-6.8-8.7-5-14.8
				c5.7,10.9,15.5,18.5,22.9,28.1c3.4,4.5,7.7,8.3,11.6,12.5c3,3.8,6.4,7.4,9,11.4C1172.5,233.3,1173.3,237.4,1167.1,238.9"/>
			<path class="st17" d="M1117.7,204.4c6.1,4.2,10.7,10.1,15.4,15.7c5.8,6.8,12.1,13.1,18.8,19c3.4,5.1,10.7,7.4,10.8,14.9
				c-1.8,4.7-4.7,3.5-7.8,1.5c0.4-0.5,0.8-1,1.3-1.5c0.7,0.3,1.5,0.9,2.1,0.7c2.2-0.8,0.6-1.9-0.1-2.5c-3.5-3.4-7.1-6.8-10.7-10.1
				c-8.2-8.6-16.4-17.3-24.7-25.9C1119.5,212.9,1116.9,209.4,1117.7,204.4"/>
			<path class="st17" d="M1183.5,221c-4.7,0.7-6.1-2.9-7.8-6c1.1-3.1-0.9-5.1-2.6-7.3c-6.2-8.1-12.4-16.2-18.5-24.4
				c-2.9-4-5.9-8.2-2.9-13.6c7.6,13.7,17.9,25.5,27.2,37.9C1180.1,212.2,1186.9,214.8,1183.5,221"/>
			<path class="st17" d="M1166.9,281.3c-6-2.6-9.9-7.9-15-11.5c-1.7-1.2-2.6-4.8-5.8-2.5c-7-6.3-14.1-12.5-21-19
				c-2.9-2.7-5.2-6.1-4.2-10.6c14.1,12.1,26.6,26,41.8,37c1.8,1.3,2.9,3.3,4.4,5C1166.9,280.2,1166.9,280.7,1166.9,281.3"/>
			<path class="st17" d="M1238.9,248.1c-0.4,0-0.9,0-1.3,0c-0.2-3.2-0.1-6.3-0.9-9.6c-3.3-12.4-4.1-24.8,0.8-37
				c1.5-2.4,3.4-4.4,5.9-5.9C1234.1,212.4,1236.7,230.2,1238.9,248.1"/>
			<path class="st17" d="M1183.5,221c3.4-6.1-3.3-8.8-4.6-13.3c0.3-2,0.7-4.2,3.3-4.1c2,0.1,3.9,1.3,4.6,3.4
				c1.5,5.2,4.4,9.3,8.1,13.2c1.9,2,1.8,4.5-0.5,6.6c-0.9,0.8-2.3,1.4-2.7,2.5c-1.4,3.9-6.4,8.5-1.6,11.9c4.4,3.1,10.5,1.3,14-3.1
				c4.2-5.2,7.3-11.2,10.9-16.9c1-1,2.1-2,3.1-3c2.2-0.3,4.1,0.5,5.9,1.5c-0.4,4.1,0.3,8.1,1.5,12c0,7.5,0,15,0,22.5
				c-2.4,2-3,5-4.5,7.5c-4,1.3-8.1,1.8-12.3,1.5c-3-0.2-6.5,1.1-5.4,4.3c2.6,7.4-3.3,10.6-6.3,15.2c-12.9,6.4-26.6,0.8-33-13.5
				c-0.8-3.7-2.7-7.3,0.7-10.9c1.7-1.8,0.6-3.6-2-4.1c0-7.5-7.4-9.8-10.8-14.9c0.2-2.9-3.6-6.3,0.8-8.5c3.6-1.7,5.1,1.9,7.2,3.7
				c2.2,1.8,3.6,4.8,7.2,4.6c6.2-1.6,5.4-5.6,2.9-9.5c-2.6-4.1-6-7.6-9-11.4c-0.3-3,0.7-5.7,3.6-6.8c3-1.2,3.9,2.4,6,3.5
				C1174.7,217.1,1176,225.6,1183.5,221 M1186.5,282.2c1.7-0.4,3.1-0.7,4.6-1c4-0.9,6.6-3.3,7.4-7.4c0.9-4.7-2.9-5.3-5.9-7.1
				c-7.1-4.3-13.3-9.7-16.5-17.6c-1.4-3.5-3.9-7.1-7.4-5.6c-4.2,1.8-3,6.2-0.7,9.6c2.6,3.8,5.2,7.5,0.1,11.5
				c-1.6,1.2-0.9,3.1-0.2,4.8C1170.3,275.6,1180.2,282.3,1186.5,282.2 M1224,243.9c-0.6-4.7-1-9.7-2.1-14.5c-0.4-1.8-0.2-5-3.4-5
				c-2.5,0-4.1,2-4.9,4.1c-1.8,4.9-3.1,10-4.8,14.9c-1.6,4.7-2.6,9.3,1.4,13.3c1.8,1.8,4.4,2.7,6.9,1.4c4.7-2.4,6.1-6.9,6.9-11.7
				C1224.1,245.6,1224,244.8,1224,243.9"/>
			<path class="st17" d="M1237.5,201.4c-4.9,12.2-4.1,24.7-0.8,37c0.8,3.2,0.7,6.4,0.9,9.6c-1.6,21.5-20.2,29.3-33.5,41.2
				c-5.1,4.6-12.4,4.8-19.1,5.3c-6.9-3.3-13.5-6.9-18.2-13.3c0-0.5,0.1-1.1,0.1-1.7c13,10.1,25.3,11.8,35.9,2.7
				c7.2-6.2,14.2-12.8,21.2-19.3c7.4-6.8,6.7-17.4,5.9-27c-0.4-4.9-1.6-9.8-2.5-14.7C1225.7,212.4,1229.2,205.4,1237.5,201.4"/>
			<path class="st17" d="M1222.5,204.4c-0.4-6.1,2.6-10.3,7.5-13.5c3.3-2.1,6.3-1.7,8.2,1.8c2,3.7-1.1,5.2-3.4,7.1
				c-2.7,2.2-5.3,4.5-7.8,6.9C1223.3,210.2,1222.6,208,1222.5,204.4"/>
			<path class="st17" d="M1162.7,254.1c2.6,0.5,3.6,2.3,2,4.1c-3.4,3.7-1.5,7.2-0.7,10.9c-7.6-4-13.4-10.4-20.3-15.4
				c-1.8-1.3-3-3-1.6-5c1.9-2.9,3.2-0.1,4.6,0.9c2.7,2.1,4.2,5.7,8.1,6C1158,257.6,1160.9,258.8,1162.7,254.1"/>
			<path class="st17" d="M1197,282.6c3-4.7,8.9-7.8,6.3-15.2c-1.1-3.1,2.4-4.4,5.4-4.3c4.2,0.2,8.3-0.3,12.3-1.5
				c-9.2,3.8-15.8,10.3-20.1,19.2C1200.3,282.2,1198.6,282.6,1197,282.6"/>
			<path class="st17" d="M1225.6,254.1c0-7.5,0-15,0-22.5C1228,239.1,1228,246.6,1225.6,254.1"/>
			<path class="st17" d="M1224.1,219.5c-1.8-1-3.8-1.8-5.9-1.5c1-1.5,1.9-3,2.9-4.6C1223.8,214.6,1224.2,216.9,1224.1,219.5"/>
			<path class="st17" d="M1186.5,282.2c-6.3,0.1-16.2-6.6-18.7-12.8c-0.7-1.7-1.3-3.6,0.2-4.8c5.1-4,2.5-7.7-0.1-11.5
				c-2.3-3.4-3.5-7.7,0.7-9.6c3.4-1.5,6,2,7.4,5.6c3.2,8,9.4,13.4,16.5,17.6c3,1.8,6.8,2.4,5.9,7.1c-0.8,4.1-3.3,6.5-7.4,7.4
				C1189.6,281.4,1188.2,281.8,1186.5,282.2"/>
			<path class="st17" d="M1224,243.9c0,1,0.1,1.7,0,2.5c-0.8,4.8-2.1,9.3-6.9,11.7c-2.5,1.3-5.1,0.3-6.9-1.4
				c-3.9-3.9-3-8.6-1.4-13.3c1.7-4.9,3-10,4.8-14.9c0.8-2.1,2.3-4.1,4.9-4.1c3.2,0,3,3.2,3.4,5C1223,234.2,1223.4,239.2,1224,243.9"
				/>
		</g>
	</g>
</g>
<g>
	<g>
		<polygon class="st18" points="862,224.1 916.7,224.1 905.6,213 919,213 934.9,228.9 919,244.8 905.6,244.8 916.7,233.7 862,233.7 
					"/>
		<g>
			<polygon class="st18" points="862,233.7 807.3,233.7 818.4,244.8 805,244.8 789.1,228.9 805,213 818.4,213 807.3,224.1 
				862,224.1 			"/>
		</g>
	</g>
	<g id="Artwork_3_1_">
		<g>
			<defs>
				<rect id="SVGID_11_" x="846.4" y="176.8" width="31.2" height="30"/>
			</defs>
			<clipPath id="SVGID_12_">
				<use xlink:href="#SVGID_11_"  style="overflow:visible;"/>
			</clipPath>
			<g class="st19">
				<defs>
					<rect id="SVGID_13_" x="846.4" y="176.8" width="31.2" height="30"/>
				</defs>
				<clipPath id="SVGID_14_">
					<use xlink:href="#SVGID_13_"  style="overflow:visible;"/>
				</clipPath>
				<path class="st20" d="M862.7,206.8c-6.4-3.4-10.3-7.9-13.7-12.7c-3-4.2-3.6-9.1-0.6-13.7c2.9-4.6,7.1-4,11.4-2.1
					c2,0.9,3.9,0.4,5.8-0.4c3.4-1.5,6.7-1.6,9.4,1.4c3.2,3.6,3.4,7.8,1.6,12C873.8,197.8,868.1,201.8,862.7,206.8"/>
			</g>
		</g>
	</g>
</g>
<g id="Arrow_28">
	<rect x="831.2" y="219.9" class="st21" width="45.7" height="31.8"/>
</g>
</svg>
