<?xml version="1.0" encoding="utf-8"?>
<!-- Generator: Adobe Illustrator 23.0.1, SVG Export Plug-In . SVG Version: 6.00 Build 0)  -->
<svg version="1.1" id="Capa_1" xmlns="http://www.w3.org/2000/svg" xmlns:xlink="http://www.w3.org/1999/xlink" x="0px" y="0px"
	 viewBox="0 0 627.7 511.4" style="enable-background:new 0 0 627.7 511.4;" xml:space="preserve">
<style type="text/css">
	.st0{fill:#296EB7;}
	.st1{fill:#EA4647;}
	.st2{fill:#FFFFFF;}
	.st3{fill:none;stroke:#FFFFFF;stroke-width:10.5013;stroke-miterlimit:10;}
	.st4{fill:none;stroke:#1D1D1B;stroke-width:2.1003;stroke-miterlimit:10;}
	.st5{fill:#333333;}
</style>
<g>
	<path class="st0" d="M542.4,233.7c0-121.2-113-219.5-252.7-219.5S37,112.6,37,233.7c0,66.8,34.4,126.9,88.8,167v37.4
		c0,20.6,12.6,37.2,28.4,37.2h33.6c6.1,0,11.8-2.5,16.4-6.9c2.9,16.4,14.1,28.8,27.5,28.8h33.6c15.5,0,28.4-16.6,28.4-37.2v-6.7
		c11.8-0.2,23.5-1.1,34.9-2.5c5,12,13.9,19.7,23.7,19.7h13.2c4.2,15.5,14.3,26.7,26,26.7h33.6c15.5,0,28.4-19.5,28.4-43.5v-52.5
		C507.7,360.8,542.4,300.7,542.4,233.7z"/>
	<g>
		<g>
			<path class="st1" d="M538,188.2c9-6.9,20.4-10.7,31.5-6.5c5.9,2.1,10.9,6.9,12.8,13c2.5,7.8-3.6,17.2-12.2,11.6
				c-11.3-7.6-3.8-22.9,4.2-29.8c8.6-7.6,19.7-10.3,30.9-9.2c6.7,0.6,6.7-9.9,0-10.5c-19.5-1.7-41.2,8-48.9,26.9
				c-6.1,14.9,1.7,36.8,20.6,34.9c19.1-1.9,20-24.2,10.1-36.5c-13.7-17-38.4-14.9-54.4-2.7C527.5,183.1,532.7,192.4,538,188.2
				L538,188.2z"/>
		</g>
	</g>
	<polygon class="st2" points="33.7,87.8 57.6,157.5 106.6,98.9 	"/>
	<ellipse class="st0" cx="289.7" cy="233.7" rx="252.7" ry="219.5"/>
	<g>
		<path class="st2" d="M125.9,438.1c0,20.6,12.6,37.2,28.4,37.2h33.6c14.3,0,25.8-13.9,27.9-31.7c-33.4-8.8-63.8-23.7-89.9-42.8
			L125.9,438.1L125.9,438.1z"/>
	</g>
	<g>
		<path class="st2" d="M352.1,470.4h33.6c15.5,0,28.4-19.5,28.4-43.5v-2.1c-26,12.8-54.8,21.6-85.5,25.8
			C333.4,462.5,342.2,470.4,352.1,470.4z"/>
	</g>
	<ellipse class="st2" cx="88.5" cy="255.2" rx="71" ry="64.5"/>
	<path class="st3" d="M80.7,333.3c13.2,10.1,33.2,9.5,46-1.1"/>
	<circle class="st1" cx="44" cy="255.2" r="12"/>
	<circle class="st1" cx="103.6" cy="255.2" r="12"/>
	<polygon class="st2" points="285.1,112.8 212,120.3 257.8,181 	"/>
	<path class="st4" d="M197.3,62.6"/>
	<g>
		<path class="st0" d="M363,453.6c0,23.9,12.6,43.5,28.4,43.5H425c15.5,0,28.4-19.5,28.4-43.5v-52.5c-26,19.3-56.7,34-90.1,42.8v9.7
			H363z"/>
	</g>
	<g>
		<path class="st0" d="M203.4,440v19.7c0,20.6,12.6,37.2,28.4,37.2h33.6c15.5,0,28.4-16.6,28.4-37.2v-6.5c-1.3,0-2.5,0-4,0
			C259.5,453.2,230.3,448.6,203.4,440z"/>
	</g>
	<circle class="st5" cx="66" cy="174.3" r="16.4"/>
	<circle class="st2" cx="59.9" cy="174.1" r="6.1"/>
	<ellipse transform="matrix(0.9239 -0.3827 0.3827 0.9239 -57.541 79.4875)" class="st5" cx="171" cy="184.4" rx="16.4" ry="16.4"/>
	<circle class="st2" cx="164.9" cy="184.2" r="6.1"/>
	<g>
		<path class="st1" d="M208,55.6c-3.6-0.2-6.7-2.3-8-5.9c-1.7-4.6,0.6-9.7,5.3-11.3c3.4-1.3,81.3-29.4,168.2-2.1
			c4.6,1.5,7.4,6.5,5.9,11.1c-1.5,4.6-6.5,7.4-11.1,5.9c-81.1-25.4-156.1,1.5-156.7,1.9C210.3,55.4,209,55.6,208,55.6z"/>
	</g>
	<path class="st1" d="M201.5,52.1c0.8-1.1,2.1-1.9,3.6-2.5c3.4-1.3,80.9-30.5,168.2-4.4c2.1,0.6,3.2,3.2,4.8,4.2
		c4-4.8,1.7-13.9-4.6-15.5c-87.4-26-164.9,3.2-168.2,4.4c-4.6,1.7-6.9,6.9-5,11.6C200.4,50.6,201.1,51.4,201.5,52.1z"/>
</g>
</svg>
