<?xml version="1.0" encoding="utf-8"?>
<!-- Generator: Adobe Illustrator 23.0.1, SVG Export Plug-In . SVG Version: 6.00 Build 0)  -->
<svg version="1.1" id="GraphicMama_1_" xmlns="http://www.w3.org/2000/svg" xmlns:xlink="http://www.w3.org/1999/xlink" x="0px"
	 y="0px" viewBox="0 0 1034.2 1005.3" style="enable-background:new 0 0 1034.2 1005.3;" xml:space="preserve">
<style type="text/css">
	.st0{fill:#EA4647;}
	.st1{fill:#9C2C22;}
	.st2{fill:#AD3529;}
	.st3{fill:#134457;}
	.st4{fill:#C4443B;}
	.st5{fill:#B5A688;}
	.st6{fill:#B3342B;}
	.st7{fill:#1C3245;}
	.st8{fill:#CCBB99;}
	.st9{fill:#DECBA5;}
	.st10{fill:#B9BB99;}
	.st11{fill:#82251C;}
	.st12{fill:#FFFFFF;}
	.st13{fill:#D1D3D4;}
	.st14{fill:#AD9F82;}
	.st15{fill:#E6E7E8;}
	.st16{fill:#B53A31;}
	.st17{fill:#333333;}
	.st18{fill:none;stroke:#231F20;stroke-width:1.9113;stroke-linecap:round;stroke-linejoin:round;stroke-miterlimit:10;}
	.st19{fill:none;stroke:#231F20;stroke-width:1.9113;stroke-linecap:round;stroke-linejoin:round;}
	.st20{fill:none;stroke:#000000;stroke-width:1.9113;stroke-linecap:round;stroke-linejoin:round;}
	.st21{fill:#EA4647;stroke:#231F20;stroke-width:1.9113;stroke-miterlimit:10;}
	.st22{fill:#18566E;}
	.st23{fill:none;stroke:#231F20;stroke-width:1.9113;stroke-linejoin:round;stroke-miterlimit:10;}
	.st24{fill:#FFE4CC;}
	.st25{fill:#AB562E;}
	.st26{fill:#F1F2F2;}
	.st27{fill:#296EB7;}
	.st28{fill:#FFCE85;}
	.st29{fill:#F5D2B3;}
	.st30{fill:#944A28;}
	.st31{fill:#E8875A;}
	.st32{fill:#C96C41;}
	.st33{fill:#FFEFE0;}
	.st34{fill:#F7BC63;}
	.st35{fill:#EDCBAD;}
	.st36{fill:#FFD9A1;}
	.st37{fill:#382311;}
	.st38{fill:#D9BA9E;}
	.st39{fill:none;stroke:#000000;stroke-width:1.9113;stroke-linecap:round;stroke-linejoin:round;stroke-miterlimit:10;}
	.st40{fill:none;stroke:#000000;stroke-width:0.4778;stroke-linecap:round;stroke-linejoin:round;}
	.st41{fill:none;stroke:#000000;stroke-width:1.9113;stroke-miterlimit:10;}
	.st42{fill:none;stroke:#000000;stroke-width:1.9113;stroke-linejoin:round;stroke-miterlimit:10;}
	.st43{stroke:#000000;stroke-width:1.9113;stroke-linecap:round;stroke-linejoin:round;stroke-miterlimit:10;}
	.st44{fill:none;stroke:#000000;stroke-width:0.9556;stroke-linecap:round;stroke-linejoin:round;}
	.st45{fill:#F79567;}
	.st46{fill:none;stroke:#000000;stroke-width:4;stroke-linecap:round;stroke-linejoin:round;}
</style>
<g>
	<g id="_x34_">
		<path class="st0" d="M125.6,234.5c105.1-120.6,299.3-217.3,511.2-195c227.5,23.9,368.4,291.7,351.5,511.1
			c-17.1,222.1-119,382.5-269.7,402.1l-549.6-57.5C51.8,778.1-19.5,401.1,125.6,234.5z"/>
		<path class="st1" d="M542.6,235c0.2,0,0,13.5,0,13.5h-4.3v-1V235H542.6z"/>
		<path class="st2" d="M506.7,336.5v7.8c-0.2,0-0.5,0-0.7,0c-2.9,0-5.9-0.4-8.8-1.3v-6.3C500.3,337.1,503.6,337.1,506.7,336.5z"/>
		<rect x="388.2" y="791.2" class="st1" width="237.1" height="31.5"/>
		<path class="st3" d="M616.8,319.4h-10.2c0.7-3.3,1.2-7,1.2-11.1h-8h-55v-0.2l41.3,0h29.5v0.2C615.5,312.3,616,316,616.8,319.4z"/>
		<path class="st4" d="M516.2,319.4h10.7c-2.2,6.5-6.1,10.9-10.7,13.7V319.4z"/>
		<polygon class="st5" points="414.2,138 414.2,172 358.9,172 358.9,138 358.9,137.6 414.2,137.6 		"/>
		<path class="st4" d="M695.7,308.3l-1,25.3c-5.1-5.9-8.5-14.2-8.5-25.3H695.7z"/>
		<polygon class="st6" points="578.9,298.2 586.1,308.1 544.7,308.1 473.9,308.1 403.1,308.1 332.3,308.1 316.5,308.1 316.1,298.2 
					"/>
		<polygon class="st4" points="299.1,266.6 555.8,266.6 556.5,267.6 314.9,267.6 315.3,277.3 287,277.3 		"/>
		<path class="st2" d="M387.3,308.3h8c0,4.1-0.4,7.8-1.2,11.1h-8.8c1-3,1.7-6.4,1.9-10.4V308.3z"/>
		<rect x="371" y="858.1" class="st1" width="271.5" height="37"/>
		<path class="st7" d="M806.6,895.1h18.8c0,0-11.9,50.7-16.4,59l-7.8-20.4L806.6,895.1z"/>
		<polygon class="st4" points="740.5,290.9 748.7,298.2 696.1,298.2 696.5,287.6 736.8,287.6 		"/>
		<rect x="371" y="852.4" class="st1" width="271.5" height="5.7"/>
		<path class="st8" d="M859.1,723.8c3.3,0,5.8,2.9,5.3,6.1l-20.7,165.3l-0.4,0h-18l14.1-171v-0.3H859.1z"/>
		<polygon class="st5" points="321.8,448.2 323.3,488.3 323.3,488.3 297.5,488.3 297.5,485.4 297.5,448.2 		"/>
		<path class="st2" d="M385.4,319.4h8.8c-2.2,9.8-7.4,16.5-13.7,20.5v-11.6C382.5,325.9,384.2,322.9,385.4,319.4z"/>
		<polygon class="st9" points="732.3,605.8 732.3,645 683.5,645 683,645 684.4,605.8 684.5,605.8 708.4,605.8 		"/>
		<polygon class="st10" points="753.8,605.9 752,645 732.3,645 732.3,605.8 753.3,605.8 		"/>
		<polygon class="st1" points="480.9,247.5 480.9,248.5 425.5,248.5 425.5,247.5 425.5,235 480.9,235 		"/>
		<polygon class="st1" points="425.5,247.5 425.5,248.5 361.5,248.5 361.5,247.5 361.5,235 425.5,235 		"/>
		<polygon class="st1" points="538.3,247.5 538.3,248.5 480.9,248.5 480.9,247.5 480.9,235 538.3,235 		"/>
		<polygon class="st11" points="661.6,247.5 661.6,248.5 599.4,248.5 599.4,247.5 599.4,235 661.6,235 		"/>
		<polygon class="st8" points="764.4,368.9 762.6,408 740.9,408 719.8,408 719.8,407.1 719.8,369.8 719.8,368.8 750.4,368.8 
			763.8,368.8 		"/>
		<polygon class="st8" points="798.5,108 796.2,137.6 774.7,137.6 722.8,137.6 663.7,137.6 597,137.6 530.4,137.6 476.1,137.6 
			414.2,137.6 358.9,137.6 298,137.6 237.5,137.6 216,137.6 213.7,108 		"/>
		<polygon class="st8" points="676.2,822.8 675.1,852.4 674.9,852.4 642.6,852.4 625.4,822.8 675.9,822.8 		"/>
		<polygon class="st12" points="497.2,428.6 497.2,437.9 380.4,483.3 380.4,474 		"/>
		<path class="st6" d="M316.1,298.2l0.4,9.8h-55.7c-2.8,0-4.2-3.4-2.2-5.4l5-4.5H316.1z"/>
		<polygon class="st0" points="594.8,750.1 625.4,785.5 388.2,785.5 418.8,750.1 506.7,750.1 		"/>
		<path class="st9" d="M361.5,213.1V235h-31c-6.1,0-11,4.9-11,11v2.5l-3.2,2.8l-23.7,0v-1.9v-36.3v-1.9h68.8V213.1z"/>
		<polygon class="st8" points="329.3,645 330.7,684.2 296.5,684.2 296.5,645 		"/>
		<path class="st13" d="M497.2,343.1v31.8l-116.7,44.9v-79.9c6.4-4,11.5-10.6,13.7-20.5h10.2c1,4,2.5,7.5,4.5,10.6
			c6.3,9.9,16.8,14.4,26.4,14.4c12.6,0,25.8-7.5,29.8-25h10.2c1,4,2.5,7.5,4.4,10.5C484,336.8,490.4,341.1,497.2,343.1z"/>
		<polygon class="st4" points="272.2,290.5 275.4,287.6 315.7,287.6 316.1,298.2 263.5,298.2 		"/>
		<polygon class="st9" points="296.5,645 296.5,684.2 263.1,684.2 261.9,684.3 260.2,645 260.2,645 		"/>
		<polygon class="st12" points="497.2,448 380.4,493.4 380.4,490.5 497.2,445 		"/>
		<polygon class="st5" points="800.9,98.4 798.5,107.9 798.5,108 213.7,108 213.7,107.9 211.3,98.4 		"/>
		<polygon class="st8" points="752,645 750.3,684.2 708.4,684.2 681.6,684.2 681.5,684.2 683,645 683.5,645 732.3,645 		"/>
		<polygon class="st5" points="722.8,138 722.8,172 663.7,172 663.7,138 663.7,137.6 722.8,137.6 		"/>
		<path class="st10" d="M750.4,367.9v1h-30.6H694l-0.6,0l1.3-35.2c6.3,7.3,15.3,10.8,23.7,10.8c9.9,0,20.1-4.6,26-15l1.2,0.2h4.8v1
			V367.9z"/>
		<polygon class="st14" points="388.2,785.5 388.2,791.2 335.7,791.2 334.8,791.3 334.6,785.5 335.2,785.5 		"/>
		<polygon class="st5" points="272.6,490.2 272.6,527.5 255.4,527.5 254.9,527.5 253.2,488.3 253.5,488.3 272.6,488.3 		"/>
		<polygon class="st15" points="497.2,448 497.2,542.7 380.4,542.7 380.4,493.4 		"/>
		<path class="st4" d="M642.4,308.3h36.1c0,25.4-15.9,36.1-30.9,36.1c-1.7,0-3.5-0.1-5.2-0.4v-33.4V308.3z"/>
		<polygon class="st4" points="316.3,251.3 319.5,248.5 361.5,248.5 425.5,248.5 480.9,248.5 538.3,248.5 542.6,248.5 549,257.3 
			309.5,257.3 		"/>
		<path class="st8" d="M302.2,723.8l11.5,169v2.3H169.1l-0.6,0.1l-20.7-165.3c-0.4-3.2,2.1-6.1,5.3-6.1h110.6H302.2z"/>
		<polygon class="st6" points="697.3,267.6 696.9,277.3 563.6,277.3 556.5,267.6 		"/>
		<polygon class="st8" points="388.2,822.8 371,852.4 337.6,852.4 337.1,852.4 336,822.8 337.6,822.8 		"/>
		<polygon class="st5" points="298,138 298,172 272.6,172 240.1,172 239,172 237.5,137.7 237.5,137.6 298,137.6 		"/>
		<path class="st6" d="M753.7,302.7c2,2,0.6,5.4-2.2,5.4h-55.7l0.4-9.8h52.6L753.7,302.7z"/>
		<polygon class="st8" points="674.9,858.1 675.1,852.4 676.2,822.8 677.4,791.3 677.6,785.5 680,723.8 680.6,723.8 708.4,723.8 
			715.5,723.8 728.6,895.1 673.5,895.1 		"/>
		<polygon class="st14" points="388.2,791.2 388.2,822.8 337.6,822.8 336,822.8 334.8,791.3 335.7,791.2 		"/>
		<path class="st13" d="M633,340.7v34.2l-116.7,44.9l0-77.1c8.9-3.1,16.7-10.6,19.6-23.3H546c1,4,2.5,7.5,4.4,10.5
			c6.3,9.9,16.8,14.5,26.4,14.5c12.6,0,25.8-7.5,29.8-25h10.2C619.4,329.9,625.6,336.9,633,340.7z"/>
		<polygon class="st4" points="571.1,287.6 578.9,298.2 316.1,298.2 315.7,287.6 		"/>
		<path class="st3" d="M475.2,319.4H465c0.7-3.3,1.2-7,1.2-11.1h-7.3h-55.7v-0.2h70.8v0.2C473.9,312.3,474.4,316,475.2,319.4z"/>
		<path class="st4" d="M506.7,310.6v26c-3.2,0.6-6.4,0.6-9.6,0.3v-17.4h-22c-0.8-3.3-1.3-7-1.3-11.1h32.8V310.6z"/>
		<path class="st5" d="M329.3,645l-1.5-39.2l-1.5-39.2l-1.5-39.2l-1.5-39.2l-1.5-40.1l-1.5-40.1l-1.5-39.2l-1.4-36.1
			c4.3-5.8,7.1-13.8,7.1-24.4h-8l0-0.2h15.8v0.2c0,8.9,2.2,16.1,5.7,21.6c6.3,9.9,16.8,14.5,26.4,14.5c2.2,0,4.4-0.2,6.6-0.7
			l0,406.5h-0.1l-35.7,35.4l-0.6,0l-2.4-61.8l-1.5-39.6L329.3,645z"/>
		<rect x="497.2" y="542.7" class="st3" width="3" height="10.5"/>
		<polygon class="st10" points="297.5,485.4 297.5,488.3 272.6,488.3 253.5,488.3 253.2,488.3 251.4,448.2 251.6,448.2 272.6,448.2 
			297.5,448.2 		"/>
		<polygon class="st5" points="337.3,858.1 338.7,895.1 313.7,895.1 313.7,892.8 302.2,723.8 331.6,723.8 332.2,723.8 334.6,785.5 
			334.8,791.3 336,822.8 337.1,852.4 		"/>
		<path class="st1" d="M692.7,246v2.5l-31.2,0v-1V235h20.2C687.8,235,692.7,239.9,692.7,246z"/>
		<polygon class="st9" points="769.6,251.3 767.9,290.5 767.6,290.5 753.3,290.5 753.3,288.6 753.3,252.3 753.3,251.3 		"/>
		<polygon class="st9" points="719.8,407.1 719.8,408 692,408 693.5,368.8 694,368.8 719.8,368.8 719.8,369.8 		"/>
		<polygon class="st8" points="663.7,172 722.8,172 736.1,172 736.1,174.2 736.1,210.4 736.1,211.2 718.9,211.2 661.6,211.2 
			599.4,211.2 538.3,211.2 480.9,211.2 425.5,211.2 361.5,211.2 292.7,211.2 272.6,211.2 272.6,210.2 272.6,173.9 272.6,172 
			298,172 358.9,172 414.2,172 476.1,172 530.4,172 597,172 		"/>
		<path class="st11" d="M599.4,247.5v1l-56.9,0c0,0,0.2-13.5,0-13.5h56.9V247.5z"/>
		<path class="st2" d="M599.8,308.3h8c0,4.1-0.4,7.8-1.2,11.1h-8.8c1-3,1.7-6.4,1.9-10.4V308.3z"/>
		<polygon class="st9" points="755.5,566.7 753.8,605.9 753.3,605.8 732.3,605.8 708.4,605.8 708.4,566.7 		"/>
		<path class="st4" d="M316.6,311.5C316.6,311.5,316.6,311.5,316.6,311.5c-3.7,32.6-39.3,28.2-48.8,18.2H267
			c-3.4-5.5-5.6-12.6-5.6-21.4l55,0L316.6,311.5z"/>
		<polygon class="st5" points="708.4,449.1 708.4,488.3 689.3,488.3 688.9,488.3 690.4,448.2 708.4,448.2 		"/>
		<polygon class="st8" points="318.8,368.8 320.3,408 295.1,408 295.1,406.6 295.1,369.5 295.1,368.8 318.5,368.8 		"/>
		<path class="st2" d="M458.8,308.3h7.3c0,4.1-0.4,7.8-1.2,11.1h-8.1c1-3,1.7-6.4,1.9-10.4V308.3z"/>
		<polygon class="st15" points="497.2,437.9 497.2,445 380.4,490.5 380.4,483.3 		"/>
		<polygon class="st8" points="371,852.4 371,858.1 337.6,858.1 337.3,858.1 337.1,852.4 337.6,852.4 		"/>
		<path class="st3" d="M404.4,319.4h-10.2c0.7-3.3,1.2-7,1.2-11.1h-8H371h-38.8v-0.2l70.8,0v0.2C403.1,312.3,403.6,316,404.4,319.4z
			"/>
		<path class="st8" d="M615.5,308.1h80.2l0,0.2h-9.4c0,11.1,3.4,19.5,8.5,25.3l-1.3,35.2L692,408l-1.5,40.1l-1.5,40.1l-1.5,39.2
			l-1.5,39.2l-1.5,39.2L683,645l-1.5,39.2l-1.5,39.6l-2.4,61.8l-0.6,0l-34.5-35.4h-0.1l0-406.2c1.7,0.3,3.5,0.4,5.2,0.4
			c15,0,30.9-10.7,30.9-36.1h-36.1h-26.9V308.1z"/>
		<path class="st2" d="M338.4,329.7c5.7,6,20.7,10,32.7,5.2v8.8c-2.2,0.5-4.4,0.7-6.6,0.7c-9.6,0-20.1-4.6-26.4-14.5L338.4,329.7z"
			/>
		<polygon class="st15" points="497.2,374.9 497.2,428.6 380.4,474 380.4,419.7 		"/>
		<polygon class="st9" points="295.1,406.6 295.1,408 272.6,408 250.6,408 249.6,408.1 247.8,368.9 249.7,368.8 265.6,368.8 
			295.1,368.8 295.1,369.5 		"/>
		<polygon class="st8" points="358.9,138 358.9,172 298,172 298,138 298,137.6 358.9,137.6 		"/>
		<polygon class="st14" points="674.9,858.1 673.5,895.1 642.6,895.1 642.6,858.1 		"/>
		<path class="st4" d="M371,310.6l0,24.3c-12,4.8-27,0.8-32.7-5.2l-0.4,0.2c-3.5-5.5-5.7-12.7-5.7-21.6H371V310.6z"/>
		<polygon class="st16" points="736.8,287.6 696.5,287.6 696.9,277.3 725.2,277.3 		"/>
		<rect x="380.4" y="553.2" class="st15" width="116.7" height="18.2"/>
		<rect x="380.4" y="542.7" class="st3" width="116.7" height="10.5"/>
		<path class="st1" d="M361.5,247.5v1h-42V246c0-6.1,4.9-11,11-11h31V247.5z"/>
		<path class="st4" d="M458.8,308.3v0.7c-0.2,3.9-0.9,7.4-1.9,10.4l-52.5,0c-0.8-3.3-1.3-7-1.3-11.1H458.8z"/>
		<path class="st2" d="M456.9,319.4h8.1c-3.9,17.4-17.2,25-29.8,25c-9.6,0-20.1-4.6-26.4-14.4l1-0.3
			C418.4,338.8,448.7,343.3,456.9,319.4z"/>
		<polygon class="st4" points="556.5,267.6 563.6,277.3 315.3,277.3 314.9,267.6 		"/>
		<path class="st2" d="M497.2,336.8v6.3c-6.8-2-13.2-6.3-17.6-13.2l0.3-0.2C483.2,333.2,489.8,336.1,497.2,336.8z"/>
		<path class="st3" d="M633,603.1v-15.3l-116.7,0V624v107.6H633V603.1z M642.4,343.9l0,406.2h-47.6h-88.1l0-405.8
			c3.2-0.1,6.4-0.6,9.5-1.7l0,77.1V474v9.3v7.2v2.9v49.4h-3v10.5h3v18.2H633v-18.2h3v-10.5h-3V448V445v-7.2v-9.3v-53.7v-34.2
			C636,342.3,639.2,343.4,642.4,343.9z"/>
		<polygon class="st10" points="774.7,137.6 774.7,137.7 773.2,172 736.1,172 722.8,172 722.8,138 722.8,137.6 		"/>
		<polygon class="st9" points="766.1,329.7 764.4,368.9 763.8,368.8 750.4,368.8 750.4,367.9 750.4,330.6 750.4,329.7 		"/>
		<rect x="516.2" y="542.7" class="st3" width="116.7" height="10.5"/>
		<polygon class="st8" points="304.1,527.5 304.1,566.7 279.3,566.7 256.7,566.7 254.9,527.5 255.4,527.5 272.6,527.5 		"/>
		<rect x="516.2" y="553.2" class="st15" width="116.7" height="18.2"/>
		<polygon class="st9" points="279.3,566.7 279.3,605.8 259.2,605.8 258.4,605.9 256.7,566.7 		"/>
		<polygon class="st9" points="759,488.3 757.3,527.5 757.1,527.5 732.3,527.5 732.3,488.3 		"/>
		<polygon class="st9" points="324.8,527.5 326.3,566.7 304.1,566.7 304.1,527.5 		"/>
		<path class="st10" d="M718.9,249.4v1.9h-23l-3.2-2.8V246c0-6.1-4.9-11-11-11h-20.2v-21.9v-1.9h57.3v1.9V249.4z"/>
		<path class="st2" d="M576.8,344.4c-9.6,0-20.1-4.6-26.4-14.5l0.4-0.2c8.6,9.1,38.9,13.6,47-10.3h8.8
			C602.7,336.8,589.4,344.4,576.8,344.4z"/>
		<polygon class="st15" points="633,374.9 633,428.6 516.2,474 516.2,419.7 		"/>
		<polygon class="st6" points="725.2,277.3 696.9,277.3 697.3,267.6 556.5,267.6 555.8,266.6 713.1,266.6 		"/>
		<polygon class="st9" points="272.6,210.2 272.6,211.2 243,211.2 240.8,211.3 239,172 240.1,172 272.6,172 272.6,173.9 		"/>
		<polygon class="st14" points="371,858.1 371,895.1 339.6,895.1 338.7,895.1 337.3,858.1 337.6,858.1 		"/>
		<polygon class="st8" points="323.3,488.3 324.8,527.5 304.1,527.5 272.6,527.5 272.6,490.2 272.6,488.3 297.5,488.3 323.3,488.3 
					"/>
		<path class="st3" d="M546,319.4h-10.2c0.7-3.3,1.2-7,1.2-11.1l-8.1,0h-22.1h-32.8v-0.2h70.8v0.2C544.7,312.3,545.2,316,546,319.4z
			"/>
		<polygon class="st9" points="265.6,367.6 265.6,368.8 249.7,368.8 247.8,368.9 246.1,329.7 265.6,329.7 265.6,330.4 		"/>
		<polygon class="st10" points="708.4,566.7 708.4,605.8 684.5,605.8 684.4,605.8 685.9,566.7 		"/>
		<polygon class="st15" points="633,437.9 633,445 516.2,490.5 516.2,483.3 		"/>
		<polygon class="st10" points="708.4,723.4 708.4,723.8 680.6,723.8 680,723.8 681.5,684.2 681.6,684.2 708.4,684.2 		"/>
		<rect x="513.2" y="542.7" class="st3" width="3" height="10.5"/>
		<rect x="377.4" y="542.7" class="st3" width="3" height="10.5"/>
		<polygon class="st14" points="677.6,785.5 677.4,791.3 676.8,791.2 625.4,791.2 625.4,785.5 677,785.5 		"/>
		<path class="st8" d="M260.7,308.1h55.7l0,0.2l-55,0c0,8.8,2.1,15.9,5.6,21.4h-1.5h-19.5l-1.7-39.2l0.6,0h18.2h9.2l-8.7,7.7l-5,4.5
			C256.5,304.7,257.9,308.1,260.7,308.1z"/>
		<polygon class="st15" points="497.2,603 497.2,731.5 380.4,731.5 380.4,624 		"/>
		<polygon class="st1" points="696.9,277.3 696.5,287.6 571.1,287.6 563.6,277.3 		"/>
		<polygon class="st8" points="272.6,447.2 272.6,448.2 251.6,448.2 251.4,448.2 249.6,408.1 250.6,408 272.6,408 		"/>
		<polygon class="st8" points="418.8,750.1 388.2,785.5 335.2,785.5 370.9,750.1 371,750.1 		"/>
		<path class="st4" d="M642.4,310.6v33.4c-3.2-0.5-6.4-1.6-9.5-3.2v-21.3h-16.2c-0.8-3.3-1.3-7-1.3-11.1h26.9V310.6z"/>
		<polygon class="st5" points="330.7,684.2 332.2,723.8 331.6,723.8 302.2,723.8 263.7,723.8 261.9,684.3 263.1,684.2 296.5,684.2 
					"/>
		<polygon class="st6" points="315.3,277.3 315.7,287.6 275.4,287.6 287,277.3 		"/>
		<path class="st2" d="M267.8,329.7c9.4,10,45,14.5,48.8-18.1l0.8,21.2c-6,8-15.1,11.6-23.8,11.6c-9.7,0-20.3-4.7-26.5-14.7H267.8z"
			/>
		<path class="st5" d="M760.7,723.8v0.3c-1.4,26.3-11.6,170.2-11.6,170.2l-0.4,0.8h-20.1l-13.1-171.3h33H760.7z"/>
		<polygon class="st8" points="599.4,213.1 599.4,235 542.6,235 538.3,235 538.3,213.1 538.3,211.2 599.4,211.2 		"/>
		<polygon class="st8" points="732.3,488.3 732.3,527.5 688.3,527.5 687.4,527.4 688.9,488.3 689.3,488.3 708.4,488.3 		"/>
		<polygon class="st8" points="642.5,750.1 677,785.5 625.4,785.5 594.8,750.1 642.4,750.1 		"/>
		<rect x="633" y="542.7" class="st3" width="3" height="10.5"/>
		<polygon class="st9" points="740.9,409 740.9,448.2 708.4,448.2 690.4,448.2 692,408 719.8,408 740.9,408 		"/>
		<path class="st2" d="M380.4,328.3v11.6c-2.9,1.8-6.1,3.1-9.4,3.8v-8.8C374.5,333.5,377.8,331.3,380.4,328.3z"/>
		<path class="st2" d="M516.2,333.1v9.6c-3.1,1.1-6.3,1.6-9.5,1.7v-7.8C510.1,335.9,513.3,334.8,516.2,333.1z"/>
		<polygon class="st8" points="476.1,138 476.1,172 414.2,172 414.2,138 414.2,137.6 476.1,137.6 		"/>
		<polygon class="st15" points="633,448 633,542.7 516.2,542.7 516.2,493.4 		"/>
		<path class="st2" d="M316.6,311.5l-0.1-3.2h8c0,10.6-2.8,18.7-7.1,24.4L316.6,311.5C316.6,311.5,316.6,311.5,316.6,311.5z"/>
		<polygon class="st9" points="263.1,288.6 263.1,290.5 244.9,290.5 244.3,290.5 242.6,251.3 243,251.3 263.1,251.3 263.1,252.3 		
			"/>
		<polygon class="st1" points="696.1,298.2 695.8,308.1 615.5,308.1 586.1,308.1 578.9,298.2 		"/>
		<polygon class="st5" points="839.5,723.8 839.5,724.1 825.4,895.1 806.6,895.1 806.7,894.6 784.5,723.8 		"/>
		<path class="st4" d="M404.4,319.4l52.5,0c-8.2,23.9-38.5,19.4-47,10.3l-1,0.3C406.9,326.9,405.4,323.4,404.4,319.4z"/>
		<polygon class="st5" points="287,277.3 275.4,287.6 272.2,290.5 263.1,290.5 263.1,288.6 263.1,252.3 263.1,251.3 292.7,251.3 
			316.3,251.3 309.5,257.3 299.1,266.6 		"/>
		<polygon class="st13" points="633,587.8 633,603.1 516.9,624 516.2,624 516.2,587.8 		"/>
		<path class="st5" d="M748.7,298.2l-8.2-7.3l0.4-0.4h12.4h14.3l0.3,0l-1.7,39.2h-15.7h-4.8l-1.2-0.2c3.1-5.4,5-12.4,5-21.1h-53.6
			l0-0.2h55.7c2.8,0,4.2-3.4,2.2-5.4L748.7,298.2z"/>
		<path class="st17" d="M843.4,895.1l0.4,0l-0.2,1.3l65.6,66.7c2.4,1.9,1.1,5.8-2,5.8L106,969c-3.1,0-4.4-3.9-2-5.8l64.7-66.7
			l-0.2-1.3l0.6-0.1h144.6h25h0.8H371l271.5,0h30.9h55.1l-9.2,35.7l4.6,7.6l24.6-43.3h57.9l-5.4,38.6l7.8,20.4
			c4.5-8.4,16.4-59,16.4-59H843.4z"/>
		<path class="st4" d="M380.4,319.4h5c-1.2,3.6-2.9,6.5-5,8.9V319.4z"/>
		<polygon class="st1" points="702.7,257.3 713.1,266.6 555.8,266.6 549,257.3 		"/>
		<polygon class="st12" points="633,448 516.2,493.4 516.2,490.5 633,445 		"/>
		<polygon class="st0" points="625.4,822.8 642.6,852.4 371,852.4 388.2,822.8 		"/>
		<polygon class="st6" points="549,257.3 555.8,266.6 299.1,266.6 309.5,257.3 		"/>
		<polygon class="st10" points="538.3,213.1 538.3,235 480.9,235 480.9,213.1 480.9,211.2 538.3,211.2 		"/>
		<polygon class="st5" points="661.6,213.1 661.6,235 599.4,235 599.4,213.1 599.4,211.2 661.6,211.2 		"/>
		<polygon class="st5" points="425.5,213.1 425.5,235 361.5,235 361.5,213.1 361.5,211.2 425.5,211.2 		"/>
		<polygon class="st9" points="480.9,213.1 480.9,235 425.5,235 425.5,213.1 425.5,211.2 480.9,211.2 		"/>
		<rect x="388.2" y="785.5" class="st1" width="237.1" height="5.7"/>
		<path class="st4" d="M546,319.4h51.8c-8.2,23.9-38.5,19.4-47,10.3l-0.4,0.2C548.5,326.9,547,323.4,546,319.4z"/>
		<path class="st4" d="M599.8,308.3v0.7c-0.2,3.9-0.9,7.4-1.9,10.4H546c-0.8-3.3-1.3-7-1.3-11.1H599.8z"/>
		<polygon class="st7" points="748.7,895.1 724,938.4 719.4,930.8 728.6,895.1 		"/>
		<path class="st4" d="M528.8,308.3v0.7c-0.2,3.9-0.9,7.4-1.9,10.4h-10.7v13.7c-2.9,1.8-6.2,2.9-9.5,3.5v-26v-2.3H528.8z"/>
		<path class="st4" d="M387.3,308.3v0.7c-0.2,3.9-0.9,7.4-1.9,10.4h-5v8.9c-2.7,3.1-5.9,5.2-9.4,6.6l0-24.3v-2.3H387.3z"/>
		<polygon class="st10" points="292.7,249.4 292.7,251.3 263.1,251.3 243,251.3 242.6,251.3 240.8,211.3 243,211.2 272.6,211.2 
			292.7,211.2 292.7,213.1 		"/>
		<path class="st4" d="M695.7,308.3h53.6c0,8.7-1.9,15.7-5,21.1c-5.9,10.3-16.1,15-26,15c-8.3,0-17.3-3.4-23.7-10.8L695.7,308.3z"/>
		<polygon class="st9" points="663.7,138 663.7,172 597,172 597,138 597,137.6 663.7,137.6 		"/>
		<polygon class="st12" points="633,428.6 633,437.9 516.2,483.3 516.2,474 		"/>
		<path class="st2" d="M526.9,319.4h8.9c-2.9,12.7-10.7,20.2-19.6,23.3v-9.6C520.8,330.3,524.7,325.9,526.9,319.4z"/>
		<path class="st4" d="M633,319.4v21.3c-7.3-3.9-13.6-10.9-16.2-21.3H633z"/>
		<polygon class="st9" points="321.8,448.2 297.5,448.2 272.6,448.2 272.6,447.2 272.6,408 295.1,408 320.3,408 		"/>
		<polygon class="st8" points="675.1,852.4 674.9,858.1 642.6,858.1 642.6,852.4 674.9,852.4 		"/>
		<polygon class="st15" points="633,603.1 633,731.5 516.2,731.5 516.2,624 516.9,624 		"/>
		<polygon class="st5" points="326.3,566.7 327.8,605.8 279.3,605.8 279.3,566.7 304.1,566.7 		"/>
		<polygon class="st9" points="773.2,172 771.4,211.2 736.1,211.2 736.1,210.4 736.1,174.2 736.1,172 		"/>
		<path class="st8" d="M784.5,723.8l22.2,170.8l-0.1,0.5h-57.9l0.4-0.8c0,0,10.2-143.9,11.6-170.2v-0.3H784.5z"/>
		<polygon class="st13" points="497.2,587.8 497.2,603 380.4,624 380.4,587.8 		"/>
		<polygon class="st6" points="695.9,251.3 702.7,257.3 549,257.3 542.6,248.5 599.4,248.5 661.6,248.5 692.7,248.5 		"/>
		<polygon class="st10" points="762.6,408 760.8,448.2 740.9,448.2 740.9,409 740.9,408 		"/>
		<polygon class="st8" points="760.8,448.2 759,488.3 732.3,488.3 708.4,488.3 708.4,449.1 708.4,448.2 740.9,448.2 		"/>
		<polygon class="st6" points="696.5,287.6 696.1,298.2 578.9,298.2 571.1,287.6 		"/>
		<polygon class="st9" points="530.4,138 530.4,172 476.1,172 476.1,138 476.1,137.6 530.4,137.6 		"/>
		<polygon class="st6" points="563.6,277.3 571.1,287.6 315.7,287.6 315.3,277.3 		"/>
		<polygon class="st9" points="771.4,211.2 769.6,251.3 753.3,251.3 718.9,251.3 718.9,249.4 718.9,213.1 718.9,211.2 736.1,211.2 
					"/>
		<path class="st2" d="M528.8,308.3l8.1,0c0,4.1-0.4,7.8-1.2,11.1h-8.9c1-3,1.7-6.4,1.9-10.4V308.3z"/>
		<polygon class="st5" points="757.3,527.5 755.5,566.7 708.4,566.7 685.9,566.7 687.4,527.4 688.3,527.5 732.3,527.5 757.1,527.5 
					"/>
		<polygon class="st5" points="715.5,723.8 708.4,723.8 708.4,723.4 708.4,684.2 750.3,684.2 748.5,723.8 		"/>
		<polygon class="st10" points="327.8,605.8 329.3,645 296.5,645 260.2,645 260.2,645 258.4,605.9 259.2,605.8 279.3,605.8 		"/>
		<polygon class="st9" points="713.1,266.6 702.7,257.3 695.9,251.3 718.9,251.3 753.3,251.3 753.3,252.3 753.3,288.6 753.3,290.5 
			740.9,290.5 740.5,290.9 736.8,287.6 725.2,277.3 		"/>
		<path class="st4" d="M497.2,319.4v17.4c-7.3-0.7-14-3.6-17.3-7.1l-0.3,0.2c-1.9-3-3.4-6.5-4.4-10.5H497.2z"/>
		<path class="st10" d="M265.6,330.4v-0.8h1.5c6.3,10,16.8,14.7,26.5,14.7c8.7,0,17.8-3.6,23.8-11.6l1.4,36.1l-0.3,0h-23.4l-29.5,0
			v-1.3V330.4z"/>
		<polygon class="st10" points="597,138 597,172 530.4,172 530.4,138 530.4,137.6 597,137.6 		"/>
		<polygon class="st14" points="677.4,791.3 676.2,822.8 675.9,822.8 625.4,822.8 625.4,791.2 676.8,791.2 		"/>
		<path class="st3" d="M506.7,344.4l0,405.8h-87.9l-47.8,0l0-406.5c3.3-0.7,6.5-1.9,9.4-3.8v79.9l0,54.2v9.3v7.2v2.9v49.4h-3v10.5h3
			v18.2h116.7v-18.2h3v-10.5h-3V448V445v-7.2v-9.3l0-53.7v-31.8c2.9,0.9,5.9,1.3,8.8,1.3C506.3,344.4,506.5,344.4,506.7,344.4z
			 M497.2,731.5l0-128.5v-15.2H380.4V624l0,107.6L497.2,731.5z"/>
		<polyline class="st18" points="263.7,723.8 261.9,684.3 260.2,645 258.4,605.9 256.7,566.7 254.9,527.5 253.2,488.3 251.4,448.2 
			249.6,408.1 247.8,368.9 246.1,329.7 244.3,290.5 242.6,251.3 240.8,211.3 239,172 237.5,137.7 		"/>
		<path class="st18" d="M331.6,723.8h-29.3h-38.6H153.1c-3.3,0-5.8,2.9-5.3,6.1l20.7,165.3l0.2,1.3l-64.7,66.7
			c-2.4,1.9-1.1,5.8,2,5.8l801.2,0c3.1,0,4.4-3.9,2-5.8l-65.6-66.7l0.2-1.3l20.7-165.3c0.4-3.2-2.1-6.1-5.3-6.1h-19.6h-55h-23.9
			h-12.1h-33h-7.1h-27.8"/>
		<polyline class="st18" points="693.5,368.8 692,408 690.4,448.2 688.9,488.3 687.4,527.4 685.9,566.7 684.4,605.8 683,645 
			681.5,684.2 680,723.8 677.6,785.5 677.4,791.3 676.2,822.8 675.1,852.4 674.9,858.1 673.5,895.1 728.6,895.1 748.7,895.1 
			806.6,895.1 825.4,895.1 843.4,895.1 		"/>
		<line class="st18" x1="695.8" y1="308.1" x2="695.7" y2="308.3"/>
		<line class="st18" x1="316.5" y1="308.3" x2="316.5" y2="308.1"/>
		<polyline class="st18" points="169.1,895.1 313.7,895.1 338.7,895.1 337.3,858.1 337.1,852.4 336,822.8 334.8,791.3 334.6,785.5 
			332.2,723.8 330.7,684.2 329.3,645 327.8,605.8 326.3,566.7 324.8,527.5 323.3,488.3 321.8,448.2 320.3,408 318.8,368.8 
			317.4,332.7 		"/>
		<polyline class="st18" points="748.5,723.8 750.3,684.2 752,645 753.8,605.9 755.5,566.7 757.3,527.5 759,488.3 760.8,448.2 
			762.6,408 764.4,368.9 766.1,329.7 767.9,290.5 769.6,251.3 771.4,211.2 773.2,172 774.7,137.7 		"/>
		<polygon class="st18" points="774.7,137.6 796.2,137.6 798.5,108 213.7,108 216,137.6 237.5,137.6 298,137.6 358.9,137.6 
			414.2,137.6 476.1,137.6 530.4,137.6 597,137.6 663.7,137.6 722.8,137.6 		"/>
		<polyline class="st18" points="674.9,852.4 642.6,852.4 371,852.4 337.6,852.4 		"/>
		<polyline class="st18" points="674.9,858.1 674.9,858.1 642.6,858.1 371,858.1 337.6,858.1 		"/>
		<polyline class="st18" points="337.6,822.8 388.2,822.8 625.4,822.8 675.9,822.8 		"/>
		<polyline class="st18" points="335.7,791.2 388.2,791.2 625.4,791.2 676.8,791.2 		"/>
		<polygon class="st18" points="677,785.5 625.4,785.5 388.2,785.5 335.2,785.5 370.9,750.1 371,750.1 418.8,750.1 506.7,750.1 
			594.8,750.1 642.4,750.1 642.5,750.1 		"/>
		<line class="st18" x1="371" y1="750.1" x2="371" y2="343.7"/>
		<line class="st18" x1="642.4" y1="750.1" x2="642.4" y2="343.9"/>
		<line class="st18" x1="506.7" y1="750.1" x2="506.7" y2="344.4"/>
		<polygon class="st18" points="497.2,603 497.2,731.5 380.4,731.5 380.4,624 380.4,587.8 497.2,587.8 		"/>
		<polyline class="st18" points="497.2,343.1 497.2,374.9 497.2,428.6 497.2,437.9 497.2,445 497.2,448 497.2,542.7 		"/>
		<line class="st18" x1="465" y1="319.4" x2="475.2" y2="319.4"/>
		<line class="st18" x1="394.2" y1="319.4" x2="404.4" y2="319.4"/>
		<polyline class="st18" points="380.4,542.7 380.4,493.4 380.4,490.5 380.4,483.3 380.4,474 380.4,419.7 380.4,339.9 		"/>
		<polyline class="st18" points="497.2,553.2 497.2,571.4 380.4,571.4 380.4,553.2 		"/>
		<polyline class="st18" points="633,340.7 633,374.9 633,428.6 633,437.9 633,445 633,448 633,542.7 		"/>
		<line class="st18" x1="606.6" y1="319.4" x2="616.8" y2="319.4"/>
		<line class="st18" x1="535.8" y1="319.4" x2="546" y2="319.4"/>
		<polyline class="st18" points="516.2,542.7 516.2,493.4 516.2,490.5 516.2,483.3 516.2,474 516.2,419.7 516.2,342.6 		"/>
		<polyline class="st18" points="633,553.2 633,571.4 516.2,571.4 516.2,553.2 		"/>
		<polyline class="st18" points="213.7,107.9 211.3,98.4 800.9,98.4 798.5,107.9 		"/>
		<polygon class="st18" points="633,542.7 636,542.7 636,553.2 633,553.2 516.2,553.2 513.2,553.2 513.2,542.7 516.2,542.7 		"/>
		<polygon class="st18" points="497.2,542.7 500.2,542.7 500.2,553.2 497.2,553.2 380.4,553.2 377.4,553.2 377.4,542.7 380.4,542.7 
					"/>
		<polyline class="st18" points="516.2,624 516.2,587.8 633,587.8 633,603.1 		"/>
		<path class="st18" d="M324.5,308.3c0,10.6-2.8,18.7-7.1,24.4c-6,8-15.1,11.6-23.8,11.6c-9.7,0-20.3-4.7-26.5-14.7
			c-3.4-5.5-5.6-12.6-5.6-21.4"/>
		<path class="st18" d="M395.3,308.3c0,4.1-0.4,7.8-1.2,11.1c-2.2,9.8-7.4,16.5-13.7,20.5c-2.9,1.8-6.1,3.1-9.4,3.8
			c-2.2,0.5-4.4,0.7-6.6,0.7c-9.6,0-20.1-4.6-26.4-14.5c-3.5-5.5-5.7-12.7-5.7-21.6"/>
		<path class="st18" d="M466.1,308.3c0,4.1-0.4,7.8-1.2,11.1c-3.9,17.4-17.2,25-29.8,25c-9.6,0-20.1-4.6-26.4-14.4
			c-1.9-3-3.5-6.5-4.5-10.6c-0.8-3.3-1.3-7-1.3-11.1"/>
		<path class="st18" d="M536.9,308.3c0,4.1-0.4,7.8-1.2,11.1c-2.9,12.7-10.7,20.2-19.6,23.3c-3.1,1.1-6.3,1.6-9.5,1.7
			c-0.2,0-0.5,0-0.7,0c-2.9,0-5.9-0.4-8.8-1.3c-6.8-2-13.2-6.3-17.6-13.2c-1.9-3-3.4-6.5-4.4-10.5c-0.8-3.3-1.3-7-1.3-11.1"/>
		<path class="st18" d="M607.8,308.3c0,4.1-0.4,7.8-1.2,11.1c-3.9,17.4-17.2,25-29.8,25c-9.6,0-20.1-4.6-26.4-14.5
			c-1.9-3-3.4-6.5-4.4-10.5c-0.8-3.3-1.3-7-1.3-11.1"/>
		<path class="st18" d="M678.6,308.3c0,25.4-15.9,36.1-30.9,36.1c-1.7,0-3.5-0.1-5.2-0.4c-3.2-0.5-6.4-1.6-9.5-3.2
			c-7.3-3.9-13.6-10.9-16.2-21.3c-0.8-3.3-1.3-7-1.3-11.1"/>
		<path class="st18" d="M749.4,308.3c0,8.7-1.9,15.7-5,21.1c-5.9,10.3-16.1,15-26,15c-8.3,0-17.3-3.4-23.7-10.8
			c-5.1-5.9-8.5-14.2-8.5-25.3"/>
		<path class="st18" d="M692.7,248.5l3.2,2.8l6.8,6l10.4,9.3l12.1,10.7l11.6,10.3l3.7,3.3l8.2,7.3l5,4.5c2,2,0.6,5.4-2.2,5.4h-55.7
			h-80.2h-29.5l-41.3,0h-70.8h-70.8l-70.8,0h-15.8h-55.7c-2.8,0-4.2-3.4-2.2-5.4l5-4.5l8.7-7.7l3.2-2.9l11.6-10.3l12.1-10.7
			l10.4-9.3l6.8-6l3.2-2.8"/>
		<path class="st18" d="M692.7,248.5V246c0-6.1-4.9-11-11-11h-20.2l-62.1,0h-56.9h-4.3l-57.3,0h-55.4l-64,0h-31c-6.1,0-11,4.9-11,11
			v2.5h42h64l55.4,0h57.3h4.3l56.9,0h62.1L692.7,248.5z"/>
		<polyline class="st19" points="418.8,750.1 388.2,785.5 388.2,791.2 388.2,822.8 371,852.4 371,858.1 371,895.1 		"/>
		<polyline class="st19" points="594.8,750.1 625.4,785.5 625.4,791.2 625.4,822.8 642.6,852.4 642.6,858.1 642.6,895.1 		"/>
		<polyline class="st20" points="339.6,895.1 371,895.1 642.6,895.1 673.5,895.1 		"/>
		<path class="st21" d="M654.8,218.3l-297.4,0c-15.6,0-28.2-12.6-28.2-28.2v0c0-15.6,12.6-28.2,28.2-28.2l297.4,0
			c15.6,0,28.2,12.6,28.2,28.2v0C683,205.7,670.4,218.3,654.8,218.3z"/>
		<path class="st15" d="M408.9,173.6c0-1.3,0.7-2,2-2h10.4c6.7,0,12,4.5,12,11.1c0,6.2-5.3,10.9-11.7,10.9h-9.1v12.4
			c0,1.2-0.6,1.8-1.8,1.8c-1.2,0-1.8-0.6-1.8-1.8V173.6z M412.4,175.3l0,14.9l8.9,0c4.5,0,8.2-2.8,8.2-7.4c0-4.7-3.7-7.5-9-7.5
			H412.4z"/>
		<path class="st15" d="M438.5,173.4c0-1.2,0.6-1.8,1.8-1.8c1.2,0,1.8,0.6,1.8,1.8l0,32.7c0,1.2-0.6,1.8-1.8,1.8
			c-1.2,0-1.8-0.6-1.8-1.8V173.4z"/>
		<path class="st15" d="M467.5,175.3h-17c-1.2,0-1.9-0.6-1.9-1.8c0-1.2,0.6-1.8,1.9-1.8h19.7c1.8,0,2.4,0.7,2.4,1.6
			c0,0.7-0.4,1.6-1,2.4l-19,28.7h18.7c1.3,0,1.9,0.6,1.9,1.7c0,1.2-0.6,1.9-1.9,1.9l-21.7,0c-1.1,0-1.7-0.7-1.7-2.1
			c0-0.7,0.2-1.4,0.5-1.9L467.5,175.3z"/>
		<path class="st15" d="M496.8,175.3h-17c-1.2,0-1.9-0.6-1.9-1.8c0-1.2,0.6-1.8,1.9-1.8h19.7c1.8,0,2.4,0.7,2.4,1.6
			c0,0.7-0.4,1.6-1,2.4l-19,28.7h18.7c1.3,0,1.9,0.6,1.9,1.7c0,1.2-0.6,1.9-1.9,1.9H479c-1.1,0-1.7-0.7-1.7-2.1
			c0-0.7,0.2-1.4,0.5-1.9L496.8,175.3z"/>
		<path class="st15" d="M506.6,173.9c0-1.5,0.7-2.2,2-2.2h14.9c1.2,0,1.8,0.6,1.8,1.8c0,1.2-0.6,1.8-1.8,1.8h-13.3v12l11,0
			c1.2,0,1.8,0.6,1.8,1.9c0,1.1-0.6,1.7-1.8,1.7h-11v13.5h13.7c1.4,0,2.1,0.6,2.1,1.8c0,1.2-0.7,1.8-2.1,1.8h-15.3
			c-1.8,0-2-0.4-2-2.2V173.9z"/>
		<path class="st15" d="M530.7,173.6c0-1.3,0.9-2,2.8-2h11.3c7.3,0,11.2,5.1,11.2,10.2c0,4-2.4,8-7.5,9.4l6.9,13.4
			c0.3,0.6,0.4,1.2,0.4,1.7c0,0.9-0.5,1.6-1.6,1.6c-0.6,0-1.3-0.2-1.7-1l-7.9-15h-10.3v13.7c0,1.5-0.6,2.2-1.8,2.2
			c-1.2,0-1.8-0.7-1.8-2.2V173.6z M534.3,175.3v13.2h10.9c4.8,0,7-3.2,7-6.5c0-3.3-2.4-6.8-7-6.8H534.3z"/>
		<path class="st15" d="M560.8,173.4c0-1.2,0.6-1.8,1.8-1.8c1.2,0,1.8,0.6,1.8,1.8v32.7c0,1.2-0.6,1.8-1.8,1.8
			c-1.2,0-1.8-0.6-1.8-1.8V173.4z"/>
		<path class="st15" d="M592.8,200.5h-16.8l-2,5.6c-0.4,1.2-1.2,1.9-2.2,1.9c-1.1,0-1.6-0.8-1.6-1.7c0-0.3,0.1-0.7,0.2-1l11.1-31.3
			c0.5-1.5,1.5-2.2,2.8-2.2c1.3,0,2.3,0.7,2.8,2.2l11.5,31.3c0.1,0.3,0.2,0.7,0.2,1c0,1-0.6,1.7-1.7,1.7c-0.9,0-1.5-0.4-1.8-1.2
			L592.8,200.5z M577,196.8h14.5l-7.1-20.1L577,196.8z"/>
		<polygon class="st15" points="142.8,216.3 139.6,181.7 139.5,181.6 139.6,181.5 165.1,181.5 165.1,212.4 		"/>
		<polygon class="st15" points="188.3,208.3 188,211.2 165.1,215.3 165.1,212.4 		"/>
		<polygon class="st15" points="142.8,216.3 143.1,219.2 143.6,224 144.4,232.7 149.7,288.5 149.7,288.6 138.2,285.2 120.9,203.4 
			119.3,196.2 139.5,181.6 139.6,181.7 		"/>
		<polygon class="st15" points="165.1,215.3 165.1,220.1 143.8,224 143.6,224 143.1,219.2 		"/>
		<polygon class="st15" points="187.6,216.1 186.8,224.7 165.1,228.8 165.1,220.1 		"/>
		<polygon class="st12" points="165.1,212.4 165.1,215.3 143.1,219.2 142.8,216.3 		"/>
		<polygon class="st3" points="188.7,175.7 188.7,175.8 165.1,175.8 165.1,167.2 169,167.2 178.9,167.2 		"/>
		<polygon class="st22" points="155.7,292.4 149.3,292.4 137.9,288.5 137.9,285.7 138.2,285.2 149.7,288.6 149.7,288.6 165.1,288.6 
			165.1,292.4 		"/>
		<polygon class="st13" points="188,211.2 187.6,216.1 165.1,220.1 165.1,215.3 		"/>
		<polygon class="st13" points="165.1,212.4 165.1,181.5 190.9,181.5 190.9,181.6 190.9,181.7 188.3,208.3 		"/>
		<polygon class="st13" points="180.7,288.6 165.1,288.6 165.1,288.5 165.1,228.8 186.8,224.7 180.7,288.5 180.7,288.6 		"/>
		<path class="st22" d="M165.1,152v15.2h-3.9v-0.8v-10.5C161.2,153.8,162.9,152,165.1,152z"/>
		<polygon class="st3" points="174.7,292.4 171.4,302.9 165.1,302.9 165.1,292.4 		"/>
		<path class="st3" d="M169,166.4v0.8h-3.9V152c1.1,0,2,0.4,2.8,1.1c0.7,0.7,1.1,1.7,1.1,2.8V166.4z"/>
		<path class="st3" d="M217.7,194.9c0.8,0.6,0.8,1.8,0,2.3l-8.1,6l1.5-7.2l-20.2-14.5l0,0h-25.8v-5.7h23.6h4.1L217.7,194.9z"/>
		<polygon class="st3" points="174.7,292.4 165.1,292.4 165.1,288.6 180.7,288.6 180.7,288.6 191.3,285.5 191.4,285.7 191.4,288.5 
			181.1,292.4 		"/>
		<polygon class="st22" points="165.1,167.2 165.1,175.8 141.9,175.8 151.5,167.2 161.2,167.2 		"/>
		<polygon class="st15" points="149.7,288.5 144.4,232.7 144.8,232.7 165.1,228.8 165.1,288.5 165.1,288.6 149.7,288.6 149.7,288.6 
					"/>
		<path class="st22" d="M141.9,175.8h23.3v5.7h-25.5l0,0l-20.2,14.6l1.5,7.2l-0.1,0l-8.2-6.2c-0.8-0.6-0.8-1.7,0-2.3l24.8-19.1
			H141.9z"/>
		<polygon class="st13" points="186.8,224.7 187.6,216.1 188,211.2 188.3,208.3 190.9,181.7 190.9,181.6 211.1,196.1 209.5,203.3 
			192.3,285.2 191.3,285.5 180.7,288.6 180.7,288.5 		"/>
		<polygon class="st12" points="165.1,220.1 165.1,228.8 144.8,232.7 144.4,232.7 143.6,224 143.8,224 		"/>
		<polygon class="st22" points="165.1,292.4 165.1,302.9 159.1,302.9 155.7,292.4 		"/>
		<polygon class="st18" points="165.1,181.5 190.9,181.5 190.9,181.6 211.1,196.1 209.5,203.3 192.3,285.2 191.3,285.5 180.7,288.6 
			180.7,288.6 165.1,288.6 149.7,288.6 149.7,288.6 138.2,285.2 120.9,203.4 119.3,196.2 139.5,181.6 139.6,181.5 		"/>
		<path class="st18" d="M209.4,203.4l0.1-0.1l8.1-6c0.8-0.6,0.8-1.7,0-2.3l-24.8-19.1h-4.1h-23.6h-23.3h-4.5l-24.8,19.1
			c-0.8,0.6-0.8,1.8,0,2.3l8.2,6.2"/>
		<polyline class="st18" points="188.7,175.7 178.9,167.2 169,167.2 165.1,167.2 161.2,167.2 151.5,167.2 141.9,175.8 141.8,175.9 
					"/>
		<polyline class="st18" points="191.4,285.7 191.4,288.5 181.1,292.4 174.7,292.4 165.1,292.4 155.7,292.4 149.3,292.4 
			137.9,288.5 137.9,285.7 		"/>
		<polyline class="st23" points="175,291.6 174.7,292.4 171.4,302.9 165.1,302.9 159.1,302.9 155.7,292.4 155.5,291.8 		"/>
		<path class="st18" d="M161.2,166.4v-10.5c0-2.2,1.7-3.9,3.9-3.9c1.1,0,2,0.4,2.8,1.1c0.7,0.7,1.1,1.7,1.1,2.8v10.5"/>
		<polyline class="st18" points="139.6,181.7 142.8,216.3 143.1,219.2 143.6,224 144.4,232.7 149.7,288.5 		"/>
		<polyline class="st18" points="190.9,181.7 188.3,208.3 188,211.2 187.6,216.1 186.8,224.7 180.7,288.5 		"/>
		<path class="st3" d="M902.9,194.9c0.8,0.6,0.8,1.8,0,2.3l-8.1,6l1.5-7.2l-20.2-14.5l0,0l-25.8,0v-5.7H874h4.1L902.9,194.9z"/>
		<polygon class="st13" points="872,224.7 872.9,216.1 873.3,211.2 873.6,208.3 876.1,181.7 876.2,181.6 896.3,196.1 894.8,203.3 
			877.5,285.2 876.6,285.5 866,288.6 866,288.5 		"/>
		<polygon class="st3" points="860,292.4 850.4,292.4 850.4,288.6 866,288.6 866,288.6 876.6,285.5 876.7,285.7 876.7,288.5 
			866.4,292.4 		"/>
		<polygon class="st13" points="876.1,181.5 876.2,181.6 876.1,181.7 873.6,208.3 850.4,212.4 850.4,181.5 		"/>
		<polygon class="st3" points="874,175.7 874,175.8 850.4,175.8 850.4,167.2 854.3,167.2 864.2,167.2 		"/>
		<polygon class="st15" points="873.6,208.3 873.3,211.2 850.4,215.3 850.4,212.4 		"/>
		<polygon class="st13" points="873.3,211.2 872.9,216.1 850.4,220.1 850.4,215.3 		"/>
		<polygon class="st15" points="872.9,216.1 872,224.7 850.4,228.8 850.4,220.1 		"/>
		<polygon class="st13" points="872,224.7 866,288.5 866,288.6 866,288.6 850.4,288.6 850.4,288.5 850.4,228.8 		"/>
		<polygon class="st3" points="860,292.4 856.6,302.9 850.4,302.9 850.4,292.4 		"/>
		<path class="st3" d="M854.3,166.4v0.8h-3.9V152c1.1,0,2,0.4,2.8,1.1s1.1,1.7,1.1,2.8V166.4z"/>
		<polygon class="st22" points="850.4,292.4 850.4,302.9 844.3,302.9 841,292.4 		"/>
		<polygon class="st22" points="841,292.4 834.6,292.4 823.1,288.5 823.1,285.7 823.4,285.2 834.9,288.6 835,288.6 850.4,288.6 
			850.4,292.4 		"/>
		<polygon class="st15" points="850.4,288.5 850.4,288.6 835,288.6 834.9,288.6 835,288.5 829.7,232.7 830,232.7 850.4,228.8 		"/>
		<polygon class="st12" points="850.4,220.1 850.4,228.8 830,232.7 829.7,232.7 828.8,224 829.1,224 		"/>
		<polygon class="st15" points="850.4,215.3 850.4,220.1 829.1,224 828.8,224 828.4,219.2 		"/>
		<polygon class="st12" points="850.4,212.4 850.4,215.3 828.4,219.2 828.1,216.3 		"/>
		<polygon class="st15" points="850.4,181.5 850.4,212.4 828.1,216.3 824.8,181.7 824.8,181.6 824.8,181.5 		"/>
		<path class="st22" d="M827.1,175.8h23.3v5.7h-25.5l0,0l-20.2,14.6l1.5,7.2l-0.1,0l-8.2-6.2c-0.8-0.6-0.8-1.7,0-2.3l24.8-19.1
			H827.1z"/>
		<polygon class="st22" points="850.4,167.2 850.4,175.8 827.1,175.8 836.8,167.2 846.5,167.2 		"/>
		<path class="st22" d="M850.4,152v15.2h-3.9v-0.8v-10.5C846.5,153.8,848.2,152,850.4,152z"/>
		<polygon class="st15" points="828.4,219.2 828.8,224 829.7,232.7 835,288.5 834.9,288.6 823.4,285.2 806.1,203.4 804.6,196.2 
			824.8,181.6 824.8,181.7 828.1,216.3 		"/>
		<polygon class="st18" points="850.4,181.5 876.1,181.5 876.2,181.6 896.3,196.1 894.8,203.3 877.5,285.2 876.6,285.5 866,288.6 
			866,288.6 850.4,288.6 835,288.6 834.9,288.6 823.4,285.2 806.1,203.4 804.6,196.2 824.8,181.6 824.8,181.5 		"/>
		<path class="st18" d="M894.7,203.4l0.1-0.1l8.1-6c0.8-0.6,0.8-1.7,0-2.3l-24.8-19.1H874h-23.6h-23.3h-4.5l-24.8,19.1
			c-0.8,0.6-0.8,1.8,0,2.3l8.2,6.2"/>
		<polyline class="st18" points="874,175.7 864.2,167.2 854.3,167.2 850.4,167.2 846.5,167.2 836.8,167.2 827.1,175.8 827.1,175.9 
					"/>
		<polyline class="st18" points="876.7,285.7 876.7,288.5 866.4,292.4 860,292.4 850.4,292.4 841,292.4 834.6,292.4 823.1,288.5 
			823.1,285.7 		"/>
		<polyline class="st23" points="860.2,291.6 860,292.4 856.6,302.9 850.4,302.9 844.3,302.9 841,292.4 840.8,291.8 		"/>
		<path class="st18" d="M846.5,166.4v-10.5c0-2.2,1.7-3.9,3.9-3.9c1.1,0,2,0.4,2.8,1.1s1.1,1.7,1.1,2.8v10.5"/>
		<polyline class="st18" points="824.8,181.7 828.1,216.3 828.4,219.2 828.8,224 829.7,232.7 835,288.5 		"/>
		<polyline class="st18" points="876.1,181.7 873.6,208.3 873.3,211.2 872.9,216.1 872,224.7 866,288.5 		"/>
		<rect x="516.2" y="587.8" class="st18" width="116.7" height="143.7"/>
		<path class="st24" d="M826.9,576.9c0,0,0.5,8.1-1.6,16.6c-2.1,8.4-45.5,17.5-45.5,17.5h-1v-5.2c3.5-1.4,6.9-2.8,10-4.1
			c9.7-4.1,17.5-7.6,21.9-9.3c2.2-0.9,3.6-3.1,3.3-5.5l-1.3-8.3C817.1,579.8,826.9,576.9,826.9,576.9z"/>
		<path class="st25" d="M807.2,944.3c0.6,1.2,1.1,2,1.2,2.2c-0.6-0.9-1.2-1.7-1.9-2.5C806.8,944.1,807,944.2,807.2,944.3z"/>
		<path class="st26" d="M665.9,571.1h14.5c-1.1,9.6-2.1,19.9-3,30.5c-0.1,0.6-0.1,1.2-0.2,1.8H536.1l63.6-32.4H665.9z"/>
		<path class="st27" d="M658.1,222.8c-6,9.5-9.4,16.4-9.6,16.7l0,0c-9.5,2-14,4.7-14,4.7s3.3-8.5,7.8-19.2l0.4,0.2
			C642.6,225.1,648.2,223.7,658.1,222.8z"/>
		<path class="st13" d="M772.4,604l6.5,0v1.7c-2.3,0.9-4.7,1.9-7.2,2.8C771.9,607.1,772.1,605.6,772.4,604z"/>
		<path class="st28" d="M835.5,542.7c1.8,20.2-29.6,20.7-31.9,20.7l-1.2-35.5c-0.3-2.1-3.4-2.1-3.7,0
			c-12.7,12.5-20.5,41.4-25.2,68.9l-20.6-25.7h-72.6c0.4-4,0.9-8,1.3-11.8c0.7-6,1.4-11.6,2.1-16.8c2.1-4.6,35.6-76.6,104.5-92.3h0
			c14.1,20.3,33,36.3,36,40.2C828.2,495.2,833.6,521.8,835.5,542.7z"/>
		<path class="st24" d="M653.4,361.9l-0.2,0.4c12.3,7.1,36.9,6.1,35.5-6.6C679.5,365.4,655.4,362.2,653.4,361.9z M648.5,358.3
			c0,0,17.2-28.7,18.8-52.2c1.1-14.9-1.9-27.8-1.9-27.8l-0.3,0c0.1,2.6,0.1,5.5,0,8.8c-1.8-1.5-3.7-2.4-5.6-2.7
			c-6.9-1.3-14.1,3.8-16.1,10.6c-1.6,5.3-0.4,10.7,2.7,14.7c2.1,2.7,5,4.9,8.6,5.9c2.1,0.6,4.3,0.8,6.4,0.6c-0.5,1.9-1,3.8-1.5,5.7
			C652.2,346.9,643.3,351.8,648.5,358.3z M664.8,273.5l0.6,0c0,0,11.2,11.5,37.6,19.6c-2.1,1.9-3.8,4.3-4.8,7.1
			c-0.7,1.8-1,3.8-1,5.9c0,3.8,1.2,7.3,3.3,10.2c3.2,4.4,8.3,7.2,14.1,7.2c7,0,13.1-4.2,15.8-10.2c1-2.2,1.5-4.6,1.5-7.1
			c0-2.1-0.4-4.1-1-5.9h0c-0.1-0.4-0.3-0.8-0.5-1.2c13.9,1.9,30.2,2.6,49.3,1.2c4.3,9.4,4,17,4,17c-1.1,31.1-10.5,57.2-14.5,67
			c-1.1,2.7-2.9,5.1-5.2,7c-67.7,54.8-95.4,43.9-99.5,41.7c-0.2-0.1-0.4-0.2-0.6-0.3c-2.2-1.4-4.3-3-6.2-5
			c-11.8-12.2-29.2-54.6-32.3-77.9c-3.3-25,2.3-40.5,8.2-62.7c1.1-4.1,1.7-8.7,2.1-13.1l0.3,0c14.3-16.1,28.8-0.8,28.8-0.8
			C664.8,273.2,664.8,273.4,664.8,273.5z"/>
		<path class="st29" d="M662.9,291.4c0,0,0.4-4.5-3.5-7.1c1.9,0.4,3.8,1.3,5.6,2.7c-0.1,1.7-0.1,3.4-0.3,5.3
			c-0.6-0.2-1.3-0.4-1.9-0.6L662.9,291.4z"/>
		<path class="st29" d="M637.7,627h22.1C648.7,640.8,637.7,627,637.7,627z"/>
		<path class="st30" d="M808.5,946.5c2.1,2.2,3.3,9.8-3.6,11.1c-5.7,1.1-13.7,1.6-21.7-0.7c-2.3-0.6-3.6-2.9-3.7-5.2h0.2
			C779.6,951.7,804.7,955.8,808.5,946.5z"/>
		<path class="st29" d="M790.7,343.8c3.3,6,14.1,6.8,14.5-1.6c0.1-2.7-0.8-4.4-2.1-5.4l0.1-0.2c0,0,5.7-20.5,10.5-13.7
			c0.7-2,1.2-4.1,0.7-5.5c-1.3-3.7-16.7,5.2-18.5,17.8c0,0,0.2,0,0.6,0l0,0.3c6.7,0.2,8.3,14.3-5.3,8.2L790.7,343.8z M779.7,300.2
			c-2.5-5.5-6.5-11.5-13-17.2l-2.1-0.4c4.6-1.5,8.7-3.2,12.2-4.9l0.1,0.2c0,0,23.6,12.2,20.6,39.3c0-0.1,0.1-0.1,0.1-0.1l0.5,0.4
			c0,0,25.4-18,24.1,4.2c-0.3,0.4-0.5,0.8-0.7,1.1c-1,1.5-2,3-2.9,4.5c-3.5,5.9-10.5,18.6-12.8,30c-0.8,4-4.9,6.6-8.9,5.5
			c-1.6-0.4-3.3-1.3-4.6-2.6c-0.6-0.5-1.1-1.1-1.6-1.8l-0.3,0.1c-5.1,7.2-10.5,36.5-18.3,44.3c-3.8,3.8-20.2,11.5-36.8,18.6
			c-17.3,7.4-34.9,14.2-39,15.6c-6.7,2.2-20.5,2.7-31.7-4c4.1,2.2,31.8,13.2,99.5-41.7c2.3-1.9,4.1-4.2,5.2-7
			c4-9.8,13.4-35.9,14.5-67C783.7,317.2,784,309.7,779.7,300.2z"/>
		<path class="st31" d="M756.4,254.6c0.1,0,0.2,0.1,0.3,0.1C756.5,254.7,756.4,254.7,756.4,254.6z"/>
		<path class="st12" d="M536.1,603.4h141.1c0,0.2,0,0.3,0,0.5l-141.1-0.2V603.4z"/>
		<path class="st15" d="M646,309.7c2.7,1.6,9.7,5,15.6,1.8l0.5,0.1c-0.3,1.5-0.7,3-1.1,4.6c-2.1,0.2-4.2,0.1-6.4-0.6
			C651,314.6,648.1,312.4,646,309.7z"/>
		<path class="st12" d="M730.4,299c0.2,0.4,0.3,0.8,0.5,1.2c-1.2-0.6-2.5-1.2-3.7-1.7C728.3,298.7,729.3,298.9,730.4,299z"/>
		<path class="st32" d="M806.5,944c-11.5-4.5-25.2,2-25.2,2h0c1.1-1.7,2.5-3,4.2-4.1C791.7,937.9,801.1,938.4,806.5,944z"/>
		<path class="st24" d="M722.5,297c-3.3-0.9-6.4-1.2-9.1-1.1c-3.7-0.9-7.1-1.8-10.4-2.8c3.1-2.7,7.1-4.4,11.5-4.4
			c1.5,0,3,0.2,4.4,0.6l0,0.2c4.2,2.5,3.7,7.2,3.7,7.2L722.5,297z"/>
		<path class="st24" d="M703,293.1c3.2,1,6.7,1.9,10.4,2.8c-9.4,0.2-15.2,4.3-15.2,4.3C699.2,297.5,700.9,295,703,293.1z"/>
		<path class="st13" d="M721.1,623.8c16.1-2.8,34.5-9,50.6-15.2c-0.6,3.8-1.1,7.5-1.5,11.1c-10.8,2.5-22.7,5-35.7,7.3
			c-0.1,0-0.1,0-0.2,0h-26.4c-0.4-0.5-0.5-0.9-0.5-0.9L721.1,623.8z"/>
		<path class="st27" d="M636,256.5c0,0,0.2,3,0.1,7.5h-0.2c-8.6,2.7-19.7,5.8-27.1,8.2c-12.3,3.9-20.1-4.4-20.1-4.4l0.2-0.1
			c0,0,0,0,0.1,0c0.1,0,0.2-0.1,0.3-0.2c0.1,0,0.1-0.1,0.2-0.1c2.8-1.4,13.2-6.2,26.2-9c0,0,0,0,0,0
			C621.9,257,628.9,256.2,636,256.5z"/>
		<path class="st13" d="M770.2,619.7c-0.3,2.5-0.6,4.9-0.9,7.3h-35.1c0.1,0,0.1,0,0.2,0C747.5,624.7,759.4,622.2,770.2,619.7z"/>
		<path class="st12" d="M722.5,297c1.5,0.4,3.1,0.9,4.7,1.5c-4.9-0.7-9.6-1.6-13.8-2.6C716.1,295.9,719.2,296.2,722.5,297z"/>
		<path class="st24" d="M771.5,415.1c1.6-0.7,3.3,0.5,3.3,2.2c-0.1,5.9-0.6,17.2-4.3,24.6v0c-9.4,5-22.8,8.2-35.2-2.8
			c0.4-3.8,0.5-7.5,0.5-10.5C747.2,428.6,762,419.2,771.5,415.1z"/>
		<path class="st33" d="M665.4,278.3c0,0,3,12.9,1.9,27.8c-1.7,23.5-18.8,52.2-18.8,52.2c-5.1-6.5,3.7-11.4,11-36.4
			c0.6-1.9,1.1-3.8,1.5-5.7c0.4-1.6,0.7-3.1,1.1-4.6c0.3-1.3,0.5-2.5,0.8-3.8c0.6-3,1-5.8,1.3-8.5c0.3-2.4,0.5-4.7,0.7-6.9
			c0.1-1.8,0.2-3.6,0.3-5.3c0.1-3.3,0.1-6.2,0-8.8L665.4,278.3z"/>
		<path class="st29" d="M707.9,627h26.4c-4.3,0.9-6.8,7-14.8,6C712.2,632.2,709,628.6,707.9,627z"/>
		<path class="st24" d="M681.5,559.3l0.2,0c-0.4,3.8-0.9,7.7-1.3,11.8h-14.5V571l1.7-15.3C670.5,557.2,674.9,558.5,681.5,559.3z"/>
		<path class="st29" d="M730.4,299c-1.1-0.1-2.1-0.3-3.2-0.5c-1.6-0.6-3.2-1.2-4.7-1.5l0.1-0.3c0,0,0.5-4.7-3.7-7.2l0-0.2
			C724.1,290.7,728.3,294.3,730.4,299z"/>
		<path class="st27" d="M665.4,264.5c1.6,0.4,91.5,21.2,90.8-10c0,0,0,0,0,0c0,0,0.1,0,0.2,0.1c0.1,0,0.2,0.1,0.3,0.1
			c0.1,0,0.2,0.1,0.3,0.1c0.1,0,0.2,0.1,0.3,0.1c0,0,0.1,0,0.1,0.1c10.3,3.9,21.3,8.6,33.1,14.2c0,0-4.8,4.1-13.7,8.5
			c-3.4,1.7-7.5,3.4-12.2,4.9c-3.8,1.3-8.1,2.4-12.7,3.2C730.8,289.8,693.3,275.3,665.4,264.5z"/>
		<path class="st24" d="M820.6,306.9c6.1,6.6,3.7,11.6,1.6,14.6c1.2-22.2-24.1-4.2-24.1-4.2l-0.5-0.4c4-5.7,8.9-9.3,13.3-10.9
			c0,0,0,0,0,0C815,304.6,818.6,304.9,820.6,306.9z"/>
		<path class="st27" d="M730.4,162.7c26.4,0,53.2,15.6,72.2,32.1v0c11.8,20.7-13.8,56.5-13.8,56.5c-0.2,0.3-0.5,0.5-0.8,0.8
			c-57.1-30.7-106.2-31.5-130.1-29.3C671.4,201.8,697.7,167.8,730.4,162.7z"/>
		<path class="st15" d="M700.5,316.3c0,0,14.8,8.7,29.9-3c-2.7,6-8.8,10.2-15.8,10.2C708.7,323.5,703.6,320.7,700.5,316.3
			L700.5,316.3z"/>
		<path class="st34" d="M734.3,627h35.1c-0.6,5.7-1.1,10.9-1.5,15.5c-39.4,4.2-94-4.1-94-4.1h0c0.4-3.5,0.8-7.3,1.2-11.3h32.8
			c1.1,1.7,4.3,5.2,11.6,6C727.5,634,729.9,627.9,734.3,627z"/>
		<path class="st24" d="M778.6,847.3c0,0,11.2-0.3,12.7,2.9c1.5,3.2,6.5,68.5,7,74.9c0.5,6.4-6.6,6.8-6.6,6.8
			c-5.7-34.3-11.6-72.2-13.5-84.4L778.6,847.3z"/>
		<path class="st31" d="M756.2,254.6c0.1,0,0.1,0,0.2,0.1C756.3,254.6,756.2,254.6,756.2,254.6z"/>
		<path class="st13" d="M677.2,603.9l95.2,0.1c-0.2,1.5-0.5,3-0.7,4.5c-16.1,6.2-34.5,12.4-50.6,15.2l-13.7,2.3c0,0,0.1,0.3,0.5,0.9
			h-32.8C675.8,620.1,676.5,612.4,677.2,603.9z"/>
		<path class="st13" d="M778.9,610.9v6.6c-2.8,0.7-5.7,1.4-8.7,2.1c0.4-3.6,0.9-7.3,1.5-11.1c2.4-1,4.8-1.9,7.2-2.8V610.9z"/>
		<path class="st30" d="M722.8,930.3c2.1,2.2,3,5.7,1.2,8.1c-2,2.7-4.4,5.4-6.7,7.7l-2.2-1.9c-0.6-0.8-1.2-1.5-1.8-2.2
			C717.1,939.6,720.4,935.9,722.8,930.3z"/>
		<path class="st34" d="M782.5,433.3c2.2,4.9,6,10.4,10.4,16c-1.5,0.3-3.1,0.6-4.6,1h0c-3.2-4.6-6.1-9.3-8.6-14.3l-0.1-0.2
			C781.5,434.3,782.5,433.3,782.5,433.3z"/>
		<path class="st35" d="M715.8,929.7c0.1-1.1,4.1-63.4-1.7-82.4c0,0-3-3.5-12.3-1.9l-0.2,0c-0.3-3-0.5-4.7-0.5-4.7l0.1-0.8
			c5.2,0.7,11.3,0.8,16.7,0.2l0.1,0.7c5.9,32.9,1.3,61.5,2.4,87C718.7,929,717.2,929.5,715.8,929.7z"/>
		<path class="st27" d="M725.4,700.7c16.1-0.5,34.7-3.4,53.8-11.1c0,0,4.4,90.5,12,127.1c0,0-7.4,10.2-28.2,6.1l-0.3,0.1
			c-6.6-36-13.6-80.5-19.6-80.2c-12.3,0.1-22.6-2.6-22.6-2.6c0,0.5,0,1-0.1,1.5c-0.4,9.6-2.7,61.4-6.3,76.2
			c-8.9,8.9-27.2,2.8-27.2,2.8c-9.3-71.6-11.5-113.2-12-125.5l0.4,0C675.3,694.9,696.2,701.7,725.4,700.7z"/>
		<path class="st25" d="M781.3,946c0,0,13.7-6.5,25.2-2c0.7,0.7,1.3,1.6,1.9,2.5c0,0,0,0,0,0c-3.7,9.3-28.8,5.2-28.8,5.2h-0.2
			c0-0.6,0-1.3,0.2-1.9C780,948.4,780.6,947.1,781.3,946L781.3,946z"/>
		<path class="st13" d="M778.9,617.6v9.4h-9.5c0.3-2.4,0.5-4.8,0.9-7.3C773.2,619,776.1,618.3,778.9,617.6z"/>
		<path class="st25" d="M709.8,938.7c1.2,0.9,2.4,2,3.5,3.3c-12.4,8-29.1,1.6-29.1,1.6c0.4-0.9,0.9-1.7,1.5-2.5c0,0,0,0,0,0
			C686.4,940.8,699.3,934.9,709.8,938.7z"/>
		<path class="st27" d="M663.4,182.2c7.2-6.5,22.2-19.4,67.1-19.4c-32.7,5-59,39-72.4,60.1c-9.9,0.9-15.5,2.3-15.5,2.3l-0.4-0.2
			C649.2,208.2,659,186.1,663.4,182.2z"/>
		<path class="st27" d="M725.4,696.4l0,4.4c-29.3,1-50.2-5.8-50.2-5.8l-0.4,0c-0.1-2.6-0.1-3.9-0.1-3.9l0-0.1
			c10.9,2.3,29.9,5.3,50.6,4.4L725.4,696.4z"/>
		<path class="st29" d="M835.6,569.7c0,12.2,0,26.1,0,26.1c0,2.2-1.3,4.1-3.4,4.9c-6.3,2.4-21.4,8.2-43.7,14.3
			c-3.1,0.8-6.3,1.7-9.6,2.5v-6.6h1c0,0,43.4-9.1,45.5-17.5c2.1-8.4,1.6-16.6,1.6-16.6s-9.8,2.9-14.1,1.7l-0.6-4.2
			C817.6,573.9,826.5,572.8,835.6,569.7z"/>
		<path class="st29" d="M792.2,360c0,0-13.6,50.3-9.7,73.3c0,0-1,1-2.8,2.5c-2.1,1.7-5.3,4.1-9.2,6.1c3.6-7.4,4.2-18.7,4.3-24.6
			c0-1.7-1.7-2.9-3.3-2.2c-9.4,4.1-24.2,13.5-35.7,13.5c0-3.9-0.2-6.6-0.2-6.6l-0.3-0.7c16.6-7.1,33-14.8,36.8-18.6
			c7.7-7.8,13.2-37.1,18.3-44.3l0.3-0.1C791.1,358.9,791.6,359.5,792.2,360z"/>
		<path class="st28" d="M767.8,642.4c-0.9,10.5-1.2,17.2-1.2,17.2c-12.1,32.4-96.3,12.2-97.5,11.9c1.5-7.9,3.1-18.5,4.7-33.3h0
			C673.9,638.3,728.5,646.6,767.8,642.4z"/>
		<path class="st30" d="M715.2,944.2l2.2,1.9c-3.9,3.9-7.7,6.9-10.1,7.5c-5.5,1.3-13.1,0.6-18.5-1.1c-4.3-1.4-6.4-4.8-4.5-8.9
			c0,0,16.7,6.5,29.1-1.6C714,942.7,714.6,943.4,715.2,944.2z"/>
		<path class="st27" d="M634.4,244.2c0,0,4.5-2.6,14-4.7l-32.9,18.9c0,0,0,0,0,0c-13,2.8-23.4,7.6-26.2,9L634.4,244.2z"/>
		<path class="st27" d="M665.4,264.5c-4.7-1.8-9.1-3.5-13.1-5c-5.3-1.9-10.8-2.9-16.3-3.1c-7-0.3-14,0.6-20.4,1.9l32.9-18.9l0,0
			c17.6-3.8,52.5-5.6,107.7,15C756.9,285.7,667,264.9,665.4,264.5z"/>
		<path class="st36" d="M683.8,542.5c-0.7,5.2-1.4,10.8-2.1,16.8l-0.2,0c-6.6-0.8-11-2.1-13.9-3.6c-5.5-2.8-5.5-6.1-5.1-7.5
			l13.9-48.7c3.6-12.7,11.2-23.8,21.5-32c19-14.8,37.3-28.4,37.3-28.4c12.4,11.1,25.9,7.8,35.2,2.8v0c3.9-2,7.1-4.4,9.2-6.1l0.1,0.2
			c2.5,4.9,5.4,9.7,8.6,14.3C719.5,465.9,685.9,537.9,683.8,542.5z"/>
		<path class="st27" d="M788.1,252.1c-9.3,9.5-26.2,4.5-30.8,2.9c-0.1,0-0.1,0-0.1-0.1c-0.1,0-0.2-0.1-0.3-0.1
			c-0.1-0.1-0.2-0.1-0.3-0.1c-0.1,0-0.2-0.1-0.3-0.1c-0.1,0-0.1-0.1-0.2-0.1c0,0,0,0,0,0c-55.2-20.6-90-18.9-107.7-15
			c0.2-0.3,3.6-7.2,9.6-16.7C681.9,220.6,731.1,221.4,788.1,252.1z"/>
		<path class="st13" d="M778.9,604.1l-6.5,0c0-0.2,0.1-0.4,0.1-0.6h6.4V604.1z"/>
		<path class="st25" d="M806.5,944c-5.5-5.6-14.9-6.1-21.1-2l0-0.1c0,0,4.8-4.2,6.2-10.1c0,0,4.6,4.2,10.6,0
			c0.2,3.1,3.3,9.2,5.1,12.5C807,944.2,806.8,944.1,806.5,944z"/>
		<path class="st26" d="M752.9,571.1l20.6,25.7c-0.4,2.2-0.7,4.4-1.1,6.6l-95.2,0c0.1-0.6,0.1-1.2,0.2-1.8c0.9-10.7,1.9-20.9,3-30.5
			H752.9z"/>
		<path class="st27" d="M725.4,695.4c21.5-0.9,44.7-5.9,62.7-20.4l0.2,0.2c-0.1,48.5,15.3,165.7,15.3,165.7c-2.2,1-5.5,1.6-9.3,2
			c-5.3,0.5-11.4,0.5-16.6-0.1c-5.5-0.6-10-1.9-11.8-3.6c-1-5.1-2.1-10.6-3.1-16.3l0.3-0.1c20.8,4.1,28.2-6.1,28.2-6.1
			c-7.6-36.6-12-127.1-12-127.1c-19,7.7-37.7,10.6-53.8,11.1l0-4.4L725.4,695.4z"/>
		<path class="st29" d="M665.4,273.5l-0.6,0c0-0.2,0-0.4,0-0.5c0,0-14.5-15.3-28.8,0.8l-0.3,0c0.3-3.6,0.4-7,0.4-9.9
			c0.1-4.4-0.1-7.5-0.1-7.5c5.5,0.2,11,1.1,16.3,3.1c4,1.5,8.4,3.2,13.1,5c27.9,10.8,65.4,25.2,86.5,21.3c4.6-0.9,8.9-2,12.7-3.2
			l2.1,0.4c6.5,5.6,10.6,11.7,13,17.2c-19.1,1.4-35.4,0.7-49.3-1.2c-2.1-4.8-6.3-8.4-11.5-9.7c-1.4-0.4-2.9-0.6-4.4-0.6
			c-4.4,0-8.5,1.7-11.5,4.4C676.6,285,665.4,273.5,665.4,273.5z"/>
		<path class="st31" d="M756.9,254.8c0.1,0,0.2,0.1,0.3,0.1C757.1,254.9,757,254.9,756.9,254.8z"/>
		<path class="st24" d="M659.4,284.4c3.9,2.6,3.5,7.1,3.5,7.1l-0.1,0.4c-10-2.5-19.5,3.2-19.5,3.2
			C645.3,288.2,652.5,283,659.4,284.4z"/>
		<path class="st13" d="M772.5,603.4c0,0.2-0.1,0.4-0.1,0.6l-95.2-0.1c0-0.2,0-0.3,0-0.5L772.5,603.4z"/>
		<path class="st35" d="M794.2,843.3c5.7,37.3,7,73.1,7.9,88.5c-5.9,4.2-10.6,0-10.6,0s7.1-0.4,6.6-6.8c-0.5-6.4-5.5-71.7-7-74.9
			c-1.5-3.2-12.7-2.9-12.7-2.9l-0.4,0.1c-0.4-2.6-0.6-4-0.6-4l0.1-0.5c5.3,0.6,11.4,0.7,16.6,0.1L794.2,843.3z"/>
		<path class="st25" d="M715.8,929.7c1.4-0.1,2.9-0.6,4.6-1.8l2.4,2.5c-2.4,5.6-5.7,9.3-9.5,11.7c-1.1-1.3-2.3-2.4-3.5-3.3
			c-4.4-3.4-8.9-4.5-13-4c4.1-1,10.6-3.2,13-6.9C709.8,927.8,712.2,930,715.8,929.7z"/>
		<path class="st29" d="M653.4,361.9c2,0.3,26.1,3.5,35.3-6.2c1.3,12.7-23.2,13.7-35.5,6.6L653.4,361.9z"/>
		<path class="st34" d="M788.5,615l0.1,0.2c0,8.4,0.1,16.2,0.3,23.1c-6,2-13.2,3.3-20.9,4.1c0.4-4.5,0.9-9.8,1.5-15.5h9.5v-9.4
			C782.2,616.7,785.4,615.9,788.5,615z"/>
		<path class="st37" d="M817.6,283c-5.1,13-6.6,22.6-6.7,23.1c0,0,0,0,0,0c-4.4,1.6-9.4,5.3-13.3,10.9c0,0-0.1,0.1-0.1,0.1
			c3-27.1-20.6-39.3-20.6-39.3l-0.1-0.2c8.9-4.4,13.7-8.5,13.7-8.5C799.1,273.3,808.1,277.9,817.6,283z"/>
		<path class="st24" d="M714.1,847.3c5.8,19,1.8,81.3,1.7,82.4c-3.6,0.4-6-1.8-6-1.8c-2.9-32.6-6.8-69.6-8.2-82.4l0.2,0
			C711.1,843.8,714.1,847.3,714.1,847.3z"/>
		<path class="st34" d="M788.9,601.6c-3.1,1.3-6.5,2.7-10,4.1v-1.7v-0.6l-5.3-6.6c4.7-27.5,12.6-56.3,25.2-68.9
			c-1.4,10.2-7.6,26.3-9,51.5c-0.5,7.8-0.8,15.1-1,22L788.9,601.6z"/>
		<path class="st38" d="M814.3,317.5c0.5,1.4,0.1,3.5-0.7,5.5c-4.8-6.8-10.5,13.7-10.5,13.7l-0.1,0.2c-2.1-1.7-5.3-1.7-6.6-1.7
			c-0.4,0-0.6,0-0.6,0C797.5,322.7,813,313.7,814.3,317.5z"/>
		<path class="st12" d="M730.9,300.2c0.7,1.8,1,3.8,1,5.9c0,2.5-0.5,5-1.5,7.1c-15.1,11.8-29.9,3-29.9,3h0
			c-2.1-2.9-3.3-6.4-3.3-10.2c0-2.1,0.4-4.1,1-5.9c0,0,5.8-4.2,15.2-4.3c4.3,1,8.9,1.9,13.8,2.6C728.4,299,729.6,299.6,730.9,300.2
			L730.9,300.2z M720.3,310.8c0.1-2.6-1.9-4.9-4.5-5c-2.6-0.2-4.9,1.9-5,4.5c-0.1,2.6,1.9,4.9,4.5,5
			C717.9,315.4,720.1,313.4,720.3,310.8z"/>
		<path class="st27" d="M790.4,269.2c-11.8-5.6-22.8-10.3-33.1-14.2c4.6,1.6,21.4,6.6,30.8-2.9c10.9,5.9,22,12.8,33.4,21
			c-2.2,6-4,9.9-4,9.9C808.1,277.9,799.1,273.3,790.4,269.2z"/>
		<path class="st27" d="M828.5,225.3c4.8,11.9-2.1,34.7-7,47.8c-11.3-8.2-22.5-15.2-33.4-21c0.3-0.3,0.5-0.5,0.8-0.8
			c0,0,25.6-35.8,13.8-56.5C816,206.3,825.6,218.2,828.5,225.3z"/>
		<path class="st32" d="M709.8,938.7c-10.5-3.9-23.5,2-24.1,2.3c1.9-2.6,4.6-4.6,7.8-5.6c0,0,0,0,0,0c0.4-0.1,1.6-0.3,3.2-0.7
			C700.9,934.3,705.5,935.4,709.8,938.7z"/>
		<path class="st26" d="M773.5,596.8l5.3,6.6h-6.4C772.8,601.2,773.2,599,773.5,596.8z"/>
		<path class="st27" d="M720.4,741.5c-0.7,22.7,2.5,79.6,6.1,96.9c-2.4,0.8-5.4,1.4-8.5,1.8c-5.4,0.6-11.5,0.5-16.7-0.2
			c-6.8-1-12.2-3-12.6-6.1c-0.6-4.6-1.2-9-1.8-13.4c0,0,18.4,6.1,27.2-2.8C717.7,802.9,720,751.1,720.4,741.5z"/>
		<path class="st34" d="M790.9,672.6c-0.9,0.8-1.9,1.6-2.8,2.4c-17.9,14.4-41.2,19.5-62.7,20.4c-20.7,0.9-39.7-2.2-50.6-4.4
			c-1.7-0.4-3.3-0.7-4.6-1c-2.7-0.6-4.4-3.4-3.7-6.1c0.8-3.2,1.7-7.1,2.7-12.2c1.3,0.3,85.4,20.6,97.5-11.9c0,0,0.3-6.7,1.2-17.2
			c7.8-0.8,14.9-2.1,20.9-4.1C789.4,659.5,790.9,672.6,790.9,672.6z"/>
		<path class="st38" d="M805.1,342.3c-0.4,8.4-11.1,7.5-14.5,1.6l0.4-0.2c13.6,6.1,12-8,5.3-8.2l0-0.3c1.3-0.1,4.5,0,6.6,1.7
			C804.3,337.9,805.3,339.6,805.1,342.3z"/>
		<path class="st12" d="M661.5,311.5c-5.8,3.2-12.9-0.3-15.6-1.8c-3.1-4.1-4.2-9.5-2.7-14.7c0,0,9.5-5.6,19.5-3.2
			c0.6,0.2,1.3,0.3,1.9,0.6c-0.1,2.2-0.4,4.5-0.7,6.9l-0.1,0c-2.2-1.5-5.2-1-6.7,1.2c-1.5,2.2-1,5.2,1.2,6.7
			c1.3,0.9,2.8,1.1,4.2,0.6l0.1,0c-0.2,1.2-0.5,2.5-0.8,3.8L661.5,311.5z"/>
		<path class="st13" d="M536.1,603.8l141.1,0.2c-0.7,8.5-1.4,16.2-2.1,23.1h-15.3h-22.1H536.1V603.8z"/>
		<path class="st34" d="M812.1,574.3c-2.8,0.2-7.8-1.8-8.3-4.5l-0.2-6.4c2.3,0,33.7-0.4,31.9-20.7c-1.9-21-7.3-47.5-11.1-52.3
			c-3.1-3.9-22-19.9-36-40.2c1.5-0.4,3-0.7,4.6-1c11,13.7,26.4,27.7,34,33.7c2.5,2,4.2,4.8,4.9,7.9c4,18.3,14.8,53.7,19.2,65.4
			c0.9,2.3,1.3,4.9-0.7,6.2c-4.6,3.2-9.8,5.5-14.8,7.2C826.5,572.8,817.6,573.9,812.1,574.3z"/>
		<path class="st39" d="M770.5,442c-9.4,5-22.8,8.2-35.2-2.8c0,0-18.3,13.6-37.3,28.4c-10.4,8.1-17.9,19.3-21.5,32l-13.9,48.7
			c-0.4,1.5-0.4,4.8,5.1,7.5c2.9,1.5,7.3,2.8,13.9,3.6"/>
		<path class="st39" d="M788.8,601.4c0.2-6.9,0.5-14.3,1-22c1.5-25.2,7.6-41.3,9-51.5c0.3-2.1,3.3-2.1,3.7,0l1.2,35.5l0.2,6.4
			c0.4,2.7,5.5,4.7,8.3,4.5c5.5-0.4,14.4-1.5,23.5-4.6c5-1.7,10.2-4,14.8-7.2c2-1.4,1.6-3.9,0.7-6.2c-4.4-11.7-15.2-47.1-19.2-65.4
			c-0.7-3.1-2.4-5.9-4.9-7.9c-7.6-6.1-23-20-34-33.7c-4.5-5.5-8.2-11.1-10.4-16c0,0-1,1-2.8,2.5c-2.1,1.7-5.3,4.1-9.2,6.1"/>
		<path class="st39" d="M675.1,627c-0.4,4-0.8,7.8-1.2,11.3c-1.7,14.8-3.3,25.4-4.7,33.3c-1,5.1-1.8,9-2.7,12.2
			c-0.7,2.7,1,5.5,3.7,6.1c1.3,0.3,2.8,0.6,4.6,1c10.9,2.3,29.9,5.3,50.6,4.4c21.5-0.9,44.7-5.9,62.7-20.4c1-0.8,1.9-1.6,2.8-2.4
			c0,0-1.4-13.1-2.1-34.3c-0.2-6.9-0.3-14.7-0.3-23.1"/>
		<path class="st39" d="M688.7,505.8c-0.1,3.1-2.3,16.8-4.9,36.7c-0.7,5.2-1.4,10.8-2.1,16.8c-0.4,3.8-0.9,7.7-1.3,11.8"/>
		<path class="st39" d="M720.5,740c0,0,10.3,2.7,22.6,2.6c6-0.3,13,44.3,19.6,80.2c1.1,5.7,2.1,11.2,3.1,16.3
			c1.7,1.8,6.3,3,11.8,3.6c5.3,0.6,11.4,0.7,16.6,0.1c3.7-0.4,7-1,9.3-2c0,0-15.3-117.1-15.3-165.7"/>
		<path class="st39" d="M674.7,691.1c0,0,0,1.3,0.1,3.9c0.5,12.3,2.8,53.9,12,125.5c0.6,4.4,1.2,8.8,1.8,13.4
			c0.4,3.1,5.7,5.2,12.6,6.1c5.2,0.7,11.3,0.8,16.7,0.2c3.2-0.4,6.1-1,8.5-1.8c-3.6-17.3-6.8-74.2-6.1-96.9"/>
		<path class="st39" d="M693.6,935.4c1-0.4,2.1-0.6,3.2-0.7c4.1-0.5,8.6,0.6,13,4c1.2,0.9,2.4,2,3.5,3.3c0.6,0.7,1.2,1.4,1.8,2.2"/>
		<path class="st39" d="M685.8,941.1c1.9-2.6,4.6-4.6,7.8-5.6"/>
		<path class="st39" d="M720.4,927.8l2.4,2.5c2.1,2.2,3,5.7,1.2,8.1c-2,2.7-4.4,5.4-6.7,7.7c-3.9,3.9-7.7,6.9-10.1,7.5
			c-5.5,1.3-13.1,0.6-18.5-1.1c-4.3-1.4-6.4-4.8-4.5-8.9c0.4-0.9,0.9-1.7,1.5-2.5"/>
		<path class="st39" d="M693.4,935.5c0,0,0,0,0.1,0c0,0,0,0,0,0c0.4-0.1,1.6-0.3,3.2-0.7c4.1-1,10.6-3.2,13-6.9"/>
		<path class="st39" d="M725.4,696.4l0,4.4l0.2,21.8c0,5.1,3.8,9.5,8.9,10.3"/>
		<path class="st39" d="M663.9,432.5c-2.2-1.4-4.3-3-6.2-5c-11.8-12.2-29.2-54.6-32.3-77.9c-3.3-25,2.3-40.5,8.2-62.7
			c1.1-4.1,1.7-8.7,2.1-13.1c0.3-3.6,0.4-7,0.4-9.9c0.1-4.4-0.1-7.5-0.1-7.5"/>
		<path class="st39" d="M790.4,358.3c-5.1,7.2-10.5,36.5-18.3,44.3c-3.8,3.8-20.2,11.5-36.8,18.6c-17.3,7.4-34.9,14.2-39,15.6
			c-6.7,2.2-20.5,2.7-31.7-4"/>
		<path class="st39" d="M810.9,306.1c4.1-1.5,7.8-1.2,9.7,0.8c6.1,6.6,3.7,11.6,1.6,14.6c-0.3,0.4-0.5,0.8-0.7,1.1
			c-1,1.5-2,3-2.9,4.5c-3.5,5.9-10.5,18.6-12.8,30c-0.8,4-4.9,6.6-8.9,5.5c-1.6-0.4-3.3-1.3-4.6-2.6c-0.6-0.5-1.1-1.1-1.6-1.8
			c-0.7-1.1-1.3-2.3-1.7-3.8"/>
		<path class="st39" d="M797.5,317c4-5.7,8.9-9.3,13.3-10.9"/>
		<path class="st40" d="M797.4,317.2c0-0.1,0.1-0.1,0.1-0.1"/>
		<path class="st39" d="M791.6,329.8c1.3-4.9,3.4-9.2,5.8-12.6"/>
		<path class="st39" d="M810.3,329.8c0,0,2.1-3.4,3.3-6.8c0.7-2,1.2-4.1,0.7-5.5c-1.3-3.7-16.7,5.2-18.5,17.8c0,0,0.2,0,0.6,0
			c1.3-0.1,4.5,0,6.6,1.7c1.3,1.1,2.3,2.7,2.1,5.4c-0.4,8.4-11.1,7.5-14.5,1.6c-0.1-0.1-0.2-0.3-0.2-0.4"/>
		<path class="st39" d="M688.7,355.7c1.3,12.7-23.2,13.7-35.5,6.6c-1.9-1.1-3.6-2.4-4.7-3.9c-5.1-6.5,3.7-11.4,11-36.4
			c0.6-1.9,1.1-3.8,1.5-5.7c0.4-1.6,0.7-3.1,1.1-4.6c0.3-1.3,0.5-2.5,0.8-3.8c0.6-3,1-5.8,1.3-8.5c0.3-2.4,0.5-4.7,0.7-6.9
			c0.1-1.8,0.2-3.6,0.3-5.3c0.1-3.3,0.1-6.2,0-8.8c-0.1-1.8-0.1-3.3-0.2-4.8c0-0.2,0-0.4,0-0.5c0,0-14.5-15.3-28.8,0.8"/>
		<path class="st39" d="M735.6,422c0,0,0.2,2.7,0.2,6.6c0,3-0.1,6.8-0.5,10.5"/>
		<path class="st39" d="M782.5,433.3c-3.9-23,9.7-73.3,9.7-73.3"/>
		<path class="st39" d="M701.1,840.7c0,0,0.2,1.7,0.5,4.7c1.4,12.8,5.3,49.8,8.2,82.4c0,0,2.4,2.2,6,1.8c1.4-0.1,2.9-0.6,4.6-1.8
			c-1.1-25.5,3.6-54-2.4-87"/>
		<path class="st39" d="M808.4,946.5c-0.1-0.2-0.6-1-1.2-2.2c-1.8-3.3-4.9-9.4-5.1-12.5"/>
		<path class="st39" d="M808.5,946.5C808.5,946.5,808.5,946.5,808.5,946.5c-0.6-0.9-1.2-1.7-1.9-2.5c-5.5-5.6-14.9-6.1-21.1-2
			c-1.7,1.1-3.1,2.4-4.2,4.1c-0.7,1.1-1.3,2.3-1.7,3.7c-0.2,0.6-0.3,1.3-0.2,1.9c0.1,2.4,1.4,4.6,3.7,5.2c8,2.2,16,1.8,21.7,0.7
			C811.7,956.2,810.6,948.7,808.5,946.5"/>
		<path class="st39" d="M785.4,941.9c0,0,4.8-4.2,6.2-10.1"/>
		<path class="st39" d="M777.5,843.3c0,0,0.2,1.4,0.6,4c1.9,12.2,7.8,50.1,13.5,84.4c0,0,4.6,4.2,10.6,0c-1-15.5-2.2-51.2-7.9-88.5"
			/>
		<path class="st39" d="M615.6,258.4c6.4-1.4,13.4-2.2,20.4-1.9c5.5,0.2,11,1.1,16.3,3.1c4,1.5,8.4,3.2,13.1,5
			c27.9,10.8,65.4,25.2,86.5,21.3c4.6-0.9,8.9-2,12.7-3.2c4.6-1.5,8.7-3.2,12.2-4.9c8.9-4.4,13.7-8.5,13.7-8.5"/>
		<path class="st39" d="M589.3,267.4c2.8-1.4,13.2-6.2,26.2-9"/>
		<path class="st39" d="M588.6,267.7l0.2-0.1c0,0,0,0,0.1,0c0.1,0,0.2-0.1,0.3-0.2"/>
		<line class="st39" x1="589.1" y1="267.5" x2="588.8" y2="267.6"/>
		<path class="st39" d="M589.1,267.5c0.1,0,0.1-0.1,0.2-0.1"/>
		<path class="st39" d="M648.5,239.5c-9.5,2-14,4.7-14,4.7l-45.1,23.2"/>
		<path class="st39" d="M756.2,254.6c-55.2-20.6-90-18.9-107.7-15"/>
		<path class="st39" d="M756.6,254.7c-0.1,0-0.2-0.1-0.3-0.1c-0.1,0-0.1-0.1-0.2-0.1"/>
		<path class="st39" d="M757.2,255c-0.1,0-0.2-0.1-0.3-0.1"/>
		<path class="st39" d="M802.7,194.8c13.4,11.5,22.9,23.4,25.8,30.6c4.8,11.9-2.1,34.7-7,47.8c-2.2,6-4,9.9-4,9.9
			c-9.4-5.2-18.5-9.8-27.1-13.9c-11.8-5.6-22.8-10.3-33.1-14.2"/>
		<path class="st39" d="M634.4,244.2c0,0,3.3-8.5,7.8-19.2c7-16.7,16.7-38.8,21.1-42.8c7.2-6.5,22.2-19.4,67.1-19.4
			c26.4,0,53.2,15.6,72.2,32.1"/>
		<path class="st39" d="M588.6,267.7c0,0,7.8,8.2,20.1,4.4c7.5-2.4,18.5-5.5,27.1-8.2"/>
		<path class="st41" d="M642.6,225.1c0,0,5.6-1.4,15.5-2.3c23.9-2.2,73-1.4,130.1,29.3c10.9,5.9,22,12.8,33.4,21"/>
		<path class="st39" d="M662.4,389.3c0,0,30.9,12.2,57-14.4c0,0,4.6-0.7,6.6,4.6"/>
		<path class="st39" d="M675.9,398.7c0,0,14.4,2.2,23.9-4.3"/>
		<path class="st40" d="M776.8,277.9c0,0,23.6,12.2,20.6,39.3c0,0,0,0,0,0"/>
		<path class="st39" d="M817.6,283c-5.1,13-6.6,22.6-6.7,23.1c0,0,0,0,0,0"/>
		<path class="st39" d="M730.9,300.2c0.7,1.8,1,3.8,1,5.9c0,2.5-0.5,5-1.5,7.1c-2.7,6-8.8,10.2-15.8,10.2c-5.8,0-10.9-2.8-14.1-7.2
			c-2.1-2.9-3.3-6.4-3.3-10.2c0-2.1,0.4-4.1,1-5.9c1-2.8,2.7-5.2,4.8-7.1c3.1-2.7,7.1-4.4,11.5-4.4c1.5,0,3,0.2,4.4,0.6
			c5.1,1.3,9.3,5,11.5,9.7C730.6,299.4,730.7,299.8,730.9,300.2"/>
		<path class="st42" d="M661.1,316.2c-0.1,0-0.1,0-0.2,0c-2.1,0.2-4.2,0.1-6.4-0.6c-3.5-1.1-6.5-3.2-8.6-5.9
			c-3.1-4.1-4.2-9.5-2.7-14.7c2-6.8,9.2-11.9,16.1-10.6c1.9,0.4,3.8,1.3,5.6,2.7c0.1,0.1,0.2,0.2,0.3,0.3"/>
		<path class="st43" d="M720.3,310.8c-0.2,2.6-2.4,4.7-5,4.5c-2.6-0.1-4.7-2.4-4.5-5c0.2-2.6,2.4-4.7,5-4.5
			C718.4,305.9,720.4,308.1,720.3,310.8z"/>
		<path class="st43" d="M662.6,307.8c-1.4,0.4-2.9,0.2-4.2-0.6c-2.2-1.5-2.7-4.5-1.2-6.7c1.5-2.2,4.5-2.7,6.7-1.2"/>
		<path class="st39" d="M778.9,617.6c3.3-0.8,6.5-1.7,9.6-2.5c22.3-6.1,37.4-11.8,43.7-14.3c2-0.8,3.4-2.7,3.4-4.9
			c0,0,0-13.9,0-26.1c0,0,0,0,0,0"/>
		<path class="st39" d="M707.9,627c1.1,1.7,4.3,5.2,11.6,6c8,0.9,10.5-5.1,14.8-6"/>
		<path class="st39" d="M812.1,574.3L812.1,574.3l0.6,4.3l1.3,8.3c0.3,2.4-1.1,4.6-3.3,5.5c-4.3,1.7-12.1,5.2-21.9,9.3
			c-3.1,1.3-6.5,2.7-10,4.1"/>
		<line class="st39" x1="667.6" y1="555.7" x2="665.9" y2="571"/>
		<path class="st39" d="M637.7,627c0,0,11,13.8,22.1,0"/>
		<polyline class="st39" points="665.9,571.1 680.4,571.1 752.9,571.1 773.5,596.8 778.9,603.4 		"/>
		<polygon class="st39" points="778.9,617.6 778.9,627 769.3,627 734.3,627 707.9,627 675.1,627 659.8,627 637.7,627 536.1,627 
			536.1,603.8 536.1,603.4 677.3,603.4 772.5,603.4 778.9,603.4 778.9,604.1 778.9,605.7 778.9,610.9 		"/>
		<path class="st44" d="M643.3,295c0,0,9.5-5.6,19.5-3.2c0.6,0.2,1.3,0.3,1.9,0.6h0"/>
		<path class="st44" d="M698.2,300.2c0,0,5.8-4.2,15.2-4.3c2.8-0.1,5.8,0.3,9.1,1.1c1.5,0.4,3.1,0.9,4.7,1.5c1.2,0.5,2.4,1,3.7,1.7
			h0"/>
		<path class="st45" d="M702.2,582c-7.6-0.6-33.7-3.9-55-3.3c0.2,11.1,10,17.9,10,17.9S692.2,587.8,702.2,582z"/>
		
			<ellipse transform="matrix(0.9938 -0.1112 0.1112 0.9938 -60.9094 76.2872)" class="st0" cx="653.4" cy="584.1" rx="2.5" ry="1.8"/>
		
			<ellipse transform="matrix(0.9938 -0.1112 0.1112 0.9938 -60.7277 79.6652)" class="st0" cx="683.7" cy="584.2" rx="3.1" ry="2.4"/>
		<path class="st0" d="M671.8,592.8c0.2-0.4,0.2-0.9,0.2-1.4c-0.2-1.9-2.2-3.2-4.4-3c-2.2,0.2-3.8,2-3.6,3.9
			c0.1,0.9,0.6,1.6,1.2,2.1L671.8,592.8z"/>
		<polyline class="st46" points="536.1,602.5 599.8,569.6 752.9,569.6 778.9,602.3 		"/>
		<path class="st27" d="M458.7,466h-37.9c-7.6,0-13.8-6.2-13.8-13.8v0c0-7.6,6.2-13.8,13.8-13.8h37.9c7.6,0,13.8,6.2,13.8,13.8v0
			C472.6,459.8,466.4,466,458.7,466z"/>
		<g>
			<g>
				<path class="st12" d="M428.7,452.1c0,3.5-1.9,6.9-5.8,6.9c-3.8,0-5.7-3.5-5.7-7c0-3.5,1.9-6.9,5.7-6.9
					C426.8,445.1,428.7,448.6,428.7,452.1z M418.6,452c0,2.9,1.5,5.7,4.4,5.7c2.9,0,4.4-2.8,4.4-5.6c0-2.9-1.5-5.7-4.4-5.7
					C420,446.4,418.6,449.2,418.6,452z"/>
				<path class="st12" d="M430.6,446.2c0-0.5,0.3-0.7,0.7-0.7h3.8c2.5,0,4.4,1.6,4.4,4.1c0,2.3-2,4-4.3,4h-3.3v4.6
					c0,0.4-0.2,0.7-0.6,0.7c-0.4,0-0.7-0.2-0.7-0.7V446.2z M431.9,446.8v5.5h3.3c1.6,0,3-1,3-2.7c0-1.7-1.4-2.7-3.3-2.7H431.9z"/>
				<path class="st12" d="M441.5,446.3c0-0.5,0.3-0.8,0.7-0.8h5.5c0.4,0,0.7,0.2,0.7,0.7c0,0.4-0.2,0.6-0.7,0.6h-4.9v4.4h4
					c0.4,0,0.7,0.2,0.7,0.7c0,0.4-0.2,0.6-0.7,0.6h-4v4.9h5c0.5,0,0.8,0.2,0.8,0.7c0,0.4-0.3,0.6-0.8,0.6h-5.6
					c-0.6,0-0.7-0.2-0.7-0.8V446.3z"/>
				<path class="st12" d="M450.3,446.3c0-0.5,0.2-0.8,0.6-0.8c0.3,0,0.6,0.2,0.9,0.6l7,10.3v-10.2c0-0.4,0.2-0.7,0.6-0.7
					c0.4,0,0.7,0.2,0.7,0.7V458c0,0.5-0.2,0.8-0.6,0.8c-0.3,0-0.6-0.2-0.9-0.5l-7-10.3v10.1c0,0.4-0.2,0.7-0.6,0.7
					c-0.4,0-0.7-0.2-0.7-0.7V446.3z"/>
			</g>
		</g>
	</g>
</g>
</svg>
