<?xml version="1.0" encoding="utf-8"?>
<!-- Generator: Adobe Illustrator 23.0.1, SVG Export Plug-In . SVG Version: 6.00 Build 0)  -->
<svg version="1.1" id="Layer_1" xmlns="http://www.w3.org/2000/svg" xmlns:xlink="http://www.w3.org/1999/xlink" x="0px" y="0px"
	 viewBox="0 0 800 600" style="enable-background:new 0 0 800 600;" xml:space="preserve">
<style type="text/css">
	.st0{fill:#84817D;}
	.st1{fill:#3A3A3A;}
	.st2{fill:#494744;}
	.st3{fill:#999692;}
	.st4{fill:#5E5C59;}
	.st5{fill:#4C4C49;}
	.st6{fill:#474541;}
	.st7{fill:#DBD0B3;}
	.st8{fill:#C6B99B;}
	.st9{fill:#E2D8C3;}
	.st10{fill:#FFFFFF;}
	.st11{fill:#E5E4E3;}
	.st12{fill:#5E5C58;}
	.st13{fill:#D42D66;}
	.st14{fill:#B91617;}
	.st15{fill:#EC7F22;}
	.st16{fill:#E6AA26;}
	.st17{fill:#858D1C;}
	.st18{fill:#2391B9;}
	.st19{opacity:0.28;}
	.st20{fill:#B2986B;}
	.st21{fill:#353533;}
	.st22{fill:#DB4F4F;}
	.st23{fill:#EA7A7A;}
	.st24{fill:#B73737;}
	.st25{fill:#777571;}
	.st26{fill:#3F3F3D;}
	.st27{fill:#EFACBB;}
	.st28{fill:#E58E69;}
	.st29{fill:#F7D03D;}
	.st30{fill:#F7E730;}
	.st31{fill:#D4D76E;}
	.st32{fill:#84DBEC;}
	.st33{opacity:0.18;}
</style>
<g>
	<path class="st0" d="M218.5,483.5c-9.4,0-17-7.6-17-17v-106c0-9.4,7.6-17,17-17h363c9.6,0,18,7.9,18,17v106c0,9.4-7.6,17-17,17
		H218.5z"/>
	<path class="st1" d="M581.5,345.5c8.3,0,16,6.7,16,15v106c0,8.3-6.7,15-15,15h-364c-8.3,0-15-6.7-15-15v-106c0-8.3,6.7-15,15-15
		H581.5 M581.5,341.5h-363c-10.5,0-19,8.5-19,19v106c0,10.5,8.5,19,19,19h364c10.5,0,19-8.5,19-19v-106
		C601.5,350.2,592.3,341.5,581.5,341.5z"/>
	<path class="st2" d="M585.5,448.5c0,8.3-6.7,15-15,15h-340c-8.3,0-15-6.7-15-15v-34c0-8.3,6.7-7,15-7h340c8.3,0,15-1.3,15,7V448.5z
		"/>
	<path class="st1" d="M570.5,465.5h-340c-9.4,0-17-7.6-17-17v-34c0-9.1,7.4-9.1,11.4-9.1c0.8,0,1.7,0,2.6,0c0.9,0,1.9,0,2.9,0h340
		c1,0,2,0,2.9,0s1.8,0,2.6,0c4,0,11.5,0,11.5,9.1v34C587.5,457.9,579.9,465.5,570.5,465.5z M225,409.4c-6,0-7.4,1-7.4,5.1v34
		c0,7.2,5.8,13,13,13h340c7.2,0,13-5.8,13-13v-34c0-4.1-1.5-5.1-7.5-5.1c-0.8,0-1.7,0-2.6,0c-1,0-2,0-3,0h-340c-1,0-2,0-3,0
		C226.6,409.4,225.8,409.4,225,409.4L225,409.4z"/>
	<path class="st0" d="M585.5,413.5c0,8.3-6.7,15-15,15h-340c-8.3,0-15-6.7-15-15v-6c0-8.3,6.7-15,15-15h340c8.3,0,15,6.7,15,15
		V413.5z"/>
	<path class="st3" d="M570.5,392.5h-340c-8.3,0-15,6.7-15,15v4c0-8.3,6.7-15,15-15h340c8.3,0,15,6.7,15,15v-4
		C585.5,399.2,578.8,392.5,570.5,392.5z"/>
	<path class="st4" d="M570.5,422.5h-340c-8.3,0-15-6.7-15-15v6c0,8.3,6.7,15,15,15h340c8.3,0,15-6.7,15-15v-6
		C585.5,415.8,578.8,422.5,570.5,422.5z"/>
	<path class="st1" d="M570.5,430.5h-340c-9.4,0-17-7.6-17-17v-6c0-9.4,7.6-17,17-17h340c9.4,0,17,7.6,17,17v6
		C587.5,422.9,579.9,430.5,570.5,430.5z M230.5,394.5c-7.2,0-13,5.8-13,13v6c0,7.2,5.8,13,13,13h340c7.2,0,13-5.8,13-13v-6
		c0-7.2-5.8-13-13-13H230.5z"/>
	<path class="st0" d="M466.8,129.5c-7.3,0-13.3-5.9-13.3-13.3v-0.5c0-7.3,5.9-13.3,13.3-13.3h59.5c7.3,0,13.3,5.9,13.3,13.3v0.5
		c0,7.3-5.9,13.3-13.3,13.3H466.8z"/>
	<path class="st1" d="M526.4,104.5c6.2,0,11.1,5,11.1,11.3v0.5c0,6.2-5,11.3-11.3,11.3h-59.5c-6.2,0-11.3-5-11.3-11.3v-0.5
		c0-6.2,5-11.3,11.3-11.3H526.4 M526.2,100.5h-59.5c-8.4,0-15.3,6.8-15.3,15.3v0.5c0,8.4,6.8,15.3,15.3,15.3h59.5
		c8.4,0,15.3-6.8,15.3-15.3v-0.5C541.5,107.3,534.7,100.5,526.2,100.5z"/>
	<path class="st4" d="M526.2,104.5h-35.7v13h46.9c0-0.4,0.1-0.8,0.1-1.3v-0.5C537.5,109.5,532.5,104.5,526.2,104.5z"/>
	<rect x="483.5" y="104.5" class="st4" width="4" height="12"/>
	<rect x="479.5" y="104.5" class="st4" width="2" height="12"/>
	<path class="st0" d="M225.4,138.5c-0.8,0-1.6-0.5-1.9-1.3c-0.3-0.8-0.1-1.7,0.6-2.2c0.5-0.4,12.6-10.9,19.3-14.2
		c10.6-5.3,17.3-5.3,42.2-5.3h230.8c24.9,0,31.6,0,42.2,5.3c6.6,3.3,18.8,13.7,19.3,14.2c0.6,0.6,0.9,1.4,0.6,2.2
		c-0.3,0.8-1,1.3-1.9,1.3l-174.1-3h-3C399.5,135.5,225.5,138.5,225.4,138.5L225.4,138.5z"/>
	<path class="st1" d="M516.4,117.5c24.6,0,31.1,0,41.3,5.1c6.5,3.2,18.8,13.9,18.8,13.9l-174-3h-3l-174.1,3c0,0,12.4-10.7,18.8-13.9
		c10.1-5.1,16.7-5.1,41.3-5.1H516.4 M516.4,113.5H285.6c-24.7,0-32.1,0-43.1,5.5c-6.8,3.4-19.1,14-19.7,14.5
		c-1.3,1.1-1.7,2.9-1.1,4.5c0.6,1.6,2.1,2.6,3.7,2.6h0.1l174-3h2.9l174,3h0.1c1.7,0,3.1-1,3.7-2.6c0.6-1.6,0.2-3.4-1.1-4.5
		c-0.5-0.4-12.8-11-19.7-14.5C548.5,113.5,541,113.5,516.4,113.5L516.4,113.5z"/>
	<path class="st4" d="M516.4,117.5H400.5v16h2l174,3c0,0-12.4-10.7-18.9-13.9C547.5,117.5,541,117.5,516.4,117.5L516.4,117.5z"/>
	<path class="st5" d="M407.1,133.4c-0.2,0.1-0.4,0.1-0.6,0.1l-4-0.1l-4,0.1c-0.2,0-0.4,0-0.6-0.1l-68.3,1c-0.6,0-1.2-0.3-1.6-0.8
		s-0.5-1.2-0.3-1.8c0.1-0.4,3-10,4.2-13.7l0.1-0.3c1.5-4.3,3.1-7.3,11.2-7.3h118.7c8.1,0,9.7,3,11.2,7.3l0.1,0.4
		c1.2,3.7,4.1,13.4,4.2,13.8c0.2,0.6,0.1,1.3-0.3,1.8s-1,0.8-1.6,0.8C475.4,134.5,407.1,133.4,407.1,133.4L407.1,133.4z"/>
	<path class="st1" d="M461.7,112.5c7.5,0,8.2,2.6,9.5,6.3s4.2,13.7,4.2,13.7l-68.9-1.1v0.1l-4-0.1l-4,0.1v-0.1l-68.9,1
		c0,0,2.9-9.9,4.2-13.6s1.9-6.3,9.4-6.3h118.3 M461.9,108.5H343.2c-9.4,0-11.5,3.9-13.1,8.7l-0.1,0.3c-1.3,3.7-4.1,13.4-4.2,13.8
		c-0.4,1.2-0.1,2.6,0.6,3.6c0.8,1,1.9,1.6,3.2,1.6h0.1l68-1.1c0.3,0.1,0.6,0.1,0.9,0.1h0.1l4-0.1l3.9,0.1h0.1c0.3,0,0.6,0,0.8-0.1
		l68,1.1h0.1c1.2,0,2.4-0.6,3.2-1.6c0.8-1,1-2.3,0.7-3.5c-0.1-0.4-2.9-10.1-4.2-13.8l-0.1-0.4C473.4,112.4,471.3,108.5,461.9,108.5
		L461.9,108.5z"/>
	<path class="st6" d="M475.4,132.4c-0.2-0.7-2.9-10.1-4.1-13.6c-1.2-3.7-1.9-6.3-9.4-6.3h-45.4v19L475.4,132.4L475.4,132.4z"/>
	<path class="st7" d="M217.5,305.5c-1.1,0-2-0.9-2-2v-155c0-9.4,7.6-17,17-17h335c9.4,0,17,7.6,17,17v155c0,1.1-0.9,2-2,2H217.5z"/>
	<path class="st1" d="M567.5,133.5c8.3,0,15,6.7,15,15v155h-365v-155c0-8.3,6.7-15,15-15H567.5 M567.5,129.5h-335
		c-10.5,0-19,8.5-19,19v155c0,2.2,1.8,4,4,4h365c2.2,0,4-1.8,4-4v-155C586.5,138,578,129.5,567.5,129.5z"/>
	<path class="st8" d="M571.5,217.5c0,8.3-6.7,15-15,15h-58c-8.3,0-15-6.7-15-15v-29c0-8.3,6.7-15,15-15h58c8.3,0,15,6.7,15,15V217.5
		z"/>
	<path class="st8" d="M324.5,209.5c0,8.3-6.7,15-15,15h-58c-8.3,0-15-6.7-15-15v-8c0-8.3,6.7-15,15-15h58c8.3,0,15,6.7,15,15V209.5z
		"/>
	<path class="st8" d="M217.5,381.5c-9.4,0-17-7.6-17-17v-11c0-1.1,0.9-2,2-2h395c1.1,0,2,0.9,2,2v11c0,9.4-7.6,17-17,17H217.5z"/>
	<path class="st1" d="M597.5,353.5v11c0,8.3-6.7,15-15,15h-365c-8.3,0-15-6.7-15-15v-11H597.5 M597.5,349.5h-395c-2.2,0-4,1.8-4,4
		v11c0,10.5,8.5,19,19,19h365c10.5,0,19-8.5,19-19v-11C601.5,351.3,599.7,349.5,597.5,349.5z"/>
	<path class="st7" d="M217.5,362.5c-8.1,0-13-1.5-15.3-4.6c-2.6-3.5-1.2-8,0.1-12c0.1-0.4,0.3-0.9,0.4-1.3
		c2.2-7.2,13.1-41.3,13.2-41.7c0.3-0.8,1-1.4,1.9-1.4l172.6-0.1h0.1h18h0.1l173.8,0.1c0.9,0,1.6,0.6,1.9,1.4
		c0.1,0.3,11.1,34.5,13.2,41.7c0.1,0.4,0.3,0.9,0.4,1.3c1.2,4,2.6,8.5,0.1,12c-2.3,3.1-7.2,4.6-15.3,4.6H217.5L217.5,362.5z"/>
	<path class="st1" d="M408.5,303.5L408.5,303.5l173.9,0.1c0,0,11.1,34.4,13.2,41.6s5.9,15.3-12.9,15.3H217.5
		c-18.8,0-15.1-8.1-13-15.3s13.2-41.6,13.2-41.6l172.8-0.1l0,0h9H408.5 M408.5,299.5h-9h-9c-0.1,0-0.1,0-0.2,0l-172.6,0.1
		c-1.7,0-3.3,1.1-3.8,2.8c-0.4,1.4-11,34.5-13.2,41.7c-0.1,0.4-0.3,0.8-0.4,1.3c-1.3,4.2-2.9,9.5,0.2,13.8c2.7,3.7,8.1,5.4,16.9,5.4
		h365.2c8.8,0,14.2-1.7,16.9-5.4c3.2-4.3,1.5-9.5,0.2-13.8c-0.1-0.4-0.3-0.9-0.4-1.3c-2.2-7.2-12.8-40.3-13.3-41.7
		c-0.5-1.7-2.1-2.8-3.8-2.8L408.5,299.5C408.6,299.5,408.6,299.5,408.5,299.5L408.5,299.5z"/>
	<path class="st9" d="M582.7,356.5H217.5c-10.1,0-13.7-2.3-14.5-5.5c-1,5.2,0.7,9.5,14.5,9.5h365.2c13.8,0,15.5-4.3,14.5-9.5
		C596.4,354.2,592.7,356.5,582.7,356.5z"/>
	<path class="st10" d="M220.6,497.5c-0.6,0-1.2-0.3-1.6-0.8c-0.4-0.5-0.5-1.1-0.4-1.7l15.4-65.1c0.2-0.9,1-1.5,1.9-1.5l164.6,0.1
		l164.6-0.1c0.9,0,1.7,0.6,1.9,1.5l15.4,65.1c0.1,0.6,0,1.2-0.4,1.7s-1,0.8-1.6,0.8H220.6L220.6,497.5z"/>
	<path class="st1" d="M565.1,430.4l15.4,65.1h-360l15.4-65.1l164.6,0.1L565.1,430.4 M565.1,426.5L565.1,426.5l-164.6,0.1l-164.6-0.1
		l0,0c-1.9,0-3.5,1.2-3.9,3l-15.4,65.1c-0.3,1.2,0,2.4,0.8,3.4s1.9,1.5,3.1,1.5h360c1.2,0,2.4-0.6,3.1-1.5c0.8-1,1-2.2,0.8-3.4
		L569,429.5C568.6,427.7,567,426.5,565.1,426.5L565.1,426.5z"/>
	<polygon class="st11" points="549.5,430.4 400.5,430.5 250.2,430.4 245.9,453.5 554.5,453.5 	"/>
	<path class="st12" d="M403,284.1c-38.5,0-69.8-31.3-69.8-69.8s31.3-69.8,69.8-69.8s69.8,31.3,69.8,69.8S441.5,284.1,403,284.1z"/>
	<path class="st1" d="M403,146.6c37.4,0,67.8,30.3,67.8,67.8s-30.3,67.8-67.8,67.8c-37.4,0-67.8-30.3-67.8-67.8
		S365.6,146.6,403,146.6 M403,142.6c-39.6,0-71.8,32.2-71.8,71.8s32.2,71.8,71.8,71.8s71.8-32.2,71.8-71.8S442.6,142.6,403,142.6z"
		/>
	<rect x="385.5" y="281.5" class="st13" width="5" height="18"/>
	<rect x="390.5" y="281.5" class="st14" width="6" height="18"/>
	<rect x="396.5" y="281.5" class="st15" width="6" height="18"/>
	<rect x="402.5" y="281.5" class="st16" width="6" height="18"/>
	<rect x="408.5" y="281.5" class="st17" width="5" height="18"/>
	<rect x="413.5" y="281.5" class="st18" width="6" height="18"/>
	<g class="st19">
		<circle class="st20" cx="403.2" cy="227.8" r="72.7"/>
	</g>
	<path class="st11" d="M403,294.1c-38.5,0-69.8-31.3-69.8-69.8s31.3-69.8,69.8-69.8s69.8,31.3,69.8,69.8S441.5,294.1,403,294.1z"/>
	<path class="st1" d="M403,156.6c37.4,0,67.8,30.3,67.8,67.8s-30.3,67.8-67.8,67.8c-37.4,0-67.8-30.3-67.8-67.8
		S365.6,156.6,403,156.6 M403,152.6c-39.6,0-71.8,32.2-71.8,71.8s32.2,71.8,71.8,71.8s71.8-32.2,71.8-71.8S442.6,152.6,403,152.6z"
		/>
	<path class="st5" d="M403,286.2c-34.1,0-61.8-27.7-61.8-61.8s27.7-61.8,61.8-61.8s61.8,27.7,61.8,61.8S437.1,286.2,403,286.2z"/>
	<path class="st1" d="M403,164.6c33,0,59.8,26.8,59.8,59.8S436,284.2,403,284.2s-59.8-26.8-59.8-59.8S370,164.6,403,164.6
		 M403,160.6c-35.2,0-63.8,28.6-63.8,63.8s28.6,63.8,63.8,63.8s63.8-28.6,63.8-63.8S438.2,160.6,403,160.6z"/>
	<path class="st5" d="M403,278.9c-30.1,0-54.5-24.5-54.5-54.5s24.5-54.5,54.5-54.5c30.1,0,54.5,24.5,54.5,54.5
		S433.1,278.9,403,278.9z"/>
	<path class="st1" d="M403,171.9c29,0,52.5,23.5,52.5,52.5S432,276.9,403,276.9s-52.5-23.5-52.5-52.5S374,171.9,403,171.9
		 M403,167.9c-31.2,0-56.5,25.4-56.5,56.5s25.4,56.5,56.5,56.5c31.2,0,56.5-25.4,56.5-56.5S434.2,167.9,403,167.9z"/>
	<path class="st5" d="M403,272.4c-26.5,0-48-21.5-48-48s21.5-48,48-48s48,21.5,48,48S429.5,272.4,403,272.4z"/>
	<path class="st1" d="M403,178.4c25.4,0,46,20.6,46,46s-20.6,46-46,46s-46-20.6-46-46S377.6,178.4,403,178.4 M403,174.4
		c-27.6,0-50,22.4-50,50s22.4,50,50,50s50-22.4,50-50S430.6,174.4,403,174.4z"/>
	<path class="st5" d="M403,266.2c-23,0-41.8-18.7-41.8-41.8s18.7-41.8,41.8-41.8s41.8,18.7,41.8,41.8S426,266.2,403,266.2z"/>
	<path class="st1" d="M403,184.6c22,0,39.8,17.8,39.8,39.8S425,264.2,403,264.2s-39.8-17.8-39.8-39.8S381.1,184.6,403,184.6
		 M403,180.6c-24.1,0-43.8,19.6-43.8,43.8s19.6,43.8,43.8,43.8s43.8-19.6,43.8-43.8S427.2,180.6,403,180.6z"/>
	<path class="st5" d="M403,259.8c-19.5,0-35.4-15.9-35.4-35.4S383.5,189,403,189s35.4,15.9,35.4,35.4S422.5,259.8,403,259.8
		L403,259.8z"/>
	<path class="st1" d="M403,191c18.4,0,33.4,14.9,33.4,33.4c0,18.4-15,33.4-33.4,33.4s-33.4-14.9-33.4-33.4
		C369.6,206,384.6,191,403,191 M403,187c-20.6,0-37.4,16.8-37.4,37.4s16.8,37.4,37.4,37.4s37.4-16.8,37.4-37.4S423.6,187,403,187z"
		/>
	<path class="st21" d="M403,255.8c-17.3,0-31.5-14.1-31.5-31.4S385.6,193,403,193s31.5,14.1,31.5,31.4S420.4,255.8,403,255.8z"/>
	<path class="st1" d="M403,194.9c16.3,0,29.5,13.2,29.5,29.4s-13.2,29.4-29.5,29.4s-29.5-13.2-29.5-29.4S386.8,194.9,403,194.9
		 M403,190.9c-18.4,0-33.5,15-33.5,33.4s15,33.5,33.5,33.5s33.5-15,33.5-33.5S421.5,190.9,403,190.9L403,190.9z"/>
	<path class="st7" d="M281.8,288c-16.6,0-30.1-13.5-30.1-30.1s13.5-30.1,30.1-30.1s30.1,13.5,30.1,30.1S298.4,288,281.8,288z"/>
	<path class="st1" d="M281.8,229.8c15.5,0,28.1,12.6,28.1,28.1c0,15.5-12.6,28.1-28.1,28.1s-28.1-12.6-28.1-28.1
		S266.3,229.8,281.8,229.8 M281.8,225.8c-17.7,0-32.1,14.4-32.1,32.1c0,17.7,14.4,32.1,32.1,32.1s32.1-14.4,32.1-32.1
		S299.5,225.8,281.8,225.8z"/>
	<path class="st8" d="M253.7,257.5c0,16,12.6,28.1,28.1,28.1s28.1-12.1,28.1-28.1H253.7z"/>
	<path class="st22" d="M281.8,279.6c-12,0-21.7-9.7-21.7-21.7c0-12,9.7-21.7,21.7-21.7s21.7,9.7,21.7,21.7
		C303.5,269.9,293.8,279.6,281.8,279.6z"/>
	<path class="st1" d="M281.8,238.2c10.9,0,19.7,8.8,19.7,19.7c0,10.9-8.8,19.7-19.7,19.7s-19.7-8.8-19.7-19.7
		C262.1,247,270.9,238.2,281.8,238.2 M281.8,234.2c-13.1,0-23.7,10.6-23.7,23.7s10.6,23.7,23.7,23.7s23.7-10.6,23.7-23.7
		C305.5,244.9,294.9,234.2,281.8,234.2z"/>
	<path class="st23" d="M281.8,240.2c10.5,0,19.1,8.3,19.6,18.7c0-0.3,0-0.7,0-1c0-10.9-8.8-19.7-19.7-19.7S262,247,262,257.9
		c0,0.3,0,0.7,0,1C262.7,248.5,271.3,240.2,281.8,240.2L281.8,240.2z"/>
	<path class="st24" d="M281.8,272.6c-10,0-18.3-7.5-19.5-17.2c-0.1,0.8-0.2,1.7-0.2,2.5c0,10.9,8.8,19.7,19.7,19.7
		s19.7-8.8,19.7-19.7c0-0.8-0.1-1.7-0.2-2.5C300.1,265.1,291.8,272.6,281.8,272.6L281.8,272.6z"/>
	<path class="st5" d="M502.5,226.5c-9.4,0-17-7.6-17-17v-41c0-9.4,7.6-17,17-17h50c9.4,0,17,7.6,17,17v41c0,9.4-7.6,17-17,17H502.5z
		"/>
	<path class="st1" d="M552.5,153.5c8.3,0,15,6.7,15,15v41c0,8.3-6.7,15-15,15h-50c-8.3,0-15-6.7-15-15v-41c0-8.3,6.7-15,15-15H552.5
		 M552.5,149.5h-50c-10.5,0-19,8.5-19,19v41c0,10.5,8.5,19,19,19h50c10.5,0,19-8.5,19-19v-41C571.5,158,563,149.5,552.5,149.5z"/>
	<path class="st25" d="M552.5,153.5h-50c-8.3,0-15,6.7-15,15v3c0-8.3,6.7-15,15-15h50c8.3,0,15,6.7,15,15v-3
		C567.5,160.2,560.8,153.5,552.5,153.5z"/>
	<path class="st6" d="M552.5,220.5h-50c-8.3,0-15-6.7-15-15v4c0,8.3,6.7,15,15,15h50c8.3,0,15-6.7,15-15v-4
		C567.5,213.8,560.8,220.5,552.5,220.5z"/>
	<path class="st5" d="M255.5,219.5c-9.4,0-17-7.6-17-17v-5c0-9.4,7.6-17,17-17h50c9.4,0,17,7.6,17,17v5c0,9.4-7.6,17-17,17H255.5z"
		/>
	<path class="st1" d="M305.5,182.5c8.3,0,15,6.7,15,15v5c0,8.3-6.7,15-15,15h-50c-8.3,0-15-6.7-15-15v-5c0-8.3,6.7-15,15-15H305.5
		 M305.5,178.5h-50c-10.5,0-19,8.5-19,19v5c0,10.5,8.5,19,19,19h50c10.5,0,19-8.5,19-19v-5C324.5,187,316,178.5,305.5,178.5z"/>
	<path class="st25" d="M305.5,182.5h-50c-8.3,0-15,6.7-15,15v2c0-8.3,6.7-15,15-15h50c8.3,0,15,6.7,15,15v-2
		C320.5,189.2,313.8,182.5,305.5,182.5z"/>
	<path class="st6" d="M305.5,212.5h-50c-8.3,0-15-6.7-15-15v5c0,8.3,6.7,15,15,15h50c8.3,0,15-6.7,15-15v-5
		C320.5,205.8,313.8,212.5,305.5,212.5z"/>
	<path class="st8" d="M511.1,290.8c-14.7,0-26.6-11.9-26.6-26.6s11.9-26.6,26.6-26.6c14.7,0,26.6,11.9,26.6,26.6
		C537.8,278.9,525.8,290.8,511.1,290.8L511.1,290.8z"/>
	<path class="st1" d="M511.1,239.6c13.6,0,24.6,11,24.6,24.6c0,13.6-11,24.6-24.6,24.6s-24.6-11-24.6-24.6
		C486.5,250.6,497.5,239.6,511.1,239.6 M511.1,235.6c-15.8,0-28.6,12.8-28.6,28.6c0,15.8,12.8,28.6,28.6,28.6s28.6-12.8,28.6-28.6
		S526.9,235.6,511.1,235.6z"/>
	<path class="st5" d="M511.1,293.8c-13.6,0-24.6-11-24.6-24.6c0-13.6,11-24.6,24.6-24.6s24.6,11.1,24.6,24.6
		C535.8,282.8,524.7,293.8,511.1,293.8L511.1,293.8z"/>
	<path class="st1" d="M511.1,246.6c12.5,0,22.6,10.1,22.6,22.6s-10.1,22.6-22.6,22.6s-22.6-10.1-22.6-22.6S498.6,246.6,511.1,246.6
		 M511.1,242.6c-14.7,0-26.6,11.9-26.6,26.6c0,14.7,11.9,26.6,26.6,26.6c14.7,0,26.6-11.9,26.6-26.6
		C537.8,254.5,525.8,242.6,511.1,242.6z"/>
	<path class="st26" d="M488.5,269.5c0,12,10.1,22.6,22.6,22.6c12.5,0,22.6-10.6,22.6-22.6H488.5L488.5,269.5z"/>
	<path class="st12" d="M511.1,286.9c-9.8,0-17.7-7.9-17.7-17.7s7.9-17.7,17.7-17.7s17.7,7.9,17.7,17.7S520.9,286.9,511.1,286.9
		L511.1,286.9z"/>
	<path class="st1" d="M511.1,253.5c8.7,0,15.7,7,15.7,15.7s-7,15.7-15.7,15.7s-15.7-7-15.7-15.7S502.4,253.5,511.1,253.5
		 M511.1,249.5c-10.9,0-19.7,8.8-19.7,19.7s8.8,19.7,19.7,19.7c10.9,0,19.7-8.8,19.7-19.7S522,249.5,511.1,249.5z"/>
	<path class="st25" d="M511.1,255.5c8.3,0,15.1,6.5,15.7,14.7c0-0.3,0.1-0.7,0.1-1c0-8.7-7-15.7-15.7-15.7s-15.7,7-15.7,15.7
		c0,0.3,0,0.7,0.1,1C496,262,502.8,255.5,511.1,255.5L511.1,255.5z"/>
	<path class="st6" d="M511.1,280.9c-8,0-14.6-6-15.6-13.7c-0.1,0.7-0.1,1.3-0.1,2c0,8.7,7,15.7,15.7,15.7c8.7,0,15.7-7,15.7-15.7
		c0-0.7-0.1-1.3-0.1-2C525.7,274.9,519.1,280.9,511.1,280.9L511.1,280.9z"/>
	<rect x="382.5" y="364.5" class="st13" width="7" height="15"/>
	<rect x="389.5" y="364.5" class="st14" width="7" height="15"/>
	<rect x="396.5" y="364.5" class="st15" width="7" height="15"/>
	<rect x="403.5" y="364.5" class="st16" width="7" height="15"/>
	<rect x="410.5" y="364.5" class="st17" width="7" height="15"/>
	<rect x="417.5" y="364.5" class="st18" width="7" height="15"/>
	<polygon class="st27" points="382.5,360.5 385.5,303.5 390.5,303.5 389.5,360.5 	"/>
	<polygon class="st28" points="396.5,360.5 389.5,360.5 390.5,303.5 396.5,303.5 	"/>
	<polygon class="st29" points="403.5,360.5 396.5,360.5 396.5,303.5 402.5,303.5 	"/>
	<polygon class="st30" points="408.5,303.5 410.5,360.5 403.5,360.5 402.5,303.5 	"/>
	<polygon class="st31" points="413.5,303.5 417.5,360.5 410.5,360.5 408.5,303.5 	"/>
	<polygon class="st32" points="419.5,303.5 413.5,303.5 417.5,360.5 424.5,360.5 	"/>
	<g class="st33">
		<circle class="st10" cx="425.2" cy="204.1" r="24.3"/>
	</g>
	<g class="st33">
		<circle class="st10" cx="385.9" cy="197.5" r="10.6"/>
	</g>
</g>
</svg>
