<?xml version="1.0" encoding="utf-8"?>
<!-- Generator: Adobe Illustrator 23.0.1, SVG Export Plug-In . SVG Version: 6.00 Build 0)  -->
<svg version="1.1" id="Ebene_1" xmlns="http://www.w3.org/2000/svg" xmlns:xlink="http://www.w3.org/1999/xlink" x="0px" y="0px"
	 viewBox="0 0 454 454" style="enable-background:new 0 0 454 454;" xml:space="preserve">
<style type="text/css">
	.st0{fill:#2669A5;}
	.st1{fill:#333333;}
	.st2{fill:#C7CCC6;}
	.st3{fill:#A5C3D3;}
	.st4{fill:#49B232;}
	.st5{fill:#296EB7;}
	.st6{fill:#B4FFB0;}
	.st7{fill:#FFF4F4;}
	.st8{fill:#ACBACC;}
	.st9{fill:#B2C1D6;}
	.st10{fill:#BCCBDD;}
	.st11{fill:#9E9571;}
	.st12{fill:#4BC136;}
	.st13{fill:#55C63E;}
	.st14{fill:#9EF794;}
	.st15{fill:#966847;}
	.st16{fill:#5B7488;}
	.st17{fill:#A87552;}
	.st18{fill:#A9F9A2;}
	.st19{fill:#82EAFF;stroke:#60420D;stroke-miterlimit:10;}
	.st20{fill:#82EAFF;}
	.st21{fill:#60420D;}
	.st22{fill:#895F22;}
	.st23{fill:#47433C;}
	.st24{fill:#473115;}
	.st25{fill:#EDEF00;stroke:url(#SVGID_1_);stroke-width:2;stroke-miterlimit:10;}
	.st26{fill:#C7F7FF;}
	.st27{fill:#229922;}
	.st28{fill:#3C8C3C;}
	.st29{fill:#48B748;}
	.st30{fill:#158715;}
	.st31{fill:#2F842F;}
	.st32{fill:#35A035;}
	.st33{fill:#EA4647;}
	.st34{fill:#429B42;}
	.st35{fill:#257F25;}
	.st36{fill:#AAADAA;}
</style>
<path class="st0" d="M383.6,336H243.1c-0.5,0-0.9-0.4-0.9-0.9v-128c0-0.5,0.4-0.9,0.9-0.9h140.5c0.5,0,0.9,0.4,0.9,0.9v128
	C384.5,335.6,384.1,336,383.6,336z"/>
<path class="st1" d="M272.1,215.6h113.5c5.6,0,9.8-3.1,8.6-6.3l-3.8-10.3c-0.9-2.4-4.4-4.1-8.6-4.1H268.3c-5.6,0-9.8,3.1-8.6,6.3
	l3.8,10.3C264.4,213.9,268,215.6,272.1,215.6z"/>
<path class="st2" d="M364.9,315.4h-80.5c-4.1,0-7.5-3.4-7.5-7.5v-71.2c0-4.1,3.4-7.5,7.5-7.5h80.5c4.1,0,7.5,3.4,7.5,7.5v71.2
	C372.4,312.1,369.1,315.4,364.9,315.4z"/>
<path class="st1" d="M239.7,111.5h-0.7c-5.9,0-10.7-4.8-10.7-10.7V45c0-5.9,4.8-10.7,10.7-10.7h0.7c5.9,0,10.7,4.8,10.7,10.7v55.8
	C250.3,106.7,245.6,111.5,239.7,111.5z"/>
<g>
	<path class="st3" d="M393.6,330.6H76.3c-6.7,0-12.2-5.4-12.2-12.2v-4.2c0-6.7,5.4-12.2,12.2-12.2h317.2c6.7,0,12.2,5.4,12.2,12.2
		v4.2C405.7,325.2,400.3,330.6,393.6,330.6z"/>
</g>
<path class="st4" d="M390.8,310.6L390.8,310.6c-6.7,0-12.1-5.4-12.1-12.1v-9.5c0-6.7,5.4-12.1,12.1-12.1h0c6.7,0,12.1,5.4,12.1,12.1
	v9.5C402.9,305.2,397.5,310.6,390.8,310.6z"/>
<path class="st5" d="M242.6,341.7H139.3c-15.5,0-28.1-12.6-28.1-28.1l0.2-190c10.9-16.5,23.5-34.7,40.3-60.8H231
	c13.9,21.8,25.1,43.6,39.3,61.8l0.3,189C270.7,329.1,258.1,341.7,242.6,341.7z"/>
<g>
	<path class="st6" d="M429.8,360H57.1c-7.2,0-13.2-5.9-13.2-13.2v0c0-7.2,5.9-13.2,13.2-13.2h372.8c7.2,0,13.2,5.9,13.2,13.2v0
		C443,354.1,437.1,360,429.8,360z"/>
</g>
<g>
	<path class="st1" d="M401.4,333.7H68c-4.1,0-7.5-3.4-7.5-7.5l0,0c0-4.1,3.4-7.5,7.5-7.5h333.4c4.1,0,7.5,3.4,7.5,7.5l0,0
		C408.9,330.3,405.5,333.7,401.4,333.7z"/>
</g>
<g>
	<path class="st1" d="M390.7,445.8H72.1c-20.7,0-37.6-16.9-37.6-37.6v0c0-20.7,16.9-37.6,37.6-37.6h318.6
		c20.7,0,37.6,16.9,37.6,37.6v0C428.3,428.9,411.4,445.8,390.7,445.8z"/>
</g>
<g>
	<path class="st7" d="M114.3,411H72.4c-1.6,0-2.9-1.3-2.9-2.9v0c0-1.6,1.3-2.9,2.9-2.9h41.9c1.6,0,2.9,1.3,2.9,2.9v0
		C117.2,409.7,115.9,411,114.3,411z"/>
</g>
<g>
	<path class="st7" d="M204.7,411h-41.9c-1.6,0-2.9-1.3-2.9-2.9v0c0-1.6,1.3-2.9,2.9-2.9h41.9c1.6,0,2.9,1.3,2.9,2.9v0
		C207.6,409.7,206.3,411,204.7,411z"/>
</g>
<g>
	<path class="st7" d="M298.2,411h-41.9c-1.6,0-2.9-1.3-2.9-2.9v0c0-1.6,1.3-2.9,2.9-2.9h41.9c1.6,0,2.9,1.3,2.9,2.9v0
		C301,409.7,299.7,411,298.2,411z"/>
</g>
<g>
	<g>
		<path class="st8" d="M59.7,365.7c0,2.9,1.9,5.3,4.2,5.3h338.2c2.3,0,4.2-2.4,4.2-5.3c0-1-0.2-2.7-0.6-2.7H60.3
			C59.9,363,59.7,364.7,59.7,365.7z"/>
	</g>
	<path class="st9" d="M402.2,359.9c1.5,0,2.9,1,3.6,3"/>
	<path class="st10" d="M402.2,360H63.9c-1.5,0-2.9,1-3.6,3h345.5C405,361,403.7,360,402.2,360z"/>
</g>
<g>
	<path class="st11" d="M75.5,346.8L75.5,346.8c-2.3,0-4.2-1.9-4.2-4.2V241.2c0-2.3,1.9-4.2,4.2-4.2h0c2.3,0,4.2,1.9,4.2,4.2v101.4
		C79.7,345,77.8,346.8,75.5,346.8z"/>
	<path class="st12" d="M87.2,249.5H49.3c-13.8,0-25-11.2-25-25v-20.4c0-13.8,11.2-25,25-25h37.9c13.8,0,25,11.2,25,25v20.4
		C112.2,238.3,101,249.5,87.2,249.5z"/>
	<path class="st4" d="M71.9,272.1H44.6c-16.7,0-30.3-13.6-30.3-30.3v-9.8c0-16.7,13.6-30.3,30.3-30.3h27.3
		c16.7,0,30.3,13.6,30.3,30.3v9.8C102.2,258.6,88.6,272.1,71.9,272.1z"/>
	<path class="st13" d="M105.4,267H67.5c-13.8,0-25-11.2-25-25v-20.4c0-13.8,11.2-25,25-25h37.9c13.8,0,25,11.2,25,25V242
		C130.4,255.8,119.2,267,105.4,267z"/>
</g>
<g>
	<path class="st14" d="M214.9,344.4H90.3c-1.5,0-2.7-1.2-2.7-2.7l0,0c0-1.5,1.2-2.7,2.7-2.7h124.6c1.5,0,2.7,1.2,2.7,2.7l0,0
		C217.6,343.2,216.4,344.4,214.9,344.4z"/>
</g>
<g>
	<rect x="1151.2" y="464.3" class="st15" width="276.2" height="7.3"/>
	<path class="st16" d="M1175.7,414.3c-1.4-0.2-2.6,0.7-2.9,2.1c-0.1,0.5-1.5,9.6-2.2,25.4c-1.8-0.1-3.8,0.4-5.7,0.9l-0.1,0
		c-5.4,1.4-11.8,7.6-14,13.4c-2.1,5.5,0.6,65.8,1.2,77.8l5-0.2c-1.3-27.1-2.8-71.7-1.5-75.8c1.8-4.8,7.1-9.4,10.6-10.3l0.1,0
		c2.2-0.6,3.4-0.6,4-0.6c0,0,0,0,0,0c-0.3,7,0,58.4,0,64.5l5-0.2c-0.1-17.2-0.2-40.6-0.2-54.1c0.1-0.3,0.2-0.6,0.2-0.8
		c0.1-24.2,2.5-39.1,2.5-39.2C1177.9,415.8,1177,414.5,1175.7,414.3z"/>
	<path class="st16" d="M1405,414.3c1.4-0.2,2.6,0.7,2.9,2.1c0.1,0.5,1.5,9.6,2.2,25.4c1.8-0.1,3.8,0.4,5.7,0.9l0.1,0
		c5.4,1.4,11.8,7.6,14,13.4c2.1,5.5-0.6,65.8-1.2,77.8l-5-0.2c1.3-27.1,2.8-71.7,1.5-75.8c-1.8-4.8-7.1-9.4-10.6-10.3l-0.1,0
		c-2.2-0.6-3.4-0.6-4-0.6c0,0,0,0,0,0c0.3,7,0,58.4,0,64.5l-5-0.2c0.1-17.2,0.2-40.6,0.2-54.1c-0.1-0.3-0.2-0.6-0.2-0.8
		c-0.1-24.2-2.5-39.1-2.5-39.2C1402.7,415.8,1403.6,414.5,1405,414.3z"/>
	<polygon class="st17" points="1168.9,460 1154.9,464 1154.9,465 1425.8,465 1425.7,464.2 1410.6,460 	"/>
	<rect x="1163.8" y="465" class="st15" width="16.6" height="6.6"/>
	<rect x="1404.9" y="465" class="st15" width="7.3" height="6.6"/>
	<rect x="1166" y="424" class="st17" width="246.2" height="12.4"/>
	<rect x="1166" y="408.7" class="st17" width="246.2" height="12.7"/>
</g>
<g>
	<rect x="69.3" y="337.4" class="st15" width="64.8" height="2"/>
	<path class="st16" d="M75,323.5c-0.3-0.1-0.6,0.2-0.7,0.6c0,0.1-0.4,2.7-0.5,7.1c-0.4,0-0.9,0.1-1.3,0.2l0,0
		c-1.3,0.4-2.8,2.1-3.3,3.8c-0.5,1.5,0.1,18.4,0.3,21.8l1.2-0.1c-0.3-7.6-0.7-20-0.3-21.2c0.4-1.3,1.7-2.6,2.5-2.9l0-0.3
		c0.5-0.2,0.8-0.5,0.9-0.5c0,0,0,0,0,0c-0.1,2,0,16.6,0,18.3l1.2,0.1c0-4.8,0-11.3,0-15.1c0-0.1,0-0.1,0-0.2c0-6.8,0.6-10.9,0.6-11
		C75.5,323.9,75.3,323.5,75,323.5z"/>
	<path class="st16" d="M128.8,323.5c0.3-0.1,0.6,0.2,0.7,0.6c0,0.1,0.4,2.7,0.5,7.1c0.4,0,0.9,0.1,1.3,0.2l0,0
		c1.3,0.4,2.8,2.1,3.3,3.8c0.5,1.5-0.1,18.4-0.3,21.8l-1.2-0.1c0.3-7.6,0.7-20,0.3-21.2c-0.4-1.3-1.7-2.6-2.5-2.9l0-0.3
		c-0.5-0.2-0.8-0.5-0.9-0.5c0,0,0,0,0,0c0.1,2,0,16.6,0,18.3l-1.2,0.1c0-4.8,0-11.3,0-15.1c0-0.1,0-0.1,0-0.2c0-6.8-0.6-10.9-0.6-11
		C128.2,323.9,128.5,323.5,128.8,323.5z"/>
	<polygon class="st17" points="73.4,336 70.1,337.4 70.1,338 133.6,338 133.6,337.5 130.1,336 	"/>
	<rect x="72.2" y="337.6" class="st15" width="3.9" height="1.9"/>
	<rect x="128.8" y="337.6" class="st15" width="1.7" height="1.9"/>
	<rect x="72.7" y="326.2" class="st17" width="57.8" height="3.5"/>
	<rect x="72.7" y="321.9" class="st17" width="57.8" height="3.5"/>
</g>
<g>
	<path class="st18" d="M264,355.9H159.9c-1.5,0-2.7-1.2-2.7-2.7l0,0c0-1.5,1.2-2.7,2.7-2.7H264c1.5,0,2.7,1.2,2.7,2.7l0,0
		C266.8,354.7,265.5,355.9,264,355.9z"/>
</g>
<path class="st1" d="M149.5,74.9l-42.3,62.8c-1,1.5-3.2,1.7-4.5,0.4h0c-1-1-1.1-2.5-0.4-3.7L188.6,6c1.2-1.7,3.7-1.7,4.9,0
	L280,134.2c0.8,1.2,0.6,2.7-0.4,3.7l-0.5,0.5c-1.3,1.3-3.5,1.1-4.5-0.4l-42.3-63.3c-0.5-0.8-1.5-1.3-2.4-1.3L152,73.6
	C151,73.6,150.1,74.1,149.5,74.9z"/>
<g>
	<path class="st19" d="M171.9,123.3V98.5c0-2.4,1.9-4.3,4.3-4.3h27c2.4,0,4.3,1.9,4.3,4.3v24.8c0,2.4-1.9,4.3-4.3,4.3h-27
		C173.9,127.6,171.9,125.6,171.9,123.3z"/>
	<g>
		<line class="st20" x1="208" y1="111" x2="171" y2="111"/>
		<rect x="172" y="111" class="st21" width="36" height="1"/>
	</g>
	<g>
		<line class="st20" x1="189" y1="93" x2="189" y2="128"/>
		<rect x="189" y="94" class="st21" width="1" height="34"/>
	</g>
</g>
<g>
	<path class="st19" d="M213.9,192.3v-24.8c0-2.4,1.9-4.3,4.3-4.3h27c2.4,0,4.3,1.9,4.3,4.3v24.8c0,2.4-1.9,4.3-4.3,4.3h-27
		C215.9,196.6,213.9,194.6,213.9,192.3z"/>
	<g>
		<line class="st20" x1="250" y1="180" x2="213" y2="180"/>
		<rect x="214" y="180" class="st21" width="36" height="1"/>
	</g>
	<g>
		<line class="st20" x1="231" y1="162" x2="231" y2="197"/>
		<rect x="231" y="163" class="st21" width="1" height="34"/>
	</g>
</g>
<g>
	<path class="st21" d="M164,241.4h-22.8c-2.6,0-4.7,2.1-4.7,4.7v70.1c0,2.6,2.1,4.7,4.7,4.7H164c2.6,0,4.7-2.1,4.7-4.7v-70.1
		C168.8,243.5,166.6,241.4,164,241.4z"/>
	<path class="st22" d="M159.4,274.9h-13.3c-2.9,0-5.2-2.3-5.2-5.2v-18.9c0-2.9,2.3-5.2,5.2-5.2h13.3c2.9,0,5.2,2.3,5.2,5.2v18.9
		C164.6,272.6,162.3,274.9,159.4,274.9z"/>
	<path class="st22" d="M159.2,309.2H146c-2.9,0-5.3-2.4-5.3-5.3v-19.3c0-2.9,2.4-5.3,5.3-5.3h13.2c2.9,0,5.3,2.4,5.3,5.3v19.3
		C164.4,306.8,162.1,309.2,159.2,309.2z"/>
	<path class="st23" d="M138.8,281L138.8,281c-0.8,0-1.4-0.6-1.4-1.4v-5.1c0-0.8,0.6-1.4,1.4-1.4l0,0c0.8,0,1.4,0.6,1.4,1.4v5.1
		C140.2,280.3,139.6,281,138.8,281z"/>
	<circle class="st24" cx="138.8" cy="274.9" r="1.2"/>
</g>
<g>
	<path class="st3" d="M170.9,321.9h-37c-2.4,0-4.4-2-4.4-4.4l0,0c0-2.4,2-4.4,4.4-4.4h37c2.4,0,4.4,2,4.4,4.4l0,0
		C175.2,319.9,173.3,321.9,170.9,321.9z"/>
</g>
<radialGradient id="SVGID_1_" cx="177.5212" cy="254.4375" r="2.3126" gradientUnits="userSpaceOnUse">
	<stop  offset="0.1882" style="stop-color:#EDEF00"/>
	<stop  offset="0.8807" style="stop-color:#EDEF00;stop-opacity:0.147"/>
	<stop  offset="1" style="stop-color:#EDEF00;stop-opacity:0"/>
</radialGradient>
<circle class="st25" cx="177.5" cy="254.4" r="1.3"/>
<path class="st1" d="M181.3,253.9c0,2.1-1.7,0.7-3.8,0.7c-2.1,0-3.8,1.4-3.8-0.7c0-2.1,1.7-3.8,3.8-3.8
	C179.6,250.1,181.3,251.8,181.3,253.9z"/>
<circle class="st21" cx="173.1" cy="278.6" r="1.2"/>
<g>
	<path class="st19" d="M134.9,191.3v-24.8c0-2.4,1.9-4.3,4.3-4.3h27c2.4,0,4.3,1.9,4.3,4.3v24.8c0,2.4-1.9,4.3-4.3,4.3h-27
		C136.9,195.6,134.9,193.6,134.9,191.3z"/>
	<polygon class="st26" points="141.6,162.6 135.4,171.2 135.4,174.2 143.6,162.7 	"/>
	<polygon class="st26" points="159.6,162.6 153.4,171.2 153.4,174.2 161.6,162.7 	"/>
	<polygon class="st26" points="158.6,179.6 152.4,188.2 152.4,191.2 160.6,179.7 	"/>
	<polygon class="st26" points="141.6,179.6 135.4,188.2 135.4,191.2 143.6,179.7 	"/>
	<g>
		<line class="st20" x1="171" y1="179" x2="134" y2="179"/>
		<rect x="135" y="179" class="st21" width="36" height="1"/>
	</g>
	<g>
		<line class="st20" x1="152" y1="161" x2="152" y2="196"/>
		<rect x="152" y="162" class="st21" width="1" height="34"/>
	</g>
	<g>
		<circle class="st27" cx="141.1" cy="195.3" r="5.2"/>
		<circle class="st28" cx="135.9" cy="196" r="3.6"/>
		<circle class="st27" cx="150.8" cy="194.7" r="5.2"/>
		<circle class="st29" cx="144.9" cy="195.2" r="3.6"/>
		<circle class="st27" cx="163.1" cy="196.1" r="5.2"/>
		<circle class="st30" cx="158.9" cy="195.6" r="3.6"/>
		<circle class="st31" cx="169.7" cy="195.4" r="3.6"/>
		<circle class="st32" cx="164.9" cy="198.1" r="3.6"/>
		<path class="st33" d="M169.5,206.1h-33.9c-0.5,0-0.9-0.3-1.1-0.8l-2.6-6.9c-0.3-0.8,0.3-1.6,1.1-1.6h38.9c0.8,0,1.4,0.8,1.1,1.6
			l-2.3,6.9C170.4,205.8,170,206.1,169.5,206.1z"/>
		<circle class="st34" cx="149.6" cy="198.1" r="3.6"/>
		<circle class="st35" cx="156" cy="196.4" r="3.6"/>
	</g>
</g>
<path class="st19" d="M213.9,192.3v-24.8c0-2.4,1.9-4.3,4.3-4.3h27c2.4,0,4.3,1.9,4.3,4.3v24.8c0,2.4-1.9,4.3-4.3,4.3h-27
	C215.9,196.6,213.9,194.6,213.9,192.3z"/>
<polygon class="st26" points="220.6,163.6 214.4,172.2 214.4,175.2 222.6,163.7 "/>
<polygon class="st26" points="238.6,163.6 232.4,172.2 232.4,175.2 240.6,163.7 "/>
<polygon class="st26" points="237.6,180.6 231.4,189.2 231.4,192.2 239.6,180.7 "/>
<polygon class="st26" points="220.6,180.6 214.4,189.2 214.4,192.2 222.6,180.7 "/>
<g>
	<line class="st20" x1="250" y1="180" x2="213" y2="180"/>
	<rect x="214" y="180" class="st21" width="36" height="1"/>
</g>
<g>
	<line class="st20" x1="231" y1="162" x2="231" y2="197"/>
	<rect x="231" y="163" class="st21" width="1" height="34"/>
</g>
<g>
	<circle class="st27" cx="220.1" cy="196.3" r="5.2"/>
	<circle class="st28" cx="214.9" cy="197" r="3.6"/>
	<circle class="st27" cx="229.8" cy="195.7" r="5.2"/>
	<circle class="st29" cx="223.9" cy="196.1" r="3.6"/>
	<circle class="st27" cx="242.1" cy="197.1" r="5.2"/>
	<circle class="st30" cx="237.9" cy="196.6" r="3.6"/>
	<circle class="st31" cx="248.7" cy="196.4" r="3.6"/>
	<circle class="st32" cx="243.9" cy="199.1" r="3.6"/>
	<path class="st33" d="M248.5,207.1h-33.9c-0.5,0-0.9-0.3-1.1-0.8l-2.6-6.9c-0.3-0.8,0.3-1.6,1.1-1.6h38.9c0.8,0,1.4,0.8,1.1,1.6
		l-2.3,6.9C249.4,206.8,249,207.1,248.5,207.1z"/>
	<circle class="st34" cx="239.9" cy="200.1" r="3.6"/>
	<circle class="st35" cx="246.3" cy="198.4" r="3.6"/>
</g>
<path class="st19" d="M171.9,123.3V98.5c0-2.4,1.9-4.3,4.3-4.3h27c2.4,0,4.3,1.9,4.3,4.3v24.8c0,2.4-1.9,4.3-4.3,4.3h-27
	C173.9,127.6,171.9,125.6,171.9,123.3z"/>
<polygon class="st26" points="178.6,94.6 172.4,103.2 172.4,106.2 180.6,94.7 "/>
<polygon class="st26" points="196.6,94.6 190.4,103.2 190.4,106.2 198.6,94.7 "/>
<polygon class="st26" points="195.6,111.6 189.4,120.2 189.4,123.2 197.6,111.7 "/>
<polygon class="st26" points="178.6,111.6 172.4,120.2 172.4,123.2 180.6,111.7 "/>
<g>
	<line class="st20" x1="208" y1="111" x2="171" y2="111"/>
	<rect x="172" y="111" class="st21" width="36" height="1"/>
</g>
<g>
	<line class="st20" x1="189" y1="93" x2="189" y2="128"/>
	<rect x="189" y="94" class="st21" width="1" height="34"/>
</g>
<g>
	<circle class="st27" cx="178.7" cy="126.1" r="5.2"/>
	<circle class="st28" cx="173.5" cy="126.7" r="3.6"/>
	<circle class="st27" cx="188.4" cy="125.4" r="5.2"/>
	<circle class="st29" cx="182.5" cy="125.9" r="3.6"/>
	<circle class="st27" cx="200.7" cy="126.9" r="5.2"/>
	<circle class="st30" cx="196.4" cy="126.4" r="3.6"/>
	<circle class="st31" cx="207.2" cy="126.2" r="3.6"/>
	<circle class="st32" cx="202.5" cy="128.9" r="3.6"/>
	<path class="st33" d="M207,136.9h-33.9c-0.5,0-0.9-0.3-1.1-0.8l-2.6-6.9c-0.3-0.8,0.3-1.6,1.1-1.6h38.9c0.8,0,1.4,0.8,1.1,1.6
		l-2.3,6.9C208,136.5,207.5,136.9,207,136.9z"/>
	<circle class="st34" cx="183.9" cy="132.5" r="3.6"/>
	<circle class="st35" cx="185.1" cy="128.9" r="3.6"/>
</g>
<path class="st19" d="M214.9,276.3v-24.8c0-2.4,1.9-4.3,4.3-4.3h27c2.4,0,4.3,1.9,4.3,4.3v24.8c0,2.4-1.9,4.3-4.3,4.3h-27
	C216.9,280.6,214.9,278.6,214.9,276.3z"/>
<polygon class="st26" points="221.6,247.6 215.4,256.2 215.4,259.2 223.6,247.7 "/>
<polygon class="st26" points="239.6,247.6 233.4,256.2 233.4,259.2 241.6,247.7 "/>
<polygon class="st26" points="238.6,264.6 232.4,273.2 232.4,276.2 240.6,264.7 "/>
<polygon class="st26" points="221.6,264.6 215.4,273.2 215.4,276.2 223.6,264.7 "/>
<g>
	<line class="st20" x1="251" y1="264" x2="214" y2="264"/>
	<rect x="215" y="264" class="st21" width="36" height="1"/>
</g>
<g>
	<line class="st20" x1="232" y1="246" x2="232" y2="281"/>
	<rect x="232" y="247" class="st21" width="1" height="34"/>
</g>
<g>
	<circle class="st27" cx="221.1" cy="280" r="5.2"/>
	<circle class="st28" cx="215.9" cy="280.6" r="3.6"/>
	<circle class="st27" cx="230.8" cy="279.3" r="5.2"/>
	<circle class="st29" cx="224.9" cy="279.8" r="3.6"/>
	<circle class="st27" cx="243.1" cy="280.7" r="5.2"/>
	<circle class="st30" cx="238.9" cy="280.2" r="3.6"/>
	<circle class="st31" cx="249.7" cy="280" r="3.6"/>
	<circle class="st32" cx="244.9" cy="282.7" r="3.6"/>
	<path class="st33" d="M249.5,290.7h-33.9c-0.5,0-0.9-0.3-1.1-0.8l-2.6-6.9c-0.3-0.8,0.3-1.6,1.1-1.6h38.9c0.8,0,1.4,0.8,1.1,1.6
		l-2.3,6.9C250.4,290.4,250,290.7,249.5,290.7z"/>
	<circle class="st34" cx="229.6" cy="282.7" r="3.6"/>
	<circle class="st35" cx="230.8" cy="287.1" r="3.6"/>
</g>
<g>
	<path class="st7" d="M391.3,411h-41.9c-1.6,0-2.9-1.3-2.9-2.9v0c0-1.6,1.3-2.9,2.9-2.9h41.9c1.6,0,2.9,1.3,2.9,2.9v0
		C394.2,409.7,392.9,411,391.3,411z"/>
</g>
<path class="st36" d="M371.8,237h-94.1c-2,0-3.6-1.6-3.6-3.6v-4.1c0-2,1.6-3.6,3.6-3.6h94.1c2,0,3.6,1.6,3.6,3.6v4.1
	C375.3,235.3,373.7,237,371.8,237z"/>
<g>
	<polygon class="st1" points="277.2,318.8 275.7,371.1 378.7,371.2 372.4,318.7 	"/>
</g>
</svg>
