<?xml version="1.0" encoding="utf-8"?>
<!-- Generator: Adobe Illustrator 23.0.1, SVG Export Plug-In . SVG Version: 6.00 Build 0)  -->
<svg version="1.1" id="Layer_1" xmlns="http://www.w3.org/2000/svg" xmlns:xlink="http://www.w3.org/1999/xlink" x="0px" y="0px"
	 viewBox="0 0 354 637.8" style="enable-background:new 0 0 354 637.8;" xml:space="preserve">
<style type="text/css">
	.st0{fill:#FFFFFF;}
	.st1{fill:#296EB7;}
	.st2{fill:#333333;}
	.st3{fill:#EA4647;}
</style>
<g>
	<ellipse class="st0" cx="175.9" cy="260.4" rx="50.4" ry="65.6"/>
	<ellipse class="st1" cx="176.1" cy="260.7" rx="31.2" ry="40.6"/>
	<path class="st2" d="M116.9,315L29.8,416.7c-5.6,6.5-8.2,16.4-6.8,26l12.3,85.4c3,21,22.3,30,34.9,16.3l88-95.6
		c6-6.5,8.8-16.7,7.4-26.7l-13.2-91.4C149.3,309.2,129.4,300.5,116.9,315z"/>
	<path class="st2" d="M282.2,543.8l-87.1-101.7c-5.6-6.5-8.2-16.4-6.8-26l12.3-85.4c3-21,22.3-30,34.9-16.3l88,95.6
		c6,6.5,8.8,16.7,7.4,26.7l-13.2,91.4C314.6,549.6,294.7,558.3,282.2,543.8z"/>
	<path class="st3" d="M235.3,596.3l-28.9-33.8c-0.3-0.4-0.8-0.3-1.1,0.1l-20.6,31.3c-0.7,1-1.8,1.1-2.6,0.3l-30-30.1
		c-0.7-0.7-1.8-0.7-2.4,0.2L124,596c-1.2,1.5-3.2,0.4-3.2-1.8v-90.4c0-0.7,0.5-1.2,1-0.9c20.4,9,39,16,58.7,16
		c19,0,37.6-7,56.9-15.9c0.5-0.2,1,0.2,1,0.9v90.6C238.5,596.6,236.5,597.7,235.3,596.3z"/>
	<path class="st1" d="M223.8,564.8l-24.7-20.2c-0.3-0.2-0.7-0.2-0.9,0.1l-17.5,18.7c-0.6,0.6-1.5,0.7-2.2,0.2l-25.5-18
		c-0.6-0.4-1.5-0.4-2.1,0.1l-21.9,19c-1,0.9-2.7,0.2-2.7-1.1v-54c0-0.4,0.4-0.7,0.9-0.6c17.4,5.3,33.2,9.5,50,9.5
		c16.2,0,32-4.2,48.4-9.5c0.4-0.1,0.9,0.1,0.9,0.6v54.1C226.5,565,224.8,565.7,223.8,564.8z"/>
	<path class="st0" d="M175.7,40.9c-60.4,0-109.3,103.7-109.3,231.6s48.9,231.6,109.3,231.6S285,400.4,285,272.5S236,40.9,175.7,40.9
		z M175.9,326c-27.8,0-50.4-29.4-50.4-65.6s22.6-65.6,50.4-65.6s50.4,29.4,50.4,65.6S203.7,326,175.9,326z"/>
	<path class="st3" d="M69.9,331c12.2,99.6,55,173.1,105.8,173.1s93.6-73.5,105.8-173.1H69.9z"/>
	<path class="st1" d="M277.9,190.4H73.4C89,103,128.9,40.9,175.7,40.9C222.4,40.9,262.3,103,277.9,190.4z"/>
</g>
</svg>
