<?xml version="1.0" encoding="utf-8"?>
<!-- Generator: Adobe Illustrator 23.0.1, SVG Export Plug-In . SVG Version: 6.00 Build 0)  -->
<svg version="1.1" id="Layer_1" xmlns="http://www.w3.org/2000/svg" xmlns:xlink="http://www.w3.org/1999/xlink" x="0px" y="0px"
	 viewBox="0 0 751.4 460" style="enable-background:new 0 0 751.4 460;" xml:space="preserve">
<style type="text/css">
	.st0{fill-rule:evenodd;clip-rule:evenodd;fill:#040404;}
	.st1{fill-rule:evenodd;clip-rule:evenodd;fill:#FFFFFF;}
	.st2{fill-rule:evenodd;clip-rule:evenodd;fill:#4D4D4D;}
	.st3{fill-rule:evenodd;clip-rule:evenodd;fill:#CCCCCC;stroke:#666666;stroke-miterlimit:10;}
	.st4{fill-rule:evenodd;clip-rule:evenodd;fill:#246EB9;}
	.st5{fill-rule:evenodd;clip-rule:evenodd;fill:#999999;}
	.st6{fill-rule:evenodd;clip-rule:evenodd;fill:#919296;}
	.st7{fill-rule:evenodd;clip-rule:evenodd;fill:url(#SVGID_1_);}
	.st8{fill-rule:evenodd;clip-rule:evenodd;fill:#464142;}
	.st9{fill-rule:evenodd;clip-rule:evenodd;fill:url(#SVGID_2_);}
	.st10{fill-rule:evenodd;clip-rule:evenodd;fill:#1D1E21;}
	.st11{fill-rule:evenodd;clip-rule:evenodd;fill:#0D0F12;}
	.st12{fill-rule:evenodd;clip-rule:evenodd;fill:#1C1E20;}
	.st13{fill-rule:evenodd;clip-rule:evenodd;fill:#DCDDE0;}
	.st14{fill-rule:evenodd;clip-rule:evenodd;fill:#CECECE;}
	.st15{fill-rule:evenodd;clip-rule:evenodd;fill:#EA4647;}
</style>
<title>devices copy</title>
<desc>Created with Sketch.</desc>
<g id="Page-1">
	<g id="devices-copy">
		<path id="Path" class="st0" d="M112.4,15.2h530.7c18.3,0,33.2,14.9,33.2,33.2V408H79.2V48.5C79.2,30.1,94,15.2,112.4,15.2z"/>
		<path id="Rectangle" class="st1" d="M95.9,40.8h566.5c1.2,0,2.2,1,2.2,2.2v338.1c0,1.2-1,2.2-2.2,2.2H95.9c-1.2,0-2.2-1-2.2-2.2
			V43C93.7,41.8,94.7,40.8,95.9,40.8z"/>
		<ellipse id="Oval" class="st2" cx="375.2" cy="27.4" rx="3.6" ry="3.6"/>
		<rect x="142.6" y="84.3" class="st3" width="294.8" height="24.5"/>
		<rect x="374.5" y="84.3" class="st4" width="62.8" height="24.5"/>
		<rect x="579.3" y="61" class="st5" width="69.3" height="5.8"/>
		<path class="st6" d="M741.1,427.2c0,6-23.7,14.7-28.1,14.7H41.5c-4.4,0-28.1-8.7-28.1-14.7H741.1z"/>
		
			<linearGradient id="SVGID_1_" gradientUnits="userSpaceOnUse" x1="-927.1219" y1="22.0615" x2="-926.1778" y2="22.0615" gradientTransform="matrix(784.87 0 0 28.12 727675.375 -199.3703)">
			<stop  offset="0" style="stop-color:#606162"/>
			<stop  offset="0.12" style="stop-color:#B7BABB"/>
			<stop  offset="0.36" style="stop-color:#A2A5A6"/>
			<stop  offset="0.51" style="stop-color:#C9CCCD"/>
			<stop  offset="0.73" style="stop-color:#848687"/>
			<stop  offset="0.88" style="stop-color:#9C9FA0"/>
			<stop  offset="1" style="stop-color:#4C4D4E"/>
		</linearGradient>
		<path class="st7" d="M5.3,407.8h740.9v4.9c0,11.9-9.7,21.6-21.6,21.6H26.3c-5.6,0-10.9-2.2-14.9-6.2s-6.2-9.3-6.2-14.9v-5.4H5.3z"
			/>
		<path class="st8" d="M723.4,438.4c0,2.6-22.6,6.4-26.8,6.4H57.2c-4.2,0-26.8-3.8-26.8-6.4H723.4z"/>
		
			<linearGradient id="SVGID_2_" gradientUnits="userSpaceOnUse" x1="-922.7939" y1="53.4405" x2="-922.7939" y2="54.3844" gradientTransform="matrix(109.19 0 0 11.36 101131.9297 -197.5011)">
			<stop  offset="0" style="stop-color:#9C9FA0"/>
			<stop  offset="0.24" style="stop-color:#A2A5A6"/>
			<stop  offset="1" style="stop-color:#4C4D4E"/>
		</linearGradient>
		<path class="st9" d="M423.6,409.5c-0.1,5.8-4.8,10.6-10.6,10.7h-82.8c-6,0-9.7-5.4-9.7-10.7H423.6z"/>
		<path class="st10" d="M269.7,442.9c2-1.6,7.7-1.5,9.1,0.1C275.9,443.8,272.7,443.6,269.7,442.9z"/>
		<path class="st10" d="M470.6,443.2c2-1.6,7.7-1.5,9.1,0.1C476.7,444.1,473.5,444.1,470.6,443.2z"/>
		<path class="st10" d="M56.9,442.5c2-1.6,7.7-1.5,9.1,0.1C63.1,443.5,59.9,443.4,56.9,442.5z"/>
		<path class="st10" d="M680.2,443c2-1.6,7.7-1.5,9.1,0.1C686.3,444,683.2,444,680.2,443z"/>
		<path class="st11" d="M673.3,422.8c-0.5,0.2-1,0.4-1.5,0.4h-21.7c-0.5,0.1-1.1-0.1-1.5-0.5C656.9,422.5,665.1,422.5,673.3,422.8z"
			/>
		<path class="st12" d="M648.2,424.4c-0.9-1.2-1.8-2.3,0.4-3.1c5.5,0.5,11,0.1,16.5,0.2c2.7,0.2,5.5,0.1,8.2-0.2
			c2.2,1.1,1.2,2.1,0,3.1c-1.5,0.6-3,0.3-4.5,0.3c-6,0-12,0-18,0C649.9,424.8,649,425.1,648.2,424.4z"/>
		<path class="st13" d="M648.2,424.4l25.1,0.1c0,0.1,0,0.3,0,0.4c-8.3,0-16.6,0.1-24.9,0.1c-0.1,0-0.2-0.1-0.2-0.1
			C648.2,424.8,648.2,424.5,648.2,424.4z"/>
		<path class="st11" d="M673.3,421.4c-0.5,0.2-1,0.4-1.5,0.4h-21.7c-0.5,0.1-1.1-0.1-1.5-0.5C656.9,421.1,665.1,421,673.3,421.4z"/>
		<path class="st11" d="M673.3,421.4c-0.5,0.2-1,0.4-1.5,0.4h-21.7c-0.5,0.1-1.1-0.1-1.5-0.5C656.9,421.1,665.1,421,673.3,421.4z"/>
		<path class="st12" d="M648.2,424.4c-0.9-1.2-1.8-2.3,0.4-3.1c5.5,0.5,11,0.1,16.5,0.2c2.7,0.2,5.5,0.1,8.2-0.2
			c2.2,1.1,1.2,2.1,0,3.1c-1.5,0.6-3,0.3-4.5,0.3c-6,0-12,0-18,0C649.9,424.8,649,425.1,648.2,424.4z"/>
		<path class="st14" d="M648.2,424.4l25.1,0.1c0,0.1,0,0.3,0,0.4c-8.3,0-16.6,0.1-24.9,0.1c-0.1,0-0.2-0.1-0.2-0.1
			C648.2,424.8,648.2,424.5,648.2,424.4z"/>
		<path class="st11" d="M673.3,421.4c-0.5,0.2-1,0.4-1.5,0.4h-21.7c-0.5,0.1-1.1-0.1-1.5-0.5C656.9,421.1,665.1,421,673.3,421.4z"/>
		<g>
			<rect x="142.6" y="129.4" class="st15" width="345.1" height="3.8"/>
			<rect x="142.6" y="141.9" class="st15" width="271.4" height="4.2"/>
			<rect x="142.6" y="154" class="st15" width="271.4" height="4.2"/>
			<rect x="142.6" y="166.1" class="st15" width="271.4" height="4.2"/>
		</g>
		<g>
			<rect x="142.6" y="192.1" class="st5" width="345.1" height="3.8"/>
			<rect x="142.6" y="204.6" class="st5" width="271.4" height="4.2"/>
			<rect x="142.6" y="216.7" class="st5" width="271.4" height="4.2"/>
			<rect x="142.6" y="228.8" class="st5" width="271.4" height="4.2"/>
		</g>
		<g>
			<rect x="142.6" y="254.9" class="st5" width="345.1" height="3.8"/>
			<rect x="142.6" y="267.4" class="st5" width="271.4" height="4.2"/>
			<rect x="142.6" y="279.5" class="st5" width="271.4" height="4.2"/>
			<rect x="142.6" y="291.6" class="st5" width="271.4" height="4.2"/>
		</g>
		<g>
			<rect x="142.6" y="317.6" class="st5" width="345.1" height="3.8"/>
			<rect x="142.6" y="330.2" class="st5" width="271.4" height="4.2"/>
			<rect x="142.6" y="342.3" class="st5" width="271.4" height="4.2"/>
			<rect x="142.6" y="354.4" class="st5" width="271.4" height="4.2"/>
		</g>
		<rect x="151.9" y="94.5" class="st1" width="95.9" height="4.8"/>
	</g>
</g>
</svg>
