<?xml version="1.0" encoding="utf-8"?>
<!-- Generator: Adobe Illustrator 23.0.1, SVG Export Plug-In . SVG Version: 6.00 Build 0)  -->
<svg version="1.1" id="online_store" xmlns="http://www.w3.org/2000/svg" xmlns:xlink="http://www.w3.org/1999/xlink" x="0px"
	 y="0px" viewBox="0 0 362.3 389.4" style="enable-background:new 0 0 362.3 389.4;" xml:space="preserve">
<style type="text/css">
	.st0{fill:#333333;}
	.st1{fill:#296EB7;}
	.st2{fill:#FFFFFF;}
	.st3{fill:#C84227;}
	.st4{fill:#EA4647;}
	.st5{fill:#E6E7E8;}
</style>
<g id="tabet">
	<g>
		<path class="st0" d="M314.8,370.7H45c-6,0-11-5-11-11V21.1c0-6,5-11,11-11h269.8c6.1,0,11,4.9,11,11v338.6
			C325.8,365.8,320.9,370.7,314.8,370.7z"/>
		<rect x="56.8" y="31.8" class="st1" width="246.2" height="304.2"/>
		<circle class="st1" cx="179.9" cy="353" r="12.1"/>
		<circle class="st2" cx="179.9" cy="353" r="8.5"/>
	</g>
	<g>
		<path class="st3" d="M258.9,112.9c0.7,7.9,7.3,14,15.4,14s14.7-6.2,15.4-14H258.9z"/>
		<g>
			<path class="st4" d="M335.6,39.2H26.9c-0.7,0-1.3-0.6-1.3-1.3v-5.4c0-0.7,0.6-1.3,1.3-1.3h308.7c0.7,0,1.3,0.6,1.3,1.3v5.4
				C336.9,38.6,336.3,39.2,335.6,39.2z"/>
			<polygon class="st2" points="196.8,112.9 165.6,112.9 167.9,35.2 194.6,35.2 			"/>
			<polygon class="st4" points="227.7,112.9 196.5,112.9 194.6,35.2 221.7,35.2 			"/>
			<polygon class="st2" points="258.8,112.9 227.7,112.9 221.7,35.2 248.9,35.2 			"/>
			<polygon class="st4" points="290,112.9 258.8,112.9 248.9,35.2 276.3,35.2 			"/>
			<polygon class="st2" points="321.2,112.9 290,112.9 276.3,35.2 303.5,35.2 			"/>
			<polygon class="st4" points="352.9,112.9 321.2,112.9 303.5,35.2 331.3,35.2 			"/>
			<path class="st5" d="M165.7,112.9c0.7,7.9,7.3,14,15.4,14c8.1,0,14.7-6.2,15.4-14H165.7z"/>
			<path class="st3" d="M196.5,112.9c0.7,7.9,7.3,14,15.4,14c8.1,0,14.7-6.2,15.4-14H196.5z"/>
			<path class="st5" d="M228.1,112.9c0.7,7.9,7.3,14,15.4,14c8.1,0,14.7-6.2,15.4-14H228.1z"/>
			<path class="st5" d="M290.5,112.9c0.7,7.9,7.3,14,15.4,14c8.1,0,14.7-6.2,15.4-14H290.5z"/>
			<path class="st3" d="M321.3,112.9c0.7,7.9,7.3,14,15.4,14c8.1,0,14.7-6.2,15.4-14H321.3z"/>
			<polygon class="st4" points="134.6,112.9 165.9,112.9 167.8,35.2 140.6,35.2 			"/>
			<polygon class="st2" points="103.6,112.9 134.6,112.9 140.6,35.2 113.4,35.2 			"/>
			<polygon class="st4" points="72.3,112.9 103.6,112.9 113.4,35.2 86.1,35.2 			"/>
			<polygon class="st2" points="41.1,112.9 72.3,112.9 86.1,35.2 58.8,35.2 			"/>
			<polygon class="st4" points="9.4,112.9 41.1,112.9 58.8,35.2 31,35.2 			"/>
			<path class="st3" d="M165.8,112.9c-0.7,7.9-7.3,14-15.4,14c-8.1,0-14.7-6.2-15.4-14H165.8z"/>
			<path class="st5" d="M134.2,112.9c-0.7,7.9-7.3,14-15.4,14s-14.7-6.2-15.4-14H134.2z"/>
			<path class="st3" d="M103.4,112.9c-0.7,7.9-7.3,14-15.4,14s-14.7-6.2-15.4-14H103.4z"/>
			<path class="st5" d="M71.8,112.9c-0.7,7.9-7.3,14-15.4,14s-14.7-6.2-15.4-14H71.8z"/>
			<path class="st3" d="M41,112.9c-0.7,7.9-7.3,14-15.4,14s-14.7-6.2-15.4-14H41z"/>
		</g>
	</g>
</g>
</svg>
