<?xml version="1.0" encoding="utf-8"?>
<!-- Generator: Adobe Illustrator 23.0.1, SVG Export Plug-In . SVG Version: 6.00 Build 0)  -->
<svg version="1.1" id="Layer_1" xmlns="http://www.w3.org/2000/svg" xmlns:xlink="http://www.w3.org/1999/xlink" x="0px" y="0px"
	 viewBox="0 0 300.5 234.4" style="enable-background:new 0 0 300.5 234.4;" xml:space="preserve">
<style type="text/css">
	.st0{fill-rule:evenodd;clip-rule:evenodd;fill:#040404;}
	.st1{fill-rule:evenodd;clip-rule:evenodd;fill:#4D4D4D;}
	.st2{fill-rule:evenodd;clip-rule:evenodd;fill:#423F43;}
	.st3{fill-rule:evenodd;clip-rule:evenodd;fill:#FFFFFF;}
	.st4{fill-rule:evenodd;clip-rule:evenodd;fill:#246EB9;}
	.st5{fill-rule:evenodd;clip-rule:evenodd;fill:#333333;}
	.st6{fill-rule:evenodd;clip-rule:evenodd;fill:#F7F7F7;}
	.st7{fill-rule:evenodd;clip-rule:evenodd;fill:#999999;}
	.st8{fill-rule:evenodd;clip-rule:evenodd;fill:#EA4647;}
	.st9{fill-rule:evenodd;clip-rule:evenodd;fill:#666666;}
	.st10{fill:none;stroke:#CECECE;stroke-width:5;stroke-miterlimit:10;}
</style>
<title>devices copy</title>
<desc>Created with Sketch.</desc>
<g id="Page-1">
	<g id="devices-copy">
		<path class="st0" d="M191.2,5.5l85.2,0.1c9.9,0,15.6,7.8,12.8,17.5l-54.2,188.2c-2.8,9.6-13,17.5-22.9,17.5l-85.2-0.1
			c-9.9,0-15.6-7.8-12.8-17.5l54.2-188.2C171.1,13.3,181.4,5.5,191.2,5.5z"/>
		
			<ellipse transform="matrix(0.4867 -0.8736 0.8736 0.4867 99.0627 199.9806)" class="st1" cx="219.7" cy="15.7" rx="1.4" ry="0.9"/>
		<path class="st2" d="M229.2,15.1l13.5,0c0.5,0,0.8,0.4,0.6,0.9l0,0c-0.1,0.5-0.7,0.9-1.2,0.9l-13.5,0c-0.5,0-0.8-0.4-0.6-0.9l0,0
			C228.2,15.5,228.8,15.1,229.2,15.1z"/>
		<path class="st3" d="M174.4,24.7l108.2,0.1c1.2,0,1.9,1,1.5,2.2l-53.1,184.7c-0.3,1.2-1.6,2.2-2.8,2.2l-108.2-0.1
			c-1.2,0-1.9-1-1.5-2.2l53.1-184.7C171.9,25.7,173.2,24.7,174.4,24.7z"/>
		<polygon class="st4" points="168.2,38.5 280.7,38.5 277.3,50.4 164.8,50.3 		"/>
		<polygon class="st5" points="163,57 275.5,57.1 259.2,113.7 146.7,113.6 		"/>
		<polygon class="st6" points="168.7,78.2 250.1,78.2 246.5,90.5 165.1,90.4 		"/>
		<polygon class="st4" points="187.1,118.7 215.3,118.7 208.8,141.3 180.6,141.3 		"/>
		<polygon class="st4" points="222.9,118.9 251.1,118.9 244.6,141.5 216.4,141.4 		"/>
		<polygon class="st4" points="151.5,118.8 179.8,118.8 173.3,141.4 145,141.4 		"/>
		<polygon class="st7" points="179.3,145.8 207.5,145.8 206.9,147.8 178.7,147.8 		"/>
		<polygon class="st7" points="178,150.3 206.2,150.4 205.6,152.4 177.4,152.4 		"/>
		<polygon class="st7" points="176.7,154.9 204.9,154.9 204.3,156.9 176.1,156.9 		"/>
		<polygon class="st7" points="175.3,159.6 203.6,159.6 203,161.6 174.8,161.6 		"/>
		<polygon class="st7" points="174,164.1 202.3,164.1 201.7,166.2 173.4,166.1 		"/>
		<polygon class="st7" points="215.2,145.7 243.4,145.7 242.8,147.7 214.6,147.7 		"/>
		<polygon class="st7" points="213.8,150.3 242.1,150.3 241.5,152.3 213.3,152.3 		"/>
		<polygon class="st7" points="212.5,154.9 240.7,154.9 240.1,157 211.9,156.9 		"/>
		<polygon class="st7" points="211.2,159.5 239.4,159.5 238.8,161.5 210.6,161.5 		"/>
		<polygon class="st7" points="209.9,164.1 238.1,164.2 237.5,166.2 209.3,166.2 		"/>
		<polygon class="st7" points="143.8,145.7 172,145.7 171.5,147.7 143.2,147.7 		"/>
		<polygon class="st7" points="142.5,150.2 170.7,150.2 170.1,152.3 141.9,152.2 		"/>
		<polygon class="st7" points="141.2,154.9 169.4,154.9 168.8,156.9 140.6,156.9 		"/>
		<polygon class="st7" points="139.8,159.4 168.1,159.5 167.5,161.5 139.3,161.5 		"/>
		<polygon class="st7" points="138.5,164.1 166.7,164.1 166.1,166.1 137.9,166.1 		"/>
		<polygon class="st8" points="136.7,170.7 236.3,170.7 228,199.4 128.5,199.4 		"/>
		<polygon class="st7" points="127.3,203.3 226.9,203.4 226.3,205.4 126.7,205.3 		"/>
		<polygon class="st7" points="126,207.9 225.6,207.9 225,210.1 125.4,210 		"/>
		<polygon class="st9" points="174.7,28.8 180,28.8 179.7,29.9 174.4,29.9 		"/>
		<polygon class="st9" points="174,31.1 179.3,31.1 179.1,32.1 173.7,32.1 		"/>
		<polygon class="st9" points="173.4,33.2 178.7,33.2 178.4,34.2 173.1,34.2 		"/>
		<polygon class="st8" points="234.6,78.2 250.3,78.2 246.7,90.7 231,90.7 		"/>
		<line class="st10" x1="137.6" y1="65.7" x2="36.9" y2="65.7"/>
		<line class="st10" x1="124.2" y1="113.7" x2="23.5" y2="113.7"/>
		<line class="st10" x1="111.3" y1="161.7" x2="10.6" y2="161.7"/>
	</g>
</g>
</svg>
