<?xml version="1.0" encoding="utf-8"?>
<!-- Generator: Adobe Illustrator 23.0.1, SVG Export Plug-In . SVG Version: 6.00 Build 0)  -->
<svg version="1.1" id="Layer_1" xmlns="http://www.w3.org/2000/svg" xmlns:xlink="http://www.w3.org/1999/xlink" x="0px" y="0px"
	 viewBox="0 0 1424 460" style="enable-background:new 0 0 1424 460;" xml:space="preserve">
<style type="text/css">
	.st0{fill-rule:evenodd;clip-rule:evenodd;fill:none;}
	.st1{fill-rule:evenodd;clip-rule:evenodd;fill:#040404;}
	.st2{fill-rule:evenodd;clip-rule:evenodd;fill:#FFFFFF;}
	.st3{fill-rule:evenodd;clip-rule:evenodd;fill:#333333;}
	.st4{fill-rule:evenodd;clip-rule:evenodd;fill:#F7F7F7;}
	.st5{fill-rule:evenodd;clip-rule:evenodd;fill:#246EB9;}
	.st6{fill-rule:evenodd;clip-rule:evenodd;fill:#999999;}
	.st7{fill-rule:evenodd;clip-rule:evenodd;fill:#4D4D4D;}
	.st8{fill-rule:evenodd;clip-rule:evenodd;fill:#EA4647;}
	.st9{fill-rule:evenodd;clip-rule:evenodd;fill:#666666;}
	.st10{fill-rule:evenodd;clip-rule:evenodd;fill:#AFAFAF;}
	.st11{fill-rule:evenodd;clip-rule:evenodd;fill:#423F43;}
	.st12{fill-rule:evenodd;clip-rule:evenodd;fill:#919296;}
	.st13{fill-rule:evenodd;clip-rule:evenodd;fill:url(#SVGID_1_);}
	.st14{fill-rule:evenodd;clip-rule:evenodd;fill:#464142;}
	.st15{fill-rule:evenodd;clip-rule:evenodd;fill:url(#SVGID_2_);}
	.st16{fill-rule:evenodd;clip-rule:evenodd;fill:#1D1E21;}
	.st17{fill-rule:evenodd;clip-rule:evenodd;fill:#0D0F12;}
	.st18{fill-rule:evenodd;clip-rule:evenodd;fill:#1C1E20;}
	.st19{fill-rule:evenodd;clip-rule:evenodd;fill:#DCDDE0;}
	.st20{fill-rule:evenodd;clip-rule:evenodd;fill:#CECECE;}
	.st21{fill-rule:evenodd;clip-rule:evenodd;fill:url(#SVGID_3_);}
	.st22{fill-rule:evenodd;clip-rule:evenodd;fill:url(#SVGID_4_);}
	.st23{fill-rule:evenodd;clip-rule:evenodd;fill:url(#SVGID_5_);}
	.st24{fill-rule:evenodd;clip-rule:evenodd;fill:url(#devices);}
</style>
<pattern  y="460" width="291" height="207.9" patternUnits="userSpaceOnUse" id="devices" viewBox="46.9 -243.8 291 207.9" style="overflow:visible;">
	<g>
		<rect x="46.9" y="-243.8" class="st0" width="291" height="207.9"/>
		<g id="Page-1_12_">
			<g id="devices-copy_12_">
				<path id="Path_12_" class="st1" d="M303.7-67.1v61.9h102.8v-61.9c0-3.2-2.6-5.7-5.7-5.7h-91.4C306.2-72.9,303.7-70.3,303.7-67.1
					z"/>
				<path id="Rectangle_12_" class="st2" d="M306.2-68.1v58.2c0,0.2,0.2,0.4,0.4,0.4h97.5c0.2,0,0.4-0.2,0.4-0.4v-58.2
					c0-0.2-0.2-0.4-0.4-0.4h-97.5C306.4-68.5,306.2-68.3,306.2-68.1z"/>
				<rect x="306.1" y="-65.6" class="st3" width="98.3" height="4"/>
				<rect x="314.6" y="-59.8" class="st3" width="80" height="20.7"/>
				<rect x="329.2" y="-50.9" class="st4" width="50.8" height="4.2"/>
				<rect x="314.6" y="-36.8" class="st5" width="24.7" height="10.9"/>
				<rect x="326" y="-64" class="st6" width="11.9" height="1"/>
				<path class="st1" d="M217.4-66.3v60.8c0,3,2.5,5.5,5.5,5.5h44.3c3,0,5.5-2.5,5.5-5.5v-60.8c0-3-2.5-5.5-5.5-5.5h-44.3
					C219.8-71.8,217.3-69.3,217.4-66.3z"/>
				<path class="st2" d="M220.5-67.8v64.3c0,0.2,0.2,0.4,0.4,0.4h48.3c0.2,0,0.4-0.2,0.4-0.4v-64.3c0-0.2-0.2-0.4-0.4-0.4h-48.3
					C220.7-68.1,220.5-68,220.5-67.8z"/>
				<circle class="st7" cx="245" cy="-70" r="0.4"/>
				<rect x="220.5" y="-63.1" class="st3" width="49" height="4.1"/>
				<rect x="223.2" y="-56.7" class="st3" width="43.5" height="19.6"/>
				<rect x="228.7" y="-48.3" class="st4" width="31.7" height="3.3"/>
				<rect x="253.7" y="-48.3" class="st8" width="6.7" height="3.4"/>
				<rect x="222.1" y="-66.4" class="st9" width="2.3" height="0.3"/>
				<rect x="222.1" y="-65.7" class="st9" width="2.3" height="0.3"/>
				<rect x="222.1" y="-64.9" class="st9" width="2.3" height="0.3"/>
			</g>
		</g>
		<g id="Page-1_11_">
			<g id="devices-copy_11_">
				<path id="Path_11_" class="st1" d="M12.7-67.1v61.9h102.8v-61.9c0-3.2-2.6-5.7-5.7-5.7H18.5C15.3-72.9,12.7-70.3,12.7-67.1z"/>
				<path id="Rectangle_11_" class="st2" d="M15.2-68.1v58.2c0,0.2,0.2,0.4,0.4,0.4h97.5c0.2,0,0.4-0.2,0.4-0.4v-58.2
					c0-0.2-0.2-0.4-0.4-0.4H15.6C15.4-68.5,15.2-68.3,15.2-68.1z"/>
				<ellipse id="Oval_6_" class="st7" cx="63.7" cy="-70.8" rx="0.6" ry="0.6"/>
				<rect x="15.1" y="-65.6" class="st3" width="98.3" height="4"/>
				<rect x="23.7" y="-59.8" class="st3" width="80" height="20.7"/>
				<rect x="38.3" y="-50.9" class="st4" width="50.8" height="4.2"/>
				<rect x="78.2" y="-50.9" class="st8" width="10.8" height="4.3"/>
				<rect x="51.2" y="-36.8" class="st5" width="24.7" height="10.9"/>
				<rect x="79" y="-37" class="st5" width="24.7" height="10.9"/>
				<rect x="23.7" y="-36.8" class="st5" width="24.7" height="10.9"/>
				<rect x="79.3" y="-64" class="st6" width="11.9" height="1"/>
				<rect x="64.3" y="-64" class="st10" width="11.9" height="1"/>
				<rect x="35" y="-64" class="st6" width="11.9" height="1"/>
				<rect x="49.3" y="-64" class="st6" width="11.9" height="1"/>
				<path class="st1" d="M146.3-36.1v32c0,1.7,1.4,3,3.1,3h14.9c1.7,0,3.1-1.3,3.1-3v-32c0-1.7-1.4-3-3.1-3h-14.9
					C147.7-39.1,146.3-37.8,146.3-36.1z"/>
				<ellipse class="st7" cx="154.9" cy="-37.4" rx="0.2" ry="0.2"/>
				<path class="st11" d="M156.3-37.3L156.3-37.3c0,0.1,0.1,0.2,0.2,0.2h2.4c0.1,0,0.2-0.1,0.2-0.2l0,0c0-0.1-0.1-0.2-0.2-0.2h-2.4
					C156.4-37.5,156.3-37.4,156.3-37.3z"/>
			</g>
		</g>
		<g id="Page-1_10_">
			<g id="devices-copy_10_">
				<path id="Path_10_" class="st1" d="M158.2-171.1v61.9H261v-61.9c0-3.2-2.6-5.7-5.7-5.7h-91.4
					C160.8-176.8,158.2-174.2,158.2-171.1z"/>
				<path id="Rectangle_10_" class="st2" d="M160.7-172v58.2c0,0.2,0.2,0.4,0.4,0.4h97.5c0.2,0,0.4-0.2,0.4-0.4V-172
					c0-0.2-0.2-0.4-0.4-0.4h-97.5C160.9-172.4,160.7-172.2,160.7-172z"/>
				<ellipse id="Oval_3_" class="st7" cx="209.2" cy="-174.7" rx="0.6" ry="0.6"/>
				<rect x="160.6" y="-169.5" class="st3" width="98.3" height="4"/>
				<rect x="169.1" y="-163.7" class="st3" width="80" height="20.7"/>
				<rect x="183.8" y="-154.9" class="st4" width="50.8" height="4.2"/>
				<rect x="223.7" y="-154.9" class="st8" width="10.8" height="4.3"/>
				<rect x="196.7" y="-140.8" class="st5" width="24.7" height="10.9"/>
				<rect x="224.4" y="-141" class="st5" width="24.7" height="10.9"/>
				<rect x="169.1" y="-140.8" class="st5" width="24.7" height="10.9"/>
				<rect x="196.8" y="-128.1" class="st6" width="24.7" height="0.7"/>
				<rect x="196.8" y="-126" class="st6" width="24.7" height="0.7"/>
				<rect x="196.8" y="-123.9" class="st6" width="24.7" height="0.7"/>
				<rect x="196.8" y="-121.9" class="st6" width="24.7" height="0.7"/>
				<rect x="169.1" y="-119.5" class="st8" width="80" height="6"/>
				<rect x="169.1" y="-128.2" class="st6" width="24.7" height="0.7"/>
				<rect x="169.1" y="-126.1" class="st6" width="24.7" height="0.7"/>
				<rect x="169.1" y="-124" class="st6" width="24.7" height="0.7"/>
				<rect x="169.1" y="-121.9" class="st6" width="24.7" height="0.7"/>
				<rect x="224.4" y="-128.1" class="st6" width="24.7" height="0.7"/>
				<rect x="224.4" y="-126" class="st6" width="24.7" height="0.7"/>
				<rect x="224.4" y="-123.9" class="st6" width="24.7" height="0.7"/>
				<rect x="224.4" y="-121.9" class="st6" width="24.7" height="0.7"/>
				<rect x="224.8" y="-167.9" class="st6" width="11.9" height="1"/>
				<rect x="209.8" y="-167.9" class="st10" width="11.9" height="1"/>
				<rect x="180.5" y="-167.9" class="st6" width="11.9" height="1"/>
				<rect x="194.8" y="-167.9" class="st6" width="11.9" height="1"/>
				<path class="st12" d="M146.9-105.9c0,1,4.1,2.5,4.8,2.5h115.6c0.8,0,4.8-1.5,4.8-2.5H146.9z"/>
				
					<linearGradient id="SVGID_1_" gradientUnits="userSpaceOnUse" x1="6966.2158" y1="-8584.9082" x2="6966.3784" y2="-8584.9082" gradientTransform="matrix(784.87 0 0 -28.12 -5467428.5 -241514.5625)">
					<stop  offset="0" style="stop-color:#606162"/>
					<stop  offset="0.12" style="stop-color:#B7BABB"/>
					<stop  offset="0.36" style="stop-color:#A2A5A6"/>
					<stop  offset="0.51" style="stop-color:#C9CCCD"/>
					<stop  offset="0.73" style="stop-color:#848687"/>
					<stop  offset="0.88" style="stop-color:#9C9FA0"/>
					<stop  offset="1" style="stop-color:#4C4D4E"/>
				</linearGradient>
				<path class="st13" d="M145.5-109.2v0.9c0,1,0.4,1.9,1.1,2.6s1.6,1.1,2.6,1.1h120.2c2,0,3.7-1.7,3.7-3.7v-0.8H145.5L145.5-109.2z
					"/>
				<path class="st14" d="M149.8-104c0,0.4,3.9,1.1,4.6,1.1h110.1c0.7,0,4.6-0.7,4.6-1.1H149.8z"/>
				
					<linearGradient id="SVGID_2_" gradientUnits="userSpaceOnUse" x1="6847.4985" y1="-9505.0547" x2="6847.4985" y2="-9505.2178" gradientTransform="matrix(109.19 0 0 -11.36 -747469.75 -108086.3281)">
					<stop  offset="0" style="stop-color:#9C9FA0"/>
					<stop  offset="0.24" style="stop-color:#A2A5A6"/>
					<stop  offset="1" style="stop-color:#4C4D4E"/>
				</linearGradient>
				<path class="st15" d="M199.8-108.9c0,0.9,0.6,1.8,1.7,1.8h14.3c1,0,1.8-0.8,1.8-1.8H199.8z"/>
				<path class="st16" d="M192.6-103.2c-0.2-0.3-1.2-0.3-1.6,0C191.5-103,192.1-103,192.6-103.2z"/>
				<path class="st16" d="M227.2-103.1c-0.2-0.3-1.2-0.3-1.6,0C226.1-103,226.7-103,227.2-103.1z"/>
				<path class="st16" d="M155.9-103.2c-0.2-0.3-1.2-0.3-1.6,0C154.9-103.1,155.4-103.1,155.9-103.2z"/>
				<path class="st16" d="M263.3-103.1c-0.2-0.3-1.2-0.3-1.6,0C262.2-103,262.8-103,263.3-103.1z"/>
				<path class="st17" d="M256.3-106.7c0.1,0.1,0.2,0.1,0.3,0.1h3.7c0.1,0,0.2,0,0.3-0.1C259.1-106.7,257.7-106.7,256.3-106.7z"/>
				<path class="st18" d="M256.6-106.3c1,0,2.1,0,3.1,0c0.3,0,0.5,0.1,0.8-0.1c0.2-0.2,0.4-0.3,0-0.5c-0.5,0.1-0.9,0.1-1.4,0
					c-0.9,0-1.9,0.1-2.8,0c-0.4,0.1-0.2,0.3-0.1,0.5C256.3-106.2,256.5-106.3,256.6-106.3z"/>
				<path class="st19" d="M256.2-106.3C256.2-106.3,256.2-106.3,256.2-106.3c1.5,0,2.9,0,4.3,0c0,0,0-0.1,0-0.1L256.2-106.3
					C256.2-106.3,256.2-106.3,256.2-106.3z"/>
				<path class="st17" d="M256.3-106.9c0.1,0.1,0.2,0.1,0.3,0.1h3.7c0.1,0,0.2,0,0.3-0.1C259.1-106.9,257.7-106.9,256.3-106.9z"/>
				<path class="st17" d="M256.3-106.9c0.1,0.1,0.2,0.1,0.3,0.1h3.7c0.1,0,0.2,0,0.3-0.1C259.1-106.9,257.7-106.9,256.3-106.9z"/>
				<path class="st18" d="M256.6-106.3c1,0,2.1,0,3.1,0c0.3,0,0.5,0.1,0.8-0.1c0.2-0.2,0.4-0.3,0-0.5c-0.5,0.1-0.9,0.1-1.4,0
					c-0.9,0-1.9,0.1-2.8,0c-0.4,0.1-0.2,0.3-0.1,0.5C256.3-106.2,256.5-106.3,256.6-106.3z"/>
				<path class="st20" d="M256.2-106.3C256.2-106.3,256.2-106.3,256.2-106.3c1.5,0,2.9,0,4.3,0c0,0,0-0.1,0-0.1L256.2-106.3
					C256.2-106.3,256.2-106.3,256.2-106.3z"/>
				<path class="st17" d="M256.3-106.9c0.1,0.1,0.2,0.1,0.3,0.1h3.7c0.1,0,0.2,0,0.3-0.1C259.1-106.9,257.7-106.9,256.3-106.9z"/>
				<path class="st1" d="M291.8-140.1v32c0,1.7,1.4,3,3.1,3h14.9c1.7,0,3.1-1.3,3.1-3v-32c0-1.7-1.4-3-3.1-3h-14.9
					C293.1-143.1,291.8-141.7,291.8-140.1z"/>
				<ellipse class="st7" cx="300.3" cy="-141.4" rx="0.2" ry="0.2"/>
				<path class="st11" d="M301.8-141.3L301.8-141.3c0,0.1,0.1,0.2,0.2,0.2h2.4c0.1,0,0.2-0.1,0.2-0.2l0,0c0-0.1-0.1-0.2-0.2-0.2H302
					C301.9-141.5,301.8-141.4,301.8-141.3z"/>
				<path class="st2" d="M292.5-139.4v31.4c0,0.2,0.2,0.4,0.4,0.4h18.9c0.2,0,0.4-0.2,0.4-0.4v-31.4c0-0.2-0.2-0.4-0.4-0.4h-18.9
					C292.7-139.8,292.5-139.6,292.5-139.4z"/>
				<rect x="292.5" y="-137.5" class="st3" width="19.6" height="2"/>
				<rect x="292.5" y="-134.3" class="st3" width="19.6" height="9.6"/>
				<rect x="294.6" y="-130.7" class="st4" width="14.2" height="2.1"/>
				<rect x="299.8" y="-123.8" class="st5" width="4.9" height="3.8"/>
				<rect x="306.1" y="-123.8" class="st5" width="4.9" height="3.8"/>
				<rect x="293.6" y="-123.8" class="st5" width="4.9" height="3.8"/>
				<rect x="299.8" y="-119.2" class="st6" width="4.9" height="0.3"/>
				<rect x="299.8" y="-118.5" class="st6" width="4.9" height="0.3"/>
				<rect x="299.8" y="-117.7" class="st6" width="4.9" height="0.3"/>
				<rect x="299.8" y="-116.9" class="st6" width="4.9" height="0.3"/>
				<rect x="299.8" y="-116.1" class="st6" width="4.9" height="0.3"/>
				<rect x="306.1" y="-119.3" class="st6" width="4.9" height="0.3"/>
				<rect x="306.1" y="-118.5" class="st6" width="4.9" height="0.3"/>
				<rect x="306.1" y="-117.7" class="st6" width="4.9" height="0.3"/>
				<rect x="306.1" y="-116.9" class="st6" width="4.9" height="0.3"/>
				<rect x="306.1" y="-116.1" class="st6" width="4.9" height="0.3"/>
				<rect x="293.6" y="-119.3" class="st6" width="4.9" height="0.3"/>
				<rect x="293.6" y="-118.5" class="st6" width="4.9" height="0.3"/>
				<rect x="293.6" y="-117.7" class="st6" width="4.9" height="0.3"/>
				<rect x="293.6" y="-116.9" class="st6" width="4.9" height="0.3"/>
				<rect x="293.6" y="-116.1" class="st6" width="4.9" height="0.3"/>
				<rect x="293.6" y="-115" class="st8" width="17.4" height="4.9"/>
				<rect x="293.6" y="-109.5" class="st6" width="17.4" height="0.3"/>
				<rect x="293.6" y="-108.7" class="st6" width="17.4" height="0.4"/>
				<rect x="293.1" y="-139.1" class="st9" width="0.9" height="0.2"/>
				<rect x="293.1" y="-138.7" class="st9" width="0.9" height="0.2"/>
				<rect x="293.1" y="-138.4" class="st9" width="0.9" height="0.2"/>
				<rect x="306.1" y="-130.7" class="st8" width="2.7" height="2.1"/>
				<path class="st1" d="M71.9-170.2v60.8c0,3,2.5,5.5,5.5,5.5h44.3c3,0,5.5-2.5,5.5-5.5v-60.8c0-3-2.5-5.5-5.5-5.5H77.4
					C74.3-175.7,71.9-173.3,71.9-170.2z"/>
				<path class="st2" d="M75-171.7v64.3c0,0.2,0.2,0.4,0.4,0.4h48.3c0.2,0,0.4-0.2,0.4-0.4v-64.3c0-0.2-0.2-0.4-0.4-0.4H75.4
					C75.2-172.1,75-171.9,75-171.7z"/>
				<circle class="st7" cx="99.5" cy="-173.9" r="0.4"/>
				<rect x="75" y="-167.1" class="st3" width="49" height="4.1"/>
				<rect x="77.7" y="-160.6" class="st3" width="43.5" height="19.6"/>
				<rect x="83.3" y="-152.3" class="st4" width="31.7" height="3.3"/>
				<rect x="108.2" y="-152.3" class="st8" width="6.7" height="3.4"/>
				<rect x="93.3" y="-139.3" class="st5" width="12.3" height="7.8"/>
				<rect x="108.9" y="-139.3" class="st5" width="12.3" height="7.8"/>
				<rect x="77.8" y="-139.3" class="st5" width="12.3" height="7.8"/>
				<rect x="93.3" y="-130" class="st6" width="12.3" height="0.7"/>
				<rect x="93.3" y="-128.4" class="st6" width="12.3" height="0.7"/>
				<rect x="93.3" y="-126.8" class="st6" width="12.3" height="0.7"/>
				<rect x="93.3" y="-125.2" class="st6" width="12.3" height="0.7"/>
				<rect x="93.3" y="-123.6" class="st6" width="12.3" height="0.7"/>
				<rect x="108.9" y="-130" class="st6" width="12.3" height="0.7"/>
				<rect x="108.9" y="-128.4" class="st6" width="12.3" height="0.7"/>
				<rect x="108.9" y="-126.8" class="st6" width="12.3" height="0.7"/>
				<rect x="108.9" y="-125.2" class="st6" width="12.3" height="0.7"/>
				<rect x="108.9" y="-123.7" class="st6" width="12.3" height="0.7"/>
				<rect x="77.8" y="-130" class="st6" width="12.3" height="0.7"/>
				<rect x="77.8" y="-128.4" class="st6" width="12.3" height="0.7"/>
				<rect x="77.8" y="-126.8" class="st6" width="12.3" height="0.7"/>
				<rect x="77.8" y="-125.2" class="st6" width="12.3" height="0.7"/>
				<rect x="77.8" y="-123.7" class="st6" width="12.3" height="0.7"/>
				<rect x="77.8" y="-121.3" class="st8" width="43.4" height="9.9"/>
				<rect x="77.8" y="-110.1" class="st6" width="43.4" height="0.7"/>
				<rect x="77.8" y="-108.5" class="st6" width="43.4" height="0.7"/>
				<rect x="76.6" y="-170.4" class="st9" width="2.3" height="0.3"/>
				<rect x="76.6" y="-169.6" class="st9" width="2.3" height="0.3"/>
				<rect x="76.6" y="-168.9" class="st9" width="2.3" height="0.3"/>
			</g>
		</g>
		<g id="Page-1_9_">
			<g id="devices-copy_9_">
				<path id="Path_9_" class="st1" d="M303.7-275v61.9h102.8V-275c0-3.2-2.6-5.7-5.7-5.7h-91.4C306.2-280.8,303.7-278.2,303.7-275z"
					/>
				<path id="Rectangle_9_" class="st2" d="M306.2-276v58.2c0,0.2,0.2,0.4,0.4,0.4h97.5c0.2,0,0.4-0.2,0.4-0.4V-276
					c0-0.2-0.2-0.4-0.4-0.4h-97.5C306.4-276.4,306.2-276.2,306.2-276z"/>
				<rect x="314.6" y="-244.7" class="st5" width="24.7" height="10.9"/>
				<rect x="314.6" y="-223.4" class="st8" width="80" height="6"/>
				<rect x="314.6" y="-232.2" class="st6" width="24.7" height="0.7"/>
				<rect x="314.6" y="-230.1" class="st6" width="24.7" height="0.7"/>
				<rect x="314.6" y="-228" class="st6" width="24.7" height="0.7"/>
				<rect x="314.6" y="-225.9" class="st6" width="24.7" height="0.7"/>
				<path class="st12" d="M292.4-209.8c0,1,4.1,2.5,4.8,2.5h115.6c0.8,0,4.8-1.5,4.8-2.5H292.4z"/>
				
					<linearGradient id="SVGID_3_" gradientUnits="userSpaceOnUse" x1="6966.4014" y1="-8581.2109" x2="6966.564" y2="-8581.2109" gradientTransform="matrix(784.87 0 0 -28.12 -5467428.5 -241514.5625)">
					<stop  offset="0" style="stop-color:#606162"/>
					<stop  offset="0.12" style="stop-color:#B7BABB"/>
					<stop  offset="0.36" style="stop-color:#A2A5A6"/>
					<stop  offset="0.51" style="stop-color:#C9CCCD"/>
					<stop  offset="0.73" style="stop-color:#848687"/>
					<stop  offset="0.88" style="stop-color:#9C9FA0"/>
					<stop  offset="1" style="stop-color:#4C4D4E"/>
				</linearGradient>
				<path class="st21" d="M291-213.2v0.9c0,1,0.4,1.9,1.1,2.6s1.6,1.1,2.6,1.1h120.2c2,0,3.7-1.7,3.7-3.7v-0.8H291L291-213.2z"/>
				<path class="st14" d="M295.3-207.9c0,0.4,3.9,1.1,4.6,1.1H410c0.7,0,4.6-0.7,4.6-1.1H295.3z"/>
				<path class="st16" d="M338.1-207.1c-0.2-0.3-1.2-0.3-1.6,0C337-207,337.6-207,338.1-207.1z"/>
				<path class="st16" d="M301.4-207.2c-0.2-0.3-1.2-0.3-1.6,0C300.4-207,300.9-207,301.4-207.2z"/>
				<path class="st1" d="M217.4-274.2v60.8c0,3,2.5,5.5,5.5,5.5h44.3c3,0,5.5-2.5,5.5-5.5v-60.8c0-3-2.5-5.5-5.5-5.5h-44.3
					C219.8-279.7,217.3-277.2,217.4-274.2z"/>
				<path class="st2" d="M220.5-275.7v64.3c0,0.2,0.2,0.4,0.4,0.4h48.3c0.2,0,0.4-0.2,0.4-0.4v-64.3c0-0.2-0.2-0.4-0.4-0.4h-48.3
					C220.7-276,220.5-275.9,220.5-275.7z"/>
				<rect x="238.8" y="-243.3" class="st5" width="12.3" height="7.8"/>
				<rect x="254.4" y="-243.3" class="st5" width="12.3" height="7.8"/>
				<rect x="223.3" y="-243.3" class="st5" width="12.3" height="7.8"/>
				<rect x="238.8" y="-233.9" class="st6" width="12.3" height="0.7"/>
				<rect x="238.8" y="-232.4" class="st6" width="12.3" height="0.7"/>
				<rect x="238.8" y="-230.8" class="st6" width="12.3" height="0.7"/>
				<rect x="238.8" y="-229.2" class="st6" width="12.3" height="0.7"/>
				<rect x="238.8" y="-227.6" class="st6" width="12.3" height="0.7"/>
				<rect x="254.4" y="-234" class="st6" width="12.3" height="0.7"/>
				<rect x="254.4" y="-232.4" class="st6" width="12.3" height="0.7"/>
				<rect x="254.4" y="-230.8" class="st6" width="12.3" height="0.7"/>
				<rect x="254.4" y="-229.2" class="st6" width="12.3" height="0.7"/>
				<rect x="254.4" y="-227.6" class="st6" width="12.3" height="0.7"/>
				<rect x="223.3" y="-234" class="st6" width="12.3" height="0.7"/>
				<rect x="223.3" y="-232.4" class="st6" width="12.3" height="0.7"/>
				<rect x="223.3" y="-230.8" class="st6" width="12.3" height="0.7"/>
				<rect x="223.3" y="-229.2" class="st6" width="12.3" height="0.7"/>
				<rect x="223.3" y="-227.6" class="st6" width="12.3" height="0.7"/>
				<rect x="223.3" y="-225.3" class="st8" width="43.4" height="9.9"/>
				<rect x="223.3" y="-214" class="st6" width="43.4" height="0.7"/>
				<rect x="223.3" y="-212.5" class="st6" width="43.4" height="0.7"/>
			</g>
		</g>
		<g id="Page-1_3_">
			<g id="devices-copy_3_">
				<path id="Path_3_" class="st1" d="M12.7-275v61.9h102.8V-275c0-3.2-2.6-5.7-5.7-5.7H18.5C15.3-280.8,12.7-278.2,12.7-275z"/>
				<path id="Rectangle_3_" class="st2" d="M15.2-276v58.2c0,0.2,0.2,0.4,0.4,0.4h97.5c0.2,0,0.4-0.2,0.4-0.4V-276
					c0-0.2-0.2-0.4-0.4-0.4H15.6C15.4-276.4,15.2-276.2,15.2-276z"/>
				<rect x="51.2" y="-244.7" class="st5" width="24.7" height="10.9"/>
				<rect x="79" y="-244.9" class="st5" width="24.7" height="10.9"/>
				<rect x="23.7" y="-244.7" class="st5" width="24.7" height="10.9"/>
				<rect x="51.3" y="-232.1" class="st6" width="24.7" height="0.7"/>
				<rect x="51.3" y="-230" class="st6" width="24.7" height="0.7"/>
				<rect x="51.3" y="-227.9" class="st6" width="24.7" height="0.7"/>
				<rect x="51.3" y="-225.8" class="st6" width="24.7" height="0.7"/>
				<rect x="23.7" y="-223.4" class="st8" width="80" height="6"/>
				<rect x="23.7" y="-232.2" class="st6" width="24.7" height="0.7"/>
				<rect x="23.7" y="-230.1" class="st6" width="24.7" height="0.7"/>
				<rect x="23.7" y="-228" class="st6" width="24.7" height="0.7"/>
				<rect x="23.7" y="-225.9" class="st6" width="24.7" height="0.7"/>
				<rect x="79" y="-232.1" class="st6" width="24.7" height="0.7"/>
				<rect x="79" y="-230" class="st6" width="24.7" height="0.7"/>
				<rect x="79" y="-227.9" class="st6" width="24.7" height="0.7"/>
				<rect x="79" y="-225.8" class="st6" width="24.7" height="0.7"/>
				<path class="st12" d="M1.4-209.8c0,1,4.1,2.5,4.8,2.5h115.6c0.8,0,4.8-1.5,4.8-2.5H1.4z"/>
				
					<linearGradient id="SVGID_4_" gradientUnits="userSpaceOnUse" x1="6966.0308" y1="-8581.2109" x2="6966.1934" y2="-8581.2109" gradientTransform="matrix(784.87 0 0 -28.12 -5467428.5 -241514.5625)">
					<stop  offset="0" style="stop-color:#606162"/>
					<stop  offset="0.12" style="stop-color:#B7BABB"/>
					<stop  offset="0.36" style="stop-color:#A2A5A6"/>
					<stop  offset="0.51" style="stop-color:#C9CCCD"/>
					<stop  offset="0.73" style="stop-color:#848687"/>
					<stop  offset="0.88" style="stop-color:#9C9FA0"/>
					<stop  offset="1" style="stop-color:#4C4D4E"/>
				</linearGradient>
				<path class="st22" d="M0-213.2v0.9c0,1,0.4,1.9,1.1,2.6s1.6,1.1,2.6,1.1h120.2c2,0,3.7-1.7,3.7-3.7v-0.8H0L0-213.2z"/>
				<path class="st14" d="M4.3-207.9c0,0.4,3.9,1.1,4.6,1.1h110.1c0.7,0,4.6-0.7,4.6-1.1H4.3z"/>
				
					<linearGradient id="SVGID_5_" gradientUnits="userSpaceOnUse" x1="6846.166" y1="-9495.9043" x2="6846.166" y2="-9496.0664" gradientTransform="matrix(109.19 0 0 -11.36 -747469.75 -108086.3281)">
					<stop  offset="0" style="stop-color:#9C9FA0"/>
					<stop  offset="0.24" style="stop-color:#A2A5A6"/>
					<stop  offset="1" style="stop-color:#4C4D4E"/>
				</linearGradient>
				<path class="st23" d="M54.3-212.9c0,0.9,0.6,1.8,1.7,1.8h14.3c1,0,1.8-0.8,1.8-1.8H54.3z"/>
				<path class="st16" d="M47.1-207.1c-0.2-0.3-1.2-0.3-1.6,0C46.1-207,46.6-207,47.1-207.1z"/>
				<path class="st16" d="M81.7-207c-0.2-0.3-1.2-0.3-1.6,0C80.6-206.9,81.2-206.9,81.7-207z"/>
				<path class="st16" d="M117.8-207.1c-0.2-0.3-1.2-0.3-1.6,0C116.7-206.9,117.3-206.9,117.8-207.1z"/>
				<path class="st17" d="M110.8-210.6c0.1,0.1,0.2,0.1,0.3,0.1h3.7c0.1,0,0.2,0,0.3-0.1C113.6-210.6,112.2-210.6,110.8-210.6z"/>
				<path class="st18" d="M111.2-210.3c1,0,2.1,0,3.1,0c0.3,0,0.5,0.1,0.8-0.1c0.2-0.2,0.4-0.3,0-0.5c-0.5,0.1-0.9,0.1-1.4,0
					c-0.9,0-1.9,0.1-2.8,0c-0.4,0.1-0.2,0.3-0.1,0.5C110.9-210.2,111-210.3,111.2-210.3z"/>
				<path class="st19" d="M110.7-210.2C110.7-210.2,110.7-210.2,110.7-210.2c1.5,0,2.9,0,4.3,0c0,0,0-0.1,0-0.1L110.7-210.2
					C110.7-210.3,110.7-210.3,110.7-210.2z"/>
				<path class="st17" d="M110.8-210.9c0.1,0.1,0.2,0.1,0.3,0.1h3.7c0.1,0,0.2,0,0.3-0.1C113.6-210.9,112.2-210.9,110.8-210.9z"/>
				<path class="st17" d="M110.8-210.9c0.1,0.1,0.2,0.1,0.3,0.1h3.7c0.1,0,0.2,0,0.3-0.1C113.6-210.9,112.2-210.9,110.8-210.9z"/>
				<path class="st18" d="M111.2-210.3c1,0,2.1,0,3.1,0c0.3,0,0.5,0.1,0.8-0.1c0.2-0.2,0.4-0.3,0-0.5c-0.5,0.1-0.9,0.1-1.4,0
					c-0.9,0-1.9,0.1-2.8,0c-0.4,0.1-0.2,0.3-0.1,0.5C110.9-210.2,111-210.3,111.2-210.3z"/>
				<path class="st20" d="M110.7-210.2C110.7-210.2,110.7-210.2,110.7-210.2c1.5,0,2.9,0,4.3,0c0,0,0-0.1,0-0.1L110.7-210.2
					C110.7-210.3,110.7-210.3,110.7-210.2z"/>
				<path class="st17" d="M110.8-210.9c0.1,0.1,0.2,0.1,0.3,0.1h3.7c0.1,0,0.2,0,0.3-0.1C113.6-210.9,112.2-210.9,110.8-210.9z"/>
				<path class="st1" d="M146.3-244.1v32c0,1.7,1.4,3,3.1,3h14.9c1.7,0,3.1-1.3,3.1-3v-32c0-1.7-1.4-3-3.1-3h-14.9
					C147.7-247,146.3-245.7,146.3-244.1z"/>
				<path class="st2" d="M147-243.4v31.4c0,0.2,0.2,0.4,0.4,0.4h18.9c0.2,0,0.4-0.2,0.4-0.4v-31.4c0-0.2-0.2-0.4-0.4-0.4h-18.9
					C147.2-243.8,147-243.6,147-243.4z"/>
				<rect x="147" y="-241.4" class="st3" width="19.6" height="2"/>
				<rect x="147" y="-238.3" class="st3" width="19.6" height="9.6"/>
				<rect x="149.1" y="-234.7" class="st4" width="14.2" height="2.1"/>
				<rect x="154.3" y="-227.8" class="st5" width="4.9" height="3.8"/>
				<rect x="160.6" y="-227.8" class="st5" width="4.9" height="3.8"/>
				<rect x="148.2" y="-227.8" class="st5" width="4.9" height="3.8"/>
				<rect x="154.3" y="-223.2" class="st6" width="4.9" height="0.3"/>
				<rect x="154.3" y="-222.4" class="st6" width="4.9" height="0.3"/>
				<rect x="154.3" y="-221.6" class="st6" width="4.9" height="0.3"/>
				<rect x="154.3" y="-220.9" class="st6" width="4.9" height="0.3"/>
				<rect x="154.3" y="-220.1" class="st6" width="4.9" height="0.3"/>
				<rect x="160.6" y="-223.2" class="st6" width="4.9" height="0.3"/>
				<rect x="160.6" y="-222.4" class="st6" width="4.9" height="0.3"/>
				<rect x="160.6" y="-221.6" class="st6" width="4.9" height="0.3"/>
				<rect x="160.6" y="-220.9" class="st6" width="4.9" height="0.3"/>
				<rect x="160.6" y="-220.1" class="st6" width="4.9" height="0.3"/>
				<rect x="148.2" y="-223.2" class="st6" width="4.9" height="0.3"/>
				<rect x="148.2" y="-222.4" class="st6" width="4.9" height="0.3"/>
				<rect x="148.2" y="-221.6" class="st6" width="4.9" height="0.3"/>
				<rect x="148.2" y="-220.9" class="st6" width="4.9" height="0.3"/>
				<rect x="148.2" y="-220.1" class="st6" width="4.9" height="0.3"/>
				<rect x="148.2" y="-219" class="st8" width="17.4" height="4.9"/>
				<rect x="148.2" y="-213.4" class="st6" width="17.4" height="0.3"/>
				<rect x="148.2" y="-212.6" class="st6" width="17.4" height="0.4"/>
				<rect x="147.7" y="-243.1" class="st9" width="0.9" height="0.2"/>
				<rect x="147.7" y="-242.7" class="st9" width="0.9" height="0.2"/>
				<rect x="147.7" y="-242.3" class="st9" width="0.9" height="0.2"/>
				<rect x="160.6" y="-234.7" class="st8" width="2.7" height="2.1"/>
			</g>
		</g>
	</g>
</pattern>
<title>devices copy</title>
<desc>Created with Sketch.</desc>
<rect class="st24" width="1424" height="460"/>
</svg>
