<?xml version="1.0" encoding="utf-8"?>
<!-- Generator: Adobe Illustrator 23.0.1, SVG Export Plug-In . SVG Version: 6.00 Build 0)  -->
<svg version="1.1" id="Layer_1" xmlns="http://www.w3.org/2000/svg" xmlns:xlink="http://www.w3.org/1999/xlink" x="0px" y="0px"
	 viewBox="0 0 844.6 684.8" style="enable-background:new 0 0 844.6 684.8;" xml:space="preserve">
<style type="text/css">
	.st0{fill:#296EB7;}
	.st1{fill:#333333;}
	.st2{fill:#EA4647;}
</style>
<g>
	<path class="st0" d="M555.1,249.5c-2.4-2.6-4.9-5.3-9.8-10.7c63.7-8.5,124.4-7.5,187.2-7.5c0,84.4,0,166.5,0,251.4
		c-46.3-11.4-90.3-22.2-137.2-33.7c0-59.3,0-118.8,0-178.2c-2.1-0.1-4.2-0.1-6.3-0.2c-3.3,20.3-1.1,41-1.5,61.5
		c-0.4,22.3-0.1,44.7-0.1,67.1c0,21.6,0,43.2,0,64.8c0,21.4,0,42.8,0,65.8c-128.1,19-252.9,17.6-377.5-15.7
		c-7.5-68.8-2.9-132.6,45-185.6c15.4-17,31.3-33.5,46.9-50.3c21.9,0.7,43.9,1.8,65.8,2.1c47.9,0.6,95.8,0.9,143.6,1
		c4.9,0,9.8-1.8,15.6-7.1c-43.2-19.8-86.5-39.6-134.6-61.6c9.4-2.5,13.8-4.6,18.3-4.8c82-3.5,164-6.8,246-10.1
		c25.5-1,51-1.6,80.4-2.6c-13.5-19.7-30.2-25.8-47.7-30.3c-76.2-19.6-153.4-31.5-232.1-31.2c-39.5,0.1-79,1.3-120.7,2.1
		c-0.6-4.6-1.7-10.3-2.1-16.1c-0.9-10.7,4.8-15.9,14.8-16c12.2-0.1,24.3,0.5,36.5,0.6c59.3,0.9,118.6,1.1,177.9,2.7
		c40.3,1.1,80.3,6.2,119.3,17.5c8,2.3,16,5,23.8,7.8c61.1,21.6,97.9,65.3,112.8,128.6c11.2,47.6,10.6,94.8-5.1,141.3
		c-9,26.8-23.5,50.2-46.5,67c-7.1,5.2-15.3,8.9-25.9,14.9c-10.4-88.6-7-173.6-2.5-261.6c-75.1,2.3-148.4,4.5-221.7,6.7
		c10.6,12.5,22,20.8,37.7,19.7c2.6,1.9,5.2,3.8,7.8,5.6c1.2,0.5,2.5,1,3.7,1.4c-1.4-0.3-2.9-0.6-4.3-0.8
		C560.3,253.3,557.7,251.4,555.1,249.5z M620.6,397.4c6-6.8,11.9-10.5,12.7-15.1c1.5-8.1-4.9-13.3-12.3-12.1
		c-4.8,0.8-12.5,6.8-12.2,9.8C609.4,385.2,615.1,389.8,620.6,397.4z M701.8,415.2c-8.2,4.5-16.6,6.3-11.9,16.7
		c1.4,3,8.3,6.7,10.3,5.6C708.6,432.9,707,425.4,701.8,415.2z M696.3,330.7c-4.3,7.3-8.9,11.8-8,14.2c1.6,4.3,6.3,7.6,10.3,10.4
		c0.5,0.4,7-5.1,6.6-6.7C703.8,343.3,700.5,338.7,696.3,330.7z M681.7,256.9c4.3,4.5,7.1,7.5,10,10.5c2.8-2.9,6.8-5.4,7.9-8.9
		c0.6-2-3.6-7.9-5.4-7.8C690.5,250.9,687.1,254,681.7,256.9z M648.5,296.8c-5.3-2.6-8.8-5.4-12.3-5.4c-1.8,0-5.8,6.5-5.2,7.2
		c2.3,3,5.8,6.1,9.2,6.7C641.9,305.6,644.6,300.9,648.5,296.8z"/>
	<path class="st1" d="M25.8,662.7c37.5-19.9,80.1-16.5,121-26.4c0.6-2.3,2.1-5.1,2-7.9c-1.2-61.6-2.6-123.2-4-184.8
		c-0.2-6.9-0.7-13.9-1.1-20.8c-2.8-43.5-17.9-80.7-52.6-108.5c-8.9-7.1-16.3-16.1-24.8-23.8c-29.7-26.8-43-61.6-44.9-100.4
		c-2.6-53.1-3.1-106.3-4.1-159.5c-0.3-14.1,2.2-16.2,18.3-16.3c46.4-0.3,92.8-0.1,139.1-0.1c39.5,0,79.1,0,118.6,0.1
		c5.2,0,10.3,0.9,14.8,1.3c1.2,2.4,2.5,3.8,2.5,5.1c-0.5,54.7-0.1,109.4-2.1,164c-1.6,43.3-17.5,80.9-51.3,109.4
		c-6.4,5.4-12.1,11.7-18.5,17.2C202.9,342,186.4,382,185.1,429c-0.6,20.8-0.4,41.6-0.9,62.4c-0.8,39.3-1.8,78.5-2.7,117.8
		c-0.2,7.6,0,15.2,0,26.1c41.1,7.1,82.5,14.2,127,21.8C286.1,672.2,103.4,675.9,25.8,662.7z"/>
	<path class="st0" d="M115.9,462.3c-8.3-5.2-16-7.5-19.8-12.7c-28.9-39.1-46.2-82.3-43.4-132.5C102.9,327.8,125.4,406.5,115.9,462.3
		z"/>
	<path class="st2" d="M52.7,104.1c-5.7,31.1-1.8,70.5,9.2,103.2c16.8,49.7,47,72.5,98.6,73.5c10.5,0.2,21.2-1.5,31.6-3.1
		c33.6-5.4,56.4-25,70-56.1c13.3-30.3,15.6-62.5,16.5-95c0.2-7.3-1.2-14.7-1.8-22.4C200.6,104.1,127.1,104.1,52.7,104.1z"/>
</g>
</svg>
