<?xml version="1.0" encoding="UTF-8"?>
<svg width="501px" height="426px" viewBox="0 0 501 426" version="1.1" xmlns="http://www.w3.org/2000/svg" xmlns:xlink="http://www.w3.org/1999/xlink">
    <!-- Generator: Sketch 64 (93537) - https://sketch.com -->
    <title>development-4536630</title>
    <desc>Created with Sketch.</desc>
    <defs>
        <linearGradient x1="42.5006913%" y1="82.5020781%" x2="60.665216%" y2="3.80991965%" id="linearGradient-1">
            <stop stop-color="#1C75BC" offset="0%"></stop>
            <stop stop-color="#2077BC" offset="28%"></stop>
            <stop stop-color="#2B7EBC" offset="54%"></stop>
            <stop stop-color="#3E88BC" offset="80%"></stop>
            <stop stop-color="#5394BC" offset="100%"></stop>
        </linearGradient>
    </defs>
    <g id="covid" stroke="none" stroke-width="1" fill="none" fill-rule="evenodd">
        <g id="Desktop" transform="translate(-254.000000, -11344.000000)" fill-rule="nonzero">
            <g id="Group-7" transform="translate(236.000000, 11344.000000)">
                <g id="development-4536630" transform="translate(18.000000, 0.000000)">
                    <path d="M172.713987,382.891058 C161.983213,382.891058 165.492466,374.87742 165.492466,374.87742 C149.599321,370.063472 141.768757,372.744294 141.768757,372.744294 C139.383635,381.115301 138.529034,389.843755 139.245575,398.514769 C139.245575,400.157853 140.405659,401.166764 141.971771,401.772111 C150.527388,404.914149 158.32895,407.018449 174.251097,405.49067 C185.996944,404.337628 198.409838,393.556691 195.596635,382.429841 C193.827508,375.569245 183.58977,382.775754 172.713987,382.891058 Z" id="Path" fill="#933E31"></path>
                    <path d="M168.633913,282.929009 C165.519612,278.87472 160.156092,275.424261 151.332237,277.753321 L56,296.098261 L59.5756798,320.510258 C69.3568912,332.155732 85.1665328,336.852268 99.7444052,332.443096 C114.719276,328.281633 128.94552,321.800095 141.902823,313.235541 L138.615505,380.692014 C148.130504,383.246319 158.267618,382.030452 166.903746,377.299063 C169.124128,375.947633 171.200329,310.963989 171.892396,294.28677 C172.378545,290.218243 171.204388,286.125605 168.633913,282.929009 L168.633913,282.929009 Z" id="Path" fill="#1C75BC"></path>
                    <path d="M218.868346,402.216197 C207.777323,402.216197 211.416565,393.958986 211.416565,393.958986 C194.953328,389.016088 186.866124,391.758968 186.866124,391.758968 C184.415673,400.374549 183.525839,409.351128 184.237782,418.273473 C184.307947,419.918412 185.497242,421.30666 187.12607,421.64493 C195.993111,424.9021 204.051433,427.044974 220.51467,425.473533 C232.645476,424.302095 245.498354,413.187717 242.581184,401.759051 C240.703797,394.673278 230.103783,402.101911 218.868346,402.216197 Z" id="Path" fill="#9D4D36"></path>
                    <polygon id="Path" fill="#BBCEE1" points="109.971117 375.553536 28 328 28 339.591356 110 387"></polygon>
                    <polygon id="Path" fill="#FFFFFF" points="102.244604 285 28 327.708934 109.669065 375 184 332.233429"></polygon>
                    <polygon id="Path" fill="#A7BCCE" points="185 333 110 375.648217 110.029036 387 185 344.064396"></polygon>
                    <path d="M214.466258,298.161094 C211.224213,293.95971 205.782208,290.362636 196.374486,292.77987 L97,311.829978 L100.792035,337.182162 C110.982273,349.283462 127.457324,354.165196 142.64916,349.584876 C158.260541,345.263722 173.089493,338.524085 186.590456,329.613917 L183.232623,399.627382 C193.141644,402.299017 203.707104,401.040269 212.700501,396.116637 C215.045195,394.706583 217.216208,327.196682 217.910932,309.78684 C218.356587,305.611025 217.11776,301.429993 214.466258,298.161094 Z" id="Path" fill="#2A87C6"></path>
                    <path d="M36.7008533,154.348283 L206.035772,56.0972112 C213.185879,51.9675963 221.995174,51.9675963 229.14528,56.0972112 L495.886775,210.466983 C499.050035,212.286947 501,215.659135 501,219.30958 C501,222.960025 499.050035,226.332213 495.886775,228.152176 L330.336038,324.29374 C321.803804,329.23542 311.281297,329.23542 302.749063,324.29374 L36.6141926,170.270736 C33.7462712,168.638434 31.982171,165.584905 32,162.284143 C32.0181009,158.98338 33.8153343,155.949249 36.7008533,154.348283 L36.7008533,154.348283 Z" id="Path" fill="#E8EBF5"></path>
                    <path d="M36.5940137,170.814029 L302.757146,324.499541 C311.290287,329.430393 321.81391,329.430393 330.347051,324.499541 L495.915368,228.56864 C499.023116,226.785 500.956306,223.496165 501,219.918424 L501,232.778412 L501,232.778412 C500.979866,236.355058 499.053733,239.650612 495.944258,241.428629 L330.347051,337.301861 C321.81391,342.232713 311.290287,342.232713 302.757146,337.301861 L36.5940137,183.616349 C33.7237625,181.983563 31.9655712,178.926477 32,175.629316 L32,175.629316 L32,163 C32.0099872,166.240249 33.7646225,169.225068 36.5940137,170.814029 L36.5940137,170.814029 Z" id="Path" fill="#A7BCCE"></path>
                    <path d="M36.5882878,170.875851 L302.41968,324.642464 C306.258145,326.847797 310.575945,328.085497 315,328.248622 L315,341 C310.57813,340.823236 306.26352,339.58645 302.41968,337.393841 L36.5882878,183.627229 C33.7216141,181.99358 31.9656141,178.934881 32,175.635981 L32,175.635981 L32,163 C31.9891208,166.262602 33.7444213,169.275931 36.5882878,170.875851 L36.5882878,170.875851 Z" id="Path" fill="#BBCEE1"></path>
                    <path d="M161.84322,190.16177 L190.665484,173.583279 C192.018815,172.805574 193.686186,172.805574 195.039517,173.583279 L284.055416,224.818024 C284.641309,225.166819 285,225.79636 285,226.475873 C285,227.155386 284.641309,227.784928 284.055416,228.133722 L255.928361,244.308563 C254.324082,245.230479 252.347529,245.230479 250.74325,244.308563 L161.84322,193.160315 C161.319324,192.840518 161,192.272749 161,191.661042 C161,191.049336 161.319324,190.481567 161.84322,190.16177 Z" id="Path" fill="#0F4463"></path>
                    <path d="M161.84136,192.509179 L250.734443,243.995409 C252.338597,244.923417 254.314995,244.923417 255.919149,243.995409 L284.044005,227.713687 C284.643096,227.367186 285.008641,226.72343 285,226.030372 L285,229.455047 L285,229.455047 C284.976209,230.131609 284.617795,230.751924 284.044005,231.10934 L255.919149,247.303994 C254.314995,248.232002 252.338597,248.232002 250.734443,247.303994 L161.84136,195.933855 C161.300565,195.62894 160.976073,195.045932 161.001379,194.424676 L161.001379,194.424676 L161.001379,191 C161,191.615116 161.318721,192.186496 161.84136,192.509179 Z" id="Path" fill="#0B3B56"></path>
                    <polygon id="Path" fill="#1F5E77" points="190 177.882353 193.729323 176 198 178.117647 194.270677 180"></polygon>
                    <polygon id="Path" fill="#1F5E77" points="195 180.896104 198.759398 179 203 181.12987 199.270677 183"></polygon>
                    <polygon id="Path" fill="#1F5E77" points="200 183.87013 203.729323 182 208 184.12987 204.270677 186"></polygon>
                    <polygon id="Path" fill="#1F5E77" points="205 186.882353 208.745318 185 213 187.117647 209.254682 189"></polygon>
                    <polygon id="Path" fill="#1F5E77" points="210 189.896104 213.759398 188 218 190.12987 214.270677 192"></polygon>
                    <polygon id="Path" fill="#1F5E77" points="216 192.87013 219.729323 191 224 193.12987 220.270677 195"></polygon>
                    <polygon id="Path" fill="#1F5E77" points="221 195.882353 224.759398 194 229 196.117647 225.270677 198"></polygon>
                    <polygon id="Path" fill="#1F5E77" points="226 198.896104 229.729323 197 234 199.12987 230.270677 201"></polygon>
                    <polygon id="Path" fill="#1F5E77" points="231 201.87013 234.759398 200 239 202.12987 235.270677 204"></polygon>
                    <polygon id="Path" fill="#1F5E77" points="236 204.882353 239.759398 203 244 205.117647 240.270677 207"></polygon>
                    <polygon id="Path" fill="#1F5E77" points="241 207.87013 244.729323 206 249 208.12987 245.270677 210"></polygon>
                    <polygon id="Path" fill="#1F5E77" points="246 210.882353 249.759398 209 254 211.143791 250.270677 213"></polygon>
                    <polygon id="Path" fill="#1F5E77" points="254.729323 212 259 214.12987 255.270677 216 251 213.896104"></polygon>
                    <polygon id="Path" fill="#1F5E77" points="189.240602 183 185 180.87013 188.729323 179 193 181.12987"></polygon>
                    <polygon id="Path" fill="#1F5E77" points="198 184.117647 194.270677 186 190 183.882353 193.759398 182"></polygon>
                    <polygon id="Path" fill="#1F5E77" points="204 187.12987 200.270677 189 196 186.896104 199.729323 185"></polygon>
                    <polygon id="Path" fill="#1F5E77" points="209 190.12987 205.270677 192 201 189.87013 204.759398 188"></polygon>
                    <polygon id="Path" fill="#1F5E77" points="214 193.117647 210.270677 195 206 192.882353 209.729323 191"></polygon>
                    <polygon id="Path" fill="#1F5E77" points="219 196.12987 215.254682 198 211 195.896104 214.745318 194"></polygon>
                    <polygon id="Path" fill="#1F5E77" points="224 199.12987 220.270677 201 216 198.87013 219.759398 197"></polygon>
                    <polygon id="Path" fill="#1F5E77" points="229 202.117647 225.270677 204 221 201.882353 224.729323 200"></polygon>
                    <polygon id="Path" fill="#1F5E77" points="234 204.12987 230.270677 206 226 203.896104 229.759398 202"></polygon>
                    <polygon id="Path" fill="#1F5E77" points="239 207.12987 235.270677 209 231 206.87013 234.729323 205"></polygon>
                    <polygon id="Path" fill="#1F5E77" points="244 210.117647 240.254682 212 236 209.882353 239.745318 208"></polygon>
                    <polygon id="Path" fill="#1F5E77" points="249 213.12987 245.270677 215 241 212.896104 244.729323 211"></polygon>
                    <polygon id="Path" fill="#1F5E77" points="250.729323 214 255 216.103896 251.270677 218 247 215.87013"></polygon>
                    <polygon id="Path" fill="#1F5E77" points="185.270677 186 181 183.882353 184.759398 182 189 184.117647"></polygon>
                    <polygon id="Path" fill="#1F5E77" points="194 187.12987 190.270677 189 186 186.87013 189.729323 185"></polygon>
                    <polygon id="Path" fill="#1F5E77" points="191 189.882353 194.745318 188 199 190.117647 195.254682 192"></polygon>
                    <polygon id="Path" fill="#1F5E77" points="204 192.12987 200.270677 194 196 191.896104 199.759398 190"></polygon>
                    <polygon id="Path" fill="#1F5E77" points="209 195.12987 205.270677 197 201 194.87013 204.729323 193"></polygon>
                    <polygon id="Path" fill="#1F5E77" points="214 198.117647 210.270677 200 206 197.882353 209.759398 196"></polygon>
                    <polygon id="Path" fill="#1F5E77" points="219 201.12987 215.270677 203 211 200.896104 214.729323 199"></polygon>
                    <polygon id="Path" fill="#1F5E77" points="224 204.12987 220.254682 206 216 203.87013 219.745318 202"></polygon>
                    <polygon id="Path" fill="#1F5E77" points="230 207.117647 226.270677 209 222 206.882353 225.759398 205"></polygon>
                    <polygon id="Path" fill="#1F5E77" points="235 210.12987 231.270677 212 227 209.896104 230.729323 208"></polygon>
                    <polygon id="Path" fill="#1F5E77" points="240 213.12987 236.270677 215 232 212.87013 235.759398 211"></polygon>
                    <polygon id="Path" fill="#1F5E77" points="237 215.882353 240.729323 214 245 216.117647 241.270677 218"></polygon>
                    <polygon id="Path" fill="#1F5E77" points="245.745318 217 250 219.12987 246.254682 221 242 218.87013"></polygon>
                    <polygon id="Path" fill="#1F5E77" points="180.270677 188 176 185.87013 179.759398 184 184 186.12987"></polygon>
                    <polygon id="Path" fill="#1F5E77" points="181 188.896104 184.729323 187 189 189.12987 185.270677 191"></polygon>
                    <polygon id="Path" fill="#1F5E77" points="186 191.87013 189.759398 190 194 192.12987 190.270677 194"></polygon>
                    <polygon id="Path" fill="#1F5E77" points="191 194.882353 194.759398 193 199 195.117647 195.270677 197"></polygon>
                    <polygon id="Path" fill="#1F5E77" points="196 197.896104 199.745318 196 204 198.12987 200.254682 200"></polygon>
                    <polygon id="Path" fill="#1F5E77" points="202 200.87013 205.759398 199 210 201.12987 206.270677 203"></polygon>
                    <polygon id="Path" fill="#1F5E77" points="207 203.882353 210.729323 202 215 204.117647 211.270677 206"></polygon>
                    <polygon id="Path" fill="#1F5E77" points="212 206.896104 215.759398 205 220 207.12987 216.270677 209"></polygon>
                    <polygon id="Path" fill="#1F5E77" points="217 209.87013 220.729323 208 225 210.12987 221.270677 212"></polygon>
                    <polygon id="Path" fill="#1F5E77" points="222 212.882353 225.745318 211 230 213.117647 226.254682 215"></polygon>
                    <polygon id="Path" fill="#1F5E77" points="227 215.896104 230.759398 214 235 216.12987 231.270677 218"></polygon>
                    <polygon id="Path" fill="#1F5E77" points="232 218.87013 235.729323 217 240 219.12987 236.270677 221"></polygon>
                    <polygon id="Path" fill="#1F5E77" points="240.759398 220 245 222.117647 241.270677 224 237 221.882353"></polygon>
                    <polygon id="Path" fill="#1F5E77" points="175.270677 191 171 188.896104 174.759398 187 179 189.12987"></polygon>
                    <polygon id="Path" fill="#1F5E77" points="177 191.882353 180.745318 190 185 192.117647 181.284644 194"></polygon>
                    <polygon id="Path" fill="#1F5E77" points="182 194.882353 185.759398 193 190 195.117647 186.270677 197"></polygon>
                    <polygon id="Path" fill="#1F5E77" points="187 197.87013 190.729323 196 195 198.12987 191.270677 200"></polygon>
                    <polygon id="Path" fill="#1F5E77" points="192 200.87013 195.759398 199 200 201.12987 196.270677 203"></polygon>
                    <polygon id="Path" fill="#1F5E77" points="197 203.896104 200.759398 202 205 204.12987 201.270677 206"></polygon>
                    <polygon id="Path" fill="#1F5E77" points="202 206.87013 205.745318 205 210 207.12987 206.254682 209"></polygon>
                    <polygon id="Path" fill="#1F5E77" points="207 209.882353 210.759398 208 215 210.117647 211.270677 212"></polygon>
                    <polygon id="Path" fill="#1F5E77" points="212 212.896104 215.729323 211 220 213.12987 216.270677 215"></polygon>
                    <polygon id="Path" fill="#1F5E77" points="217 215.87013 220.759398 214 225 216.12987 221.270677 218"></polygon>
                    <polygon id="Path" fill="#1F5E77" points="222 217.882353 225.729323 216 230 218.117647 226.270677 220"></polygon>
                    <polygon id="Path" fill="#1F5E77" points="228 220.896104 231.745318 219 236 221.12987 232.254682 223"></polygon>
                    <polygon id="Path" fill="#1F5E77" points="236.759398 222 241 224.12987 237.270677 226 233 223.87013"></polygon>
                    <polygon id="Path" fill="#1F5E77" points="170.729323 190 175 192.117647 171.270677 194 167 191.882353"></polygon>
                    <polygon id="Path" fill="#1F5E77" points="180 195.12987 176.270677 197 172 194.87013 175.759398 193"></polygon>
                    <polygon id="Path" fill="#1F5E77" points="185 198.12987 181.270677 200 177 197.87013 180.729323 196"></polygon>
                    <polygon id="Path" fill="#1F5E77" points="190 201.12987 186.270677 203 182 200.896104 185.729323 199"></polygon>
                    <polygon id="Path" fill="#1F5E77" points="195 204.12987 191.270677 206 187 203.87013 190.759398 202"></polygon>
                    <polygon id="Path" fill="#1F5E77" points="200 206.117647 196.270677 208 192 205.882353 195.729323 204"></polygon>
                    <polygon id="Path" fill="#1F5E77" points="201.597122 207 206.661871 209.885714 206.690647 209.885714 207.669065 210.457143 211.755396 212.8 211.755396 212.8 213.827338 213.971429 216.848921 215.685714 216.848921 215.685714 220.043165 217.542857 226 220.942857 222.431655 223 216.215827 219.428571 213.251799 217.771429 213.251799 217.771429 210.172662 216 208.158273 214.857143 208.18705 214.857143 204.158273 212.571429 203.093525 211.942857 203.093525 211.942857 198 209.057143"></polygon>
                    <polygon id="Path" fill="#1F5E77" points="231 224.117647 227.270677 226 223 223.882353 226.759398 222"></polygon>
                    <polygon id="Path" fill="#1F5E77" points="236 227.12987 232.270677 229 228 226.896104 231.729323 225"></polygon>
                    <polygon id="Path" fill="#1F5E77" points="261 218.882353 264.729323 217 269 219.117647 265.270677 221"></polygon>
                    <polygon id="Path" fill="#1F5E77" points="267 221.896104 270.729323 220 275 222.12987 271.240602 224"></polygon>
                    <polygon id="Path" fill="#1F5E77" points="272 224.87013 275.759398 223 280 225.12987 276.270677 227"></polygon>
                    <polygon id="Path" fill="#1F5E77" points="265 222.12987 261.270677 224 257 221.87013 260.729323 220"></polygon>
                    <polygon id="Path" fill="#1F5E77" points="270 225.117647 266.270677 227 262 224.882353 265.759398 223"></polygon>
                    <polygon id="Path" fill="#1F5E77" points="275 228.12987 271.270677 230 267 227.896104 270.729323 226"></polygon>
                    <polygon id="Path" fill="#1F5E77" points="260 225.12987 256.240602 227 252 224.896104 255.729323 223"></polygon>
                    <polygon id="Path" fill="#1F5E77" points="265 228.12987 261.270677 230 257 227.87013 260.759398 226"></polygon>
                    <polygon id="Path" fill="#1F5E77" points="270 231.117647 266.270677 233 262 230.882353 265.729323 229"></polygon>
                    <polygon id="Path" fill="#1F5E77" points="247 226.882353 250.745318 225 255 227.117647 251.254682 229"></polygon>
                    <polygon id="Path" fill="#1F5E77" points="253 229.896104 256.729323 228 261 230.12987 257.270677 232"></polygon>
                    <polygon id="Path" fill="#1F5E77" points="258 232.87013 261.745318 231 266 233.12987 262.254682 235"></polygon>
                    <polygon id="Path" fill="#1F5E77" points="243 229.87013 246.759398 228 251 230.12987 247.270677 232"></polygon>
                    <polygon id="Path" fill="#1F5E77" points="248 232.882353 251.729323 231 256 233.117647 252.270677 235"></polygon>
                    <polygon id="Path" fill="#1F5E77" points="253 235.896104 256.745318 234 261 236.12987 257.254682 238"></polygon>
                    <polygon id="Path" fill="#1F5E77" points="246 233.117647 242.270677 235 238 232.882353 241.759398 231"></polygon>
                    <polygon id="Path" fill="#1F5E77" points="251 236.12987 247.270677 238 243 235.87013 246.729323 234"></polygon>
                    <path d="M225.723977,162.992068 L254.074923,146.534018 C255.270554,145.821994 256.759809,145.821994 257.95544,146.534018 L325.198439,185.390082 C325.697154,185.702663 326,186.250038 326,186.838854 C326,187.427671 325.697154,187.975045 325.198439,188.287626 L297.484593,204.368995 C296.06493,205.210335 294.299762,205.210335 292.880099,204.368995 L225.723977,165.599857 C225.273734,165.319548 225,164.826548 225,164.295962 C225,163.765376 225.273734,163.272377 225.723977,162.992068 Z" id="Path" fill="#1F5E77"></path>
                    <path d="M225.752477,165.301517 L292.863911,203.999948 C294.28263,204.839754 296.046623,204.839754 297.465341,203.999948 L325.160745,187.947908 C325.678352,187.63576 325.996253,187.077026 326,186.472856 L326,190.030335 L326,190.030335 C325.997634,190.627279 325.678029,191.177995 325.160745,191.476465 L297.465341,207.383892 C296.041654,208.205369 294.287598,208.205369 292.863911,207.383892 L225.752477,168.656538 C225.282577,168.378536 224.996002,167.87182 225,167.326098 L225,167.326098 L225,164 C225.006199,164.535398 225.291437,165.028784 225.752477,165.301517 Z" id="Path" fill="#07304B"></path>
                    <path d="M225.753041,165.300066 L292.914772,203.955351 C293.549106,204.325913 294.265424,204.534326 295,204.562049 L295,208 C294.267733,207.982283 293.551289,207.78376 292.914772,207.422193 L225.753041,168.738017 C225.282789,168.460325 224.995999,167.954174 225,167.409061 L225,167.409061 L225,164 C225.006204,164.534801 225.291655,165.027637 225.753041,165.300066 Z" id="Path" fill="#0B3B56"></path>
                    <polygon id="Path" fill="#0F4463" points="299 165.196078 247 135 247 160.832817 299 191"></polygon>
                    <polygon id="Path" fill="#07304B" points="254.202821 131 247 135.117746 298.768482 165 306 160.853659"></polygon>
                    <polygon id="Path" fill="#07304B" points="306 161 299 165.190751 299 191 306 186.780347"></polygon>
                    <polygon id="Path" fill="url(#linearGradient-1)" points="194 4 352 95.6952064 352 212 194 119.958991"></polygon>
                    <polygon id="Path" fill="#07304B" points="353 95.2119605 358 92 358 208.816976 353 212"></polygon>
                    <polygon id="Path" fill="#1F5E77" points="194 3.11854103 199.410727 0 358 91.7948328 352.733945 95"></polygon>
                    <path d="M194,4 L194,119.958991 L352,212 L352,95.6663896 L194,4 Z M348.342326,205.487393 L197.744076,117.855362 L197.744076,10.4837905 L348.342326,97.8276531 L348.342326,205.487393 Z" id="Shape" fill="#0B3B56"></path>
                    <path d="M134.817991,147.917096 C133.180543,164.719568 120.971502,177.241341 107.527193,175.901803 C94.0828842,174.562264 84.5454686,159.856461 86.1829164,143.053988 C87.8203643,126.251516 100.029405,113.758863 113.444987,115.098402 C126.860568,116.43794 136.455438,131.143744 134.817991,147.917096 Z" id="Path" fill="#FED4BD"></path>
                    <path d="M155.09895,186.208182 C155.09895,186.208182 160.926322,187.62829 163.08245,187.831162 C165.238578,188.034035 172.930709,189.657015 176.106627,188.700616 C179.282544,187.744217 173.192941,185.628547 171.823508,184.556221 C170.454076,183.483895 170.424939,180.730626 173.629993,179.774227 C176.835048,178.817828 184.119263,179.252555 187.965329,178.701901 C191.811394,178.151247 184.1484,166.587516 177.883975,165.51519 C172.063864,164.353214 166.020038,165.169738 160.722364,167.833733 C155.390319,170.442093 152.476633,174.876306 150,175.716777 L155.09895,186.208182 Z" id="Path" fill="#F4C5A2"></path>
                    <path d="M156.614274,170 L116.041752,180.198052 L114,206 L161.89366,189.519481 C162.885368,180.431818 156.614274,170 156.614274,170 Z" id="Path" fill="#ED5561"></path>
                    <path d="M56.938225,181 C56.938225,181 45.8272187,194.939383 56.938225,214.178036 C56.938225,214.178036 64.7014996,224.891777 86,214.379639 L56.938225,181 Z" id="Path" fill="#ED5561"></path>
                    <path d="M90.1537675,165.047386 C90.1537675,165.047386 107.542107,163.862738 121.133992,173.339924 C121.896393,175.229861 123.195733,176.856708 124.872486,178.020729 C127.596659,179.841042 141.130583,185.244194 141.130583,185.244194 C141.130583,185.244194 135.160586,264.326688 142,302.842203 C142,302.842203 112.642687,325.697246 66.6505285,302.842203 C66.6505285,302.842203 59.9560177,205.72994 57,181.487992 C57.0289806,181.401311 64.7667917,171.981912 90.1537675,165.047386 Z" id="Path" fill="#DE495A"></path>
                    <polygon id="Path" fill="#BBCEE1" points="82.2825514 295.322207 0 248 27.6884555 327.793143 110 375"></polygon>
                    <polygon id="Path" fill="#FFFFFF" points="10.0278922 243 1 248.291278 82.8567353 296 92 290.650576"></polygon>
                    <polygon id="Path" fill="#A7BCCE" points="91.1920063 290 82 295.307092 109.721003 375 119 369.692908"></polygon>
                    <path d="M210,221.651489 C210,221.651489 214.433787,217.113468 216.121487,215.833514 C217.809187,214.553559 223.759044,208.822853 227.105838,208.066517 C230.452632,207.31018 224.760221,213.215425 224.045094,215.048087 C223.329967,216.880749 227.477704,213.564503 230.595658,212.371818 C234.074305,211.20883 237.846418,211.342886 241.236747,212.749987 C248.931514,215.658974 248.559648,231.163879 242.26653,229.331217 C231.940096,226.422229 227.306073,234.625574 221.127376,236.370967 C218.261094,237.124771 215.345475,237.669171 212.402827,238 L210,221.651489 Z" id="Path" fill="#F4C5A2"></path>
                    <path d="M141.394917,185 L175.222848,229.641148 L210.406203,219.30622 C210.406203,219.30622 217.961973,228.779904 215.510673,238.799043 L168.561082,257 L130.407328,215.229665 C130.407328,215.229665 117.689411,188.703349 141.394917,185 Z" id="Path" fill="#ED5561"></path>
                    <path d="M121.800296,101 C121.800296,101 124.400358,107.218106 111.920057,108.908744 C99.4397565,110.599381 84.0416073,116.731522 79.9681757,129.798142 C77.368113,138.136709 80.3726299,146.991063 84.619399,154.384019 C86.0409097,156.917275 87.6945986,159.315307 89.5595181,161.547736 C95.8729988,162.71437 102.398982,161.606752 107.962184,158.424355 C112.213473,155.306463 115.618264,151.190896 117.871312,146.44662 C117.871312,146.44662 125.295936,149.512691 127.607102,143.38055 C129.311588,138.85308 134.685051,137.649576 137.602899,135.271222 C137.747347,135.271222 154.445528,107.963133 121.800296,101 Z" id="Path" fill="#9D4D36"></path>
                    <polygon id="Path" fill="#F5D012" points="214 28 214 31.215847 227 39 227 35.784153"></polygon>
                    <polygon id="Path" fill="#EDF0F8" points="214 33 214 36.2070845 227 44 227 40.7929155"></polygon>
                    <polygon id="Path" fill="#EDF0F8" points="214 39 214 42.215847 227 50 227 46.784153"></polygon>
                    <polygon id="Path" fill="#EDF0F8" points="312 104 312 100.930328 232 55 232 58.0696721"></polygon>
                    <polygon id="Path" fill="#EDF0F8" points="214 44 214 47.2070845 227 55 227 51.7929155"></polygon>
                    <polygon id="Path" fill="#EDF0F8" points="214 50 214 53.215847 227 61 227 57.784153"></polygon>
                    <polygon id="Path" fill="#50E85E" points="312 110 312 106.92853 232 61 232 64.0427651"></polygon>
                    <polygon id="Path" fill="#EDF0F8" points="214 67 214 70.2070845 227 78 227 74.7929155"></polygon>
                    <polygon id="Path" fill="#F5D012" points="214 73 214 76.215847 227 84 227 80.784153"></polygon>
                    <polygon id="Path" fill="#EDF0F8" points="214 95 214 98.2070845 227 106 227 102.762943"></polygon>
                    <polygon id="Path" fill="#EDF0F8" points="214 101 214 104.215847 227 112 227 108.784153"></polygon>
                    <polygon id="Path" fill="#50E85E" points="282 140.934646 231 112 231 115.065354 282 144"></polygon>
                    <polygon id="Path" fill="#EDF0F8" points="285 142 285 145.181395 312 161 312 157.848062"></polygon>
                    <polygon id="Path" fill="#EDF0F8" points="257 120.863192 232 106 232 109.136808 257 124"></polygon>
                    <polygon id="Path" fill="#EDF0F8" points="260 122 260 125.049695 312 155 312 151.921534"></polygon>
                    <polygon id="Path" fill="#EDF0F8" points="305 131 305 134.069672 312 138 312 134.930328"></polygon>
                    <polygon id="Path" fill="#ED5561" points="268 103.891041 232 83 232 86.1089588 268 107"></polygon>
                    <polygon id="Path" fill="#EDF0F8" points="253 49.9830827 232 38 232 41.0169173 253 53"></polygon>
                    <polygon id="Path" fill="#EDF0F8" points="288 70.8613333 256 52 256 55.1386667 288 74"></polygon>
                    <polygon id="Path" fill="#EDF0F8" points="269 64.9428571 246 52 246 55.0571429 269 68"></polygon>
                    <polygon id="Path" fill="#ED5561" points="293 78.9376181 272 67 272 70.0340265 293 82"></polygon>
                    <polygon id="Path" fill="#EDF0F8" points="296 80 296 83.2050691 312 93 312 89.7949309"></polygon>
                    <polygon id="Path" fill="#ED5561" points="236 52 236 55.1049107 253 65 253 61.8950893"></polygon>
                    <polygon id="Path" fill="#EDF0F8" points="305 91.8787603 255 63 255 66.1212397 305 95"></polygon>
                    <polygon id="Path" fill="#EDF0F8" points="277 92.8779841 245 74 245 77.1220159 277 96"></polygon>
                    <polygon id="Path" fill="#EDF0F8" points="305 108.893548 279 94 279 97.1064516 305 112"></polygon>
                    <polygon id="Path" fill="#EDF0F8" points="302 123.840268 270 105 270 108.159732 302 127"></polygon>
                    <polygon id="Path" fill="#50E85E" points="285 120 285 123.057143 302 133 302 129.942857"></polygon>
                    <polygon id="Path" fill="#EDF0F8" points="238 92.7715517 232 89 232 92.2284483 238 96"></polygon>
                    <polygon id="Path" fill="#EDF0F8" points="249 99 249 102.109643 282 121 282 117.890357"></polygon>
                    <polygon id="Path" fill="#EDF0F8" points="247 97.812766 241 94 241 97.187234 247 101"></polygon>
                    <polygon id="Path" fill="#EDF0F8" points="276 120.860636 240 100 240 103.139364 276 124"></polygon>
                    <polygon id="Path" fill="#EDF0F8" points="317 88 317 88.8613861 321 91 321 90.1089109"></polygon>
                    <polygon id="Path" fill="#EDF0F8" points="317 89 317 89.8613861 321 92 321 91.1089109"></polygon>
                    <polygon id="Path" fill="#EDF0F8" points="317 91 317 91.8613861 321 94 321 93.1089109"></polygon>
                    <polygon id="Path" fill="#EDF0F8" points="344 109 344 108.13617 322 95 322 95.8638298"></polygon>
                    <polygon id="Path" fill="#EDF0F8" points="317 92 317 92.87 321 95 321 94.13"></polygon>
                    <polygon id="Path" fill="#EDF0F8" points="317 94 317 94.8910891 321 97 321 96.1386139"></polygon>
                    <polygon id="Path" fill="#EDF0F8" points="344 110 344 109.13617 322 96 322 96.8638298"></polygon>
                    <polygon id="Path" fill="#EDF0F8" points="317 98 317 98.8910891 321 101 321 100.138614"></polygon>
                    <polygon id="Path" fill="#EDF0F8" points="317 100 317 100.861386 321 103 321 102.108911"></polygon>
                    <polygon id="Path" fill="#EDF0F8" points="317 106 317 106.882353 321 109 321 108.117647"></polygon>
                    <polygon id="Path" fill="#EDF0F8" points="317 108 317 108.891089 321 111 321 110.138614"></polygon>
                    <polygon id="Path" fill="#EDF0F8" points="336 119.149837 322 111 322 111.850163 336 120"></polygon>
                    <polygon id="Path" fill="#EDF0F8" points="337 119 337 119.819209 344 124 344 123.180791"></polygon>
                    <polygon id="Path" fill="#EDF0F8" points="329 113.142012 322 109 322 109.857988 329 114"></polygon>
                    <polygon id="Path" fill="#EDF0F8" points="330 114 330 114.85443 344 123 344 122.174051"></polygon>
                    <polygon id="Path" fill="#EDF0F8" points="342.525 116.495 342.525 117.365 344.475 118.505 344.475 117.605"></polygon>
                    <polygon id="Path" fill="#EDF0F8" points="332 109.078947 322 103 322 103.921053 332 110"></polygon>
                    <polygon id="Path" fill="#EDF0F8" points="328 94.1836735 322 91 322 91.8163265 328 95"></polygon>
                    <polygon id="Path" fill="#EDF0F8" points="338 99.1553398 329 94 329 94.8446602 338 100"></polygon>
                    <polygon id="Path" fill="#EDF0F8" points="332 98.2467532 326 95 326 95.7532468 332 99"></polygon>
                    <polygon id="Path" fill="#EDF0F8" points="339 101.178082 333 98 333 98.8219178 339 102"></polygon>
                    <polygon id="Path" fill="#EDF0F8" points="340 102 340 102.75 345 105 345 104.25"></polygon>
                    <polygon id="Path" fill="#EDF0F8" points="323 94 323 94.9756098 328 98 328 97.0569106"></polygon>
                    <polygon id="Path" fill="#EDF0F8" points="343 105.10596 329 97 329 97.8642384 343 106"></polygon>
                    <polygon id="Path" fill="#EDF0F8" points="335 105.15942 326 100 326 100.84058 335 106"></polygon>
                    <polygon id="Path" fill="#EDF0F8" points="342 110.147059 335 106 335 106.852941 342 111"></polygon>
                    <polygon id="Path" fill="#EDF0F8" points="342 114.126214 333 109 333 109.873786 342 115"></polygon>
                    <polygon id="Path" fill="#EDF0F8" points="337 113 337 113.96 342 117 342 116.072"></polygon>
                    <polygon id="Path" fill="#EDF0F8" points="324.4 105.59 322.6 104.54 322.6 105.44 324.4 106.46"></polygon>
                    <polygon id="Path" fill="#EDF0F8" points="327 107 327 107.861244 336 113 336 112.138756"></polygon>
                    <polygon id="Path" fill="#EDF0F8" points="326.43 106.605 324.57 105.525 324.57 106.425 326.43 107.475"></polygon>
                    <polygon id="Path" fill="#EDF0F8" points="335 113.070796 325 107 325 107.929204 335 114"></polygon>
                    <polygon id="Path" fill="#EDF0F8" points="317 114 317 114.861386 321 117 321 116.108911"></polygon>
                    <polygon id="Path" fill="#EDF0F8" points="317 115 317 115.882353 321 118 321 117.117647"></polygon>
                    <polygon id="Path" fill="#EDF0F8" points="317 117 317 117.891089 321 120 321 119.138614"></polygon>
                    <polygon id="Path" fill="#EDF0F8" points="344 135 344 134.13617 322 121 322 121.86383"></polygon>
                    <polygon id="Path" fill="#EDF0F8" points="317 119 317 119.891089 321 122 321 121.138614"></polygon>
                    <polygon id="Path" fill="#EDF0F8" points="317 120 317 120.891089 321 123 321 122.138614"></polygon>
                    <polygon id="Path" fill="#EDF0F8" points="344 137 344 136.138004 322 123 322 123.89172"></polygon>
                    <polygon id="Path" fill="#EDF0F8" points="317 125 317 125.861386 321 128 321 127.108911"></polygon>
                    <polygon id="Path" fill="#EDF0F8" points="317 126 317 126.861386 321 129 321 128.108911"></polygon>
                    <polygon id="Path" fill="#EDF0F8" points="317 133 317 133.891089 321 136 321 135.138614"></polygon>
                    <polygon id="Path" fill="#EDF0F8" points="317 134 317 134.891089 321 137 321 136.138614"></polygon>
                    <polygon id="Path" fill="#EDF0F8" points="336 145.152597 322 137 322 137.876623 336 146"></polygon>
                    <polygon id="Path" fill="#EDF0F8" points="337 146 337 146.842697 344 151 344 150.157303"></polygon>
                    <polygon id="Path" fill="#EDF0F8" points="329 139.112426 322 135 322 135.857988 329 140"></polygon>
                    <polygon id="Path" fill="#EDF0F8" points="330 140 330 140.825949 344 149 344 148.174051"></polygon>
                    <polygon id="Path" fill="#EDF0F8" points="342.525 142.495 342.525 143.395 344.475 144.505 344.475 143.635"></polygon>
                    <polygon id="Path" fill="#EDF0F8" points="332 135.078947 322 129 322 129.890351 332 136"></polygon>
                    <polygon id="Path" fill="#EDF0F8" points="328 120.205479 322 117 322 117.794521 328 121"></polygon>
                    <polygon id="Path" fill="#EDF0F8" points="338 126.15534 329 121 329 121.84466 338 127"></polygon>
                    <polygon id="Path" fill="#EDF0F8" points="332 124.220779 326 121 326 121.753247 332 125"></polygon>
                    <polygon id="Path" fill="#EDF0F8" points="339 128.178082 333 125 333 125.821918 339 129"></polygon>
                    <polygon id="Path" fill="#EDF0F8" points="340 129 340 129.731092 345 132 345 131.268908"></polygon>
                    <polygon id="Path" fill="#EDF0F8" points="323 120 323 120.943089 328 124 328 123.056911"></polygon>
                    <polygon id="Path" fill="#EDF0F8" points="343 132.135762 329 124 329 124.89404 343 133"></polygon>
                    <polygon id="Path" fill="#EDF0F8" points="335 132.163462 326 127 326 127.865385 335 133"></polygon>
                    <polygon id="Path" fill="#EDF0F8" points="342 136.152047 335 132 335 132.877193 342 137"></polygon>
                    <polygon id="Path" fill="#EDF0F8" points="342 140.15122 333 135 333 135.84878 342 141"></polygon>
                    <polygon id="Path" fill="#EDF0F8" points="337 139 337 139.928 342 143 342 142.072"></polygon>
                    <polygon id="Path" fill="#EDF0F8" points="324.4 131.56 322.6 130.54 322.6 131.41 324.4 132.46"></polygon>
                    <polygon id="Path" fill="#EDF0F8" points="327 134 327 134.832536 336 140 336 139.138756"></polygon>
                    <polygon id="Path" fill="#EDF0F8" points="326.43 133.575 324.57 132.525 324.57 133.395 326.43 134.475"></polygon>
                    <polygon id="Path" fill="#EDF0F8" points="335 139.226667 325 134 325 134.773333 335 140"></polygon>
                    <polygon id="Path" fill="#EDF0F8" points="317 140 317 140.891089 321 143 321 142.138614"></polygon>
                    <polygon id="Path" fill="#EDF0F8" points="317 142 317 142.891089 321 145 321 144.138614"></polygon>
                    <polygon id="Path" fill="#EDF0F8" points="317 143 317 143.891089 321 146 321 145.138614"></polygon>
                    <polygon id="Path" fill="#EDF0F8" points="344 162 344 161.10828 322 148 322 148.89172"></polygon>
                    <polygon id="Path" fill="#EDF0F8" points="317 145 317 145.891089 321 148 321 147.138614"></polygon>
                    <polygon id="Path" fill="#EDF0F8" points="317 146 317 146.861386 321 149 321 148.108911"></polygon>
                    <polygon id="Path" fill="#EDF0F8" points="344 163 344 162.10828 322 149 322 149.89172"></polygon>
                    <polygon id="Path" fill="#EDF0F8" points="317 151 317 151.87 321 154 321 153.13"></polygon>
                    <polygon id="Path" fill="#EDF0F8" points="317 153 317 153.891089 321 156 321 155.138614"></polygon>
                    <polygon id="Path" fill="#EDF0F8" points="317 159 317 159.861386 321 162 321 161.108911"></polygon>
                    <polygon id="Path" fill="#EDF0F8" points="317 160 317 160.861386 321 163 321 162.108911"></polygon>
                    <polygon id="Path" fill="#EDF0F8" points="336 171.123377 322 163 322 163.876623 336 172"></polygon>
                    <polygon id="Path" fill="#EDF0F8" points="337 172 337 172.842697 344 177 344 176.157303"></polygon>
                    <polygon id="Path" fill="#EDF0F8" points="329 166.117647 322 162 322 162.882353 329 167"></polygon>
                    <polygon id="Path" fill="#EDF0F8" points="330 166 330 166.825949 344 175 344 174.14557"></polygon>
                    <polygon id="Path" fill="#EDF0F8" points="342.525 168.495 342.525 169.365 344.475 170.505 344.475 169.635"></polygon>
                    <polygon id="Path" fill="#EDF0F8" points="332 161.105727 322 155 322 155.894273 332 162"></polygon>
                    <polygon id="Path" fill="#EDF0F8" points="328 146.205479 322 143 322 143.794521 328 147"></polygon>
                    <polygon id="Path" fill="#EDF0F8" points="338 152.130435 329 147 329 147.869565 338 153"></polygon>
                    <polygon id="Path" fill="#EDF0F8" points="332 150.246753 326 147 326 147.779221 332 151"></polygon>
                    <polygon id="Path" fill="#EDF0F8" points="339 154.2 333 151 333 151.8 339 155"></polygon>
                    <polygon id="Path" fill="#EDF0F8" points="340 155 340 155.75 345 158 345 157.275"></polygon>
                    <polygon id="Path" fill="#EDF0F8" points="323 147 323 147.967742 328 151 328 150.032258"></polygon>
                    <polygon id="Path" fill="#EDF0F8" points="343 158.135762 329 150 329 150.864238 343 159"></polygon>
                    <polygon id="Path" fill="#EDF0F8" points="335 158.134615 326 153 326 153.836538 335 159"></polygon>
                    <polygon id="Path" fill="#EDF0F8" points="342 162.122807 335 158 335 158.847953 342 163"></polygon>
                    <polygon id="Path" fill="#EDF0F8" points="342 167.126214 333 162 333 162.873786 342 168"></polygon>
                    <polygon id="Path" fill="#EDF0F8" points="337 165 337 165.928 342 169 342 168.04"></polygon>
                    <polygon id="Path" fill="#EDF0F8" points="324.4 158.575 322.6 157.555 322.6 158.425 324.4 159.445"></polygon>
                    <polygon id="Path" fill="#EDF0F8" points="327 160 327 160.836538 336 166 336 165.163462"></polygon>
                    <polygon id="Path" fill="#EDF0F8" points="326.43 159.59 324.57 158.54 324.57 159.41 326.43 160.46"></polygon>
                    <polygon id="Path" fill="#EDF0F8" points="335 165.226667 325 160 325 160.773333 335 166"></polygon>
                    <polygon id="Path" fill="#EDF0F8" points="317 167 317 167.891089 321 170 321 169.138614"></polygon>
                    <polygon id="Path" fill="#EDF0F8" points="317 168 317 168.861386 321 171 321 170.108911"></polygon>
                    <polygon id="Path" fill="#EDF0F8" points="317 170 317 170.861386 321 173 321 172.108911"></polygon>
                    <polygon id="Path" fill="#EDF0F8" points="344 188 344 187.10828 322 174 322 174.89172"></polygon>
                    <polygon id="Path" fill="#EDF0F8" points="317 171 317 171.861386 321 174 321 173.108911"></polygon>
                    <polygon id="Path" fill="#EDF0F8" points="317 173 317 173.87 321 176 321 175.13"></polygon>
                    <polygon id="Path" fill="#EDF0F8" points="344 189 344 188.13617 322 175 322 175.86383"></polygon>
                    <polygon id="Path" fill="#EDF0F8" points="317 177 317 177.891089 321 180 321 179.138614"></polygon>
                    <polygon id="Path" fill="#EDF0F8" points="317 179 317 179.891089 321 182 321 181.138614"></polygon>
                    <polygon id="Path" fill="#EDF0F8" points="342.525 195.495 342.525 196.365 344.475 197.505 344.475 196.605"></polygon>
                    <polygon id="Path" fill="#EDF0F8" points="332 188.109649 322 182 322 182.921053 332 189"></polygon>
                    <polygon id="Path" fill="#EDF0F8" points="328 173.183673 322 170 322 170.816327 328 174"></polygon>
                    <polygon id="Path" fill="#EDF0F8" points="338 178.130435 329 173 329 173.869565 338 179"></polygon>
                    <polygon id="Path" fill="#EDF0F8" points="332 177.246753 326 174 326 174.779221 332 178"></polygon>
                    <polygon id="Path" fill="#EDF0F8" points="339 180.205479 333 177 333 177.821918 339 181"></polygon>
                    <polygon id="Path" fill="#EDF0F8" points="340 181 340 181.75 345 184 345 183.25"></polygon>
                    <polygon id="Path" fill="#EDF0F8" points="323 173 323 173.967742 328 177 328 176.032258"></polygon>
                    <polygon id="Path" fill="#EDF0F8" points="343 184.10596 329 176 329 176.864238 343 185"></polygon>
                    <polygon id="Path" fill="#EDF0F8" points="335 184.15942 326 179 326 179.84058 335 185"></polygon>
                    <polygon id="Path" fill="#EDF0F8" points="342 189.122807 335 185 335 185.847953 342 190"></polygon>
                    <polygon id="Path" fill="#EDF0F8" points="342 193.126214 333 188 333 188.873786 342 194"></polygon>
                    <polygon id="Path" fill="#EDF0F8" points="337 192 337 192.96 342 196 342 195.072"></polygon>
                    <polygon id="Path" fill="#EDF0F8" points="324.4 184.59 322.6 183.54 322.6 184.44 324.4 185.46"></polygon>
                    <polygon id="Path" fill="#EDF0F8" points="327 186 327 186.861244 336 192 336 191.167464"></polygon>
                    <polygon id="Path" fill="#EDF0F8" points="326.43 185.605 324.57 184.525 324.57 185.425 326.43 186.475"></polygon>
                    <polygon id="Path" fill="#EDF0F8" points="335 192.070796 325 186 325 186.929204 335 193"></polygon>
                    <path d="M205.659924,22.6605675 L201.480853,20.0545286 C201.382013,19.9850205 201.254982,19.9817231 201.153126,20.0460217 C201.05127,20.1103203 200.992236,20.231075 201.000825,20.3575563 L201.000825,25.7211482 C200.99768,25.9917604 201.140795,26.2398609 201.367905,26.3575065 L205.546976,28.9635455 C205.644175,29.0168015 205.760288,29.011406 205.852835,28.9493328 C205.945381,28.8872597 206.000781,28.7776171 205.998767,28.6605177 L205.998767,23.2969259 C206.01435,23.0312276 205.881139,22.7810527 205.659924,22.6605675 Z" id="Path" fill="#50E85E"></path>
                    <path d="M205.660803,30.6387729 L201.48025,28.0541815 C201.385652,27.9878767 201.265091,27.9820153 201.165326,28.0388706 C201.065561,28.095726 201.002289,28.2063531 201.000051,28.3278441 L201.000051,33.7098757 C200.996905,33.9814182 201.140071,34.2303717 201.367262,34.3484218 L205.547815,36.9634202 C205.645049,37.0168593 205.761204,37.0114452 205.853783,36.9491587 C205.946362,36.8868721 206.001782,36.7768526 205.999767,36.6593506 L205.999767,31.307726 C206.006252,31.0354793 205.87695,30.7802982 205.660803,30.6387729 Z" id="Path" fill="#50E85E"></path>
                    <path d="M205.659581,38.6313224 L201.480078,36.0540285 C201.385504,35.987911 201.264973,35.9820661 201.165234,36.0387609 C201.065494,36.0954557 201.002238,36.2057705 201,36.3269184 L201,41.724075 C201.014679,41.9891651 201.152673,42.2285072 201.367119,42.3608182 L205.546621,44.9381121 C205.63627,45.0113332 205.757871,45.0203512 205.856044,44.961059 C205.954218,44.9017668 206.010186,44.785505 205.99846,44.6652221 L205.99846,39.2983867 C206.004943,39.0269087 205.875673,38.7724481 205.659581,38.6313224 Z" id="Path" fill="#50E85E"></path>
                    <path d="M205.659924,45.6605675 L201.480853,43.0545286 C201.382013,42.9850205 201.254982,42.9817231 201.153126,43.0460217 C201.05127,43.1103203 200.992236,43.231075 201.000825,43.3575563 L201.000825,48.7211482 C200.99768,48.9917604 201.140795,49.2398609 201.367905,49.3575065 L205.546976,51.9635455 C205.644175,52.0168015 205.760288,52.011406 205.852835,51.9493328 C205.945381,51.8872597 206.000781,51.7776171 205.998767,51.6605177 L205.998767,46.2969259 C206.01435,46.0312276 205.881139,45.7810527 205.659924,45.6605675 L205.659924,45.6605675 Z" id="Path" fill="#50E85E"></path>
                    <path d="M205.660971,53.6387729 L201.480267,51.0541815 C201.385666,50.9878767 201.2651,50.9820153 201.165332,51.0388706 C201.065564,51.095726 201.002289,51.2063531 201.000051,51.3278441 L201.000051,56.7098757 C200.996905,56.9814182 201.140076,57.2303717 201.367275,57.3484218 L205.547979,59.9634202 C205.645217,60.0168593 205.761375,60.0114452 205.853957,59.9491587 C205.94654,59.8868721 206.001962,59.7768526 205.999947,59.6593506 L205.999947,54.1860982 C205.974081,53.9560763 205.848274,53.7529443 205.660971,53.6387729 L205.660971,53.6387729 Z" id="Path" fill="#50E85E"></path>
                    <path d="M205.6608,61.6386539 L201.480204,59.054179 C201.385605,58.9878773 201.265042,58.9820161 201.165277,59.0388689 C201.065511,59.0957217 201.002239,59.2063438 201,59.3278293 L201,64.7400238 C201.014683,65.0058525 201.152713,65.2458614 201.367215,65.3785411 L205.547811,67.963016 C205.640635,68.0143648 205.751208,68.0121226 205.842171,67.9570469 C205.933133,67.9019713 205.992332,67.8014196 205.999767,67.6893657 L205.999767,62.3075768 C206.006252,62.0353424 205.876949,61.7801729 205.6608,61.6386539 Z" id="Path" fill="#50E85E"></path>
                    <path d="M205.659924,68.6605675 L201.480853,66.0545286 C201.382013,65.9850205 201.254982,65.9817231 201.153126,66.0460217 C201.05127,66.1103203 200.992236,66.231075 201.000825,66.3575563 L201.000825,71.7211482 C200.99768,71.9917604 201.140795,72.2398609 201.367905,72.3575065 L205.546976,74.9635455 C205.644175,75.0168015 205.760288,75.011406 205.852835,74.9493328 C205.945381,74.8872597 206.000781,74.7776171 205.998767,74.6605177 L205.998767,69.2969259 C206.01435,69.0312276 205.881139,68.7810527 205.659924,68.6605675 L205.659924,68.6605675 Z" id="Path" fill="#50E85E"></path>
                    <path d="M205.660229,76.6457447 L201.48019,74.0336122 C201.379307,73.9834832 201.26198,73.9897273 201.166192,74.0503231 C201.070404,74.1109189 201.008324,74.2181666 201.000051,74.3373486 L201.000051,79.7134816 C200.996905,79.9847265 201.140054,80.2334072 201.367216,80.3513278 L205.547255,82.9634603 C205.644477,83.0168408 205.760617,83.0114327 205.853185,82.9492144 C205.945753,82.8869961 206.001166,82.7770972 205.999151,82.6597239 L205.999151,77.3139646 C206.011864,77.0404424 205.880952,76.782335 205.660229,76.6457447 Z" id="Path" fill="#50E85E"></path>
                    <path d="M205.6608,84.6386539 L201.480204,82.054179 C201.385605,81.9878773 201.265042,81.9820161 201.165277,82.0388689 C201.065511,82.0957217 201.002239,82.2063438 201,82.3278293 L201,87.7400238 C201.007556,88.0005509 201.149091,88.2349346 201.367215,88.3481355 L205.547811,90.963016 C205.640635,91.0143648 205.751208,91.0121226 205.842171,90.9570469 C205.933133,90.9019713 205.992332,90.8014196 205.999767,90.6893657 L205.999767,85.3075768 C206.006252,85.0353424 205.876949,84.7801729 205.6608,84.6386539 Z" id="Path" fill="#50E85E"></path>
                    <path d="M205.659637,91.6620188 L201.480823,89.0545583 C201.381989,88.9850123 201.254966,88.9817131 201.153117,89.0460468 C201.051267,89.1103805 200.992237,89.2312011 201.000824,89.3577514 L201.000824,94.724269 C201.004286,94.9930083 201.145417,95.2378162 201.367882,95.3609745 L205.546696,97.9381157 C205.63633,98.0113325 205.757911,98.02035 205.856068,97.9610613 C205.954225,97.9017726 206.010184,97.7855177 205.99846,97.665242 L205.99846,92.2987243 C206.014042,92.0328811 205.880839,91.7825697 205.659637,91.6620188 L205.659637,91.6620188 Z" id="Path" fill="#50E85E"></path>
                    <path d="M205.6476,99.6605675 L201.479581,97.0545286 C201.381003,96.9850205 201.254308,96.9817231 201.152721,97.0460217 C201.051135,97.1103203 200.992257,97.231075 201.000822,97.3575563 L201.000822,102.721148 C200.997686,102.99176 201.140423,103.239861 201.366932,103.357507 L205.534951,105.963545 C205.631894,106.016802 205.7477,106.011406 205.840001,105.949333 C205.932303,105.88726 205.987557,105.777617 205.985548,105.660518 L205.985548,100.44844 C206.046795,100.13435 205.909468,99.8141927 205.6476,99.6605675 Z" id="Path" fill="#50E85E"></path>
                    <path d="M205.6608,107.638773 L201.480204,105.054181 C201.385605,104.987877 201.265042,104.982015 201.165277,105.038871 C201.065511,105.095726 201.002239,105.206353 201,105.327844 L201,110.740283 C201.007556,111.000822 201.149091,111.235216 201.367215,111.348422 L205.547811,113.96342 C205.645046,114.016859 205.761201,114.011445 205.853781,113.949159 C205.946361,113.886872 206.001782,113.776853 205.999767,113.659351 L205.999767,108.307726 C206.006252,108.035479 205.876949,107.780298 205.6608,107.638773 Z" id="Path" fill="#50E85E"></path>
                    <path d="M291.231499,252.948448 C285.782687,251.088044 279.759542,251.998139 275.117558,255.383258 C266.344087,261.180425 260.495107,269.093558 264.062985,272.050113 C267.630863,275.006668 274.503415,278.166124 278.977885,276.571903 C283.452355,274.977682 305.561501,262.107971 291.231499,252.948448 Z" id="Path" fill="#0F4463"></path>
                    <polygon id="Path" fill="#ED5561" points="472 219.216523 404.214619 258 361 232.754426 428.785381 194"></polygon>
                    <polygon id="Path" fill="#F0CEC9" points="418 257.50036 418 259 486 220.09589 486 219"></polygon>
                    <polygon id="Path" fill="#FFFBF0" points="486 219.216523 418.197044 258 375 232.754426 442.774177 194"></polygon>
                    <polygon id="Path" fill="#F5DDD8" points="418 257.47557 418 259 375 233.52443 375 232"></polygon>
                    <polygon id="Path" fill="#DFBAB8" points="442.140444 198 468 213.326007 466.888068 214 441 198.673993"></polygon>
                    <polygon id="Path" fill="#DFBAB8" points="439.140444 199 465 214.354128 463.859556 215 438 199.645872"></polygon>
                    <polygon id="Path" fill="#DFBAB8" points="433.148177 203 469 223.378197 467.851823 224 432 203.621803"></polygon>
                    <polygon id="Path" fill="#DFBAB8" points="431.148177 205 467 225.378197 465.880528 226 430 205.621803"></polygon>
                    <polygon id="Path" fill="#DFBAB8" points="428.148177 206 464 226.378197 462.851823 227 427 206.621803"></polygon>
                    <polygon id="Path" fill="#DFBAB8" points="426.120342 207 462 227.378197 460.879658 228 425 207.621803"></polygon>
                    <polygon id="Path" fill="#DFBAB8" points="423.148177 209 459 229.350806 457.851823 230 422 209.649194"></polygon>
                    <polygon id="Path" fill="#DFBAB8" points="421.119472 210 457 230.350806 455.851823 231 420 210.649194"></polygon>
                    <polygon id="Path" fill="#DFBAB8" points="418.148177 212 454 232.350806 452.851823 233 417 212.649194"></polygon>
                    <polygon id="Path" fill="#DFBAB8" points="416.119472 213 452 233.350806 450.851823 234 415 213.649194"></polygon>
                    <polygon id="Path" fill="#DFBAB8" points="413.148177 215 449 235.350806 447.851823 236 412 215.649194"></polygon>
                    <polygon id="Path" fill="#DFBAB8" points="411.119472 216 447 236.350806 445.851823 237 410 216.649194"></polygon>
                    <polygon id="Path" fill="#DFBAB8" points="408.148177 217 444 237.379032 442.851823 238 407 217.649194"></polygon>
                    <polygon id="Path" fill="#DFBAB8" points="406.148177 219 442 239.349933 440.851823 240 405 219.621803"></polygon>
                    <polygon id="Path" fill="#DFBAB8" points="403.148177 220 439 240.378197 437.851823 241 402 220.621803"></polygon>
                    <polygon id="Path" fill="#DFBAB8" points="401.148177 222 437 242.378197 435.851823 243 400 222.621803"></polygon>
                    <polygon id="Path" fill="#DFBAB8" points="398.148177 223 434 243.378197 432.880528 244 397 223.621803"></polygon>
                    <path d="M369.098525,242 L362.901387,242 L362.901387,248.776531 L369.098525,248.776531 C371.416549,248.776531 373.295678,250.675941 373.295678,253.018982 L373.295678,264.009491 C373.280194,266.341405 371.405592,268.223521 369.098525,268.223469 L360,268.223469 L360,275 L369.098525,275 C375.10818,275 379.984326,270.083984 380,264.009491 L380,253.1044 C380.014831,250.169507 378.873815,247.349215 376.828605,245.265907 C374.783396,243.182599 372.002111,242.007525 369.098525,242 L369.098525,242 Z" id="Path" fill="#A7BCCE"></path>
                    <path d="M366,238 L366,277.031505 C366,283.099183 357.049964,288 346.014482,288 C334.979001,288 326,283.099183 326,277.031505 L326,238 L366,238 Z" id="Path" fill="#BBCEE1"></path>
                    <path d="M326,238.043709 C326,244.075497 334.950036,249 346.014482,249 C357.078928,249 366,244.075497 366,238.043709 C366,232.011921 357.049964,227 346.014482,227 C334.979001,227 326,232.011921 326,238.043709 Z" id="Path" fill="#FFFFFF"></path>
                    <path d="M330,238.48552 C330,243.206133 337.146474,247 346,247 C354.853526,247 362,243.206133 362,238.48552 C362,233.764906 354.824593,230 346,230 C337.175407,230 330,233.793867 330,238.48552 Z" id="Path" fill="#A7BCCE"></path>
                    <path d="M346.014354,235 C339.066986,235 333.181818,237.49 331,241 C333.181818,244.45 339.066986,247 346.014354,247 C352.961722,247 358.84689,244.51 361,241 C358.84689,237.49 352.961722,235 346.014354,235 Z" id="Path" fill="#9D4D36"></path>
                    <path d="M354,248.334677 L354,287 C357.295068,286.346571 360.385725,284.858015 363,282.665323 L363,244 C360.385725,246.192693 357.295068,247.681248 354,248.334677 L354,248.334677 Z" id="Path" fill="#A7BCCE"></path>
                </g>
            </g>
        </g>
    </g>
</svg>