<?xml version="1.0" encoding="UTF-8"?>
<svg width="1024px" height="1025px" viewBox="0 0 1024 1025" version="1.1" xmlns="http://www.w3.org/2000/svg" xmlns:xlink="http://www.w3.org/1999/xlink">
    <!-- Generator: Sketch 64 (93537) - https://sketch.com -->
    <title>virtual-5801280</title>
    <desc>Created with Sketch.</desc>
    <g id="covid" stroke="none" stroke-width="1" fill="none" fill-rule="evenodd">
        <g id="Desktop" transform="translate(0.000000, -13833.000000)" fill-rule="nonzero">
            <g id="virtual-5801280" transform="translate(0.000000, 13833.000000)">
                <g id="Group" fill="#246EB9">
                    <path d="M1.60421317,0.431431088 C1.29316113,0.431431088 0.994804765,0.555021045 0.774861442,0.775018794 C0.554910094,0.995020556 0.431347962,1.29340231 0.431347962,1.60452232 L0.431347962,1023.39468 C0.431347962,1024.0425 0.957263448,1024.56857 1.60501567,1024.56857 L1022.39579,1024.56857 C1022.70684,1024.56857 1023.00513,1024.44496 1023.2251,1024.22495 C1023.44509,1024.00502 1023.56862,1023.70651 1023.56862,1023.39548 L1023.56862,1.60532498 C1023.56862,0.957439898 1023.04277,0.431431088 1022.39498,0.431431088 L1.60421317,0.431431088 Z" id="Path"></path>
                </g>
                <g id="Group" transform="translate(713.429467, 279.326547)" fill="#FFFFFF">
                    <path d="M0.376456426,10.8488986 L6.7427511,5.46605129 L13.1090458,0.0832120204 C45.6530926,38.5834695 78.1971394,77.083727 110.741186,115.583985 C106.497391,119.173074 102.253596,122.762144 98.0098006,126.351196 C65.4653258,87.850441 32.9208777,49.3496752 0.376456426,10.8488986" id="Path"></path>
                </g>
                <g id="Group" transform="translate(751.949843, 325.078309)" fill="#FF0000">
                    <path d="M0.679122257,12.1035724 L7.84475486,6.43149374 L15.0104276,0.759398982 C17.7454117,4.21550313 20.4803772,7.67161531 23.2153239,11.1277355 C18.4385779,14.9096136 13.6618453,18.6914757 8.88512602,22.4733217 C6.14975131,19.0167413 3.41441672,15.5601582 0.679122257,12.1035724" id="Path"></path>
                </g>
                <g id="Group" transform="translate(759.172414, 333.907596)" fill="#FF0000">
                    <path d="M0.355454796,0.084119029 L0.355454796,0.0845604933 L42.292484,16.3701731 C39.9202708,20.0498776 37.5480577,23.7295794 35.1758445,27.4092786 L0.355454796,0.084119029" id="Path"></path>
                </g>
                <g id="Group" transform="translate(763.987461, 333.907596)" fill="#FF0000">
                    <path d="M0.520025078,0.34474354 L0.520025078,0.34474354 L0.567132288,45.3403171 C4.85436991,44.4559971 9.14157007,43.5716423 13.4287328,42.6872527 L0.520025078,0.34474354" id="Path"></path>
                </g>
                <g id="Group" transform="translate(721.454545, 288.155834)" fill="#FFBFAF" fill-opacity="0.99607843">
                    <path d="M0.473319122,46.4563391 L0.473319122,46.4572782 L12.4235436,33.4856825 C9.81072251,29.3446343 8.05919565,26.1618742 7.16896301,23.9374021 C6.36768568,22.1198211 6.10831515,20.3715044 6.39085141,18.6924522 C6.78092372,17.1800595 7.48012205,16.3966582 8.48844639,16.3422484 C8.78328777,16.2790468 9.24024644,16.4868962 9.85932238,16.9657968 L12.3365999,19.6126887 C13.0550798,20.2353408 13.4922968,20.5404702 13.6482508,20.5280771 C14.5989016,20.9421119 15.6531133,20.369249 16.810886,18.8094884 C17.8742678,17.2182208 18.2674591,15.4257229 17.9904602,13.4319949 C17.8662052,11.9989588 16.6880568,9.68603328 14.456015,6.49321848 C14.9663833,2.96469812 16.2692013,0.973139977 18.364469,0.518544049 C23.3383858,-0.759182263 30.3986652,2.19147729 39.5453071,9.37052271 C44.0083956,13.2687976 46.8571085,16.2325807 48.0914458,18.261872 C49.0012222,19.5366498 49.7523668,20.814922 50.3448797,22.0966883 L51.0789016,24.0046973 C51.4734358,25.2715449 51.6449317,26.5097267 51.5933893,27.7192428 C51.5382838,28.9275495 51.2913521,30.1100372 50.8525944,31.266706 L50.079346,32.9861776 C49.4775935,34.1208641 48.7415547,35.2374746 47.8712296,36.3360092 C45.1067292,39.6108347 41.8243009,42.8159169 38.0239448,45.9512557 L18.4202031,70.5276012 L0.473319122,46.4563391" id="Path"></path>
                </g>
                <g id="Group" transform="translate(92.288401, 912.627251)" fill="#000000" fill-opacity="0.21176471">
                    <path d="M870.993936,20.492455 L867.020479,23.1900431 C848.187386,28.6246032 793.081912,32.9710741 701.704057,36.2294558 C609.693891,39.4851083 501.345625,40.8053008 376.65926,40.1900333 C257.662296,39.3299002 162.491214,36.8132322 91.1460129,32.6400294 C68.2862203,31.2910213 49.456732,29.8211322 34.657548,28.2303622 L16.0000963,25.7771848 C5.7498028,24.0891321 0.567033312,22.3275555 0.451787837,20.492455 C3.56349057,14.8609749 46.0594759,10.1755129 127.939744,6.43606891 C209.820017,2.69651788 312.414415,0.755706735 435.722938,0.613635474 C559.03144,0.755706735 661.625799,2.69651788 743.506016,6.43606891 C825.386319,10.1755129 867.882292,14.8609749 870.993936,20.492455" id="Path"></path>
                </g>
                <g id="Group" transform="translate(479.097179, 488.821457)" fill="#000000">
                    <path d="M0.169128527,0.560258418 L38.3864858,0.560258418 L76.6035942,0.560258418 C76.6035942,32.7470992 76.6035942,64.9336617 76.6035942,97.1206924 C51.1254203,97.1206924 25.6472811,97.1206924 0.169128527,97.1206924 C0.169128527,64.9338142 0.169128527,32.7470029 0.169128527,0.560258418 Z" id="Path"></path>
                </g>
                <g id="Group" transform="translate(351.498433, 287.353171)" fill="#000000">
                    <path d="M0.24267837,0.432859828 L166.544796,0.432859828 L332.846706,0.432859828 C332.846706,72.5420513 332.846706,144.650376 332.846706,216.75919 C221.978627,216.75919 111.110672,216.75919 0.24267837,216.75919 C0.24267837,144.650544 0.24267837,72.5417677 0.24267837,0.432859828 Z" id="Path"></path>
                </g>
                <g id="Group" transform="translate(359.523511, 296.985121)" fill="#FFFFFF">
                    <path d="M0.657655172,0.564030932 L158.519694,0.564030932 L316.381412,0.564030932 C316.381412,65.7729042 316.381412,130.981076 316.381412,196.189495 C211.140197,196.189495 105.898961,196.189495 0.657655172,196.189495 C0.657655172,130.981007 0.657655172,65.7725189 0.657655172,0.564030932 Z" id="Path"></path>
                </g>
                <g id="Group" transform="translate(423.724138, 574.706343)" fill="#000000">
                    <path d="M0.625875862,0.660109632 L93.7593981,0.660671496 L186.89288,0.661233359 C186.89288,5.60222566 186.89288,10.5432715 186.89288,15.4843708 C124.803892,15.4844457 62.7148907,15.4845634 0.625875862,15.484724 C0.625875862,10.5432661 0.625875862,5.60172801 0.625875862,0.660109632 Z" id="Path"></path>
                </g>
                <g id="Group" transform="translate(522.432602, 507.282694)" fill="#FCE9EA">
                    <path d="M1.47803486,1.28971809 L1.47803486,1.29027995 L1.47803486,1.29003915 C1.47803486,1.65324393 1.18375524,1.9475 0.820724765,1.9475 C0.45775047,1.9475 0.163422696,1.65324393 0.163422696,1.29003915 L0.163422696,1.29068128 L0.163422696,1.28971809 C0.163422696,0.926705951 0.45775047,0.632257244 0.820724765,0.632257244 C1.18375524,0.632257244 1.47803486,0.926705951 1.47803486,1.28971809 Z" id="Path"></path>
                </g>
                <g id="Group" transform="translate(454.219436, 877.310102)" fill="#000000">
                    <path d="M39.6965156,14.0993285 L47.002226,48.1766856 C34.1371533,50.7529646 25.1806977,52.0750568 20.1328592,52.142962 C15.499516,52.5043207 8.9418018,51.7123068 0.459716614,49.7669205 L4.11096677,0.566438919 L39.6965156,14.0993285" id="Path"></path>
                </g>
                <g id="Group" transform="translate(544.100313, 887.744714)" fill="#000000">
                    <path d="M35.9352577,0.418749021 L40.6589793,39.6721554 C31.2930976,42.4418761 24.3753088,43.7759547 19.905613,43.6743912 C15.2122476,43.8031382 8.66388798,42.5621952 0.260534169,39.9515623 L6.35127172,5.14699295 L35.9352577,0.418749021" id="Path"></path>
                </g>
                <g id="Group" transform="translate(436.564263, 738.449491)" fill="#3C464F">
                    <path d="M63.6818859,0.11914722 L62.8636489,80.2375137 L62.045428,160.355912 L18.199995,160.99419 C12.30122,107.457029 6.40245567,53.9198695 0.503702069,0.382709475 L63.6818859,0.11914722" id="Path"></path>
                </g>
                <g id="Group" transform="translate(540.087774, 733.633516)" fill="#3C464F">
                    <path d="M0.391013918,3.45942717 L2.28385705,84.8282616 L4.17665204,166.197289 C19.3032186,166.110387 34.4297771,166.023485 49.5563275,165.936584 C55.7583274,110.678676 61.9603274,55.4206985 68.1623273,0.162651527 L0.391013918,3.45942717" id="Path"></path>
                </g>
                <g id="Group" transform="translate(283.285266, 590.759593)" fill="#FFFFFF" fill-opacity="0.99607843">
                    <path d="M0.386198871,0.384033868 L240.300082,0.384475333 L480.213949,0.38495693 C480.213949,6.46731924 480.213949,12.5496815 480.213949,18.6320439 C320.271371,18.6323114 160.328787,18.6325977 0.386198871,18.6329027 C0.386198871,12.5499143 0.386198871,6.46695804 0.386198871,0.384033868" id="Path"></path>
                </g>
                <g id="Group" transform="translate(336.250784, 608.418168)" fill="#FFFFFF" fill-opacity="0.99607843">
                    <path d="M0.468367649,0.377652702 L10.6087122,0.377652702 L20.7490568,0.377652702 C20.7490568,107.291617 20.7490568,214.204746 20.7490568,321.118774 C13.988803,321.118774 7.22858132,321.118774 0.468367649,321.118774 C0.468367649,214.205094 0.468367649,107.291387 0.468367649,0.377652702" id="Path"></path>
                </g>
                <g id="Group" transform="translate(706.206897, 608.418168)" fill="#FFFFFF" fill-opacity="0.99607843">
                    <path d="M0.632135423,0.377861394 L10.7725442,0.377861394 L20.9128727,0.377861394 C20.9128727,107.291735 20.9128727,214.2048 20.9128727,321.118774 C14.1525735,321.118774 7.39235444,321.118774 0.632135423,321.118774 C0.632135423,214.205147 0.632135423,107.29151 0.632135423,0.377861394" id="Path"></path>
                </g>
                <g id="Group" transform="translate(610.708464, 622.866092)" fill="#222B32">
                    <path d="M0.67275837,0.625835944 L13.3595245,0.625835944 L26.0462345,0.625835944 C26.0462345,42.3512448 26.0462345,84.075819 26.0462345,125.80118 C17.5884278,125.80118 9.13060247,125.80118 0.67275837,125.80118 C0.67275837,84.0761293 0.67275837,42.3510147 0.67275837,0.625835944" id="Path"></path>
                </g>
                <g id="Group" transform="translate(402.858934, 621.260767)" fill="#222B32">
                    <path d="M0.470686897,0.717716719 L13.157453,0.717716719 L25.8441871,0.717716719 C25.8441871,42.4431283 25.8441871,84.167665 25.8441871,125.893085 C17.3863403,125.893085 8.92851494,125.893085 0.470686897,125.893085 C0.470686897,84.1679272 0.470686897,42.4428046 0.470686897,0.717716719" id="Path"></path>
                </g>
                <g id="Group" transform="translate(427.736677, 921.456539)" fill="#000000">
                    <path d="M186.928736,13.8325235 L186.078319,15.6508751 C182.047595,19.3143872 170.253744,22.2443729 150.696767,24.440832 C131.004429,26.6355253 107.81535,27.525464 81.1295298,27.110648 C55.6614086,26.5308581 35.292572,24.8343239 20.0230199,22.0210454 C15.1304881,21.1117358 11.1005372,20.1209025 7.93316715,19.0485454 L3.94004865,17.3948199 C1.74622763,16.256912 0.636982571,15.0694799 0.61231348,13.8325235 C1.27830938,10.0363045 10.3734464,6.87780084 27.8977244,4.35701253 C45.4220452,1.83627773 67.3796548,0.528018141 93.770553,0.432233751 C120.161467,0.528018141 142.119071,1.83627773 159.643366,4.35701253 C177.16766,6.87780084 186.262783,10.0363045 186.928736,13.8325235" id="Path"></path>
                </g>
                <g id="Group" transform="translate(415.699060, 691.092404)" fill="#000000" fill-opacity="0.99607843">
                    <path d="M209.060394,43.3471055 L208.107664,49.2103062 C203.591953,61.0229242 190.37903,70.4703848 168.468897,77.5526879 C146.407149,84.6292815 120.427943,87.4988267 90.5312782,86.1613234 C61.9988023,84.2917619 39.1791736,78.8215234 22.0723922,69.7506079 C16.5911834,66.8184871 12.0763519,63.6235827 8.52789768,60.1658947 L4.05429367,54.8337275 C1.59653317,51.1646502 0.353831055,47.3357762 0.326187335,43.3471055 C1.07228957,31.1065293 11.261769,20.9221737 30.8946257,12.7940388 C50.5274717,4.66590381 75.1270306,0.447404072 104.693303,0.138539546 C134.25958,0.447404072 158.859144,4.66590381 178.491995,12.7940388 C198.124847,20.9221737 208.314313,31.1065293 209.060394,43.3471055" id="Path"></path>
                </g>
                <g id="Group" transform="translate(540.890282, 888.547377)" fill="#222B32">
                    <path d="M0.69022094,0.53754307 L26.0868414,0.538024667 L51.4834698,0.538425998 C51.4834698,4.4225633 51.4834698,8.30672736 51.4834698,12.1909182 C34.5523842,12.1912392 17.6213012,12.1915335 0.69022094,12.1918011 C0.69022094,8.30702167 0.69022094,4.42226899 0.69022094,0.53754307" id="Path"></path>
                </g>
                <g id="Group" transform="translate(452.614420, 890.955364)" fill="#222B32">
                    <path d="M0.119589718,0.353171496 L24.4075697,0.353653093 L48.6955335,0.353974158 C48.6955335,4.19048682 48.6955335,8.02699948 48.6955335,11.8635121 C32.5035576,11.8637262 16.3115763,11.8639937 0.119589718,11.8643148 C0.119589718,8.02726703 0.119589718,4.19021926 0.119589718,0.353171496" id="Path"></path>
                </g>
                <g id="Group" transform="translate(327.423197, 438.253720)" fill="#234B69" fill-opacity="0.99607843">
                    <path d="M0.789122006,0.520574785 L0.789097931,0.521008222 L0.789073856,0.521457713 L0.789097931,0.521008222 L0.789122006,0.520574785 L0.789097931,0.521008222 L0.789073856,0.521457713 C0.789089906,0.521158053 0.789105956,0.520863743 0.789122006,0.520574785" id="Path"></path>
                </g>
                <g id="Group" transform="translate(510.394984, 757.713391)" fill="#000000">
                    <path d="M0.187915235,0.107476507 L11.112326,0.107476507 L22.0366887,0.107476507 C22.0366887,60.3085813 22.0366887,120.50883 22.0366887,180.709988 C14.7537802,180.709988 7.47085576,180.709988 0.187915235,180.709988 C0.187915235,120.509124 0.187915235,60.308287 0.187915235,0.107476507" id="Path"></path>
                </g>
                <g id="Group" transform="translate(316.188088, 542.599843)" fill="#000000">
                    <path d="M0.75575373,0.382179718 L24.6543007,0.382179718 L48.5528476,0.38305462 C48.5528476,16.318206 48.5528476,32.2533761 48.5528476,48.188565 C32.620483,48.188854 16.6881184,48.1894479 0.75575373,48.1894479 C0.75575373,32.2536705 0.75575373,16.3179144 0.75575373,0.382179718" id="Path"></path>
                </g>
                <g id="Group" transform="translate(300.940439, 554.639781)" fill="#000000">
                    <path d="M2.75072401,0.135569695 L2.75072401,0.135569695 L24.7917542,0.136452623 C26.0734957,0.13648473 27.1125347,1.17574002 27.1125347,2.45775255 L27.1125347,2.45775255 L27.1125347,24.5021554 C27.1125347,25.784168 26.0734957,26.8234554 24.7917542,26.8234955 L24.7917542,26.8234955 L2.75072401,26.8243784 C2.13517643,26.8243784 1.54482759,26.5798152 1.10955857,26.1445394 C0.674287147,25.7091993 0.429758997,25.1187206 0.429758997,24.5030384 L0.429758997,24.5030384 L0.429758997,2.45686962 C0.429758997,1.84122749 0.674287147,1.25070869 1.10955857,0.815400744 C1.54482759,0.380060689 2.13517643,0.135569695 2.75072401,0.135569695 L2.75072401,0.135569695 M2.75053944,4.77816954 L5.07151248,2.45686962 L5.07151248,24.5030384 L2.75053944,22.1817384 L24.7915616,22.1808555 L22.4707812,24.5021554 L22.4707812,2.45775255 L24.7915616,4.77905247 L2.75053944,4.77816954 Z" id="Shape"></path>
                </g>
                <g id="Group" transform="translate(394.031348, 686.276429)" fill="#000000">
                    <path d="M0.0585429467,0.676564213 L123.300819,0.676997651 L246.543087,0.677447142 C246.543087,11.5618181 246.543087,22.446189 246.543087,33.3305599 C164.381559,33.330881 82.2200443,33.3314428 0.0585429467,33.3314428 C0.0585429467,22.4464833 0.0585429467,11.5615238 0.0585429467,0.676564213" id="Path"></path>
                </g>
                <g id="Group" transform="translate(388.413793, 324.275646)" fill="#FF0033">
                    <path d="M0.786842884,0.154994127 L132.109988,0.155443618 L263.433068,0.155933242 C263.433068,8.61269427 263.433068,17.069458 263.433068,25.5262244 C175.884348,25.526524 88.3356061,25.5268183 0.786842884,25.5271073 C0.786842884,17.0697523 0.786842884,8.61238123 0.786842884,0.154994127" id="Path"></path>
                </g>
                <g id="Group" transform="translate(501.567398, 361.198121)" fill="#D9E2E7">
                    <path d="M0.427632351,0.707571065 L68.6084655,0.707571065 L136.789307,0.708429914 C136.789307,21.487628 136.789307,42.2668208 136.789307,63.0460082 C91.3353964,63.0468912 45.881505,63.0468912 0.427632351,63.0468912 C0.427632351,42.2671151 0.427632351,21.4873418 0.427632351,0.707571065" id="Path"></path>
                </g>
                <g id="Group" transform="translate(406.871473, 365.211433)" fill="#D9E2E7">
                    <path d="M0.624816552,0.516705951 L33.0741327,0.516705951 L65.5234648,0.516705951 C65.5234648,31.3758252 65.5234648,62.2341044 65.5234648,93.0932772 C43.8905767,93.0932772 22.2576993,93.0932772 0.624816552,93.0932772 C0.624816552,62.2343987 0.624816552,31.3755416 0.624816552,0.516705951" id="Path"></path>
                </g>
                <g id="Group" transform="translate(474.282132, 395.712608)" fill="#FFBFAF" fill-opacity="0.99607843">
                    <path d="M10.4626799,8.91448199 L10.6640451,11.6334691 C11.7188079,23.6461962 11.6167557,32.5334893 10.3578884,38.2953485 C9.38059436,43.5989355 5.96057346,49.0441176 0.0978257053,54.6308947 L75.9284123,50.3215121 C69.5596031,42.7486056 65.373329,36.079283 63.36959,30.3135442 C61.1551338,24.9010626 59.0140509,14.8030495 56.9463413,0.0195046985 L10.4626799,8.91448199" id="Path"></path>
                </g>
                <g id="Group" transform="translate(448.601881, 378.054033)" fill="#FFBFAF" fill-opacity="0.99607843">
                    <path d="M25.4894947,12.7375313 L25.4516805,14.5044323 C25.0669957,18.0774576 23.6182871,20.983952 21.1055549,23.2239154 C18.5747287,25.4629157 15.5242199,26.4575055 11.9540283,26.2076848 C8.53912209,25.7910281 5.75682742,24.2631761 3.60714433,21.6241288 C1.45829049,18.9661387 0.496220021,15.769027 0.720932915,12.0327937 C1.10564447,8.45976834 2.55437175,5.55327395 5.06711473,3.31331049 C7.5979195,1.07431023 10.648423,0.0797311407 14.2186252,0.329573218 C17.6335154,0.746208562 20.4157994,2.27405788 22.5654771,4.91312118 C23.2546013,5.76641027 23.8322652,6.70360167 24.2984687,7.72469538 L24.8987045,9.30446359 C25.2379513,10.3945863 25.4348813,11.5389422 25.4894947,12.7375313" id="Path"></path>
                </g>
                <g id="Group" transform="translate(530.457680, 370.027408)" fill="#FFBFAF" fill-opacity="0.99607843">
                    <path d="M25.2841891,12.5220566 L25.2463749,14.2889977 C24.861658,17.8620765 23.4129307,20.7686244 20.9001931,23.0086413 C18.3693723,25.2476951 15.3188741,26.242301 11.7486987,25.9924589 C8.33378173,25.5758235 5.55147904,24.0479394 3.4017906,21.4088066 C1.25293676,18.7507737 0.290882341,15.5536138 0.515627335,11.8173269 C0.900285392,8.244216 2.34898591,5.33765205 4.8617289,3.09763508 C7.39255507,0.85858131 10.4430612,-0.136024537 14.0132474,0.113817541 C17.4281536,0.530506395 20.210443,2.0583905 22.3601154,4.69746985 C23.0492449,5.55077499 23.6269034,6.48800117 24.0930909,7.50914839 L24.6933266,9.08883634 C25.032627,10.1790125 25.2295811,11.3234193 25.2841891,12.5220566" id="Path"></path>
                </g>
                <g id="Group" transform="translate(480.702194, 356.382146)" fill="#FFFFFF">
                    <path d="M4.39950846,0.140225137 C3.31892096,0.146191595 2.39158571,0.521596842 1.6175027,1.26644088 C0.862492623,2.02534756 0.47252999,2.94622886 0.447614796,4.02908477 C0.455907377,5.11197279 0.829910805,6.03753628 1.56962508,6.80577525 C2.32883494,7.56188332 3.24792577,7.95305821 4.32689755,7.97929992 C5.40763486,7.97478361 6.33568167,7.60073218 7.11103799,6.85714565 C7.86711273,6.09924498 8.25837542,5.1788319 8.28482608,4.09590642 C8.27760886,3.01279366 7.90469952,2.08649439 7.16609806,1.31700861 C6.40837551,0.560237014 5.48998554,0.167975855 4.41092815,0.140225137 L4.39950846,0.140225137 Z" id="Path"></path>
                </g>
                <g id="Group" transform="translate(480.702194, 356.382146)" fill="#000000">
                    <path d="M3.81608527,0.123449491 C3.30819411,0.123984599 2.93501994,0.185361524 2.69656276,0.307580266 L0.360502571,1.86241778 L1.67594132,1.37921496 C1.52227177,2.2320171 1.4852815,2.93748786 1.56497053,3.49562725 C1.64167958,4.1244384 1.85009622,4.80104542 2.19022044,5.52544832 C3.03942353,7.23300574 3.92193605,8.09054359 4.83775799,8.09806186 C5.27286704,8.09265727 5.65088568,7.90796463 5.97181392,7.54398395 C6.27993413,7.16951514 6.4512214,6.70390401 6.48567574,6.14715055 C6.58638512,5.25022873 6.17944945,3.52810298 5.26486871,0.980773297 L5.35417179,0.368703015 L6.73119498,0.283660924 C5.30402575,0.169147742 4.33569304,0.115743931 3.82619687,0.123449491 L3.81608527,0.123449491 Z" id="Path"></path>
                </g>
                <g id="Group" transform="translate(478.294671, 349.158183)" fill="#000000">
                    <path d="M4.88364539,0.623508222 C3.45894788,1.02660532 2.00135022,2.22210689 0.510852414,4.21001292 L12.136326,2.20395067 L12.0139596,2.14431284 L10.7890117,1.6335787 C10.3534532,1.45715348 9.96625655,1.3081606 9.62742169,1.18660004 C8.96155954,0.946710976 8.35230362,0.765916601 7.79965392,0.644216915 C6.68836247,0.396397546 5.71758479,0.389066562 4.88732088,0.622223962 L4.88364539,0.623508222 Z" id="Path"></path>
                </g>
                <g id="Group" transform="translate(459.034483, 360.395458)" fill="#FFFFFF">
                    <path d="M4.4004474,0.369305012 C3.3199883,0.375030671 2.39254604,0.750088097 1.61812063,1.49447729 C0.863121254,2.25352845 0.473147921,3.1745569 0.448200627,4.25756265 C0.456921212,5.34072892 0.830996865,6.26631382 1.57042759,7.03431735 C2.3296428,7.79011505 3.24879248,8.18117489 4.32787661,8.20749687 C5.40858182,8.20314109 6.33667946,7.8292502 7.11216953,7.0858242 C7.86800886,6.32743657 8.25909768,5.40678269 8.28543599,4.32386257 C8.27830437,3.24101736 7.90544318,2.31494819 7.16685241,1.54565505 C6.40923152,0.788872749 5.49087632,0.396756069 4.41178683,0.369305012 L4.4004474,0.369305012 Z" id="Path"></path>
                </g>
                <g id="Group" transform="translate(459.034483, 360.395458)" fill="#000000">
                    <path d="M3.81666307,0.351750783 C3.30902336,0.35237686 2.93605517,0.413933046 2.6977585,0.536419342 L0.361208777,2.09096789 L1.67704075,1.60853563 C1.5232535,2.46088828 1.48620706,3.16610754 1.56590144,3.72419342 C1.64244464,4.35278517 1.85085325,5.0291621 2.19112727,5.7533242 C3.04020731,7.46178061 3.92284021,8.31935859 4.83902596,8.32605814 C5.27392635,8.32132244 5.65186474,8.13683849 5.97284113,7.7726063 C6.28099344,7.39815355 6.45232351,6.93249426 6.48683135,6.37562843 C6.58746583,5.47841229 6.18038036,3.75623303 5.26557492,1.20909064 L5.35547987,0.59778289 L6.73185304,0.512146829 C5.3048229,0.397869094 4.33663732,0.344403746 3.8272963,0.351750783 L3.81666307,0.351750783 Z" id="Path"></path>
                </g>
                <g id="Group" transform="translate(456.626959, 353.171496)" fill="#000000">
                    <path d="M4.884159,0.852531911 C3.45962199,1.25543102 2.00217145,2.45098878 0.511807398,4.43920517 L12.1371687,2.43267737 L12.014722,2.37267032 L10.789429,1.86198434 C10.3542129,1.68622266 9.96713129,1.53745452 9.62818408,1.41567991 C8.96225237,1.17534671 8.35291887,0.99437575 7.80018357,0.872767032 C6.68909007,0.624936962 5.71849429,0.61756852 4.88839624,0.850661707 L4.884159,0.852531911 Z" id="Path"></path>
                </g>
                <g id="Group" transform="translate(449.404389, 305.814409)" fill="#6B2725">
                    <path d="M82.1163095,16.0306147 L84.5915004,16.6794068 C89.6873878,17.7546535 94.1281077,19.8304323 97.9136602,22.9067433 C99.1269985,24.0062893 100.194735,25.3281888 101.11687,26.8724419 L102.36351,29.3971686 C103.112769,31.2054494 103.661826,33.3194457 104.010681,35.7391574 C105.591627,48.4753991 102.64553,66.2262908 95.1723897,88.9918324 C92.989852,94.9769655 90.6725999,99.9122429 88.2206335,103.797664 C86.9892227,105.754984 85.7059377,107.499544 84.3707787,109.031345 C83.7871575,110.010647 81.635848,111.916943 77.9168502,114.750235 C66.5231756,121.273312 55.6257344,123.215328 45.2245266,120.57628 C32.0661587,117.431962 20.1614846,105.026717 9.51050433,83.360545 C5.61224226,75.1115612 2.87078989,66.6827569 1.28614721,58.0741321 C-0.290946541,49.4698203 -0.0914537931,41.5988397 1.88462545,34.4611903 C2.90856125,30.9478081 4.31878688,27.6892125 6.11530232,24.6854033 L9.02375925,20.379416 C11.1305296,17.6391423 13.4716456,15.1710916 16.0471072,12.9752639 C18.6225314,10.7794736 21.3309499,8.8676172 24.1723626,7.2396946 C25.5787951,6.05331663 29.8869621,4.27939774 37.0968637,1.91793794 C43.7566248,0.171991843 50.3094571,0.178849256 56.7553605,1.93851018 C63.97012,3.9266142 72.4237696,8.62398238 82.1163095,16.0306147" id="Path"></path>
                </g>
                <g id="Group" transform="translate(467.059561, 425.411120)" fill="#4397EA">
                    <path d="M13.9623845,5.98545419 L46.4367629,3.15317933 L78.9111574,0.32093657 C82.200546,14.6033042 85.4899454,28.8856291 88.7793555,43.1679111 C85.7271614,67.8864911 82.6749753,92.6050711 79.6227972,117.323651 C53.2630149,115.726674 26.9032219,114.12967 0.543418182,112.532639 L13.9623845,5.98545419" id="Path"></path>
                </g>
                <g id="Group" transform="translate(540.087774, 594.772905)" fill="#E04D69" fill-opacity="0.99607843">
                    <path d="M0.942914608,0.545971026 L0.942914608,0.546372357 C0.942914608,0.547121509 0.942914608,0.546987732 0.942914608,0.545971026" id="Path"></path>
                </g>
                <g id="Group" transform="translate(491.937304, 323.472984)" fill="#4397EA">
                    <path d="M55.4089931,121.614982 L121.692208,111.785922 L237.911152,0.458400548 L258.781813,25.437795 C229.887497,77.6004704 209.294539,110.159921 197.002938,123.116145 C186.754897,134.175818 180.616656,140.116978 178.588216,140.939627 L149.527754,159.566173 C145.953973,161.935777 142.576806,164.640669 139.396253,167.68085 C131.870592,176.276134 127.678264,182.270872 126.81927,185.665065 C119.867883,201.485221 115.403096,224.883742 113.424909,255.860628 C111.48444,280.787382 110.475984,320.897015 110.399543,376.189528 L0.469707837,391.456731 L55.4089931,121.614982" id="Path"></path>
                </g>
                <g id="Group" transform="translate(726.269592, 333.907596)" fill="#000000" fill-opacity="0.99607843">
                    <path d="M0.770487774,0.961637823 L0.770487774,0.962127447 C0.770487774,0.962839141 0.770487774,0.962675933 0.770487774,0.961637823" id="Path"></path>
                </g>
                <g id="Group" transform="translate(756.764890, 330.696946)" fill="#FF0000">
                    <path d="M19.2928502,8.55611727 L19.3071589,9.80900117 C19.0970463,12.3527242 18.0458332,14.4594029 16.1535197,16.1290372 C14.2471356,17.7986073 11.9072903,18.6038169 9.1339837,18.544666 C6.47693375,18.3622262 4.28282382,17.3717835 2.55165392,15.5733379 C1.99651645,14.9916537 1.52570115,14.3468402 1.13920803,13.6388972 L0.635024451,12.5396911 C0.345212121,11.7786707 0.16436163,10.9745394 0.0924729781,10.127297 C-0.0515932288,7.52102512 0.708694671,5.28053459 2.37333668,3.40582537 C4.03797868,1.53114826 6.22746082,0.449713064 8.94178307,0.161519773 C11.6667787,0.0046206604 14.0028629,0.715736818 15.9500359,2.29486825 C17.8972355,3.87399967 19.011507,5.96108268 19.2928502,8.55611727" id="Path"></path>
                </g>
                <g id="Group" transform="translate(759.974922, 334.710258)" fill="#C92121">
                    <path d="M10.8381893,2.6094397 L11.2532464,3.26072005 C11.9758245,4.65659293 12.133132,6.08275829 11.7251692,7.53921613 C11.3101335,8.99995484 10.3956705,10.1418279 8.98178006,10.9648352 C7.58625103,11.6875471 6.16039791,11.8448583 4.70422069,11.4367686 C3.24378483,11.0215887 2.10212648,10.1068987 1.27924564,8.69269832 C0.556608736,7.29682544 0.399263699,5.87066008 0.807210533,4.41420223 C1.22228899,2.95346352 2.13676807,1.81160924 3.55064777,0.988639389 C4.9462196,0.265889977 6.37209413,0.108562777 7.82827135,0.516657792 C8.29682357,0.650140564 8.74353689,0.842608327 9.16841129,1.09406108 L9.77976176,1.51406226 C10.1733116,1.82306056 10.5261208,2.18818637 10.8381893,2.6094397" id="Path"></path>
                </g>
                <g id="Group" transform="translate(445.391850, 281.734534)" fill="#2E373D">
                    <path d="M0.529045266,7.28151331 L3.08347586,68.3555002 C23.0957208,78.0609686 42.3217006,82.4998928 60.7614154,81.6722729 C67.5023636,81.5248506 74.6398442,80.1687255 82.1738573,77.6038978 C89.5564693,75.0055188 98.6339671,70.5465574 109.406351,64.2270137 L109.41619,0.222690681 L0.529045266,7.28151331" id="Path"></path>
                </g>
                <g id="Group" transform="translate(398.846395, 253.641347)" fill="#222B32">
                    <path d="M0.697563887,51.4656594 L0.697563887,51.4661008 C28.5769376,34.4579342 56.456314,17.4494652 84.335693,0.440693814 L192.764597,28.2085859 L111.846544,82.2472843 L0.697563887,51.4656594" id="Path"></path>
                </g>
                <g id="Group" transform="translate(268.840125, 292.169146)" fill="#FFBFAF" fill-opacity="0.99607843">
                    <path d="M51.0601429,47.0296327 L51.0601429,47.0305638 L39.6058403,33.618796 C42.3724464,29.5788887 44.2423368,26.4642585 45.2155113,24.2749056 C46.0863307,22.4983567 46.4095338,20.7514073 46.1851205,19.0340574 C45.838512,17.4937427 45.1525631,16.6938574 44.1272737,16.6344015 C43.8902686,16.5612094 43.4442133,16.7520852 42.789108,17.207029 L40.2141492,19.7589017 C39.472755,20.3541348 39.0243738,20.6426171 38.8690056,20.6243485 C37.9620862,21.0253694 36.937927,20.4258768 35.7965282,18.8258708 C34.7745933,17.1790214 34.4412636,15.3603915 34.7965392,13.3699812 C34.9745622,11.9426226 36.2388154,9.6756388 38.5892988,6.56902995 C38.2119788,3.02385702 36.9849513,0.984727747 34.9082162,0.45164213 C29.6335622,-0.882254503 22.4673598,1.80084821 13.409609,8.50095027 C8.80312844,12.228654 5.84503774,15.0832322 4.53533693,17.0646848 C2.40772869,20.1857148 1.34065301,22.0611999 1.33410989,22.6911402 C0.892261918,23.9422555 0.674350813,25.1731117 0.680254969,26.3837087 C0.690026466,27.5932461 0.892332539,28.7841913 1.2872948,29.956544 L1.99534345,31.703844 C2.55406385,32.8603843 3.24764596,34.003876 4.07608978,35.1343191 C6.71554876,38.5108152 9.87518127,41.8370486 13.5549873,45.1130192 L32.221107,70.4090399 L51.0601429,47.0296327" id="Path"></path>
                </g>
                <g id="Group" transform="translate(288.100313, 324.275646)" fill="#4397EA">
                    <path d="M207.382069,121.465903 L141.098798,111.636787 L24.879685,0.309265857 L0.451001379,25.0625262 C31.1228777,77.3380934 52.7847791,109.965484 65.4367057,122.944697 C75.9964034,134.024168 82.2915558,139.975295 84.3221628,140.798078 L113.53015,159.434135 C117.086543,161.802663 120.439191,164.506012 123.588093,167.54418 C131.030278,176.134135 135.17274,182.125708 136.01548,185.5189 C142.872942,201.333042 147.292711,224.728647 149.274788,255.705715 C151.212839,280.632313 152.251744,320.743872 152.391503,376.040394 L262.321242,391.307596 L207.382069,121.465903" id="Path"></path>
                </g>
                <g id="Group" transform="translate(418.909091, 511.296006)" fill="#000000">
                    <path d="M0.14236489,0.18059906 L102.598107,0.18059906 L205.053881,0.18059906 C205.053881,77.5351096 205.053881,154.888852 205.053881,232.243408 C136.750016,232.243408 68.446177,232.243408 0.14236489,232.243408 C0.14236489,154.889112 0.14236489,77.5348421 0.14236489,0.18059906" id="Path"></path>
                </g>
                <g id="Group" transform="translate(149.266458, 99.530149)" fill="#FFFFFF">
                    <path d="M84.1580579,0.776672279 C130.533264,0.776672279 168.124112,38.3742984 168.124112,84.7591282 C168.124112,131.143894 130.533902,168.746264 84.158082,168.746264 C37.7822375,168.746264 0.191939009,131.143316 0.191939009,84.759056 C0.191939009,38.374804 37.7828153,0.776672279 84.1580579,0.776672279 Z" id="Path"></path>
                </g>
                <g id="Group" transform="translate(227.912226, 136.452623)" fill="#000000">
                    <path d="M42.247375,42.5930683 L10.7602418,42.5936302 L10.7602297,5.84000372 C10.7602297,2.93750392 8.40941542,0.591024471 5.51227707,0.591024471 C2.61513871,0.591024471 0.264325216,2.93750392 0.264325216,5.84000372 L0.264325216,47.8311956 C0.264325216,50.7336954 2.61515075,53.0801507 5.51228991,53.0801507 L42.247375,53.0808089 C45.1492883,53.0801989 47.4953189,50.7337275 47.4953189,47.8312197 C47.4953189,44.9443236 45.1492883,42.5930683 42.247375,42.5930683 Z" id="Path"></path>
                </g>
                <g id="Group" transform="translate(149.266458, 99.530149)" fill="#C55339">
                    <path d="M84.1580579,0.776672279 C37.7828153,0.776672279 0.191939009,38.374186 0.191939009,84.759056 C0.191939009,131.143878 37.7822375,168.746264 84.158082,168.746264 C130.533902,168.746264 168.124112,131.143332 168.124112,84.7591282 C168.124112,38.3749084 130.533264,0.776672279 84.1580579,0.776672279 Z M84.158082,152.999896 C46.5414316,152.999896 15.9358234,122.388395 15.9358234,84.759056 C15.9358234,47.1350865 46.5414075,16.523594 84.1580579,16.523594 C121.774708,16.523594 152.380244,47.1351507 152.380244,84.7591042 C152.380244,122.388395 121.774732,152.999896 84.158082,152.999896 Z" id="Shape"></path>
                </g>
            </g>
        </g>
    </g>
</svg>