<?xml version="1.0" encoding="UTF-8"?>
<svg width="389px" height="348px" viewBox="0 0 389 348" version="1.1" xmlns="http://www.w3.org/2000/svg" xmlns:xlink="http://www.w3.org/1999/xlink">
    <!-- Generator: Sketch 64 (93537) - https://sketch.com -->
    <title>thank-3148710</title>
    <desc>Created with Sketch.</desc>
    <g id="covid" stroke="none" stroke-width="1" fill="none" fill-rule="evenodd">
        <g id="Desktop" transform="translate(-317.000000, -16322.000000)" fill="#FFEE58" fill-rule="nonzero">
            <g id="Group-10" transform="translate(-2.000000, 16176.000000)">
                <g id="thank-3148710" transform="translate(319.000000, 146.000000)">
                    <g id="g1554" transform="translate(0.500000, 0.000000)">
                        <g id="g1243" transform="translate(52.659402, 27.125186)">
                            <path d="M68.2190304,24.9862777 C67.9612861,30.0077186 66.7463387,34.9301199 65.7232041,39.8357189 C63.3895481,50.8543153 60.8223403,61.8211833 58.344592,72.8076964 C55.0308695,87.1092105 51.8875587,101.449027 49.0785577,115.859177 C47.5338199,124.588867 45.9660858,133.360064 45.4161693,142.223746 C45.344389,143.3831 45.3257793,144.545189 45.2804514,145.705918 C45.3362805,149.249386 45.2671588,147.576885 45.4552496,150.724356 C45.95492,159.611527 33.4367082,160.321072 32.9369049,151.433847 L32.9369049,151.433847 C32.7250202,147.511917 32.7968004,149.592054 32.7526689,145.192316 C32.8098272,143.857518 32.8364125,142.521092 32.9210866,141.187762 C33.5151348,131.860418 35.136837,122.627268 36.7744904,113.440789 C39.6084814,98.910047 42.7741239,84.4489966 46.1165585,70.0277035 C48.5792861,59.1075727 51.1309415,48.2069935 53.4518367,37.2552597 C54.3093449,33.144566 55.3275612,29.0239563 55.6822089,24.8318796 C55.7912086,15.9312153 68.3282959,16.0856534 68.2195621,24.9866514 L68.2190304,24.9862777 Z" id="path1216"></path>
                            <path d="M97.2607927,20.993281 C95.1936541,24.5575157 93.7895524,28.4475226 92.3745507,32.3035509 C88.4829971,43.1516408 85.7622594,54.3678626 83.2191113,65.596149 C80.2002195,79.1068951 78.0134472,92.7816084 76.0113096,106.474966 C74.6171774,116.165077 73.4835809,125.889633 72.1914033,135.593331 C71.8601507,138.20263 71.4787848,140.805804 71.0289618,143.39726 C70.9000232,144.137527 70.6639459,145.537213 70.4156394,146.279629 C70.2307387,146.83184 69.9765834,147.358187 69.7571219,147.897452 C65.9151499,147.614213 61.8585017,148.350103 58.2316045,147.047175 C57.1623445,146.663015 57.9143092,144.781825 57.9120494,143.641622 C57.9120494,142.985594 58.5393292,140.359399 58.6855482,139.794149 C59.1925296,137.832883 59.625205,136.523923 60.2337421,134.555758 C62.423306,127.847028 65.167173,121.318655 68.3762824,115.037326 C69.0951484,113.630727 69.8633301,112.250393 70.6069205,110.85686 C74.5827494,103.591302 79.5171107,96.9408676 84.7617223,90.5628883 C87.5127673,87.4921963 90.0940652,84.1715765 93.3013137,81.5478368 C93.7436928,81.1858174 94.2178413,80.8645829 94.6763045,80.5229293 C97.081342,79.3628017 98.5713142,78.2269235 101.758757,79.7116621 C103.359589,80.4574546 104.513125,82.0180109 105.4577,83.5147474 C106.642739,85.3922409 106.071953,89.1793379 105.83654,91.285032 C104.734979,98.1143811 103.387105,104.902171 102.136002,111.705376 C100.701061,120.045114 99.2405986,128.396557 98.4316085,136.826633 C98.2763505,138.436876 98.1710727,140.05171 98.0401402,141.664169 C97.6420256,148.377195 97.538343,155.216314 98.9235692,161.834945 C99.124421,162.794378 99.4068896,163.734686 99.6485498,164.684537 C100.212955,165.992736 100.565742,168.043459 102.052391,168.730183 C102.196616,168.795844 102.366097,168.777694 102.522818,168.802384 C110.002853,173.580863 103.271991,184.201607 95.7919558,179.423127 L95.7919558,179.423127 C94.8386076,178.737925 93.7923438,178.166909 92.9315124,177.367573 C90.1150676,174.752589 88.5785712,171.33405 87.4804661,167.720142 C87.1726086,166.449778 86.8143719,165.190731 86.5567605,163.90921 C85.0203971,156.262254 85.0574835,148.388206 85.5435954,140.638113 C85.6862255,138.902726 85.8025361,137.164911 85.9702892,135.431712 C86.8153024,126.70341 88.3147123,118.054275 89.8057479,109.419366 C91.0087319,102.87814 92.2897437,96.3499003 93.3866524,89.7898703 C93.4464693,89.3337227 93.5022984,88.8769211 93.5667677,88.4214407 C93.593353,88.2422594 93.5202435,87.7678013 93.6571577,87.8855383 C93.9396263,88.1283126 93.8617314,88.638938 94.1255904,88.9019712 C96.4932756,91.2628779 98.5948421,93.1356736 101.966786,90.7640369 C101.033111,91.3449148 100.258948,92.1711294 99.4947539,92.9517679 C97.7274973,94.7567801 96.060733,96.6575487 94.4256053,98.5828469 C89.7011348,104.313726 85.2458403,110.283803 81.6539028,116.810375 C77.9546937,123.71382 74.5784958,130.808712 72.2053606,138.295584 C71.6971829,139.931037 71.3142219,141.094074 70.8831416,142.707 C70.75952,143.165669 70.6598252,143.630038 70.5472365,144.091297 C70.5007123,144.275737 70.4781148,144.820888 70.4105882,144.644322 C70.1610853,144.010475 70.6430765,142.785219 69.9788432,142.646062 C66.2600939,141.867279 62.3878146,142.328431 58.5923668,142.169309 C58.4900135,142.478972 58.3949711,142.791252 58.2845093,143.098153 C58.2339972,143.242315 58.3855333,142.807841 58.4161064,142.65798 C58.5091549,142.213724 58.5845242,141.765263 58.6629507,141.317897 C59.090575,138.863276 59.4509385,136.397057 59.7634485,133.9251 C61.06307,124.167793 62.2019835,114.389345 63.6058193,104.646038 C65.656608,90.6291505 67.90014,76.6320683 70.9933375,62.8026501 C73.6615694,51.042385 76.5241397,39.2975877 80.6138865,27.9393795 C82.572956,22.6329648 84.4864317,17.1327017 87.9318842,12.5824092 C93.8557497,5.95961374 103.184392,14.3705656 97.2606598,20.993361 L97.2607927,20.993281 Z" id="path1218"></path>
                            <path d="M131.564846,85.0270719 C131.359341,85.2518426 131.471797,84.6459813 131.265495,85.2645212 C131.280117,86.4622574 132.546906,86.9725091 133.521257,87.3037796 C133.581073,87.3506235 133.751086,87.3865239 133.702302,87.446727 C133.527238,87.6614216 133.239054,87.7502916 133.019592,87.9189697 C132.673452,88.1851392 132.334755,88.4616251 132.006959,88.7502557 C130.361862,90.1981464 129.005879,91.7933752 127.643251,93.5058206 C124.70664,97.4811741 122.60308,102.001799 121.05688,106.687178 C120.685484,107.812553 120.370315,108.955878 120.026966,110.090248 C118.458966,115.879756 117.286422,121.809195 116.96474,127.811222 C116.915558,128.760872 116.915558,129.71227 116.89296,130.662842 C117.01924,132.369121 116.815863,134.295781 117.552807,135.91231 C117.590026,135.996922 117.797259,136.165867 117.77732,136.075382 C117.512796,134.877126 116.83753,134.758561 115.807084,133.955568 C118.758715,132.329924 113.557969,134.08876 113.797503,133.437483 C113.913149,133.122975 114.264207,132.95786 114.492442,132.71327 C114.93748,132.236584 115.387834,131.764688 115.81732,131.273748 C117.627246,129.204501 117.664731,129.067319 119.387191,126.792119 C123.804469,120.798274 127.393482,114.262947 130.7306,107.619746 C133.561666,101.915571 135.867009,95.9807408 137.535103,89.834312 C137.880844,87.856698 138.624434,85.6766409 138.476753,83.7049124 C139.232573,88.155071 138.650887,87.0823854 148.709694,87.8361587 C149.369009,87.8827357 150.390549,84.798551 150.167365,86.1455204 C150.112865,86.4828634 150.035768,86.8166429 149.983927,87.1546265 C149.913476,87.6170066 149.861634,88.0822294 149.803014,88.546131 C149.16284,94.2596473 148.619171,99.9837736 148.047322,105.704457 C147.38495,112.638771 146.695726,119.576422 146.957325,126.547971 C147.515217,124.285877 146.844338,129.738949 147.522794,129.161888 C147.747307,128.970522 147.509502,128.535821 147.345869,128.29266 C146.937918,127.701132 146.35025,127.257556 145.852308,126.740031 C153.916953,130.437951 148.708232,141.888619 140.643454,138.190726 L140.643454,138.190726 C139.515839,137.384436 138.213825,136.779629 137.260477,135.771671 C135.040871,133.424871 134.742452,129.995536 134.426751,126.985714 C134.390861,125.902245 134.329715,124.819337 134.321739,123.735387 C134.273886,117.284126 135.033427,110.864601 135.571912,104.446704 C136.159181,98.5752799 136.713351,92.6999051 137.379977,86.8370621 C137.572056,85.4707278 138.479811,78.5806284 140.292528,78.5054113 C150.526665,78.0807198 149.981002,78.1242272 150.985128,82.8460138 C151.140785,86.3423716 150.451961,89.787041 149.624095,93.1702927 C147.709157,100.116458 145.143013,106.846954 141.921674,113.294639 C138.228048,120.6277 134.245573,127.83479 129.345905,134.439369 C127.234236,137.197568 125.129612,140.043489 122.530103,142.374087 C120.909199,143.827463 118.762969,145.461889 116.576861,145.941125 C115.216359,146.239338 113.793515,146.027739 112.401776,146.070846 C111.153995,145.455016 109.769833,145.062181 108.658568,144.223288 C107.768094,143.551151 107.124065,142.582803 106.528688,141.63749 C104.526683,138.458937 104.45158,133.921029 104.359063,130.305346 C104.393624,129.133875 104.398941,127.961002 104.466733,126.790945 C104.866975,119.884163 106.205544,113.058778 108.038466,106.400643 C108.452,105.056449 108.830043,103.700778 109.278802,102.368009 C111.298353,96.3703995 114.083428,90.623732 117.908385,85.5710752 C118.621402,84.6995115 119.30172,83.8001083 120.047304,82.9564107 C122.517342,80.1607498 125.724458,77.1336319 129.217498,75.6907859 C130.145989,75.3071329 131.136158,75.0947738 132.095355,74.7968145 C133.035145,74.7622487 133.980119,74.5867375 134.914325,74.6928504 C138.232966,75.0698438 141.018439,77.0997601 142.557461,80.0347917 C142.872231,80.6352746 143.085312,81.2841496 143.349171,81.9087752 C143.487414,82.5061753 143.672448,83.0945535 143.7643,83.7008953 C144.160421,86.3207781 143.634032,88.9551544 142.437694,91.2944408 C138.023474,99.0141046 127.149828,92.7465755 131.563915,85.0269251 L131.564846,85.0270719 Z" id="path1220"></path>
                            <path d="M173.531176,78.4774784 C172.945635,82.1455705 172.551907,85.8421694 172.178915,89.53706 C171.49049,97.3177009 170.682563,105.085743 169.634438,112.82612 C168.874099,118.382929 167.908389,123.908509 166.992659,129.440936 C166.862391,130.091586 166.200816,135.552532 165.297182,135.417232 C153.286483,133.618466 153.651366,134.82876 154.02489,129.667428 C154.651505,123.349919 155.978509,117.134185 157.40667,110.959049 C159.098691,104.039042 161.276291,97.2253076 164.17515,90.7146573 C164.7252,89.4790856 165.328819,88.2681504 165.905586,87.0448302 C168.135294,82.6288236 170.585792,78.3200642 173.411675,74.2586433 C175.106088,71.82312 175.494898,71.4151108 177.315591,69.1453029 C179.931051,66.3301304 182.629723,63.1497889 186.033304,61.2434283 C186.667363,60.8883088 187.346749,60.6212451 188.003406,60.3101401 C188.952102,60.1336946 189.886176,59.727287 190.849493,59.7805903 C193.932456,59.951337 195.676184,60.8685702 197.5329,63.3779895 C199.298163,65.7635459 199.261342,69.0709132 199.386027,71.8647591 C199.237947,79.3527389 198.17746,86.791873 197.187159,94.2049294 C196.090649,102.254155 194.98284,110.302928 194.087049,118.377524 C193.678832,122.754548 192.999844,127.181551 193.579536,131.573122 C193.623402,131.661738 193.726021,131.933459 193.709804,131.836595 C193.105919,128.074815 189.521691,128.182476 186.651943,128.34264 C186.204247,128.367997 185.852258,128.750128 185.452282,128.953853 C191.819989,122.760273 200.544082,131.801643 194.176375,137.995249 L194.176375,137.995249 C193.340135,138.623505 192.678959,139.618557 191.667389,139.879949 C189.830479,140.354714 187.80601,140.634603 185.981861,140.113088 C183.62029,139.437895 182.312693,137.096246 181.580269,135.02437 C181.355091,134.387226 181.278127,133.706708 181.127123,133.047918 C180.534803,127.638193 180.989411,122.372523 181.624932,116.981856 C182.53375,108.814506 183.647407,100.672219 184.759204,92.5305196 C185.657122,85.8173728 186.606748,79.0858754 186.854922,72.3106838 C186.841629,71.7773438 186.825678,71.2441372 186.824349,70.7107705 C186.824349,70.5176695 186.660716,70.0991572 186.850934,70.1316142 C187.140315,70.1817946 187.18418,70.6285067 187.414276,70.8117185 C189.244274,72.268591 190.557853,72.9233782 192.836876,71.9254693 C192.818266,71.5623689 192.863461,71.7382004 192.146988,72.2343322 C191.810285,72.469526 191.483419,72.7195871 191.168118,72.9828072 C189.685723,74.2200871 188.33838,75.6146345 187.063217,77.0628722 C183.217656,81.808628 179.930253,86.9569211 177.229986,92.4479489 C176.726993,93.5059808 176.200737,94.5531758 175.721271,95.6221513 C173.099165,101.466657 171.146343,107.593014 169.618886,113.810416 C168.329367,119.367826 167.123059,124.958614 166.525422,130.641181 C166.101254,135.59321 166.926594,129.118274 155.048689,128.164793 C154.220026,128.098197 154.441082,129.720211 154.082713,130.473371 C154.012262,130.622884 154.153164,130.149507 154.182407,129.986568 C154.310017,129.284603 154.519775,128.007472 154.624521,127.377228 C155.520179,121.966449 156.465684,116.562463 157.211269,111.128088 C158.243176,103.529551 159.026113,95.902294 159.7055,88.2641733 C160.127541,84.1019913 160.557824,79.9319086 161.278418,75.8092169 C163.157599,67.1101283 175.411021,69.7784565 173.531708,78.4775184 L173.531176,78.4774784 Z" id="path1222"></path>
                            <path d="M228.266151,29.9305395 C227.497305,34.7002377 226.554591,39.4428305 225.72606,44.2036271 C224.170157,53.6444377 223.021805,63.1469862 221.799015,72.6355083 C220.482246,82.6522989 219.01527,92.6487505 217.472527,102.632764 C216.515988,109.052569 215.467863,115.45732 214.370024,121.854117 C214.274317,122.410131 214.178876,122.966506 214.080909,123.522294 C214.0078,123.945237 213.931766,124.368154 213.854004,124.790376 C213.798175,125.090938 213.73437,125.390045 213.677876,125.69046 C213.677876,125.730364 213.699145,125.820715 213.677876,125.810172 C201.317049,122.21308 200.478682,126.179131 202.083104,121.084515 C203.813141,115.891006 206.208874,110.963787 208.693933,106.101763 C212.785143,98.0981792 217.436238,90.4167647 222.350394,82.9015459 C225.982874,77.4508626 230.113961,72.3682044 234.0975,67.1793932 C234.90197,66.1293555 235.696472,65.0700157 236.443784,63.9779252 C236.566076,63.8001185 236.684381,63.6202566 236.797767,63.4369381 C236.832328,63.3796844 236.922718,63.2008367 236.889486,63.2584641 C236.808401,63.3977013 236.733165,63.5407954 236.655004,63.6819544 C235.559425,69.5324926 235.215145,66.8621892 245.489692,71.4953728 C245.814431,71.6417633 246.052768,71.0561477 246.353182,70.8643278 C246.398377,70.836435 246.297353,70.9541454 246.26678,70.998934 C246.000528,71.4043007 245.730953,71.8074653 245.463107,72.211751 C243.204953,75.5981791 241.198429,79.1377908 239.272458,82.7220443 C237.832865,85.4210146 236.555841,88.2244027 235.798825,91.200753 C235.367213,92.8978774 235.361497,93.3813439 235.148815,95.10165 C234.993291,98.2165702 235.662442,101.270193 236.966982,104.093493 C237.270054,104.749802 237.626031,105.380286 237.955556,106.023676 C240.31819,110.028324 243.418699,113.584471 246.976208,116.566827 C247.843686,117.294002 248.764866,117.95382 249.659195,118.647337 C255.021978,122.341867 261.198802,124.819443 267.704886,125.443869 C269.142751,125.581064 270.591914,125.547299 272.035362,125.600963 C278.043902,125.115254 275.060103,125.490993 280.986893,124.475775 C289.735178,123.03066 291.770813,135.452038 283.022528,136.897126 L283.022528,136.897126 C275.462471,138.109663 279.317337,137.672533 271.454474,138.175858 C269.51521,138.070293 267.566642,138.0783 265.636816,137.86075 C257.06386,136.890093 248.961597,133.536362 241.940424,128.568425 C240.799517,127.665752 239.624846,126.804651 238.517968,125.860393 C233.815164,121.848485 229.774733,117.049559 226.740289,111.652887 C226.259494,110.668631 225.734036,109.705101 225.298037,108.700092 C223.204048,103.874675 222.285526,98.6656713 222.723784,93.4154426 C222.864288,92.4309997 222.962653,91.4398305 223.143034,90.4620738 C224.033508,85.6248857 225.928773,81.0566163 228.239832,76.741878 C230.356419,72.8098317 232.563263,68.9274987 235.04274,65.2118153 C235.417858,64.6516101 238.146837,60.6187761 238.826756,60.8322562 C249.858451,64.2957966 249.223063,62.5573268 248.220931,68.5426313 C247.133726,70.8456703 245.569049,72.8521514 244.027369,74.8667601 C240.235377,79.8033881 236.302084,84.6380539 232.830179,89.8139062 C228.156354,96.9532526 223.734956,104.251601 219.845928,111.857051 C217.676569,116.087698 215.574337,120.369231 214.03824,124.880781 C212.441262,129.951615 213.905313,126.574822 201.304288,123.78083 C201.132415,123.743595 201.361447,123.432303 201.393349,123.25874 C201.797445,121.07863 201.165247,124.666247 201.745205,121.366166 C201.842242,120.816931 201.935689,120.267283 202.030864,119.717767 C203.117006,113.390195 204.153699,107.054629 205.09947,100.704116 C206.626529,90.8250141 208.077687,80.9334475 209.381296,71.0219289 C210.62788,61.3485803 211.799892,51.661125 213.392085,42.0373295 C214.171033,37.5662446 215.020433,33.1067172 215.811079,28.6387285 C216.722024,19.7844944 229.193977,21.077907 228.283033,29.9320743 L228.266151,29.9305395 Z" id="path1224"></path>
                            <path d="M150.72765,183.340346 C150.758223,183.332339 150.83532,183.296972 150.823357,183.325666 C150.766199,183.47231 150.653078,183.590394 150.576513,183.727843 C150.207908,184.390651 149.859773,185.108123 149.581824,185.807953 C149.027122,187.205183 148.677127,188.448482 148.224912,189.901711 C146.91758,194.890748 145.974467,199.995827 145.718185,205.156172 C145.667673,206.16106 145.679637,207.168271 145.658368,208.174254 C145.844067,211.497543 145.887932,216.04897 147.673533,218.999136 C147.816296,219.235064 148.038549,219.412083 148.221057,219.618503 C149.367281,219.971861 147.669412,218.707836 147.698257,218.616724 C147.758074,218.424344 147.978466,218.327012 148.12628,218.190177 C148.437727,217.901907 148.75901,217.624687 149.075375,217.341969 C151.887034,214.615973 153.869499,211.180446 155.165398,207.494684 C155.492796,206.563518 155.745622,205.607501 156.035933,204.663937 C157.228283,199.609572 157.710673,194.357488 157.009752,189.190818 C156.888789,188.298901 156.686874,187.419877 156.525501,186.534394 C155.555803,182.561736 153.873752,179.833805 150.94113,177.074272 C150.534907,176.704565 147.664095,174.742205 147.138105,175.476561 C147.188617,175.614116 147.162032,175.623098 147.384285,175.615664 C148.078958,175.592843 148.37791,174.996737 148.706903,174.469643 C149.185438,173.16526 149.013697,171.784793 148.147415,170.676407 C147.720589,170.130309 147.554564,170.390192 147.807788,170.108061 C151.399194,170.227773 154.909781,169.353567 158.384477,168.559903 C163.729315,167.238985 169.055676,165.853392 174.490107,164.953842 C178.363848,164.426441 182.691799,164.275033 185.897984,166.969212 C186.676534,167.623398 187.242801,168.49647 187.915143,169.260146 C188.301294,170.083091 188.767866,170.872591 189.073198,171.728954 C190.396347,175.438859 189.869294,179.827186 189.523951,183.659392 C188.825955,189.489818 187.82462,195.276977 187.090201,201.103105 C186.361632,206.171604 186.133131,211.275895 186.437932,216.383484 C186.580163,217.543171 186.611268,218.217403 186.911282,219.304249 C186.977746,219.549225 187.064148,219.792119 187.182851,220.01673 C187.205449,220.058769 187.330267,220.111085 187.314448,220.067044 C186.953154,219.043297 186.59957,219.03214 185.644095,218.222328 C186.00818,217.034494 182.1908,217.997664 182.250085,217.716093 C182.281987,217.564551 182.414249,217.453393 182.505835,217.328823 C182.743641,217.005827 183.003379,216.699553 183.237595,216.374115 C183.575494,215.904568 183.89372,215.421048 184.221915,214.944548 C187.589074,209.649411 190.114144,203.872942 192.677098,198.158438 C195.370586,192.121125 197.856576,185.994741 200.204189,179.814681 C201.367561,176.804913 202.266676,173.704553 203.284759,170.645245 C205.489476,164.83377 207.032752,167.846608 215.7716,172.379364 C215.896551,172.444892 215.170507,176.471347 215.12704,176.716897 C214.248662,181.60193 213.625237,186.525118 213.169699,191.466378 C212.79684,196.235849 212.56289,201.084354 213.38916,205.824158 C213.51544,206.547009 213.710975,207.255953 213.871683,207.971784 C214.392622,209.413856 214.853345,211.398303 216.370832,212.178421 C216.595212,212.292795 216.901741,212.217391 217.128912,212.186429 C220.461643,211.556452 223.593522,210.160703 226.742947,208.945351 C232.421564,206.757566 238.245867,204.903561 244.203097,203.644701 C245.489692,203.372793 246.787851,203.158552 248.080029,202.915498 C254.146392,201.960602 260.306201,201.44297 266.445674,201.841437 C267.545906,201.912838 268.641219,202.047164 269.739058,202.14958 C274.397863,202.789606 279.119409,203.842086 283.248768,206.199656 C283.9788,206.616407 284.657921,207.11693 285.362697,207.57552 C285.944117,208.067968 286.525404,208.56047 287.106957,209.052878 C293.748094,214.949886 285.441788,224.379593 278.800519,218.482598 L278.800519,218.482598 C278.64978,218.324957 278.499175,218.167343 278.348303,218.009715 C275.52056,215.892583 271.957201,215.191927 268.536207,214.67994 C267.674578,214.595327 266.815342,214.48054 265.951719,214.42055 C260.743795,214.055461 255.518192,214.505296 250.368623,215.292861 C249.262277,215.496852 248.150746,215.67506 247.049451,215.904848 C241.653436,217.030797 236.380777,218.713722 231.240911,220.69614 C226.505408,222.523467 221.525985,224.873963 216.320852,224.608848 C215.249997,224.552929 214.200676,224.283984 213.140588,224.121418 C210.439922,223.05383 209.827264,223.068778 207.57908,221.154303 C204.397885,218.445483 202.696161,214.557866 201.613209,210.61633 C201.392552,209.549437 201.127895,208.490818 200.951502,207.41569 C200.022878,201.759027 200.223995,195.98831 200.685383,190.299884 C201.178673,185.008897 201.841178,179.736007 202.784025,174.504996 C202.929314,173.692782 203.006544,172.867007 203.200484,172.065109 C203.213776,171.99184 203.163264,172.260959 203.233715,172.284194 C206.96815,173.534794 210.623227,175.14892 214.498032,175.848056 C214.642523,175.87368 215.555994,173.771602 215.1729,174.64709 C214.093271,177.866801 213.155741,181.135893 211.919127,184.301954 C209.482985,190.712551 206.903548,197.067562 204.108903,203.32998 C201.217753,209.770244 198.348404,216.271846 194.473732,222.192503 C192.027221,225.638827 188.869289,229.971956 184.19533,230.246827 C182.992479,230.317427 181.807839,229.918186 180.61416,229.754018 C179.703082,229.177825 178.694702,228.733355 177.88106,228.025438 C174.916801,225.446473 174.307865,220.764084 173.920118,217.109551 C173.593385,211.230933 173.812448,205.353543 174.651081,199.519527 C175.370877,193.838855 176.323162,188.192535 177.037376,182.511689 C177.194761,180.80561 177.35055,179.122672 177.360653,177.409066 C177.360653,177.14355 177.34736,176.877874 177.360653,176.612305 C177.34736,176.500868 177.27558,176.298144 177.38325,176.277365 C177.518038,176.252541 177.590084,176.458494 177.693501,176.549059 C177.964537,176.745323 178.210318,176.982786 178.506744,177.137665 C178.758507,177.268721 179.038716,177.34642 179.317728,177.398055 C179.400143,177.404728 179.606976,177.391382 179.552875,177.330792 C179.171243,176.900282 176.84995,177.416339 176.506202,177.379238 C171.32061,178.212993 166.258506,179.615534 161.155328,180.838 C155.897424,182.02861 150.531849,183.234567 145.120415,182.404108 C142.87808,181.79084 142.066165,181.78338 140.116268,180.342709 C137.924045,178.722937 136.550517,176.149698 136.433541,173.419552 C136.394993,172.550404 136.616581,171.689317 136.708034,170.824292 C137.002732,170.075217 137.212224,169.286451 137.591995,168.577079 C139.000749,165.946173 141.627641,164.069533 144.460701,163.284704 C145.182359,163.08473 145.935653,163.026475 146.673129,162.897261 C147.470421,162.903934 148.271037,162.842276 149.065006,162.915945 C153.114211,163.288388 156.671986,165.458662 159.689814,168.055951 C160.325734,168.690759 160.993424,169.294925 161.597308,169.960403 C165.297581,174.037425 167.687731,179.008885 168.880081,184.37605 C169.087845,185.618335 169.349311,186.852786 169.502974,188.103024 C170.341208,194.92151 169.681627,201.836486 167.989075,208.47204 C167.57594,209.753735 167.21757,211.054461 166.749802,212.317098 C164.620454,218.066128 161.297559,223.293762 156.686741,227.348256 C154.477238,228.946915 153.328488,230.057396 150.640849,230.855197 C146.798345,231.9958 143.254527,231.407155 140.061502,228.961542 C139.216489,228.314295 138.577511,227.43343 137.835649,226.669393 C137.280017,225.779546 136.649281,224.932712 136.168752,223.999971 C133.630256,219.072565 133.310568,213.308401 133.125535,207.886491 C133.158766,206.638948 133.153449,205.389884 133.221242,204.143716 C133.550766,198.040354 134.674659,191.999424 136.270175,186.109249 C137.708306,181.582859 139.229117,176.876847 142.820522,173.571935 C149.700528,167.957752 157.608586,177.726563 150.728448,183.34076 L150.72765,183.340346 Z" id="path1226"></path>
                            <path d="M74.4095463,166.661683 C73.5314344,170.976168 72.9006986,175.334934 72.289503,179.693781 C71.0078265,188.414917 70.9609035,197.227859 71.2054881,206.017753 C71.592171,213.874839 72.1265352,221.818179 74.1498081,229.45367 C74.4742815,230.678312 74.8935314,231.875607 75.2653265,233.086636 C76.2681234,235.71466 77.3516066,238.419836 79.2625566,240.542065 C79.8659096,241.212294 80.5762684,241.83792 81.4983789,241.975423 C81.7254172,242.009187 81.9527213,241.909094 82.1800255,241.876663 C86.5909226,239.33113 89.5549157,235.488675 92.6345548,231.524758 C98.3908001,223.422656 102.713434,214.447269 106.597278,205.327279 C109.393518,198.641945 111.334908,191.658398 112.948369,184.605479 C113.781818,181.17868 114.186446,177.658446 115.09513,174.250705 C116.907183,169.5097 115.800039,171.228044 127.378727,174.036451 C128.024218,174.193478 127.698814,175.332239 127.809675,175.989788 C128.145978,177.985966 128.202605,180.071321 128.338323,182.085943 C128.772062,189.528948 128.619861,196.989115 128.517109,204.439246 C128.348292,214.596889 127.949114,224.74906 127.653353,234.903499 C127.409699,244.341254 127.237028,253.780676 126.908434,263.216042 C126.639125,269.516535 126.136264,275.838128 124.721794,281.99773 C124.467107,283.106489 124.150875,284.200074 123.865482,285.30128 C122.659308,289.296866 121.038536,293.222012 118.509611,296.57226 C116.913564,298.686589 116.419875,298.967986 114.481276,300.719641 C113.724393,301.239035 113.008319,301.824103 112.210627,302.277915 C108.880289,304.172625 104.912967,305.020126 101.133338,304.162963 C100.153271,303.940661 99.2306292,303.513954 98.2791419,303.189423 C97.3889337,302.628164 96.4300026,302.164062 95.6086503,301.505525 C92.9987732,299.413377 91.3387881,296.43712 90.5610357,293.207972 C89.8528038,290.267709 90.0766519,289.139919 90.1424505,286.125986 C90.9382809,279.626413 93.6196724,273.566772 97.2498927,268.167791 C98.0196696,267.023091 98.876912,265.940329 99.6904216,264.826565 C103.840384,259.593993 108.728354,254.953816 114.299832,251.268908 C115.321504,250.593168 116.390631,249.992498 117.436097,249.354207 C121.095163,247.328948 125.010776,245.78474 129.138806,245.06963 C131.213787,244.7102 131.826445,244.745233 133.86753,244.65671 C135.828194,244.640027 137.767591,244.910774 139.68984,245.266615 C148.402368,246.914573 146.081074,259.285317 137.368546,257.637345 L137.368546,257.637345 C136.351925,257.437785 135.326397,257.277782 134.289305,257.237731 C130.515525,257.298054 127.224533,258.319118 123.901904,260.139384 C123.110992,260.610853 122.301071,261.051359 121.5293,261.553737 C117.050478,264.469297 113.117318,268.155579 109.767041,272.317441 C109.136704,273.161286 108.474465,273.982002 107.876163,274.849148 C105.419683,278.409833 103.464468,282.399173 102.668638,286.676142 C102.518165,288.300532 102.441732,289.915633 102.904848,291.488814 C103.760628,292.556121 105.373292,291.783464 106.274134,291.202626 C106.588239,290.953779 106.922682,290.728942 107.216316,290.456046 C109.58759,288.252527 110.756147,285.098637 111.740732,282.094514 C111.972423,281.224271 112.230566,280.360715 112.436071,279.483906 C113.718943,274.00836 114.130882,268.378522 114.377992,262.774628 C114.706985,253.363672 114.876068,243.948472 115.120652,234.535101 C115.41442,224.445121 115.811338,214.357424 115.980155,204.264282 C116.07852,197.153522 116.230854,190.033074 115.828353,182.928507 C115.780499,182.214557 115.740621,181.500168 115.686387,180.786619 C115.621253,179.910651 115.428909,179.038914 115.459482,178.16093 C115.459482,178.112485 115.520628,178.257554 115.567152,178.258222 C127.174286,178.290118 125.859644,181.837324 127.183591,177.592958 C126.911092,178.523097 126.757961,179.463979 126.579308,180.417713 C126.140252,182.76099 125.683384,185.101157 125.167496,187.428859 C123.380035,195.20974 121.218386,202.910146 118.123593,210.282711 C113.797503,220.409084 108.958051,230.363483 102.486529,239.311165 C101.382176,240.709022 100.332988,242.152682 99.1733379,243.504736 C95.1524469,248.193172 90.043952,253.062043 83.6787708,254.07606 C82.213523,254.309359 80.7117204,254.099148 79.2281287,254.110759 C77.8916866,253.697372 76.4882495,253.459135 75.2184035,252.870637 C70.2611789,250.573243 67.0430305,245.660424 64.8740702,240.842747 C64.2716477,239.504613 63.8036138,238.109625 63.2681862,236.743037 C62.818895,235.23852 62.3153697,233.749377 61.9207112,232.229446 C59.7298181,223.79247 59.0775482,215.039664 58.6723885,206.363116 C58.4173027,196.870457 58.4896147,187.354002 59.8744421,177.936854 C60.5136852,173.386788 61.1741965,168.837123 62.0880656,164.33286 C63.7283775,155.585166 76.0499911,157.913989 74.4099451,166.66163 L74.4095463,166.661683 Z" id="path1228"></path>
                            <path d="M140.894552,265.587906 C143.777726,264.533811 146.60959,263.33861 149.463653,262.207203 C155.736849,259.753089 162.075046,257.469001 168.416832,255.200648 C176.405709,252.381405 184.500795,249.857132 192.73665,247.868454 C194.556279,247.429082 196.387473,247.039503 198.212819,246.624968 C208.517673,244.381879 218.972867,242.961841 229.431384,241.677263 C238.231644,240.596957 239.753386,253.092311 230.952993,254.172551 L230.952993,254.172551 C220.910535,255.404612 210.870205,256.759629 200.973567,258.904333 C191.373223,261.075529 181.879486,263.676594 172.624352,267.059045 C166.415226,269.279366 160.209424,271.515583 154.067027,273.91642 C151.009587,275.127676 147.978466,276.413201 144.88261,277.522454 C136.477141,280.353762 132.489216,268.41912 140.894552,265.587839 L140.894552,265.587906 Z" id="path1230"></path>
                            <path d="M82.719308,23.0271877 C82.9819705,21.4371104 83.4062717,19.8886053 83.9460858,18.3725841 C84.6548494,16.4512362 85.7985483,14.7599039 87.022003,13.1383971 C88.5042654,11.2580877 90.1455078,9.51206412 91.7646844,7.75158702 C93.3762842,5.93106697 95.3031854,4.48509806 97.374046,3.24042453 C99.9334111,1.75364402 102.776308,1.06220914 105.681548,0.692889576 C108.71134,0.492461677 111.755886,1.04253737 114.40378,2.58819974 C114.973237,2.92053797 115.498163,3.32432985 116.045288,3.69239491 C118.645462,5.76613902 120.498456,8.54578491 121.614506,11.6750385 C121.859224,12.3612952 122.037611,13.069666 122.24923,13.7669864 C123.258141,17.6224008 123.483983,21.6312524 123.135184,25.5947548 C123.058087,26.4743661 122.924363,27.3478516 122.818421,28.2243934 C122.138635,32.5400926 120.804719,36.7445409 118.691056,40.5744114 C118.262368,41.3511262 117.773465,42.0927148 117.314603,42.8518932 C115.341576,45.8272425 112.895065,48.4349672 110.073569,50.6126221 C108.386866,51.9143891 107.475257,52.4307265 105.686333,53.5584237 C100.779488,56.4941493 95.3522353,58.289072 89.8781927,59.8065613 C83.983704,61.33055 77.9269121,62.0099603 71.8935152,62.6992465 C66.0256117,63.3229245 60.2200507,64.3810098 54.4675274,65.6825767 C48.7483685,67.0548098 43.2150408,69.0602499 37.8110505,71.3665854 C33.6601575,73.2003445 29.7438796,75.5144473 26.0232693,78.107278 C23.4992626,79.7664735 21.6856147,82.1234164 19.92208,84.5276971 C18.0821126,87.1321387 16.5995843,89.9560261 15.2822836,92.8545034 C14.1025617,95.4490424 13.6040877,98.2438892 13.3218849,101.059996 C13.1400416,103.477929 13.2607388,105.9424 14.0032657,108.261147 C14.3923413,109.158228 14.1844444,108.728278 14.622304,109.553252 C18.5373856,117.539739 7.28782341,123.09855 3.37274182,115.11201 L3.37274182,115.11201 C2.35146821,112.959765 2.83066792,114.08474 1.95056215,111.730493 C1.77576392,111.085862 1.5753109,110.44781 1.42643332,109.79676 C0.673006419,106.502939 0.593649351,103.079836 0.854450969,99.724584 C1.31424342,95.5614411 2.12017625,91.4413252 3.88291339,87.6122955 C5.56961662,83.9265602 7.47777525,80.3409854 9.84213732,77.0410785 C12.4349999,73.5346312 15.2316386,70.1899089 18.8956222,67.7507956 C23.3283193,64.6865629 27.9776863,61.9333018 32.9210866,59.7751185 C39.0220101,57.1887872 45.2622405,54.9269067 51.7186092,53.400489 C57.9121824,52.006729 64.1601225,50.8628834 70.4761209,50.1915607 C75.8682807,49.5757567 81.2848991,48.9948121 86.5606154,47.6667937 C90.8716847,46.4881421 95.1642773,45.1285475 99.0560968,42.8740072 C101.952696,41.0808728 104.73684,39.1361697 106.647923,36.2354103 C108.510355,33.2957077 109.864742,30.1163671 110.379167,26.6459136 C110.796689,23.5234263 110.998604,20.3503182 110.204768,17.2645587 C109.904221,16.0764715 109.554758,14.8535917 108.728753,13.9150852 C108.380486,13.4017106 107.73021,13.2462849 107.151315,13.1944363 C105.968935,13.3130809 104.801442,13.5197012 103.73843,14.0864325 C102.699876,14.6788412 101.762479,15.3774162 100.975554,16.2923539 C99.6141219,17.7721545 98.2318201,19.2376217 96.9679558,20.8034764 C96.5109548,21.3846879 96.0653855,21.9759622 95.7406462,22.6436682 C95.3951705,23.5904891 95.1585615,24.561733 95.0010437,25.5600956 C93.2171713,34.2793632 80.9353026,31.7464419 82.719308,23.0271343 L82.719308,23.0271877 Z" id="path1232"></path>
                        </g>
                        <path d="M50.8163641,211.068986 C44.6172717,212.841778 38.2795598,214.041296 31.9636793,215.30491 C25.9125326,216.652199 19.8480326,218.001871 13.9109185,219.80137 C13.0448641,220.013537 12.2220489,220.351982 11.388212,220.659421 C5.28471196,222.909258 2.11553804,214.243333 8.21903804,211.993496 L8.21903804,211.993496 C9.22540761,211.622534 10.2269022,211.234484 11.2654891,210.960115 C17.486625,209.09139 23.8258207,207.643423 30.166712,206.251403 C36.3598696,205.01241 42.5744348,203.837898 48.6525,202.096686 C54.9715598,200.560575 57.1354239,209.532875 50.8163641,211.068986 Z" id="path1462"></path>
                        <path d="M80.6223261,229.101795 C76.6123207,232.148884 72.5578043,235.124811 68.6376685,238.291901 C61.6399239,243.939487 54.4234402,249.33573 46.8612554,254.203343 C45.3491576,255.176628 43.8003913,256.091071 42.2698533,257.034925 C37.9985054,259.536872 33.6743804,261.943929 29.3879837,264.419361 C23.7516359,267.673573 19.1680761,259.67096 24.804212,256.416748 L24.804212,256.416748 C29.015788,253.985537 33.2612772,251.616147 37.4622554,249.165975 C38.8948696,248.284942 40.3450761,247.432615 41.7598859,246.522917 C49.0946413,241.806587 56.0921739,236.574587 62.8762663,231.09733 C66.7711793,227.955883 70.7807609,224.978488 74.7784728,221.974704 C79.7980272,217.825903 85.6418804,224.953079 80.6223261,229.101795 Z" id="path1464"></path>
                        <path d="M84.6893478,273.477634 C83.48925,276.666303 81.7921141,279.586815 79.9979022,282.468704 C77.2185163,286.741166 74.3528641,290.947212 71.6374891,295.261874 C70.8184891,296.603481 69.995462,297.941555 69.2065598,299.301144 C65.9286522,304.938558 57.988125,300.284537 61.2656087,294.647123 L61.2656087,294.647123 C62.1113152,293.195538 62.9856359,291.762404 63.8644076,290.330866 C66.573212,286.02644 69.4259348,281.826097 72.2055326,277.56834 C73.169087,276.027462 74.1707935,274.501715 74.9471902,272.852946 C75.2659728,272.176035 75.7341848,270.965026 76.0300761,270.285433 C76.1678478,269.969908 76.3202446,269.661255 76.4652228,269.349177 C79.3730543,263.51062 87.5969674,267.639077 84.6893478,273.477634 L84.6893478,273.477634 Z" id="path1466"></path>
                        <path d="M313.603027,44.5005857 C315.59012,41.8751693 317.815027,39.440639 319.912337,36.9052178 C320.852364,35.76901 322.649967,33.4688021 323.572614,32.2952257 C325.448641,29.8055363 324.553337,31.0051813 326.260859,28.6982062 C330.139451,23.459248 337.518929,28.966319 333.640337,34.2052985 L333.640337,34.2052985 C331.846761,36.6277202 332.796114,35.3565303 330.788886,38.0162082 C327.552946,42.1300245 324.148288,46.0989631 320.861054,50.1681967 C316.869277,55.3208838 309.61125,49.6532515 313.603027,44.5005857 Z" id="path1468"></path>
                        <path d="M327.490207,85.461226 C334.171924,80.9007324 341.310408,77.0717342 348.548087,73.4908452 C355.98988,70.1368063 363.605478,67.1965451 371.12506,64.0260078 C372.625712,63.3411379 374.167696,62.7478379 375.618114,61.9578636 C381.360652,58.8966654 385.672696,67.0502205 379.930158,70.1113761 L379.930158,70.1113761 C378.222848,71.0100085 376.454495,71.770637 374.685082,72.5374794 C367.333793,75.6369612 359.89306,78.5203396 352.607478,81.7740836 C345.875739,85.0939887 339.249342,88.6571935 333.007011,92.8464491 C327.805598,96.7631016 322.288793,89.3778573 327.490207,85.461226 L327.490207,85.461226 Z" id="path1470"></path>
                        <path d="M349.835087,121.035285 C355.762239,120.579692 361.659717,119.781609 367.565038,119.099357 C368.529016,118.983378 369.492995,118.867549 370.457185,118.751612 C376.912745,117.975598 378.005804,127.141679 371.550245,127.917714 L371.550245,127.917714 C370.572277,128.035396 369.59431,128.1528 368.61613,128.270353 C362.558413,128.970226 356.508326,129.788163 350.42687,130.247694 C343.93888,130.667792 343.347098,121.455384 349.835087,121.035285 L349.835087,121.035285 Z" id="path1472"></path>
                        <path d="M20.2605,158.444532 C22.9646413,158.154755 25.6867989,158.046587 28.4049293,158.083849 C31.0965652,158.185995 33.7379674,158.712176 36.3874239,159.150427 C37.1580978,159.263213 36.8562717,159.276407 37.2897228,159.234485 C43.7868261,159.484701 43.4343424,168.709452 36.9374511,168.459257 L36.9374511,168.459257 C35.4660489,168.369453 36.1472772,168.444361 34.8907989,168.258795 C32.6841196,167.892898 30.4871902,167.443518 28.2491413,167.314047 C26.0174511,167.265954 23.7838533,167.385124 21.5608533,167.583267 C15.1245815,168.506414 13.8242283,159.367637 20.2605,158.444468 L20.2605,158.444532 Z" id="path1488"></path>
                        <path d="M35.7619402,43.6948851 C38.4696848,46.7106282 41.4302935,49.4826671 44.27475,52.3658965 C47.5448152,55.9560212 51.1616413,59.1791426 54.829337,62.3472114 C55.1739783,62.6261773 55.5184076,62.9052071 55.8630489,63.184173 C60.9173641,67.2901793 55.1337065,74.4667471 50.0793913,70.3607621 L50.0793913,70.3607621 C49.6637446,70.0221896 49.2478859,69.6835745 48.8324511,69.3450019 C44.9797174,66.0166059 41.1844239,62.6241131 37.7409783,58.8612121 C34.7648967,55.8422345 31.6622772,52.9438533 28.8421957,49.7739544 C24.5608859,44.8613325 31.4806304,38.7823271 35.7619402,43.6948851 L35.7619402,43.6948851 Z" id="path1490"></path>
                        <path d="M78.9232826,14.4258512 C80.1867554,18.8897101 81.2588315,23.4070257 82.4171739,27.8998474 C83.460212,31.4327914 84.3300815,35.0171065 85.4320435,38.5320898 C87.3822554,44.7591862 78.6106467,47.528182 76.6606467,41.3010856 L76.6606467,41.3010856 C75.5133261,37.6346916 74.5961902,33.8999448 73.5158478,30.2132918 C72.4382609,26.0337188 71.3973424,21.8451868 70.3138207,17.6672738 C68.030837,11.5551559 76.640087,8.31379713 78.9232826,14.4258512 L78.9232826,14.4258512 Z" id="path1492"></path>
                        <path d="M215.814766,12.6497391 C215.192886,17.3164224 214.625266,21.982829 214.230815,26.6753468 C213.930261,30.7712023 213.722332,34.8738888 213.626315,38.9796398 C213.60512,40.101696 213.60512,39.5683219 213.60512,40.5796771 C213.550011,47.1071262 204.355337,47.0286438 204.410658,40.5011521 L204.410658,40.5011521 C204.431853,39.3988228 204.410658,39.9785671 204.431853,38.7618978 C204.533592,34.4688573 204.749576,30.1789238 205.066663,25.8964384 C205.49863,20.7942712 206.096348,15.7132143 206.836712,10.6471175 C208.247071,4.27484567 217.223005,6.27748854 215.812435,12.6496965 L215.814766,12.6497391 Z" id="path1494"></path>
                        <path d="M253.958462,30.6095557 C253.134587,33.1514887 252.287609,35.6835476 251.283359,38.159809 C250.722098,39.523186 250.977929,38.8798981 250.510777,40.0875232 C248.150217,46.1697633 239.582935,42.8180013 241.943283,36.7357613 L241.943283,36.7357613 C242.477201,35.3638508 242.200598,36.0556369 242.774576,34.6608286 C243.71206,32.379837 244.464505,30.0320459 245.235603,27.6903197 C247.291582,21.4975913 256.01444,24.4168487 253.958462,30.6095557 L253.958462,30.6095557 Z" id="path1496"></path>
                        <path d="M136.642011,5.13236421 C136.7925,6.93982244 137.21387,8.70437921 137.682293,10.4506986 C139.369467,16.7548516 130.489337,19.1500769 128.802587,12.8459239 L128.802587,12.8459239 C128.240478,10.7417305 127.740261,8.61221341 127.539538,6.43792213 C126.620071,-0.0241959146 135.722543,-1.32973256 136.642011,5.13236421 Z" id="path1498"></path>
                        <path d="M259.488408,328.107136 C260.384772,332.138554 261.265451,336.172782 262.125359,340.212393 C263.484212,346.595922 254.492592,348.525317 253.133527,342.141746 L253.133527,342.141746 C252.317283,338.305916 251.469245,334.477386 250.647489,330.64326 C248.861332,324.366686 257.70225,321.830584 259.488408,328.107136 L259.488408,328.107136 Z" id="path1500"></path>
                        <path d="M298.95662,300.134254 C302.379929,303.482037 305.660592,306.964525 308.865799,310.522005 C312.93388,315.106269 316.69844,319.9489 320.68725,324.600793 C322.66438,326.906278 324.686446,329.172395 326.679473,331.46392 C329.063136,334.208486 331.452734,336.950073 333.913761,339.625179 C338.32288,344.422801 331.564859,350.682797 327.156163,345.885239 L327.156163,345.885239 C324.640875,343.145674 322.18981,340.346332 319.753793,337.535967 C317.72537,335.203881 315.668543,332.896842 313.656864,330.550328 C309.737788,325.978747 306.035543,321.222962 302.045038,316.712648 C298.787054,313.091879 295.416098,309.587175 291.97562,306.142034 C287.74412,301.185851 294.725332,295.178071 298.95662,300.134254 L298.95662,300.134254 Z" id="path1504"></path>
                        <path d="M332.28869,278.185772 C336.940076,281.715715 341.706766,285.091695 346.441451,288.508703 C347.16825,289.027989 347.895049,289.547233 348.621636,290.066519 C353.918429,293.851744 348.587723,301.372757 343.28987,297.587533 L343.28987,297.587533 C342.551625,297.059926 341.813168,296.532298 341.074924,296.00469 C336.27856,292.54327 331.45125,289.1219 326.739033,285.546331 C321.555212,281.60644 327.104658,274.245945 332.28869,278.185772 L332.28869,278.185772 Z" id="path1506"></path>
                        <path d="M331.452734,201.352549 C334.933696,202.862421 338.552853,204.016505 342.177734,205.120047 C347.178,206.68195 352.202005,208.15905 357.240212,209.591397 C357.860609,209.764194 358.481005,209.936992 359.101614,210.109789 C365.366625,211.854811 362.908565,220.750395 356.643554,219.005374 L356.643554,219.005374 C356.007261,218.828107 355.370967,218.650905 354.734886,218.473681 C349.640723,217.025246 344.560761,215.53193 339.50475,213.952897 C335.805049,212.822285 332.091995,211.66833 328.545114,210.110364 C322.377179,208.046178 325.284799,199.288342 331.452734,201.352549 Z" id="path1512"></path>
                        <path d="M378.180033,216.423242 C380.238766,217.325258 382.381223,218.028982 384.51075,218.741794 C390.678049,220.809406 387.765342,229.565667 381.598679,227.498012 L381.598679,227.498012 C379.138076,226.671925 376.664543,225.854775 374.29487,224.789985 C368.402054,222.031523 372.287641,213.664759 378.180033,216.423242 Z" id="path1514"></path>
                        <path d="M215.286359,330.006845 C214.674864,332.642476 213.98113,335.257699 213.34738,337.888074 C213.030505,339.306525 213.173576,338.628082 212.916049,339.922318 C211.637103,346.322489 202.621745,344.506561 203.900902,338.106391 L203.900902,338.106391 C204.21269,336.554617 204.045033,337.351636 204.410658,335.716166 C205.03169,333.14227 205.707196,330.582206 206.310424,328.004266 C207.720783,321.631995 216.696717,323.634595 215.286359,330.006845 Z" id="path1516"></path>
                        <path d="M117.887462,320.490233 C116.561462,323.545664 115.413293,326.676768 114.275511,329.80666 C112.926196,333.186363 111.820418,336.651124 110.647027,340.092435 C108.531065,346.264776 99.8368207,343.260418 101.952783,337.088098 L101.952783,337.088098 C103.157755,333.597481 104.260565,330.070006 105.638495,326.639974 C106.954109,323.025313 108.247679,319.383711 109.90412,315.910054 C113.129886,310.242443 121.113228,314.8226 117.887462,320.490233 L117.887462,320.490233 Z" id="path1520"></path>
                        <path d="M6.6870163,98.1269042 C10.5338152,99.3793673 14.4783261,100.293747 18.3774783,101.362794 C22.9974946,102.830339 27.7349348,103.805964 32.4889076,104.708448 C32.9261739,104.777184 33.3636522,104.845708 33.8009185,104.914231 C40.2227772,105.932885 38.7880435,115.051404 32.3661848,114.032728 L32.3661848,114.032728 C31.8373533,113.948245 31.3087337,113.863548 30.7801141,113.779065 C25.7862065,112.830657 20.8098913,111.797915 15.9539674,110.267699 C11.8729565,109.14726 7.74255978,108.19466 3.72174457,106.865183 C-2.432625,104.759905 0.532646739,96.0216681 6.6870163,98.1267978 L6.6870163,98.1269042 Z" id="path1522"></path>
                    </g>
                </g>
            </g>
        </g>
    </g>
</svg>