<?xml version="1.0" encoding="UTF-8"?>
<svg width="252px" height="129px" viewBox="0 0 252 129" version="1.1" xmlns="http://www.w3.org/2000/svg" xmlns:xlink="http://www.w3.org/1999/xlink">
    <!-- Generator: Sketch 64 (93537) - https://sketch.com -->
    <title>toilet-paper-5018123</title>
    <desc>Created with Sketch.</desc>
    <g id="covid" stroke="none" stroke-width="1" fill="none" fill-rule="evenodd">
        <g id="Desktop" transform="translate(-386.000000, -212.000000)" fill-rule="nonzero">
            <g id="Group-2" transform="translate(-2.000000, 0.000000)">
                <g id="toilet-paper-5018123" transform="translate(388.000000, 212.000000)">
                    <g id="Group">
                        <polygon id="Path" fill="#9D9D9C" points="214.8 107.6 26 128.1 11.2 104.4 181.2 67.1"></polygon>
                        <path d="M251.5,90.4 C251.5,90.4 248.2,106.5 205.7,108.2 C166.1,109.8 156.2,92.4 156.2,92.4 L156.1,90.6 L152,14.2 C152.9,16.5 156.3,18.6 161.5,20.4 C170.4,23.4 184.6,25.3 200.5,25.3 C227.5,25.3 249.3,19.8 249.3,13.1 L251.5,90.4 Z" id="Path" fill="#EDEDED"></path>
                        <path d="M183.6,24.5 L173.9,104.4 C160.2,99.7 156.1,92.4 156.1,92.4 L156,90.7 L151.9,14.3 C152.8,16.6 156.2,18.7 161.4,20.5 C167.1,22.2 174.8,23.7 183.6,24.5 Z" id="Path" fill="#DADADA"></path>
                        <path d="M249.4,13 C249.4,19.8 227.5,25.2 200.6,25.2 C184.6,25.2 170.5,23.3 161.6,20.3 C156.4,18.6 152.9,16.4 152.1,14.1 C151.9,13.7 151.9,13.3 151.9,12.9 C151.9,10 156,7.3 162.8,5.2 C162.8,5.2 162.8,5.2 162.8,5.2 C171.8,2.4 185.4,0.7 200.7,0.7 C227.5,0.8 249.2,6.3 249.4,13 C249.4,13 249.4,13 249.4,13 Z" id="Path" fill="#F6F6F6"></path>
                        <path d="M216.8,12.2 L216.8,12.2 C216.8,13.2 215,14.2 212.1,14.8 C209.2,15.5 205.3,15.9 200.9,15.9 C196.5,15.9 192.6,15.5 189.7,14.8 C187.2,14.2 185.5,13.4 185.1,12.5 C185.1,12.4 185,12.3 185,12.2 C185,10.2 192.1,8.5 200.9,8.5 C209.7,8.5 216.8,10.2 216.8,12.2 Z" id="Path" fill="#706F6F"></path>
                        <path d="M212.2,14.7 L212.2,14.7 C212.2,14.8 212.2,14.8 212.2,14.9 C209.3,15.6 205.4,16 201,16 C196.6,16 192.7,15.6 189.8,14.9 C189.8,14.9 189.8,14.8 189.8,14.8 C189.8,13.4 194.8,12.2 201,12.2 C207.1,12.1 212.1,13.3 212.2,14.7 Z" id="Path" fill="#575656"></path>
                        <path d="M127.8,53.5 C128,53.4 128.3,53.2 128.5,53.1 C115.8,76.8 102.3,101.3 89.8,116.8 C89.4,117.3 89,117.8 88.8,118.3 C79.6,120.5 65.1,123.2 57.3,123 C50.4,122.8 47.8,121 30.2,127.3 C26.1,128.8 14,128.5 14,128.5 C14,128.5 -0.4,103.1 0.5,96.4 C8,99.7 37.6,89.8 37.6,89.8 C37.6,89.8 75.3,77.7 103.8,44.5 C115.9,30.4 127.9,21.4 137.9,15.5 C130.9,33.5 122.7,56.5 127.8,53.5 Z" id="Path" fill="#EDEDED"></path>
                        <path d="M127.8,53.5 C128,53.4 128.3,53.2 128.5,53.1 C115.8,76.8 102.3,101.3 89.8,116.7 C89.4,117.2 89,117.7 88.8,118.2 C79.6,120.4 65.1,123.1 57.3,122.9 C50.4,122.7 47.8,120.9 30.2,127.1 C29.8,127.2 29.4,127.3 29,127.4 L22.1,94 C30.3,92 37.6,89.5 37.6,89.5 C37.6,89.5 75.3,77.4 103.8,44.2 C115.9,30.1 127.9,21.1 137.9,15.2 C130.9,33.5 122.7,56.5 127.8,53.5 Z" id="Path" fill="#EDEDED"></path>
                        <path d="M134.8,100.6 C120.6,107 102.8,114.6 92.3,117.4 C91.3,117.7 90.1,118 88.8,118.3 C89,117.8 89.3,117.3 89.8,116.8 C102.3,101.3 115.8,76.8 128.5,53.1 C136.1,49.3 138.5,60.7 138.8,64.5 C139.4,71.9 137,87.9 134.8,100.6 Z" id="Path" fill="#F6F6F6"></path>
                        <path d="M152,14.2 L156.1,90.6 C156.1,90.6 146.8,95.1 134.8,100.5 C137,87.8 139.4,71.8 138.7,64.4 C138.4,60.6 136,49.2 128.4,53 C128.2,53.1 128,53.2 127.7,53.4 C122.6,56.4 130.8,33.4 137.8,15.3 C143.6,11.9 148.7,9.6 152.8,8.1 C158.6,5.9 162.3,5.3 162.6,5.2 C155.8,7.3 151.7,10 151.7,12.9 C151.8,13.4 151.9,13.8 152,14.2 Z" id="Path" fill="#EDEDED"></path>
                        <path d="M152,14.2 L156.1,90.6 C156.1,90.6 153.2,92 148.5,94.2 L144.6,11.8 C147.7,10.3 150.5,9.1 152.9,8.2 C158.7,6 162.4,5.4 162.7,5.3 C155.9,7.4 151.8,10.1 151.8,13 C151.8,13.4 151.9,13.8 152,14.2 Z" id="Path" fill="#DADADA"></path>
                        <path d="M152,14.2 L156.1,90.6 C156.1,90.6 153.2,92 148.5,94.2 L135.4,16.9 C138.8,14 150.4,9.1 152.9,8.2 C158.7,6 162.4,5.4 162.7,5.3 C155.9,7.4 151.8,10.1 151.8,13 C151.8,13.4 151.9,13.8 152,14.2 Z" id="Path" fill="#C6C6C6"></path>
                        <path d="M28.6,127.7 C23.6,128.7 14,128.4 14,128.4 C14,128.4 -0.4,103 0.5,96.3 C3.1,97.5 28.6,127.7 28.6,127.7 Z" id="Path" fill="#E5E4E4"></path>
                    </g>
                </g>
            </g>
        </g>
    </g>
</svg>