<?xml version="1.0" encoding="utf-8"?>
<!-- Generator: Adobe Illustrator 23.0.1, SVG Export Plug-In . SVG Version: 6.00 Build 0)  -->
<svg version="1.1" id="b976120c-196c-4962-876b-15d020b5ba45"
	 xmlns="http://www.w3.org/2000/svg" xmlns:xlink="http://www.w3.org/1999/xlink" x="0px" y="0px" viewBox="0 0 1920 1080"
	 style="enable-background:new 0 0 1920 1080;" xml:space="preserve">
<style type="text/css">
	.st0{fill:#246EB9;}
</style>
<title>bdevices</title>
<path class="st0" d="M1052,931c26.5-1.4,42,29,62,47c21,18,43.2,22,64.5,17.2s41.5-18.2,58.6-35.4C1266,974,1281,1003,1297,1030
	c17,30,49,27,76,16c19.5-8,40-19,61.7-26.6c19.3-6.4,38.3-15.4,52.3-30.4c20-22,33-66,66-57c28,8,46.2,28,60.9,51.9
	c7.3,11.9,13.7,24.8,20,37.7c11.1,20.4,21.1,54.4,49.1,46.4c26.5-8,44.5-28.5,61.5-49.8s33-43.3,56.1-55.4
	C1827,943,1867,940,1887,970c32,50,55,99,66,155c31,150-13,292-34.8,436.2c-3.3,22.3-6.3,44.6-9.1,66.9c-2.7,22.3-5.1,44.7-6.8,67.2
	c-1,20-2,41-1.9,60.6c-0.1,29.3-0.1,55.8-0.1,78c0.1,44.5,0.1,72.3,0.1,72.3s-99.1,0-252.2,0c-25.5,0-52.5,0-80.9,0
	c-29.9-0.1-58.9-0.1-88.6,0c-16.4,0-33.1,0-49.9-0.1c-53.6-3.8-107.4-1.9-160.9-0.7c-17.8,0.4-35.6,0.7-53.4,0.8
	C1176,1912,1142,1889,1105,1888c-42-2-82,17-124,14c-39-4-77-10-115.4-5.3c-17.9,1.4-35.6,2.9-53.1,2.4c-93-2-184,6-277,5.9
	c-19.5-1.9-38.5-6.9-57.7-10.6c-19.1-3.7-38.4-6.2-58.4-3.2c-27,4-53,15-80,15.2c-15.1,0-30,0-44.4-0.1
	c-66.6-11.1-132.6-21.1-200.6-2.1c-9,3-18,3-27.3,2.1c-18.3,0-34.1,0-46.9,0c-25.7,0-39.8,0-39.8,0s0-85.3,0-196.1
	c0-15.9,0-32.3,0-49c-0.4-59.2-2.2-118.6-4.1-178c-0.6-19.8-1.3-39.6-2.1-59.6C-29,1342-50,1261-37,1180c12-70,13-137,26-208
	c0-3,1-11,4-8c7,9,5,23,5,35c0-12,8-32,20-22c65,54,164,142,241,75c30-26,35-79,79-89c17.5-5.5,35.8-7,53.8-9.4
	c18-2.4,35.8-5.7,52.4-14.9c15.5-7.6,31.8-13.7,48.4-17.9c33.3-8.5,67.7-9.9,98.9-3c12.1,6.2,22.2,16.4,30.9,28.5
	C640,972,649,1003,670,1028c18,22,50,10,73,2c26.7-9.7,52.7-21.3,78.6-32.8c13-5.7,26-11.4,39-16.8s26.2-10.4,39.4-14.9
	c21.5-2.2,45-12.9,68.6-20.2"/>
</svg>
