<?xml version="1.0" encoding="utf-8"?>
<!-- Generator: Adobe Illustrator 23.0.1, SVG Export Plug-In . SVG Version: 6.00 Build 0)  -->
<svg version="1.1" id="b976120c-196c-4962-876b-15d020b5ba45"
	 xmlns="http://www.w3.org/2000/svg" xmlns:xlink="http://www.w3.org/1999/xlink" x="0px" y="0px" viewBox="0 0 1920 1080"
	 style="enable-background:new 0 0 1920 1080;display: block; transform: scale(-2.3,1);" xml:space="preserve">
<style type="text/css">
	.st0{fill:#F3F3F3;}
</style>
<title>bdevices</title>
<path class="st0" d="M1900.4,1815.2c0,0-99.1,0-252.2,0c-25.5,0-52.5,0-80.9,0c-29.9-0.1-58.9-0.1-88.6,0c-16.4,0-33.1,0-49.9-0.1
	c-71.4-5-143.4,0-214.3,0.1c-18.3,0-36.2,0-52.6-3.1c-24.5-5-49.5-16-75.5-15c-24.5,1.5-48.5,6.8-72.6,11.3
	c-15.7,3.9-31.5,3.5-47.3,1.9c-15.8-1.7-31.5-4.7-47-6.2c-36-2-72,5-107,4c-93-2-184,6-277,5.9c-19.5-1.9-38.5-6.9-57.7-10.6
	c-19.1-3.7-38.4-6.2-58.4-3.2c-27,4-53,15-80,15.2c-15.1,0-30,0-44.4-0.1c-66.6-11.1-132.6-21.1-200.6-2.1c-9,3-18,3-27.3,2.1
	c-18.3,0-34.1,0-46.9,0c-25.7,0-39.8,0-39.8,0s0-85.3,0-196.1c0-15.9,0-32.3,0-49c-1-157.9-12-316.9-9-474.9c31-39,73-72,123-77
	c31-4,52,29,57,57c21-22,49-37,70.9-58.9c12.5-13.4,26.2-25.7,40.7-37c43.6-33.9,95.4-58.1,149.4-71.1c13-3,24,5,34,14
	c46,41,68,119,136,122c24-2,47.2-10.5,70.4-15.1s46.1-5.4,69.6,8.1c11,6,26,7,36-2c19-18,40-41,69-34c34-1,69,10,90,40c2,2,7,5,10,2
	c46-41,92-73,145-106c21-13,35-34,52-51c12-12,27-20,44.1-23c7.9-1,15.9,1,21.9,7c33,37,60,80,109,94c25.9,7.9,50.2,16.6,74.9,25.4
	c16.1,6.6,33.1,10.6,50.1,6.6c83-20,167-12,225,58c4,5,13,5,20.3,4.9c13-2.8,27.5-7.7,42-13c43.6-15.9,86.6-33.9,128.6-56.9
	c19-11,43-1,57,16c18,20,40,42,44,64c27,182-25,355-39,535c-1,20-2,41-1.9,60.6c-0.1,29.3-0.1,55.8-0.1,78
	C1900.4,1787.4,1900.4,1815.2,1900.4,1815.2z"/>
</svg>
