<?xml version="1.0" encoding="utf-8"?>
<!-- Generator: Adobe Illustrator 23.0.1, SVG Export Plug-In . SVG Version: 6.00 Build 0)  -->
<svg version="1.1" id="b976120c-196c-4962-876b-15d020b5ba45"
	 xmlns="http://www.w3.org/2000/svg" xmlns:xlink="http://www.w3.org/1999/xlink" x="0px" y="0px" viewBox="0 0 1920 1080"
	 style="enable-background:new 0 0 1920 1080;" xml:space="preserve">
<style type="text/css">
	.st0{fill:#FFFFFF;}
</style>
<title>bdevices</title>
<path class="st0" d="M1900.4,1937.2c0,0-99.1,0-252.2,0c-25.5,0-52.5,0-80.9,0c-29.9-0.1-58.9-0.1-88.6,0c-16.4,0-33.1,0-49.9-0.1
	c-71.4-5-143.4,0-214.3,0.1c-18.3,0-36.2,0-52.6-3.1c-24.5-5-49.5-16-75.5-15c-24.5,1.5-48.5,6.8-72.6,11.3
	c-15.7,3.9-31.5,3.5-47.3,1.9c-15.8-1.7-31.5-4.7-47-6.2c-36-2-72,5-107,4c-93-2-184,6-277,5.9c-19.5-1.9-38.5-6.9-57.7-10.6
	c-19.1-3.7-38.4-6.2-58.4-3.2c-27,4-53,15-80,15.2c-15.1,0-30,0-44.4-0.1c-66.6-11.1-132.6-21.1-200.6-2.1c-9,3-18,3-27.3,2.1
	c-18.3,0-34.1,0-46.9,0c-25.7,0-39.8,0-39.8,0s0-85.3,0-196.1c0-15.9,0-32.3,0-49c-0.2-39.5-1.1-79-2.2-118.6
	c-0.6-19.8-1.2-39.6-1.8-59.4c-0.4-14.5-0.8-29-1.2-43.4c-0.4-14.4-0.7-28.7-0.9-43.1C-21,1279-22,1129-20,980c1-31,3-61,7-92
	c4,6,1,14,3,20c4-21-3-50,18-62c25-15,49,12,64,33c56,76,106,164,198,190.7c22.5,2,45-3.8,63.1-20c16.4-12.9,32.5-26.4,48.8-39.4
	c32.7-25.9,66.3-49.2,102.2-66.3c18-8.6,36.5-15.5,55.7-20.5c19.3-5,39.2-7.9,59.8-8.1C673,923,687,1006,722,1059c4,5,18,0,27-6
	c30-20,42-53,73-69c3-1,6-2,8-3c24-34,68-23,93,4c13.5,14.5,27,31.2,42.6,42.2C1034,1070,1071,971,1120,936c3-2,7-3,10-2
	c9,6,9,19,20,21c21,4,40.8,8.7,60.5,11.3c21.5-0.3,42.5,9.7,62.5,4.7c45-9,83-62,129-31c20,13,7,39,13,60c10,35,53,46,81,45
	c13-1,27-25,41.4-38.5c19.8-16.8,42-29.3,65.9-35.4s49.7-5.5,76.7,3.9c36,12,69,44,107,32c54-16,107-46,137.5-93.5
	c8.8-15.9,12.8-33.7,10.5-53.5c60,80,42,194,44,289c3,144-40,284-58.5,426.7c-2.4,16.6-4.9,33.3-7.1,50
	c-4.5,33.4-8.5,66.9-11.1,100.6c-1,20-2,41-1.9,60.6c-0.1,29.3-0.1,55.8-0.1,78C1900.4,1909.4,1900.4,1937.2,1900.4,1937.2z"/>
</svg>
