<?xml version='1.0' encoding='utf-8'?>
<svg xmlns="http://www.w3.org/2000/svg" width="290.77863mm" height="118.6544mm" viewBox="0 0 290.77862 118.65439" version="1.1" id="svg8"> <defs id="defs2"/> <metadata id="metadata5"> </metadata> <g id="layer1" transform="translate(-3.5362417,-126.3452)"> <flowRoot id="flowRoot815" style="font-style:normal;font-variant:normal;font-weight:normal;font-stretch:normal;font-size:40px;line-height:1.25;font-family:'TypoUpright BT';-inkscape-font-specification:'TypoUpright BT, Normal';font-variant-ligatures:normal;font-variant-caps:normal;font-variant-numeric:normal;font-feature-settings:normal;text-align:start;letter-spacing:0px;word-spacing:0px;writing-mode:lr-tb;text-anchor:start;fill:#F3F3F3;fill-opacity:1;stroke:none" transform="scale(0.26458333)"><flowRegion id="flowRegion817"><rect id="rect819" width="694.28571" height="440" x="54.285713" y="173.94826"/></flowRegion><flowPara id="flowPara821"/></flowRoot> <flowRoot id="flowRoot827" style="font-style:normal;font-variant:normal;font-weight:normal;font-stretch:normal;font-size:40px;line-height:1.25;font-family:'TypoUpright BT';-inkscape-font-specification:'TypoUpright BT, Normal';font-variant-ligatures:normal;font-variant-caps:normal;font-variant-numeric:normal;font-feature-settings:normal;text-align:start;letter-spacing:0px;word-spacing:0px;writing-mode:lr-tb;text-anchor:start;fill:#F3F3F3;fill-opacity:1;stroke:none" transform="scale(0.26458333)"><flowRegion id="flowRegion829"><rect id="rect831" width="468.57144" height="65.714287" x="97.14286" y="211.09111"/></flowRegion><flowPara id="flowPara833"/></flowRoot> <flowRoot id="flowRoot835" style="font-style:normal;font-variant:normal;font-weight:normal;font-stretch:normal;font-size:40px;line-height:1.25;font-family:'TypoUpright BT';-inkscape-font-specification:'TypoUpright BT, Normal';font-variant-ligatures:normal;font-variant-caps:normal;font-variant-numeric:normal;font-feature-settings:normal;text-align:start;letter-spacing:0px;word-spacing:0px;writing-mode:lr-tb;text-anchor:start;fill:#F3F3F3;fill-opacity:1;stroke:none" transform="scale(0.26458333)"><flowRegion id="flowRegion837"><rect id="rect839" width="674.28571" height="320" x="88.571426" y="476.80539"/></flowRegion><flowPara id="flowPara841"/></flowRoot> <flowRoot id="flowRoot843" style="font-style:normal;font-variant:normal;font-weight:normal;font-stretch:normal;font-size:40px;line-height:1.25;font-family:'TypoUpright BT';-inkscape-font-specification:'TypoUpright BT, Normal';font-variant-ligatures:normal;font-variant-caps:normal;font-variant-numeric:normal;font-feature-settings:normal;text-align:start;letter-spacing:0px;word-spacing:0px;writing-mode:lr-tb;text-anchor:start;fill:#F3F3F3;fill-opacity:1;stroke:none" transform="scale(0.26458333)"><flowRegion id="flowRegion845"><rect id="rect847" width="697.14288" height="154.28572" x="51.42857" y="471.09113"/></flowRegion><flowPara id="flowPara849"/></flowRoot> <g id="g7313" transform="matrix(0.99451534,0,0,0.77081357,1.6142167,28.956604)"> <g id="g7308"> <g aria-label="r" style="font-style:normal;font-variant:normal;font-weight:normal;font-stretch:normal;font-size:10.58333302px;line-height:1.25;font-family:Paris;-inkscape-font-specification:'Paris, Normal';font-variant-ligatures:normal;font-variant-caps:normal;font-variant-numeric:normal;font-feature-settings:normal;text-align:start;letter-spacing:0px;word-spacing:0px;writing-mode:lr-tb;text-anchor:start;fill:#F3F3F3;fill-opacity:1;stroke:none;stroke-width:0.26458332" id="text853" transform="matrix(14.642707,0,0,20.886438,-266.07126,-2512.5562)"> <path d="m 37.650709,132.56189 q -0.0155,0.0258 -0.0155,-0.0465 0,-0.10336 0,-0.10336 0.02067,-0.0258 0.0155,0.0465 0,0.10335 0,0.10335 z m -0.583943,0 q -0.0155,0.0258 -0.0155,-0.0465 0,-0.10336 0,-0.10336 0.02067,-0.0258 0.02067,0.0465 -0.0052,0.10335 -0.0052,0.10335 z m -2.645834,0.39791 v -0.23254 q 0.103353,0.0672 0.113688,0.23254 z m -4.769734,-0.0155 q -0.03617,-0.062 -0.06718,-0.0155 -0.06201,0.0982 -0.06718,0.0982 -0.07752,-0.0827 -0.02067,-0.24804 0.05684,-0.1602 0.15503,-0.0362 z m -0.299724,-0.0672 q -0.04134,-0.0724 -0.04651,0 -0.03101,-0.0672 -0.07235,-0.0465 -0.04134,0.0155 -0.06201,0.0827 -0.134359,-0.0982 -0.07752,-0.29455 0.06201,-0.20154 0.242879,-0.0879 0.06718,0.1602 0.0155,0.34623 z m -0.397908,0.13436 q -0.01033,-0.005 -0.06718,-0.0724 -0.04134,-0.062 -0.06718,-0.062 0.02067,0.005 -0.0155,-0.13436 0.09819,-0.10852 0.149862,0.0207 0.05168,0.12919 0,0.24805 z m -1.049032,-1.75183 q 0.0155,0.005 -0.02067,-0.0982 0.03101,0 0.03617,0.0413 0,0.0413 -0.0155,0.0568 z m -0.05168,0 q -0.03101,0 -0.03617,-0.0413 0,-0.0362 0.02067,-0.0568 -0.0155,0 0.0155,0.0982 z m -1.431437,1.78284 q -0.04134,-0.031 -0.05168,-0.0982 -0.03617,0.005 -0.09819,-0.005 -0.05168,-0.0103 -0.08785,0.005 0.0052,0.005 0,-0.0672 -0.03101,-0.0103 -0.03101,0.0362 0,0.0465 -0.03101,0.031 0.0052,-0.13436 -0.08785,-0.11369 0.0155,-0.11885 -0.04651,-0.18603 -0.03617,0 -0.08268,0.0672 -0.02584,-0.0207 -0.02067,-0.093 0,-0.0724 0.03617,-0.0724 -0.02584,-0.13436 0.04651,-0.21187 0.05684,-0.0724 0.165365,-0.0724 0.10852,-0.005 0.191203,0.0517 0.08785,0.062 0.09818,0.16536 0,0.0155 -0.0155,0.0258 -0.02067,0.0103 -0.02067,0.005 0.05168,0.33073 0.03617,0.53227 z m -1.53479,-0.27906 q 0.02067,-0.0258 0.05168,-0.0103 0.0052,0 0.02067,0.0103 0.0155,0.0103 0.02584,0.0155 0,0.0207 -0.05684,0.0207 -0.05684,0 -0.04134,-0.0362 z m -0.149862,-0.28422 q 0.02067,-0.0207 0.05168,-0.0103 0.03101,0.0103 0.03101,0.0413 0.0155,0.005 -0.06201,0.005 -0.03101,-0.005 -0.02067,-0.0362 z m -0.118856,-0.55294 q -0.03617,0.0103 -0.03617,-0.0362 0.0052,-0.0775 0.0052,-0.0775 h 0.06718 q 0,0 0,0.0775 0.0052,0.0465 -0.03617,0.0362 z m -0.06718,0.93535 q -0.07235,0.0362 -0.08268,0.0672 0.02067,0.0258 -0.0155,-0.23255 -0.01034,0.0258 -0.04651,0.0207 -0.04651,-0.005 -0.07235,0.0103 v 0.21704 q -0.03617,0 -0.118856,-0.0465 -0.06718,-0.0362 -0.144694,-0.0207 -0.0052,0.0362 -0.06718,0.0517 -0.06201,0.0155 -0.06718,0.0517 -0.0052,-0.0155 -0.0155,-0.0413 -0.01034,-0.0258 -0.0155,-0.0362 -0.02584,-0.0362 -0.06718,-0.0103 0.0155,-0.0879 -0.03101,-0.15503 -0.06718,-0.10335 -0.07235,-0.10852 -0.0155,0 -0.04651,0.0465 -0.02067,0.031 -0.02067,-0.031 -0.04134,0.031 -0.04134,0.14469 -0.0052,0.13953 -0.02067,0.17053 -0.03617,-0.005 -0.05684,-0.0723 -0.02067,-0.062 -0.04651,-0.0775 -0.02584,0.0155 -0.04134,0.0724 -0.02067,0.062 -0.04134,0.0775 -0.04134,-0.0207 -0.05168,-0.0723 -0.01034,-0.0672 -0.03101,-0.093 -0.04134,0.0207 -0.05684,0.0827 -0.02584,0.0827 -0.02584,0.0827 l -0.08268,-0.14986 q -0.04134,0.005 -0.06201,0.0672 -0.02584,0.0724 -0.04134,0.0827 -0.03101,0.005 -0.03617,-0.0362 -0.0052,-0.0465 -0.03101,-0.0465 0.07235,-0.23254 0.320394,-0.35657 0.222209,-0.11368 0.516764,-0.10852 0.289388,0.0103 0.506429,0.13953 0.237712,0.13953 0.294556,0.37724 -0.02067,-0.005 -0.04651,-0.0362 -0.02067,-0.0258 -0.04134,-0.031 z m -1.498616,-0.39791 q 0.0052,0 0.0155,0.005 0.01034,0.0103 0.02067,0.0103 v 0.031 h -0.08785 q 0,-0.0207 0.02584,-0.0258 0.02584,-0.0103 0.02584,-0.0207 z m 0.217041,-0.0362 q -0.0052,-0.0517 -0.03101,-0.0672 0.0155,-0.0517 0.05168,-0.0207 0.03101,0.0258 0.03101,0.0723 -0.01033,0.005 -0.03617,0.0207 -0.02584,0.0155 -0.03617,0.0207 -0.04134,0.0207 -0.04651,-0.0413 0.02067,-0.0207 0.03617,-0.0103 0.02067,0.0258 0.03101,0.0258 z m 0.05168,-0.80099 q 0.0052,0.0465 -0.03617,0.0517 0.02067,-0.005 -0.08268,0 0.02584,-0.0569 0.118856,-0.0517 z m -0.0155,-0.3669 q 0.07752,-0.0155 0.08268,0.0362 0.01034,0 -0.06201,0 -0.03617,0 -0.02067,-0.0362 z m 0.06201,1.13688 q -0.04651,0 -0.06201,-0.0827 0.02067,-0.031 0.05684,0.0103 0.03617,0.0413 0.0052,0.0724 z m 0.03617,-0.14986 q -0.0052,0.0155 -0.01034,0.005 -0.0052,-0.005 -0.0052,-0.0258 -0.03101,0 -0.03617,0.0207 -0.0155,0.0103 -0.0052,-0.0258 0.01034,-0.0517 -0.01033,-0.0568 0,-0.0155 0.01033,-0.0103 0.0052,0 0.0052,0.0103 0.03101,0 0.03617,-0.0207 0.0155,0.0103 0.01034,0.0465 -0.01034,0.0413 0.0052,0.0568 z m 0.05168,0.11369 q -0.07751,0.0103 -0.06718,-0.0465 0.02067,-0.0258 0.04134,-0.005 0.02067,0.0207 0.02584,0.0517 z m -0.03617,-0.81649 q 0.07235,-0.005 0.06718,0.0517 -0.07235,0.005 -0.06718,-0.0517 z m 0.08268,-0.0672 q 0.0052,0.031 -0.02584,0.0413 -0.06201,0.0103 -0.05684,0.0103 0,-0.0465 0.08268,-0.0517 z m 0.103353,-1.18339 q 0,0.005 0.01034,0.0362 0.01034,0.0207 0.03617,0.0155 -0.02067,0.0155 -0.05684,0.0103 -0.04651,-0.005 -0.07751,0.005 0.05168,-0.0672 0.05168,-0.0672 z m 0.04651,-0.21704 q -0.01034,0.062 -0.04651,0.0568 -0.04651,-0.0103 -0.06718,0.0103 0.05684,-0.0672 0.04651,-0.062 0.03617,-0.031 0.06718,-0.005 z m 0.0155,-0.12919 q 0.02584,0 0.0052,0.0207 -0.02067,0.0207 -0.03617,0.0258 0.02067,0.0465 -0.01034,0.0155 -0.04651,-0.0465 -0.05684,-0.0465 0.0052,-0.0155 0.04651,-0.0103 0.04651,0.005 0.05168,-0.005 z m -0.03101,-0.11886 q 0.03101,0.005 0.03617,0.0362 0.01033,0.0258 0.0155,0.031 -0.0155,0.0258 -0.05168,0.0155 -0.04134,-0.0155 -0.05168,0 0.04651,0.0155 0.05168,-0.0827 z m 0.05168,-0.0672 q -0.0155,0 -0.02067,0.0155 -0.02584,0.0103 -0.04134,-0.0155 -0.01034,-0.031 -0.02067,-0.031 -0.02584,-0.0155 0.02067,-0.0155 0.04134,0 0.06201,0.0155 z m 0,-0.13436 q -0.0052,-0.0465 -0.08268,0.0517 -0.02584,0 0.02067,-0.0413 0.04651,-0.0362 0.06201,-0.0103 z m 0,-0.12919 q 0,-0.005 -0.02067,0.062 -0.02067,0.005 -0.02584,-0.0258 -0.01033,-0.031 -0.03617,-0.0207 0.0052,-0.031 0.02584,-0.0258 0.03617,0.0103 0.05684,0.0103 z m 0.08268,1.2144 q -0.0052,0.031 -0.04134,0.0517 -0.03617,0.0258 -0.04134,0.0465 0.0052,0.0258 0.02067,0.005 0.02067,-0.031 0.04651,-0.0207 0.01034,0.031 0.03101,0.0362 -0.0052,0.0207 -0.05684,0.0155 -0.04651,-0.005 -0.06201,-0.0155 v -0.0672 q 0.01034,-0.0103 0.04134,-0.0103 0.02067,0 -0.0052,-0.0258 0,-0.0103 0.06718,-0.0155 z m 0.03101,0.0982 q -0.04651,0.0103 -0.04651,-0.031 0,-0.0413 0.04651,-0.0362 z m 0.08268,0.0672 q 0.01033,0.005 0.02584,0.0207 0.0155,0.0103 0.02584,0.0155 0.01034,0 -0.0052,0 -0.0155,0.005 -0.03617,0.005 -0.06201,0.0103 -0.09302,-0.005 0.01034,-0.0362 0.04134,-0.0258 0.03617,0.005 0.04134,-0.0103 z m 0.02067,-0.16536 q -0.0155,0.031 -0.01034,0.0465 0.0052,0.0155 0.02584,-0.0155 0.01034,0.005 0.0155,0.0672 -0.02067,-0.005 -0.05168,-0.0413 -0.02584,-0.031 -0.04651,-0.0413 0,-0.0103 0.06718,-0.0155 z m 0.0155,-1.23507 q 0.02584,-0.005 0.03617,0.0155 0.0155,0.0207 0.03101,0.0207 0.0052,0.031 -0.03617,0.0465 -0.03617,0 -0.03101,-0.0827 z m 0.03101,-0.21704 q 0.04134,0 0.05168,0.0362 -0.07235,-0.0568 -0.06718,0.031 -0.01034,0 -0.0155,-0.0672 0.03101,0.0207 0.03101,0 z m -0.03101,0.40308 q 0,-0.0103 0.01034,-0.0362 0.0052,-0.0103 -0.01034,-0.0155 0.0155,-0.0258 0.04651,0.0103 0.03101,0.0413 0.05168,0.0413 -0.03101,0.0258 -0.09819,0 z m 0.06718,0.0672 q 0,0.0362 0.03101,0.0465 0.01033,0.0155 -0.02584,0.005 -0.06201,-0.0207 -0.07235,-0.0207 0.0052,-0.0517 0.05684,-0.0465 0.03617,0 0.07751,0.031 -0.01033,0.0258 -0.02584,0 -0.02067,-0.0258 -0.04134,-0.0155 z m -0.03617,0.0982 q 0.02584,0 0.04134,0.0362 0.0155,0.031 0.04134,0.031 0.01034,0.0103 -0.01034,0.0155 -0.02067,0 -0.04651,-0.005 -0.06718,-0.0258 -0.02584,-0.0775 z m 0.05168,0.18604 q -0.03101,0 -0.04651,-0.0207 -0.02067,-0.031 -0.03617,-0.031 0.01034,-0.0155 0.05684,-0.0103 0.05168,0.005 0.07751,-0.005 z m 0.03101,0.0982 q -0.03617,0.0258 -0.05684,0.0155 -0.02067,-0.005 -0.05684,0.0155 0.06201,-0.12403 0.149861,-0.0155 -0.01034,0.0207 -0.02584,0.0155 -0.01034,-0.0103 -0.01034,-0.031 z m 0.03617,0.0517 q -0.03101,0.13436 -0.134359,0.0155 0.01034,-0.0207 0.02067,-0.0155 0.0155,0.0103 0.0155,0.031 0.03101,-0.0258 0.05684,-0.0155 0.02067,0.005 0.04134,-0.0155 z m -0.10852,0.1912 q 0.06201,-0.0465 -0.01034,-0.062 -0.02067,0 -0.0052,0.0207 0.01033,0.0207 -0.02584,0.0155 -0.0052,-0.0155 0.0052,-0.0258 0.01034,-0.0155 0.01034,-0.0258 0.160197,0.0775 0.149862,0.0672 -0.02067,0.0258 -0.06201,0.0155 -0.04651,-0.0103 -0.06201,-0.005 z m 0.139526,1.12138 q 0.08785,0.005 0.08268,0.0517 0.0052,0 -0.05168,-0.0103 -0.03101,-0.0103 -0.03101,-0.0413 z m 0.186035,0.6873 q -0.08268,0.14986 -0.08268,0 0.02584,-0.031 0.08268,0 z m -0.06718,-0.86817 q 0.0052,-0.0413 0.04134,-0.0465 0.03617,0 0.04134,0.0465 z m 0.180867,0.3669 q -0.0155,0.0258 -0.07235,0.0155 -0.05684,-0.005 -0.04134,-0.0517 0.02067,0 0.113688,0.0362 z m -0.03101,0.13436 q -0.0155,-0.0258 0.0155,-0.031 0.01034,0 0.03617,0 0.03101,0 0.04651,-0.005 0.01034,0.0465 -0.04651,0.0362 -0.05684,-0.0155 -0.05168,0 z m 0,0.59945 q 0.02067,0.005 0.03617,0.0465 0.0155,0.0362 0.04651,0.0362 -0.0155,0.0258 -0.05168,-0.005 -0.04134,-0.0362 -0.06718,-0.031 0.0052,-0.0103 0.02067,-0.0207 0.0155,-0.0155 0.0155,-0.0258 z m -0.0155,-0.0672 q 0.03101,0.0258 0,0.0724 -0.03617,0.0465 -0.06718,0.0103 0.02067,-0.0775 0.06718,-0.0827 z m -0.170533,-0.0362 q 0.04134,0.005 0.03617,0.0672 0,0 0.05168,-0.0672 0.03617,0.0103 0.02584,0.0465 0.0052,-0.0258 -0.02584,0.0568 -0.02584,0 -0.05168,-0.0258 -0.03101,-0.0207 -0.06718,-0.0103 -0.0052,-0.0258 0.01034,-0.0362 0.02067,-0.0155 0.02067,-0.031 z m -0.0155,-0.12919 q 0.0155,-0.0103 0.0052,0.0258 -0.0155,0.0465 0,0.0672 0.01034,0 0.01034,0.005 -0.0052,-0.005 -0.01034,-0.005 -0.05168,-0.0413 -0.05168,-0.0775 0.01034,-0.0207 0.02584,-0.0103 0.0155,0.0103 0.02067,-0.005 z m -0.09818,-0.23772 v -0.11368 q -0.0052,-0.005 0.06718,0 v 0.11368 z m -0.05168,0.25322 q 0.05168,-0.0775 0.05168,-0.0362 0.02584,0.0103 0.01033,0.0413 -0.02584,0.0413 -0.02584,0.0413 -0.04134,-0.0103 -0.05168,-0.0827 0.0052,0 0.0155,0.0362 z m -0.03101,-0.3669 q 0.03617,-0.0155 0.03617,0.0568 0,0.0775 -0.03617,0.0568 z m -0.3514,-1.66915 q 0.06201,-0.0465 0.03101,0.0103 0,0.005 0,0.0103 0,0 0,-0.005 -0.03101,0.0568 -0.06201,0.0879 -0.05168,-0.031 -0.0155,-0.062 0.03101,-0.0258 0.07751,-0.0258 0,0 0,-0.005 0,0 -0.03101,-0.0103 z m -0.118856,1.99988 q 0.0155,0 0.02067,0.0207 0.0052,0.0155 0.0155,0.005 0.02067,-0.0103 0.03101,0.0103 0,0.062 -0.06718,0.0672 0,-0.0103 0.03617,-0.0207 -0.0052,-0.0103 -0.02067,-0.0362 -0.0155,-0.0207 -0.0155,-0.0465 z m -0.09819,-0.21705 q 0.02067,-0.0207 0.0155,-0.062 0.01034,0 0.02067,0.0465 0.0155,0.0103 0.0155,-0.031 0,-0.0413 -0.0155,-0.0362 0,-0.0362 0.08268,-0.031 v 0.11368 z m 0.08268,0.3359 q -0.0052,-0.0103 -0.04134,-0.0362 -0.02584,-0.0155 -0.02584,-0.0465 0.0052,-0.005 0.03101,-0.0155 0.0155,-0.005 0.02067,-0.0207 0.0155,0.0155 0.01034,0.0517 -0.0052,0.0413 0.0052,0.0672 z m 0.06718,-0.3359 q 0,-0.0982 0.0155,-0.11368 h 0.103353 q 0.0052,0.093 0.0155,0.0982 0.0052,-0.0155 -0.134359,0.0155 z m 0.118856,0.21705 q 0.02584,0.0103 0.0052,0.0413 -0.02584,0.0413 -0.02584,0.0413 -0.03617,-0.0103 -0.04651,-0.0827 0.0052,0 0.0155,0.0362 0.04651,-0.0775 0.05168,-0.0362 z m -0.217041,-0.38241 q 0.06718,-0.23254 0.180867,-0.81649 h 0.299723 q 0.15503,0.7183 0.186036,0.81649 z m 0.449585,0.40308 q 0.02584,-0.0155 0.04651,0.0207 0.02067,0.0362 0.02067,0.0775 -0.06718,-0.0517 -0.06718,-0.0517 0,-0.0103 0.01034,-0.031 0.0052,-0.0155 -0.01034,-0.0155 z m 0.05168,-0.3514 q -0.0052,0 0,0.0775 0,0.0465 -0.03617,0.0362 -0.03617,0.0103 -0.03617,-0.0362 0.0052,-0.0775 0.0052,-0.0775 z m -0.155029,0.3514 q 0.03101,-0.031 0.08785,0 -0.04651,0.0827 -0.06718,0.0775 -0.02067,-0.0103 -0.02067,-0.0775 z m -0.08268,-0.23772 q 0.0155,-0.0155 0.02067,-0.11368 h 0.09819 q 0.03101,0.0982 0.0155,0.0982 0.0052,-0.0155 -0.134359,0.0155 z m 0.05168,0.28423 q 0,0.005 -0.03617,0.0155 -0.02067,0.0103 -0.0155,0.0362 -0.02067,-0.031 -0.0052,-0.0672 0.02067,-0.0413 0.07235,-0.0517 0.0052,0.0207 -0.0052,0.0258 -0.01034,0.005 -0.01034,-0.005 0.01034,-0.005 0,0.0465 z m 0.697632,-0.34624 q 0.0052,-0.005 -0.06201,-0.0207 0.0052,-0.0413 0.06201,-0.031 z m 0.03617,0.61495 q 0.0155,-0.0207 0.04134,-0.005 l 0.04134,0.0207 q 0.0052,0.0258 -0.05168,0.0207 -0.05168,0 -0.03101,-0.0362 z m -1.73116,0.031 q 0.01033,-0.0362 0.04134,-0.0413 0.03101,-0.005 0.05684,0.0258 0,-0.0155 -0.09818,0.0155 z m -0.05168,0.13436 q 0.0052,-0.0362 0.05684,-0.0258 0.04651,0.005 0.04134,-0.0258 0.06201,0.0103 0.0052,0.0413 -0.05684,0.0258 -0.103353,0.0103 z m -0.118856,0.14986 q 0.06718,-0.0827 0.118856,-0.0155 0.0052,-0.0207 -0.118856,0.0155 z m -0.697631,-0.20154 q 0,-0.031 0.06718,-0.0827 -0.0052,-0.005 -0.03101,-0.0103 -0.02067,0 -0.03617,-0.0207 0,-0.0103 0.0155,-0.0258 0.0155,-0.0103 0.0155,-0.0258 0.06201,0.0258 0.04134,0.0827 -0.0155,0.0517 0.01034,0.0517 -0.01034,0.031 -0.03617,0.0413 -0.02584,0.0155 -0.04651,-0.0103 z m 0,-0.21704 q 0,-0.0103 0.0155,-0.0207 0.0155,-0.0155 0.0155,-0.0258 0.05168,0.005 0.02584,0.0465 -0.02584,0.0413 -0.05684,0 z m -1.235067,0.18603 q 0.02584,-0.005 -0.217041,0.0155 0,-0.0155 0.0155,-0.0465 0.01033,-0.0258 0,-0.0517 h -0.04651 q -0.03617,0.0258 -0.02067,0.0568 0.02067,0.0413 0.0052,0.0775 -0.05684,-0.0103 -0.05168,0.031 -0.03101,0 0,-0.0672 -0.05684,-0.0155 -0.07752,0.0258 -0.0052,0.0103 -0.01034,0.0362 -0.0052,0.0258 -0.01033,0.0413 -0.03101,-0.005 -0.06201,-0.0258 -0.04134,-0.0207 -0.05684,-0.0258 -0.0155,0.0207 -0.05684,0.0465 -0.04651,0.031 -0.06201,0.0517 0.02584,0.0258 -0.0155,-0.23254 0.04134,0.0258 0.04651,-0.0258 0,-0.0362 -0.01034,-0.093 -0.02584,0.0155 -0.0155,0.0465 0.0155,0.031 -0.0052,0.0413 -0.02067,-0.0465 -0.02067,-0.16537 0.0052,-0.11885 0.04134,-0.10335 -0.03617,-0.0465 -0.04134,-0.18087 -0.0052,-0.13435 0.04134,-0.13435 0,-0.031 -0.02584,-0.0517 -0.02067,-0.0207 -0.01034,-0.0827 0.09302,0 0.341064,0 0.268718,0 0.377238,0 -0.05168,0.82165 -0.05168,0.81648 z m -0.413411,0.41858 h -0.253215 v -0.14986 q 0.222209,0.0413 0.253215,0.031 z m -0.268718,-1.13688 q -0.26355,-0.0258 -0.248047,-0.0155 v -0.0827 h 0.248047 z m 0,0.3204 q -0.04651,0 -0.118856,-0.0103 -0.06201,-0.0103 -0.129191,-0.0103 0,-0.23255 0.0155,-0.26355 0.06201,0.005 0.232544,0 z m 0,0.31522 q -0.09819,-0.0362 -0.248047,-0.0155 0.0052,-0.22221 0,-0.26872 0.165365,-0.005 0.248047,-0.0155 -0.0052,0.20154 0,0.29972 z m 0,0.26355 q -0.1757,0.031 -0.232544,0.0362 -0.02067,-0.005 -0.0155,-0.11886 0,-0.12402 0,-0.12919 0.06718,-0.0258 0.248047,-0.0362 z m 0,0.23771 q -0.03617,0.0155 -0.07752,-0.0155 -0.02584,-0.0207 -0.02067,0.0155 -0.07751,-0.0879 -0.149862,-0.0672 0,-0.10335 0.0155,-0.11885 0.09819,0.0465 0.232544,0.0362 z m 18.148763,0.29973 q -0.0052,-0.093 0,-0.30489 0.0052,-0.18604 0,-0.26355 -0.366903,-0.005 -0.434082,-0.031 -0.03101,-0.0827 -0.03101,-0.22221 0,-0.1757 0,-0.19637 -0.08268,-0.031 -0.08268,-0.0155 0.02067,-0.26872 -0.186035,-0.38241 -0.0052,-0.0258 -0.01034,-0.0775 -0.0052,-0.0569 -0.0052,-0.0724 -0.0155,-0.0879 -0.06718,-0.10335 -0.04134,0.10335 -0.05168,0.26872 -0.196371,0.062 -0.180868,0.3824 h -0.08268 q -0.01034,0.031 -0.0052,0.11886 0.0052,0.10335 0,0.14986 -0.0155,0.18603 -0.165364,0.18087 0.03101,-0.83199 0.05168,-0.89917 -0.103353,-0.005 -0.09302,-0.13436 0,-0.0413 0.0155,-0.0982 0.01034,-0.062 0.01034,-0.0672 -0.01034,0.0362 -0.02584,0.0258 -0.0052,-0.005 -0.02067,-0.0155 -0.01033,-0.005 -0.02067,-0.0103 0.0155,0.0362 -0.01033,0.093 -0.0155,0.0362 0.03101,0.0413 -0.02584,0.13436 -0.118856,0.21704 0.0052,0.005 0.05168,0.8475 -0.160196,-0.0362 -0.149861,-0.0155 -0.0052,-0.1757 0,-0.16536 h -0.217041 q 0.0052,-0.0724 -0.0155,-0.28422 -0.0155,-0.17053 0.0155,-0.26872 -0.03101,-0.0103 -0.07235,0 -0.05684,0.0155 -0.07751,0.0155 -0.07751,-0.35656 -0.170532,-0.44958 0.01033,-0.12919 -0.04651,-0.21704 0,-0.005 -0.02067,0.1757 -0.01034,0.10335 -0.06201,0.12402 -0.02584,-0.0568 -0.02067,-0.16536 -0.04134,-0.0258 -0.04134,-0.0724 -0.0052,-0.093 -0.0052,-0.093 -0.02067,-0.0672 -0.09302,-0.14986 -0.08785,-0.0982 -0.108521,-0.13436 -0.0155,-0.031 -0.02067,-0.2067 0,-0.13953 -0.06201,-0.1602 -0.03617,0.32556 -0.03617,0.3669 -0.134359,0.0982 -0.279053,0.59945 -0.05168,-0.0155 -0.05684,-0.13436 -0.0052,-0.12402 -0.04651,-0.14986 -0.01034,0.24288 -0.0155,0.21704 -0.07751,0.0517 -0.118856,0.21187 -0.06201,0.21704 -0.08268,0.25838 -0.0155,-0.031 -0.05168,-0.031 -0.03617,0.005 -0.06201,-0.0207 0.02067,0.18087 -0.03617,0.56844 h -0.180867 q -0.0052,0.0517 -0.03617,0.0465 0.07235,0.10852 0.02067,0.14986 -0.165365,-0.0827 -0.170532,-0.23254 -0.03101,0.0207 -0.129191,-0.0517 -0.09302,-0.0672 -0.134359,-0.12919 -0.08785,0.0207 -0.377238,0.0155 -0.366903,0 -0.356567,0 -0.0052,-0.031 -0.02067,-0.1757 -0.01033,-0.10852 -0.03101,-0.1602 -0.05684,0.29973 -0.04651,0.28422 0,-0.10852 -0.01033,-0.0775 -0.02067,0.062 -0.02584,0.062 -0.03101,-0.005 -0.03101,-0.0517 -0.0052,-0.0103 0,-0.0465 0,-0.031 0,-0.0517 -0.01033,-0.10852 -0.03617,-0.33073 -0.03101,-0.21704 -0.03101,-0.28422 v -0.10335 q -0.01034,-0.0517 -0.02067,0.0672 0.0052,-0.0155 -0.06201,0.50126 -0.0052,0.0155 0,0.11885 0.0052,0.093 0,0.11369 -0.03101,0.0982 -0.04651,0.0517 l -0.02067,-0.0672 q -0.01034,0.005 0,0.0827 0.01033,0.0568 -0.02067,0.0155 0.0052,-0.1757 -0.03101,-0.26355 -0.05168,0.28422 -0.05168,0.27906 0.08268,0.031 0.08268,0.0207 -0.103352,0.0258 -0.366902,0.0207 -0.341065,-0.0103 -0.449585,-0.005 0.0155,-0.0517 0.01033,-0.13953 0,-0.0723 0.02584,-0.14469 -0.05168,-0.0413 -0.04651,-0.21187 0,-0.19637 -0.03617,-0.27389 -0.149862,0.0103 -0.170532,-0.0465 0.0155,0.062 -0.04651,0.0465 -0.0155,-0.005 -0.02584,-0.0413 -0.0052,-0.0362 -0.02584,-0.0413 -0.08268,0.18087 -0.09819,0.62528 -0.01034,0.54261 -0.05168,0.74415 0.0052,-0.0155 -0.0052,-0.0362 -0.01034,-0.0155 -0.01034,-0.031 -0.03101,0 -0.06201,0.0672 -0.02584,0.0568 -0.05684,0.031 0.03101,-0.11369 0,-0.23254 -0.01033,0.0155 -0.04134,0.0103 -0.03617,-0.0103 -0.05684,0.005 0,0 0,-0.0775 0.0052,-0.0465 -0.03101,-0.0362 -0.02584,0.0103 -0.02584,0.0568 0,0.0413 -0.01034,0.0413 -0.05168,-0.005 -0.08268,0.0155 0,0 0,-0.0775 0.0052,-0.0465 -0.03101,-0.0362 -0.03617,0.0103 -0.03101,0.0672 0.01033,0.0517 -0.03617,0.0465 -0.04134,-0.90951 0.0155,-1.18339 -0.05684,0 -0.07235,-0.0982 -0.01034,-0.11368 -0.04651,-0.13435 0,0.14469 -0.08268,0.28422 0.04651,0.1757 0.03617,0.52193 -0.0052,0.47542 0,0.56327 -0.201538,-0.0413 -0.186035,-0.0207 -0.0155,-0.47025 -0.03101,-0.51676 -0.09819,-0.0155 -0.155029,-0.12403 -0.0155,-0.031 -0.04134,-0.093 -0.02584,-0.0672 -0.04134,-0.0982 -0.09302,0.23254 -0.07235,0.20154 -0.05168,0.0879 -0.160197,0.11369 -0.02584,0.0879 -0.03101,0.53743 -0.08785,-0.0155 -0.232544,0.0465 -0.02067,-0.0103 -0.03617,-0.0775 -0.02067,-0.0568 -0.06718,-0.0517 -0.01033,-0.47542 -0.03101,-0.51677 -0.03101,0.0879 -0.03617,0.3514 -0.0052,0.24288 -0.03101,0.27906 -0.04651,0 -0.06718,0.0155 -0.0155,-0.0155 -0.0155,-0.11369 -0.07235,-0.0465 -0.06718,0 0.01034,-0.0982 0,-0.20154 -0.0155,-0.13435 -0.0155,-0.20153 -0.04134,-0.0155 -0.196371,-0.0155 -0.134359,0.005 -0.170532,-0.031 0.01033,-0.10852 -0.0155,-0.14986 -0.0155,0.0103 -0.05168,0.0258 -0.03617,0.0155 -0.05168,0.0207 0,-0.0517 -0.0052,-0.0413 -0.02584,0.0413 -0.02584,0.0413 -0.0052,-0.0258 0.02067,-0.0775 0,0.0103 -0.0052,0.0103 -0.03617,-0.031 -0.06718,0 -0.02584,0.031 -0.03101,0.0879 -0.03617,-0.0517 -0.118856,-0.0517 0,0.15503 -0.05168,0.16536 -0.289388,0.0155 -0.315227,0.0362 0.02067,0.21187 -0.04651,0.27905 -0.04134,0.0155 -0.03617,-0.0413 0.0052,-0.0568 -0.0155,-0.0568 -0.02067,0.0103 -0.0052,0.0465 0.0155,0.0413 -0.01034,0.0517 -0.10852,0.0258 -0.149861,-0.0827 0,0.0775 -0.103353,0.0827 -0.02067,0.062 -0.09819,-0.0827 0,-0.0362 -0.03617,-0.54777 0,-0.0155 0.0052,-0.062 0,-0.0568 0,-0.0723 0,-0.0775 -0.03617,0 -0.0052,-0.21188 -0.201538,-0.29973 0.03101,-0.14986 -0.0155,-0.29972 -0.0052,0.0568 -0.03101,0.0517 -0.0155,-0.031 -0.0155,-0.12919 0,-0.093 -0.02067,-0.12403 -0.0155,0.0258 -0.0155,0.13436 0,0.0982 -0.03617,0.11886 -0.01033,-0.0362 -0.03101,-0.0517 0.0155,0.0775 0.0052,0.1602 -0.0155,0.0879 -0.0052,0.15503 -0.211874,0.0982 -0.24288,0.3824 -0.0052,0.0775 -0.01033,0.27906 0,0.20153 -0.0155,0.32039 -0.08268,-0.0207 -0.113688,0.0672 0.02067,0 -0.08268,-0.0827 -0.02584,0.11368 -0.09302,0.0879 -0.06201,-0.0258 -0.07751,-0.0775 -0.0155,0.0775 -0.0155,0.0724 -0.0155,0.0155 -0.05684,0.005 -0.04651,-0.0155 -0.07751,-0.005 0.02584,0.1757 0.02067,0.18603 0,0.11886 -0.08268,0.11369 -0.0052,-0.0827 0.0052,-0.37724 0.0052,-0.23771 -0.0052,-0.33589 0.08268,-0.031 0.09819,-0.10336 -0.09302,0.0207 -0.118855,-0.062 -0.01034,-0.0465 0.01033,-0.0775 0.02584,-0.031 0.02584,-0.0569 -0.160197,-0.093 -0.268717,-0.0207 -0.335897,-0.0362 -0.997356,-0.031 -0.248046,0 -0.335896,0.0517 0.05168,0.062 0.02584,0.13953 -0.02584,0.0724 -0.09302,0.093 0.0052,-0.0362 0.08268,0.0672 -0.0052,0.18087 0,0.7338 0,0 -0.113689,0.0155 -0.05168,-0.29973 -0.08268,-0.38241 -0.01033,0.10335 -0.04134,0.25321 -0.03617,0.19121 -0.04134,0.24288 -0.02584,-0.0775 -0.273885,-0.50126 -0.170532,-0.29972 -0.144694,-0.59428 h -0.149862 q -0.165364,-0.45992 -0.315226,-1.0852 0.124023,-0.0827 0.04651,-0.18087 -0.03101,-0.0155 -0.03101,0.0155 0,0.0362 -0.0155,0.031 -0.186035,-0.91984 -0.268718,-3.28145 0.0052,0.0465 0.0155,0.0517 0.06718,-0.0723 0.03101,-0.1912 -0.04134,-0.13436 -0.03101,-0.1602 -0.129191,-0.062 -0.129191,-0.32039 0.0052,-0.29456 -0.02067,-0.33073 -0.0155,0.0465 -0.01034,0.1757 0.0052,0.1602 -0.0052,0.22221 0,0.0155 -0.03617,0.12402 -0.02067,0.0724 0.0052,0.0775 -0.103353,0.0827 -0.103353,0.0827 0.0052,0.0103 0,0.0465 -0.01034,0.0362 0.0155,0.0723 -0.04651,-0.0155 -0.04651,0.0414 -0.0052,0.0672 -0.0155,0.0723 0.03101,0.031 0.04651,0.0982 0.02067,0.0672 0.03617,0.0879 -0.217041,2.82153 -0.268718,3.08508 -0.05684,-0.0155 -0.05684,0.0207 0.0052,0.0465 -0.04134,0.0413 0.0052,0.0362 0.04134,0.0775 0.03101,0.0465 0.04134,0.0723 -0.310058,1.01286 -0.335897,1.0542 h -0.129191 q -0.0052,0.0362 0.01034,0.0258 0.03617,-0.0207 0.05168,-0.0103 -0.0052,0.0517 0.02067,0.0827 -0.0052,0.0207 -0.04651,0.031 -0.04134,0.005 -0.03617,0.0362 0,0.18087 -0.124023,0.39791 -0.02067,0.0258 -0.113688,0.1757 -0.06718,0.10852 -0.09818,0.1757 0.0052,-0.0517 -0.06718,-0.11886 -0.04134,-0.0103 -0.04651,0.0413 -0.0052,0.0517 -0.03617,0.0465 -0.02067,-0.0258 -0.0155,-0.11886 0.0052,-0.093 -0.0155,-0.11885 -0.01034,-0.0207 -0.03101,0.0103 -0.03101,0.0362 -0.05684,0.0258 -0.02584,-0.0827 -0.07752,-0.0672 -0.07235,0.0207 -0.103352,0 -0.05168,0.0207 -0.04651,0.1757 0.0052,0.15503 -0.05168,0.1757 -0.02067,-0.0672 -0.03101,-0.26871 -0.01034,-0.1602 -0.03617,-0.18087 -0.07235,0.0517 -0.06718,0.031 0.0155,-0.0465 0.0052,-0.11368 -0.01034,-0.0672 0.01034,-0.10336 0.0052,0.0413 0.03617,0.0362 -0.0155,-0.16537 -0.02067,-0.14987 0.04134,0.0362 0.03617,0.10853 -0.0052,0.0672 -0.03617,0.0879 -0.02067,0.005 -0.0155,0.0362 0.04651,-0.005 0.04134,0.0258 -0.0052,0.0258 0.02584,0.0207 -0.0155,-0.0258 0.0052,-0.18087 0.0155,-0.13953 -0.02067,-0.16536 -0.0052,-0.0362 -0.08268,0.0672 0.0052,0.0103 -0.01034,0.18604 -0.01034,0.1602 0.04134,0.22738 -0.04134,0.0155 -0.0155,0.0672 0.03101,0.0517 -0.0155,0.0672 -0.0155,-0.0517 0,-0.0517 -0.02584,0.0517 -0.03101,0.18087 -0.0052,0.13952 -0.02067,0.18603 h -0.06718 v -1.18339 q -0.07235,0.0155 -0.08268,-0.11886 0,0.0207 0,0.0517 -0.0052,0.0724 -0.07235,0.0724 -0.170533,0 -0.160197,-0.005 v 0.40308 q -0.0155,0.005 -0.07235,0.0103 -0.04651,0.0103 -0.06201,0.0207 -0.04134,0.0568 -0.05684,0.25322 -0.0155,0.18086 -0.07752,0.23254 v -1.33325 h -1.896525 v 1.44694 q -0.04651,0.005 -0.06201,0.0879 -0.01034,0.0827 -0.04134,0.0982 -0.05684,-0.18603 -0.05168,-0.61495 0.01034,-0.49609 -0.0155,-0.65112 0,0.031 -0.01034,0.10852 -0.01034,0.0672 -0.0052,0.12403 -0.05168,0.005 -0.124023,0.0362 -0.08268,0.0362 -0.124024,0.0465 -0.04134,0.11885 -0.03617,0.39791 0.0052,0.31006 -0.0155,0.41858 -0.0052,-0.0207 -0.03617,-0.0258 -0.03101,0 -0.03101,0.0258 -0.02067,-0.0672 -0.04134,-0.1757 -0.02584,-0.15503 -0.03101,-0.17054 -0.04134,-0.1757 -0.144694,-0.13952 -0.103352,0.0413 -0.08268,0.0207 -0.08268,0.0879 -0.06718,0.44442 0.02067,0.52193 0.0155,0.53743 h -0.09819 v 0.41341 q 1.824178,0 9.994221,0.005 6.128825,0.005 9.973551,-0.0207 v -0.39791 q -0.124023,-0.0362 -0.118855,-0.0155 z m -11.001913,-0.91984 q -0.0052,0 0,0.0103 z m -7.115844,0.20153 q 0,0 0,0.0672 0,0.0413 0.03617,0.031 -0.0052,-0.0155 -0.0052,-0.062 0,-0.0207 -0.03101,-0.0362 z" style="stroke-width:0.26458332" id="path859"/> </g> </g> </g> </g> </svg>