<svg xmlns="http://www.w3.org/2000/svg" xmlns:xlink="http://www.w3.org/1999/xlink" width="1024" height="1024" preserveAspectRatio="xMidYMid meet" viewBox="0 0 15 15" style="-ms-transform: rotate(360deg); -webkit-transform: rotate(360deg); transform: rotate(360deg);"><g fill="none"><path d="M3.5 10V7a1.5 1.5 0 1 1 3 0v3m5-5v5m0-2.5h-2a1 1 0 0 0 0 2h2m-8-1h3m-4-6h10a2 2 0 0 1 2 2v6a2 2 0 0 1-2 2h-10a2 2 0 0 1-2-2v-6a2 2 0 0 1 2-2z" stroke="#626262"/></g><rect x="0" y="0" width="15" height="15" fill="rgba(0, 0, 0, 0)" /></svg>