<svg xmlns="http://www.w3.org/2000/svg" xmlns:xlink="http://www.w3.org/1999/xlink" width="1025" height="1024" preserveAspectRatio="xMidYMid meet" viewBox="0 0 1025 1024" style="-ms-transform: rotate(360deg); -webkit-transform: rotate(360deg); transform: rotate(360deg);"><path d="M512.278 1024q-76-38-138.5-76t-111.5-80.5t-86.5-78t-65-86t-46.5-86t-31-97t-19-99t-10-111.5t-3.5-116t-.5-130q244-64 512-64q267 0 512 64q0 88-.5 130.5t-3.5 116t-10 111.5t-19 99t-31 96.5t-46.5 86t-65 86t-86.5 78t-111.5 80.5t-138.5 76zm-384-850q0 89 1 131.5t8 112.5t21.5 107t41.5 90t68 89.5t102 78.5t142 81q81-39 142-81t102-78.5t68-89.5t41.5-90t21.5-107t8-112.5t1-131.5q-183-46-384-46t-384 46z" fill="#626262"/><rect x="0" y="0" width="1025" height="1024" fill="rgba(0, 0, 0, 0)" /></svg>