<svg width="375" height="295" viewBox="0 0 375 295" fill="none" xmlns="http://www.w3.org/2000/svg">
<path opacity="0.1" d="M198.69 46.3964C171.714 45.4593 146.021 36.7589 121.483 27.2381C96.9448 17.7173 72.6485 7.16771 46.3181 2.14491C29.3827 -1.0995 10.0174 -1.55764 -3.62926 7.51339C-16.759 16.2596 -21.0022 31.3155 -23.2864 45.2968C-24.9995 55.8214 -26.0124 66.8915 -21.3065 76.7414C-18.0428 83.5801 -12.2449 89.3276 -8.2351 95.8789C5.71164 118.669 -4.14612 146.773 -19.2641 169.026C-26.35 179.463 -34.578 189.434 -40.0508 200.537C-45.5237 211.641 -48.0538 224.381 -43.2687 235.718C-38.5211 246.963 -27.2128 255.392 -14.9667 261.327C9.91316 273.38 39.2197 276.833 67.8217 278.786C131.103 283.114 194.726 281.239 258.174 279.365C281.658 278.67 305.241 277.966 328.341 274.338C341.171 272.322 354.418 269.124 363.729 261.427C375.55 251.627 378.48 235.03 370.561 222.744C357.273 202.132 320.543 197.01 311.244 174.89C306.129 162.716 311.381 149.151 318.809 137.86C334.748 113.634 361.462 92.3846 362.871 64.6925C363.838 45.6758 350.996 26.63 331.138 17.6298C310.322 8.19642 281.462 9.3834 266.115 24.9974C250.292 41.0362 222.507 47.221 198.69 46.3964Z" fill="#EB4647"/>
<path d="M340.004 277.858C339.587 276.35 339.17 274.821 338.337 273.509C337.564 272.396 336.644 271.392 335.602 270.523C332.581 267.779 328.867 264.992 324.861 265.688C323.619 265.959 322.419 266.396 321.293 266.987C320.71 267.258 320.122 267.529 319.522 267.758C317.831 268.464 315.962 268.627 314.174 268.224C313.257 267.979 312.402 267.537 311.498 267.262C311.067 267.134 310.626 267.039 310.181 266.979C311.054 266.584 311.903 266.138 312.723 265.642C317.221 262.864 320.81 257.866 320.305 252.577C320.139 250.786 319.522 249.074 318.913 247.388C318.38 245.913 317.845 244.437 317.308 242.96C316.616 241.04 315.904 239.087 314.637 237.492C313.228 235.718 311.227 234.514 309.16 233.614C304.716 231.686 299.86 231.007 295.067 230.349L294.733 230.303V178.559C294.736 178.12 294.652 177.685 294.486 177.278C294.319 176.871 294.074 176.501 293.764 176.19C293.454 175.878 293.086 175.631 292.68 175.462C292.274 175.294 291.839 175.207 291.399 175.207H285.092C284.815 173.507 284.537 171.81 284.259 170.113C283.463 165.278 282.642 160.346 280.412 155.99C278.953 153.137 276.627 150.422 273.497 149.859C272.88 149.802 272.275 149.662 271.696 149.443C270.779 148.993 270.279 147.994 269.57 147.252C267.753 145.349 264.798 145.32 262.359 144.337C260.208 143.483 258.449 141.871 256.49 140.634C254.531 139.397 252.093 138.514 249.921 139.322C249.921 139.481 249.892 139.635 249.875 139.793L248.483 139.168C246.983 138.477 245.449 137.761 244.244 136.619C242.694 135.158 241.868 133.229 241.227 131.172C241.16 130.955 241.097 130.755 241.035 130.526C243.698 127.807 245.502 124.363 246.22 120.626C246.333 120.989 246.449 121.355 246.562 121.722C246.664 122.094 246.804 122.456 246.979 122.8C247.036 122.914 247.102 123.024 247.175 123.129C247.312 123.334 247.484 123.513 247.683 123.658C247.88 123.802 248.112 123.892 248.354 123.921C248.47 123.937 248.588 123.937 248.704 123.921C249.019 123.854 249.312 123.71 249.557 123.501C249.801 123.292 249.99 123.026 250.105 122.725C250.171 122.562 250.22 122.391 250.251 122.217C250.267 122.113 250.276 122.007 250.28 121.901C250.28 121.867 250.28 121.834 250.28 121.801C250.28 121.768 250.28 121.655 250.28 121.584C250.28 121.513 250.28 121.505 250.28 121.468C250.28 121.43 250.28 121.326 250.28 121.259V121.151C250.28 121.068 250.255 120.985 250.238 120.905C250.221 120.826 250.238 120.86 250.238 120.839C250.217 120.73 250.192 120.626 250.171 120.518C250.169 120.495 250.169 120.471 250.171 120.447L250.109 120.185L250.071 120.027V119.985C250.03 119.823 249.992 119.656 249.955 119.489C249.652 118.043 249.574 116.558 249.725 115.087C249.977 112.93 250.375 110.793 250.918 108.69L251.005 108.311L251.105 107.869C251.172 107.57 251.234 107.27 251.297 106.97C251.351 106.716 251.401 106.458 251.447 106.199C251.493 105.941 251.526 105.745 251.559 105.516C251.559 105.487 251.559 105.462 251.559 105.433C251.814 103.881 251.883 102.304 251.764 100.735C251.568 98.5569 250.893 96.4953 249.409 94.8501C248.362 93.6882 246.987 92.8302 246.016 91.6099C245.103 90.4646 244.59 89.0568 243.648 87.9365C241.043 84.8295 234.362 82.4347 230.26 82.0183C225.562 81.5435 217.972 82.7429 214.188 85.5167C212.787 86.5413 211.828 88.0156 210.853 89.4192C209.061 92.0264 207.022 94.6252 204.151 96.0829C203.063 96.6327 201.821 97.0492 201.099 98.0071C200.664 98.6565 200.379 99.395 200.266 100.169C199.712 102.883 199.424 105.645 199.407 108.415C199.345 109.627 199.5 110.84 199.866 111.997C199.924 112.155 199.995 112.317 200.07 112.472C200.137 112.609 200.212 112.746 200.291 112.888L200.341 112.976C200.844 113.697 201.291 114.456 201.679 115.245C201.771 115.468 201.838 115.7 201.879 115.937C201.95 116.548 201.911 117.168 201.762 117.765C201.762 117.857 201.729 117.944 201.708 118.032L201.67 118.223C201.67 118.282 201.67 118.344 201.637 118.402C201.604 118.583 201.575 118.762 201.55 118.94C201.55 119.065 201.525 119.194 201.52 119.323C201.491 119.839 201.59 120.354 201.808 120.822C201.863 120.934 201.928 121.04 202.004 121.139C202.153 121.338 202.346 121.502 202.567 121.618C203.063 121.804 203.581 121.927 204.109 121.984C205.668 122.334 206.643 123.525 207.277 124.987C207.417 125.315 207.541 125.65 207.648 125.991C207.908 126.845 208.103 127.718 208.231 128.602C208.94 128.565 209.352 127.94 209.603 127.257C209.681 127.032 209.746 126.802 209.798 126.57C209.894 126.132 209.99 125.695 210.09 125.258C211.735 128.746 214.386 131.664 217.701 133.637C217.818 133.979 217.931 134.325 218.035 134.674C218.581 136.561 218.843 138.539 217.897 140.189C217.222 141.359 216.084 142.084 214.817 142.583C214.635 142.339 214.4 142.138 214.129 141.996C213.029 141.446 211.712 142.117 210.795 142.937C209.127 144.445 207.769 146.607 205.572 147.102C204.78 147.286 203.905 147.248 203.242 147.731C202.805 148.141 202.441 148.621 202.162 149.151C201.686 149.834 201.045 150.387 200.3 150.758C199.554 151.129 198.727 151.307 197.894 151.275C197.131 151.238 196.227 151.063 195.706 151.621C195.318 152.038 195.289 152.7 194.872 153.095C194.309 153.645 193.397 153.375 192.613 153.341C192.047 153.343 191.487 153.459 190.967 153.684C190.448 153.909 189.979 154.237 189.591 154.649C189.542 152.969 188.898 151.36 187.774 150.109C186.648 148.951 185.085 148.356 183.751 147.448C180.417 145.182 178.75 141.201 177.011 137.552C175.273 133.904 172.981 130.056 169.188 128.727C168.317 128.419 167.104 128.394 166.712 129.239C166.579 129.592 166.557 129.977 166.649 130.343C167.016 132.284 168.4 133.841 169.596 135.403C171.61 138.035 173.298 141.255 172.81 144.545C172.239 148.439 168.767 151.463 168.35 155.374C168.167 157.098 168.604 158.83 168.6 160.563C168.6 161.646 168.429 162.741 168.663 163.795C168.911 164.596 169.204 165.381 169.542 166.148C169.918 167.407 170.111 168.712 170.117 170.026C170.412 175.545 170.705 181.067 170.997 186.589C171.218 190.708 170.317 194.773 169.409 198.825C168.282 201.228 167.408 203.74 166.799 206.322C165.774 210.833 165.745 215.639 167.216 220.029C168.004 222.415 169.213 224.652 169.859 227.08C169.859 227.134 169.884 227.184 169.896 227.234C169.959 227.75 170.03 228.267 170.126 228.779C170.244 229.371 170.399 229.955 170.588 230.528C170.777 231.515 171.085 232.476 171.505 233.39C172.09 234.55 172.948 235.55 174.006 236.305C173.406 237.479 172.435 238.425 171.789 239.574C170.663 241.565 170.618 244.01 171.026 246.267C171.814 250.624 174.169 254.518 177.278 257.683C177.139 257.675 177 257.675 176.861 257.683C175.844 257.795 174.868 258.145 174.01 258.703C167.429 262.548 163.665 270.781 165.04 278.32C165.311 279.794 165.782 281.285 166.766 282.406C167.585 283.298 168.638 283.942 169.805 284.267C170.534 284.486 171.284 284.626 172.043 284.684C177.174 285.1 182.143 282.722 187.286 282.522C188.991 282.495 190.697 282.575 192.392 282.76C194.868 282.965 197.349 283.096 199.836 283.151C203.875 283.247 206.151 282.172 208.731 279.153C209.365 278.404 209.894 277.571 210.303 276.679C212.495 276.554 214.917 276.362 216.672 276.217L216.697 276.462C216.793 277.295 216.939 278.253 217.605 278.782C217.982 279.037 218.408 279.21 218.856 279.29C223.07 280.327 227.334 281.373 231.669 281.373C233.705 281.33 235.736 281.173 237.754 280.902L245.382 280.023C247.602 280.309 249.793 280.785 251.93 281.448C254.131 282.197 256.19 283.309 258.341 284.184C263.343 286.212 268.728 286.937 274.059 287.645C274.968 287.766 276.01 287.849 276.685 287.228C277.552 286.395 277.26 285 277.019 283.834C276.919 283.359 276.844 282.876 276.781 282.393C280.38 283.338 283.9 284.559 287.31 286.046L287.91 286.308C288.081 287.216 288.923 287.945 289.727 288.924C289.992 289.335 290.301 289.717 290.649 290.061C291.045 290.322 291.498 290.486 291.97 290.54C297.603 291.588 303.355 291.847 309.059 291.31C310.226 291.151 311.406 291.111 312.582 291.189C313.444 291.306 314.295 291.498 315.124 291.764L319.951 293.143C323.506 294.163 327.154 295.192 330.842 294.963C331.592 294.914 332.336 294.806 333.068 294.642C335.986 293.967 338.708 292.335 340.108 289.711C341.988 286.141 341.075 281.756 340.004 277.858ZM198.428 212.715C198.279 214.521 197.807 216.286 197.035 217.925C196.519 218.971 195.852 219.933 195.368 220.982C194.91 221.932 194.568 223.727 194.364 225.697C194.114 225.655 193.859 225.618 193.609 225.589C193.98 224.289 194.259 222.957 194.63 221.653C195.51 218.554 196.956 215.626 198.428 212.715Z" fill="url(#paint0_linear)"/>
<path d="M204.851 276.771C203.971 274.771 203.138 272.472 204.017 270.473C204.591 269.296 205.577 268.37 206.789 267.87C207.988 267.382 209.252 267.07 210.54 266.946C214.585 266.416 218.678 266.36 222.736 266.779C223.032 269.12 222.407 271.494 221.869 273.755C221.382 275.838 221.102 276.146 218.952 276.254C217.56 276.329 205.18 277.508 204.851 276.771Z" fill="#FBBEBE"/>
<path d="M241.968 263.285C274.887 263.285 301.573 255.826 301.573 246.625C301.573 237.425 274.887 229.966 241.968 229.966C209.049 229.966 182.363 237.425 182.363 246.625C182.363 255.826 209.049 263.285 241.968 263.285Z" fill="#464353"/>
<path opacity="0.1" d="M241.968 263.285C274.887 263.285 301.573 255.826 301.573 246.625C301.573 237.425 274.887 229.966 241.968 229.966C209.049 229.966 182.363 237.425 182.363 246.625C182.363 255.826 209.049 263.285 241.968 263.285Z" fill="black"/>
<path d="M252.656 158.68C250.613 162.625 247.219 165.705 243.094 167.36C240.665 168.245 238.109 168.731 235.524 168.801C232.694 168.93 229.806 168.747 227.146 167.781C223.578 166.49 220.615 163.849 218.393 160.771C216.172 157.693 214.642 154.178 213.312 150.634C212.612 148.789 211.945 146.823 212.274 144.874C214.421 144.387 216.772 143.67 217.881 141.767C218.827 140.134 218.564 138.177 218.018 136.311C217.864 135.782 217.685 135.257 217.505 134.753C217.089 133.546 215.651 131.251 216.651 130.218C217.289 129.564 219.96 129.231 220.882 128.806C223.72 127.498 226.338 125.607 229.456 124.987C232.152 124.45 234.937 124.954 237.629 125.512C237.987 125.564 238.33 125.687 238.638 125.874C238.99 126.17 239.25 126.56 239.388 126.998C240.155 128.864 240.605 130.926 241.222 132.871C241.864 134.908 242.69 136.819 244.236 138.264C245.441 139.393 246.974 140.101 248.475 140.788L252.168 142.479C252.825 142.725 253.421 143.11 253.914 143.608C254.397 144.271 254.686 145.056 254.748 145.874C255.41 150.256 254.678 154.736 252.656 158.68Z" fill="#FBBEBE"/>
<path opacity="0.1" d="M241.206 132.871C238.266 135.926 234.395 137.922 230.199 138.544C226.003 139.167 221.719 138.381 218.018 136.311C217.864 135.782 217.685 135.257 217.505 134.753C217.089 133.546 215.65 131.251 216.651 130.218C217.289 129.564 219.96 129.231 220.882 128.806C223.72 127.498 226.338 125.607 229.456 124.987C232.152 124.45 234.937 124.954 237.629 125.512C237.986 125.564 238.33 125.687 238.638 125.874C238.99 126.17 239.25 126.56 239.388 126.998C240.139 128.864 240.589 130.926 241.206 132.871Z" fill="black"/>
<path d="M227.38 137.923C237.969 137.923 246.553 129.346 246.553 118.765C246.553 108.184 237.969 99.6064 227.38 99.6064C216.79 99.6064 208.206 108.184 208.206 118.765C208.206 129.346 216.79 137.923 227.38 137.923Z" fill="#FBBEBE"/>
<path d="M285.797 180.941L284.221 171.404C283.425 166.619 282.604 161.742 280.378 157.431C278.915 154.607 276.593 151.917 273.463 151.359C272.847 151.304 272.241 151.164 271.663 150.942C270.746 150.501 270.245 149.509 269.541 148.776C267.724 146.894 264.764 146.865 262.33 145.907C260.179 145.074 258.42 143.47 256.461 142.246C254.502 141.021 252.064 140.163 249.896 140.946C249.546 144.674 249.175 148.485 247.591 151.879C246.56 154.089 245.048 156.041 243.165 157.591C241.282 159.142 239.077 160.252 236.709 160.842C234.341 161.431 231.872 161.484 229.481 160.997C227.09 160.51 224.838 159.495 222.891 158.027C219.177 155.232 216.797 150.921 215.688 146.411C215.417 145.311 215.109 144.049 214.096 143.545C213 142.996 211.682 143.662 210.761 144.47C209.073 145.965 207.731 148.106 205.538 148.61C204.747 148.793 203.871 148.756 203.213 149.235C202.775 149.638 202.409 150.113 202.129 150.638C201.649 151.315 201.008 151.863 200.264 152.231C199.519 152.599 198.695 152.776 197.865 152.745C197.102 152.708 196.198 152.533 195.677 153.087C195.289 153.504 195.26 154.153 194.843 154.541C194.28 155.086 193.367 154.82 192.584 154.79C191.1 154.728 189.72 155.678 188.87 156.873C188.02 158.068 187.619 159.547 187.203 160.979C191.758 171.117 195.927 181.266 200.482 191.404C200.696 191.786 200.809 192.215 200.812 192.653C200.72 193.107 200.526 193.535 200.245 193.902C198.011 197.488 198.082 201.999 198.328 206.214C198.573 210.429 198.874 214.881 196.99 218.658C196.477 219.695 195.81 220.645 195.322 221.682C194.18 224.031 193.768 231.544 194.434 234.068H288.635C286.839 229.133 287.522 219.229 287.898 213.99C288.16 210.324 287.481 206.664 287.189 202.999C286.576 195.514 287.035 188.413 285.797 180.941Z" fill="#F86D70"/>
<path d="M290.619 231.153C292.007 230.624 293.537 230.816 295.025 231.016C299.814 231.669 304.674 232.34 309.114 234.252C311.198 235.143 313.182 236.334 314.591 238.087C315.841 239.666 316.57 241.598 317.262 243.502L318.863 247.871C319.472 249.537 320.088 251.236 320.259 253.006C320.759 258.249 317.171 263.193 312.657 265.917C308.142 268.641 302.828 269.611 297.651 270.627C292.474 271.644 287.276 272.768 282.12 273.959C279.716 274.583 277.276 275.063 274.814 275.396C269.295 276.021 263.526 275.1 258.283 276.925C256.199 277.653 254.152 278.736 251.989 279.24C250.554 279.555 249.102 279.788 247.641 279.94L237.717 281.073C235.699 281.342 233.667 281.498 231.631 281.539C227.296 281.539 223.032 280.515 218.822 279.49C218.375 279.412 217.949 279.24 217.572 278.986C216.905 278.461 216.759 277.533 216.663 276.691C216.238 272.968 215.866 269.24 215.546 265.509C215.446 264.297 215.371 262.985 216.034 261.964C216.868 260.715 218.493 260.324 219.977 260.082C226.269 259.053 232.643 258.611 239.017 258.762C241.439 256.342 245.432 256.329 248.604 255.013C249.771 254.478 250.9 253.864 251.985 253.177C257.656 249.87 263.994 247.868 270.537 247.317C271.819 247.278 273.093 247.096 274.334 246.775C276.789 246.013 279.028 243.939 281.549 244.447C281.862 243.585 282.079 242.431 282.8 241.84C283.158 241.536 283.6 241.332 283.929 241.007C284.626 240.303 284.688 239.195 284.584 238.212C284.48 237.229 284.246 236.222 284.5 235.264C284.606 234.901 284.762 234.555 284.963 234.235C286.218 232.044 288.106 230.945 290.619 231.153Z" fill="#464353"/>
<path opacity="0.05" d="M290.619 231.153C292.007 230.624 293.537 230.816 295.025 231.016C299.814 231.669 304.674 232.34 309.114 234.252C311.198 235.143 313.182 236.334 314.591 238.087C315.841 239.666 316.57 241.598 317.262 243.502L318.863 247.871C319.472 249.537 320.088 251.236 320.259 253.006C320.759 258.249 317.171 263.193 312.657 265.917C308.142 268.641 302.828 269.611 297.651 270.627C292.474 271.644 287.276 272.768 282.12 273.959C279.716 274.583 277.276 275.063 274.814 275.396C269.295 276.021 263.526 275.1 258.283 276.925C256.199 277.653 254.152 278.736 251.989 279.24C250.554 279.555 249.102 279.788 247.641 279.94L237.717 281.073C235.699 281.342 233.667 281.498 231.631 281.539C227.296 281.539 223.032 280.515 218.822 279.49C218.375 279.412 217.949 279.24 217.572 278.986C216.905 278.461 216.759 277.533 216.663 276.691C216.238 272.968 215.866 269.24 215.546 265.509C215.446 264.297 215.371 262.985 216.034 261.964C216.868 260.715 218.493 260.324 219.977 260.082C226.269 259.053 232.643 258.611 239.017 258.762C241.439 256.342 245.432 256.329 248.604 255.013C249.771 254.478 250.9 253.864 251.985 253.177C257.656 249.87 263.994 247.868 270.537 247.317C271.819 247.278 273.093 247.096 274.334 246.775C276.789 246.013 279.028 243.939 281.549 244.447C281.862 243.585 282.079 242.431 282.8 241.84C283.158 241.536 283.6 241.332 283.929 241.007C284.626 240.303 284.688 239.195 284.584 238.212C284.48 237.229 284.246 236.222 284.5 235.264C284.606 234.901 284.762 234.555 284.963 234.235C286.218 232.044 288.106 230.945 290.619 231.153Z" fill="black"/>
<path d="M208.685 279.344C206.105 282.331 203.834 283.397 199.795 283.301C197.31 283.243 194.829 283.114 192.35 282.914C190.656 282.731 188.952 282.651 187.248 282.676C182.105 282.876 177.14 285.229 172.009 284.817C171.251 284.757 170.5 284.618 169.771 284.4C168.614 284.078 167.568 283.443 166.749 282.564C165.766 281.452 165.295 279.977 165.024 278.52C163.652 271.048 167.412 262.91 173.994 259.107C174.852 258.553 175.828 258.207 176.845 258.095C177.841 258.091 178.826 258.307 179.729 258.728L179.791 258.753C182.465 259.853 184.894 261.472 186.936 263.518C187.245 263.872 187.615 264.17 188.028 264.397C188.44 264.552 188.876 264.634 189.316 264.638L194.793 264.984C195.721 265.012 196.643 265.139 197.544 265.363C198.537 265.709 199.504 266.127 200.436 266.612C203.383 267.928 206.651 268.278 209.836 268.786C210.143 268.803 210.435 268.92 210.669 269.12C210.796 269.278 210.885 269.463 210.928 269.661C211.372 271.335 211.4 273.093 211.01 274.781C210.619 276.469 209.821 278.035 208.685 279.344Z" fill="#3F3D56"/>
<path opacity="0.1" d="M179.775 258.753C177.65 260.781 175.806 263.084 174.294 265.6C171.866 269.754 170.341 274.371 169.817 279.153C169.618 280.897 169.603 282.657 169.771 284.405C168.613 284.081 167.567 283.444 166.749 282.564C165.766 281.452 165.295 279.977 165.024 278.52C163.652 271.048 167.412 262.91 173.994 259.107C174.852 258.553 175.828 258.207 176.845 258.095C177.841 258.091 178.826 258.307 179.729 258.728L179.775 258.753Z" fill="black"/>
<path d="M285.851 269.111C288.915 269.028 292.353 268.874 294.604 270.936C296.751 272.885 297.034 276.1 297.176 278.995L297.339 282.356C297.389 283.38 297.43 284.438 297.018 285.388C296.284 287.054 294.271 287.857 292.433 287.762C290.594 287.666 288.906 286.862 287.226 286.137C282.666 284.174 277.918 282.68 273.055 281.677C273.213 279.353 273.477 277.04 273.847 274.738C274.101 273.143 274.143 270.473 275.21 269.149C276.339 267.749 277.811 268.507 279.344 268.766C281.497 269.094 283.676 269.21 285.851 269.111Z" fill="#FBBEBE"/>
<path d="M204.896 235.343C204.896 235.759 204.242 235.343 204.184 234.897C203.725 231.528 201.049 228.75 197.931 227.4C194.814 226.051 191.262 225.98 187.886 226.301C182.78 226.784 177.07 228.737 175.181 233.506C174.74 234.622 174.54 235.83 173.998 236.9C173.397 238.075 172.418 239.012 171.768 240.153C170.646 242.127 170.601 244.547 171.005 246.779C172.093 252.735 176.169 257.829 181.109 261.356C186.048 264.884 191.821 266.991 197.577 268.891C212.798 273.906 228.414 277.633 244.261 280.031C246.828 280.419 249.421 280.777 251.88 281.602C254.081 282.339 256.14 283.442 258.291 284.309C263.293 286.316 268.674 287.033 274.005 287.736C274.914 287.853 275.956 287.936 276.627 287.32C277.494 286.516 277.206 285.117 276.96 283.963C276.055 279.58 276.811 275.018 279.082 271.16C279.974 269.661 281.133 268.124 280.966 266.387C280.766 264.363 278.748 262.931 276.739 262.606C274.73 262.281 272.688 262.76 270.67 263.022C269.974 263.114 269.216 263.172 268.586 262.818C268.286 262.616 268.015 262.375 267.778 262.102C266.388 260.762 264.609 259.897 262.697 259.63C260.784 259.363 258.836 259.707 257.132 260.615C256.386 261.031 255.256 260.103 254.481 259.753L245.724 255.784C235.653 251.232 225.533 246.659 214.879 243.777C214.029 243.61 213.221 243.274 212.503 242.789C211.974 242.373 211.595 241.807 211.107 241.344C210.044 240.341 208.564 239.941 207.289 239.229C206.014 238.516 204.596 236.771 204.896 235.343Z" fill="#464353"/>
<path d="M340.025 289.773C338.624 292.368 335.907 293.984 332.989 294.65C332.257 294.815 331.512 294.921 330.763 294.967C327.074 295.196 323.431 294.175 319.876 293.168L315.049 291.802C314.219 291.541 313.369 291.351 312.506 291.235C311.333 291.157 310.154 291.197 308.988 291.356C303.284 291.886 297.533 291.628 291.899 290.59C291.428 290.539 290.975 290.377 290.578 290.119C290.23 289.778 289.921 289.399 289.656 288.99C288.343 287.412 286.93 286.491 288.485 284.409C289.381 283.201 291.044 282.597 291.741 281.21C292.437 279.823 291.991 277.853 291.578 276.421C291.015 274.442 289.165 273.589 288.502 271.773C288.006 270.403 288.839 268.812 290.094 268.066C291.349 267.321 292.899 267.262 294.346 267.454C295.792 267.645 297.209 268.054 298.664 268.166C302.94 268.508 307.313 266.304 311.419 267.545C312.323 267.82 313.178 268.258 314.095 268.499C315.882 268.899 317.75 268.737 319.442 268.037C320.043 267.812 320.63 267.541 321.214 267.275C322.339 266.689 323.538 266.257 324.778 265.988C328.783 265.301 332.497 268.07 335.519 270.773C336.556 271.633 337.474 272.628 338.249 273.73C339.083 275.03 339.525 276.542 339.916 278.033C341.021 281.893 341.934 286.233 340.025 289.773Z" fill="#3F3D56"/>
<path opacity="0.1" d="M340.025 289.773C338.624 292.368 335.907 293.984 332.989 294.65C334.124 292.447 334.636 289.976 334.469 287.503C334.219 283.543 332.476 279.811 330.255 276.521C328.888 274.495 327.333 272.603 325.611 270.869C324.286 269.536 322.656 268.478 321.23 267.258C322.356 266.673 323.554 266.24 324.794 265.971C328.8 265.284 332.514 268.054 335.536 270.757C336.573 271.617 337.491 272.611 338.266 273.714C339.099 275.013 339.541 276.525 339.933 278.016C341.021 281.893 341.934 286.233 340.025 289.773Z" fill="black"/>
<path d="M214.133 87.6699C212.733 88.682 211.774 90.1355 210.799 91.5307C209.002 94.1088 206.968 96.6826 204.096 98.1195C203.008 98.6651 201.766 99.0774 201.045 100.027C200.617 100.669 200.339 101.399 200.232 102.164C199.682 104.85 199.395 107.584 199.374 110.327C199.374 111.693 199.432 113.1 200.037 114.342C200.608 115.508 201.637 116.495 201.85 117.765C202.012 118.756 201.645 119.743 201.516 120.739C201.387 121.734 201.612 122.913 202.533 123.388C203.03 123.574 203.548 123.696 204.075 123.75C206.847 124.366 207.777 127.615 208.198 130.301C209.14 130.247 209.565 129.168 209.761 128.29L212.649 115.458C212.962 114.067 213.483 112.455 214.871 111.968C215.801 111.647 216.818 111.947 217.789 112.03C221.603 112.342 224.829 109.398 228.559 108.586C229.754 108.346 230.975 108.267 232.19 108.348C235.133 108.494 238.555 109.702 239.18 112.447C239.284 112.892 239.347 113.425 239.763 113.646C240.18 113.867 240.597 113.679 241.056 113.646C242.923 113.459 244.023 115.558 244.561 117.274L246.52 123.521C246.812 124.466 247.304 125.578 248.329 125.699C249.275 125.816 250.08 124.92 250.221 124.033C250.363 123.146 250.055 122.226 249.85 121.334C248.929 117.232 250.338 113.034 251.197 108.923C252.055 104.812 252.21 100.089 249.329 96.9242C248.283 95.7789 246.908 94.9251 245.932 93.7173C245.024 92.5844 244.511 91.1934 243.569 90.0814C240.964 87.0119 234.282 84.6421 230.185 84.2506C225.521 83.7383 217.918 84.9253 214.133 87.6699Z" fill="#3F3D56"/>
<g opacity="0.1">
<path opacity="0.1" d="M248.345 122.78C247.32 122.655 246.828 121.53 246.536 120.601C245.883 118.516 245.23 116.434 244.577 114.354C244.04 112.634 242.939 110.535 241.072 110.727C240.655 110.772 240.163 110.943 239.78 110.727C239.396 110.51 239.3 109.973 239.196 109.527C238.571 106.778 235.149 105.575 232.206 105.429C230.991 105.349 229.77 105.429 228.576 105.666C224.824 106.499 221.619 109.415 217.805 109.111C216.821 109.031 215.804 108.732 214.887 109.052C213.483 109.535 212.978 111.135 212.666 112.542L209.777 125.37C209.581 126.253 209.156 127.332 208.214 127.382C207.797 124.7 206.864 121.451 204.092 120.835C203.565 120.777 203.047 120.655 202.55 120.472C202.187 120.274 201.903 119.958 201.745 119.577C201.67 119.964 201.583 120.351 201.533 120.739C201.407 121.73 201.628 122.913 202.55 123.388C203.046 123.574 203.564 123.696 204.092 123.75C206.864 124.366 207.793 127.615 208.214 130.301C209.156 130.247 209.581 129.168 209.777 128.29L212.666 115.458C212.978 114.067 213.499 112.455 214.887 111.968C215.817 111.647 216.834 111.947 217.805 112.03C221.619 112.342 224.845 109.398 228.576 108.586C229.765 108.348 230.98 108.268 232.19 108.348C235.132 108.494 238.554 109.702 239.18 112.447C239.284 112.892 239.346 113.425 239.763 113.646C240.18 113.867 240.597 113.679 241.055 113.646C242.923 113.459 244.023 115.558 244.561 117.274C245.211 119.359 245.864 121.441 246.52 123.521C246.811 124.466 247.303 125.578 248.329 125.699C249.275 125.816 250.079 124.92 250.221 124.033C250.285 123.287 250.2 122.535 249.971 121.822C249.823 122.122 249.59 122.373 249.301 122.543C249.012 122.713 248.68 122.795 248.345 122.78Z" fill="black"/>
<path opacity="0.1" d="M201.854 114.85C201.641 113.579 200.603 112.592 200.04 111.426C199.679 110.64 199.469 109.792 199.424 108.927C199.424 109.394 199.382 109.86 199.378 110.331C199.378 111.697 199.436 113.105 200.04 114.346C200.503 115.291 201.266 116.124 201.649 117.086C201.852 116.359 201.921 115.601 201.854 114.85Z" fill="black"/>
<path opacity="0.1" d="M251.213 105.987C250.455 109.619 249.271 113.317 249.638 116.957C249.875 114.271 250.659 111.568 251.213 108.902C251.675 106.879 251.838 104.8 251.697 102.73C251.606 103.825 251.444 104.913 251.213 105.987Z" fill="black"/>
</g>
<path d="M203.496 199.35C202.992 207.622 196.919 214.456 194.605 222.411C194.03 224.402 193.684 226.468 192.859 228.363C191.191 232.173 187.761 234.939 184.106 236.888C182.772 237.658 181.313 238.188 179.796 238.454C178.128 238.649 176.44 238.331 174.957 237.543C173.475 236.755 172.267 235.534 171.497 234.043C170.542 232.107 170.409 229.879 169.829 227.796C169.183 225.393 167.975 223.177 167.187 220.816C165.736 216.472 165.765 211.716 166.77 207.251C167.722 203.368 169.228 199.643 171.242 196.189C171.534 195.677 171.83 195.169 172.134 194.665C172.994 193.208 173.96 191.816 175.023 190.5C177.524 187.489 180.738 185.173 183.918 182.891C184.161 182.691 184.446 182.549 184.752 182.474H184.802C185.16 182.462 185.516 182.545 185.831 182.716C190.242 184.621 194.475 186.913 198.482 189.563C199.915 190.517 202.179 191.583 202.929 193.207C203.679 194.831 203.604 197.584 203.496 199.35Z" fill="#FBBEBE"/>
<path d="M186.948 161.288C186.542 161.712 186.227 162.215 186.023 162.766C182.654 170.353 180.664 178.479 180.146 186.764C180.155 187.168 180.062 187.568 179.875 187.926C179.691 188.164 179.486 188.386 179.262 188.588C179.059 188.828 178.908 189.108 178.817 189.409C178.727 189.71 178.699 190.027 178.736 190.339C178.772 190.651 178.873 190.953 179.031 191.225C179.189 191.497 179.401 191.733 179.654 191.92C180.342 190.625 181.988 190.204 183.451 190.092C190.458 189.538 197.302 192.795 204.33 192.549C203.834 190.837 203.121 189.192 202.717 187.459C200.928 179.767 205.388 171.391 202.654 163.982C202.108 162.5 201.195 161.042 199.757 160.392C199.162 160.152 198.539 159.987 197.902 159.901C196.127 159.58 192.592 158.21 190.875 158.76C190.241 158.964 189.991 159.559 189.466 159.917C188.686 160.43 187.628 160.609 186.948 161.288Z" fill="#F86D70"/>
<path opacity="0.1" d="M189.82 230.153C188.749 231.97 187.227 233.48 185.402 234.538C183.577 235.597 181.51 236.168 179.4 236.197C178.258 236.227 177.122 236.018 176.065 235.584C173.402 234.41 171.897 231.503 171.339 228.646C170.78 225.789 170.955 222.84 170.559 219.954C170.242 217.655 169.567 215.422 169.217 213.128C168.358 207.451 170.051 201.845 171.255 196.193C171.547 195.681 171.843 195.173 172.147 194.669C173.007 193.212 173.972 191.82 175.036 190.504C177.537 187.493 180.75 185.177 183.931 182.895H180.596C180.677 182.836 180.771 182.799 180.871 182.788C180.97 182.777 181.071 182.793 181.162 182.833C181.254 182.873 181.333 182.936 181.393 183.017C181.452 183.097 181.489 183.191 181.501 183.291C181.83 186.206 185.944 189.121 186.84 191.954C187.394 193.694 188.061 195.402 188.507 197.176C188.859 198.687 189.126 200.217 189.308 201.758C189.899 206.07 190.489 210.373 191.075 214.669C191.813 219.912 192.446 225.58 189.82 230.153Z" fill="black"/>
<path d="M184.302 175.469L188.324 162.862C188.924 160.975 189.533 159.06 189.604 157.077C189.674 155.095 189.153 153.016 187.765 151.6C186.64 150.455 185.081 149.864 183.747 148.968C180.413 146.723 178.745 142.792 177.007 139.172C175.269 135.553 172.981 131.767 169.188 130.426C168.312 130.118 167.104 130.093 166.712 130.93C166.576 131.278 166.554 131.66 166.649 132.021C167.016 133.946 168.396 135.482 169.596 137.019C171.609 139.622 173.293 142.808 172.81 146.065C172.235 149.922 168.767 152.912 168.35 156.79C168.167 158.497 168.604 160.209 168.6 161.929C168.6 162.995 168.425 164.082 168.663 165.124C168.909 165.929 169.203 166.719 169.542 167.489C169.913 168.734 170.107 170.026 170.117 171.325L170.997 187.718C171.472 196.585 166.658 205.21 167.983 213.956C168.333 216.251 169.009 218.484 169.325 220.783C169.742 223.669 169.546 226.613 170.105 229.475C170.663 232.336 172.189 235.239 174.832 236.413C175.888 236.847 177.024 237.055 178.166 237.025C180.276 236.997 182.343 236.425 184.168 235.367C185.993 234.309 187.515 232.799 188.587 230.982C191.212 226.401 190.579 220.741 189.862 215.518L188.095 202.607C187.913 201.066 187.646 199.537 187.294 198.026C186.853 196.252 186.186 194.544 185.627 192.803C183.839 187.11 182.501 181.125 184.302 175.469Z" fill="#FBBEBE"/>
<path d="M291.374 176.448H205.067C203.233 176.448 201.745 177.934 201.745 179.767V232.269C201.745 234.102 203.233 235.589 205.067 235.589H291.374C293.208 235.589 294.696 234.102 294.696 232.269V179.767C294.696 177.934 293.208 176.448 291.374 176.448Z" fill="#3F3D56"/>
<path opacity="0.2" d="M291.374 176.448H205.067C203.233 176.448 201.745 177.934 201.745 179.767V232.269C201.745 234.102 203.233 235.589 205.067 235.589H291.374C293.208 235.589 294.696 234.102 294.696 232.269V179.767C294.696 177.934 293.208 176.448 291.374 176.448Z" fill="black"/>
<path d="M248.012 208.517C249.393 208.517 250.513 207.398 250.513 206.018C250.513 204.638 249.393 203.519 248.012 203.519C246.631 203.519 245.511 204.638 245.511 206.018C245.511 207.398 246.631 208.517 248.012 208.517Z" fill="white"/>
<path d="M138.335 254.472H143.382C146.146 254.472 148.797 255.569 150.751 257.522C152.705 259.474 153.803 262.123 153.803 264.884V280.34H127.914V264.884C127.914 262.123 129.012 259.474 130.966 257.522C132.921 255.569 135.571 254.472 138.335 254.472Z" fill="#3F3D56"/>
<path opacity="0.1" d="M138.335 254.472H143.382C146.146 254.472 148.797 255.569 150.751 257.522C152.705 259.474 153.803 262.123 153.803 264.884V280.34H127.914V264.884C127.914 262.123 129.012 259.474 130.966 257.522C132.921 255.569 135.571 254.472 138.335 254.472Z" fill="black"/>
<path d="M139.827 260.165C140.971 260.165 141.899 259.239 141.899 258.095C141.899 256.952 140.971 256.025 139.827 256.025C138.683 256.025 137.755 256.952 137.755 258.095C137.755 259.239 138.683 260.165 139.827 260.165Z" fill="#3F3D56"/>
<path d="M139.827 257.579C140.971 257.579 141.899 256.652 141.899 255.509C141.899 254.366 140.971 253.439 139.827 253.439C138.683 253.439 137.755 254.366 137.755 255.509C137.755 256.652 138.683 257.579 139.827 257.579Z" fill="#3F3D56"/>
<path d="M139.827 254.992C140.971 254.992 141.899 254.066 141.899 252.922C141.899 251.779 140.971 250.853 139.827 250.853C138.683 250.853 137.755 251.779 137.755 252.922C137.755 254.066 138.683 254.992 139.827 254.992Z" fill="#3F3D56"/>
<path d="M139.827 252.406C140.971 252.406 141.899 251.479 141.899 250.336C141.899 249.193 140.971 248.266 139.827 248.266C138.683 248.266 137.755 249.193 137.755 250.336C137.755 251.479 138.683 252.406 139.827 252.406Z" fill="#3F3D56"/>
<path d="M139.827 249.82C140.971 249.82 141.899 248.893 141.899 247.75C141.899 246.607 140.971 245.68 139.827 245.68C138.683 245.68 137.755 246.607 137.755 247.75C137.755 248.893 138.683 249.82 139.827 249.82Z" fill="#3F3D56"/>
<path d="M139.827 247.233C140.971 247.233 141.899 246.307 141.899 245.163C141.899 244.02 140.971 243.094 139.827 243.094C138.683 243.094 137.755 244.02 137.755 245.163C137.755 246.307 138.683 247.233 139.827 247.233Z" fill="#3F3D56"/>
<path d="M139.827 244.647C140.971 244.647 141.899 243.72 141.899 242.577C141.899 241.434 140.971 240.507 139.827 240.507C138.683 240.507 137.755 241.434 137.755 242.577C137.755 243.72 138.683 244.647 139.827 244.647Z" fill="#3F3D56"/>
<path d="M142.932 245.68C144.077 245.68 145.004 244.753 145.004 243.61C145.004 242.467 144.077 241.54 142.932 241.54C141.788 241.54 140.861 242.467 140.861 243.61C140.861 244.753 141.788 245.68 142.932 245.68Z" fill="#3F3D56"/>
<path d="M145.004 244.647C146.148 244.647 147.076 243.72 147.076 242.577C147.076 241.434 146.148 240.507 145.004 240.507C143.86 240.507 142.932 241.434 142.932 242.577C142.932 243.72 143.86 244.647 145.004 244.647Z" fill="#3F3D56"/>
<path d="M147.075 243.61C148.22 243.61 149.147 242.683 149.147 241.54C149.147 240.397 148.22 239.47 147.075 239.47C145.931 239.47 145.004 240.397 145.004 241.54C145.004 242.683 145.931 243.61 147.075 243.61Z" fill="#3F3D56"/>
<path d="M139.827 242.057C140.971 242.057 141.899 241.13 141.899 239.987C141.899 238.843 140.971 237.917 139.827 237.917C138.683 237.917 137.755 238.843 137.755 239.987C137.755 241.13 138.683 242.057 139.827 242.057Z" fill="#3F3D56"/>
<path d="M139.827 239.47C140.971 239.47 141.899 238.543 141.899 237.4C141.899 236.257 140.971 235.33 139.827 235.33C138.683 235.33 137.755 236.257 137.755 237.4C137.755 238.543 138.683 239.47 139.827 239.47Z" fill="#3F3D56"/>
<path d="M139.827 236.884C140.971 236.884 141.899 235.957 141.899 234.814C141.899 233.671 140.971 232.744 139.827 232.744C138.683 232.744 137.755 233.671 137.755 234.814C137.755 235.957 138.683 236.884 139.827 236.884Z" fill="#3F3D56"/>
<path d="M139.827 234.297C140.971 234.297 141.899 233.371 141.899 232.227C141.899 231.084 140.971 230.157 139.827 230.157C138.683 230.157 137.755 231.084 137.755 232.227C137.755 233.371 138.683 234.297 139.827 234.297Z" fill="#3F3D56"/>
<path d="M148.409 225.551C147.897 225.626 147.38 225.681 146.863 225.714C147.343 225.295 147.789 224.838 148.197 224.348C147.908 223.479 147.487 222.659 146.946 221.92C146.433 222.208 145.865 222.387 145.279 222.444C144.766 222.519 144.25 222.578 143.733 222.611C144.427 221.951 145.088 221.256 145.713 220.529C144.214 219.182 142.298 218.39 140.285 218.286C138.273 218.182 136.285 218.772 134.656 219.957C133.026 221.143 131.853 222.851 131.334 224.797C130.814 226.742 130.979 228.808 131.801 230.646C132.623 232.485 134.052 233.986 135.849 234.898C137.646 235.81 139.702 236.077 141.673 235.656C143.643 235.234 145.409 234.149 146.675 232.582C147.941 231.014 148.63 229.06 148.626 227.047C148.626 226.54 148.582 226.034 148.493 225.535L148.409 225.551Z" fill="#EB4647"/>
<path d="M155.333 235.834C154.804 236.158 154.208 236.357 153.59 236.417C153.078 236.492 152.561 236.547 152.044 236.58C152.593 236.088 153.106 235.556 153.578 234.989C152.329 234.664 151.003 234.815 149.86 235.415C148.717 236.014 147.839 237.017 147.398 238.229C146.956 239.441 146.982 240.774 147.472 241.967C147.961 243.161 148.879 244.129 150.045 244.682C151.211 245.236 152.541 245.335 153.776 244.96C155.011 244.585 156.062 243.764 156.723 242.656C157.384 241.548 157.608 240.234 157.351 238.97C157.094 237.706 156.374 236.584 155.333 235.822V235.834Z" fill="#EB4647"/>
<path d="M136.718 245.68C137.862 245.68 138.789 244.753 138.789 243.61C138.789 242.467 137.862 241.54 136.718 241.54C135.573 241.54 134.646 242.467 134.646 243.61C134.646 244.753 135.573 245.68 136.718 245.68Z" fill="#3F3D56"/>
<path d="M134.646 244.647C135.79 244.647 136.717 243.72 136.717 242.577C136.717 241.434 135.79 240.507 134.646 240.507C133.502 240.507 132.574 241.434 132.574 242.577C132.574 243.72 133.502 244.647 134.646 244.647Z" fill="#3F3D56"/>
<path d="M132.575 243.61C133.719 243.61 134.646 242.683 134.646 241.54C134.646 240.397 133.719 239.47 132.575 239.47C131.43 239.47 130.503 240.397 130.503 241.54C130.503 242.683 131.43 243.61 132.575 243.61Z" fill="#3F3D56"/>
<path d="M124.317 235.834C124.846 236.159 125.442 236.358 126.059 236.417C126.572 236.492 127.089 236.547 127.606 236.58C127.055 236.089 126.543 235.557 126.072 234.989C127.321 234.664 128.646 234.815 129.789 235.415C130.932 236.014 131.81 237.017 132.252 238.229C132.694 239.441 132.667 240.774 132.178 241.967C131.688 243.161 130.771 244.129 129.605 244.682C128.439 245.236 127.109 245.335 125.874 244.96C124.638 244.585 123.588 243.764 122.927 242.656C122.265 241.548 122.042 240.234 122.299 238.97C122.556 237.706 123.276 236.584 124.317 235.822V235.834Z" fill="#EB4647"/>
<path d="M138.335 256.025H143.382C146.146 256.025 148.797 257.122 150.751 259.075C152.705 261.028 153.803 263.676 153.803 266.438V280.127C153.803 280.596 153.617 281.045 153.285 281.376C152.954 281.707 152.504 281.893 152.036 281.893H129.682C129.213 281.893 128.763 281.707 128.432 281.376C128.1 281.045 127.914 280.596 127.914 280.127V266.438C127.914 263.676 129.012 261.028 130.966 259.075C132.921 257.122 135.571 256.025 138.335 256.025Z" fill="#3F3D56"/>
<g opacity="0.1">
<path opacity="0.1" d="M148.568 226.118C148.358 226.342 148.135 226.553 147.901 226.751C148.138 226.751 148.372 226.713 148.609 226.688C148.601 226.497 148.589 226.305 148.568 226.118Z" fill="black"/>
<path opacity="0.1" d="M144.791 223.644C145.312 223.61 145.825 223.556 146.342 223.481C146.806 223.423 147.259 223.299 147.688 223.115C147.477 222.698 147.235 222.299 146.963 221.919C146.704 222.077 146.423 222.196 146.129 222.273C145.721 222.765 145.273 223.223 144.791 223.644Z" fill="black"/>
<path opacity="0.1" d="M132.057 228.088C132.054 226.509 132.478 224.958 133.282 223.599C134.087 222.24 135.244 221.123 136.631 220.366C138.017 219.609 139.583 219.239 141.162 219.297C142.741 219.354 144.276 219.835 145.604 220.691L145.737 220.549C144.871 219.779 143.86 219.187 142.763 218.808C141.666 218.43 140.505 218.272 139.347 218.344C138.189 218.415 137.056 218.715 136.015 219.226C134.973 219.737 134.043 220.449 133.278 221.321C132.513 222.193 131.929 223.207 131.558 224.306C131.187 225.404 131.037 226.566 131.117 227.722C131.198 228.879 131.506 230.008 132.025 231.045C132.544 232.082 133.264 233.006 134.142 233.764C132.794 232.18 132.055 230.167 132.057 228.088Z" fill="black"/>
</g>
<g opacity="0.1">
<path opacity="0.1" d="M152.044 237.612C152.561 237.579 153.078 237.525 153.59 237.45C154.208 237.392 154.804 237.192 155.333 236.867C155.918 237.298 156.406 237.846 156.765 238.478C157.124 239.109 157.346 239.809 157.417 240.532C157.437 240.351 157.447 240.169 157.446 239.986C157.45 239.177 157.263 238.379 156.901 237.655C156.539 236.932 156.012 236.304 155.362 235.822C154.833 236.145 154.237 236.345 153.62 236.405L153.203 236.455C152.847 236.87 152.46 237.257 152.044 237.612Z" fill="black"/>
<path opacity="0.1" d="M152.252 235.847C152.425 235.849 152.598 235.861 152.769 235.884C153.04 235.597 153.307 235.289 153.578 234.989C152.812 234.784 152.008 234.759 151.231 234.914C150.453 235.069 149.721 235.401 149.093 235.885C148.464 236.368 147.955 236.989 147.605 237.7C147.255 238.412 147.074 239.194 147.075 239.986C147.075 240.161 147.075 240.332 147.1 240.503C147.229 239.227 147.827 238.044 148.779 237.183C149.731 236.323 150.969 235.846 152.252 235.847Z" fill="black"/>
</g>
<g opacity="0.1">
<path opacity="0.1" d="M127.606 237.612C127.089 237.579 126.572 237.525 126.06 237.45C125.441 237.393 124.845 237.193 124.317 236.867C123.732 237.298 123.244 237.846 122.885 238.478C122.526 239.109 122.304 239.809 122.233 240.532C122.213 240.351 122.203 240.169 122.204 239.986C122.2 239.177 122.387 238.379 122.749 237.655C123.111 236.932 123.638 236.304 124.288 235.822C124.817 236.146 125.413 236.345 126.03 236.405L126.447 236.455C126.801 236.872 127.188 237.259 127.606 237.612Z" fill="black"/>
<path opacity="0.1" d="M127.398 235.847C127.223 235.849 127.049 235.861 126.876 235.884C126.61 235.597 126.343 235.289 126.072 234.989C126.838 234.784 127.641 234.759 128.419 234.914C129.197 235.069 129.928 235.401 130.557 235.885C131.186 236.368 131.695 236.989 132.045 237.7C132.394 238.412 132.576 239.194 132.574 239.986C132.574 240.161 132.574 240.332 132.549 240.503C132.421 239.227 131.823 238.044 130.871 237.183C129.919 236.323 128.681 235.846 127.398 235.847Z" fill="black"/>
</g>
<path d="M111.104 74.8213H16.9031V111.472H111.104V74.8213Z" fill="#EB4647"/>
<path d="M166.541 74.8213H21.9049C19.1425 74.8213 16.9031 77.0589 16.9031 79.8191V106.474C16.9031 109.234 19.1425 111.472 21.9049 111.472H166.541C169.303 111.472 171.543 109.234 171.543 106.474V79.8191C171.543 77.0589 169.303 74.8213 166.541 74.8213Z" stroke="#3F3D56" stroke-width="9" stroke-miterlimit="10"/>
<path d="M101.626 91.185C101.321 89.652 100.547 88.2515 99.4106 87.1774C98.2744 86.1033 96.8321 85.4086 95.2834 85.1894C93.7346 84.9703 92.156 85.2376 90.766 85.9544C89.376 86.6711 88.2433 87.8018 87.5246 89.19C85.9855 89.3523 84.5676 90.0991 83.5638 91.2762C82.5601 92.4533 82.0472 93.9706 82.1312 95.5148C82.2152 97.0589 82.8897 98.5118 84.0152 99.5733C85.1408 100.635 86.6314 101.224 88.179 101.218H101.275C102.613 101.215 103.895 100.681 104.84 99.7335C105.784 98.7862 106.313 97.5031 106.311 96.1661C106.316 94.8945 105.833 93.6693 104.962 92.7426C104.09 91.816 102.896 91.2585 101.626 91.185ZM95.836 94.1545V97.9778H92.6098V94.1545H89.1877L94.2229 89.1192L99.2581 94.1545H95.836Z" fill="white"/>
<defs>
<linearGradient id="paint0_linear" x1="252.956" y1="294.996" x2="252.956" y2="81.9016" gradientUnits="userSpaceOnUse">
<stop stop-color="#808080" stop-opacity="0.25"/>
<stop offset="0.54" stop-color="#808080" stop-opacity="0.12"/>
<stop offset="1" stop-color="#808080" stop-opacity="0.1"/>
</linearGradient>
</defs>
</svg>
