<svg width="289" height="250" viewBox="0 0 289 250" fill="none" xmlns="http://www.w3.org/2000/svg">
<g clip-path="url(#clip0)">
<path d="M137.865 250C214.005 250 275.73 234.01 275.73 214.286C275.73 194.561 214.005 178.571 137.865 178.571C61.7242 178.571 0 194.561 0 214.286C0 234.01 61.7242 250 137.865 250Z" fill="#F3F3F3"/>
<path d="M190.324 90.0425C203.301 90.0425 213.821 79.5226 213.821 66.5457C213.821 53.5687 203.301 43.0488 190.324 43.0488C177.347 43.0488 166.827 53.5687 166.827 66.5457C166.827 79.5226 177.347 90.0425 190.324 90.0425Z" fill="#EA4647"/>
<path d="M150.385 145.342C163.362 145.342 173.882 134.822 173.882 121.845C173.882 108.869 163.362 98.3486 150.385 98.3486C137.408 98.3486 126.888 108.869 126.888 121.845C126.888 134.822 137.408 145.342 150.385 145.342Z" fill="#EA4647"/>
<path d="M150.538 242.703C226.678 242.703 288.402 226.714 288.402 206.989C288.402 187.265 226.678 171.275 150.538 171.275C74.397 171.275 12.6728 187.265 12.6728 206.989C12.6728 226.714 74.397 242.703 150.538 242.703Z" stroke="#3F3D56" stroke-width="2" stroke-miterlimit="10"/>
<path d="M47.928 195.276C64.6832 195.276 78.2659 181.694 78.2659 164.939C78.2659 148.183 64.6832 134.601 47.928 134.601C31.1728 134.601 17.5901 148.183 17.5901 164.939C17.5901 181.694 31.1728 195.276 47.928 195.276Z" fill="#333333"/>
<path d="M43.3197 188.748H34.1031V205.261H43.3197V188.748Z" fill="#333333"/>
<path d="M61.7529 188.748H52.5363V205.261H61.7529V188.748Z" fill="#333333"/>
<path d="M41.7836 208.333C46.0254 208.333 49.4641 207.044 49.4641 205.453C49.4641 203.862 46.0254 202.573 41.7836 202.573C37.5418 202.573 34.1031 203.862 34.1031 205.453C34.1031 207.044 37.5418 208.333 41.7836 208.333Z" fill="#333333"/>
<path d="M60.2168 207.949C64.4586 207.949 67.8973 206.66 67.8973 205.069C67.8973 203.478 64.4586 202.189 60.2168 202.189C55.975 202.189 52.5363 203.478 52.5363 205.069C52.5363 206.66 55.975 207.949 60.2168 207.949Z" fill="#333333"/>
<path d="M48.6961 167.627C54.4225 167.627 59.0647 162.985 59.0647 157.258C59.0647 151.532 54.4225 146.89 48.6961 146.89C42.9696 146.89 38.3274 151.532 38.3274 157.258C38.3274 162.985 42.9696 167.627 48.6961 167.627Z" fill="white"/>
<path d="M48.6961 160.714C50.6049 160.714 52.1523 159.167 52.1523 157.258C52.1523 155.349 50.6049 153.802 48.6961 153.802C46.7872 153.802 45.2398 155.349 45.2398 157.258C45.2398 159.167 46.7872 160.714 48.6961 160.714Z" fill="#3F3D56"/>
<path d="M18.4992 136.725C16.0495 125.755 23.8801 114.669 35.9892 111.965C48.0983 109.262 59.9005 115.963 62.3502 126.934C64.7998 137.904 56.7747 141.951 44.6656 144.654C32.5564 147.358 20.9488 147.696 18.4992 136.725Z" fill="#EA4647"/>
<path d="M76.3821 158.888C84.0839 155.591 89.4885 150.959 88.4537 148.541C87.4188 146.123 80.3364 146.836 72.6346 150.132C64.9328 153.428 59.5281 158.061 60.563 160.478C61.5978 162.896 68.6803 162.184 76.3821 158.888Z" fill="#333333"/>
<path d="M19.5464 179.241C27.2482 175.944 32.6529 171.312 31.618 168.894C30.5832 166.476 23.5007 167.189 15.7989 170.485C8.09713 173.781 2.69248 178.414 3.72733 180.831C4.76217 183.249 11.8446 182.537 19.5464 179.241Z" fill="#333333"/>
<path d="M65.5931 173.771C65.5931 176.74 57.9477 182.603 49.4641 182.603C40.9805 182.603 32.951 177.124 32.951 174.155C32.951 171.186 40.9805 171.851 49.4641 171.851C57.9477 171.851 65.5931 170.802 65.5931 173.771Z" fill="white"/>
<path d="M105.454 189.505C118.431 189.505 128.951 178.985 128.951 166.008C128.951 153.031 118.431 142.511 105.454 142.511C92.4773 142.511 81.9574 153.031 81.9574 166.008C81.9574 178.985 92.4773 189.505 105.454 189.505Z" fill="#EA4647"/>
<path d="M105.433 208.501V165.879" stroke="#3F3D56" stroke-width="2" stroke-miterlimit="10"/>
<path d="M105.433 171.906C108.762 171.906 111.461 169.208 111.461 165.879C111.461 162.55 108.762 159.852 105.433 159.852C102.105 159.852 99.406 162.55 99.406 165.879C99.406 169.208 102.105 171.906 105.433 171.906Z" fill="#3F3D56"/>
<path d="M105.433 192.148C105.433 192.148 104.572 173.628 86.9207 175.781Z" fill="#3F3D56"/>
<path d="M190.338 208.8V66.6318" stroke="#3F3D56" stroke-width="2" stroke-miterlimit="10"/>
<path d="M190.338 72.5924C193.667 72.5924 196.366 69.8938 196.366 66.565C196.366 63.2362 193.667 60.5376 190.338 60.5376C187.01 60.5376 184.311 63.2362 184.311 66.565C184.311 69.8938 187.01 72.5924 190.338 72.5924Z" fill="#3F3D56"/>
<path d="M171.826 175.452C175.155 175.452 177.853 172.753 177.853 169.424C177.853 166.096 175.155 163.397 171.826 163.397C168.497 163.397 165.798 166.096 165.798 169.424C165.798 172.753 168.497 175.452 171.826 175.452Z" fill="#3F3D56"/>
<path d="M190.338 97.353C190.338 97.353 189.477 78.8335 171.826 80.9861Z" fill="#3F3D56"/>
<path d="M190.338 149.853C190.338 149.853 189.477 131.334 171.826 133.487Z" fill="#3F3D56"/>
<path d="M190.338 207.143C190.338 207.143 194.213 171.146 171.826 169.424" stroke="#3F3D56" stroke-width="2" stroke-miterlimit="10"/>
<path d="M208.854 175.452C212.183 175.452 214.881 172.753 214.881 169.424C214.881 166.096 212.183 163.397 208.854 163.397C205.525 163.397 202.826 166.096 202.826 169.424C202.826 172.753 205.525 175.452 208.854 175.452Z" fill="#3F3D56"/>
<path d="M190.341 207.143C190.341 207.143 186.466 171.146 208.854 169.424" stroke="#3F3D56" stroke-width="2" stroke-miterlimit="10"/>
<path d="M209.221 118.912C212.55 118.912 215.248 116.214 215.248 112.885C215.248 109.556 212.55 106.857 209.221 106.857C205.892 106.857 203.194 109.556 203.194 112.885C203.194 116.214 205.892 118.912 209.221 118.912Z" fill="#3F3D56"/>
<path d="M190.708 148.684C190.708 148.684 186.833 114.607 209.221 112.885" stroke="#3F3D56" stroke-width="2" stroke-miterlimit="10"/>
<path d="M150.407 208.6V121.819" stroke="#3F3D56" stroke-width="2" stroke-miterlimit="10"/>
<path d="M150.407 127.846C153.735 127.846 156.434 125.148 156.434 121.819C156.434 118.49 153.735 115.792 150.407 115.792C147.078 115.792 144.379 118.49 144.379 121.819C144.379 125.148 147.078 127.846 150.407 127.846Z" fill="#3F3D56"/>
<path d="M150.407 146.366C150.407 146.366 149.546 127.847 131.894 129.999Z" fill="#3F3D56"/>
<path d="M150.407 206.943C150.407 206.943 154.281 171.33 131.894 169.608" stroke="#3F3D56" stroke-width="2" stroke-miterlimit="10"/>
<path d="M131.894 175.635C135.223 175.635 137.921 172.937 137.921 169.608C137.921 166.279 135.223 163.581 131.894 163.581C128.565 163.581 125.866 166.279 125.866 169.608C125.866 172.937 128.565 175.635 131.894 175.635Z" fill="#3F3D56"/>
<path d="M83.912 208.516H208.336" stroke="#3F3D56" stroke-width="2" stroke-miterlimit="10"/>
<path d="M253.84 147.081C260.627 147.081 266.129 141.58 266.129 134.793C266.129 128.006 260.627 122.504 253.84 122.504C247.053 122.504 241.551 128.006 241.551 134.793C241.551 141.58 247.053 147.081 253.84 147.081Z" fill="#F3F3F3"/>
<path d="M60.2919 70.2763C67.0788 70.2763 72.5806 64.7744 72.5806 57.9875C72.5806 51.2006 67.0788 45.6987 60.2919 45.6987C53.5049 45.6987 48.0031 51.2006 48.0031 57.9875C48.0031 64.7744 53.5049 70.2763 60.2919 70.2763Z" fill="#F3F3F3"/>
<path d="M184.332 24.5776C191.119 24.5776 196.621 19.0757 196.621 12.2888C196.621 5.50188 191.119 0 184.332 0C177.545 0 172.043 5.50188 172.043 12.2888C172.043 19.0757 177.545 24.5776 184.332 24.5776Z" fill="#F3F3F3"/>
</g>
<defs>
<clipPath id="clip0">
<rect width="288.786" height="250" fill="white"/>
</clipPath>
</defs>
</svg>
