<svg width="353" height="292" viewBox="0 0 353 292" fill="none" xmlns="http://www.w3.org/2000/svg">
<path d="M352.591 241.65C352.591 259.254 275.205 292 177.727 292C80.2488 292 0 261.284 0 243.68C0 226.076 80.2488 228.251 177.727 228.251C275.205 228.251 352.591 224.046 352.591 241.65Z" fill="#3F3D56"/>
<path opacity="0.1" d="M352.591 241.65C352.591 259.254 275.205 292 177.727 292C80.2488 292 0 261.284 0 243.68C0 226.076 80.2488 228.251 177.727 228.251C275.205 228.251 352.591 224.046 352.591 241.65Z" fill="black"/>
<path d="M176.5 275.352C273.978 275.352 353 261.081 353 243.477C353 225.873 273.978 211.603 176.5 211.603C79.0217 211.603 0 225.873 0 243.477C0 261.081 79.0217 275.352 176.5 275.352Z" fill="#3F3D56"/>
<path d="M243.32 135.072V220.319L257.684 243.558L258.778 245.325H315.455L316.6 135.072H243.32Z" fill="#2F2E41"/>
<path opacity="0.1" d="M243.32 135.072V220.319L257.684 243.558L258.566 135.072H243.32Z" fill="black"/>
<path d="M106.492 132.799V218.046L92.1281 241.285L91.0347 243.052H34.3568L33.2119 132.799H106.492Z" fill="#2F2E41"/>
<path opacity="0.1" d="M106.492 132.799V218.046L92.128 241.285L91.2462 132.799H106.492Z" fill="black"/>
<path d="M333.775 131.094V136.209H25.7694V128.821L54.3943 114.045H308.585L333.775 131.094Z" fill="#2F2E41"/>
<path opacity="0.1" d="M333.775 131.094V136.209H25.7694V128.821L333.775 131.094Z" fill="black"/>
<path opacity="0.1" d="M69.8518 156.668H56.1118L50.3869 152.69H76.1494L69.8518 156.668Z" fill="black"/>
<path opacity="0.1" d="M69.8518 173.149H56.1118L50.3869 169.171H76.1494L69.8518 173.149Z" fill="black"/>
<path opacity="0.1" d="M69.8518 196.45H56.1118L50.3869 192.472H76.1494L69.8518 196.45Z" fill="black"/>
<path opacity="0.1" d="M69.8518 219.751H56.1118L50.3869 215.773H76.1494L69.8518 219.751Z" fill="black"/>
<path opacity="0.1" d="M279.96 158.941H293.7L299.425 154.963H273.662L279.96 158.941Z" fill="black"/>
<path opacity="0.1" d="M279.96 175.423H293.7L299.425 171.445H273.662L279.96 175.423Z" fill="black"/>
<path opacity="0.1" d="M279.96 198.724H293.7L299.425 194.746H273.662L279.96 198.724Z" fill="black"/>
<path opacity="0.1" d="M279.96 222.025H293.7L299.425 218.046H273.662L279.96 222.025Z" fill="black"/>
<path d="M217.819 99.8231L215.91 111.926C215.91 111.926 206.508 116.884 213.118 117.03C219.729 117.176 250.871 117.03 250.871 117.03C250.871 117.03 256.894 117.03 247.345 111.781L245.436 99.094L217.819 99.8231Z" fill="#3F3D56"/>
<path opacity="0.1" d="M211.789 116.899C213.073 115.868 214.452 114.962 215.91 114.191L217.819 102.088L245.436 102.114L247.345 114.045C248.914 114.849 250.394 115.815 251.758 116.928C252.985 116.65 254.325 115.618 247.345 111.781L245.436 99.094L217.819 99.8231L215.91 111.926C215.91 111.926 208.01 116.093 211.789 116.899Z" fill="black"/>
<path d="M289.317 15.4646H173.644C171.228 15.4646 169.27 17.4088 169.27 19.8072V97.1572C169.27 99.5556 171.228 101.5 173.644 101.5H289.317C291.733 101.5 293.691 99.5556 293.691 97.1572V19.8072C293.691 17.4088 291.733 15.4646 289.317 15.4646Z" fill="#3F3D56"/>
<path d="M289.505 20.0581H173.456V84.5116H289.505V20.0581Z" fill="#F3F3F3"/>
<g clip-path="url(#clip0)">
<path d="M232.5 72C243.822 72 253 62.8218 253 51.5C253 40.1782 243.822 31 232.5 31C221.178 31 212 40.1782 212 51.5C212 62.8218 221.178 72 232.5 72Z" fill="#246EBA"/>
<path d="M226.799 59.3608C227.412 57.2157 228.113 55.5791 228.9 54.451C229.688 53.3229 230.982 52.1851 232.784 51.0377L237.325 48.3243C239.307 47.0116 240.562 45.3685 241.091 43.3948C241.6 41.4935 241.5 39.8753 240.791 38.5401C240.086 37.1868 238.783 36.2555 236.882 35.746C235.035 35.2511 233.419 35.3422 232.034 36.0191C230.65 36.6961 229.737 37.8585 229.295 39.5062L224.27 38.1598C225.092 35.2362 226.767 33.1521 229.293 31.9077C231.843 30.6501 234.765 30.4628 238.061 31.3459C241.483 32.2629 243.897 33.8996 245.304 36.2559C246.733 38.599 247.018 41.3731 246.159 44.5782C245.31 47.7469 243.007 50.4775 239.249 52.77L235.502 54.9101C233.787 56.0226 232.561 57.955 231.823 60.7073L226.799 59.3609L226.799 59.3608ZM224.274 67.9125C224.493 67.0977 224.919 66.4842 225.554 66.0719C226.211 65.6465 227.029 65.5647 228.006 65.8267C228.984 66.0887 229.651 66.5683 230.008 67.2655C230.369 67.9446 230.441 68.6915 230.223 69.5064C230.004 70.3212 229.569 70.9323 228.916 71.3397C228.269 71.7289 227.456 71.7926 226.478 71.5306C225.5 71.2686 224.828 70.8071 224.462 70.1461C224.119 69.4719 224.056 68.7274 224.274 67.9125Z" fill="white"/>
</g>
<path d="M231.481 18.7456C231.886 18.7456 232.215 18.4191 232.215 18.0165C232.215 17.6138 231.886 17.2874 231.481 17.2874C231.075 17.2874 230.746 17.6138 230.746 18.0165C230.746 18.4191 231.075 18.7456 231.481 18.7456Z" fill="#F2F2F2"/>
<path d="M293.691 89.6155V97.1574C293.691 97.7277 293.578 98.2924 293.359 98.8193C293.139 99.3462 292.816 99.825 292.41 100.228C292.004 100.632 291.522 100.951 290.991 101.17C290.46 101.388 289.891 101.5 289.317 101.5H173.645C173.07 101.5 172.501 101.388 171.97 101.17C171.44 100.951 170.957 100.632 170.551 100.228C170.145 99.825 169.823 99.3462 169.603 98.8193C169.383 98.2924 169.27 97.7277 169.27 97.1574V89.6155H293.691Z" fill="#3F3D56"/>
<path d="M231.481 98.3647C233.022 98.3647 234.272 97.1243 234.272 95.5941C234.272 94.0639 233.022 92.8235 231.481 92.8235C229.939 92.8235 228.69 94.0639 228.69 95.5941C228.69 97.1243 229.939 98.3647 231.481 98.3647Z" fill="#F2F2F2"/>
<path d="M227.131 124.904V126.363H148.101V125.196L148.21 124.904L150.157 119.655H225.515L227.131 124.904Z" fill="#3F3D56"/>
<path d="M257.545 123.477C257.401 124.088 256.857 124.732 255.629 125.342C251.222 127.529 242.262 124.758 242.262 124.758C242.262 124.758 235.357 123.592 235.357 120.53C235.551 120.398 235.753 120.278 235.963 120.172C237.815 119.199 243.959 116.798 254.851 120.274C255.654 120.524 256.37 120.99 256.922 121.621C257.166 121.859 257.35 122.152 257.458 122.474C257.566 122.797 257.596 123.14 257.545 123.477V123.477Z" fill="#3F3D56"/>
<path opacity="0.1" d="M257.545 123.477C252.151 125.528 247.343 125.681 242.409 122.279C239.92 120.565 237.659 120.14 235.963 120.172C237.816 119.199 243.959 116.798 254.851 120.274C255.654 120.524 256.371 120.99 256.922 121.621C257.166 121.859 257.35 122.152 257.458 122.474C257.566 122.797 257.596 123.14 257.545 123.477V123.477Z" fill="black"/>
<path d="M250.782 122.279C251.836 122.279 252.691 122.018 252.691 121.696C252.691 121.374 251.836 121.113 250.782 121.113C249.727 121.113 248.872 121.374 248.872 121.696C248.872 122.018 249.727 122.279 250.782 122.279Z" fill="#F2F2F2"/>
<path opacity="0.1" d="M227.131 124.904V126.363H148.101V125.196L148.21 124.904H227.131Z" fill="black"/>
<path d="M161.423 35.1455C170.063 35.1455 177.067 28.1925 177.067 19.6155C177.067 11.0386 170.063 4.08557 161.423 4.08557C152.782 4.08557 145.778 11.0386 145.778 19.6155C145.778 28.1925 152.782 35.1455 161.423 35.1455Z" fill="#FFB9B9"/>
<path d="M149.895 27.3806V51.9016H175.42C175.42 51.9016 172.126 31.4674 173.773 25.3372L149.895 27.3806Z" fill="#FFB9B9"/>
<path d="M200.533 60.4838C200.533 60.4838 176.243 48.632 176.243 47.8147C176.243 46.9973 173.773 41.6844 172.126 41.6844C170.48 41.6844 156.482 37.1889 148.66 43.7278L147.837 49.0407L117.783 68.6575L126.017 98.4913C126.017 98.4913 131.369 104.213 129.722 108.3C128.075 112.387 130.957 133.229 130.957 133.229L195.593 131.186V103.396C195.593 103.396 197.651 96.8566 198.887 94.8132C200.122 92.7698 198.887 86.6395 198.887 86.6395L208.767 74.379C208.767 74.379 207.532 62.9359 200.533 60.4838Z" fill="#D0CDE1"/>
<path opacity="0.1" d="M118.812 78.6702L120.665 68.6575C120.665 68.6575 109.961 114.839 111.196 120.152C112.431 125.464 121.488 133.638 122.723 134.047C123.958 134.455 135.486 98.9 135.486 98.9L118.812 78.6702Z" fill="black"/>
<path d="M124.782 67.4314L117.783 68.6574C117.783 68.6574 107.079 114.839 108.314 120.152C109.549 125.464 118.606 133.638 119.841 134.047C121.076 134.455 132.604 98.9 132.604 98.9L124.782 67.4314Z" fill="#D0CDE1"/>
<path opacity="0.1" d="M202.798 81.1222L206.297 74.3789C206.297 74.3789 211.237 120.56 207.944 125.056C204.65 129.551 191.622 131.233 191.622 131.233L191.476 97.6739L202.798 81.1222Z" fill="black"/>
<path d="M203.415 69.0662L208.767 74.3791C208.767 74.3791 213.708 120.56 210.414 125.056C207.12 129.551 194.092 131.233 194.092 131.233L193.946 97.674L203.415 69.0662Z" fill="#D0CDE1"/>
<path d="M123.547 139.36C123.547 139.36 111.608 134.864 109.549 143.446C107.491 152.029 114.489 190.445 114.489 190.445C114.489 190.445 119.018 219.462 121.9 220.279C124.782 221.096 137.544 221.505 139.603 217.827C141.661 214.149 133.427 176.55 133.427 176.55L181.184 175.732C181.184 175.732 178.302 208.427 176.655 211.288C175.008 214.149 175.008 223.957 176.655 223.957C178.302 223.957 196.416 223.14 197.652 220.688C198.887 218.235 205.885 163.063 205.885 163.063C205.885 163.063 211.649 143.855 205.062 145.081C198.475 146.307 123.547 139.36 123.547 139.36Z" fill="#3F3D56"/>
<path d="M193.946 219.053C193.946 219.053 198.063 216.192 200.122 219.053C202.18 221.913 203.003 225.183 193.946 230.087C184.889 234.991 177.89 233.765 177.89 232.948V221.096L193.946 219.053Z" fill="#2F2E41"/>
<path d="M122.723 217.827C122.723 217.827 118.606 214.966 116.548 217.827C114.489 220.688 113.666 223.957 122.723 228.861C131.781 233.766 138.779 232.54 138.779 231.722V219.87L122.723 217.827Z" fill="#2F2E41"/>
<path d="M161.524 0.0337977C159.966 -0.01994 158.41 0.200156 156.929 0.683928C155.78 1.14223 154.683 1.71844 153.656 2.40317L146.749 6.66675C146.162 6.91866 145.664 7.33731 145.317 7.86989C144.97 8.40248 144.79 9.02513 144.799 9.65932L143.936 16.0756C143.718 17.6948 143.518 19.4264 144.248 20.8904C144.857 22.1123 146.019 22.9485 146.975 23.9278C148.505 25.5016 149.534 27.4871 149.935 29.6372C150.429 32.3161 150.113 35.5421 152.249 37.2518C153.405 38.1774 154.981 38.3525 156.464 38.4386C160.519 38.6736 164.588 38.5182 168.613 37.9744C169.253 37.9269 169.877 37.7533 170.448 37.4639C171.174 37.0376 171.631 36.285 172.059 35.563C173.601 32.9563 175.191 30.1833 175.174 27.1603C175.166 25.6647 174.78 24.0585 175.503 22.7466C175.886 22.189 176.301 21.6542 176.746 21.1448C177.642 19.8955 177.816 18.2903 177.962 16.7636C178.428 11.8876 177.941 8.17687 174.321 4.74207C170.941 1.53573 166.133 0.0633093 161.524 0.0337977Z" fill="#2F2E41"/>
<path d="M123.095 187.641L109.355 256.976H116.225L129.392 188.778L123.095 187.641Z" fill="#2F2E41"/>
<path d="M167.177 193.324L175.765 272.889H181.49L176.337 191.051L167.177 193.324Z" fill="#2F2E41"/>
<path d="M190.65 191.051L202.672 243.905H208.397L196.947 189.915L190.65 191.051Z" fill="#2F2E41"/>
<path d="M144.85 191.051L143.132 233.107H147.712L151.147 191.051H144.85Z" fill="#2F2E41"/>
<path d="M113.362 180.253C113.362 180.253 104.202 119.444 129.965 117.739C155.727 116.034 192.367 117.739 192.367 117.739C192.367 117.739 213.55 116.034 207.252 180.253C207.252 180.253 212.977 199.008 161.452 197.303C109.927 195.598 113.362 180.253 113.362 180.253Z" fill="#EB4647"/>
<path d="M348.092 205.086C348.092 215.69 341.741 219.393 333.908 219.393C326.074 219.393 319.724 215.69 319.724 205.086C319.724 194.482 333.908 180.992 333.908 180.992C333.908 180.992 348.092 194.482 348.092 205.086Z" fill="#EB4647"/>
<path d="M333.536 208.896L339.581 197.917L333.559 207.503L333.624 203.513L337.791 195.57L333.641 202.457L333.759 195.28L338.221 188.956L333.777 194.152L333.851 180.992L333.409 197.667L328.891 190.802L333.355 199.074L332.932 207.089L332.919 206.876L327.69 199.623L332.903 207.628L332.851 208.63L332.841 208.646L332.846 208.728L331.773 219.424H333.206L333.378 218.56L338.579 210.574L333.391 217.77L333.536 208.896Z" fill="#3F3D56"/>
<path d="M342.966 242.395H326.056L321.686 217.875H346.386L342.966 242.395Z" fill="#2F2E41"/>
<defs>
<clipPath id="clip0">
<rect width="41" height="41" fill="white" transform="translate(212 31)"/>
</clipPath>
</defs>
</svg>
