<svg width="375" height="249" viewBox="0 0 375 249" fill="none" xmlns="http://www.w3.org/2000/svg">
<circle cx="303.5" cy="167.515" r="41.5" fill="#FF6584"/>
<rect y="114.015" width="114" height="5" fill="#3F3D56"/>
<rect y="123.015" width="114" height="5" fill="#3F3D56"/>
<rect y="133.015" width="39" height="5" fill="#3F3D56"/>
<path d="M304 209.533C304 238.827 271.765 228.097 232 228.097C192.235 228.097 160 238.827 160 209.533C160 180.239 192.236 122.015 232 122.015C271.764 122.015 304 180.239 304 209.533Z" fill="#EB4647"/>
<path fill-rule="evenodd" clip-rule="evenodd" d="M351.046 231.411C358.712 232.415 366.697 233.616 375 235.015L266.812 233.666C269.547 234.092 272.32 234.542 275.13 235.015L114 233.006C114 233.006 119.997 231.239 131.925 229.54L131.71 225.91C129.915 205.469 143.985 175.015 143.985 175.015C138.566 190.166 135.878 206.149 136.044 222.229C137.91 219.083 141.481 215.709 148.288 213.695C148.288 213.695 139.374 221.107 136.751 228.901C148.348 227.52 160.009 226.732 171.688 226.54L168.743 219.566L174.486 225.423C174.486 225.423 177.099 208.099 182.239 207.482L178.262 224.449C178.262 224.449 182.752 221.102 183.774 221.455L181.18 226.457C195.707 226.489 212.581 227.238 231.773 229.159L231.581 225.91C229.785 205.469 243.855 175.015 243.855 175.015C238.436 190.166 235.748 206.149 235.914 222.229C237.78 219.083 241.351 215.709 248.158 213.695C248.158 213.695 242.845 218.116 239.215 223.718L243.548 228.137C244.086 228.084 244.632 228.032 245.184 227.981C245.967 223.716 248.479 212.097 252.672 211.594L248.906 227.658C249.305 227.625 249.702 227.593 250.107 227.561C251.515 226.606 253.558 225.342 254.206 225.566L253.291 227.331C258.807 226.956 264.892 226.673 271.558 226.54L268.613 219.566L274.356 225.423C274.356 225.423 276.97 208.099 282.11 207.482L278.132 224.449C278.132 224.449 282.622 221.102 283.644 221.455L281.05 226.457C301.365 226.566 321.657 227.837 341.826 230.262L339.046 223.677L344.788 229.534C344.788 229.534 347.402 212.21 352.542 211.594L348.564 228.56C348.564 228.56 353.054 225.213 354.077 225.566L351.046 231.411ZM241.162 228.382L239.202 223.739C238.132 225.348 237.265 227.081 236.621 228.901C238.064 228.723 239.582 228.55 241.162 228.382Z" fill="#3F3D56"/>
<path d="M325.166 230.015C325.076 229.873 322.968 226.436 322.237 219.3C321.566 212.753 321.997 201.717 327.86 186.324C338.968 157.161 325.301 133.632 325.161 133.397L325.835 133.015C325.871 133.075 329.397 139.074 331.481 148.627C334.233 161.292 333.231 174.46 328.591 186.589C317.503 215.701 325.746 229.483 325.831 229.619L325.166 230.015Z" fill="#3F3D56"/>
<circle cx="322" cy="127.015" r="5" fill="#EB4647"/>
<circle cx="338" cy="146.015" r="5" fill="#3F3D56"/>
<circle cx="327" cy="157.015" r="5" fill="#EB4647"/>
<circle cx="340" cy="168.015" r="5" fill="#EB4647"/>
<circle cx="324" cy="185.015" r="5" fill="#3F3D56"/>
<path d="M329.815 231.015C329.815 231.015 324.722 219.015 340 210.015L329.815 231.015Z" fill="#3F3D56"/>
<path d="M324 230.015C324 230.015 321.712 216.904 304 217.016L324 230.015Z" fill="#3F3D56"/>
<path d="M243.873 20.648C238.446 11.4774 227.711 11.05 227.711 11.05C227.711 11.05 217.249 9.71194 210.538 23.6789C204.283 36.6972 195.65 49.2667 209.148 52.3142L211.587 44.7242L213.096 52.8793C215.018 53.0175 216.946 53.0505 218.872 52.978C233.327 52.5112 247.094 53.1146 246.651 47.9264C246.061 41.0296 249.094 29.4719 243.873 20.648Z" fill="#2F2E41"/>
<path d="M204.154 94.495L203 114.655L236.847 118.015L238 97.1084L226.462 90.0154L204.154 94.495Z" fill="#A0616A"/>
<path d="M294.872 138.632C293.87 128.963 254.098 124.574 244.54 123.657L240.966 121.576L239.827 109.447C239.827 109.447 204.522 106.415 201.865 106.036C199.208 105.657 196.93 110.584 196.93 111.721C196.93 112.543 196.433 118.412 194.439 121.89C190.132 125.345 177 136.218 177 140.337C177 145.264 187.44 207.234 187.44 207.234L188.578 220.12L199.208 222.015L198.449 181.84C198.449 181.84 202.245 158.719 196.93 152.276V149.623C196.93 149.623 212.518 145.568 218.012 141.153C219.604 140.812 224.077 139.97 226.548 140.702C226.887 140.901 227.278 141.106 227.712 141.314C227.768 141.364 227.82 141.418 227.869 141.474C227.869 141.474 227.885 141.45 227.912 141.409C235.019 144.73 253.25 148.919 260.706 147.728C266.457 146.852 272.336 147.919 277.409 150.76C273.234 156.066 276.271 171.227 276.271 171.227L276.65 203.823L281.965 210.266H289.178V192.452C289.178 192.452 296.011 149.623 294.872 138.632Z" fill="#2F2E41"/>
<circle cx="224.5" cy="33.5154" r="12.5" fill="#A0616A"/>
<path d="M216.88 40.0154C216.88 40.0154 218.78 48.4409 216.12 49.2069C214.016 49.9097 211.98 50.8071 210.04 51.8877L207 61.8452V71.8026L243.86 76.0154L245 72.5686V67.5898L240.82 59.9303L238.92 58.0154C238.92 58.0154 230.56 48.8239 232.46 40.0154L216.88 40.0154Z" fill="#A0616A"/>
<path d="M249.474 70.0154C249.474 70.0154 250.658 83.4769 249.474 89.6308C248.289 95.7846 248.684 105.015 248.684 105.015L240 103.477V82.7077L241.974 71.5538L249.474 70.0154Z" fill="#A0616A"/>
<circle cx="228.5" cy="9.51538" r="7.5" fill="#2F2E41"/>
<path d="M220.718 7.51538C220.719 3.67917 223.86 0.461632 228 0.0576831C224.903 -0.246214 221.89 1.10505 220.239 3.53815C218.587 5.97125 218.587 9.05951 220.239 11.4926C221.89 13.9257 224.903 15.277 228 14.9731C223.86 14.5691 220.719 11.3516 220.718 7.51538Z" fill="#2F2E41"/>
<path d="M241.492 19.3382L230.807 14.0154L216.053 16.193L213 29.0154L220.599 28.7372L222.722 24.0265V28.6595L226.228 28.5314L228.263 21.0314L229.535 29.0154L242 28.7734L241.492 19.3382Z" fill="#2F2E41"/>
<rect x="203" y="117.015" width="46" height="46" fill="#F2F2F2"/>
<path d="M195.501 64.0154L188.586 92.0081C188.586 92.0081 185.896 98.0606 192.043 101.843C198.19 105.626 212.02 110.544 212.02 110.544C212.02 110.544 224.313 127.188 225.85 120.379C227.386 113.57 216.63 104.87 216.63 104.87L197.806 93.143L205.105 73.4724L195.501 64.0154Z" fill="#A0616A"/>
<path d="M244.67 99.0429C244.67 99.0429 250.361 98.2846 249.982 104.73C249.602 111.176 242.014 111.935 242.014 111.935C242.014 111.935 238.599 126.343 233.666 123.689C228.734 121.035 236.322 106.626 236.322 106.626L242.773 101.697L244.67 99.0429Z" fill="#A0616A"/>
<path d="M208.338 61.527L214.43 49.0154L202.246 53.1859C202.246 53.1859 195.392 56.5982 195.012 64.5601C194.631 72.5221 203.769 76.6926 203.769 76.6926C203.769 76.6926 205.292 88.0668 204.531 89.5834C203.769 91.1 204.531 97.1662 204.531 97.1662C204.531 97.1662 219.19 93.1852 226.424 98.114C233.658 103.043 239.56 100.199 239.56 100.199C239.56 100.199 239.179 90.7208 242.225 89.2042C245.272 87.6877 247.937 80.484 245.272 75.9343C245.272 75.9343 251.364 76.6926 250.983 71.0055C250.602 65.3184 247.556 60.3896 242.606 58.1147C237.656 55.8399 237.109 55.4765 237.109 55.4765L244.129 68.3515V71.7638C244.129 71.7638 231.702 63.865 219.406 63.2068C215.395 63.0241 211.456 64.3152 208.338 66.8348L208.338 66.835V61.527Z" fill="#2F2E41"/>
<path d="M198.076 208.015C198.076 208.015 203.514 210.554 205.114 211.506C206.713 212.458 213.112 210.554 211.832 216.265C210.552 221.977 205.114 227.371 205.114 227.371C205.114 227.371 202.554 230.226 202.554 232.13C202.554 234.034 196.156 248.63 188.478 247.995C180.8 247.361 182.08 239.745 182.08 239.745L183.68 231.496C183.68 231.496 186.879 217.534 187.519 217.852C188.158 218.169 189.758 220.39 189.758 220.39C189.758 220.39 197.756 217.217 198.076 208.015Z" fill="#D0CDE1"/>
<path d="M276.924 199.015C276.924 199.015 271.486 201.554 269.886 202.506C268.287 203.458 261.888 201.554 263.168 207.265C264.448 212.977 269.886 218.371 269.886 218.371C269.886 218.371 272.446 221.226 272.446 223.13C272.446 225.034 278.844 239.63 286.522 238.995C294.2 238.361 292.92 230.745 292.92 230.745L291.32 222.496C291.32 222.496 288.121 208.534 287.481 208.852C286.842 209.169 285.242 211.39 285.242 211.39C285.242 211.39 277.244 208.217 276.924 199.015Z" fill="#D0CDE1"/>
</svg>
