<svg width="278" height="250" viewBox="0 0 278 250" fill="none" xmlns="http://www.w3.org/2000/svg">
<g clip-path="url(#clip0)">
<path d="M68.7537 63.4163C63.9821 49.1531 49.2472 41.2259 39.5537 44.4687C29.8603 47.7115 22.8615 62.9094 27.633 77.1726C32.0496 90.3749 45.4326 97.9966 54.6391 96.6365C54.5727 96.752 54.529 96.8791 54.5103 97.0109L54.2288 99.3589C54.2074 99.5379 54.232 99.7194 54.3004 99.8862C54.3689 100.053 54.4788 100.199 54.6197 100.312C54.7607 100.424 54.9281 100.499 55.1059 100.528C55.2837 100.558 55.4662 100.541 55.6358 100.48L60.3783 98.7798C60.548 98.719 60.6993 98.6158 60.8179 98.48C60.9365 98.3442 61.0184 98.1804 61.0559 98.0041C61.0933 97.8277 61.0851 97.6447 61.0319 97.4725C60.9788 97.3002 60.8825 97.1444 60.7522 97.0198L59.0427 95.3858C58.9819 95.3301 58.9148 95.2819 58.8427 95.242C67.0541 90.8168 73.1799 76.6474 68.7537 63.4163Z" fill="#F3F3F3"/>
<path d="M51.4801 52.9227C55.4426 54.9678 58.4687 58.4561 59.9339 62.6677C61.399 66.8792 61.1912 71.4926 59.3534 75.5554C58.9431 76.4895 60.4521 76.9808 60.8598 76.0527C62.7893 71.6568 62.9856 66.6938 61.4092 62.1592C59.8329 57.6246 56.6004 53.8535 52.3601 51.6024C51.4651 51.1281 50.5785 52.4449 51.4801 52.9227Z" fill="white"/>
<path d="M261.935 42.6258C257.163 28.3626 242.428 20.4353 232.735 23.6781C223.041 26.9209 216.042 42.1188 220.814 56.382C225.231 69.5844 238.614 77.2061 247.82 75.846C247.754 75.9614 247.71 76.0885 247.691 76.2204L247.41 78.5684C247.388 78.7474 247.413 78.9289 247.481 79.0956C247.55 79.2624 247.66 79.4089 247.801 79.5213C247.942 79.6337 248.109 79.7081 248.287 79.7376C248.465 79.7671 248.647 79.7506 248.817 79.6898L253.559 77.9893C253.729 77.9285 253.88 77.8253 253.999 77.6895C254.118 77.5537 254.199 77.3899 254.237 77.2135C254.274 77.0372 254.266 76.8542 254.213 76.6819C254.16 76.5097 254.064 76.3539 253.933 76.2293L252.224 74.5952C252.163 74.5396 252.096 74.4914 252.024 74.4515C260.235 70.0263 266.361 55.8569 261.935 42.6258Z" fill="#F3F3F3"/>
<path d="M244.661 32.1322C248.624 34.1772 251.65 37.6656 253.115 41.8771C254.58 46.0887 254.372 50.702 252.534 54.7649C252.124 55.699 253.633 56.1903 254.041 55.2622C255.97 50.8662 256.167 45.9033 254.59 41.3687C253.014 36.834 249.781 33.063 245.541 30.8119C244.646 30.3376 243.759 31.6544 244.661 32.1322Z" fill="white"/>
<path d="M149.751 19.6693C144.98 5.40607 130.245 -2.5212 120.551 0.721592C110.858 3.96438 103.859 19.1623 108.63 33.4255C113.047 46.6279 126.43 54.2496 135.637 52.8894C135.57 53.0049 135.526 53.132 135.508 53.2639L135.226 55.6118C135.205 55.7908 135.229 55.9723 135.298 56.1391C135.366 56.3059 135.476 56.4524 135.617 56.5647C135.758 56.6771 135.925 56.7516 136.103 56.781C136.281 56.8105 136.464 56.7941 136.633 56.7332L141.376 55.0328C141.545 54.9719 141.697 54.8687 141.815 54.7329C141.934 54.5972 142.016 54.4333 142.053 54.257C142.091 54.0806 142.083 53.8977 142.029 53.7254C141.976 53.5531 141.88 53.3973 141.75 53.2727L140.04 51.6387C139.979 51.5831 139.912 51.5348 139.84 51.4949C148.051 47.0698 154.177 32.9003 149.751 19.6693Z" fill="#F3F3F3"/>
<path d="M132.477 9.17565C136.44 11.2207 139.466 14.709 140.931 18.9206C142.396 23.1322 142.189 27.7455 140.351 31.8083C139.94 32.7425 141.45 33.2337 141.857 32.3057C143.787 27.9097 143.983 22.9468 142.407 18.4121C140.83 13.8775 137.598 10.1065 133.358 7.85531C132.463 7.38105 131.576 8.69787 132.477 9.17565Z" fill="white"/>
<path d="M125.82 88.3013C126.448 88.3013 126.957 87.7924 126.957 87.1646C126.957 86.5368 126.448 86.0278 125.82 86.0278C125.192 86.0278 124.683 86.5368 124.683 87.1646C124.683 87.7924 125.192 88.3013 125.82 88.3013Z" fill="#999999"/>
<path d="M123.397 133.902C124.637 133.902 125.643 132.897 125.643 131.656C125.643 130.416 124.637 129.411 123.397 129.411C122.157 129.411 121.151 130.416 121.151 131.656C121.151 132.897 122.157 133.902 123.397 133.902Z" fill="#999999"/>
<path d="M85.8023 125.255C86.5189 125.255 87.0999 124.674 87.0999 123.957C87.0999 123.241 86.5189 122.66 85.8023 122.66C85.0856 122.66 84.5047 123.241 84.5047 123.957C84.5047 124.674 85.0856 125.255 85.8023 125.255Z" fill="#999999"/>
<path d="M105.516 104.008C106.292 104.008 106.921 103.379 106.921 102.603C106.921 101.826 106.292 101.197 105.516 101.197C104.74 101.197 104.11 101.826 104.11 102.603C104.11 103.379 104.74 104.008 105.516 104.008Z" fill="#999999"/>
<path d="M174.664 186.282C175.292 186.282 175.801 185.773 175.801 185.145C175.801 184.517 175.292 184.008 174.664 184.008C174.037 184.008 173.528 184.517 173.528 185.145C173.528 185.773 174.037 186.282 174.664 186.282Z" fill="#999999"/>
<path d="M137.436 162.907C138.676 162.907 139.682 161.901 139.682 160.661C139.682 159.421 138.676 158.416 137.436 158.416C136.196 158.416 135.19 159.421 135.19 160.661C135.19 161.901 136.196 162.907 137.436 162.907Z" fill="#999999"/>
<path d="M163.008 133.346C163.725 133.346 164.306 132.765 164.306 132.048C164.306 131.331 163.725 130.75 163.008 130.75C162.291 130.75 161.71 131.331 161.71 132.048C161.71 132.765 162.291 133.346 163.008 133.346Z" fill="#999999"/>
<path d="M171.541 161.235C172.317 161.235 172.947 160.606 172.947 159.83C172.947 159.054 172.317 158.425 171.541 158.425C170.765 158.425 170.136 159.054 170.136 159.83C170.136 160.606 170.765 161.235 171.541 161.235Z" fill="#999999"/>
<path d="M247.232 233.611C248.472 232.573 246.796 228.53 243.489 224.58C240.182 220.63 236.496 218.27 235.256 219.308C234.016 220.346 235.692 224.39 238.999 228.339C242.306 232.289 245.992 234.649 247.232 233.611Z" fill="#333333"/>
<path d="M221.403 241.875C231.705 241.875 240.057 233.523 240.057 223.221C240.057 212.918 231.705 204.566 221.403 204.566C211.1 204.566 202.749 212.918 202.749 223.221C202.749 233.523 211.1 241.875 221.403 241.875Z" fill="#333333"/>
<path d="M229.299 237.86H223.631V248.014H229.299V237.86Z" fill="#333333"/>
<path d="M217.964 237.86H212.297V248.014H217.964V237.86Z" fill="#333333"/>
<path d="M224.576 249.903C227.184 249.903 229.299 249.11 229.299 248.132C229.299 247.154 227.184 246.361 224.576 246.361C221.968 246.361 219.853 247.154 219.853 248.132C219.853 249.11 221.968 249.903 224.576 249.903Z" fill="#333333"/>
<path d="M213.242 249.667C215.85 249.667 217.964 248.875 217.964 247.896C217.964 246.918 215.85 246.125 213.242 246.125C210.634 246.125 208.519 246.918 208.519 247.896C208.519 248.875 210.634 249.667 213.242 249.667Z" fill="#333333"/>
<path d="M215.546 199.772C217.211 193.064 224.564 189.116 231.968 190.955C239.372 192.794 244.024 199.722 242.359 206.43C240.693 213.138 235.167 213.16 227.763 211.321C220.358 209.483 213.88 206.48 215.546 199.772Z" fill="#F3F3F3"/>
<path d="M208.819 218.562C209.512 217.101 206.301 214.127 201.647 211.92C196.993 209.712 192.658 209.107 191.965 210.568C191.272 212.029 194.483 215.003 199.137 217.211C203.792 219.418 208.126 220.023 208.819 218.562Z" fill="#333333"/>
<path d="M218.614 225.504C222.049 225.504 224.833 222.72 224.833 219.285C224.833 215.85 222.049 213.065 218.614 213.065C215.179 213.065 212.395 215.85 212.395 219.285C212.395 222.72 215.179 225.504 218.614 225.504Z" fill="white"/>
<path d="M216.058 219.128C217.203 219.128 218.131 218.2 218.131 217.055C218.131 215.91 217.203 214.982 216.058 214.982C214.913 214.982 213.985 215.91 213.985 217.055C213.985 218.2 214.913 219.128 216.058 219.128Z" fill="#333333"/>
<path d="M222.516 232.242C222.613 232.778 222.604 233.327 222.489 233.859C222.374 234.392 222.156 234.896 221.846 235.344C221.536 235.792 221.141 236.174 220.684 236.469C220.226 236.764 219.715 236.966 219.179 237.064C218.643 237.161 218.094 237.152 217.561 237.037C217.029 236.922 216.525 236.704 216.077 236.394C215.629 236.084 215.247 235.689 214.952 235.232C214.657 234.774 214.455 234.263 214.357 233.727V233.727L214.356 233.719C213.948 231.466 215.69 230.668 217.943 230.261C220.197 229.853 222.108 229.989 222.516 232.242Z" fill="white"/>
<path d="M68.0382 210.18C69.8773 205.368 70.1437 200.999 68.6332 200.422C67.1226 199.845 64.4072 203.277 62.568 208.089C60.7289 212.901 60.4625 217.269 61.9731 217.847C63.4836 218.424 66.1991 214.991 68.0382 210.18Z" fill="#333333"/>
<path d="M48.061 241.875C58.3634 241.875 66.7152 233.523 66.7152 223.221C66.7152 212.918 58.3634 204.566 48.061 204.566C37.7585 204.566 29.4067 212.918 29.4067 223.221C29.4067 233.523 37.7585 241.875 48.061 241.875Z" fill="#333333"/>
<path d="M45.2274 237.86H39.5603V248.014H45.2274V237.86Z" fill="#333333"/>
<path d="M56.5616 237.86H50.8945V248.014H56.5616V237.86Z" fill="#333333"/>
<path d="M44.2829 249.903C46.8911 249.903 49.0055 249.11 49.0055 248.132C49.0055 247.154 46.8911 246.361 44.2829 246.361C41.6747 246.361 39.5603 247.154 39.5603 248.132C39.5603 249.11 41.6747 249.903 44.2829 249.903Z" fill="#333333"/>
<path d="M55.6171 249.667C58.2254 249.667 60.3397 248.875 60.3397 247.896C60.3397 246.918 58.2254 246.125 55.6171 246.125C53.0089 246.125 50.8945 246.918 50.8945 247.896C50.8945 248.875 53.0089 249.667 55.6171 249.667Z" fill="#333333"/>
<path d="M48.5332 224.874C52.0543 224.874 54.9087 222.019 54.9087 218.498C54.9087 214.977 52.0543 212.123 48.5332 212.123C45.0122 212.123 42.1577 214.977 42.1577 218.498C42.1577 222.019 45.0122 224.874 48.5332 224.874Z" fill="white"/>
<path d="M48.5332 220.623C49.707 220.623 50.6584 219.672 50.6584 218.498C50.6584 217.325 49.707 216.373 48.5332 216.373C47.3595 216.373 46.4081 217.325 46.4081 218.498C46.4081 219.672 47.3595 220.623 48.5332 220.623Z" fill="#333333"/>
<path d="M29.9658 205.873C28.4595 199.127 33.2744 192.311 40.7201 190.648C48.1657 188.986 55.4227 193.106 56.9289 199.852C58.4352 206.598 53.5007 209.086 46.055 210.748C38.6093 212.411 31.472 212.618 29.9658 205.873Z" fill="#F3F3F3"/>
<path d="M35.4774 218.562C36.1704 217.101 32.9591 214.127 28.3048 211.92C23.6506 209.712 19.3157 209.107 18.6228 210.568C17.9298 212.029 21.141 215.003 25.7953 217.211C30.4496 219.418 34.7844 220.023 35.4774 218.562Z" fill="#333333"/>
<path d="M38.8981 229.95C38.8981 231.776 43.5991 235.381 48.8156 235.381C54.032 235.381 58.923 230.241 58.923 228.415C58.923 226.59 54.032 228.77 48.8156 228.77C43.5991 228.77 38.8981 228.124 38.8981 229.95Z" fill="white"/>
<path d="M137.166 224.116C147.469 224.116 155.821 215.764 155.821 205.462C155.821 195.159 147.469 186.808 137.166 186.808C126.864 186.808 118.512 195.159 118.512 205.462C118.512 215.764 126.864 224.116 137.166 224.116Z" fill="#333333"/>
<path d="M134.333 220.102H128.666V230.255H134.333V220.102Z" fill="#333333"/>
<path d="M145.667 220.102H140V230.255H145.667V220.102Z" fill="#333333"/>
<path d="M133.388 232.144C135.997 232.144 138.111 231.352 138.111 230.374C138.111 229.395 135.997 228.603 133.388 228.603C130.78 228.603 128.666 229.395 128.666 230.374C128.666 231.352 130.78 232.144 133.388 232.144Z" fill="#333333"/>
<path d="M144.723 231.909C147.331 231.909 149.445 231.116 149.445 230.138C149.445 229.16 147.331 228.367 144.723 228.367C142.114 228.367 140 229.16 140 230.138C140 231.116 142.114 231.909 144.723 231.909Z" fill="#333333"/>
<path d="M119.071 188.114C117.565 181.368 122.38 174.552 129.826 172.889C137.271 171.227 144.528 175.348 146.034 182.093C147.541 188.839 142.606 191.327 135.16 192.989C127.715 194.652 120.577 194.859 119.071 188.114Z" fill="#EA4647"/>
<path d="M157.268 197.31C161.308 193.267 163.554 188.962 162.285 187.693C161.016 186.425 156.712 188.675 152.672 192.718C148.632 196.761 146.386 201.066 147.655 202.334C148.925 203.603 153.228 201.353 157.268 197.31Z" fill="#333333"/>
<path d="M122.131 203.634C123.4 202.366 121.154 198.06 117.114 194.017C113.074 189.974 108.77 187.725 107.501 188.993C106.232 190.261 108.478 194.567 112.518 198.61C116.557 202.653 120.861 204.902 122.131 203.634Z" fill="#333333"/>
<path d="M250.575 87.0703C249.956 67.9429 236.855 52.845 221.314 53.3482C186.727 54.373 185.882 117.8 219.275 122.356L218.568 127.976L228.882 127.643L227.813 122.08C241.246 119.111 251.137 104.412 250.575 87.0703Z" fill="#246EBA"/>
<path d="M204.115 97.6753L200.218 97.8015C198.691 90.5403 198.449 83.0676 199.504 75.7228L203.4 75.5967C201.961 83.285 202.199 90.6446 204.115 97.6753Z" fill="white"/>
<path d="M229.387 121.993L217.699 122.371L217.783 124.969L229.471 124.59L229.387 121.993Z" fill="#333333"/>
<path d="M195.437 221.453L194.26 220.902L223.199 122.765L224.376 123.316L195.437 221.453Z" fill="#333333"/>
<path d="M274.527 103.245C281.594 85.4605 275.609 66.3883 261.159 60.6462C229.038 47.7796 202.945 105.597 231.744 123.104L228.852 127.975L238.442 131.786L239.682 126.259C253.184 128.898 268.12 119.369 274.527 103.245Z" fill="#EA4647"/>
<path d="M227.695 94.4229L224.073 92.9833C225.571 85.7161 228.332 78.7679 232.23 72.4546L235.853 73.8942C231.465 80.3691 228.745 87.212 227.695 94.4229Z" fill="white"/>
<path d="M230.292 122.488L229.333 124.903L240.201 129.222L241.16 126.806L230.292 122.488Z" fill="#333333"/>
<path d="M195.208 218.87L194.079 218.227L234.481 126.025L235.611 126.668L195.208 218.87Z" fill="#333333"/>
<path d="M54.9189 88.3063C47.2727 70.7627 29.519 61.5772 15.2649 67.7898C-16.4938 81.5281 6.16854 140.774 38.8806 132.663L40.3013 138.147L49.7607 134.024L46.7111 129.25C58.0952 121.526 61.8512 104.212 54.9189 88.3063Z" fill="#EA4647"/>
<path d="M15.67 115.335L12.0964 116.893C7.99297 110.711 5.00571 103.857 3.27036 96.6425L6.84396 95.085C8.34901 102.761 11.291 109.511 15.67 115.335Z" fill="white"/>
<path d="M48.1417 128.587L37.4209 133.26L38.4592 135.642L49.18 130.97L48.1417 128.587Z" fill="#333333"/>
<path d="M72.946 221.704C72.7787 221.746 72.6019 221.719 72.4543 221.63C72.3068 221.541 72.2005 221.397 72.1591 221.23L43.915 131.736L45.1762 131.423L73.4202 220.917C73.4407 221 73.4447 221.086 73.432 221.17C73.4193 221.255 73.3901 221.336 73.3461 221.409C73.302 221.482 73.244 221.546 73.1754 221.596C73.1067 221.647 73.0288 221.684 72.946 221.704Z" fill="#333333"/>
<path d="M80.4945 250H12.4913C12.3764 250 12.2662 249.954 12.185 249.873C12.1038 249.792 12.0581 249.682 12.0581 249.567C12.0581 249.452 12.1038 249.342 12.185 249.261C12.2662 249.179 12.3764 249.134 12.4913 249.134H80.4945C80.6093 249.134 80.7195 249.179 80.8007 249.261C80.882 249.342 80.9276 249.452 80.9276 249.567C80.9276 249.682 80.882 249.792 80.8007 249.873C80.7195 249.954 80.6093 250 80.4945 250Z" fill="#999999"/>
<path d="M253.318 250H185.315C185.2 250 185.09 249.954 185.008 249.873C184.927 249.792 184.882 249.682 184.882 249.567C184.882 249.452 184.927 249.342 185.008 249.261C185.09 249.179 185.2 249.134 185.315 249.134H253.318C253.433 249.134 253.543 249.179 253.624 249.261C253.705 249.342 253.751 249.452 253.751 249.567C253.751 249.682 253.705 249.792 253.624 249.873C253.543 249.954 253.433 250 253.318 250Z" fill="#999999"/>
<path d="M172.32 232.241H104.317C104.202 232.241 104.092 232.196 104.011 232.114C103.93 232.033 103.884 231.923 103.884 231.808C103.884 231.693 103.93 231.583 104.011 231.502C104.092 231.421 104.202 231.375 104.317 231.375H172.32C172.435 231.375 172.545 231.421 172.627 231.502C172.708 231.583 172.754 231.693 172.754 231.808C172.754 231.923 172.708 232.033 172.627 232.114C172.545 232.196 172.435 232.241 172.32 232.241Z" fill="#999999"/>
<path d="M136.382 209.194C139.903 209.194 142.757 206.339 142.757 202.818C142.757 199.297 139.903 196.443 136.382 196.443C132.861 196.443 130.006 199.297 130.006 202.818C130.006 206.339 132.861 209.194 136.382 209.194Z" fill="white"/>
<path d="M136.382 204.944C137.555 204.944 138.507 203.992 138.507 202.819C138.507 201.645 137.555 200.693 136.382 200.693C135.208 200.693 134.256 201.645 134.256 202.819C134.256 203.992 135.208 204.944 136.382 204.944Z" fill="#333333"/>
<path d="M141.443 214.61C141.64 215.691 141.399 216.807 140.773 217.711C140.147 218.616 139.188 219.234 138.106 219.431C137.024 219.628 135.908 219.387 135.004 218.762C134.1 218.136 133.481 217.177 133.284 216.095L133.283 216.087C132.875 213.833 134.617 213.036 136.87 212.628C139.124 212.22 141.035 212.356 141.443 214.61Z" fill="white"/>
</g>
<defs>
<clipPath id="clip0">
<rect width="277.495" height="250" fill="white"/>
</clipPath>
</defs>
</svg>
