<svg width="367" height="236" viewBox="0 0 367 236" fill="none" xmlns="http://www.w3.org/2000/svg">
<g clip-path="url(#clip0)">
<path d="M28.2444 189.821L25.6578 179.618C21.0715 177.674 16.3792 175.991 11.6032 174.575L11.2766 179.317L9.95235 174.093C4.0294 172.401 7.62939e-06 171.656 7.62939e-06 171.656C7.62939e-06 171.656 5.44278 192.356 16.8586 208.182L30.1605 210.519L19.8266 212.009C21.2632 213.737 22.8071 215.374 24.4491 216.908C41.0559 232.325 59.5527 239.398 65.763 232.707C71.9732 226.015 63.5451 208.093 46.9383 192.676C41.79 187.897 35.3227 184.062 28.849 181.043L28.2444 189.821Z" fill="#F3F3F3"/>
<path d="M52.8445 178.741L55.9037 168.67C52.9823 164.634 49.8356 160.767 46.4787 157.087L43.7484 160.977L45.3147 155.82C41.1186 151.31 38.0544 148.589 38.0544 148.589C38.0544 148.589 32.0152 169.123 33.6086 188.572L43.7879 197.45L34.1714 193.383C34.5079 195.605 34.9839 197.804 35.5964 199.967C41.8447 221.749 54.0231 237.367 62.7977 234.849C71.5723 232.332 73.6202 212.632 67.3719 190.849C65.4348 184.097 61.8808 177.47 57.899 171.539L52.8445 178.741Z" fill="#F3F3F3"/>
<path d="M337.727 200.443L343.526 196.797C343.811 193.567 343.913 190.324 343.833 187.083L340.832 187.831L343.801 185.964C343.662 181.957 343.316 179.312 343.316 179.312C343.316 179.312 331.59 186.83 324.079 197.069L325.297 205.775L322.304 199.674C321.522 200.91 320.818 202.194 320.197 203.518C313.979 216.891 313.305 229.762 318.691 232.268C324.078 234.774 333.486 225.964 339.704 212.592C341.632 208.446 342.711 203.672 343.283 199.059L337.727 200.443Z" fill="#F3F3F3"/>
<path d="M349.515 213.457L356.363 213.335C358.276 210.717 360.04 207.994 361.647 205.178L358.691 204.266L362.197 204.203C364.149 200.701 365.22 198.258 365.22 198.258C365.22 198.258 351.297 198.631 339.575 203.514L336.118 211.596L336.71 204.826C335.401 205.48 334.135 206.215 332.919 207.028C320.684 215.26 313.455 225.931 316.771 230.86C320.088 235.79 332.694 233.112 344.929 224.88C348.721 222.327 352.112 218.799 354.986 215.145L349.515 213.457Z" fill="#F3F3F3"/>
<path d="M104.443 25.4137L103.498 24.9395L100.937 30.0441L101.883 30.5184L104.443 25.4137Z" fill="white"/>
<path d="M98.9968 153.153L98.6837 153.189L98.8808 154.88L99.1939 154.844L98.9968 153.153Z" fill="#3F3D56"/>
<path d="M100.866 168.077L100.767 167.778L99.1513 168.314L99.2506 168.613L100.866 168.077Z" fill="white"/>
<path d="M99.4017 159.311L99.0871 159.33L99.1892 161.029L99.5039 161.01L99.4017 159.311Z" fill="white"/>
<path d="M97.9306 149.992L97.6159 150.011L97.7181 151.711L98.0327 151.692L97.9306 149.992Z" fill="white"/>
<path d="M120.416 156.943L120.298 156.65L118.719 157.288L118.838 157.58L120.416 156.943Z" fill="#FF6584"/>
<path d="M101.808 156.446L101.503 156.364L101.063 158.009L101.367 158.09L101.808 156.446Z" fill="#FF6584"/>
<path d="M118.734 29.0234H117.74V34.3907H118.734V29.0234Z" fill="#3F3D56"/>
<path d="M118.137 41.9443H117.143V47.3116H118.137V41.9443Z" fill="white"/>
<path d="M117.384 154.12L117.175 153.911L116.044 155.042L116.253 155.252L117.384 154.12Z" fill="white"/>
<path d="M120.359 171.258L120.15 171.048L119.018 172.18L119.228 172.389L120.359 171.258Z" fill="white"/>
<path d="M117.986 164.155L117.7 164.078L117.286 165.624L117.572 165.7L117.986 164.155Z" fill="#FF6584"/>
<path d="M118.725 158.31L118.516 158.101L117.384 159.232L117.594 159.441L118.725 158.31Z" fill="#FF6584"/>
<path d="M114.175 158.118C114.43 157.863 114.573 157.517 114.573 157.157C114.573 156.796 114.43 156.45 114.175 156.195C113.92 155.941 113.575 155.797 113.214 155.797C112.854 155.797 112.508 155.941 112.253 156.195L68.8871 199.568C68.6322 199.823 68.4891 200.168 68.4891 200.529C68.4891 200.889 68.6322 201.235 68.8871 201.49C69.142 201.745 69.4877 201.888 69.8481 201.888C70.2086 201.888 70.5543 201.745 70.8091 201.49L113.896 158.397" fill="#3F3D56"/>
<path d="M118.608 152.644C115.449 149.488 111.344 147.455 106.92 146.853C102.496 146.252 97.9971 147.117 94.1111 149.316C90.2252 151.514 87.1662 154.925 85.402 159.027C83.6378 163.128 83.2656 167.695 84.3423 172.029C85.4189 176.362 87.8852 180.223 91.3638 183.022C94.8425 185.821 99.142 187.403 103.605 187.527C108.068 187.65 112.448 186.308 116.076 183.706C119.704 181.104 122.38 177.385 123.695 173.118C124.788 169.565 124.892 165.781 123.996 162.174C123.1 158.566 121.237 155.271 118.608 152.644V152.644ZM101.88 174.879C100.473 174.489 99.1919 173.741 98.1602 172.708C97.9516 172.5 97.7585 172.279 97.5731 172.055C96.2989 170.485 95.6279 168.511 95.6814 166.49C95.7348 164.468 96.5091 162.532 97.8644 161.032C99.2198 159.531 101.067 158.565 103.072 158.307C105.078 158.049 107.109 158.516 108.8 159.625C110.491 160.734 111.73 162.411 112.293 164.353C112.856 166.295 112.707 168.375 111.871 170.216C111.036 172.058 109.569 173.54 107.737 174.395C105.905 175.25 103.827 175.422 101.88 174.879Z" fill="#EA4647"/>
<path d="M72.3037 39.027C72.3037 37.8177 71.8234 36.6579 70.9684 35.8028C70.1134 34.9477 68.9538 34.4673 67.7446 34.4673C66.5355 34.4673 65.3758 34.9477 64.5208 35.8028C63.6658 36.6579 63.1855 37.8177 63.1855 39.027V231.208C63.1855 231.806 63.3034 232.399 63.5326 232.952C63.7617 233.506 64.0975 234.008 64.5208 234.432C64.9442 234.855 65.4468 235.191 65.9999 235.42C66.5531 235.649 67.1459 235.767 67.7446 235.767C68.3433 235.767 68.9362 235.649 69.4893 235.42C70.0424 235.191 70.545 234.855 70.9684 234.432C71.3917 234.008 71.7276 233.506 71.9567 232.952C72.1858 232.399 72.3037 231.806 72.3037 231.208V40.3514" fill="#3F3D56"/>
<path d="M130.459 37.3235C122.631 22.5138 109.655 11.0811 93.9781 5.18146C78.3015 -0.718147 61.0084 -0.676762 45.3602 5.29781C29.7121 11.2724 16.7907 22.7671 9.03305 37.6141C1.27544 52.461 -0.782102 69.6338 3.24849 85.8935C7.27909 102.153 17.1192 116.376 30.9129 125.879C44.7066 135.382 61.5004 139.509 78.1268 137.481C94.7532 135.452 110.063 127.41 121.168 114.869C132.274 102.329 138.407 86.1575 138.412 69.4056C138.417 58.2229 135.687 47.2089 130.459 37.3235V37.3235ZM83.8089 94.1673C78.3698 97.2379 72.071 98.4315 65.8859 97.5636C59.7007 96.6957 53.9735 93.8147 49.5892 89.3657C45.205 84.9167 42.4078 79.1474 41.63 72.9495C40.8521 66.7515 42.1369 60.4698 45.2857 55.0751C48.4345 49.6804 53.2721 45.4731 59.051 43.1033C64.8298 40.7335 71.2282 40.3331 77.2573 41.964C83.2864 43.5949 88.6106 47.1663 92.4072 52.1264C96.2039 57.0864 98.2615 63.159 98.2622 69.4056C98.2772 74.4465 96.9453 79.3999 94.4042 83.7533C91.8632 88.1068 88.2052 91.7021 83.8089 94.1673H83.8089Z" fill="#EA4647"/>
<path opacity="0.2" d="M69.6398 133.613C51.8241 133.613 34.7079 126.677 21.9156 114.276C9.1233 101.874 1.65928 84.9797 1.10404 67.1702C1.0803 67.912 1.06816 68.6567 1.06762 69.4043C1.06542 78.412 2.83746 87.3319 6.28255 95.6546C9.72764 103.977 14.7783 111.54 21.146 117.91C27.5138 124.28 35.0739 129.333 43.3945 132.781C51.7152 136.228 60.6334 138.003 69.6398 138.003C78.6463 138.003 87.5645 136.228 95.8852 132.781C104.206 129.333 111.766 124.28 118.134 117.91C124.501 111.54 129.552 103.977 132.997 95.6546C136.442 87.3319 138.214 78.412 138.212 69.4043C138.212 68.6558 138.2 67.9102 138.176 67.1675C137.621 84.9776 130.157 101.873 117.365 114.275C104.573 126.677 87.4561 133.613 69.6398 133.613V133.613Z" fill="#333333"/>
<path opacity="0.2" d="M69.8384 35.1836C63.0714 35.184 56.4565 37.1912 50.8301 40.9516C45.2037 44.7119 40.8185 50.0564 38.229 56.3092C35.6396 62.5621 34.9622 69.4425 36.2824 76.0804C37.6027 82.7183 40.8614 88.8156 45.6464 93.6013C50.4314 98.3869 56.5278 101.646 63.1648 102.967C69.8018 104.287 76.6812 103.609 82.9332 101.02C89.1852 98.4298 94.5289 94.044 98.2887 88.4168C102.048 82.7896 104.055 76.1737 104.056 69.4058C104.046 60.3326 100.437 51.6339 94.0226 45.2182C87.6078 38.8024 78.9103 35.1937 69.8384 35.1836V35.1836ZM83.8089 94.1676C78.3698 97.2382 72.071 98.4317 65.8858 97.5638C59.7007 96.6959 53.9734 93.8149 49.5892 89.3659C45.205 84.9169 42.4078 79.1477 41.63 72.9497C40.8521 66.7517 42.1368 60.47 45.2857 55.0753C48.4345 49.6806 53.2721 45.4733 59.051 43.1035C64.8298 40.7337 71.2281 40.3333 77.2573 41.9642C83.2864 43.5951 88.6106 47.1665 92.4072 52.1266C96.2038 57.0866 98.2615 63.1592 98.2621 69.4058C98.2772 74.4467 96.9453 79.4001 94.4042 83.7535C91.8632 88.1069 88.2053 91.7023 83.8089 94.1676V94.1676Z" fill="#333333"/>
<path d="M130.46 36.4995V47.908C130.461 48.7409 130.212 49.555 129.746 50.2454C129.28 50.9357 128.618 51.4707 127.845 51.7814C127.073 52.0921 126.225 52.1644 125.41 51.9888C124.596 51.8132 123.853 51.3979 123.277 50.7963V52.0964C123.277 53.4108 122.755 54.6713 121.826 55.6007C120.897 56.5301 119.636 57.0522 118.322 57.0522C117.008 57.0522 115.748 56.5301 114.818 55.6007C113.889 54.6713 113.367 53.4108 113.367 52.0964V51.013C112.768 51.5522 112.025 51.9061 111.228 52.0316C110.432 52.1572 109.616 52.0491 108.88 51.7206C108.144 51.392 107.519 50.8569 107.081 50.1802C106.642 49.5035 106.409 48.7143 106.41 47.908L106.212 35.7819V32.9849C106.211 32.5373 106.033 32.1082 105.716 31.7919C105.399 31.4755 104.97 31.2979 104.522 31.2979C104.075 31.2979 103.645 31.4755 103.329 31.7919C103.012 32.1082 102.833 32.5373 102.833 32.9849V35.7819L102.634 45.9201C102.634 47.0273 102.194 48.0891 101.411 48.8719C100.629 49.6548 99.5671 50.0946 98.4601 50.0946C97.3531 50.0946 96.2914 49.6548 95.5086 48.8719C94.7258 48.0891 94.2861 47.0273 94.2861 45.9201L93.7753 35.7819V30.5995C93.7753 29.8651 93.4836 29.1607 92.9643 28.6414C92.4451 28.1221 91.7409 27.8304 91.0065 27.8304C90.2722 27.8304 89.568 28.1221 89.0488 28.6414C88.5295 29.1607 88.2378 29.8651 88.2378 30.5995V35.7819L87.9258 45.9201C87.9264 46.7883 87.6562 47.6351 87.1528 48.3424C86.6494 49.0497 85.9378 49.5822 85.1174 49.8658C84.2969 50.1494 83.4084 50.1699 82.5757 49.9244C81.7431 49.6789 81.0077 49.1797 80.4723 48.4964C79.8122 49.3404 78.8521 49.8974 77.7918 50.0514C76.7315 50.2054 75.6527 49.9446 74.7798 49.3233V52.0964C74.7798 53.4108 74.2577 54.6713 73.3285 55.6007C72.3992 56.5301 71.1389 57.0522 69.8247 57.0522C68.5105 57.0522 67.2502 56.5301 66.3209 55.6007C65.3916 54.6713 64.8696 53.4108 64.8696 52.0964V43.5346C64.87 44.4896 64.5428 45.4159 63.9427 46.1587C63.3427 46.9016 62.506 47.4161 61.5723 47.6164C60.6387 47.8167 59.6647 47.6906 58.8127 47.2592C57.9608 46.8279 57.2826 46.1173 56.8914 45.2462V52.0964C56.8914 53.4108 56.3693 54.6713 55.4401 55.6007C54.5108 56.5301 53.2504 57.0522 51.9363 57.0522C50.6221 57.0522 49.3617 56.5301 48.4325 55.6007C47.5032 54.6713 46.9812 53.4108 46.9812 52.0964V35.7819H46.9533V52.0964C46.9533 53.4108 46.4313 54.6713 45.502 55.6007C44.5728 56.5301 43.3124 57.0522 41.9982 57.0522C40.6841 57.0522 39.4237 56.5301 38.4945 55.6007C37.5652 54.6713 37.0432 53.4108 37.0432 52.0964V45.3038C36.6411 46.164 35.9578 46.8613 35.106 47.2805C34.2542 47.6997 33.2849 47.8158 32.3582 47.6096C31.4315 47.4034 30.6029 46.8872 30.0092 46.1463C29.4155 45.4054 29.0922 44.4841 29.0928 43.5346V35.7819H28.6674V49.711C28.6674 51.0253 28.1454 52.2859 27.2161 53.2152C26.2868 54.1446 25.0265 54.6668 23.7123 54.6668C22.3981 54.6668 21.1378 54.1446 20.2085 53.2152C19.2793 52.2859 18.7572 51.0253 18.7572 49.711V43.5346C18.7578 44.0832 18.6502 44.6265 18.4407 45.1334C18.2312 45.6404 17.9238 46.1011 17.5362 46.4891C17.1485 46.8772 16.6882 47.1851 16.1815 47.3951C15.6748 47.6052 15.1317 47.7133 14.5833 47.7133C14.0348 47.7133 13.4917 47.6052 12.985 47.3951C12.4783 47.1851 12.018 46.8772 11.6304 46.4891C11.2427 46.1011 10.9354 45.6404 10.7258 45.1334C10.5163 44.6265 10.4088 44.0832 10.4093 43.5346V34.3446C16.5309 23.723 25.3865 14.9361 36.0547 8.89791C46.723 2.85976 58.8142 -0.208943 71.0703 0.011049C83.3264 0.231041 95.2997 3.7317 105.744 10.1488C116.189 16.5659 124.724 25.665 130.46 36.4995V36.4995Z" fill="#F3F3F3"/>
<path opacity="0.2" d="M41.9983 54.6667C41.3475 54.6668 40.7032 54.5386 40.102 54.2896C39.5008 54.0405 38.9545 53.6755 38.4944 53.2153C38.0342 52.7551 37.6692 52.2088 37.4202 51.6075C37.1713 51.0062 37.0431 50.3618 37.0432 49.7109V52.2952C37.0432 53.6095 37.5652 54.8701 38.4945 55.7995C39.4237 56.7288 40.6841 57.251 41.9983 57.251C43.3124 57.251 44.5728 56.7288 45.502 55.7995C46.4313 54.8701 46.9534 53.6095 46.9534 52.2952V49.7109C46.9534 50.3618 46.8253 51.0062 46.5763 51.6075C46.3273 52.2088 45.9623 52.7551 45.5022 53.2153C45.042 53.6755 44.4958 54.0406 43.8945 54.2896C43.2933 54.5386 42.649 54.6668 41.9983 54.6667Z" fill="#333333"/>
<path opacity="0.2" d="M51.9363 54.6667C51.2855 54.6668 50.6412 54.5386 50.04 54.2896C49.4388 54.0405 48.8925 53.6755 48.4324 53.2153C47.9722 52.7551 47.6073 52.2088 47.3583 51.6075C47.1093 51.0062 46.9811 50.3618 46.9812 49.7109V52.2952C46.9812 53.6095 47.5032 54.8701 48.4325 55.7995C49.3618 56.7288 50.6221 57.251 51.9363 57.251C53.2505 57.251 54.5108 56.7288 55.4401 55.7995C56.3693 54.8701 56.8914 53.6095 56.8914 52.2952V49.7109C56.8914 50.3618 56.7633 51.0062 56.5143 51.6075C56.2653 52.2088 55.9003 52.7551 55.4402 53.2153C54.98 53.6755 54.4338 54.0406 53.8326 54.2896C53.2314 54.5386 52.587 54.6668 51.9363 54.6667V54.6667Z" fill="#333333"/>
<path opacity="0.2" d="M37.0432 42.9181C36.6412 43.7783 35.9578 44.4756 35.106 44.8948C34.2542 45.314 33.2849 45.4301 32.3582 45.2239C31.4315 45.0177 30.6029 44.5015 30.0092 43.7606C29.4155 43.0197 29.0922 42.0984 29.0928 41.1489V43.7332C29.0922 44.6827 29.4155 45.604 30.0092 46.3448C30.6029 47.0857 31.4315 47.6019 32.3582 47.8081C33.2849 48.0144 34.2542 47.8983 35.106 47.479C35.9578 47.0598 36.6412 46.3625 37.0432 45.5024V42.9181Z" fill="#333333"/>
<path opacity="0.2" d="M46.9812 33.3965H46.9534V35.9807H46.9812V33.3965Z" fill="#333333"/>
<path opacity="0.2" d="M18.7573 41.1489C18.7562 42.2554 18.3159 43.3161 17.5333 44.0981C16.7506 44.8801 15.6896 45.3193 14.5833 45.3193C13.477 45.3193 12.416 44.8801 11.6333 44.0981C10.8507 43.3161 10.4104 42.2554 10.4093 41.1489V43.7332C10.4104 44.8396 10.8507 45.9004 11.6333 46.6824C12.416 47.4643 13.477 47.9036 14.5833 47.9036C15.6896 47.9036 16.7506 47.4643 17.5333 46.6824C18.3159 45.9004 18.7562 44.8396 18.7573 43.7332V41.1489Z" fill="#333333"/>
<path opacity="0.2" d="M29.0928 33.3965H28.6674V35.9807H29.0928V33.3965Z" fill="#333333"/>
<path opacity="0.2" d="M23.7123 52.2815C23.0616 52.2815 22.4172 52.1534 21.816 51.9043C21.2148 51.6553 20.6686 51.2903 20.2084 50.8301C19.7483 50.3699 19.3833 49.8235 19.1343 49.2222C18.8853 48.621 18.7572 47.9765 18.7573 47.3257V49.9099C18.7573 51.2243 19.2793 52.4848 20.2086 53.4142C21.1378 54.3436 22.3982 54.8657 23.7124 54.8657C25.0265 54.8657 26.2869 54.3436 27.2161 53.4142C28.1454 52.4848 28.6674 51.2243 28.6674 49.9099V47.3257C28.6675 47.9765 28.5394 48.621 28.2904 49.2222C28.0414 49.8235 27.6764 50.3699 27.2162 50.8301C26.7561 51.2903 26.2098 51.6553 25.6086 51.9043C25.0074 52.1534 24.3631 52.2815 23.7123 52.2815V52.2815Z" fill="#333333"/>
<path opacity="0.2" d="M69.8247 54.6667C69.174 54.6668 68.5296 54.5386 67.9284 54.2896C67.3272 54.0405 66.7809 53.6755 66.3208 53.2153C65.8607 52.7551 65.4957 52.2088 65.2467 51.6075C64.9977 51.0062 64.8695 50.3618 64.8696 49.7109V52.2952C64.8696 53.6095 65.3917 54.8701 66.3209 55.7995C67.2502 56.7288 68.5105 57.251 69.8247 57.251C71.1389 57.251 72.3992 56.7288 73.3285 55.7995C74.2577 54.8701 74.7798 53.6095 74.7798 52.2952V49.7109C74.7798 50.3618 74.6517 51.0062 74.4027 51.6075C74.1537 52.2088 73.7887 52.7551 73.3286 53.2153C72.8684 53.6755 72.3222 54.0406 71.721 54.2896C71.1198 54.5386 70.4754 54.6668 69.8247 54.6667Z" fill="#333333"/>
<path opacity="0.2" d="M106.212 30.5994C106.212 30.1512 106.034 29.7214 105.717 29.4046C105.4 29.0877 104.97 28.9097 104.522 28.9097C104.074 28.9097 103.644 29.0877 103.328 29.4046C103.011 29.7214 102.833 30.1512 102.833 30.5994V33.1836C102.832 32.9615 102.876 32.7415 102.961 32.5362C103.045 32.3309 103.17 32.1443 103.327 31.9871C103.484 31.8299 103.67 31.7052 103.875 31.6202C104.08 31.5351 104.3 31.4913 104.522 31.4913C104.744 31.4913 104.964 31.5351 105.169 31.6202C105.375 31.7052 105.561 31.8299 105.718 31.9871C105.875 32.1443 105.999 32.3309 106.084 32.5362C106.169 32.7415 106.212 32.9615 106.212 33.1836V30.5994Z" fill="#333333"/>
<path opacity="0.2" d="M64.8696 41.1489C64.87 42.1039 64.5428 43.0302 63.9427 43.773C63.3427 44.5159 62.506 45.0304 61.5724 45.2307C60.6387 45.431 59.6646 45.3049 58.8127 44.8736C57.9608 44.4422 57.2826 43.7316 56.8914 42.8605V45.4448C57.2826 46.3159 57.9608 47.0264 58.8127 47.4578C59.6646 47.8892 60.6387 48.0152 61.5724 47.8149C62.506 47.6146 63.3427 47.1001 63.9427 46.3573C64.5428 45.6144 64.87 44.6882 64.8696 43.7332V41.1489Z" fill="#333333"/>
<path opacity="0.2" d="M98.4601 47.7092C97.9119 47.7093 97.3691 47.6014 96.8627 47.3916C96.3562 47.1818 95.8961 46.8743 95.5085 46.4867C95.1208 46.099 94.8134 45.6388 94.6037 45.1323C94.3939 44.6258 94.286 44.0829 94.2861 43.5347L93.7752 33.3965V35.9807L94.2861 46.1189C94.2861 47.2261 94.7258 48.2879 95.5086 49.0708C96.2914 49.8537 97.353 50.2935 98.4601 50.2935C99.5671 50.2935 100.629 49.8537 101.411 49.0708C102.194 48.2879 102.634 47.2261 102.634 46.1189L102.833 35.9807V33.3965L102.634 43.5347C102.634 44.0829 102.526 44.6258 102.316 45.1323C102.107 45.6388 101.799 46.099 101.412 46.4867C101.024 46.8743 100.564 47.1818 100.057 47.3916C99.551 47.6014 99.0082 47.7093 98.4601 47.7092V47.7092Z" fill="#333333"/>
<path opacity="0.2" d="M126.286 49.6971C125.724 49.6973 125.167 49.5834 124.65 49.3624C124.133 49.1413 123.666 48.8176 123.277 48.4109V49.711C123.277 51.0254 122.755 52.2859 121.826 53.2153C120.897 54.1447 119.636 54.6668 118.322 54.6668C117.008 54.6668 115.748 54.1447 114.818 53.2153C113.889 52.2859 113.367 51.0254 113.367 49.711V48.6276C112.768 49.1668 112.025 49.5206 111.228 49.6462C110.432 49.7718 109.616 49.6637 108.88 49.3351C108.144 49.0065 107.519 48.4715 107.081 47.7948C106.642 47.1181 106.409 46.3289 106.41 45.5226L106.212 33.3965V35.9807L106.41 48.1068C106.409 48.9131 106.642 49.7024 107.081 50.3791C107.519 51.0558 108.144 51.5908 108.88 51.9194C109.616 52.248 110.432 52.3561 111.228 52.2305C112.025 52.1049 112.768 51.7511 113.367 51.2119V52.2953C113.367 53.6096 113.889 54.8702 114.818 55.7996C115.748 56.7289 117.008 57.2511 118.322 57.2511C119.636 57.2511 120.897 56.7289 121.826 55.7996C122.755 54.8702 123.277 53.6096 123.277 52.2953V50.9952C123.853 51.5968 124.596 52.0121 125.41 52.1877C126.225 52.3632 127.073 52.291 127.845 51.9803C128.618 51.6695 129.28 51.1346 129.746 50.4442C130.212 49.7539 130.461 48.9398 130.46 48.1068V45.5226C130.46 46.0708 130.353 46.6137 130.143 47.1202C129.933 47.6267 129.626 48.0869 129.238 48.4745C128.85 48.8622 128.39 49.1697 127.884 49.3795C127.377 49.5892 126.835 49.6972 126.286 49.6971V49.6971Z" fill="#333333"/>
<path opacity="0.2" d="M83.7518 47.7092C83.1197 47.7093 82.4959 47.5654 81.9277 47.2884C81.3595 47.0115 80.8618 46.6089 80.4723 46.111C79.8122 46.955 78.8521 47.512 77.7918 47.666C76.7315 47.82 75.6527 47.5592 74.7798 46.9379V49.5222C75.6527 50.1435 76.7315 50.4043 77.7918 50.2502C78.8521 50.0962 79.8122 49.5392 80.4723 48.6952C81.0077 49.3786 81.7431 49.8778 82.5757 50.1233C83.4084 50.3688 84.2969 50.3483 85.1174 50.0647C85.9378 49.7811 86.6494 49.2485 87.1528 48.5412C87.6562 47.8339 87.9264 46.9871 87.9258 46.1189L88.2378 35.9807V33.3965L87.9258 43.5347C87.9258 44.0829 87.8179 44.6258 87.6082 45.1323C87.3984 45.6388 87.091 46.099 86.7034 46.4867C86.3158 46.8743 85.8556 47.1818 85.3492 47.3916C84.8428 47.6014 84.3 47.7093 83.7518 47.7092Z" fill="#333333"/>
<path opacity="0.2" d="M93.7752 28.2144C93.7752 27.48 93.4835 26.7757 92.9643 26.2564C92.4451 25.7371 91.7408 25.4453 91.0065 25.4453C90.2722 25.4453 89.568 25.7371 89.0488 26.2564C88.5295 26.7757 88.2378 27.48 88.2378 28.2144V30.7987C88.2378 30.0642 88.5295 29.3599 89.0488 28.8406C89.568 28.3213 90.2722 28.0296 91.0065 28.0296C91.7408 28.0296 92.4451 28.3213 92.9643 28.8406C93.4835 29.3599 93.7752 30.0642 93.7752 30.7987V28.2144Z" fill="#333333"/>
<path d="M47.4781 28.7251H46.4843V34.0924H47.4781V28.7251Z" fill="#3F3D56"/>
<path d="M66.2609 25.8428H65.2671V31.2101H66.2609V25.8428Z" fill="#3F3D56"/>
<path d="M42.4097 46.9141H41.4159V52.2813H42.4097V46.9141Z" fill="#3F3D56"/>
<path d="M83.003 37.5357L82.1858 36.9702L79.1324 41.384L79.9496 41.9495L83.003 37.5357Z" fill="#3F3D56"/>
<path d="M30.3776 29.0555L29.761 29.835L33.9695 33.1653L34.5861 32.3858L30.3776 29.0555Z" fill="#3F3D56"/>
<path d="M88.8131 8.97785L88.1964 9.75732L92.405 13.0877L93.0216 12.3082L88.8131 8.97785Z" fill="#3F3D56"/>
<path d="M19.4458 34.6214L18.8292 35.4009L23.0377 38.7312L23.6543 37.9518L19.4458 34.6214Z" fill="#3F3D56"/>
<path d="M51.1552 16.1021H50.1614V21.4693H51.1552V16.1021Z" fill="white"/>
<path d="M23.925 43.7334H22.9312V49.1007H23.925V43.7334Z" fill="white"/>
<path d="M70.4349 8.34912H69.4411V13.7164H70.4349V8.34912Z" fill="white"/>
<path d="M75.9581 27.1454L75.0698 26.6997L72.6633 31.497L73.5515 31.9428L75.9581 27.1454Z" fill="white"/>
<path d="M71.3866 47.0243L70.4984 46.5786L68.0918 51.3759L68.9801 51.8217L71.3866 47.0243Z" fill="white"/>
<path d="M57.7255 36.1147L57.0662 36.8584L61.0819 40.419L61.7411 39.6753L57.7255 36.1147Z" fill="white"/>
<path d="M38.0483 12.8564L37.389 13.6001L41.4046 17.1607L42.0639 16.417L38.0483 12.8564Z" fill="white"/>
<path d="M103.44 21.8017L102.781 22.5454L106.797 26.106L107.456 25.3623L103.44 21.8017Z" fill="white"/>
<path d="M79.3904 4.30851L78.7311 5.05225L82.7467 8.61287L83.406 7.86913L79.3904 4.30851Z" fill="white"/>
<path d="M58.708 25.8428H57.7142V31.2101H58.708V25.8428Z" fill="#FF6584"/>
<path d="M114.774 29.2317L113.859 28.8433L111.762 33.7837L112.676 34.1721L114.774 29.2317Z" fill="#FF6584"/>
<path d="M38.8152 34.5016L37.9545 34.9985L40.6378 39.6467L41.4984 39.1498L38.8152 34.5016Z" fill="#FF6584"/>
<path d="M95.6605 30.7247L94.7999 31.2217L97.4831 35.8699L98.3438 35.3729L95.6605 30.7247Z" fill="#FF6584"/>
<path d="M60.2818 11.045L59.4212 11.542L62.1044 16.1902L62.9651 15.6932L60.2818 11.045Z" fill="#FF6584"/>
<path d="M102.418 10.0509L101.558 10.5479L104.241 15.1961L105.102 14.6991L102.418 10.0509Z" fill="#FF6584"/>
<path d="M47.7593 5.67735L46.8987 6.17432L49.582 10.8225L50.4426 10.3255L47.7593 5.67735Z" fill="#FF6584"/>
<path d="M83.553 15.1079H82.5592V20.4752H83.553V15.1079Z" fill="#FF6584"/>
<path d="M26.3101 24.0537H25.3163V29.421H26.3101V24.0537Z" fill="#FF6584"/>
<path opacity="0.2" d="M90.5788 180.594C86.8236 176.838 84.6773 171.768 84.5946 166.457C84.5119 161.146 86.4992 156.011 90.1357 152.14C89.9743 152.292 89.8148 152.446 89.6571 152.603C87.7577 154.502 86.2507 156.755 85.2224 159.236C84.1941 161.717 83.6645 164.376 83.664 167.061C83.6634 169.747 84.1919 172.406 85.2192 174.887C86.2465 177.368 87.7524 179.623 89.6511 181.522C91.5498 183.421 93.8039 184.927 96.2847 185.954C98.7655 186.982 101.424 187.51 104.11 187.51C106.795 187.509 109.453 186.98 111.934 185.951C114.414 184.923 116.668 183.416 118.566 181.516C118.723 181.358 118.878 181.198 119.029 181.037C115.159 184.674 110.025 186.662 104.714 186.579C99.4041 186.496 94.3344 184.35 90.5788 180.594V180.594Z" fill="#333333"/>
<path opacity="0.2" d="M112.192 159.06C110.602 157.468 108.576 156.384 106.369 155.945C104.163 155.505 101.875 155.73 99.7966 156.591C97.7179 157.451 95.9411 158.909 94.691 160.78C93.441 162.651 92.7737 164.851 92.7737 167.101C92.7737 169.351 93.441 171.551 94.691 173.421C95.9411 175.292 97.7179 176.75 99.7966 177.611C101.875 178.472 104.163 178.696 106.369 178.257C108.576 177.817 110.602 176.733 112.192 175.142C114.32 173.007 115.515 170.115 115.515 167.101C115.515 164.086 114.32 161.195 112.192 159.06V159.06ZM110.145 172.708C108.556 174.297 106.4 175.189 104.153 175.189C101.905 175.189 99.7498 174.297 98.1601 172.708C97.9516 172.499 97.7585 172.279 97.573 172.055C96.5409 170.783 95.8998 169.238 95.7273 167.609C95.5548 165.979 95.8584 164.335 96.6012 162.874C97.3439 161.414 98.4942 160.2 99.9125 159.38C101.331 158.56 102.956 158.169 104.593 158.254C106.229 158.339 107.805 158.896 109.131 159.859C110.457 160.821 111.475 162.148 112.063 163.677C112.65 165.207 112.782 166.874 112.442 168.477C112.101 170.079 111.304 171.549 110.145 172.708V172.708Z" fill="#333333"/>
<path d="M124.104 172.708L121.7 175.113C121.524 175.289 121.3 175.408 121.057 175.455C120.813 175.502 120.561 175.476 120.332 175.378C120.104 175.281 119.91 175.117 119.775 174.909C119.641 174.7 119.572 174.456 119.577 174.208L119.303 174.482C119.026 174.759 118.65 174.914 118.258 174.914C117.867 174.914 117.491 174.759 117.214 174.482C116.937 174.205 116.781 173.829 116.781 173.437C116.781 173.045 116.937 172.669 117.214 172.392L117.442 172.164C117.202 172.151 116.971 172.069 116.777 171.928C116.583 171.786 116.433 171.592 116.347 171.367C116.261 171.143 116.242 170.898 116.293 170.663C116.343 170.428 116.46 170.213 116.63 170.043L119.144 167.445L119.734 166.855C119.828 166.761 119.881 166.633 119.881 166.499C119.881 166.366 119.828 166.238 119.734 166.143C119.639 166.049 119.511 165.996 119.377 165.996C119.244 165.996 119.116 166.049 119.021 166.143L118.432 166.733L116.253 168.828C116.02 169.061 115.703 169.192 115.373 169.192C115.043 169.192 114.727 169.061 114.494 168.828C114.26 168.594 114.129 168.278 114.129 167.948C114.129 167.618 114.26 167.301 114.494 167.068L116.523 164.823L117.615 163.731C117.769 163.576 117.855 163.366 117.854 163.148C117.854 162.93 117.767 162.72 117.612 162.566C117.458 162.412 117.249 162.325 117.031 162.324C116.812 162.324 116.603 162.41 116.448 162.563L115.355 163.656L113.153 165.727C112.165 165.141 111.11 164.677 110.011 164.344C109.828 164.162 109.707 163.927 109.665 163.673L109.08 164.258C108.803 164.535 108.428 164.69 108.036 164.69C107.644 164.69 107.268 164.535 106.991 164.258C106.714 163.98 106.559 163.605 106.559 163.213C106.559 162.821 106.714 162.445 106.991 162.168L108.796 160.364C108.595 160.565 108.33 160.691 108.047 160.721C107.764 160.751 107.479 160.683 107.24 160.529C107.001 160.374 106.823 160.142 106.734 159.872C106.645 159.601 106.652 159.308 106.753 159.042L105.31 160.486C105.033 160.763 104.657 160.919 104.265 160.919C103.873 160.919 103.498 160.763 103.221 160.486C102.944 160.209 102.788 159.833 102.788 159.442C102.788 159.05 102.944 158.674 103.221 158.397L106.659 154.958L106.653 154.952L103.215 158.391C102.938 158.668 102.562 158.824 102.17 158.824C101.779 158.824 101.403 158.668 101.126 158.391C100.849 158.114 100.693 157.738 100.693 157.347C100.693 156.955 100.849 156.579 101.126 156.302L102.557 154.87C102.291 154.967 102 154.97 101.732 154.878C101.465 154.787 101.236 154.607 101.084 154.369C100.932 154.13 100.866 153.846 100.897 153.565C100.928 153.284 101.054 153.021 101.254 152.821L102.888 151.187L102.799 151.097L99.863 154.033C99.586 154.31 99.2103 154.466 98.8186 154.466C98.4268 154.466 98.0511 154.31 97.7741 154.033C97.4971 153.756 97.3414 153.381 97.3414 152.989C97.3414 152.597 97.4971 152.221 97.7741 151.944L99.0758 150.642C98.8425 150.876 98.526 151.007 98.196 151.007C97.866 151.007 97.5495 150.876 97.3162 150.642C97.0828 150.409 96.9517 150.092 96.9517 149.762C96.9517 149.432 97.0828 149.116 97.3162 148.882L99.253 146.945C102.782 145.997 106.501 146.012 110.022 146.988C113.543 147.964 116.739 149.866 119.276 152.497C121.813 155.127 123.599 158.389 124.448 161.943C125.297 165.498 125.178 169.215 124.104 172.708V172.708Z" fill="#F3F3F3"/>
<path opacity="0.2" d="M101.629 157.889C101.491 157.751 101.383 157.589 101.308 157.409C101.234 157.23 101.196 157.038 101.196 156.844C101.196 156.65 101.234 156.458 101.308 156.279C101.383 156.099 101.491 155.936 101.629 155.799L101.084 156.344C100.807 156.621 100.651 156.997 100.651 157.389C100.651 157.78 100.807 158.156 101.084 158.433C101.361 158.71 101.737 158.866 102.128 158.866C102.52 158.866 102.896 158.71 103.173 158.433L103.717 157.889C103.58 158.026 103.417 158.135 103.238 158.209C103.059 158.283 102.867 158.321 102.673 158.321C102.479 158.321 102.287 158.283 102.108 158.209C101.929 158.135 101.766 158.026 101.629 157.889V157.889Z" fill="#333333"/>
<path opacity="0.2" d="M103.723 159.984C103.586 159.847 103.477 159.684 103.403 159.504C103.329 159.325 103.291 159.133 103.291 158.939C103.291 158.745 103.329 158.553 103.403 158.374C103.477 158.195 103.586 158.032 103.723 157.895L103.179 158.439C103.042 158.576 102.933 158.739 102.858 158.919C102.784 159.098 102.746 159.29 102.746 159.484C102.746 159.678 102.784 159.87 102.858 160.049C102.933 160.228 103.042 160.391 103.179 160.528C103.316 160.666 103.479 160.775 103.658 160.849C103.837 160.923 104.029 160.961 104.223 160.961C104.417 160.961 104.609 160.923 104.788 160.849C104.968 160.775 105.13 160.666 105.268 160.528L105.812 159.984C105.675 160.121 105.512 160.23 105.333 160.304C105.154 160.378 104.962 160.417 104.768 160.417C104.574 160.417 104.382 160.378 104.203 160.304C104.023 160.23 103.861 160.121 103.723 159.984V159.984Z" fill="#333333"/>
<path opacity="0.2" d="M103.06 154.367C102.794 154.464 102.503 154.467 102.235 154.376C101.967 154.284 101.739 154.105 101.587 153.866C101.435 153.627 101.369 153.343 101.4 153.062C101.431 152.781 101.557 152.518 101.757 152.318L101.212 152.863C101.012 153.063 100.886 153.325 100.855 153.607C100.824 153.888 100.89 154.172 101.042 154.41C101.194 154.649 101.423 154.829 101.691 154.92C101.958 155.012 102.249 155.009 102.515 154.912L103.06 154.367Z" fill="#333333"/>
<path opacity="0.2" d="M107.156 154.449L106.611 154.994L106.617 155L107.162 154.455L107.156 154.449Z" fill="#333333"/>
<path opacity="0.2" d="M99.5785 150.14C99.463 150.255 99.3258 150.347 99.1749 150.41C99.0239 150.472 98.8621 150.504 98.6987 150.504C98.5353 150.504 98.3735 150.472 98.2226 150.41C98.0716 150.347 97.9345 150.255 97.8189 150.14C97.7034 150.024 97.6117 149.887 97.5492 149.736C97.4867 149.585 97.4545 149.423 97.4545 149.26C97.4545 149.096 97.4867 148.935 97.5492 148.784C97.6117 148.633 97.7034 148.495 97.8189 148.38L97.2743 148.925C97.0409 149.158 96.9098 149.475 96.9098 149.805C96.9098 150.135 97.0409 150.451 97.2743 150.684C97.5076 150.918 97.8241 151.049 98.1541 151.049C98.4841 151.049 98.8005 150.918 99.0339 150.684L99.5785 150.14Z" fill="#333333"/>
<path opacity="0.2" d="M103.301 150.594L102.757 151.139L102.846 151.229L103.391 150.684L103.301 150.594Z" fill="#333333"/>
<path opacity="0.2" d="M98.2768 153.531C98.1397 153.393 98.0309 153.231 97.9566 153.051C97.8824 152.872 97.8442 152.68 97.8442 152.486C97.8442 152.292 97.8824 152.1 97.9566 151.921C98.0309 151.741 98.1397 151.579 98.2768 151.441L97.7322 151.986C97.595 152.123 97.4862 152.286 97.412 152.465C97.3378 152.645 97.2996 152.837 97.2996 153.031C97.2996 153.225 97.3378 153.417 97.412 153.596C97.4862 153.775 97.595 153.938 97.7322 154.075C97.8694 154.213 98.0322 154.321 98.2114 154.396C98.3906 154.47 98.5827 154.508 98.7767 154.508C98.9706 154.508 99.1627 154.47 99.3419 154.396C99.5211 154.321 99.684 154.213 99.8211 154.075L100.366 153.531C100.229 153.668 100.066 153.777 99.8866 153.851C99.7074 153.925 99.5153 153.963 99.3213 153.963C99.1273 153.963 98.9353 153.925 98.756 153.851C98.5768 153.777 98.414 153.668 98.2768 153.531V153.531Z" fill="#333333"/>
<path opacity="0.2" d="M107.494 163.755C107.357 163.618 107.248 163.455 107.174 163.275C107.1 163.096 107.061 162.904 107.061 162.71C107.061 162.516 107.1 162.324 107.174 162.145C107.248 161.966 107.357 161.803 107.494 161.666L106.949 162.21C106.812 162.347 106.703 162.51 106.629 162.69C106.555 162.869 106.517 163.061 106.517 163.255C106.517 163.449 106.555 163.641 106.629 163.82C106.703 163.999 106.812 164.162 106.949 164.3C107.087 164.437 107.249 164.545 107.429 164.62C107.608 164.694 107.8 164.732 107.994 164.732C108.188 164.732 108.38 164.694 108.559 164.62C108.738 164.545 108.901 164.437 109.038 164.3L109.583 163.755C109.446 163.892 109.283 164.001 109.104 164.075C108.925 164.149 108.732 164.188 108.538 164.188C108.345 164.188 108.152 164.149 107.973 164.075C107.794 164.001 107.631 163.892 107.494 163.755Z" fill="#333333"/>
<path opacity="0.2" d="M120.236 166.353C120.331 166.258 120.384 166.13 120.384 165.996C120.384 165.863 120.331 165.735 120.236 165.64C120.142 165.546 120.014 165.493 119.88 165.493C119.747 165.493 119.619 165.546 119.524 165.64L118.979 166.185C119.074 166.09 119.202 166.037 119.336 166.037C119.469 166.037 119.597 166.09 119.692 166.185C119.786 166.279 119.839 166.407 119.839 166.541C119.839 166.675 119.786 166.803 119.692 166.897L120.236 166.353Z" fill="#333333"/>
<path opacity="0.2" d="M109.298 159.861C109.097 160.062 108.833 160.188 108.55 160.218C108.267 160.249 107.982 160.181 107.743 160.026C107.504 159.871 107.325 159.639 107.237 159.369C107.148 159.098 107.155 158.806 107.256 158.54L106.711 159.084C106.61 159.35 106.603 159.643 106.692 159.914C106.781 160.184 106.96 160.416 107.199 160.571C107.438 160.725 107.722 160.793 108.005 160.763C108.288 160.733 108.553 160.607 108.754 160.405L109.298 159.861Z" fill="#333333"/>
<path opacity="0.2" d="M114.996 168.325C114.881 168.209 114.789 168.072 114.727 167.921C114.664 167.77 114.632 167.608 114.632 167.445C114.632 167.282 114.664 167.12 114.727 166.969C114.789 166.818 114.881 166.681 114.996 166.565L117.025 164.32L116.481 164.865L114.452 167.11C114.336 167.225 114.245 167.362 114.182 167.513C114.119 167.664 114.087 167.826 114.087 167.99C114.087 168.153 114.119 168.315 114.182 168.466C114.245 168.617 114.336 168.754 114.452 168.87C114.567 168.985 114.704 169.077 114.855 169.139C115.006 169.202 115.168 169.234 115.332 169.234C115.495 169.234 115.657 169.202 115.808 169.139C115.959 169.077 116.096 168.985 116.211 168.87L118.39 166.774L118.935 166.23L116.756 168.325C116.64 168.44 116.503 168.532 116.352 168.595C116.201 168.657 116.04 168.689 115.876 168.689C115.713 168.689 115.551 168.657 115.4 168.595C115.249 168.532 115.112 168.44 114.996 168.325V168.325Z" fill="#333333"/>
<path opacity="0.2" d="M120.443 174.61C120.324 174.492 120.231 174.351 120.168 174.195C120.106 174.039 120.076 173.873 120.08 173.705L119.806 173.979C119.668 174.116 119.506 174.225 119.326 174.299C119.147 174.374 118.955 174.412 118.761 174.412C118.567 174.412 118.375 174.374 118.196 174.299C118.017 174.225 117.854 174.116 117.717 173.979C117.58 173.842 117.471 173.679 117.396 173.5C117.322 173.321 117.284 173.128 117.284 172.934C117.284 172.74 117.322 172.548 117.396 172.369C117.471 172.19 117.58 172.027 117.717 171.89L117.945 171.661C117.705 171.649 117.474 171.567 117.28 171.425C117.085 171.284 116.936 171.089 116.85 170.865C116.764 170.64 116.745 170.396 116.795 170.161C116.846 169.926 116.963 169.71 117.133 169.54L119.647 166.942L119.102 167.487L116.588 170.085C116.418 170.255 116.301 170.47 116.251 170.705C116.201 170.94 116.22 171.185 116.305 171.409C116.391 171.634 116.541 171.829 116.735 171.97C116.929 172.111 117.16 172.193 117.4 172.206L117.172 172.434C116.895 172.712 116.739 173.087 116.739 173.479C116.739 173.871 116.895 174.247 117.172 174.524C117.449 174.801 117.825 174.956 118.217 174.956C118.608 174.956 118.984 174.801 119.261 174.524L119.535 174.25C119.53 174.498 119.599 174.742 119.733 174.951C119.868 175.159 120.062 175.323 120.29 175.42C120.519 175.518 120.771 175.545 121.015 175.497C121.258 175.45 121.482 175.331 121.658 175.155L122.203 174.61C122.087 174.726 121.95 174.818 121.799 174.88C121.648 174.943 121.486 174.975 121.323 174.975C121.159 174.975 120.997 174.943 120.847 174.88C120.696 174.818 120.558 174.726 120.443 174.61V174.61Z" fill="#333333"/>
<path opacity="0.2" d="M111.896 165.225C111.919 165.037 111.899 164.848 111.837 164.67C111.776 164.491 111.675 164.33 111.542 164.196C111.408 164.063 111.247 163.962 111.068 163.9C110.89 163.839 110.701 163.819 110.513 163.842C110.331 163.659 110.21 163.425 110.167 163.171L109.623 163.715C110.084 163.845 110.495 164.11 110.803 164.476C111.112 164.842 111.303 165.293 111.351 165.769C111.467 165.885 111.604 165.977 111.755 166.039C111.906 166.102 112.068 166.134 112.231 166.134C112.395 166.134 112.556 166.102 112.707 166.039C112.858 165.977 112.996 165.885 113.111 165.769L115.314 163.698L115.858 163.153L113.656 165.225C113.54 165.34 113.403 165.432 113.252 165.494C113.101 165.557 112.939 165.589 112.776 165.589C112.612 165.589 112.451 165.557 112.3 165.494C112.149 165.432 112.012 165.34 111.896 165.225V165.225Z" fill="#333333"/>
<path opacity="0.2" d="M118.118 163.228C118.195 163.151 118.256 163.06 118.298 162.96C118.34 162.86 118.362 162.752 118.362 162.644C118.362 162.535 118.341 162.427 118.299 162.327C118.258 162.226 118.197 162.135 118.12 162.058C118.043 161.981 117.952 161.92 117.851 161.879C117.751 161.837 117.643 161.816 117.535 161.816C117.426 161.817 117.319 161.838 117.218 161.88C117.118 161.922 117.027 161.983 116.95 162.061L116.406 162.605C116.482 162.528 116.573 162.467 116.674 162.425C116.774 162.383 116.881 162.361 116.99 162.361C117.099 162.361 117.206 162.382 117.307 162.424C117.407 162.465 117.499 162.526 117.575 162.603C117.652 162.68 117.713 162.771 117.755 162.871C117.796 162.972 117.817 163.08 117.817 163.188C117.817 163.297 117.795 163.405 117.753 163.505C117.711 163.605 117.65 163.696 117.573 163.773L118.118 163.228Z" fill="#333333"/>
<path d="M108.251 153.576L108.042 153.366L106.91 154.498L107.12 154.707L108.251 153.576Z" fill="#3F3D56"/>
<path d="M112.818 156.928L112.608 156.718L111.477 157.85L111.687 158.059L112.818 156.928Z" fill="#3F3D56"/>
<path d="M117.339 154.461L117.129 154.252L115.998 155.383L116.207 155.593L117.339 154.461Z" fill="#3F3D56"/>
<path d="M103.349 156.341L103.14 156.131L102.009 157.263L102.218 157.472L103.349 156.341Z" fill="#3F3D56"/>
<path d="M113.883 162.922L113.83 162.63L112.256 162.917L112.309 163.209L113.883 162.922Z" fill="#3F3D56"/>
<path d="M120.458 160.045L120.405 159.753L118.831 160.04L118.885 160.332L120.458 160.045Z" fill="#3F3D56"/>
<path d="M104.577 150.04L104.283 150.074L104.468 151.663L104.762 151.629L104.577 150.04Z" fill="#3F3D56"/>
<path d="M101.099 148.909L100.805 148.943L100.99 150.532L101.285 150.498L101.099 148.909Z" fill="#3F3D56"/>
<path d="M111.687 151.69L111.477 151.48L110.346 152.612L110.555 152.821L111.687 151.69Z" fill="white"/>
<path d="M120.317 157.445L120.108 157.235L118.977 158.367L119.186 158.576L120.317 157.445Z" fill="white"/>
<path d="M123.605 165.666L123.396 165.456L122.265 166.587L122.474 166.797L123.605 165.666Z" fill="white"/>
<path d="M100.123 151.773L99.9137 151.564L98.7825 152.695L98.992 152.905L100.123 151.773Z" fill="white"/>
<path d="M114.587 159.247L114.494 158.965L112.976 159.469L113.069 159.75L114.587 159.247Z" fill="white"/>
<path d="M109.434 162.473L109.341 162.192L107.822 162.696L107.916 162.977L109.434 162.473Z" fill="white"/>
<path d="M108.854 157.293L108.558 157.311L108.654 158.908L108.95 158.89L108.854 157.293Z" fill="white"/>
<path d="M109.608 148.242L109.312 148.26L109.408 149.857L109.704 149.84L109.608 148.242Z" fill="white"/>
<path d="M111.226 155.335L111.016 155.126L109.885 156.257L110.094 156.467L111.226 155.335Z" fill="#FF6584"/>
<path d="M121.089 169.311L120.88 169.102L119.749 170.233L119.958 170.442L121.089 169.311Z" fill="#FF6584"/>
<path d="M122.733 162.323L122.524 162.114L121.393 163.245L121.602 163.455L122.733 162.323Z" fill="#FF6584"/>
<path d="M105.208 152.967L104.921 152.89L104.507 154.436L104.794 154.512L105.208 152.967Z" fill="#FF6584"/>
<path d="M114.676 152.547L114.39 152.471L113.976 154.016L114.262 154.093L114.676 152.547Z" fill="#FF6584"/>
<path d="M113.168 148.776L112.882 148.7L112.468 150.245L112.754 150.322L113.168 148.776Z" fill="#FF6584"/>
<path d="M104.774 148.128L104.564 147.918L103.433 149.05L103.642 149.259L104.774 148.128Z" fill="#FF6584"/>
<path d="M318.673 85.0579C318.673 84.1858 318.327 83.3494 317.71 82.7327C317.094 82.116 316.257 81.7695 315.385 81.7695C314.513 81.7695 313.677 82.116 313.06 82.7327C312.444 83.3494 312.097 84.1858 312.097 85.0579V232.479C312.097 233.351 312.444 234.187 313.06 234.804C313.677 235.421 314.513 235.767 315.385 235.767C316.257 235.767 317.094 235.421 317.71 234.804C318.327 234.187 318.673 233.351 318.673 232.479V86.013" fill="#3F3D56"/>
<path d="M360.615 92.8814C354.838 81.9864 345.202 73.6417 333.594 69.4826C321.987 65.3236 309.244 65.6501 297.865 70.3982C286.485 75.1462 277.289 83.9735 272.078 95.1501C266.867 106.327 266.017 119.047 269.696 130.817H275.832C277.065 130.817 278.076 132.19 278.076 133.871H279.202C280.439 133.871 281.45 135.244 281.45 136.925C281.45 138.602 280.439 139.979 279.202 139.979H278.076C278.073 140.235 278.047 140.489 277.998 140.74H283.135C284.372 140.74 285.383 142.117 285.383 143.794C285.383 145.475 284.372 146.848 283.135 146.848H278.228C285.909 156.478 296.907 162.894 309.07 164.842C321.232 166.789 333.683 164.128 343.987 157.379C354.291 150.629 361.706 140.277 364.782 128.348C367.857 116.42 366.371 103.772 360.615 92.8814H360.615ZM326.971 133.879C323.897 135.616 320.424 136.525 316.894 136.518C316.187 136.518 315.48 136.482 314.777 136.411C309.916 135.903 305.397 133.674 302.035 130.126C298.673 126.577 296.691 121.944 296.445 117.062C296.199 112.18 297.707 107.371 300.695 103.503C303.684 99.6352 307.956 96.9633 312.742 95.9696C317.527 94.9759 322.51 95.726 326.791 98.0844C331.072 100.443 334.369 104.254 336.087 108.831C337.805 113.407 337.83 118.447 336.158 123.04C334.487 127.634 331.228 131.478 326.971 133.879V133.879Z" fill="#EA4647"/>
<path opacity="0.2" d="M285.248 142.767C285.338 142.432 285.383 142.086 285.383 141.74C285.383 140.06 284.372 138.686 283.135 138.686H281.032C280.875 139.049 280.621 139.361 280.298 139.589C279.975 139.817 279.596 139.951 279.201 139.978H278.077C278.075 140.234 278.048 140.49 277.997 140.741H283.135C284.106 140.741 284.936 141.59 285.248 142.767Z" fill="#333333"/>
<path opacity="0.2" d="M279.201 133.871C280.172 133.871 281.002 134.72 281.315 135.897C281.404 135.561 281.449 135.216 281.449 134.869C281.449 133.19 280.438 131.816 279.201 131.816H278.077C278.077 130.136 277.066 128.762 275.83 128.762H269.695C268.296 124.278 267.544 119.618 267.461 114.921C267.453 115.287 267.443 115.652 267.443 116.02C267.438 121.038 268.198 126.028 269.695 130.817H275.83C277.066 130.817 278.077 132.191 278.077 133.871H279.201Z" fill="#333333"/>
<path opacity="0.2" d="M316.895 163.424C309.917 163.431 303.016 161.958 296.649 159.1C290.282 156.243 284.594 152.067 279.96 146.848H278.226C284.618 154.868 293.344 160.703 303.198 163.544C313.051 166.385 323.544 166.092 333.224 162.705C342.904 159.319 351.291 153.007 357.226 144.642C363.16 136.278 366.348 126.276 366.348 116.019C366.348 115.71 366.339 115.403 366.334 115.095C366.038 128.013 360.7 140.303 351.461 149.335C342.222 158.367 329.815 163.424 316.895 163.424Z" fill="#333333"/>
<path opacity="0.2" d="M316.894 91.4102C312.027 91.411 307.27 92.855 303.224 95.5596C299.179 98.2642 296.025 102.108 294.164 106.605C292.302 111.102 291.815 116.05 292.765 120.823C293.715 125.597 296.059 129.981 299.5 133.423C302.942 136.864 307.326 139.207 312.099 140.156C316.872 141.106 321.819 140.618 326.315 138.755C330.811 136.893 334.654 133.738 337.357 129.691C340.061 125.644 341.504 120.887 341.504 116.02C341.496 109.494 338.9 103.239 334.287 98.6252C329.673 94.0115 323.418 91.4168 316.894 91.4102V91.4102ZM326.971 133.88C323.897 135.616 320.424 136.525 316.894 136.519C316.187 136.518 315.48 136.483 314.777 136.412C309.916 135.904 305.397 133.674 302.035 130.126C298.673 126.578 296.691 121.944 296.445 117.062C296.199 112.18 297.707 107.371 300.695 103.503C303.684 99.6355 307.956 96.9635 312.742 95.9698C317.527 94.9762 322.51 95.7262 326.791 98.0847C331.072 100.443 334.369 104.255 336.087 108.831C337.804 113.407 337.83 118.447 336.158 123.04C334.487 127.634 331.228 131.478 326.971 133.88Z" fill="#333333"/>
<path d="M360.614 92.0603V100.288C360.615 100.888 360.435 101.476 360.099 101.973C359.763 102.471 359.286 102.857 358.728 103.081C358.171 103.305 357.559 103.357 356.972 103.231C356.385 103.104 355.849 102.805 355.434 102.371V103.308C355.434 104.256 355.057 105.165 354.387 105.836C353.717 106.506 352.808 106.882 351.86 106.882C350.913 106.882 350.004 106.506 349.334 105.836C348.663 105.165 348.287 104.256 348.287 103.308V102.527C347.855 102.916 347.319 103.171 346.745 103.262C346.17 103.352 345.582 103.274 345.051 103.037C344.52 102.8 344.069 102.415 343.753 101.927C343.437 101.438 343.269 100.869 343.27 100.288L343.127 91.5428V89.5257C343.127 89.2025 342.998 88.8925 342.77 88.664C342.541 88.4355 342.231 88.3071 341.908 88.3071C341.585 88.3071 341.275 88.4355 341.047 88.664C340.818 88.8925 340.69 89.2025 340.69 89.5257V91.5427L340.547 98.8541C340.547 99.6526 340.229 100.418 339.665 100.983C339.1 101.548 338.335 101.865 337.536 101.865C336.738 101.865 335.972 101.548 335.408 100.983C334.843 100.418 334.526 99.6526 334.526 98.8541L334.158 91.5427V87.8053C334.158 87.2757 333.948 86.7677 333.573 86.3932C333.199 86.0187 332.691 85.8083 332.161 85.8083C331.632 85.8083 331.124 86.0187 330.749 86.3932C330.375 86.7677 330.164 87.2757 330.164 87.8053V91.5428L329.939 98.8542C329.94 99.4803 329.745 100.091 329.382 100.601C329.019 101.111 328.506 101.495 327.914 101.7C327.322 101.904 326.682 101.919 326.081 101.742C325.481 101.565 324.95 101.205 324.564 100.712C324.088 101.321 323.396 101.722 322.631 101.834C321.866 101.945 321.088 101.757 320.459 101.308V103.308C320.459 104.256 320.082 105.165 319.412 105.836C318.742 106.506 317.833 106.882 316.885 106.882C315.938 106.882 315.029 106.506 314.359 105.836C313.688 105.165 313.312 104.256 313.312 103.308V97.1338C313.312 97.8225 313.076 98.4905 312.643 99.0263C312.211 99.562 311.607 99.933 310.934 100.077C310.261 100.222 309.558 100.131 308.944 99.8199C308.329 99.5088 307.84 98.9964 307.558 98.3682V103.308C307.557 104.256 307.18 105.164 306.51 105.833C305.84 106.503 304.932 106.879 303.985 106.879C303.038 106.879 302.129 106.503 301.459 105.833C300.789 105.164 300.412 104.256 300.411 103.308V91.5428H300.391V103.308C300.391 104.256 300.015 105.165 299.344 105.836C298.674 106.506 297.765 106.882 296.818 106.882C295.87 106.882 294.961 106.506 294.291 105.836C293.621 105.165 293.244 104.256 293.244 103.308V98.4097C292.954 99.0301 292.461 99.5329 291.847 99.8352C291.233 100.138 290.534 100.221 289.865 100.073C289.197 99.9239 288.6 99.5516 288.171 99.0173C287.743 98.483 287.51 97.8186 287.511 97.1339V91.5428H287.204V101.588C287.204 102.536 286.827 103.445 286.157 104.115C285.487 104.786 284.578 105.162 283.63 105.162C282.683 105.162 281.774 104.786 281.103 104.115C280.433 103.445 280.057 102.536 280.057 101.588V97.1338C280.057 97.9323 279.74 98.698 279.175 99.2626C278.611 99.8272 277.845 100.144 277.047 100.144C276.248 100.144 275.483 99.8272 274.918 99.2626C274.354 98.698 274.036 97.9323 274.036 97.1338V90.5063C278.451 82.8462 284.838 76.5093 292.531 72.1547C300.225 67.8002 308.945 65.5871 317.784 65.7458C326.622 65.9044 335.257 68.429 342.79 73.0569C350.322 77.6847 356.477 84.2468 360.614 92.0603V92.0603Z" fill="#F3F3F3"/>
<path opacity="0.2" d="M296.818 105.162C296.348 105.162 295.884 105.07 295.45 104.89C295.017 104.711 294.623 104.448 294.291 104.116C293.959 103.784 293.696 103.39 293.516 102.956C293.337 102.522 293.244 102.058 293.244 101.588V103.452C293.244 104.4 293.621 105.309 294.291 105.979C294.961 106.65 295.87 107.026 296.818 107.026C297.765 107.026 298.674 106.65 299.345 105.979C300.015 105.309 300.391 104.4 300.391 103.452V101.588C300.391 102.058 300.299 102.522 300.119 102.956C299.94 103.39 299.676 103.784 299.345 104.116C299.013 104.448 298.619 104.711 298.185 104.89C297.752 105.07 297.287 105.162 296.818 105.162V105.162Z" fill="#333333"/>
<path opacity="0.2" d="M303.985 105.162C303.515 105.162 303.051 105.07 302.617 104.89C302.184 104.711 301.79 104.448 301.458 104.116C301.126 103.784 300.863 103.39 300.683 102.956C300.504 102.522 300.411 102.058 300.411 101.588V103.452C300.411 104.4 300.788 105.309 301.458 105.979C302.128 106.65 303.037 107.026 303.985 107.026C304.932 107.026 305.841 106.65 306.512 105.979C307.182 105.309 307.558 104.4 307.558 103.452V101.588C307.558 102.058 307.466 102.522 307.286 102.956C307.107 103.39 306.843 103.784 306.512 104.116C306.18 104.448 305.786 104.711 305.352 104.89C304.919 105.07 304.454 105.162 303.985 105.162Z" fill="#333333"/>
<path opacity="0.2" d="M293.244 96.6895C292.954 97.3098 292.461 97.8126 291.847 98.115C291.233 98.4173 290.534 98.501 289.865 98.3523C289.197 98.2036 288.6 97.8313 288.171 97.297C287.743 96.7627 287.51 96.0983 287.51 95.4136V97.2773C287.51 97.962 287.743 98.6264 288.171 99.1607C288.6 99.695 289.197 100.067 289.865 100.216C290.534 100.365 291.233 100.281 291.847 99.9787C292.461 99.6763 292.954 99.1735 293.244 98.5532V96.6895Z" fill="#333333"/>
<path opacity="0.2" d="M300.411 89.8228H300.391V91.6865H300.411V89.8228Z" fill="#333333"/>
<path opacity="0.2" d="M280.057 95.4136C280.057 96.212 279.74 96.9778 279.175 97.5424C278.611 98.107 277.845 98.4242 277.047 98.4242C276.248 98.4242 275.483 98.107 274.918 97.5424C274.354 96.9778 274.036 96.212 274.036 95.4136V97.2773C274.036 98.0757 274.354 98.8415 274.918 99.4061C275.483 99.9707 276.248 100.288 277.047 100.288C277.845 100.288 278.611 99.9707 279.175 99.4061C279.74 98.8415 280.057 98.0757 280.057 97.2773V95.4136Z" fill="#333333"/>
<path opacity="0.2" d="M287.51 89.8228H287.204V91.6865H287.51V89.8228Z" fill="#333333"/>
<path opacity="0.2" d="M283.63 103.442C283.161 103.442 282.696 103.349 282.263 103.17C281.829 102.99 281.435 102.727 281.103 102.395C280.772 102.063 280.508 101.669 280.329 101.235C280.149 100.802 280.057 100.337 280.057 99.8677V101.731C280.057 102.679 280.433 103.588 281.103 104.259C281.774 104.929 282.683 105.305 283.63 105.305C284.578 105.305 285.487 104.929 286.157 104.259C286.827 103.588 287.204 102.679 287.204 101.731V99.8677C287.204 100.337 287.111 100.802 286.932 101.235C286.752 101.669 286.489 102.063 286.157 102.395C285.825 102.727 285.431 102.99 284.998 103.17C284.564 103.349 284.1 103.442 283.63 103.442V103.442Z" fill="#333333"/>
<path opacity="0.2" d="M316.885 105.162C316.416 105.162 315.951 105.07 315.518 104.89C315.084 104.711 314.69 104.448 314.358 104.116C314.027 103.784 313.763 103.39 313.584 102.956C313.404 102.522 313.312 102.058 313.312 101.588V103.452C313.312 104.4 313.688 105.309 314.359 105.979C315.029 106.65 315.938 107.026 316.885 107.026C317.833 107.026 318.742 106.65 319.412 105.979C320.082 105.309 320.459 104.4 320.459 103.452V101.588C320.459 102.058 320.366 102.522 320.187 102.956C320.007 103.39 319.744 103.784 319.412 104.116C319.08 104.448 318.686 104.711 318.253 104.89C317.819 105.07 317.355 105.162 316.885 105.162Z" fill="#333333"/>
<path opacity="0.2" d="M343.127 87.8055C343.127 87.4823 342.998 87.1724 342.77 86.9438C342.541 86.7153 342.231 86.5869 341.908 86.5869C341.585 86.5869 341.275 86.7153 341.047 86.9438C340.818 87.1724 340.69 87.4823 340.69 87.8055V89.6692C340.69 89.346 340.818 89.036 341.047 88.8075C341.275 88.579 341.585 88.4506 341.908 88.4506C342.231 88.4506 342.541 88.579 342.77 88.8075C342.998 89.036 343.127 89.346 343.127 89.6692V87.8055Z" fill="#333333"/>
<path opacity="0.2" d="M313.312 95.4136C313.312 96.1023 313.076 96.7703 312.643 97.306C312.211 97.8417 311.607 98.2128 310.934 98.3572C310.261 98.5016 309.558 98.4107 308.944 98.0997C308.329 97.7886 307.84 97.2761 307.558 96.6479V98.5116C307.84 99.1398 308.329 99.6523 308.944 99.9633C309.558 100.274 310.261 100.365 310.934 100.221C311.607 100.076 312.211 99.7054 312.643 99.1697C313.076 98.634 313.312 97.966 313.312 97.2773V95.4136Z" fill="#333333"/>
<path opacity="0.2" d="M337.536 100.145C337.141 100.145 336.75 100.067 336.384 99.9157C336.019 99.7644 335.687 99.5426 335.408 99.2631C335.128 98.9835 334.907 98.6516 334.755 98.2863C334.604 97.921 334.526 97.5295 334.526 97.1342L334.158 89.8228V91.6864L334.526 98.9979C334.526 99.7963 334.843 100.562 335.408 101.127C335.972 101.691 336.738 102.008 337.536 102.008C338.335 102.008 339.1 101.691 339.665 101.127C340.229 100.562 340.547 99.7963 340.547 98.9979L340.69 91.6864V89.8228L340.547 97.1342C340.547 97.5295 340.469 97.921 340.318 98.2863C340.166 98.6516 339.945 98.9835 339.665 99.2631C339.386 99.5426 339.054 99.7644 338.688 99.9157C338.323 100.067 337.932 100.145 337.536 100.145V100.145Z" fill="#333333"/>
<path opacity="0.2" d="M357.604 101.578C357.198 101.579 356.797 101.496 356.424 101.337C356.051 101.178 355.714 100.944 355.434 100.651V101.588C355.434 102.536 355.057 103.445 354.387 104.116C353.717 104.786 352.808 105.162 351.86 105.162C350.913 105.162 350.004 104.786 349.334 104.116C348.663 103.445 348.287 102.536 348.287 101.588V100.807C347.855 101.196 347.319 101.451 346.745 101.542C346.17 101.632 345.582 101.554 345.051 101.317C344.52 101.08 344.069 100.695 343.753 100.207C343.437 99.7185 343.269 99.1493 343.27 98.5678L343.127 89.8228V91.6864L343.27 100.431C343.269 101.013 343.437 101.582 343.753 102.07C344.069 102.558 344.52 102.944 345.051 103.181C345.582 103.418 346.17 103.496 346.745 103.405C347.319 103.315 347.855 103.06 348.287 102.671V103.452C348.287 104.4 348.663 105.309 349.334 105.979C350.004 106.65 350.913 107.026 351.86 107.026C352.808 107.026 353.717 106.65 354.387 105.979C355.057 105.309 355.434 104.4 355.434 103.452V102.514C355.849 102.948 356.385 103.248 356.972 103.374C357.559 103.501 358.171 103.449 358.728 103.225C359.286 103.001 359.763 102.615 360.099 102.117C360.435 101.619 360.615 101.032 360.614 100.431V98.5678C360.614 98.9631 360.537 99.3546 360.385 99.7199C360.234 100.085 360.012 100.417 359.733 100.697C359.453 100.976 359.121 101.198 358.756 101.349C358.391 101.501 357.999 101.578 357.604 101.578V101.578Z" fill="#333333"/>
<path opacity="0.2" d="M326.929 100.145C326.473 100.145 326.024 100.041 325.614 99.8413C325.204 99.6416 324.845 99.3512 324.564 98.9921C324.088 99.6008 323.396 100.002 322.631 100.114C321.866 100.225 321.088 100.037 320.459 99.5885V101.452C321.088 101.9 321.866 102.088 322.631 101.977C323.396 101.866 324.088 101.464 324.564 100.856C324.95 101.349 325.481 101.709 326.081 101.886C326.682 102.063 327.322 102.048 327.914 101.843C328.506 101.639 329.019 101.255 329.382 100.745C329.745 100.235 329.94 99.624 329.939 98.9978L330.164 91.6864V89.8228L329.939 97.1342C329.939 97.5295 329.862 97.921 329.71 98.2863C329.559 98.6516 329.337 98.9835 329.058 99.2631C328.778 99.5426 328.446 99.7644 328.081 99.9157C327.716 100.067 327.325 100.145 326.929 100.145V100.145Z" fill="#333333"/>
<path opacity="0.2" d="M334.158 86.0849C334.158 85.5553 333.948 85.0473 333.573 84.6728C333.199 84.2983 332.691 84.0879 332.161 84.0879C331.632 84.0879 331.124 84.2983 330.749 84.6728C330.375 85.0473 330.164 85.5553 330.164 86.0849V87.9486C330.164 87.419 330.375 86.911 330.749 86.5365C331.124 86.162 331.632 85.9516 332.161 85.9516C332.691 85.9516 333.199 86.162 333.573 86.5365C333.948 86.911 334.158 87.419 334.158 87.9486V86.0849Z" fill="#333333"/>
<path d="M300.77 86.4536H300.053V90.3244H300.77V86.4536Z" fill="#3F3D56"/>
<path d="M314.315 84.3745H313.599V88.2453H314.315V84.3745Z" fill="#3F3D56"/>
<path d="M352.157 86.6685H351.441V90.5392H352.157V86.6685Z" fill="#3F3D56"/>
<path d="M297.114 99.5713H296.398V103.442H297.114V99.5713Z" fill="#3F3D56"/>
<path d="M326.39 92.8073L325.801 92.3994L323.598 95.5825L324.188 95.9904L326.39 92.8073Z" fill="#3F3D56"/>
<path d="M288.437 86.6918L287.992 87.2539L291.027 89.6557L291.472 89.0935L288.437 86.6918Z" fill="#3F3D56"/>
<path d="M330.579 72.2123L330.135 72.7744L333.17 75.1762L333.614 74.614L330.579 72.2123Z" fill="#3F3D56"/>
<path d="M280.553 90.7074L280.108 91.2695L283.143 93.6713L283.588 93.1092L280.553 90.7074Z" fill="#3F3D56"/>
<path d="M303.421 77.3501H302.705V81.2208H303.421V77.3501Z" fill="white"/>
<path d="M283.784 97.2773H283.067V101.148H283.784V97.2773Z" fill="white"/>
<path d="M317.325 71.7588H316.609V75.6295H317.325V71.7588Z" fill="white"/>
<path d="M351.727 95.9873H351.01V99.858H351.727V95.9873Z" fill="white"/>
<path d="M321.309 85.3146L320.668 84.9932L318.932 88.4529L319.573 88.7743L321.309 85.3146Z" fill="white"/>
<path d="M318.012 99.6505L317.371 99.3291L315.636 102.789L316.276 103.11L318.012 99.6505Z" fill="white"/>
<path d="M357.574 93.1994L356.933 92.8779L355.198 96.3376L355.838 96.6591L357.574 93.1994Z" fill="white"/>
<path d="M308.16 91.783L307.684 92.3193L310.58 94.8872L311.056 94.3508L308.16 91.783Z" fill="white"/>
<path d="M293.969 75.0095L293.494 75.5459L296.39 78.1137L296.865 77.5774L293.969 75.0095Z" fill="white"/>
<path d="M341.128 81.4607L340.653 81.9971L343.549 84.5649L344.024 84.0285L341.128 81.4607Z" fill="white"/>
<path d="M323.784 68.845L323.308 69.3813L326.204 71.9492L326.68 71.4128L323.784 68.845Z" fill="white"/>
<path d="M308.868 84.3745H308.152V88.2453H308.868V84.3745Z" fill="#FF6584"/>
<path d="M349.301 86.8192L348.642 86.5391L347.129 90.102L347.789 90.3821L349.301 86.8192Z" fill="#FF6584"/>
<path d="M294.522 90.6196L293.901 90.978L295.836 94.3302L296.457 93.9718L294.522 90.6196Z" fill="#FF6584"/>
<path d="M335.518 87.8955L334.897 88.2539L336.832 91.6061L337.453 91.2477L335.518 87.8955Z" fill="#FF6584"/>
<path d="M310.003 73.7031L309.382 74.0615L311.317 77.4137L311.938 77.0553L310.003 73.7031Z" fill="#FF6584"/>
<path d="M340.391 72.9858L339.77 73.3442L341.706 76.6964L342.326 76.338L340.391 72.9858Z" fill="#FF6584"/>
<path d="M300.972 69.832L300.352 70.1904L302.287 73.5426L302.908 73.1842L300.972 69.832Z" fill="#FF6584"/>
<path d="M326.786 76.6333H326.069V80.5041H326.786V76.6333Z" fill="#FF6584"/>
<path d="M285.504 83.0845H284.787V86.9552H285.504V83.0845Z" fill="#FF6584"/>
<path d="M145.596 224.51C155.132 224.51 162.863 216.778 162.863 207.241C162.863 197.703 155.132 189.972 145.596 189.972C136.06 189.972 128.33 197.703 128.33 207.241C128.33 216.778 136.06 224.51 145.596 224.51Z" fill="#2F2E41"/>
<path d="M152.265 229.359L157.427 228.424L155.753 219.175L150.591 220.11L152.265 229.359Z" fill="#2F2E41"/>
<path d="M141.942 231.228L147.103 230.293L145.429 221.044L140.268 221.979L141.942 231.228Z" fill="#2F2E41"/>
<path d="M144.682 233.175C146.524 231.614 147.543 229.789 146.958 229.098C146.373 228.407 144.405 229.112 142.563 230.673C140.721 232.233 139.702 234.058 140.287 234.749C140.872 235.44 142.839 234.735 144.682 233.175Z" fill="#2F2E41"/>
<path d="M154.79 231.344C156.632 229.784 157.652 227.959 157.066 227.268C156.481 226.577 154.514 227.282 152.671 228.842C150.829 230.402 149.81 232.228 150.395 232.919C150.98 233.61 152.948 232.905 154.79 231.344Z" fill="#2F2E41"/>
<path d="M144.387 208.919C147.647 208.919 150.289 206.276 150.289 203.017C150.289 199.757 147.647 197.115 144.387 197.115C141.128 197.115 138.486 199.757 138.486 203.017C138.486 206.276 141.128 208.919 144.387 208.919Z" fill="white"/>
<path d="M141.962 202.869C143.048 202.869 143.929 201.988 143.929 200.901C143.929 199.815 143.048 198.934 141.962 198.934C140.876 198.934 139.995 199.815 139.995 200.901C139.995 201.988 140.876 202.869 141.962 202.869Z" fill="#3F3D56"/>
<path d="M159.217 188.454C159.477 182.061 153.967 176.646 146.912 176.359C139.856 176.072 133.926 181.023 133.666 187.416C133.406 193.809 138.311 195.262 145.367 195.549C152.422 195.835 158.957 194.847 159.217 188.454Z" fill="#F3F3F3"/>
<path d="M138.068 206.024C138.402 204.565 134.906 202.518 130.258 201.453C125.611 200.387 121.572 200.706 121.238 202.165C120.903 203.625 124.4 205.671 129.047 206.737C133.695 207.802 137.733 207.483 138.068 206.024Z" fill="#2F2E41"/>
<path d="M171.962 211.661C172.296 210.202 168.8 208.155 164.152 207.09C159.505 206.024 155.466 206.344 155.131 207.803C154.797 209.262 158.293 211.309 162.941 212.374C167.589 213.439 171.627 213.12 171.962 211.661Z" fill="#2F2E41"/>
<path d="M150.338 214.046C150.431 214.555 150.422 215.077 150.313 215.582C150.203 216.087 149.996 216.566 149.701 216.991C149.407 217.415 149.032 217.778 148.597 218.058C148.162 218.338 147.677 218.529 147.168 218.621C146.66 218.713 146.138 218.704 145.633 218.595C145.128 218.485 144.649 218.277 144.225 217.982C143.8 217.687 143.438 217.312 143.158 216.877C142.879 216.442 142.688 215.957 142.596 215.448C142.209 213.31 143.862 212.553 146 212.166C148.138 211.779 149.951 211.908 150.338 214.046Z" fill="white"/>
<path d="M243.738 147.329C245.483 142.763 245.736 138.617 244.302 138.069C242.869 137.521 240.293 140.779 238.547 145.345C236.802 149.912 236.55 154.057 237.983 154.605C239.416 155.153 241.993 151.896 243.738 147.329Z" fill="#2F2E41"/>
<path d="M230.832 228.276C240.607 228.276 248.532 220.35 248.532 210.573C248.532 200.796 240.607 192.87 230.832 192.87C221.056 192.87 213.132 200.796 213.132 210.573C213.132 220.35 221.056 228.276 230.832 228.276Z" fill="#2F2E41"/>
<path d="M228.143 224.466H222.766V234.101H228.143V224.466Z" fill="#2F2E41"/>
<path d="M238.898 224.466H233.52V234.101H238.898V224.466Z" fill="#2F2E41"/>
<path d="M227.247 235.894C229.722 235.894 231.728 235.142 231.728 234.214C231.728 233.286 229.722 232.533 227.247 232.533C224.772 232.533 222.766 233.286 222.766 234.214C222.766 235.142 224.772 235.894 227.247 235.894Z" fill="#2F2E41"/>
<path d="M238.002 235.67C240.476 235.67 242.483 234.918 242.483 233.99C242.483 233.062 240.476 232.309 238.002 232.309C235.527 232.309 233.52 233.062 233.52 233.99C233.52 234.918 235.527 235.67 238.002 235.67Z" fill="#2F2E41"/>
<path d="M231.28 212.142C234.621 212.142 237.329 209.433 237.329 206.091C237.329 202.75 234.621 200.041 231.28 200.041C227.939 200.041 225.23 202.75 225.23 206.091C225.23 209.433 227.939 212.142 231.28 212.142Z" fill="white"/>
<path d="M231.28 208.108C232.394 208.108 233.296 207.205 233.296 206.091C233.296 204.977 232.394 204.074 231.28 204.074C230.166 204.074 229.263 204.977 229.263 206.091C229.263 207.205 230.166 208.108 231.28 208.108Z" fill="#3F3D56"/>
<path d="M213.662 194.11C212.233 187.708 216.801 181.24 223.866 179.662C230.931 178.084 237.817 181.995 239.246 188.396C240.675 194.798 235.993 197.159 228.928 198.737C221.863 200.314 215.091 200.512 213.662 194.11Z" fill="#246EBA"/>
<path d="M224.782 177.408C234.558 177.408 242.483 169.483 242.483 159.706C242.483 149.929 234.558 142.003 224.782 142.003C215.007 142.003 207.082 149.929 207.082 159.706C207.082 169.483 215.007 177.408 224.782 177.408Z" fill="#2F2E41"/>
<path d="M222.094 173.599H216.716V183.234H222.094V173.599Z" fill="#2F2E41"/>
<path d="M232.848 173.599H227.471V183.234H232.848V173.599Z" fill="#2F2E41"/>
<path d="M221.197 185.027C223.672 185.027 225.679 184.275 225.679 183.347C225.679 182.418 223.672 181.666 221.197 181.666C218.723 181.666 216.716 182.418 216.716 183.347C216.716 184.275 218.723 185.027 221.197 185.027Z" fill="#2F2E41"/>
<path d="M231.952 184.803C234.427 184.803 236.433 184.051 236.433 183.123C236.433 182.194 234.427 181.442 231.952 181.442C229.477 181.442 227.471 182.194 227.471 183.123C227.471 184.051 229.477 184.803 231.952 184.803Z" fill="#2F2E41"/>
<path d="M225.23 161.274C228.571 161.274 231.28 158.566 231.28 155.224C231.28 151.883 228.571 149.174 225.23 149.174C221.889 149.174 219.181 151.883 219.181 155.224C219.181 158.566 221.889 161.274 225.23 161.274Z" fill="white"/>
<path d="M225.23 157.241C226.344 157.241 227.247 156.338 227.247 155.224C227.247 154.11 226.344 153.207 225.23 153.207C224.117 153.207 223.214 154.11 223.214 155.224C223.214 156.338 224.117 157.241 225.23 157.241Z" fill="#3F3D56"/>
<path d="M207.613 143.243C206.183 136.841 210.752 130.373 217.817 128.795C224.882 127.217 231.768 131.128 233.197 137.529C234.626 143.931 229.944 146.292 222.879 147.87C215.814 149.447 209.042 149.644 207.613 143.243Z" fill="#F3F3F3"/>
<path d="M212.842 155.284C213.5 153.898 210.453 151.076 206.037 148.981C201.62 146.886 197.507 146.312 196.85 147.698C196.192 149.085 199.239 151.907 203.655 154.002C208.072 156.097 212.185 156.671 212.842 155.284Z" fill="#2F2E41"/>
<path d="M216.088 166.092C216.088 167.825 220.549 171.246 225.498 171.246C230.448 171.246 235.089 166.368 235.089 164.635C235.089 162.903 230.448 164.972 225.498 164.972C220.549 164.972 216.088 164.359 216.088 166.092Z" fill="white"/>
<path d="M276.471 184.021C277.833 184.021 278.937 182.917 278.937 181.555C278.937 180.193 277.833 179.089 276.471 179.089C275.11 179.089 274.006 180.193 274.006 181.555C274.006 182.917 275.11 184.021 276.471 184.021Z" fill="#EA4647"/>
<path d="M283.188 164.112C284.55 164.112 285.654 163.008 285.654 161.646C285.654 160.284 284.55 159.18 283.188 159.18C281.826 159.18 280.722 160.284 280.722 161.646C280.722 163.008 281.826 164.112 283.188 164.112Z" fill="#EA4647"/>
<path d="M277.047 153.935C278.409 153.935 279.513 152.831 279.513 151.469C279.513 150.107 278.409 149.002 277.047 149.002C275.685 149.002 274.581 150.107 274.581 151.469C274.581 152.831 275.685 153.935 277.047 153.935Z" fill="#EA4647"/>
<path d="M255.76 220.509L257.086 225.308L265.683 222.931L264.357 218.132L255.76 220.509Z" fill="#2F2E41"/>
<path d="M256.355 226.154C257.183 225.925 257.36 223.949 256.749 221.741C256.139 219.532 254.973 217.927 254.145 218.156C253.316 218.385 253.14 220.361 253.75 222.57C254.361 224.779 255.527 226.383 256.355 226.154Z" fill="#2F2E41"/>
<path d="M282.897 204.004C283.505 199.519 282.856 195.729 281.449 195.538C280.041 195.347 278.407 198.828 277.799 203.313C277.192 207.798 277.84 211.588 279.248 211.779C280.655 211.969 282.289 208.489 282.897 204.004Z" fill="#2F2E41"/>
<path d="M278.744 235.388C287.794 235.388 295.131 228.051 295.131 219C295.131 209.948 287.794 202.611 278.744 202.611C269.694 202.611 262.358 209.948 262.358 219C262.358 228.051 269.694 235.388 278.744 235.388Z" fill="#2F2E41"/>
<path d="M255.76 217.604L257.086 222.403L265.683 220.027L264.357 215.228L255.76 217.604Z" fill="#2F2E41"/>
<path d="M256.355 223.253C257.183 223.024 257.359 221.048 256.749 218.839C256.138 216.63 254.972 215.025 254.144 215.254C253.316 215.483 253.14 217.459 253.75 219.668C254.36 221.877 255.527 223.482 256.355 223.253Z" fill="#2F2E41"/>
<path d="M283.047 215.212C286.14 215.212 288.647 212.704 288.647 209.611C288.647 206.518 286.14 204.01 283.047 204.01C279.954 204.01 277.446 206.518 277.446 209.611C277.446 212.704 279.954 215.212 283.047 215.212Z" fill="white"/>
<path d="M284.838 209.004C285.869 209.004 286.705 208.168 286.705 207.137C286.705 206.105 285.869 205.27 284.838 205.27C283.807 205.27 282.971 206.105 282.971 207.137C282.971 208.168 283.807 209.004 284.838 209.004Z" fill="#3F3D56"/>
<path d="M297.667 230.262C303.731 229.958 308.375 224.285 308.04 217.591C307.705 210.897 302.518 205.716 296.454 206.02C290.39 206.324 289.439 211.084 289.774 217.779C290.109 224.473 291.603 230.565 297.667 230.262Z" fill="#F3F3F3"/>
<path d="M272.047 212.066C271.06 212.145 270.082 211.83 269.327 211.188C268.573 210.547 268.104 209.632 268.024 208.645C267.944 207.658 268.26 206.679 268.901 205.925C269.543 205.17 270.458 204.701 271.445 204.622C273.5 204.455 274.06 206.087 274.227 208.143C274.393 210.198 274.102 211.899 272.047 212.066Z" fill="white"/>
<path d="M276.746 207.899C277.354 203.414 276.706 199.624 275.298 199.433C273.89 199.242 272.257 202.723 271.649 207.207C271.041 211.692 271.689 215.482 273.097 215.673C274.505 215.864 276.139 212.383 276.746 207.899Z" fill="#2F2E41"/>
<path d="M275.238 200.053C276.6 200.053 277.704 198.948 277.704 197.586C277.704 196.224 276.6 195.12 275.238 195.12C273.877 195.12 272.773 196.224 272.773 197.586C272.773 198.948 273.877 200.053 275.238 200.053Z" fill="#EA4647"/>
<path d="M260.869 140.854C260.925 140.42 260.888 139.979 260.76 139.561C260.632 139.143 260.416 138.757 260.127 138.429C259.837 138.101 259.481 137.839 259.081 137.661C258.682 137.482 258.249 137.391 257.812 137.394H256.835C257.072 136.951 257.195 136.457 257.195 135.955C257.193 135.139 256.867 134.356 256.29 133.778C255.712 133.201 254.93 132.875 254.113 132.873H243.838C243.021 132.873 242.237 133.197 241.659 133.775C241.081 134.354 240.756 135.138 240.756 135.955C240.756 136.773 241.081 137.557 241.659 138.135C242.237 138.713 243.021 139.038 243.838 139.038H244.815C244.578 139.481 244.455 139.975 244.455 140.477C244.457 141.118 244.658 141.743 245.031 142.264C245.404 142.786 245.93 143.179 246.535 143.388C246.479 143.822 246.516 144.263 246.644 144.681C246.772 145.099 246.988 145.485 247.277 145.813C247.567 146.141 247.923 146.403 248.323 146.581C248.722 146.76 249.155 146.851 249.592 146.848H259.867C260.596 146.849 261.302 146.591 261.859 146.119C262.415 145.648 262.787 144.995 262.907 144.276C263.027 143.556 262.888 142.818 262.515 142.191C262.142 141.564 261.558 141.091 260.869 140.854V140.854Z" fill="#EA4647"/>
<path d="M122.995 163.128L122.772 162.905L121.568 164.109L121.791 164.332L122.995 163.128Z" fill="#3F3D56"/>
</g>
<defs>
<clipPath id="clip0">
<rect width="367" height="236" fill="white"/>
</clipPath>
</defs>
</svg>
