<svg width="216" height="216" viewBox="0 0 216 216" fill="none" xmlns="http://www.w3.org/2000/svg">
<g clip-path="url(#clip0)">
<path d="M108 216C167.647 216 216 167.647 216 108C216 48.3532 167.647 0 108 0C48.3532 0 0 48.3532 0 108C0 167.647 48.3532 216 108 216Z" fill="white"/>
<path d="M77.9643 149.412C81.1969 138.112 84.8874 129.489 89.0359 123.546C93.1845 117.603 100.005 111.609 109.497 105.564L133.418 91.2691C143.86 84.3537 150.473 75.697 153.26 65.2989C155.943 55.2824 155.416 46.7572 151.678 39.7234C147.965 32.5938 141.1 27.6871 131.084 25.0032C121.353 22.396 112.841 22.8756 105.546 26.442C98.2516 30.0084 93.4412 36.1321 91.1151 44.8131L64.643 37.7199C68.9747 22.3172 77.7955 11.3379 91.1056 4.78195C104.537 -1.84347 119.933 -2.83013 137.295 1.82199C155.324 6.653 168.044 15.2755 175.453 27.6895C182.984 40.0337 184.487 54.6483 179.962 71.5334C175.489 88.2274 163.353 102.613 143.553 114.69L123.815 125.965C114.781 131.826 108.321 142.007 104.436 156.507L77.9639 149.413L77.9643 149.412ZM64.6654 194.466C65.8156 190.173 68.062 186.941 71.4045 184.769C74.8679 182.527 79.1753 182.097 84.3265 183.477C89.4777 184.857 92.9927 187.384 94.8713 191.057C96.7755 194.634 97.1525 198.57 96.0023 202.862C94.852 207.155 92.5579 210.375 89.1201 212.521C85.7077 214.572 81.426 214.907 76.2747 213.527C71.1235 212.146 67.583 209.715 65.6532 206.233C63.8444 202.681 63.5151 198.759 64.6654 194.466Z" fill="#246EBA"/>
</g>
<defs>
<clipPath id="clip0">
<rect width="216" height="216" fill="white"/>
</clipPath>
</defs>
</svg>
