<svg width="375" height="250" viewBox="0 0 375 250" fill="none" xmlns="http://www.w3.org/2000/svg">
<g clip-path="url(#clip0)">
<path d="M137.71 199.831C140.027 193.768 140.363 188.264 138.46 187.537C136.557 186.81 133.135 191.134 130.818 197.196C128.501 203.259 128.166 208.763 130.069 209.49C131.972 210.217 135.393 205.893 137.71 199.831Z" fill="#2F2E41"/>
<path d="M135.74 220.026C137.819 207.214 129.118 195.142 116.306 193.063C103.494 190.984 91.4222 199.684 89.3431 212.496C87.264 225.309 95.9648 237.38 108.777 239.459C121.589 241.539 133.661 232.838 135.74 220.026Z" fill="#2F2E41"/>
<path d="M108.972 234.706H101.832V247.498H108.972V234.706Z" fill="#2F2E41"/>
<path d="M123.251 234.706H116.111V247.498H123.251V234.706Z" fill="#2F2E41"/>
<path d="M107.782 249.877C111.068 249.877 113.731 248.878 113.731 247.646C113.731 246.414 111.068 245.415 107.782 245.415C104.496 245.415 101.832 246.414 101.832 247.646C101.832 248.878 104.496 249.877 107.782 249.877Z" fill="#2F2E41"/>
<path d="M122.061 249.58C125.347 249.58 128.011 248.581 128.011 247.349C128.011 246.117 125.347 245.118 122.061 245.118C118.775 245.118 116.111 246.117 116.111 247.349C116.111 248.581 118.775 249.58 122.061 249.58Z" fill="#2F2E41"/>
<path d="M113.372 218.34C117.807 218.209 121.296 214.509 121.165 210.075C121.035 205.641 117.335 202.152 112.901 202.282C108.466 202.412 104.977 206.113 105.108 210.547C105.238 214.981 108.938 218.47 113.372 218.34Z" fill="white"/>
<path d="M113.136 212.989C114.615 212.989 115.814 211.79 115.814 210.311C115.814 208.832 114.615 207.634 113.136 207.634C111.658 207.634 110.459 208.832 110.459 210.311C110.459 211.79 111.658 212.989 113.136 212.989Z" fill="#3F3D56"/>
<path d="M89.744 194.405C87.8463 185.906 93.9124 177.319 103.293 175.224C112.673 173.129 121.816 178.321 123.714 186.819C125.612 195.318 119.395 198.452 110.014 200.547C100.634 202.642 91.6416 202.903 89.744 194.405Z" fill="#E6E6E6"/>
<path d="M96.6879 210.391C97.5609 208.551 93.5152 204.804 87.6514 202.023C81.7877 199.242 76.3264 198.479 75.4533 200.32C74.5802 202.161 78.626 205.908 84.4898 208.689C90.3535 211.47 95.8148 212.232 96.6879 210.391Z" fill="#2F2E41"/>
<path d="M100.997 224.74C100.997 227.04 106.92 231.582 113.492 231.582C120.064 231.582 126.226 225.106 126.226 222.806C126.226 220.506 120.064 223.252 113.492 223.252C106.92 223.252 100.997 222.439 100.997 224.74Z" fill="white"/>
<path d="M277.828 152.394L252.3 177.589L194.608 234.516L193.441 235.668L186.936 242.085L173.299 228.612L172.098 227.428L147.165 202.8H147.16L139.171 194.904L134.451 190.238L120.393 176.356L118.495 174.478L96.0881 152.345C91.6366 147.895 87.8637 142.815 84.8903 137.267C84.6175 136.771 84.3609 136.269 84.1099 135.767C78.7963 125.172 76.5228 113.313 77.5417 101.505C78.5607 89.6968 82.8323 78.4022 89.8823 68.8751C96.9323 59.3479 106.485 51.961 117.479 47.5346C128.473 43.1081 140.479 41.8154 152.164 43.7998H152.17C152.377 43.8325 152.579 43.8652 152.786 43.9089C154.978 44.2957 157.148 44.8003 159.286 45.4205C164.879 47.0375 170.226 49.4114 175.176 52.4764C175.695 52.7983 176.208 53.1257 176.715 53.4586C180.344 55.8566 183.721 58.6155 186.794 61.6932L186.985 61.5022L187.176 61.6932C189.038 59.832 191.012 58.0862 193.086 56.4654C193.539 56.1107 193.997 55.7615 194.456 55.4231C201.474 50.2485 209.474 46.5603 217.967 44.5843C226.459 42.6082 235.266 42.3858 243.847 43.9307C246.041 44.3174 248.213 44.8238 250.352 45.4478C251.067 45.6497 251.776 45.868 252.48 46.1026C253.048 46.2881 253.615 46.4791 254.177 46.6865C258.857 48.3594 263.324 50.5755 267.487 53.2895C268.398 53.8842 269.297 54.5064 270.183 55.1558C277.681 60.6067 283.909 67.6182 288.437 75.7073C292.966 83.7965 295.687 92.7711 296.414 102.013C297.14 111.255 295.855 120.545 292.646 129.242C289.438 137.939 284.382 145.838 277.828 152.394V152.394Z" fill="#EB4647"/>
<path opacity="0.15" d="M252.3 177.589L194.608 234.517L193.441 235.668L186.936 242.086L173.299 228.612L172.098 227.428L147.165 202.801C151.171 201.868 157.326 203.15 159.58 204.263C164.922 206.899 169.315 211.226 174.74 213.693C179.584 215.88 184.995 216.477 190.199 215.401C199.924 213.36 207.449 205.84 214.085 198.441C220.72 191.035 227.503 183.09 236.829 179.658C241.746 177.846 247.028 177.437 252.3 177.589Z" fill="black"/>
<path d="M294.242 62.7465C286.304 54.7854 276.422 49.0383 265.577 46.0754C264.857 45.8734 264.142 45.6934 263.416 45.5242C260.295 44.7786 257.123 44.2697 253.926 44.0017C253.37 43.9471 252.813 43.9089 252.251 43.8816C249.447 43.7043 246.634 43.7152 243.831 43.9144C228.478 44.9417 213.996 51.4145 202.991 62.168L202.794 61.9716L202.598 62.168C195.407 55.1518 186.682 49.9057 177.114 46.8448C176.573 46.6702 176.028 46.501 175.482 46.3427C168.113 44.2053 160.424 43.3833 152.77 43.9144C152.557 43.9253 152.344 43.9417 152.137 43.9635C138.102 45.0396 124.803 50.6735 114.265 60.0071C113.272 60.8802 112.295 61.797 111.346 62.7465C102.425 71.6834 96.3003 83.0246 93.7187 95.385C91.1371 107.745 92.2106 120.59 96.8083 132.35C96.9993 132.863 97.2067 133.371 97.4249 133.878C100.672 141.622 105.401 148.657 111.346 154.588L132.584 175.554L134.254 177.207L180.213 222.571L181.397 223.744L193.468 235.662L202.794 244.868L294.242 154.582C306.403 142.395 313.233 125.881 313.233 108.664C313.233 91.4476 306.403 74.9339 294.242 62.7465ZM293.091 153.42L202.794 242.565L194.636 234.511L182.822 222.849L181.637 221.681L136.574 177.191L134.931 175.57L112.503 153.425C106.745 147.683 102.156 140.878 98.9911 133.387C98.7729 132.88 98.5653 132.372 98.3745 131.865C93.8632 120.39 92.797 107.849 95.3064 95.7778C97.8158 83.7064 103.792 72.6292 112.503 63.9034C113.518 62.8884 114.556 61.917 115.618 60.9893H115.624C125.761 52.1181 138.477 46.732 151.902 45.6224C153.687 45.4696 155.473 45.3932 157.261 45.3932C157.932 45.3932 158.598 45.4041 159.269 45.426C164.753 45.5948 170.192 46.4753 175.449 48.0453C175.989 48.2036 176.53 48.3728 177.064 48.5528C182.751 50.4065 188.142 53.0695 193.07 56.46C196.278 58.6598 199.276 61.1515 202.025 63.9034L202.603 64.4818L202.794 64.2908L202.985 64.4818L203.564 63.9034C209.677 57.7828 216.984 52.9844 225.03 49.8058C233.076 46.6272 241.689 45.1364 250.335 45.426C251.028 45.4478 251.721 45.4805 252.415 45.5297C252.971 45.5624 253.528 45.6006 254.079 45.6552C257.597 45.9706 261.082 46.5822 264.496 47.4833C265.228 47.6688 265.953 47.8707 266.674 48.0944C277.143 51.2606 286.614 57.0867 294.161 65.0042C301.708 72.9217 307.073 82.6602 309.735 93.2698C312.396 103.879 312.261 114.997 309.344 125.539C306.427 136.081 300.827 145.687 293.091 153.42V153.42Z" fill="#3F3D56"/>
<path opacity="0.15" d="M166.298 47.8979C162.794 50.6646 159.034 53.2185 156.759 57.0002C155.084 59.7942 154.358 63.0411 153.817 66.2498C152.77 72.4926 152.322 78.8882 150.27 84.8745C148.224 90.8608 144.23 96.5798 138.309 98.8117C134.636 100.192 130.587 100.116 126.674 99.8485C117.021 99.1937 107.302 97.4638 98.6146 93.2128C93.7579 90.8335 89.0483 87.6248 83.6515 87.2701C82.5532 87.1995 81.4504 87.2599 80.3664 87.4502C85.0754 72.7507 94.9292 60.2433 108.118 52.2247C121.308 44.2061 136.947 41.2147 152.164 43.7997H152.17C152.377 43.8325 152.579 43.8652 152.786 43.9089C154.978 44.2957 157.148 44.8003 159.286 45.4205C161.669 46.1099 164.01 46.9371 166.298 47.8979Z" fill="black"/>
<path d="M12.3471 220.917C14.8889 221.811 17.6179 222.035 20.2712 221.567C22.9245 221.1 25.4128 219.957 27.4962 218.249C32.8022 213.795 34.4658 206.458 35.8194 199.664L39.8232 179.57L31.441 185.342C25.413 189.492 19.2492 193.776 15.0754 199.788C10.9017 205.8 9.07983 214.007 12.4333 220.512L12.3471 220.917Z" fill="#E6E6E6"/>
<path d="M13.0637 245.246C12.2153 239.067 11.3429 232.808 11.938 226.562C12.4665 221.015 14.1588 215.597 17.6042 211.154C19.433 208.801 21.6583 206.784 24.18 205.195C24.8376 204.78 25.4429 205.823 24.7881 206.236C20.4248 208.993 17.0499 213.066 15.15 217.865C13.0517 223.202 12.7147 229.02 13.0763 234.69C13.295 238.118 13.7584 241.524 14.2254 244.926C14.2623 245.08 14.2393 245.242 14.1612 245.38C14.0831 245.517 13.9557 245.62 13.8047 245.667C13.6507 245.709 13.4865 245.688 13.3477 245.609C13.209 245.53 13.1069 245.4 13.0636 245.246H13.0637Z" fill="#F2F2F2"/>
<path d="M21.2352 234.311C22.3253 235.968 23.8237 237.316 25.5861 238.226C27.3484 239.135 29.3154 239.576 31.2974 239.505C36.391 239.263 40.6375 235.708 44.4601 232.333L55.7666 222.35L48.2836 221.992C42.9022 221.734 37.382 221.494 32.2564 223.153C27.1309 224.813 22.4038 228.807 21.4665 234.112L21.2352 234.311Z" fill="#E6E6E6"/>
<path d="M10.666 248.799C14.7495 241.573 19.4859 233.543 27.9491 230.977C30.3023 230.265 32.7697 230.011 35.2186 230.226C35.9904 230.293 35.7977 231.482 35.0273 231.416C30.9224 231.075 26.8255 232.159 23.4263 234.485C20.1552 236.712 17.6083 239.807 15.4527 243.09C14.1323 245.1 12.9496 247.196 11.7666 249.289C11.3886 249.958 10.2836 249.475 10.666 248.799H10.666Z" fill="#F2F2F2"/>
<path d="M128.759 65.0027C141.739 65.0027 152.261 54.4805 152.261 41.5008C152.261 28.5211 141.739 17.999 128.759 17.999C115.78 17.999 105.257 28.5211 105.257 41.5008C105.257 54.4805 115.78 65.0027 128.759 65.0027Z" fill="#2F2E41"/>
<path d="M125.189 59.9453H118.05V72.7374H125.189V59.9453Z" fill="#2F2E41"/>
<path d="M139.469 59.9453H132.329V72.7374H139.469V59.9453Z" fill="#2F2E41"/>
<path d="M123.999 75.1177C127.285 75.1177 129.949 74.1187 129.949 72.8865C129.949 71.6542 127.285 70.6553 123.999 70.6553C120.713 70.6553 118.05 71.6542 118.05 72.8865C118.05 74.1187 120.713 75.1177 123.999 75.1177Z" fill="#2F2E41"/>
<path d="M138.279 74.8198C141.565 74.8198 144.229 73.8209 144.229 72.5886C144.229 71.3564 141.565 70.3574 138.279 70.3574C134.993 70.3574 132.329 71.3564 132.329 72.5886C132.329 73.8209 134.993 74.8198 138.279 74.8198Z" fill="#2F2E41"/>
<path d="M129.354 43.5836C133.79 43.5836 137.387 39.9874 137.387 35.5513C137.387 31.1152 133.79 27.519 129.354 27.519C124.918 27.519 121.322 31.1152 121.322 35.5513C121.322 39.9874 124.918 43.5836 129.354 43.5836Z" fill="white"/>
<path d="M133.981 39.0871C135.022 38.0461 135.017 36.352 133.969 35.3031C132.92 34.2543 131.226 34.2479 130.185 35.2889C129.143 36.3299 129.149 38.0241 130.197 39.0729C131.245 40.1218 132.94 40.1281 133.981 39.0871Z" fill="#3F3D56"/>
<path d="M105.962 19.6449C104.064 11.1463 110.13 2.55879 119.511 0.464188C128.891 -1.63041 138.034 3.5611 139.932 12.0597C141.829 20.5583 135.613 23.6928 126.232 25.7873C116.851 27.8819 107.859 28.1435 105.962 19.6449Z" fill="#E6E6E6"/>
<path d="M317.746 201.631C319.318 200.335 317.244 195.225 313.115 190.218C308.986 185.211 304.365 182.203 302.793 183.5C301.221 184.796 303.294 189.906 307.423 194.912C311.552 199.919 316.174 202.927 317.746 201.631Z" fill="#2F2E41"/>
<path d="M334.493 239.22C347.305 237.141 356.006 225.069 353.927 212.257C351.848 199.445 339.776 190.744 326.964 192.823C314.152 194.902 305.451 206.974 307.53 219.786C309.609 232.598 321.681 241.299 334.493 239.22Z" fill="#2F2E41"/>
<path d="M341.438 234.466H334.298V247.258H341.438V234.466Z" fill="#2F2E41"/>
<path d="M327.159 234.466H320.019V247.258H327.159V234.466Z" fill="#2F2E41"/>
<path d="M335.488 249.638C338.774 249.638 341.438 248.639 341.438 247.406C341.438 246.174 338.774 245.175 335.488 245.175C332.202 245.175 329.539 246.174 329.539 247.406C329.539 248.639 332.202 249.638 335.488 249.638Z" fill="#2F2E41"/>
<path d="M321.209 249.34C324.495 249.34 327.159 248.341 327.159 247.109C327.159 245.877 324.495 244.878 321.209 244.878C317.923 244.878 315.259 245.877 315.259 247.109C315.259 248.341 317.923 249.34 321.209 249.34Z" fill="#2F2E41"/>
<path d="M338.957 203.482C331.548 197.36 327.429 191.746 332.976 185.033C338.523 178.32 349.026 177.842 356.435 183.964C363.845 190.087 365.355 200.492 359.808 207.204C354.261 213.917 346.366 209.604 338.957 203.482Z" fill="#246EBA"/>
<path d="M322.839 211.855C327.273 211.725 330.762 208.024 330.632 203.59C330.501 199.156 326.801 195.667 322.367 195.797C317.933 195.928 314.444 199.628 314.574 204.062C314.704 208.496 318.405 211.985 322.839 211.855Z" fill="white"/>
<path d="M319.78 204.514C321.259 204.514 322.457 203.315 322.457 201.837C322.457 200.358 321.259 199.159 319.78 199.159C318.301 199.159 317.103 200.358 317.103 201.837C317.103 203.315 318.301 204.514 319.78 204.514Z" fill="#3F3D56"/>
<path d="M310.462 210.442C308.836 212.068 307.686 217.342 309.973 219.63C312.261 221.917 318.986 219.483 320.612 217.857C322.238 216.231 318.151 216.027 315.864 213.74C313.576 211.452 312.089 208.815 310.462 210.442Z" fill="white"/>
<path d="M353.037 247.449C354.94 246.722 354.605 241.218 352.288 235.156C349.971 229.094 346.55 224.769 344.647 225.496C342.743 226.224 343.079 231.728 345.396 237.79C347.713 243.852 351.134 248.177 353.037 247.449Z" fill="#2F2E41"/>
</g>
<defs>
<clipPath id="clip0">
<rect width="504.226" height="250" fill="white" transform="translate(-35)"/>
</clipPath>
</defs>
</svg>
