<svg width="67" height="25" viewBox="0 0 67 25" fill="none" xmlns="http://www.w3.org/2000/svg">
<g clip-path="url(#clip0)">
<path d="M2.24236 13.9311C0.238548 14.1219 -0.238551 13.12 0.0954179 11.5933C0.381677 10.3051 1.14504 9.30322 2.00381 8.34902C4.48473 5.58184 7.39504 3.38719 10.7824 1.90818C12.0706 1.33566 13.4065 1.14482 14.5992 2.14673C15.7443 3.14864 15.5057 4.4368 15.2195 5.67726C15.0286 6.58375 14.7901 7.49024 14.5515 8.44444C14.8378 8.49215 14.9809 8.53986 15.0763 8.49215C16.3168 7.87192 17.4141 6.3452 18.8931 7.44253C20.4676 8.58757 19.4656 10.2574 19.084 11.641C18.6069 13.3109 17.9866 14.933 17.3664 16.6983C18.3683 16.6983 18.5592 15.9349 18.9885 15.4578C22.042 12.0227 25.0477 8.49215 28.8645 5.82039C31.25 4.19826 32.2042 4.53222 33.3969 7.2994C36.0687 5.15245 38.5496 2.81467 41.6985 1.43108C43.9408 0.429172 46.3263 -0.954416 48.6164 1.0494C50.7634 2.9578 49.6183 5.34329 49.0458 7.53795C48.2347 10.496 46.8988 13.3108 45.9924 16.3643C48.1393 13.6925 50.2863 11.0208 52.4809 8.39673C52.958 7.82421 53.1966 6.67917 54.1985 7.20398C55.3435 7.7765 54.8664 8.82612 54.4847 9.73261C53.2443 12.5952 51.9561 15.4101 52.0515 18.6067C52.0992 19.5609 51.9561 20.5628 53.0057 21.0876C54.0076 21.5647 54.9618 21.1353 55.6775 20.515C61.0687 15.7918 65.9828 10.7822 65.124 2.52841C66.2214 3.00551 66.3645 3.912 66.4599 4.81848C66.6508 6.3452 66.4599 7.87192 65.8397 9.25551C63.7882 13.9311 60.8779 17.9387 56.8225 21.0399C55.4389 22.0895 53.8645 22.9005 52.1946 21.8986C50.5248 20.8967 50.5725 19.1315 50.7156 17.4139C50.9065 15.1715 51.479 13.0723 51.8607 10.7345C49.6183 13.5017 47.3282 16.2689 45.0859 19.0838C44.5134 19.8471 43.9885 20.6105 43.3683 21.3738C42.8912 21.9463 42.4618 22.996 41.5553 22.328C40.6966 21.7078 41.4599 20.849 41.7939 20.2288C43.6069 16.9368 45.229 13.5971 46.708 10.162C47.4714 8.34902 48.3301 6.48833 48.5687 4.53222C48.855 1.90818 47.7099 0.715431 45.2767 1.43108C40.7443 2.76696 36.9752 5.34329 33.9695 9.01696C32.9675 10.3051 32.4427 11.6887 34.7805 12.9769C32.5859 13.5494 31.9656 12.4521 31.6794 10.6391C29.2939 14.4082 27.5763 18.0341 26.5267 21.9463C26.3836 22.4712 26.2405 23.1391 26.7653 23.5208C27.4332 24.0456 27.958 23.4731 28.4351 23.0914C29.2939 22.4234 30.105 21.6601 31.4408 20.5628C30.5821 23.0914 29.1985 24.3796 27.3855 24.9044C25.5725 25.4292 25.2863 23.807 25.334 22.5666C25.3817 20.8967 25.9542 19.2746 26.5267 17.7479C27.7672 14.4559 29.3893 11.3547 31.0114 8.30131C31.2977 7.72879 32.1565 7.06085 31.4885 6.44062C30.7729 5.72497 29.9618 6.44062 29.3893 6.91772C28.0534 7.91963 26.7176 8.92154 25.5248 10.0666C22.2805 13.2154 19.3225 16.6505 16.603 20.2765C16.0305 21.0399 15.5057 22.6143 14.3607 21.8509C13.2634 21.1353 14.5038 19.9902 14.8855 19.1315C16.1737 16.2212 17.4618 13.3109 18.3206 10.2574C18.5114 9.63719 18.7977 8.92154 18.2252 8.44444C17.605 7.96734 17.0324 8.53986 16.5076 8.87383C14.6947 10.0666 13.2156 11.5456 12.2614 13.5971C10.8302 16.6983 9.25572 19.7517 7.01336 22.3757C6.44084 23.0437 5.7729 24.1887 4.72328 23.5208C3.81679 22.9005 4.53244 21.8509 4.91412 21.1353C6.29771 18.225 8.2061 15.6963 10.4008 13.4063C12.6908 11.0685 13.5496 8.11047 14.1698 5.05703C14.5992 3.05322 13.6927 2.19444 11.7843 2.91009C7.49046 4.48452 4.10305 7.34711 1.52672 11.1162C0.715647 12.1658 1.24046 13.12 2.24236 13.9311Z" fill="white"/>
</g>
<defs>
<clipPath id="clip0">
<rect width="66.5553" height="25" fill="white"/>
</clipPath>
</defs>
</svg>
