<svg width="186" height="250" viewBox="0 0 186 250" fill="none" xmlns="http://www.w3.org/2000/svg">
<path d="M100.267 240.565C123.523 240.565 142.375 221.712 142.375 198.457C142.375 175.201 123.523 156.348 100.267 156.348C77.0109 156.348 58.1583 175.201 58.1583 198.457C58.1583 221.712 77.0109 240.565 100.267 240.565Z" fill="#2F2E41"/>
<path d="M84.2544 226.121L63.7606 236.384L69.4888 247.823L89.9825 237.56L84.2544 226.121Z" fill="#2F2E41"/>
<path d="M72.1905 246.662C73.4059 244.819 70.4065 240.698 65.4912 237.457C60.5759 234.216 55.606 233.083 54.3907 234.926C53.1754 236.769 56.1748 240.891 61.0901 244.132C66.0054 247.373 70.9752 248.506 72.1905 246.662Z" fill="#2F2E41"/>
<path d="M116.279 226.122L110.551 237.56L131.045 247.823L136.773 236.385L116.279 226.122Z" fill="#2F2E41"/>
<path d="M139.443 244.132C144.359 240.891 147.358 236.77 146.143 234.926C144.927 233.083 139.958 234.216 135.042 237.457C130.127 240.698 127.128 244.819 128.343 246.663C129.558 248.506 134.528 247.373 139.443 244.132Z" fill="#2F2E41"/>
<path d="M97.3187 202.548C105.267 202.548 111.71 196.104 111.71 188.156C111.71 180.208 105.267 173.765 97.3187 173.765C89.3705 173.765 82.9272 180.208 82.9272 188.156C82.9272 196.104 89.3705 202.548 97.3187 202.548Z" fill="white"/>
<path d="M88.8921 188.504C94.0269 184.593 99.8312 190.398 95.9203 195.532C90.7856 199.443 84.9812 193.639 88.8921 188.504Z" fill="#3F3D56"/>
<path d="M133.484 152.647C134.118 137.058 120.682 123.854 103.475 123.155C86.2682 122.456 71.8059 134.527 71.1726 150.116C70.5394 165.705 82.5004 169.247 99.7074 169.946C116.914 170.645 132.851 168.236 133.484 152.647Z" fill="#F3F3F3"/>
<path d="M157.757 220.506C160.527 218.128 156.632 209.049 149.058 200.226C141.484 191.403 133.098 186.178 130.329 188.556C127.559 190.934 131.453 200.014 139.028 208.836C146.602 217.659 154.987 222.884 157.757 220.506Z" fill="#2F2E41"/>
<path d="M61.6237 208.836C69.1978 200.013 73.0925 190.934 70.3227 188.556C67.553 186.178 59.1676 191.403 51.5935 200.226C44.0194 209.048 40.1247 218.128 42.8945 220.506C45.6642 222.884 54.0496 217.659 61.6237 208.836Z" fill="#2F2E41"/>
<path d="M111.832 215.05C112.059 216.29 112.039 217.563 111.774 218.795C111.509 220.028 111.003 221.196 110.286 222.233C109.569 223.27 108.655 224.155 107.596 224.839C106.536 225.522 105.353 225.99 104.113 226.216C102.872 226.442 101.6 226.421 100.367 226.155C99.1353 225.888 97.9676 225.382 96.9313 224.664C95.8949 223.946 95.0102 223.031 94.3277 221.971C93.6451 220.912 93.1782 219.727 92.9535 218.487L92.9501 218.469C92.0062 213.254 96.0375 211.409 101.252 210.465C106.466 209.522 110.888 209.836 111.832 215.05Z" fill="white"/>
<path d="M145.88 46.0477C150.136 34.9134 150.752 24.8042 147.257 23.4682C143.761 22.1322 137.478 30.0753 133.222 41.2096C128.966 52.344 128.35 62.4532 131.845 63.7892C135.34 65.1252 141.624 57.1821 145.88 46.0477Z" fill="#2F2E41"/>
<path d="M142.261 83.1393C146.08 59.6072 130.099 37.435 106.567 33.6163C83.0348 29.7976 60.8627 45.7784 57.0439 69.3104C53.2252 92.8425 69.206 115.015 92.738 118.833C116.27 122.652 138.442 106.671 142.261 83.1393Z" fill="#2F2E41"/>
<path d="M93.0957 110.102H79.982V133.597H93.0957V110.102Z" fill="#2F2E41"/>
<path d="M119.323 110.102H106.209V133.597H119.323V110.102Z" fill="#2F2E41"/>
<path d="M90.9101 137.969C96.9455 137.969 101.838 136.134 101.838 133.87C101.838 131.607 96.9455 129.772 90.9101 129.772C84.8746 129.772 79.982 131.607 79.982 133.87C79.982 136.134 84.8746 137.969 90.9101 137.969Z" fill="#2F2E41"/>
<path d="M117.137 137.422C123.173 137.422 128.066 135.587 128.066 133.324C128.066 131.061 123.173 129.226 117.137 129.226C111.102 129.226 106.209 131.061 106.209 133.324C106.209 135.587 111.102 137.422 117.137 137.422Z" fill="#2F2E41"/>
<path d="M101.179 80.0431C109.323 79.8038 115.731 73.0075 115.492 64.8632C115.252 56.7189 108.456 50.3107 100.312 50.5501C92.1676 50.7894 85.7594 57.5856 85.9988 65.7299C86.2381 73.8742 93.0343 80.2825 101.179 80.0431Z" fill="white"/>
<path d="M100.745 70.2142C103.461 70.2142 105.663 68.0125 105.663 65.2966C105.663 62.5806 103.461 60.3789 100.745 60.3789C98.0294 60.3789 95.8277 62.5806 95.8277 65.2966C95.8277 68.0125 98.0294 70.2142 100.745 70.2142Z" fill="#3F3D56"/>
<path d="M57.7802 36.0818C54.2948 20.4724 65.4364 4.69974 82.6656 0.852576C99.8949 -2.99459 116.688 6.54067 120.173 22.15C123.658 37.7594 112.24 43.5165 95.0107 47.3636C77.7814 51.2108 61.2656 51.6912 57.7802 36.0818Z" fill="#EA4647"/>
<path d="M70.5341 65.4448C72.1377 62.0638 64.7069 55.182 53.9369 50.074C43.1669 44.966 33.1361 43.5659 31.5325 46.947C29.929 50.328 37.3598 57.2097 48.1298 62.3178C58.8998 67.4258 68.9306 68.8258 70.5341 65.4448Z" fill="#2F2E41"/>
<path d="M78.4495 91.7976C78.4495 96.0224 89.3276 104.365 101.398 104.365C113.469 104.365 124.787 92.4707 124.787 88.246C124.787 84.0213 113.469 89.0656 101.398 89.0656C89.3277 89.0656 78.4495 87.5728 78.4495 91.7976Z" fill="white"/>
<path d="M182.954 66.9729L151.18 73.1752C150.666 73.2773 150.134 73.2607 149.627 73.1266C149.12 72.9924 148.65 72.7443 148.253 72.4011C147.848 72.0538 147.528 71.6187 147.317 71.1289C147.106 70.639 147.009 70.1074 147.034 69.5746C147.576 56.5452 145.043 43.5712 139.641 31.7023C139.417 31.2179 139.307 30.689 139.319 30.1556C139.331 29.6223 139.464 29.0987 139.708 28.6246C139.947 28.1574 140.289 27.7507 140.708 27.4357C141.128 27.1207 141.614 26.9056 142.129 26.8067L173.903 20.6044C174.715 20.4475 175.557 20.584 176.278 20.9895C176.999 21.395 177.553 22.0432 177.84 22.8187C182.541 35.8754 185.215 49.5746 185.77 63.4404C185.795 64.2673 185.525 65.0761 185.01 65.723C184.494 66.3699 183.766 66.8127 182.954 66.9729V66.9729Z" fill="#FF6584"/>
<path d="M43.6361 96.0393L11.8621 102.242C11.3475 102.344 10.8164 102.327 10.3092 102.193C9.80204 102.059 9.33213 101.811 8.93532 101.468C8.53042 101.12 8.21012 100.685 7.9988 100.195C7.78748 99.7054 7.69072 99.1738 7.7159 98.641C8.25793 85.6116 5.72536 72.6376 0.323042 60.7687C0.0994089 60.2844 -0.0108025 59.7554 0.000834447 59.2221C0.0124714 58.6887 0.145636 58.1651 0.390182 57.691C0.628804 57.2238 0.970882 56.8171 1.39039 56.5021C1.8099 56.1871 2.29577 55.972 2.81099 55.8731L34.585 49.6708C35.3972 49.514 36.2387 49.6504 36.9598 50.0559C37.6808 50.4614 38.2345 51.1096 38.5224 51.8851C43.2224 64.9418 45.8965 78.641 46.4518 92.5068C46.4767 93.3336 46.2073 94.1425 45.6917 94.7894C45.1761 95.4363 44.4477 95.8792 43.6361 96.0393V96.0393Z" fill="#F3F3F3"/>
<path d="M85.8634 242.297L54.0893 248.499C53.5747 248.602 53.0436 248.585 52.5365 248.451C52.0293 248.317 51.5594 248.069 51.1626 247.725C50.7577 247.378 50.4374 246.943 50.2261 246.453C50.0147 245.963 49.918 245.432 49.9432 244.899C50.4852 231.869 47.9526 218.895 42.5503 207.027C42.3266 206.542 42.2165 206.013 42.2281 205.48C42.2397 204.947 42.3729 204.423 42.6174 203.949C42.8561 203.482 43.1981 203.075 43.6177 202.76C44.0372 202.445 44.523 202.23 45.0383 202.131L76.8123 195.929C77.6245 195.772 78.466 195.908 79.187 196.314C79.908 196.719 80.4618 197.367 80.7496 198.143C85.4497 211.2 88.1238 224.899 88.679 238.765C88.7039 239.591 88.4346 240.4 87.919 241.047C87.4034 241.694 86.6749 242.137 85.8634 242.297V242.297Z" fill="#EA4647"/>
</svg>
